<?xml version="1.0" encoding="utf-8" standalone="no"?>
<!DOCTYPE svg PUBLIC "-//W3C//DTD SVG 1.1//EN"
  "http://www.w3.org/Graphics/SVG/1.1/DTD/svg11.dtd">
<!-- Created with matplotlib (http://matplotlib.org/) -->
<svg height="284.640938pt" version="1.1" viewBox="0 0 394.94 284.640938" width="394.94pt" xmlns="http://www.w3.org/2000/svg" xmlns:xlink="http://www.w3.org/1999/xlink">
 <defs>
  <style type="text/css">
*{stroke-linecap:butt;stroke-linejoin:round;}
  </style>
 </defs>
 <g id="figure_1">
  <g id="patch_1">
   <path d="M 0 284.640938 
L 394.94 284.640938 
L 394.94 0 
L 0 0 
z
" style="fill:none;"/>
  </g>
  <g id="axes_1">
   <g id="patch_2">
    <path d="M 49.44 241.277813 
L 384.24 241.277813 
L 384.24 23.837812 
L 49.44 23.837812 
z
" style="fill:#ffffff;"/>
   </g>
   <g id="matplotlib.axis_1">
    <g id="xtick_1">
     <g id="line2d_1">
      <defs>
       <path d="M 0 0 
L 0 3.5 
" id="m8724342ddb" style="stroke:#000000;stroke-width:0.8;"/>
      </defs>
      <g>
       <use style="stroke:#000000;stroke-width:0.8;" x="64.658182" xlink:href="#m8724342ddb" y="241.277813"/>
      </g>
     </g>
     <g id="text_1">
      <!-- 0.0 -->
      <defs>
       <path d="M 31.78125 66.40625 
Q 24.171875 66.40625 20.328125 58.90625 
Q 16.5 51.421875 16.5 36.375 
Q 16.5 21.390625 20.328125 13.890625 
Q 24.171875 6.390625 31.78125 6.390625 
Q 39.453125 6.390625 43.28125 13.890625 
Q 47.125 21.390625 47.125 36.375 
Q 47.125 51.421875 43.28125 58.90625 
Q 39.453125 66.40625 31.78125 66.40625 
z
M 31.78125 74.21875 
Q 44.046875 74.21875 50.515625 64.515625 
Q 56.984375 54.828125 56.984375 36.375 
Q 56.984375 17.96875 50.515625 8.265625 
Q 44.046875 -1.421875 31.78125 -1.421875 
Q 19.53125 -1.421875 13.0625 8.265625 
Q 6.59375 17.96875 6.59375 36.375 
Q 6.59375 54.828125 13.0625 64.515625 
Q 19.53125 74.21875 31.78125 74.21875 
z
" id="DejaVuSans-30"/>
       <path d="M 10.6875 12.40625 
L 21 12.40625 
L 21 0 
L 10.6875 0 
z
" id="DejaVuSans-2e"/>
      </defs>
      <g transform="translate(55.116307 257.395938)scale(0.12 -0.12)">
       <use xlink:href="#DejaVuSans-30"/>
       <use x="63.623047" xlink:href="#DejaVuSans-2e"/>
       <use x="95.410156" xlink:href="#DejaVuSans-30"/>
      </g>
     </g>
    </g>
    <g id="xtick_2">
     <g id="line2d_2">
      <g>
       <use style="stroke:#000000;stroke-width:0.8;" x="125.530909" xlink:href="#m8724342ddb" y="241.277813"/>
      </g>
     </g>
     <g id="text_2">
      <!-- 0.2 -->
      <defs>
       <path d="M 19.1875 8.296875 
L 53.609375 8.296875 
L 53.609375 0 
L 7.328125 0 
L 7.328125 8.296875 
Q 12.9375 14.109375 22.625 23.890625 
Q 32.328125 33.6875 34.8125 36.53125 
Q 39.546875 41.84375 41.421875 45.53125 
Q 43.3125 49.21875 43.3125 52.78125 
Q 43.3125 58.59375 39.234375 62.25 
Q 35.15625 65.921875 28.609375 65.921875 
Q 23.96875 65.921875 18.8125 64.3125 
Q 13.671875 62.703125 7.8125 59.421875 
L 7.8125 69.390625 
Q 13.765625 71.78125 18.9375 73 
Q 24.125 74.21875 28.421875 74.21875 
Q 39.75 74.21875 46.484375 68.546875 
Q 53.21875 62.890625 53.21875 53.421875 
Q 53.21875 48.921875 51.53125 44.890625 
Q 49.859375 40.875 45.40625 35.40625 
Q 44.1875 33.984375 37.640625 27.21875 
Q 31.109375 20.453125 19.1875 8.296875 
z
" id="DejaVuSans-32"/>
      </defs>
      <g transform="translate(115.989034 257.395938)scale(0.12 -0.12)">
       <use xlink:href="#DejaVuSans-30"/>
       <use x="63.623047" xlink:href="#DejaVuSans-2e"/>
       <use x="95.410156" xlink:href="#DejaVuSans-32"/>
      </g>
     </g>
    </g>
    <g id="xtick_3">
     <g id="line2d_3">
      <g>
       <use style="stroke:#000000;stroke-width:0.8;" x="186.403636" xlink:href="#m8724342ddb" y="241.277813"/>
      </g>
     </g>
     <g id="text_3">
      <!-- 0.4 -->
      <defs>
       <path d="M 37.796875 64.3125 
L 12.890625 25.390625 
L 37.796875 25.390625 
z
M 35.203125 72.90625 
L 47.609375 72.90625 
L 47.609375 25.390625 
L 58.015625 25.390625 
L 58.015625 17.1875 
L 47.609375 17.1875 
L 47.609375 0 
L 37.796875 0 
L 37.796875 17.1875 
L 4.890625 17.1875 
L 4.890625 26.703125 
z
" id="DejaVuSans-34"/>
      </defs>
      <g transform="translate(176.861761 257.395938)scale(0.12 -0.12)">
       <use xlink:href="#DejaVuSans-30"/>
       <use x="63.623047" xlink:href="#DejaVuSans-2e"/>
       <use x="95.410156" xlink:href="#DejaVuSans-34"/>
      </g>
     </g>
    </g>
    <g id="xtick_4">
     <g id="line2d_4">
      <g>
       <use style="stroke:#000000;stroke-width:0.8;" x="247.276364" xlink:href="#m8724342ddb" y="241.277813"/>
      </g>
     </g>
     <g id="text_4">
      <!-- 0.6 -->
      <defs>
       <path d="M 33.015625 40.375 
Q 26.375 40.375 22.484375 35.828125 
Q 18.609375 31.296875 18.609375 23.390625 
Q 18.609375 15.53125 22.484375 10.953125 
Q 26.375 6.390625 33.015625 6.390625 
Q 39.65625 6.390625 43.53125 10.953125 
Q 47.40625 15.53125 47.40625 23.390625 
Q 47.40625 31.296875 43.53125 35.828125 
Q 39.65625 40.375 33.015625 40.375 
z
M 52.59375 71.296875 
L 52.59375 62.3125 
Q 48.875 64.0625 45.09375 64.984375 
Q 41.3125 65.921875 37.59375 65.921875 
Q 27.828125 65.921875 22.671875 59.328125 
Q 17.53125 52.734375 16.796875 39.40625 
Q 19.671875 43.65625 24.015625 45.921875 
Q 28.375 48.1875 33.59375 48.1875 
Q 44.578125 48.1875 50.953125 41.515625 
Q 57.328125 34.859375 57.328125 23.390625 
Q 57.328125 12.15625 50.6875 5.359375 
Q 44.046875 -1.421875 33.015625 -1.421875 
Q 20.359375 -1.421875 13.671875 8.265625 
Q 6.984375 17.96875 6.984375 36.375 
Q 6.984375 53.65625 15.1875 63.9375 
Q 23.390625 74.21875 37.203125 74.21875 
Q 40.921875 74.21875 44.703125 73.484375 
Q 48.484375 72.75 52.59375 71.296875 
z
" id="DejaVuSans-36"/>
      </defs>
      <g transform="translate(237.734489 257.395938)scale(0.12 -0.12)">
       <use xlink:href="#DejaVuSans-30"/>
       <use x="63.623047" xlink:href="#DejaVuSans-2e"/>
       <use x="95.410156" xlink:href="#DejaVuSans-36"/>
      </g>
     </g>
    </g>
    <g id="xtick_5">
     <g id="line2d_5">
      <g>
       <use style="stroke:#000000;stroke-width:0.8;" x="308.149091" xlink:href="#m8724342ddb" y="241.277813"/>
      </g>
     </g>
     <g id="text_5">
      <!-- 0.8 -->
      <defs>
       <path d="M 31.78125 34.625 
Q 24.75 34.625 20.71875 30.859375 
Q 16.703125 27.09375 16.703125 20.515625 
Q 16.703125 13.921875 20.71875 10.15625 
Q 24.75 6.390625 31.78125 6.390625 
Q 38.8125 6.390625 42.859375 10.171875 
Q 46.921875 13.96875 46.921875 20.515625 
Q 46.921875 27.09375 42.890625 30.859375 
Q 38.875 34.625 31.78125 34.625 
z
M 21.921875 38.8125 
Q 15.578125 40.375 12.03125 44.71875 
Q 8.5 49.078125 8.5 55.328125 
Q 8.5 64.0625 14.71875 69.140625 
Q 20.953125 74.21875 31.78125 74.21875 
Q 42.671875 74.21875 48.875 69.140625 
Q 55.078125 64.0625 55.078125 55.328125 
Q 55.078125 49.078125 51.53125 44.71875 
Q 48 40.375 41.703125 38.8125 
Q 48.828125 37.15625 52.796875 32.3125 
Q 56.78125 27.484375 56.78125 20.515625 
Q 56.78125 9.90625 50.3125 4.234375 
Q 43.84375 -1.421875 31.78125 -1.421875 
Q 19.734375 -1.421875 13.25 4.234375 
Q 6.78125 9.90625 6.78125 20.515625 
Q 6.78125 27.484375 10.78125 32.3125 
Q 14.796875 37.15625 21.921875 38.8125 
z
M 18.3125 54.390625 
Q 18.3125 48.734375 21.84375 45.5625 
Q 25.390625 42.390625 31.78125 42.390625 
Q 38.140625 42.390625 41.71875 45.5625 
Q 45.3125 48.734375 45.3125 54.390625 
Q 45.3125 60.0625 41.71875 63.234375 
Q 38.140625 66.40625 31.78125 66.40625 
Q 25.390625 66.40625 21.84375 63.234375 
Q 18.3125 60.0625 18.3125 54.390625 
z
" id="DejaVuSans-38"/>
      </defs>
      <g transform="translate(298.607216 257.395938)scale(0.12 -0.12)">
       <use xlink:href="#DejaVuSans-30"/>
       <use x="63.623047" xlink:href="#DejaVuSans-2e"/>
       <use x="95.410156" xlink:href="#DejaVuSans-38"/>
      </g>
     </g>
    </g>
    <g id="xtick_6">
     <g id="line2d_6">
      <g>
       <use style="stroke:#000000;stroke-width:0.8;" x="369.021818" xlink:href="#m8724342ddb" y="241.277813"/>
      </g>
     </g>
     <g id="text_6">
      <!-- 1.0 -->
      <defs>
       <path d="M 12.40625 8.296875 
L 28.515625 8.296875 
L 28.515625 63.921875 
L 10.984375 60.40625 
L 10.984375 69.390625 
L 28.421875 72.90625 
L 38.28125 72.90625 
L 38.28125 8.296875 
L 54.390625 8.296875 
L 54.390625 0 
L 12.40625 0 
z
" id="DejaVuSans-31"/>
      </defs>
      <g transform="translate(359.479943 257.395938)scale(0.12 -0.12)">
       <use xlink:href="#DejaVuSans-31"/>
       <use x="63.623047" xlink:href="#DejaVuSans-2e"/>
       <use x="95.410156" xlink:href="#DejaVuSans-30"/>
      </g>
     </g>
    </g>
    <g id="text_7">
     <!-- x -->
     <defs>
      <path d="M 54.890625 54.6875 
L 35.109375 28.078125 
L 55.90625 0 
L 45.3125 0 
L 29.390625 21.484375 
L 13.484375 0 
L 2.875 0 
L 24.125 28.609375 
L 4.6875 54.6875 
L 15.28125 54.6875 
L 29.78125 35.203125 
L 44.28125 54.6875 
z
" id="DejaVuSans-78"/>
     </defs>
     <g transform="translate(212.696875 274.529375)scale(0.14 -0.14)">
      <use xlink:href="#DejaVuSans-78"/>
     </g>
    </g>
   </g>
   <g id="matplotlib.axis_2">
    <g id="ytick_1">
     <g id="line2d_7">
      <defs>
       <path d="M 0 0 
L -3.5 0 
" id="m409e47ae0a" style="stroke:#000000;stroke-width:0.8;"/>
      </defs>
      <g>
       <use style="stroke:#000000;stroke-width:0.8;" x="49.44" xlink:href="#m409e47ae0a" y="238.470692"/>
      </g>
     </g>
     <g id="text_8">
      <!-- −4 -->
      <defs>
       <path d="M 10.59375 35.5 
L 73.1875 35.5 
L 73.1875 27.203125 
L 10.59375 27.203125 
z
" id="DejaVuSans-2212"/>
      </defs>
      <g transform="translate(24.749375 243.029754)scale(0.12 -0.12)">
       <use xlink:href="#DejaVuSans-2212"/>
       <use x="83.789062" xlink:href="#DejaVuSans-34"/>
      </g>
     </g>
    </g>
    <g id="ytick_2">
     <g id="line2d_8">
      <g>
       <use style="stroke:#000000;stroke-width:0.8;" x="49.44" xlink:href="#m409e47ae0a" y="213.577951"/>
      </g>
     </g>
     <g id="text_9">
      <!-- −3 -->
      <defs>
       <path d="M 40.578125 39.3125 
Q 47.65625 37.796875 51.625 33 
Q 55.609375 28.21875 55.609375 21.1875 
Q 55.609375 10.40625 48.1875 4.484375 
Q 40.765625 -1.421875 27.09375 -1.421875 
Q 22.515625 -1.421875 17.65625 -0.515625 
Q 12.796875 0.390625 7.625 2.203125 
L 7.625 11.71875 
Q 11.71875 9.328125 16.59375 8.109375 
Q 21.484375 6.890625 26.8125 6.890625 
Q 36.078125 6.890625 40.9375 10.546875 
Q 45.796875 14.203125 45.796875 21.1875 
Q 45.796875 27.640625 41.28125 31.265625 
Q 36.765625 34.90625 28.71875 34.90625 
L 20.21875 34.90625 
L 20.21875 43.015625 
L 29.109375 43.015625 
Q 36.375 43.015625 40.234375 45.921875 
Q 44.09375 48.828125 44.09375 54.296875 
Q 44.09375 59.90625 40.109375 62.90625 
Q 36.140625 65.921875 28.71875 65.921875 
Q 24.65625 65.921875 20.015625 65.03125 
Q 15.375 64.15625 9.8125 62.3125 
L 9.8125 71.09375 
Q 15.4375 72.65625 20.34375 73.4375 
Q 25.25 74.21875 29.59375 74.21875 
Q 40.828125 74.21875 47.359375 69.109375 
Q 53.90625 64.015625 53.90625 55.328125 
Q 53.90625 49.265625 50.4375 45.09375 
Q 46.96875 40.921875 40.578125 39.3125 
z
" id="DejaVuSans-33"/>
      </defs>
      <g transform="translate(24.749375 218.137014)scale(0.12 -0.12)">
       <use xlink:href="#DejaVuSans-2212"/>
       <use x="83.789062" xlink:href="#DejaVuSans-33"/>
      </g>
     </g>
    </g>
    <g id="ytick_3">
     <g id="line2d_9">
      <g>
       <use style="stroke:#000000;stroke-width:0.8;" x="49.44" xlink:href="#m409e47ae0a" y="188.685211"/>
      </g>
     </g>
     <g id="text_10">
      <!-- −2 -->
      <g transform="translate(24.749375 193.244274)scale(0.12 -0.12)">
       <use xlink:href="#DejaVuSans-2212"/>
       <use x="83.789062" xlink:href="#DejaVuSans-32"/>
      </g>
     </g>
    </g>
    <g id="ytick_4">
     <g id="line2d_10">
      <g>
       <use style="stroke:#000000;stroke-width:0.8;" x="49.44" xlink:href="#m409e47ae0a" y="163.792471"/>
      </g>
     </g>
     <g id="text_11">
      <!-- −1 -->
      <g transform="translate(24.749375 168.351533)scale(0.12 -0.12)">
       <use xlink:href="#DejaVuSans-2212"/>
       <use x="83.789062" xlink:href="#DejaVuSans-31"/>
      </g>
     </g>
    </g>
    <g id="ytick_5">
     <g id="line2d_11">
      <g>
       <use style="stroke:#000000;stroke-width:0.8;" x="49.44" xlink:href="#m409e47ae0a" y="138.89973"/>
      </g>
     </g>
     <g id="text_12">
      <!-- 0 -->
      <g transform="translate(34.805 143.458793)scale(0.12 -0.12)">
       <use xlink:href="#DejaVuSans-30"/>
      </g>
     </g>
    </g>
    <g id="ytick_6">
     <g id="line2d_12">
      <g>
       <use style="stroke:#000000;stroke-width:0.8;" x="49.44" xlink:href="#m409e47ae0a" y="114.00699"/>
      </g>
     </g>
     <g id="text_13">
      <!-- 1 -->
      <g transform="translate(34.805 118.566052)scale(0.12 -0.12)">
       <use xlink:href="#DejaVuSans-31"/>
      </g>
     </g>
    </g>
    <g id="ytick_7">
     <g id="line2d_13">
      <g>
       <use style="stroke:#000000;stroke-width:0.8;" x="49.44" xlink:href="#m409e47ae0a" y="89.114249"/>
      </g>
     </g>
     <g id="text_14">
      <!-- 2 -->
      <g transform="translate(34.805 93.673312)scale(0.12 -0.12)">
       <use xlink:href="#DejaVuSans-32"/>
      </g>
     </g>
    </g>
    <g id="ytick_8">
     <g id="line2d_14">
      <g>
       <use style="stroke:#000000;stroke-width:0.8;" x="49.44" xlink:href="#m409e47ae0a" y="64.221509"/>
      </g>
     </g>
     <g id="text_15">
      <!-- 3 -->
      <g transform="translate(34.805 68.780571)scale(0.12 -0.12)">
       <use xlink:href="#DejaVuSans-33"/>
      </g>
     </g>
    </g>
    <g id="ytick_9">
     <g id="line2d_15">
      <g>
       <use style="stroke:#000000;stroke-width:0.8;" x="49.44" xlink:href="#m409e47ae0a" y="39.328769"/>
      </g>
     </g>
     <g id="text_16">
      <!-- 4 -->
      <g transform="translate(34.805 43.887831)scale(0.12 -0.12)">
       <use xlink:href="#DejaVuSans-34"/>
      </g>
     </g>
    </g>
    <g id="text_17">
     <!-- f(x) -->
     <defs>
      <path d="M 37.109375 75.984375 
L 37.109375 68.5 
L 28.515625 68.5 
Q 23.6875 68.5 21.796875 66.546875 
Q 19.921875 64.59375 19.921875 59.515625 
L 19.921875 54.6875 
L 34.71875 54.6875 
L 34.71875 47.703125 
L 19.921875 47.703125 
L 19.921875 0 
L 10.890625 0 
L 10.890625 47.703125 
L 2.296875 47.703125 
L 2.296875 54.6875 
L 10.890625 54.6875 
L 10.890625 58.5 
Q 10.890625 67.625 15.140625 71.796875 
Q 19.390625 75.984375 28.609375 75.984375 
z
" id="DejaVuSans-66"/>
      <path d="M 31 75.875 
Q 24.46875 64.65625 21.28125 53.65625 
Q 18.109375 42.671875 18.109375 31.390625 
Q 18.109375 20.125 21.3125 9.0625 
Q 24.515625 -2 31 -13.1875 
L 23.1875 -13.1875 
Q 15.875 -1.703125 12.234375 9.375 
Q 8.59375 20.453125 8.59375 31.390625 
Q 8.59375 42.28125 12.203125 53.3125 
Q 15.828125 64.359375 23.1875 75.875 
z
" id="DejaVuSans-28"/>
      <path d="M 8.015625 75.875 
L 15.828125 75.875 
Q 23.140625 64.359375 26.78125 53.3125 
Q 30.421875 42.28125 30.421875 31.390625 
Q 30.421875 20.453125 26.78125 9.375 
Q 23.140625 -1.703125 15.828125 -13.1875 
L 8.015625 -13.1875 
Q 14.5 -2 17.703125 9.0625 
Q 20.90625 20.125 20.90625 31.390625 
Q 20.90625 42.671875 17.703125 53.65625 
Q 14.5 64.65625 8.015625 75.875 
z
" id="DejaVuSans-29"/>
     </defs>
     <g transform="translate(17.837813 144.627344)rotate(-90)scale(0.14 -0.14)">
      <use xlink:href="#DejaVuSans-66"/>
      <use x="35.205078" xlink:href="#DejaVuSans-28"/>
      <use x="74.21875" xlink:href="#DejaVuSans-78"/>
      <use x="133.398438" xlink:href="#DejaVuSans-29"/>
     </g>
    </g>
   </g>
   <g id="line2d_16">
    <path clip-path="url(#p2db70b7c89)" d="M 64.658182 157.955833 
L 67.732562 157.676908 
L 70.806942 157.397394 
L 73.881322 157.117314 
L 76.955702 156.836702 
L 80.030083 156.555605 
L 83.104463 156.274081 
L 86.178843 155.992201 
L 89.253223 155.710048 
L 92.327603 155.427718 
L 95.401983 155.145319 
L 98.476364 154.862974 
L 101.550744 154.580816 
L 104.625124 154.298993 
L 107.699504 154.017669 
L 110.773884 153.737018 
L 113.848264 153.457232 
L 116.922645 153.178516 
L 119.997025 152.90109 
L 123.071405 152.62519 
L 126.145785 152.351069 
L 129.220165 152.078995 
L 132.294545 151.809254 
L 135.368926 151.542151 
L 138.443306 151.278008 
L 141.517686 151.017167 
L 144.592066 150.759989 
L 147.666446 150.506857 
L 150.740826 150.258176 
L 153.815207 150.014372 
L 156.889587 149.775897 
L 159.963967 149.543227 
L 163.038347 149.316862 
L 166.112727 149.097334 
L 169.187107 148.885198 
L 172.261488 148.681043 
L 175.335868 148.485489 
L 178.410248 148.299189 
L 181.484628 148.122829 
L 184.559008 147.957134 
L 187.633388 147.802867 
L 190.707769 147.660831 
L 193.782149 147.531873 
L 196.856529 147.416881 
L 199.930909 147.316796 
L 203.005289 147.232604 
L 206.079669 147.165345 
L 209.15405 147.116114 
L 212.22843 147.086063 
L 215.30281 147.076405 
L 218.37719 147.088417 
L 221.45157 147.123443 
L 224.52595 147.182898 
L 227.600331 147.268268 
L 230.674711 147.38112 
L 233.749091 147.523101 
L 236.823471 147.695943 
L 239.897851 147.90147 
L 242.972231 148.141597 
L 246.046612 148.418338 
L 249.120992 148.733813 
L 252.195372 149.090246 
L 255.269752 149.489978 
L 258.344132 149.935466 
L 261.418512 150.429291 
L 264.492893 150.974165 
L 267.567273 151.572935 
L 270.641653 152.228588 
L 273.716033 152.944262 
L 276.790413 153.723246 
L 279.864793 154.568992 
L 282.939174 155.48512 
L 286.013554 156.475426 
L 289.087934 157.543888 
L 292.162314 158.694674 
L 295.236694 159.932153 
L 298.311074 161.260897 
L 301.385455 162.685697 
L 304.459835 164.211567 
L 307.534215 165.843752 
L 310.608595 167.587743 
L 313.682975 169.449279 
L 316.757355 171.434365 
L 319.831736 173.549275 
L 322.906116 175.800567 
L 325.980496 178.195092 
L 329.054876 180.740007 
L 332.129256 183.442782 
L 335.203636 186.311216 
L 338.278017 189.35345 
L 341.352397 192.577973 
L 344.426777 195.993644 
L 347.501157 199.609694 
L 350.575537 203.435752 
L 353.649917 207.481847 
L 356.724298 211.758431 
L 359.798678 216.276388 
L 362.873058 221.047052 
L 365.947438 226.082222 
L 369.021818 231.394176 
" style="fill:none;stroke:#1f77b4;stroke-linecap:square;stroke-width:1.5;"/>
   </g>
   <g id="line2d_17">
    <path clip-path="url(#p2db70b7c89)" d="M 64.658182 115.798208 
L 67.732562 115.605645 
L 70.806942 115.407584 
L 73.881322 115.203981 
L 76.955702 114.99479 
L 80.030083 114.779961 
L 83.104463 114.559448 
L 86.178843 114.3332 
L 89.253223 114.101168 
L 92.327603 113.863301 
L 95.401983 113.619547 
L 98.476364 113.369853 
L 101.550744 113.114165 
L 104.625124 112.852431 
L 107.699504 112.584593 
L 110.773884 112.310596 
L 113.848264 112.030383 
L 116.922645 111.743895 
L 119.997025 111.451071 
L 123.071405 111.151852 
L 126.145785 110.846173 
L 129.220165 110.533972 
L 132.294545 110.215181 
L 135.368926 109.889732 
L 138.443306 109.557554 
L 141.517686 109.218574 
L 144.592066 108.872717 
L 147.666446 108.519903 
L 150.740826 108.160048 
L 153.815207 107.793067 
L 156.889587 107.418869 
L 159.963967 107.037357 
L 163.038347 106.648432 
L 166.112727 106.251984 
L 169.187107 105.847903 
L 172.261488 105.436065 
L 175.335868 105.016344 
L 178.410248 104.588603 
L 181.484628 104.152693 
L 184.559008 103.70846 
L 187.633388 103.255733 
L 190.707769 102.794333 
L 193.782149 102.324065 
L 196.856529 101.84472 
L 199.930909 101.356072 
L 203.005289 100.857879 
L 206.079669 100.34988 
L 209.15405 99.831791 
L 212.22843 99.303309 
L 215.30281 98.764105 
L 218.37719 98.213824 
L 221.45157 97.652084 
L 224.52595 97.078473 
L 227.600331 96.492545 
L 230.674711 95.893821 
L 233.749091 95.281782 
L 236.823471 94.655873 
L 239.897851 94.015492 
L 242.972231 93.359994 
L 246.046612 92.688683 
L 249.120992 92.000811 
L 252.195372 91.295574 
L 255.269752 90.572109 
L 258.344132 89.829489 
L 261.418512 89.06672 
L 264.492893 88.282735 
L 267.567273 87.476391 
L 270.641653 86.646465 
L 273.716033 85.791647 
L 276.790413 84.910536 
L 279.864793 84.001635 
L 282.939174 83.063345 
L 286.013554 82.09396 
L 289.087934 81.091657 
L 292.162314 80.054496 
L 295.236694 78.980408 
L 298.311074 77.867192 
L 301.385455 76.712504 
L 304.459835 75.513852 
L 307.534215 74.268588 
L 310.608595 72.9739 
L 313.682975 71.626801 
L 316.757355 70.224125 
L 319.831736 68.762513 
L 322.906116 67.238407 
L 325.980496 65.64804 
L 329.054876 63.987422 
L 332.129256 62.252336 
L 335.203636 60.43832 
L 338.278017 58.540661 
L 341.352397 56.554383 
L 344.426777 54.474229 
L 347.501157 52.294659 
L 350.575537 50.009825 
L 353.649917 47.613567 
L 356.724298 45.099397 
L 359.798678 42.460479 
L 362.873058 39.689623 
L 365.947438 36.779265 
L 369.021818 33.721449 
" style="fill:none;stroke:#ff7f0e;stroke-linecap:square;stroke-width:1.5;"/>
   </g>
   <g id="line2d_18">
    <path clip-path="url(#p2db70b7c89)" d="M 64.658182 108.61405 
L 67.732562 108.627404 
L 70.806942 108.635158 
L 73.881322 108.637192 
L 76.955702 108.633396 
L 80.030083 108.623663 
L 83.104463 108.607895 
L 86.178843 108.585999 
L 89.253223 108.557888 
L 92.327603 108.523485 
L 95.401983 108.482716 
L 98.476364 108.435518 
L 101.550744 108.381833 
L 104.625124 108.321612 
L 107.699504 108.254814 
L 110.773884 108.181408 
L 113.848264 108.101369 
L 116.922645 108.014685 
L 119.997025 107.921353 
L 123.071405 107.821378 
L 126.145785 107.714779 
L 129.220165 107.601587 
L 132.294545 107.481843 
L 135.368926 107.355603 
L 138.443306 107.222937 
L 141.517686 107.083928 
L 144.592066 106.938676 
L 147.666446 106.787298 
L 150.740826 106.629927 
L 153.815207 106.466716 
L 156.889587 106.297837 
L 159.963967 106.123483 
L 163.038347 105.943869 
L 166.112727 105.759232 
L 169.187107 105.569838 
L 172.261488 105.375974 
L 175.335868 105.177958 
L 178.410248 104.976138 
L 181.484628 104.77089 
L 184.559008 104.562626 
L 187.633388 104.35179 
L 190.707769 104.138866 
L 193.782149 103.924374 
L 196.856529 103.708876 
L 199.930909 103.492977 
L 203.005289 103.277329 
L 206.079669 103.06263 
L 209.15405 102.849629 
L 212.22843 102.639131 
L 215.30281 102.431993 
L 218.37719 102.229135 
L 221.45157 102.031536 
L 224.52595 101.840243 
L 227.600331 101.65637 
L 230.674711 101.481104 
L 233.749091 101.315708 
L 236.823471 101.161523 
L 239.897851 101.019977 
L 242.972231 100.892582 
L 246.046612 100.780943 
L 249.120992 100.686762 
L 252.195372 100.61184 
L 255.269752 100.558085 
L 258.344132 100.527514 
L 261.418512 100.522261 
L 264.492893 100.544578 
L 267.567273 100.596847 
L 270.641653 100.681579 
L 273.716033 100.801422 
L 276.790413 100.95917 
L 279.864793 101.157764 
L 282.939174 101.400305 
L 286.013554 101.690053 
L 289.087934 102.030442 
L 292.162314 102.425079 
L 295.236694 102.877759 
L 298.311074 103.392466 
L 301.385455 103.973387 
L 304.459835 104.624915 
L 307.534215 105.35166 
L 310.608595 106.158456 
L 313.682975 107.050373 
L 316.757355 108.032723 
L 319.831736 109.11107 
L 322.906116 110.291241 
L 325.980496 111.579334 
L 329.054876 112.981733 
L 332.129256 114.505111 
L 335.203636 116.156449 
L 338.278017 117.94304 
L 341.352397 119.872507 
L 344.426777 121.95281 
L 347.501157 124.192261 
L 350.575537 126.599535 
L 353.649917 129.183685 
L 356.724298 131.954153 
L 359.798678 134.920784 
L 362.873058 138.093842 
L 365.947438 141.484022 
L 369.021818 145.102466 
" style="fill:none;stroke:#2ca02c;stroke-linecap:square;stroke-width:1.5;"/>
   </g>
   <g id="line2d_19">
    <path clip-path="url(#p2db70b7c89)" d="M 64.658182 125.3898 
L 67.732562 125.828094 
L 70.806942 126.26476 
L 73.881322 126.699727 
L 76.955702 127.132919 
L 80.030083 127.564257 
L 83.104463 127.993655 
L 86.178843 128.421024 
L 89.253223 128.84627 
L 92.327603 129.269293 
L 95.401983 129.689991 
L 98.476364 130.108255 
L 101.550744 130.523974 
L 104.625124 130.93703 
L 107.699504 131.347301 
L 110.773884 131.754661 
L 113.848264 132.15898 
L 116.922645 132.560121 
L 119.997025 132.957945 
L 123.071405 133.352305 
L 126.145785 133.743051 
L 129.220165 134.130026 
L 132.294545 134.513069 
L 135.368926 134.892012 
L 138.443306 135.266682 
L 141.517686 135.636897 
L 144.592066 136.002471 
L 147.666446 136.363207 
L 150.740826 136.718902 
L 153.815207 137.069344 
L 156.889587 137.414312 
L 159.963967 137.753572 
L 163.038347 138.086881 
L 166.112727 138.413983 
L 169.187107 138.734608 
L 172.261488 139.048472 
L 175.335868 139.355275 
L 178.410248 139.654699 
L 181.484628 139.946407 
L 184.559008 140.23004 
L 187.633388 140.505218 
L 190.707769 140.771536 
L 193.782149 141.028559 
L 196.856529 141.275825 
L 199.930909 141.512841 
L 203.005289 141.739076 
L 206.079669 141.953963 
L 209.15405 142.156893 
L 212.22843 142.347214 
L 215.30281 142.524225 
L 218.37719 142.687173 
L 221.45157 142.835248 
L 224.52595 142.967581 
L 227.600331 143.083237 
L 230.674711 143.181213 
L 233.749091 143.260428 
L 236.823471 143.319721 
L 239.897851 143.357846 
L 242.972231 143.373463 
L 246.046612 143.365133 
L 249.120992 143.33131 
L 252.195372 143.270337 
L 255.269752 143.180436 
L 258.344132 143.059698 
L 261.418512 142.906079 
L 264.492893 142.717388 
L 267.567273 142.491282 
L 270.641653 142.225249 
L 273.716033 141.916606 
L 276.790413 141.562484 
L 279.864793 141.159818 
L 282.939174 140.705334 
L 286.013554 140.195541 
L 289.087934 139.626714 
L 292.162314 138.994884 
L 295.236694 138.295823 
L 298.311074 137.525032 
L 301.385455 136.677722 
L 304.459835 135.748803 
L 307.534215 134.732866 
L 310.608595 133.624166 
L 313.682975 132.416607 
L 316.757355 131.103721 
L 319.831736 129.678654 
L 322.906116 128.134142 
L 325.980496 126.462494 
L 329.054876 124.65557 
L 332.129256 122.704761 
L 335.203636 120.600965 
L 338.278017 118.334567 
L 341.352397 115.895411 
L 344.426777 113.27278 
L 347.501157 110.455367 
L 350.575537 107.431253 
L 353.649917 104.187875 
L 356.724298 100.712 
L 359.798678 96.989699 
L 362.873058 93.006312 
L 365.947438 88.746423 
L 369.021818 84.193824 
" style="fill:none;stroke:#d62728;stroke-linecap:square;stroke-width:1.5;"/>
   </g>
   <g id="patch_3">
    <path d="M 49.44 241.277813 
L 49.44 23.837812 
" style="fill:none;stroke:#000000;stroke-linecap:square;stroke-linejoin:miter;stroke-width:0.8;"/>
   </g>
   <g id="patch_4">
    <path d="M 384.24 241.277813 
L 384.24 23.837812 
" style="fill:none;stroke:#000000;stroke-linecap:square;stroke-linejoin:miter;stroke-width:0.8;"/>
   </g>
   <g id="patch_5">
    <path d="M 49.44 241.277813 
L 384.24 241.277813 
" style="fill:none;stroke:#000000;stroke-linecap:square;stroke-linejoin:miter;stroke-width:0.8;"/>
   </g>
   <g id="patch_6">
    <path d="M 49.44 23.837812 
L 384.24 23.837812 
" style="fill:none;stroke:#000000;stroke-linecap:square;stroke-linejoin:miter;stroke-width:0.8;"/>
   </g>
   <g id="text_18">
    <!-- Samples from model (D = 8) -->
    <defs>
     <path d="M 53.515625 70.515625 
L 53.515625 60.890625 
Q 47.90625 63.578125 42.921875 64.890625 
Q 37.9375 66.21875 33.296875 66.21875 
Q 25.25 66.21875 20.875 63.09375 
Q 16.5 59.96875 16.5 54.203125 
Q 16.5 49.359375 19.40625 46.890625 
Q 22.3125 44.4375 30.421875 42.921875 
L 36.375 41.703125 
Q 47.40625 39.59375 52.65625 34.296875 
Q 57.90625 29 57.90625 20.125 
Q 57.90625 9.515625 50.796875 4.046875 
Q 43.703125 -1.421875 29.984375 -1.421875 
Q 24.8125 -1.421875 18.96875 -0.25 
Q 13.140625 0.921875 6.890625 3.21875 
L 6.890625 13.375 
Q 12.890625 10.015625 18.65625 8.296875 
Q 24.421875 6.59375 29.984375 6.59375 
Q 38.421875 6.59375 43.015625 9.90625 
Q 47.609375 13.234375 47.609375 19.390625 
Q 47.609375 24.75 44.3125 27.78125 
Q 41.015625 30.8125 33.5 32.328125 
L 27.484375 33.5 
Q 16.453125 35.6875 11.515625 40.375 
Q 6.59375 45.0625 6.59375 53.421875 
Q 6.59375 63.09375 13.40625 68.65625 
Q 20.21875 74.21875 32.171875 74.21875 
Q 37.3125 74.21875 42.625 73.28125 
Q 47.953125 72.359375 53.515625 70.515625 
z
" id="DejaVuSans-53"/>
     <path d="M 34.28125 27.484375 
Q 23.390625 27.484375 19.1875 25 
Q 14.984375 22.515625 14.984375 16.5 
Q 14.984375 11.71875 18.140625 8.90625 
Q 21.296875 6.109375 26.703125 6.109375 
Q 34.1875 6.109375 38.703125 11.40625 
Q 43.21875 16.703125 43.21875 25.484375 
L 43.21875 27.484375 
z
M 52.203125 31.203125 
L 52.203125 0 
L 43.21875 0 
L 43.21875 8.296875 
Q 40.140625 3.328125 35.546875 0.953125 
Q 30.953125 -1.421875 24.3125 -1.421875 
Q 15.921875 -1.421875 10.953125 3.296875 
Q 6 8.015625 6 15.921875 
Q 6 25.140625 12.171875 29.828125 
Q 18.359375 34.515625 30.609375 34.515625 
L 43.21875 34.515625 
L 43.21875 35.40625 
Q 43.21875 41.609375 39.140625 45 
Q 35.0625 48.390625 27.6875 48.390625 
Q 23 48.390625 18.546875 47.265625 
Q 14.109375 46.140625 10.015625 43.890625 
L 10.015625 52.203125 
Q 14.9375 54.109375 19.578125 55.046875 
Q 24.21875 56 28.609375 56 
Q 40.484375 56 46.34375 49.84375 
Q 52.203125 43.703125 52.203125 31.203125 
z
" id="DejaVuSans-61"/>
     <path d="M 52 44.1875 
Q 55.375 50.25 60.0625 53.125 
Q 64.75 56 71.09375 56 
Q 79.640625 56 84.28125 50.015625 
Q 88.921875 44.046875 88.921875 33.015625 
L 88.921875 0 
L 79.890625 0 
L 79.890625 32.71875 
Q 79.890625 40.578125 77.09375 44.375 
Q 74.3125 48.1875 68.609375 48.1875 
Q 61.625 48.1875 57.5625 43.546875 
Q 53.515625 38.921875 53.515625 30.90625 
L 53.515625 0 
L 44.484375 0 
L 44.484375 32.71875 
Q 44.484375 40.625 41.703125 44.40625 
Q 38.921875 48.1875 33.109375 48.1875 
Q 26.21875 48.1875 22.15625 43.53125 
Q 18.109375 38.875 18.109375 30.90625 
L 18.109375 0 
L 9.078125 0 
L 9.078125 54.6875 
L 18.109375 54.6875 
L 18.109375 46.1875 
Q 21.1875 51.21875 25.484375 53.609375 
Q 29.78125 56 35.6875 56 
Q 41.65625 56 45.828125 52.96875 
Q 50 49.953125 52 44.1875 
z
" id="DejaVuSans-6d"/>
     <path d="M 18.109375 8.203125 
L 18.109375 -20.796875 
L 9.078125 -20.796875 
L 9.078125 54.6875 
L 18.109375 54.6875 
L 18.109375 46.390625 
Q 20.953125 51.265625 25.265625 53.625 
Q 29.59375 56 35.59375 56 
Q 45.5625 56 51.78125 48.09375 
Q 58.015625 40.1875 58.015625 27.296875 
Q 58.015625 14.40625 51.78125 6.484375 
Q 45.5625 -1.421875 35.59375 -1.421875 
Q 29.59375 -1.421875 25.265625 0.953125 
Q 20.953125 3.328125 18.109375 8.203125 
z
M 48.6875 27.296875 
Q 48.6875 37.203125 44.609375 42.84375 
Q 40.53125 48.484375 33.40625 48.484375 
Q 26.265625 48.484375 22.1875 42.84375 
Q 18.109375 37.203125 18.109375 27.296875 
Q 18.109375 17.390625 22.1875 11.75 
Q 26.265625 6.109375 33.40625 6.109375 
Q 40.53125 6.109375 44.609375 11.75 
Q 48.6875 17.390625 48.6875 27.296875 
z
" id="DejaVuSans-70"/>
     <path d="M 9.421875 75.984375 
L 18.40625 75.984375 
L 18.40625 0 
L 9.421875 0 
z
" id="DejaVuSans-6c"/>
     <path d="M 56.203125 29.59375 
L 56.203125 25.203125 
L 14.890625 25.203125 
Q 15.484375 15.921875 20.484375 11.0625 
Q 25.484375 6.203125 34.421875 6.203125 
Q 39.59375 6.203125 44.453125 7.46875 
Q 49.3125 8.734375 54.109375 11.28125 
L 54.109375 2.78125 
Q 49.265625 0.734375 44.1875 -0.34375 
Q 39.109375 -1.421875 33.890625 -1.421875 
Q 20.796875 -1.421875 13.15625 6.1875 
Q 5.515625 13.8125 5.515625 26.8125 
Q 5.515625 40.234375 12.765625 48.109375 
Q 20.015625 56 32.328125 56 
Q 43.359375 56 49.78125 48.890625 
Q 56.203125 41.796875 56.203125 29.59375 
z
M 47.21875 32.234375 
Q 47.125 39.59375 43.09375 43.984375 
Q 39.0625 48.390625 32.421875 48.390625 
Q 24.90625 48.390625 20.390625 44.140625 
Q 15.875 39.890625 15.1875 32.171875 
z
" id="DejaVuSans-65"/>
     <path d="M 44.28125 53.078125 
L 44.28125 44.578125 
Q 40.484375 46.53125 36.375 47.5 
Q 32.28125 48.484375 27.875 48.484375 
Q 21.1875 48.484375 17.84375 46.4375 
Q 14.5 44.390625 14.5 40.28125 
Q 14.5 37.15625 16.890625 35.375 
Q 19.28125 33.59375 26.515625 31.984375 
L 29.59375 31.296875 
Q 39.15625 29.25 43.1875 25.515625 
Q 47.21875 21.78125 47.21875 15.09375 
Q 47.21875 7.46875 41.1875 3.015625 
Q 35.15625 -1.421875 24.609375 -1.421875 
Q 20.21875 -1.421875 15.453125 -0.5625 
Q 10.6875 0.296875 5.421875 2 
L 5.421875 11.28125 
Q 10.40625 8.6875 15.234375 7.390625 
Q 20.0625 6.109375 24.8125 6.109375 
Q 31.15625 6.109375 34.5625 8.28125 
Q 37.984375 10.453125 37.984375 14.40625 
Q 37.984375 18.0625 35.515625 20.015625 
Q 33.0625 21.96875 24.703125 23.78125 
L 21.578125 24.515625 
Q 13.234375 26.265625 9.515625 29.90625 
Q 5.8125 33.546875 5.8125 39.890625 
Q 5.8125 47.609375 11.28125 51.796875 
Q 16.75 56 26.8125 56 
Q 31.78125 56 36.171875 55.265625 
Q 40.578125 54.546875 44.28125 53.078125 
z
" id="DejaVuSans-73"/>
     <path id="DejaVuSans-20"/>
     <path d="M 41.109375 46.296875 
Q 39.59375 47.171875 37.8125 47.578125 
Q 36.03125 48 33.890625 48 
Q 26.265625 48 22.1875 43.046875 
Q 18.109375 38.09375 18.109375 28.8125 
L 18.109375 0 
L 9.078125 0 
L 9.078125 54.6875 
L 18.109375 54.6875 
L 18.109375 46.1875 
Q 20.953125 51.171875 25.484375 53.578125 
Q 30.03125 56 36.53125 56 
Q 37.453125 56 38.578125 55.875 
Q 39.703125 55.765625 41.0625 55.515625 
z
" id="DejaVuSans-72"/>
     <path d="M 30.609375 48.390625 
Q 23.390625 48.390625 19.1875 42.75 
Q 14.984375 37.109375 14.984375 27.296875 
Q 14.984375 17.484375 19.15625 11.84375 
Q 23.34375 6.203125 30.609375 6.203125 
Q 37.796875 6.203125 41.984375 11.859375 
Q 46.1875 17.53125 46.1875 27.296875 
Q 46.1875 37.015625 41.984375 42.703125 
Q 37.796875 48.390625 30.609375 48.390625 
z
M 30.609375 56 
Q 42.328125 56 49.015625 48.375 
Q 55.71875 40.765625 55.71875 27.296875 
Q 55.71875 13.875 49.015625 6.21875 
Q 42.328125 -1.421875 30.609375 -1.421875 
Q 18.84375 -1.421875 12.171875 6.21875 
Q 5.515625 13.875 5.515625 27.296875 
Q 5.515625 40.765625 12.171875 48.375 
Q 18.84375 56 30.609375 56 
z
" id="DejaVuSans-6f"/>
     <path d="M 45.40625 46.390625 
L 45.40625 75.984375 
L 54.390625 75.984375 
L 54.390625 0 
L 45.40625 0 
L 45.40625 8.203125 
Q 42.578125 3.328125 38.25 0.953125 
Q 33.9375 -1.421875 27.875 -1.421875 
Q 17.96875 -1.421875 11.734375 6.484375 
Q 5.515625 14.40625 5.515625 27.296875 
Q 5.515625 40.1875 11.734375 48.09375 
Q 17.96875 56 27.875 56 
Q 33.9375 56 38.25 53.625 
Q 42.578125 51.265625 45.40625 46.390625 
z
M 14.796875 27.296875 
Q 14.796875 17.390625 18.875 11.75 
Q 22.953125 6.109375 30.078125 6.109375 
Q 37.203125 6.109375 41.296875 11.75 
Q 45.40625 17.390625 45.40625 27.296875 
Q 45.40625 37.203125 41.296875 42.84375 
Q 37.203125 48.484375 30.078125 48.484375 
Q 22.953125 48.484375 18.875 42.84375 
Q 14.796875 37.203125 14.796875 27.296875 
z
" id="DejaVuSans-64"/>
     <path d="M 19.671875 64.796875 
L 19.671875 8.109375 
L 31.59375 8.109375 
Q 46.6875 8.109375 53.6875 14.9375 
Q 60.6875 21.78125 60.6875 36.53125 
Q 60.6875 51.171875 53.6875 57.984375 
Q 46.6875 64.796875 31.59375 64.796875 
z
M 9.8125 72.90625 
L 30.078125 72.90625 
Q 51.265625 72.90625 61.171875 64.09375 
Q 71.09375 55.28125 71.09375 36.53125 
Q 71.09375 17.671875 61.125 8.828125 
Q 51.171875 0 30.078125 0 
L 9.8125 0 
z
" id="DejaVuSans-44"/>
     <path d="M 10.59375 45.40625 
L 73.1875 45.40625 
L 73.1875 37.203125 
L 10.59375 37.203125 
z
M 10.59375 25.484375 
L 73.1875 25.484375 
L 73.1875 17.1875 
L 10.59375 17.1875 
z
" id="DejaVuSans-3d"/>
    </defs>
    <g transform="translate(116.411875 17.837812)scale(0.14 -0.14)">
     <use xlink:href="#DejaVuSans-53"/>
     <use x="63.476562" xlink:href="#DejaVuSans-61"/>
     <use x="124.755859" xlink:href="#DejaVuSans-6d"/>
     <use x="222.167969" xlink:href="#DejaVuSans-70"/>
     <use x="285.644531" xlink:href="#DejaVuSans-6c"/>
     <use x="313.427734" xlink:href="#DejaVuSans-65"/>
     <use x="374.951172" xlink:href="#DejaVuSans-73"/>
     <use x="427.050781" xlink:href="#DejaVuSans-20"/>
     <use x="458.837891" xlink:href="#DejaVuSans-66"/>
     <use x="494.042969" xlink:href="#DejaVuSans-72"/>
     <use x="535.125" xlink:href="#DejaVuSans-6f"/>
     <use x="596.306641" xlink:href="#DejaVuSans-6d"/>
     <use x="693.71875" xlink:href="#DejaVuSans-20"/>
     <use x="725.505859" xlink:href="#DejaVuSans-6d"/>
     <use x="822.917969" xlink:href="#DejaVuSans-6f"/>
     <use x="884.099609" xlink:href="#DejaVuSans-64"/>
     <use x="947.576172" xlink:href="#DejaVuSans-65"/>
     <use x="1009.099609" xlink:href="#DejaVuSans-6c"/>
     <use x="1036.882812" xlink:href="#DejaVuSans-20"/>
     <use x="1068.669922" xlink:href="#DejaVuSans-28"/>
     <use x="1107.683594" xlink:href="#DejaVuSans-44"/>
     <use x="1184.685547" xlink:href="#DejaVuSans-20"/>
     <use x="1216.472656" xlink:href="#DejaVuSans-3d"/>
     <use x="1300.261719" xlink:href="#DejaVuSans-20"/>
     <use x="1332.048828" xlink:href="#DejaVuSans-38"/>
     <use x="1395.671875" xlink:href="#DejaVuSans-29"/>
    </g>
   </g>
  </g>
 </g>
 <defs>
  <clipPath id="p2db70b7c89">
   <rect height="217.44" width="334.8" x="49.44" y="23.837812"/>
  </clipPath>
 </defs>
</svg>
