<?xml version="1.0" encoding="utf-8" standalone="no"?>
<!DOCTYPE svg PUBLIC "-//W3C//DTD SVG 1.1//EN"
  "http://www.w3.org/Graphics/SVG/1.1/DTD/svg11.dtd">
<!-- Created with matplotlib (http://matplotlib.org/) -->
<svg height="640.472812pt" version="1.1" viewBox="0 0 652.48625 640.472812" width="652.48625pt" xmlns="http://www.w3.org/2000/svg" xmlns:xlink="http://www.w3.org/1999/xlink">
 <defs>
  <style type="text/css">
*{stroke-linecap:butt;stroke-linejoin:round;}
  </style>
 </defs>
 <g id="figure_1">
  <g id="patch_1">
   <path d="M 0 640.472812 
L 652.48625 640.472812 
L 652.48625 0 
L 0 0 
z
" style="fill:none;"/>
  </g>
  <g id="axes_1">
   <g id="patch_2">
    <path d="M 43.339375 200.859062 
L 214.793542 200.859062 
L 214.793542 11.759062 
L 43.339375 11.759062 
z
" style="fill:#ffffff;"/>
   </g>
   <g id="PathCollection_1">
    <defs>
     <path d="M -3 3 
L 3 -3 
M -3 -3 
L 3 3 
" id="m141b7a75b2" style="stroke:#ff0000;stroke-width:1.5;"/>
    </defs>
    <g clip-path="url(#p121571726f)">
     <use style="fill:#ff0000;stroke:#ff0000;stroke-width:1.5;" x="149.115279" xlink:href="#m141b7a75b2" y="145.64282"/>
     <use style="fill:#ff0000;stroke:#ff0000;stroke-width:1.5;" x="79.410342" xlink:href="#m141b7a75b2" y="49.471682"/>
     <use style="fill:#ff0000;stroke:#ff0000;stroke-width:1.5;" x="58.278056" xlink:href="#m141b7a75b2" y="76.304382"/>
     <use style="fill:#ff0000;stroke:#ff0000;stroke-width:1.5;" x="46.560965" xlink:href="#m141b7a75b2" y="107.116478"/>
     <use style="fill:#ff0000;stroke:#ff0000;stroke-width:1.5;" x="202.036775" xlink:href="#m141b7a75b2" y="119.763642"/>
     <use style="fill:#ff0000;stroke:#ff0000;stroke-width:1.5;" x="46.805903" xlink:href="#m141b7a75b2" y="90.200483"/>
     <use style="fill:#ff0000;stroke:#ff0000;stroke-width:1.5;" x="97.42088" xlink:href="#m141b7a75b2" y="60.468767"/>
     <use style="fill:#ff0000;stroke:#ff0000;stroke-width:1.5;" x="53.665283" xlink:href="#m141b7a75b2" y="66.807735"/>
     <use style="fill:#ff0000;stroke:#ff0000;stroke-width:1.5;" x="208.563371" xlink:href="#m141b7a75b2" y="114.350023"/>
     <use style="fill:#ff0000;stroke:#ff0000;stroke-width:1.5;" x="115.976756" xlink:href="#m141b7a75b2" y="85.049459"/>
    </g>
   </g>
   <g id="matplotlib.axis_1">
    <g id="ytick_1">
     <g id="line2d_1">
      <defs>
       <path d="M 0 0 
L -3.5 0 
" id="me7232c3733" style="stroke:#000000;stroke-width:0.8;"/>
      </defs>
      <g>
       <use style="stroke:#000000;stroke-width:0.8;" x="43.339375" xlink:href="#me7232c3733" y="200.859062"/>
      </g>
     </g>
     <g id="text_1">
      <!-- −1.5 -->
      <defs>
       <path d="M 10.59375 35.5 
L 73.1875 35.5 
L 73.1875 27.203125 
L 10.59375 27.203125 
z
" id="DejaVuSans-2212"/>
       <path d="M 12.40625 8.296875 
L 28.515625 8.296875 
L 28.515625 63.921875 
L 10.984375 60.40625 
L 10.984375 69.390625 
L 28.421875 72.90625 
L 38.28125 72.90625 
L 38.28125 8.296875 
L 54.390625 8.296875 
L 54.390625 0 
L 12.40625 0 
z
" id="DejaVuSans-31"/>
       <path d="M 10.6875 12.40625 
L 21 12.40625 
L 21 0 
L 10.6875 0 
z
" id="DejaVuSans-2e"/>
       <path d="M 10.796875 72.90625 
L 49.515625 72.90625 
L 49.515625 64.59375 
L 19.828125 64.59375 
L 19.828125 46.734375 
Q 21.96875 47.46875 24.109375 47.828125 
Q 26.265625 48.1875 28.421875 48.1875 
Q 40.625 48.1875 47.75 41.5 
Q 54.890625 34.8125 54.890625 23.390625 
Q 54.890625 11.625 47.5625 5.09375 
Q 40.234375 -1.421875 26.90625 -1.421875 
Q 22.3125 -1.421875 17.546875 -0.640625 
Q 12.796875 0.140625 7.71875 1.703125 
L 7.71875 11.625 
Q 12.109375 9.234375 16.796875 8.0625 
Q 21.484375 6.890625 26.703125 6.890625 
Q 35.15625 6.890625 40.078125 11.328125 
Q 45.015625 15.765625 45.015625 23.390625 
Q 45.015625 31 40.078125 35.4375 
Q 35.15625 39.890625 26.703125 39.890625 
Q 22.75 39.890625 18.8125 39.015625 
Q 14.890625 38.140625 10.796875 36.28125 
z
" id="DejaVuSans-35"/>
      </defs>
      <g transform="translate(7.2 205.418125)scale(0.12 -0.12)">
       <use xlink:href="#DejaVuSans-2212"/>
       <use x="83.789062" xlink:href="#DejaVuSans-31"/>
       <use x="147.412109" xlink:href="#DejaVuSans-2e"/>
       <use x="179.199219" xlink:href="#DejaVuSans-35"/>
      </g>
     </g>
    </g>
    <g id="ytick_2">
     <g id="line2d_2">
      <g>
       <use style="stroke:#000000;stroke-width:0.8;" x="43.339375" xlink:href="#me7232c3733" y="169.342396"/>
      </g>
     </g>
     <g id="text_2">
      <!-- −1.0 -->
      <defs>
       <path d="M 31.78125 66.40625 
Q 24.171875 66.40625 20.328125 58.90625 
Q 16.5 51.421875 16.5 36.375 
Q 16.5 21.390625 20.328125 13.890625 
Q 24.171875 6.390625 31.78125 6.390625 
Q 39.453125 6.390625 43.28125 13.890625 
Q 47.125 21.390625 47.125 36.375 
Q 47.125 51.421875 43.28125 58.90625 
Q 39.453125 66.40625 31.78125 66.40625 
z
M 31.78125 74.21875 
Q 44.046875 74.21875 50.515625 64.515625 
Q 56.984375 54.828125 56.984375 36.375 
Q 56.984375 17.96875 50.515625 8.265625 
Q 44.046875 -1.421875 31.78125 -1.421875 
Q 19.53125 -1.421875 13.0625 8.265625 
Q 6.59375 17.96875 6.59375 36.375 
Q 6.59375 54.828125 13.0625 64.515625 
Q 19.53125 74.21875 31.78125 74.21875 
z
" id="DejaVuSans-30"/>
      </defs>
      <g transform="translate(7.2 173.901458)scale(0.12 -0.12)">
       <use xlink:href="#DejaVuSans-2212"/>
       <use x="83.789062" xlink:href="#DejaVuSans-31"/>
       <use x="147.412109" xlink:href="#DejaVuSans-2e"/>
       <use x="179.199219" xlink:href="#DejaVuSans-30"/>
      </g>
     </g>
    </g>
    <g id="ytick_3">
     <g id="line2d_3">
      <g>
       <use style="stroke:#000000;stroke-width:0.8;" x="43.339375" xlink:href="#me7232c3733" y="137.825729"/>
      </g>
     </g>
     <g id="text_3">
      <!-- −0.5 -->
      <g transform="translate(7.2 142.384792)scale(0.12 -0.12)">
       <use xlink:href="#DejaVuSans-2212"/>
       <use x="83.789062" xlink:href="#DejaVuSans-30"/>
       <use x="147.412109" xlink:href="#DejaVuSans-2e"/>
       <use x="179.199219" xlink:href="#DejaVuSans-35"/>
      </g>
     </g>
    </g>
    <g id="ytick_4">
     <g id="line2d_4">
      <g>
       <use style="stroke:#000000;stroke-width:0.8;" x="43.339375" xlink:href="#me7232c3733" y="106.309062"/>
      </g>
     </g>
     <g id="text_4">
      <!-- 0.0 -->
      <g transform="translate(17.255625 110.868125)scale(0.12 -0.12)">
       <use xlink:href="#DejaVuSans-30"/>
       <use x="63.623047" xlink:href="#DejaVuSans-2e"/>
       <use x="95.410156" xlink:href="#DejaVuSans-30"/>
      </g>
     </g>
    </g>
    <g id="ytick_5">
     <g id="line2d_5">
      <g>
       <use style="stroke:#000000;stroke-width:0.8;" x="43.339375" xlink:href="#me7232c3733" y="74.792396"/>
      </g>
     </g>
     <g id="text_5">
      <!-- 0.5 -->
      <g transform="translate(17.255625 79.351458)scale(0.12 -0.12)">
       <use xlink:href="#DejaVuSans-30"/>
       <use x="63.623047" xlink:href="#DejaVuSans-2e"/>
       <use x="95.410156" xlink:href="#DejaVuSans-35"/>
      </g>
     </g>
    </g>
    <g id="ytick_6">
     <g id="line2d_6">
      <g>
       <use style="stroke:#000000;stroke-width:0.8;" x="43.339375" xlink:href="#me7232c3733" y="43.275729"/>
      </g>
     </g>
     <g id="text_6">
      <!-- 1.0 -->
      <g transform="translate(17.255625 47.834792)scale(0.12 -0.12)">
       <use xlink:href="#DejaVuSans-31"/>
       <use x="63.623047" xlink:href="#DejaVuSans-2e"/>
       <use x="95.410156" xlink:href="#DejaVuSans-30"/>
      </g>
     </g>
    </g>
    <g id="ytick_7">
     <g id="line2d_7">
      <g>
       <use style="stroke:#000000;stroke-width:0.8;" x="43.339375" xlink:href="#me7232c3733" y="11.759062"/>
      </g>
     </g>
     <g id="text_7">
      <!-- 1.5 -->
      <g transform="translate(17.255625 16.318125)scale(0.12 -0.12)">
       <use xlink:href="#DejaVuSans-31"/>
       <use x="63.623047" xlink:href="#DejaVuSans-2e"/>
       <use x="95.410156" xlink:href="#DejaVuSans-35"/>
      </g>
     </g>
    </g>
   </g>
   <g id="line2d_8">
    <path clip-path="url(#p121571726f)" d="M 43.339375 73.658826 
L 45.071235 74.15414 
L 46.803096 74.649453 
L 48.534956 75.144767 
L 50.266816 75.640081 
L 51.998676 76.135395 
L 53.730537 76.630709 
L 55.462397 77.126023 
L 57.194257 77.621337 
L 58.926117 78.116651 
L 60.657978 78.611965 
L 62.389838 79.107279 
L 64.121698 79.602593 
L 65.853559 80.097907 
L 67.585419 80.593221 
L 69.317279 81.088534 
L 71.049139 81.583848 
L 72.781 82.079162 
L 74.51286 82.574476 
L 76.24472 83.06979 
L 77.97658 83.565104 
L 79.708441 84.060418 
L 81.440301 84.555732 
L 83.172161 85.051046 
L 84.904021 85.54636 
L 86.635882 86.041674 
L 88.367742 86.536988 
L 90.099602 87.032302 
L 91.831463 87.527615 
L 93.563323 88.022929 
L 95.295183 88.518243 
L 97.027043 89.013557 
L 98.758904 89.508871 
L 100.490764 90.004185 
L 102.222624 90.499499 
L 103.954484 90.994813 
L 105.686345 91.490127 
L 107.418205 91.985441 
L 109.150065 92.480755 
L 110.881926 92.976069 
L 112.613786 93.471383 
L 114.345646 93.966696 
L 116.077506 94.46201 
L 117.809367 94.957324 
L 119.541227 95.452638 
L 121.273087 95.947952 
L 123.004947 96.443266 
L 124.736808 96.93858 
L 126.468668 97.433894 
L 128.200528 97.929208 
L 129.932388 98.424522 
L 131.664249 98.919836 
L 133.396109 99.41515 
L 135.127969 99.910464 
L 136.85983 100.405777 
L 138.59169 100.901091 
L 140.32355 101.396405 
L 142.05541 101.891719 
L 143.787271 102.387033 
L 145.519131 102.882347 
L 147.250991 103.377661 
L 148.982851 103.872975 
L 150.714712 104.368289 
L 152.446572 104.863603 
L 154.178432 105.358917 
L 155.910293 105.854231 
L 157.642153 106.349545 
L 159.374013 106.844858 
L 161.105873 107.340172 
L 162.837734 107.835486 
L 164.569594 108.3308 
L 166.301454 108.826114 
L 168.033314 109.321428 
L 169.765175 109.816742 
L 171.497035 110.312056 
L 173.228895 110.80737 
L 174.960755 111.302684 
L 176.692616 111.797998 
L 178.424476 112.293312 
L 180.156336 112.788626 
L 181.888197 113.283939 
L 183.620057 113.779253 
L 185.351917 114.274567 
L 187.083777 114.769881 
L 188.815638 115.265195 
L 190.547498 115.760509 
L 192.279358 116.255823 
L 194.011218 116.751137 
L 195.743079 117.246451 
L 197.474939 117.741765 
L 199.206799 118.237079 
L 200.93866 118.732393 
L 202.67052 119.227706 
L 204.40238 119.72302 
L 206.13424 120.218334 
L 207.866101 120.713648 
L 209.597961 121.208962 
L 211.329821 121.704276 
L 213.061681 122.19959 
L 214.793542 122.694904 
" style="fill:none;stroke:#000000;stroke-linecap:square;stroke-width:1.5;"/>
   </g>
   <g id="patch_3">
    <path d="M 43.339375 200.859062 
L 43.339375 11.759062 
" style="fill:none;stroke:#000000;stroke-linecap:square;stroke-linejoin:miter;stroke-width:0.8;"/>
   </g>
   <g id="patch_4">
    <path d="M 214.793542 200.859062 
L 214.793542 11.759062 
" style="fill:none;stroke:#000000;stroke-linecap:square;stroke-linejoin:miter;stroke-width:0.8;"/>
   </g>
   <g id="patch_5">
    <path d="M 43.339375 200.859062 
L 214.793542 200.859062 
" style="fill:none;stroke:#000000;stroke-linecap:square;stroke-linejoin:miter;stroke-width:0.8;"/>
   </g>
   <g id="patch_6">
    <path d="M 43.339375 11.759062 
L 214.793542 11.759062 
" style="fill:none;stroke:#000000;stroke-linecap:square;stroke-linejoin:miter;stroke-width:0.8;"/>
   </g>
  </g>
  <g id="axes_2">
   <g id="patch_7">
    <path d="M 251.906042 200.859062 
L 423.360208 200.859062 
L 423.360208 11.759062 
L 251.906042 11.759062 
z
" style="fill:#ffffff;"/>
   </g>
   <g id="PathCollection_2">
    <g clip-path="url(#p157d758d0e)">
     <use style="fill:#ff0000;stroke:#ff0000;stroke-width:1.5;" x="357.681946" xlink:href="#m141b7a75b2" y="145.64282"/>
     <use style="fill:#ff0000;stroke:#ff0000;stroke-width:1.5;" x="287.977008" xlink:href="#m141b7a75b2" y="49.471682"/>
     <use style="fill:#ff0000;stroke:#ff0000;stroke-width:1.5;" x="266.844723" xlink:href="#m141b7a75b2" y="76.304382"/>
     <use style="fill:#ff0000;stroke:#ff0000;stroke-width:1.5;" x="255.127631" xlink:href="#m141b7a75b2" y="107.116478"/>
     <use style="fill:#ff0000;stroke:#ff0000;stroke-width:1.5;" x="410.603442" xlink:href="#m141b7a75b2" y="119.763642"/>
     <use style="fill:#ff0000;stroke:#ff0000;stroke-width:1.5;" x="255.37257" xlink:href="#m141b7a75b2" y="90.200483"/>
     <use style="fill:#ff0000;stroke:#ff0000;stroke-width:1.5;" x="305.987547" xlink:href="#m141b7a75b2" y="60.468767"/>
     <use style="fill:#ff0000;stroke:#ff0000;stroke-width:1.5;" x="262.23195" xlink:href="#m141b7a75b2" y="66.807735"/>
     <use style="fill:#ff0000;stroke:#ff0000;stroke-width:1.5;" x="417.130037" xlink:href="#m141b7a75b2" y="114.350023"/>
     <use style="fill:#ff0000;stroke:#ff0000;stroke-width:1.5;" x="324.543422" xlink:href="#m141b7a75b2" y="85.049459"/>
    </g>
   </g>
   <g id="line2d_9">
    <path clip-path="url(#p157d758d0e)" d="M 251.906042 79.465524 
L 253.637902 79.402821 
L 255.369762 79.35197 
L 257.101622 79.312971 
L 258.833483 79.285823 
L 260.565343 79.270526 
L 262.297203 79.267082 
L 264.029064 79.275489 
L 265.760924 79.295748 
L 267.492784 79.327858 
L 269.224644 79.371821 
L 270.956505 79.427634 
L 272.688365 79.4953 
L 274.420225 79.574817 
L 276.152085 79.666186 
L 277.883946 79.769407 
L 279.615806 79.884479 
L 281.347666 80.011403 
L 283.079527 80.150178 
L 284.811387 80.300806 
L 286.543247 80.463285 
L 288.275107 80.637615 
L 290.006968 80.823798 
L 291.738828 81.021832 
L 293.470688 81.231717 
L 295.202548 81.453455 
L 296.934409 81.687044 
L 298.666269 81.932484 
L 300.398129 82.189777 
L 302.129989 82.458921 
L 303.86185 82.739917 
L 305.59371 83.032764 
L 307.32557 83.337463 
L 309.057431 83.654014 
L 310.789291 83.982417 
L 312.521151 84.322671 
L 314.253011 84.674777 
L 315.984872 85.038734 
L 317.716732 85.414543 
L 319.448592 85.802204 
L 321.180452 86.201717 
L 322.912313 86.613081 
L 324.644173 87.036297 
L 326.376033 87.471365 
L 328.107894 87.918284 
L 329.839754 88.377055 
L 331.571614 88.847677 
L 333.303474 89.330152 
L 335.035335 89.824478 
L 336.767195 90.330655 
L 338.499055 90.848685 
L 340.230915 91.378566 
L 341.962776 91.920298 
L 343.694636 92.473883 
L 345.426496 93.039319 
L 347.158356 93.616607 
L 348.890217 94.205746 
L 350.622077 94.806737 
L 352.353937 95.41958 
L 354.085798 96.044274 
L 355.817658 96.680821 
L 357.549518 97.329218 
L 359.281378 97.989468 
L 361.013239 98.661569 
L 362.745099 99.345522 
L 364.476959 100.041326 
L 366.208819 100.748983 
L 367.94068 101.468491 
L 369.67254 102.19985 
L 371.4044 102.943061 
L 373.136261 103.698124 
L 374.868121 104.465039 
L 376.599981 105.243805 
L 378.331841 106.034423 
L 380.063702 106.836893 
L 381.795562 107.651214 
L 383.527422 108.477387 
L 385.259282 109.315412 
L 386.991143 110.165288 
L 388.723003 111.027016 
L 390.454863 111.900596 
L 392.186723 112.786028 
L 393.918584 113.683311 
L 395.650444 114.592445 
L 397.382304 115.513432 
L 399.114165 116.44627 
L 400.846025 117.39096 
L 402.577885 118.347501 
L 404.309745 119.315894 
L 406.041606 120.296139 
L 407.773466 121.288236 
L 409.505326 122.292184 
L 411.237186 123.307984 
L 412.969047 124.335635 
L 414.700907 125.375139 
L 416.432767 126.426494 
L 418.164628 127.4897 
L 419.896488 128.564758 
L 421.628348 129.651668 
L 423.360208 130.75043 
" style="fill:none;stroke:#000000;stroke-linecap:square;stroke-width:1.5;"/>
   </g>
   <g id="patch_8">
    <path d="M 251.906042 200.859062 
L 251.906042 11.759062 
" style="fill:none;stroke:#000000;stroke-linecap:square;stroke-linejoin:miter;stroke-width:0.8;"/>
   </g>
   <g id="patch_9">
    <path d="M 423.360208 200.859062 
L 423.360208 11.759062 
" style="fill:none;stroke:#000000;stroke-linecap:square;stroke-linejoin:miter;stroke-width:0.8;"/>
   </g>
   <g id="patch_10">
    <path d="M 251.906042 200.859062 
L 423.360208 200.859062 
" style="fill:none;stroke:#000000;stroke-linecap:square;stroke-linejoin:miter;stroke-width:0.8;"/>
   </g>
   <g id="patch_11">
    <path d="M 251.906042 11.759062 
L 423.360208 11.759062 
" style="fill:none;stroke:#000000;stroke-linecap:square;stroke-linejoin:miter;stroke-width:0.8;"/>
   </g>
  </g>
  <g id="axes_3">
   <g id="patch_12">
    <path d="M 460.472708 200.859062 
L 631.926875 200.859062 
L 631.926875 11.759062 
L 460.472708 11.759062 
z
" style="fill:#ffffff;"/>
   </g>
   <g id="PathCollection_3">
    <g clip-path="url(#p4a96e8c944)">
     <use style="fill:#ff0000;stroke:#ff0000;stroke-width:1.5;" x="566.248613" xlink:href="#m141b7a75b2" y="145.64282"/>
     <use style="fill:#ff0000;stroke:#ff0000;stroke-width:1.5;" x="496.543675" xlink:href="#m141b7a75b2" y="49.471682"/>
     <use style="fill:#ff0000;stroke:#ff0000;stroke-width:1.5;" x="475.41139" xlink:href="#m141b7a75b2" y="76.304382"/>
     <use style="fill:#ff0000;stroke:#ff0000;stroke-width:1.5;" x="463.694298" xlink:href="#m141b7a75b2" y="107.116478"/>
     <use style="fill:#ff0000;stroke:#ff0000;stroke-width:1.5;" x="619.170109" xlink:href="#m141b7a75b2" y="119.763642"/>
     <use style="fill:#ff0000;stroke:#ff0000;stroke-width:1.5;" x="463.939237" xlink:href="#m141b7a75b2" y="90.200483"/>
     <use style="fill:#ff0000;stroke:#ff0000;stroke-width:1.5;" x="514.554213" xlink:href="#m141b7a75b2" y="60.468767"/>
     <use style="fill:#ff0000;stroke:#ff0000;stroke-width:1.5;" x="470.798616" xlink:href="#m141b7a75b2" y="66.807735"/>
     <use style="fill:#ff0000;stroke:#ff0000;stroke-width:1.5;" x="625.696704" xlink:href="#m141b7a75b2" y="114.350023"/>
     <use style="fill:#ff0000;stroke:#ff0000;stroke-width:1.5;" x="533.110089" xlink:href="#m141b7a75b2" y="85.049459"/>
    </g>
   </g>
   <g id="line2d_10">
    <path clip-path="url(#p4a96e8c944)" d="M 460.472708 104.970085 
L 462.204569 99.580308 
L 463.936429 94.528872 
L 465.668289 89.80861 
L 467.400149 85.412357 
L 469.13201 81.332948 
L 470.86387 77.563218 
L 472.59573 74.096001 
L 474.32759 70.924132 
L 476.059451 68.040446 
L 477.791311 65.437777 
L 479.523171 63.10896 
L 481.255032 61.046829 
L 482.986892 59.24422 
L 484.718752 57.693966 
L 486.450612 56.388903 
L 488.182473 55.321865 
L 489.914333 54.485687 
L 491.646193 53.873204 
L 493.378053 53.477249 
L 495.109914 53.290658 
L 496.841774 53.306266 
L 498.573634 53.516907 
L 500.305495 53.915416 
L 502.037355 54.494627 
L 503.769215 55.247375 
L 505.501075 56.166494 
L 507.232936 57.24482 
L 508.964796 58.475187 
L 510.696656 59.85043 
L 512.428516 61.363383 
L 514.160377 63.006881 
L 515.892237 64.773759 
L 517.624097 66.656851 
L 519.355957 68.648991 
L 521.087818 70.743016 
L 522.819678 72.931758 
L 524.551538 75.208053 
L 526.283399 77.564736 
L 528.015259 79.994641 
L 529.747119 82.490603 
L 531.478979 85.045457 
L 533.21084 87.652036 
L 534.9427 90.303177 
L 536.67456 92.991712 
L 538.40642 95.710478 
L 540.138281 98.452309 
L 541.870141 101.210039 
L 543.602001 103.976503 
L 545.333862 106.744535 
L 547.065722 109.506971 
L 548.797582 112.256645 
L 550.529442 114.986392 
L 552.261303 117.689046 
L 553.993163 120.357442 
L 555.725023 122.984415 
L 557.456883 125.562799 
L 559.188744 128.085428 
L 560.920604 130.545139 
L 562.652464 132.934764 
L 564.384324 135.24714 
L 566.116185 137.4751 
L 567.848045 139.611479 
L 569.579905 141.649112 
L 571.311766 143.580834 
L 573.043626 145.399478 
L 574.775486 147.097881 
L 576.507346 148.668875 
L 578.239207 150.105297 
L 579.971067 151.399981 
L 581.702927 152.545761 
L 583.434787 153.535472 
L 585.166648 154.361949 
L 586.898508 155.018026 
L 588.630368 155.496539 
L 590.362229 155.790321 
L 592.094089 155.892207 
L 593.825949 155.795032 
L 595.557809 155.491631 
L 597.28967 154.974838 
L 599.02153 154.237488 
L 600.75339 153.272416 
L 602.48525 152.072455 
L 604.217111 150.630442 
L 605.948971 148.93921 
L 607.680831 146.991595 
L 609.412691 144.78043 
L 611.144552 142.298551 
L 612.876412 139.538792 
L 614.608272 136.493987 
L 616.340133 133.156973 
L 618.071993 129.520582 
L 619.803853 125.57765 
L 621.535713 121.321011 
L 623.267574 116.743501 
L 624.999434 111.837953 
L 626.731294 106.597203 
L 628.463154 101.014084 
L 630.195015 95.081432 
L 631.926875 88.792082 
" style="fill:none;stroke:#000000;stroke-linecap:square;stroke-width:1.5;"/>
   </g>
   <g id="patch_13">
    <path d="M 460.472708 200.859062 
L 460.472708 11.759062 
" style="fill:none;stroke:#000000;stroke-linecap:square;stroke-linejoin:miter;stroke-width:0.8;"/>
   </g>
   <g id="patch_14">
    <path d="M 631.926875 200.859062 
L 631.926875 11.759062 
" style="fill:none;stroke:#000000;stroke-linecap:square;stroke-linejoin:miter;stroke-width:0.8;"/>
   </g>
   <g id="patch_15">
    <path d="M 460.472708 200.859062 
L 631.926875 200.859062 
" style="fill:none;stroke:#000000;stroke-linecap:square;stroke-linejoin:miter;stroke-width:0.8;"/>
   </g>
   <g id="patch_16">
    <path d="M 460.472708 11.759062 
L 631.926875 11.759062 
" style="fill:none;stroke:#000000;stroke-linecap:square;stroke-linejoin:miter;stroke-width:0.8;"/>
   </g>
  </g>
  <g id="axes_4">
   <g id="patch_17">
    <path d="M 43.339375 407.759062 
L 214.793542 407.759062 
L 214.793542 218.659062 
L 43.339375 218.659062 
z
" style="fill:#ffffff;"/>
   </g>
   <g id="PathCollection_4">
    <g clip-path="url(#p7efcd1340e)">
     <use style="fill:#ff0000;stroke:#ff0000;stroke-width:1.5;" x="149.115279" xlink:href="#m141b7a75b2" y="352.54282"/>
     <use style="fill:#ff0000;stroke:#ff0000;stroke-width:1.5;" x="79.410342" xlink:href="#m141b7a75b2" y="256.371682"/>
     <use style="fill:#ff0000;stroke:#ff0000;stroke-width:1.5;" x="58.278056" xlink:href="#m141b7a75b2" y="283.204382"/>
     <use style="fill:#ff0000;stroke:#ff0000;stroke-width:1.5;" x="46.560965" xlink:href="#m141b7a75b2" y="314.016478"/>
     <use style="fill:#ff0000;stroke:#ff0000;stroke-width:1.5;" x="202.036775" xlink:href="#m141b7a75b2" y="326.663642"/>
     <use style="fill:#ff0000;stroke:#ff0000;stroke-width:1.5;" x="46.805903" xlink:href="#m141b7a75b2" y="297.100483"/>
     <use style="fill:#ff0000;stroke:#ff0000;stroke-width:1.5;" x="97.42088" xlink:href="#m141b7a75b2" y="267.368767"/>
     <use style="fill:#ff0000;stroke:#ff0000;stroke-width:1.5;" x="53.665283" xlink:href="#m141b7a75b2" y="273.707735"/>
     <use style="fill:#ff0000;stroke:#ff0000;stroke-width:1.5;" x="208.563371" xlink:href="#m141b7a75b2" y="321.250023"/>
     <use style="fill:#ff0000;stroke:#ff0000;stroke-width:1.5;" x="115.976756" xlink:href="#m141b7a75b2" y="291.949459"/>
    </g>
   </g>
   <g id="matplotlib.axis_2">
    <g id="ytick_8">
     <g id="line2d_11">
      <g>
       <use style="stroke:#000000;stroke-width:0.8;" x="43.339375" xlink:href="#me7232c3733" y="407.759062"/>
      </g>
     </g>
     <g id="text_8">
      <!-- −1.5 -->
      <g transform="translate(7.2 412.318125)scale(0.12 -0.12)">
       <use xlink:href="#DejaVuSans-2212"/>
       <use x="83.789062" xlink:href="#DejaVuSans-31"/>
       <use x="147.412109" xlink:href="#DejaVuSans-2e"/>
       <use x="179.199219" xlink:href="#DejaVuSans-35"/>
      </g>
     </g>
    </g>
    <g id="ytick_9">
     <g id="line2d_12">
      <g>
       <use style="stroke:#000000;stroke-width:0.8;" x="43.339375" xlink:href="#me7232c3733" y="376.242396"/>
      </g>
     </g>
     <g id="text_9">
      <!-- −1.0 -->
      <g transform="translate(7.2 380.801458)scale(0.12 -0.12)">
       <use xlink:href="#DejaVuSans-2212"/>
       <use x="83.789062" xlink:href="#DejaVuSans-31"/>
       <use x="147.412109" xlink:href="#DejaVuSans-2e"/>
       <use x="179.199219" xlink:href="#DejaVuSans-30"/>
      </g>
     </g>
    </g>
    <g id="ytick_10">
     <g id="line2d_13">
      <g>
       <use style="stroke:#000000;stroke-width:0.8;" x="43.339375" xlink:href="#me7232c3733" y="344.725729"/>
      </g>
     </g>
     <g id="text_10">
      <!-- −0.5 -->
      <g transform="translate(7.2 349.284792)scale(0.12 -0.12)">
       <use xlink:href="#DejaVuSans-2212"/>
       <use x="83.789062" xlink:href="#DejaVuSans-30"/>
       <use x="147.412109" xlink:href="#DejaVuSans-2e"/>
       <use x="179.199219" xlink:href="#DejaVuSans-35"/>
      </g>
     </g>
    </g>
    <g id="ytick_11">
     <g id="line2d_14">
      <g>
       <use style="stroke:#000000;stroke-width:0.8;" x="43.339375" xlink:href="#me7232c3733" y="313.209062"/>
      </g>
     </g>
     <g id="text_11">
      <!-- 0.0 -->
      <g transform="translate(17.255625 317.768125)scale(0.12 -0.12)">
       <use xlink:href="#DejaVuSans-30"/>
       <use x="63.623047" xlink:href="#DejaVuSans-2e"/>
       <use x="95.410156" xlink:href="#DejaVuSans-30"/>
      </g>
     </g>
    </g>
    <g id="ytick_12">
     <g id="line2d_15">
      <g>
       <use style="stroke:#000000;stroke-width:0.8;" x="43.339375" xlink:href="#me7232c3733" y="281.692396"/>
      </g>
     </g>
     <g id="text_12">
      <!-- 0.5 -->
      <g transform="translate(17.255625 286.251458)scale(0.12 -0.12)">
       <use xlink:href="#DejaVuSans-30"/>
       <use x="63.623047" xlink:href="#DejaVuSans-2e"/>
       <use x="95.410156" xlink:href="#DejaVuSans-35"/>
      </g>
     </g>
    </g>
    <g id="ytick_13">
     <g id="line2d_16">
      <g>
       <use style="stroke:#000000;stroke-width:0.8;" x="43.339375" xlink:href="#me7232c3733" y="250.175729"/>
      </g>
     </g>
     <g id="text_13">
      <!-- 1.0 -->
      <g transform="translate(17.255625 254.734792)scale(0.12 -0.12)">
       <use xlink:href="#DejaVuSans-31"/>
       <use x="63.623047" xlink:href="#DejaVuSans-2e"/>
       <use x="95.410156" xlink:href="#DejaVuSans-30"/>
      </g>
     </g>
    </g>
    <g id="ytick_14">
     <g id="line2d_17">
      <g>
       <use style="stroke:#000000;stroke-width:0.8;" x="43.339375" xlink:href="#me7232c3733" y="218.659062"/>
      </g>
     </g>
     <g id="text_14">
      <!-- 1.5 -->
      <g transform="translate(17.255625 223.218125)scale(0.12 -0.12)">
       <use xlink:href="#DejaVuSans-31"/>
       <use x="63.623047" xlink:href="#DejaVuSans-2e"/>
       <use x="95.410156" xlink:href="#DejaVuSans-35"/>
      </g>
     </g>
    </g>
   </g>
   <g id="line2d_18">
    <path clip-path="url(#p7efcd1340e)" d="M 43.339375 309.970809 
L 45.071235 305.322395 
L 46.803096 300.914483 
L 48.534956 296.745857 
L 50.266816 292.815156 
L 51.998676 289.120878 
L 53.730537 285.661374 
L 55.462397 282.434853 
L 57.194257 279.43938 
L 58.926117 276.672878 
L 60.657978 274.133122 
L 62.389838 271.817749 
L 64.121698 269.724247 
L 65.853559 267.849963 
L 67.585419 266.1921 
L 69.317279 264.747717 
L 71.049139 263.513729 
L 72.781 262.486909 
L 74.51286 261.663884 
L 76.24472 261.041138 
L 77.97658 260.615012 
L 79.708441 260.381703 
L 81.440301 260.337264 
L 83.172161 260.477604 
L 84.904021 260.798489 
L 86.635882 261.295541 
L 88.367742 261.964239 
L 90.099602 262.799916 
L 91.831463 263.797763 
L 93.563323 264.952828 
L 95.295183 266.260015 
L 97.027043 267.714082 
L 98.758904 269.309646 
L 100.490764 271.041179 
L 102.222624 272.90301 
L 103.954484 274.889323 
L 105.686345 276.99416 
L 107.418205 279.211418 
L 109.150065 281.53485 
L 110.881926 283.958068 
L 112.613786 286.474536 
L 114.345646 289.077578 
L 116.077506 291.760372 
L 117.809367 294.515954 
L 119.541227 297.337215 
L 121.273087 300.216903 
L 123.004947 303.147621 
L 124.736808 306.121831 
L 126.468668 309.131848 
L 128.200528 312.169845 
L 129.932388 315.227852 
L 131.664249 318.297755 
L 133.396109 321.371294 
L 135.127969 324.440067 
L 136.85983 327.49553 
L 138.59169 330.528993 
L 140.32355 333.531622 
L 142.05541 336.49444 
L 143.787271 339.408328 
L 145.519131 342.264021 
L 147.250991 345.052111 
L 148.982851 347.763046 
L 150.714712 350.387131 
L 152.446572 352.914526 
L 154.178432 355.335249 
L 155.910293 357.639174 
L 157.642153 359.81603 
L 159.374013 361.855402 
L 161.105873 363.746735 
L 162.837734 365.479325 
L 164.569594 367.042328 
L 166.301454 368.424755 
L 168.033314 369.615474 
L 169.765175 370.603208 
L 171.497035 371.376538 
L 173.228895 371.923899 
L 174.960755 372.233585 
L 176.692616 372.293743 
L 178.424476 372.09238 
L 180.156336 371.617357 
L 181.888197 370.856392 
L 183.620057 369.797058 
L 185.351917 368.426786 
L 187.083777 366.732863 
L 188.815638 364.702431 
L 190.547498 362.32249 
L 192.279358 359.579896 
L 194.011218 356.461359 
L 195.743079 352.953448 
L 197.474939 349.042588 
L 199.206799 344.715059 
L 200.93866 339.956998 
L 202.67052 334.754398 
L 204.40238 329.093108 
L 206.13424 322.958835 
L 207.866101 316.337141 
L 209.597961 309.213443 
L 211.329821 301.573017 
L 213.061681 293.400993 
L 214.793542 284.682359 
" style="fill:none;stroke:#000000;stroke-linecap:square;stroke-width:1.5;"/>
   </g>
   <g id="patch_18">
    <path d="M 43.339375 407.759062 
L 43.339375 218.659062 
" style="fill:none;stroke:#000000;stroke-linecap:square;stroke-linejoin:miter;stroke-width:0.8;"/>
   </g>
   <g id="patch_19">
    <path d="M 214.793542 407.759062 
L 214.793542 218.659062 
" style="fill:none;stroke:#000000;stroke-linecap:square;stroke-linejoin:miter;stroke-width:0.8;"/>
   </g>
   <g id="patch_20">
    <path d="M 43.339375 407.759062 
L 214.793542 407.759062 
" style="fill:none;stroke:#000000;stroke-linecap:square;stroke-linejoin:miter;stroke-width:0.8;"/>
   </g>
   <g id="patch_21">
    <path d="M 43.339375 218.659062 
L 214.793542 218.659062 
" style="fill:none;stroke:#000000;stroke-linecap:square;stroke-linejoin:miter;stroke-width:0.8;"/>
   </g>
  </g>
  <g id="axes_5">
   <g id="patch_22">
    <path d="M 251.906042 407.759062 
L 423.360208 407.759062 
L 423.360208 218.659062 
L 251.906042 218.659062 
z
" style="fill:#ffffff;"/>
   </g>
   <g id="PathCollection_5">
    <g clip-path="url(#pb093727bc3)">
     <use style="fill:#ff0000;stroke:#ff0000;stroke-width:1.5;" x="357.681946" xlink:href="#m141b7a75b2" y="352.54282"/>
     <use style="fill:#ff0000;stroke:#ff0000;stroke-width:1.5;" x="287.977008" xlink:href="#m141b7a75b2" y="256.371682"/>
     <use style="fill:#ff0000;stroke:#ff0000;stroke-width:1.5;" x="266.844723" xlink:href="#m141b7a75b2" y="283.204382"/>
     <use style="fill:#ff0000;stroke:#ff0000;stroke-width:1.5;" x="255.127631" xlink:href="#m141b7a75b2" y="314.016478"/>
     <use style="fill:#ff0000;stroke:#ff0000;stroke-width:1.5;" x="410.603442" xlink:href="#m141b7a75b2" y="326.663642"/>
     <use style="fill:#ff0000;stroke:#ff0000;stroke-width:1.5;" x="255.37257" xlink:href="#m141b7a75b2" y="297.100483"/>
     <use style="fill:#ff0000;stroke:#ff0000;stroke-width:1.5;" x="305.987547" xlink:href="#m141b7a75b2" y="267.368767"/>
     <use style="fill:#ff0000;stroke:#ff0000;stroke-width:1.5;" x="262.23195" xlink:href="#m141b7a75b2" y="273.707735"/>
     <use style="fill:#ff0000;stroke:#ff0000;stroke-width:1.5;" x="417.130037" xlink:href="#m141b7a75b2" y="321.250023"/>
     <use style="fill:#ff0000;stroke:#ff0000;stroke-width:1.5;" x="324.543422" xlink:href="#m141b7a75b2" y="291.949459"/>
    </g>
   </g>
   <g id="line2d_19">
    <path clip-path="url(#pb093727bc3)" d="M 251.906042 309.968162 
L 253.637902 305.320503 
L 255.369762 300.913287 
L 257.101622 296.745298 
L 258.833483 292.815175 
L 260.565343 289.121417 
L 262.297203 285.662375 
L 264.029064 282.436259 
L 265.760924 279.441137 
L 267.492784 276.67493 
L 269.224644 274.135417 
L 270.956505 271.820235 
L 272.688365 269.726875 
L 274.420225 267.852686 
L 276.152085 266.194872 
L 277.883946 264.750495 
L 279.615806 263.516473 
L 281.347666 262.489579 
L 283.079527 261.666445 
L 284.811387 261.043557 
L 286.543247 260.617258 
L 288.275107 260.383748 
L 290.006968 260.339083 
L 291.738828 260.479175 
L 293.470688 260.799793 
L 295.202548 261.296562 
L 296.934409 261.964963 
L 298.666269 262.800333 
L 300.398129 263.797867 
L 302.129989 264.952614 
L 303.86185 266.259481 
L 305.59371 267.71323 
L 307.32557 269.308481 
L 309.057431 271.039709 
L 310.789291 272.901244 
L 312.521151 274.887275 
L 314.253011 276.991845 
L 315.984872 279.208855 
L 317.716732 281.53206 
L 319.448592 283.955073 
L 321.180452 286.471363 
L 322.912313 289.074254 
L 324.644173 291.756927 
L 326.376033 294.512419 
L 328.107894 297.333623 
L 329.839754 300.21329 
L 331.571614 303.144023 
L 333.303474 306.118284 
L 335.035335 309.128392 
L 336.767195 312.16652 
L 338.499055 315.224697 
L 340.230915 318.29481 
L 341.962776 321.3686 
L 343.694636 324.437665 
L 345.426496 327.49346 
L 347.158356 330.527294 
L 348.890217 333.530334 
L 350.622077 336.493601 
L 352.353937 339.407973 
L 354.085798 342.264185 
L 355.817658 345.052827 
L 357.549518 347.764344 
L 359.281378 350.389038 
L 361.013239 352.917068 
L 362.745099 355.338447 
L 364.476959 357.643046 
L 366.208819 359.820589 
L 367.94068 361.860658 
L 369.67254 363.752691 
L 371.4044 365.485982 
L 373.136261 367.04968 
L 374.868121 368.432789 
L 376.599981 369.624171 
L 378.331841 370.612543 
L 380.063702 371.386477 
L 381.795562 371.934402 
L 383.527422 372.244603 
L 385.259282 372.30522 
L 386.991143 372.104249 
L 388.723003 371.629541 
L 390.454863 370.868804 
L 392.186723 369.809603 
L 393.918584 368.439355 
L 395.650444 366.745335 
L 397.382304 364.714675 
L 399.114165 362.334361 
L 400.846025 359.591236 
L 402.577885 356.471995 
L 404.309745 352.963195 
L 406.041606 349.051243 
L 407.773466 344.722405 
L 409.505326 339.962801 
L 411.237186 334.758408 
L 412.969047 329.095058 
L 414.700907 322.958438 
L 416.432767 316.334092 
L 418.164628 309.207418 
L 419.896488 301.563671 
L 421.628348 293.387962 
L 423.360208 284.665256 
" style="fill:none;stroke:#000000;stroke-linecap:square;stroke-width:1.5;"/>
   </g>
   <g id="patch_23">
    <path d="M 251.906042 407.759062 
L 251.906042 218.659062 
" style="fill:none;stroke:#000000;stroke-linecap:square;stroke-linejoin:miter;stroke-width:0.8;"/>
   </g>
   <g id="patch_24">
    <path d="M 423.360208 407.759062 
L 423.360208 218.659062 
" style="fill:none;stroke:#000000;stroke-linecap:square;stroke-linejoin:miter;stroke-width:0.8;"/>
   </g>
   <g id="patch_25">
    <path d="M 251.906042 407.759062 
L 423.360208 407.759062 
" style="fill:none;stroke:#000000;stroke-linecap:square;stroke-linejoin:miter;stroke-width:0.8;"/>
   </g>
   <g id="patch_26">
    <path d="M 251.906042 218.659062 
L 423.360208 218.659062 
" style="fill:none;stroke:#000000;stroke-linecap:square;stroke-linejoin:miter;stroke-width:0.8;"/>
   </g>
  </g>
  <g id="axes_6">
   <g id="patch_27">
    <path d="M 460.472708 407.759062 
L 631.926875 407.759062 
L 631.926875 218.659062 
L 460.472708 218.659062 
z
" style="fill:#ffffff;"/>
   </g>
   <g id="PathCollection_6">
    <g clip-path="url(#p6f1704f849)">
     <use style="fill:#ff0000;stroke:#ff0000;stroke-width:1.5;" x="566.248613" xlink:href="#m141b7a75b2" y="352.54282"/>
     <use style="fill:#ff0000;stroke:#ff0000;stroke-width:1.5;" x="496.543675" xlink:href="#m141b7a75b2" y="256.371682"/>
     <use style="fill:#ff0000;stroke:#ff0000;stroke-width:1.5;" x="475.41139" xlink:href="#m141b7a75b2" y="283.204382"/>
     <use style="fill:#ff0000;stroke:#ff0000;stroke-width:1.5;" x="463.694298" xlink:href="#m141b7a75b2" y="314.016478"/>
     <use style="fill:#ff0000;stroke:#ff0000;stroke-width:1.5;" x="619.170109" xlink:href="#m141b7a75b2" y="326.663642"/>
     <use style="fill:#ff0000;stroke:#ff0000;stroke-width:1.5;" x="463.939237" xlink:href="#m141b7a75b2" y="297.100483"/>
     <use style="fill:#ff0000;stroke:#ff0000;stroke-width:1.5;" x="514.554213" xlink:href="#m141b7a75b2" y="267.368767"/>
     <use style="fill:#ff0000;stroke:#ff0000;stroke-width:1.5;" x="470.798616" xlink:href="#m141b7a75b2" y="273.707735"/>
     <use style="fill:#ff0000;stroke:#ff0000;stroke-width:1.5;" x="625.696704" xlink:href="#m141b7a75b2" y="321.250023"/>
     <use style="fill:#ff0000;stroke:#ff0000;stroke-width:1.5;" x="533.110089" xlink:href="#m141b7a75b2" y="291.949459"/>
    </g>
   </g>
   <g id="line2d_20">
    <path clip-path="url(#p6f1704f849)" d="M 460.472708 310.58953 
L 462.204569 305.806216 
L 463.936429 301.266379 
L 465.668289 296.969538 
L 467.400149 292.915043 
L 469.13201 289.102074 
L 470.86387 285.529636 
L 472.59573 282.196553 
L 474.32759 279.101466 
L 476.059451 276.242831 
L 477.791311 273.618911 
L 479.523171 271.227778 
L 481.255032 269.067309 
L 482.986892 267.135182 
L 484.718752 265.428877 
L 486.450612 263.94567 
L 488.182473 262.682635 
L 489.914333 261.636642 
L 491.646193 260.804355 
L 493.378053 260.182231 
L 495.109914 259.766522 
L 496.841774 259.553271 
L 498.573634 259.538316 
L 500.305495 259.717287 
L 502.037355 260.085609 
L 503.769215 260.638502 
L 505.501075 261.370981 
L 507.232936 262.277859 
L 508.964796 263.353749 
L 510.696656 264.593064 
L 512.428516 265.99002 
L 514.160377 267.53864 
L 515.892237 269.232754 
L 517.624097 271.066006 
L 519.355957 273.031852 
L 521.087818 275.123566 
L 522.819678 277.334248 
L 524.551538 279.656821 
L 526.283399 282.084039 
L 528.015259 284.608491 
L 529.747119 287.222608 
L 531.478979 289.918664 
L 533.21084 292.688785 
L 534.9427 295.524952 
L 536.67456 298.41901 
L 538.40642 301.362672 
L 540.138281 304.347525 
L 541.870141 307.365039 
L 543.602001 310.406573 
L 545.333862 313.463381 
L 547.065722 316.526621 
L 548.797582 319.587364 
L 550.529442 322.636599 
L 552.261303 325.665244 
L 553.993163 328.664153 
L 555.725023 331.624126 
L 557.456883 334.535917 
L 559.188744 337.390246 
L 560.920604 340.177805 
L 562.652464 342.889272 
L 564.384324 345.515316 
L 566.116185 348.046615 
L 567.848045 350.473858 
L 569.579905 352.787764 
L 571.311766 354.979088 
L 573.043626 357.038636 
L 574.775486 358.957273 
L 576.507346 360.72594 
L 578.239207 362.335662 
L 579.971067 363.777563 
L 581.702927 365.042879 
L 583.434787 366.12297 
L 585.166648 367.009336 
L 586.898508 367.693625 
L 588.630368 368.167655 
L 590.362229 368.423421 
L 592.094089 368.453116 
L 593.825949 368.249138 
L 595.557809 367.804114 
L 597.28967 367.110909 
L 599.02153 366.162643 
L 600.75339 364.952708 
L 602.48525 363.474784 
L 604.217111 361.722855 
L 605.948971 359.691226 
L 607.680831 357.374538 
L 609.412691 354.767788 
L 611.144552 351.866346 
L 612.876412 348.665971 
L 614.608272 345.162831 
L 616.340133 341.35352 
L 618.071993 337.235077 
L 619.803853 332.805006 
L 621.535713 328.061293 
L 623.267574 323.002426 
L 624.999434 317.627415 
L 626.731294 311.935813 
L 628.463154 305.927735 
L 630.195015 299.603876 
L 631.926875 292.965539 
" style="fill:none;stroke:#000000;stroke-linecap:square;stroke-width:1.5;"/>
   </g>
   <g id="patch_28">
    <path d="M 460.472708 407.759062 
L 460.472708 218.659062 
" style="fill:none;stroke:#000000;stroke-linecap:square;stroke-linejoin:miter;stroke-width:0.8;"/>
   </g>
   <g id="patch_29">
    <path d="M 631.926875 407.759062 
L 631.926875 218.659062 
" style="fill:none;stroke:#000000;stroke-linecap:square;stroke-linejoin:miter;stroke-width:0.8;"/>
   </g>
   <g id="patch_30">
    <path d="M 460.472708 407.759062 
L 631.926875 407.759062 
" style="fill:none;stroke:#000000;stroke-linecap:square;stroke-linejoin:miter;stroke-width:0.8;"/>
   </g>
   <g id="patch_31">
    <path d="M 460.472708 218.659062 
L 631.926875 218.659062 
" style="fill:none;stroke:#000000;stroke-linecap:square;stroke-linejoin:miter;stroke-width:0.8;"/>
   </g>
  </g>
  <g id="axes_7">
   <g id="patch_32">
    <path d="M 43.339375 614.659062 
L 214.793542 614.659062 
L 214.793542 425.559062 
L 43.339375 425.559062 
z
" style="fill:#ffffff;"/>
   </g>
   <g id="PathCollection_7">
    <g clip-path="url(#p076a8b5edb)">
     <use style="fill:#ff0000;stroke:#ff0000;stroke-width:1.5;" x="149.115279" xlink:href="#m141b7a75b2" y="559.44282"/>
     <use style="fill:#ff0000;stroke:#ff0000;stroke-width:1.5;" x="79.410342" xlink:href="#m141b7a75b2" y="463.271682"/>
     <use style="fill:#ff0000;stroke:#ff0000;stroke-width:1.5;" x="58.278056" xlink:href="#m141b7a75b2" y="490.104382"/>
     <use style="fill:#ff0000;stroke:#ff0000;stroke-width:1.5;" x="46.560965" xlink:href="#m141b7a75b2" y="520.916478"/>
     <use style="fill:#ff0000;stroke:#ff0000;stroke-width:1.5;" x="202.036775" xlink:href="#m141b7a75b2" y="533.563642"/>
     <use style="fill:#ff0000;stroke:#ff0000;stroke-width:1.5;" x="46.805903" xlink:href="#m141b7a75b2" y="504.000483"/>
     <use style="fill:#ff0000;stroke:#ff0000;stroke-width:1.5;" x="97.42088" xlink:href="#m141b7a75b2" y="474.268767"/>
     <use style="fill:#ff0000;stroke:#ff0000;stroke-width:1.5;" x="53.665283" xlink:href="#m141b7a75b2" y="480.607735"/>
     <use style="fill:#ff0000;stroke:#ff0000;stroke-width:1.5;" x="208.563371" xlink:href="#m141b7a75b2" y="528.150023"/>
     <use style="fill:#ff0000;stroke:#ff0000;stroke-width:1.5;" x="115.976756" xlink:href="#m141b7a75b2" y="498.849459"/>
    </g>
   </g>
   <g id="matplotlib.axis_3">
    <g id="xtick_1">
     <g id="line2d_21">
      <defs>
       <path d="M 0 0 
L 0 3.5 
" id="m850b2224bb" style="stroke:#000000;stroke-width:0.8;"/>
      </defs>
      <g>
       <use style="stroke:#000000;stroke-width:0.8;" x="43.339375" xlink:href="#m850b2224bb" y="614.659062"/>
      </g>
     </g>
     <g id="text_15">
      <!-- 0.00 -->
      <g transform="translate(29.98 630.777187)scale(0.12 -0.12)">
       <use xlink:href="#DejaVuSans-30"/>
       <use x="63.623047" xlink:href="#DejaVuSans-2e"/>
       <use x="95.410156" xlink:href="#DejaVuSans-30"/>
       <use x="159.033203" xlink:href="#DejaVuSans-30"/>
      </g>
     </g>
    </g>
    <g id="xtick_2">
     <g id="line2d_22">
      <g>
       <use style="stroke:#000000;stroke-width:0.8;" x="86.202917" xlink:href="#m850b2224bb" y="614.659062"/>
      </g>
     </g>
     <g id="text_16">
      <!-- 0.25 -->
      <defs>
       <path d="M 19.1875 8.296875 
L 53.609375 8.296875 
L 53.609375 0 
L 7.328125 0 
L 7.328125 8.296875 
Q 12.9375 14.109375 22.625 23.890625 
Q 32.328125 33.6875 34.8125 36.53125 
Q 39.546875 41.84375 41.421875 45.53125 
Q 43.3125 49.21875 43.3125 52.78125 
Q 43.3125 58.59375 39.234375 62.25 
Q 35.15625 65.921875 28.609375 65.921875 
Q 23.96875 65.921875 18.8125 64.3125 
Q 13.671875 62.703125 7.8125 59.421875 
L 7.8125 69.390625 
Q 13.765625 71.78125 18.9375 73 
Q 24.125 74.21875 28.421875 74.21875 
Q 39.75 74.21875 46.484375 68.546875 
Q 53.21875 62.890625 53.21875 53.421875 
Q 53.21875 48.921875 51.53125 44.890625 
Q 49.859375 40.875 45.40625 35.40625 
Q 44.1875 33.984375 37.640625 27.21875 
Q 31.109375 20.453125 19.1875 8.296875 
z
" id="DejaVuSans-32"/>
      </defs>
      <g transform="translate(72.843542 630.777187)scale(0.12 -0.12)">
       <use xlink:href="#DejaVuSans-30"/>
       <use x="63.623047" xlink:href="#DejaVuSans-2e"/>
       <use x="95.410156" xlink:href="#DejaVuSans-32"/>
       <use x="159.033203" xlink:href="#DejaVuSans-35"/>
      </g>
     </g>
    </g>
    <g id="xtick_3">
     <g id="line2d_23">
      <g>
       <use style="stroke:#000000;stroke-width:0.8;" x="129.066458" xlink:href="#m850b2224bb" y="614.659062"/>
      </g>
     </g>
     <g id="text_17">
      <!-- 0.50 -->
      <g transform="translate(115.707083 630.777187)scale(0.12 -0.12)">
       <use xlink:href="#DejaVuSans-30"/>
       <use x="63.623047" xlink:href="#DejaVuSans-2e"/>
       <use x="95.410156" xlink:href="#DejaVuSans-35"/>
       <use x="159.033203" xlink:href="#DejaVuSans-30"/>
      </g>
     </g>
    </g>
    <g id="xtick_4">
     <g id="line2d_24">
      <g>
       <use style="stroke:#000000;stroke-width:0.8;" x="171.93" xlink:href="#m850b2224bb" y="614.659062"/>
      </g>
     </g>
     <g id="text_18">
      <!-- 0.75 -->
      <defs>
       <path d="M 8.203125 72.90625 
L 55.078125 72.90625 
L 55.078125 68.703125 
L 28.609375 0 
L 18.3125 0 
L 43.21875 64.59375 
L 8.203125 64.59375 
z
" id="DejaVuSans-37"/>
      </defs>
      <g transform="translate(158.570625 630.777187)scale(0.12 -0.12)">
       <use xlink:href="#DejaVuSans-30"/>
       <use x="63.623047" xlink:href="#DejaVuSans-2e"/>
       <use x="95.410156" xlink:href="#DejaVuSans-37"/>
       <use x="159.033203" xlink:href="#DejaVuSans-35"/>
      </g>
     </g>
    </g>
    <g id="xtick_5">
     <g id="line2d_25">
      <g>
       <use style="stroke:#000000;stroke-width:0.8;" x="214.793542" xlink:href="#m850b2224bb" y="614.659062"/>
      </g>
     </g>
     <g id="text_19">
      <!-- 1.00 -->
      <g transform="translate(201.434167 630.777187)scale(0.12 -0.12)">
       <use xlink:href="#DejaVuSans-31"/>
       <use x="63.623047" xlink:href="#DejaVuSans-2e"/>
       <use x="95.410156" xlink:href="#DejaVuSans-30"/>
       <use x="159.033203" xlink:href="#DejaVuSans-30"/>
      </g>
     </g>
    </g>
   </g>
   <g id="matplotlib.axis_4">
    <g id="ytick_15">
     <g id="line2d_26">
      <g>
       <use style="stroke:#000000;stroke-width:0.8;" x="43.339375" xlink:href="#me7232c3733" y="614.659062"/>
      </g>
     </g>
     <g id="text_20">
      <!-- −1.5 -->
      <g transform="translate(7.2 619.218125)scale(0.12 -0.12)">
       <use xlink:href="#DejaVuSans-2212"/>
       <use x="83.789062" xlink:href="#DejaVuSans-31"/>
       <use x="147.412109" xlink:href="#DejaVuSans-2e"/>
       <use x="179.199219" xlink:href="#DejaVuSans-35"/>
      </g>
     </g>
    </g>
    <g id="ytick_16">
     <g id="line2d_27">
      <g>
       <use style="stroke:#000000;stroke-width:0.8;" x="43.339375" xlink:href="#me7232c3733" y="583.142396"/>
      </g>
     </g>
     <g id="text_21">
      <!-- −1.0 -->
      <g transform="translate(7.2 587.701458)scale(0.12 -0.12)">
       <use xlink:href="#DejaVuSans-2212"/>
       <use x="83.789062" xlink:href="#DejaVuSans-31"/>
       <use x="147.412109" xlink:href="#DejaVuSans-2e"/>
       <use x="179.199219" xlink:href="#DejaVuSans-30"/>
      </g>
     </g>
    </g>
    <g id="ytick_17">
     <g id="line2d_28">
      <g>
       <use style="stroke:#000000;stroke-width:0.8;" x="43.339375" xlink:href="#me7232c3733" y="551.625729"/>
      </g>
     </g>
     <g id="text_22">
      <!-- −0.5 -->
      <g transform="translate(7.2 556.184792)scale(0.12 -0.12)">
       <use xlink:href="#DejaVuSans-2212"/>
       <use x="83.789062" xlink:href="#DejaVuSans-30"/>
       <use x="147.412109" xlink:href="#DejaVuSans-2e"/>
       <use x="179.199219" xlink:href="#DejaVuSans-35"/>
      </g>
     </g>
    </g>
    <g id="ytick_18">
     <g id="line2d_29">
      <g>
       <use style="stroke:#000000;stroke-width:0.8;" x="43.339375" xlink:href="#me7232c3733" y="520.109062"/>
      </g>
     </g>
     <g id="text_23">
      <!-- 0.0 -->
      <g transform="translate(17.255625 524.668125)scale(0.12 -0.12)">
       <use xlink:href="#DejaVuSans-30"/>
       <use x="63.623047" xlink:href="#DejaVuSans-2e"/>
       <use x="95.410156" xlink:href="#DejaVuSans-30"/>
      </g>
     </g>
    </g>
    <g id="ytick_19">
     <g id="line2d_30">
      <g>
       <use style="stroke:#000000;stroke-width:0.8;" x="43.339375" xlink:href="#me7232c3733" y="488.592396"/>
      </g>
     </g>
     <g id="text_24">
      <!-- 0.5 -->
      <g transform="translate(17.255625 493.151458)scale(0.12 -0.12)">
       <use xlink:href="#DejaVuSans-30"/>
       <use x="63.623047" xlink:href="#DejaVuSans-2e"/>
       <use x="95.410156" xlink:href="#DejaVuSans-35"/>
      </g>
     </g>
    </g>
    <g id="ytick_20">
     <g id="line2d_31">
      <g>
       <use style="stroke:#000000;stroke-width:0.8;" x="43.339375" xlink:href="#me7232c3733" y="457.075729"/>
      </g>
     </g>
     <g id="text_25">
      <!-- 1.0 -->
      <g transform="translate(17.255625 461.634792)scale(0.12 -0.12)">
       <use xlink:href="#DejaVuSans-31"/>
       <use x="63.623047" xlink:href="#DejaVuSans-2e"/>
       <use x="95.410156" xlink:href="#DejaVuSans-30"/>
      </g>
     </g>
    </g>
    <g id="ytick_21">
     <g id="line2d_32">
      <g>
       <use style="stroke:#000000;stroke-width:0.8;" x="43.339375" xlink:href="#me7232c3733" y="425.559062"/>
      </g>
     </g>
     <g id="text_26">
      <!-- 1.5 -->
      <g transform="translate(17.255625 430.118125)scale(0.12 -0.12)">
       <use xlink:href="#DejaVuSans-31"/>
       <use x="63.623047" xlink:href="#DejaVuSans-2e"/>
       <use x="95.410156" xlink:href="#DejaVuSans-35"/>
      </g>
     </g>
    </g>
   </g>
   <g id="line2d_33">
    <path clip-path="url(#p076a8b5edb)" d="M 43.339375 517.601479 
L 45.071235 512.843745 
L 46.803096 508.317917 
L 48.534956 504.024363 
L 50.266816 499.963305 
L 51.998676 496.134815 
L 53.730537 492.538804 
L 55.462397 489.175017 
L 57.194257 486.043025 
L 58.926117 483.14222 
L 60.657978 480.471803 
L 62.389838 478.030784 
L 64.121698 475.817969 
L 65.853559 473.831957 
L 67.585419 472.071132 
L 69.317279 470.533655 
L 71.049139 469.217463 
L 72.781 468.120257 
L 74.51286 467.239502 
L 76.24472 466.572415 
L 77.97658 466.115967 
L 79.708441 465.866874 
L 81.440301 465.821594 
L 83.172161 465.976323 
L 84.904021 466.326991 
L 86.635882 466.869259 
L 88.367742 467.598518 
L 90.099602 468.509884 
L 91.831463 469.5982 
L 93.563323 470.858032 
L 95.295183 472.283669 
L 97.027043 473.869124 
L 98.758904 475.608137 
L 100.490764 477.494169 
L 102.222624 479.520415 
L 103.954484 481.679795 
L 105.686345 483.964967 
L 107.418205 486.368328 
L 109.150065 488.882016 
L 110.881926 491.49792 
L 112.613786 494.207685 
L 114.345646 497.002721 
L 116.077506 499.874207 
L 117.809367 502.813108 
L 119.541227 505.810176 
L 121.273087 508.855969 
L 123.004947 511.94086 
L 124.736808 515.055048 
L 126.468668 518.188578 
L 128.200528 521.331349 
L 129.932388 524.473136 
L 131.664249 527.603608 
L 133.396109 530.71234 
L 135.127969 533.788839 
L 136.85983 536.822564 
L 138.59169 539.802946 
L 140.32355 542.719413 
L 142.05541 545.561414 
L 143.787271 548.318445 
L 145.519131 550.980076 
L 147.250991 553.535983 
L 148.982851 555.975971 
L 150.714712 558.290013 
L 152.446572 560.468277 
L 154.178432 562.501162 
L 155.910293 564.379338 
L 157.642153 566.093774 
L 159.374013 567.635786 
L 161.105873 568.997072 
L 162.837734 570.169755 
L 164.569594 571.146426 
L 166.301454 571.920192 
L 168.033314 572.484716 
L 169.765175 572.834275 
L 171.497035 572.9638 
L 173.228895 572.868934 
L 174.960755 572.546085 
L 176.692616 571.99248 
L 178.424476 571.20622 
L 180.156336 570.186345 
L 181.888197 568.932888 
L 183.620057 567.446942 
L 185.351917 565.730723 
L 187.083777 563.787637 
L 188.815638 561.622348 
L 190.547498 559.240849 
L 192.279358 556.650533 
L 194.011218 553.86027 
L 195.743079 550.880479 
L 197.474939 547.723213 
L 199.206799 544.402234 
L 200.93866 540.9331 
L 202.67052 537.333245 
L 204.40238 533.622071 
L 206.13424 529.821037 
L 207.866101 525.953746 
L 209.597961 522.046045 
L 211.329821 518.126115 
L 213.061681 514.224576 
L 214.793542 510.374582 
" style="fill:none;stroke:#000000;stroke-linecap:square;stroke-width:1.5;"/>
   </g>
   <g id="patch_33">
    <path d="M 43.339375 614.659062 
L 43.339375 425.559062 
" style="fill:none;stroke:#000000;stroke-linecap:square;stroke-linejoin:miter;stroke-width:0.8;"/>
   </g>
   <g id="patch_34">
    <path d="M 214.793542 614.659062 
L 214.793542 425.559062 
" style="fill:none;stroke:#000000;stroke-linecap:square;stroke-linejoin:miter;stroke-width:0.8;"/>
   </g>
   <g id="patch_35">
    <path d="M 43.339375 614.659062 
L 214.793542 614.659062 
" style="fill:none;stroke:#000000;stroke-linecap:square;stroke-linejoin:miter;stroke-width:0.8;"/>
   </g>
   <g id="patch_36">
    <path d="M 43.339375 425.559062 
L 214.793542 425.559062 
" style="fill:none;stroke:#000000;stroke-linecap:square;stroke-linejoin:miter;stroke-width:0.8;"/>
   </g>
  </g>
  <g id="axes_8">
   <g id="patch_37">
    <path d="M 251.906042 614.659062 
L 423.360208 614.659062 
L 423.360208 425.559062 
L 251.906042 425.559062 
z
" style="fill:#ffffff;"/>
   </g>
   <g id="PathCollection_8">
    <g clip-path="url(#p01a4e22d34)">
     <use style="fill:#ff0000;stroke:#ff0000;stroke-width:1.5;" x="357.681946" xlink:href="#m141b7a75b2" y="559.44282"/>
     <use style="fill:#ff0000;stroke:#ff0000;stroke-width:1.5;" x="287.977008" xlink:href="#m141b7a75b2" y="463.271682"/>
     <use style="fill:#ff0000;stroke:#ff0000;stroke-width:1.5;" x="266.844723" xlink:href="#m141b7a75b2" y="490.104382"/>
     <use style="fill:#ff0000;stroke:#ff0000;stroke-width:1.5;" x="255.127631" xlink:href="#m141b7a75b2" y="520.916478"/>
     <use style="fill:#ff0000;stroke:#ff0000;stroke-width:1.5;" x="410.603442" xlink:href="#m141b7a75b2" y="533.563642"/>
     <use style="fill:#ff0000;stroke:#ff0000;stroke-width:1.5;" x="255.37257" xlink:href="#m141b7a75b2" y="504.000483"/>
     <use style="fill:#ff0000;stroke:#ff0000;stroke-width:1.5;" x="305.987547" xlink:href="#m141b7a75b2" y="474.268767"/>
     <use style="fill:#ff0000;stroke:#ff0000;stroke-width:1.5;" x="262.23195" xlink:href="#m141b7a75b2" y="480.607735"/>
     <use style="fill:#ff0000;stroke:#ff0000;stroke-width:1.5;" x="417.130037" xlink:href="#m141b7a75b2" y="528.150023"/>
     <use style="fill:#ff0000;stroke:#ff0000;stroke-width:1.5;" x="324.543422" xlink:href="#m141b7a75b2" y="498.849459"/>
    </g>
   </g>
   <g id="matplotlib.axis_5">
    <g id="xtick_6">
     <g id="line2d_34">
      <g>
       <use style="stroke:#000000;stroke-width:0.8;" x="251.906042" xlink:href="#m850b2224bb" y="614.659062"/>
      </g>
     </g>
     <g id="text_27">
      <!-- 0.00 -->
      <g transform="translate(238.546667 630.777187)scale(0.12 -0.12)">
       <use xlink:href="#DejaVuSans-30"/>
       <use x="63.623047" xlink:href="#DejaVuSans-2e"/>
       <use x="95.410156" xlink:href="#DejaVuSans-30"/>
       <use x="159.033203" xlink:href="#DejaVuSans-30"/>
      </g>
     </g>
    </g>
    <g id="xtick_7">
     <g id="line2d_35">
      <g>
       <use style="stroke:#000000;stroke-width:0.8;" x="294.769583" xlink:href="#m850b2224bb" y="614.659062"/>
      </g>
     </g>
     <g id="text_28">
      <!-- 0.25 -->
      <g transform="translate(281.410208 630.777187)scale(0.12 -0.12)">
       <use xlink:href="#DejaVuSans-30"/>
       <use x="63.623047" xlink:href="#DejaVuSans-2e"/>
       <use x="95.410156" xlink:href="#DejaVuSans-32"/>
       <use x="159.033203" xlink:href="#DejaVuSans-35"/>
      </g>
     </g>
    </g>
    <g id="xtick_8">
     <g id="line2d_36">
      <g>
       <use style="stroke:#000000;stroke-width:0.8;" x="337.633125" xlink:href="#m850b2224bb" y="614.659062"/>
      </g>
     </g>
     <g id="text_29">
      <!-- 0.50 -->
      <g transform="translate(324.27375 630.777187)scale(0.12 -0.12)">
       <use xlink:href="#DejaVuSans-30"/>
       <use x="63.623047" xlink:href="#DejaVuSans-2e"/>
       <use x="95.410156" xlink:href="#DejaVuSans-35"/>
       <use x="159.033203" xlink:href="#DejaVuSans-30"/>
      </g>
     </g>
    </g>
    <g id="xtick_9">
     <g id="line2d_37">
      <g>
       <use style="stroke:#000000;stroke-width:0.8;" x="380.496667" xlink:href="#m850b2224bb" y="614.659062"/>
      </g>
     </g>
     <g id="text_30">
      <!-- 0.75 -->
      <g transform="translate(367.137292 630.777187)scale(0.12 -0.12)">
       <use xlink:href="#DejaVuSans-30"/>
       <use x="63.623047" xlink:href="#DejaVuSans-2e"/>
       <use x="95.410156" xlink:href="#DejaVuSans-37"/>
       <use x="159.033203" xlink:href="#DejaVuSans-35"/>
      </g>
     </g>
    </g>
    <g id="xtick_10">
     <g id="line2d_38">
      <g>
       <use style="stroke:#000000;stroke-width:0.8;" x="423.360208" xlink:href="#m850b2224bb" y="614.659062"/>
      </g>
     </g>
     <g id="text_31">
      <!-- 1.00 -->
      <g transform="translate(410.000833 630.777187)scale(0.12 -0.12)">
       <use xlink:href="#DejaVuSans-31"/>
       <use x="63.623047" xlink:href="#DejaVuSans-2e"/>
       <use x="95.410156" xlink:href="#DejaVuSans-30"/>
       <use x="159.033203" xlink:href="#DejaVuSans-30"/>
      </g>
     </g>
    </g>
   </g>
   <g id="line2d_39">
    <path clip-path="url(#p01a4e22d34)" d="M 251.906042 517.304119 
L 253.637902 512.668946 
L 255.369762 508.250625 
L 257.101622 504.049982 
L 258.833483 500.067729 
L 260.565343 496.30446 
L 262.297203 492.760642 
L 264.029064 489.436606 
L 265.760924 486.332542 
L 267.492784 483.448491 
L 269.224644 480.784334 
L 270.956505 478.339787 
L 272.688365 476.114391 
L 274.420225 474.107504 
L 276.152085 472.318291 
L 277.883946 470.745717 
L 279.615806 469.38854 
L 281.347666 468.245295 
L 283.079527 467.314293 
L 284.811387 466.59361 
L 286.543247 466.081074 
L 288.275107 465.774264 
L 290.006968 465.670494 
L 291.738828 465.766809 
L 293.470688 466.059977 
L 295.202548 466.546478 
L 296.934409 467.222501 
L 298.666269 468.083933 
L 300.398129 469.126354 
L 302.129989 470.34503 
L 303.86185 471.73491 
L 305.59371 473.290617 
L 307.32557 475.006443 
L 309.057431 476.876352 
L 310.789291 478.893968 
L 312.521151 481.052579 
L 314.253011 483.345133 
L 315.984872 485.764238 
L 317.716732 488.302164 
L 319.448592 490.950841 
L 321.180452 493.701866 
L 322.912313 496.546506 
L 324.644173 499.475702 
L 326.376033 502.480076 
L 328.107894 505.549942 
L 329.839754 508.675312 
L 331.571614 511.845912 
L 333.303474 515.05119 
L 335.035335 518.280337 
L 336.767195 521.5223 
L 338.499055 524.765802 
L 340.230915 527.999364 
L 341.962776 531.211328 
L 343.694636 534.389882 
L 345.426496 537.523091 
L 347.158356 540.598924 
L 348.890217 543.605289 
L 350.622077 546.53007 
L 352.353937 549.361166 
L 354.085798 552.086529 
L 355.817658 554.694215 
L 357.549518 557.172428 
L 359.281378 559.509572 
L 361.013239 561.694308 
L 362.745099 563.715609 
L 364.476959 565.562826 
L 366.208819 567.225752 
L 367.94068 568.694691 
L 369.67254 569.960532 
L 371.4044 571.01483 
L 373.136261 571.849885 
L 374.868121 572.458832 
L 376.599981 572.835728 
L 378.331841 572.975655 
L 380.063702 572.874813 
L 381.795562 572.530632 
L 383.527422 571.941884 
L 385.259282 571.108794 
L 386.991143 570.033166 
L 388.723003 568.718513 
L 390.454863 567.170184 
L 392.186723 565.395509 
L 393.918584 563.403942 
L 395.650444 561.207215 
L 397.382304 558.819493 
L 399.114165 556.257541 
L 400.846025 553.540895 
L 402.577885 550.692041 
L 404.309745 547.736598 
L 406.041606 544.703514 
L 407.773466 541.625266 
L 409.505326 538.538065 
L 411.237186 535.482072 
L 412.969047 532.501627 
L 414.700907 529.645471 
L 416.432767 526.966996 
L 418.164628 524.524486 
L 419.896488 522.381378 
L 421.628348 520.606528 
L 423.360208 519.274484 
" style="fill:none;stroke:#000000;stroke-linecap:square;stroke-width:1.5;"/>
   </g>
   <g id="patch_38">
    <path d="M 251.906042 614.659062 
L 251.906042 425.559062 
" style="fill:none;stroke:#000000;stroke-linecap:square;stroke-linejoin:miter;stroke-width:0.8;"/>
   </g>
   <g id="patch_39">
    <path d="M 423.360208 614.659062 
L 423.360208 425.559062 
" style="fill:none;stroke:#000000;stroke-linecap:square;stroke-linejoin:miter;stroke-width:0.8;"/>
   </g>
   <g id="patch_40">
    <path d="M 251.906042 614.659062 
L 423.360208 614.659062 
" style="fill:none;stroke:#000000;stroke-linecap:square;stroke-linejoin:miter;stroke-width:0.8;"/>
   </g>
   <g id="patch_41">
    <path d="M 251.906042 425.559062 
L 423.360208 425.559062 
" style="fill:none;stroke:#000000;stroke-linecap:square;stroke-linejoin:miter;stroke-width:0.8;"/>
   </g>
  </g>
  <g id="axes_9">
   <g id="patch_42">
    <path d="M 460.472708 614.659062 
L 631.926875 614.659062 
L 631.926875 425.559062 
L 460.472708 425.559062 
z
" style="fill:#ffffff;"/>
   </g>
   <g id="PathCollection_9">
    <g clip-path="url(#pd247b3157d)">
     <use style="fill:#ff0000;stroke:#ff0000;stroke-width:1.5;" x="566.248613" xlink:href="#m141b7a75b2" y="559.44282"/>
     <use style="fill:#ff0000;stroke:#ff0000;stroke-width:1.5;" x="496.543675" xlink:href="#m141b7a75b2" y="463.271682"/>
     <use style="fill:#ff0000;stroke:#ff0000;stroke-width:1.5;" x="475.41139" xlink:href="#m141b7a75b2" y="490.104382"/>
     <use style="fill:#ff0000;stroke:#ff0000;stroke-width:1.5;" x="463.694298" xlink:href="#m141b7a75b2" y="520.916478"/>
     <use style="fill:#ff0000;stroke:#ff0000;stroke-width:1.5;" x="619.170109" xlink:href="#m141b7a75b2" y="533.563642"/>
     <use style="fill:#ff0000;stroke:#ff0000;stroke-width:1.5;" x="463.939237" xlink:href="#m141b7a75b2" y="504.000483"/>
     <use style="fill:#ff0000;stroke:#ff0000;stroke-width:1.5;" x="514.554213" xlink:href="#m141b7a75b2" y="474.268767"/>
     <use style="fill:#ff0000;stroke:#ff0000;stroke-width:1.5;" x="470.798616" xlink:href="#m141b7a75b2" y="480.607735"/>
     <use style="fill:#ff0000;stroke:#ff0000;stroke-width:1.5;" x="625.696704" xlink:href="#m141b7a75b2" y="528.150023"/>
     <use style="fill:#ff0000;stroke:#ff0000;stroke-width:1.5;" x="533.110089" xlink:href="#m141b7a75b2" y="498.849459"/>
    </g>
   </g>
   <g id="matplotlib.axis_6">
    <g id="xtick_11">
     <g id="line2d_40">
      <g>
       <use style="stroke:#000000;stroke-width:0.8;" x="460.472708" xlink:href="#m850b2224bb" y="614.659062"/>
      </g>
     </g>
     <g id="text_32">
      <!-- 0.00 -->
      <g transform="translate(447.113333 630.777187)scale(0.12 -0.12)">
       <use xlink:href="#DejaVuSans-30"/>
       <use x="63.623047" xlink:href="#DejaVuSans-2e"/>
       <use x="95.410156" xlink:href="#DejaVuSans-30"/>
       <use x="159.033203" xlink:href="#DejaVuSans-30"/>
      </g>
     </g>
    </g>
    <g id="xtick_12">
     <g id="line2d_41">
      <g>
       <use style="stroke:#000000;stroke-width:0.8;" x="503.33625" xlink:href="#m850b2224bb" y="614.659062"/>
      </g>
     </g>
     <g id="text_33">
      <!-- 0.25 -->
      <g transform="translate(489.976875 630.777187)scale(0.12 -0.12)">
       <use xlink:href="#DejaVuSans-30"/>
       <use x="63.623047" xlink:href="#DejaVuSans-2e"/>
       <use x="95.410156" xlink:href="#DejaVuSans-32"/>
       <use x="159.033203" xlink:href="#DejaVuSans-35"/>
      </g>
     </g>
    </g>
    <g id="xtick_13">
     <g id="line2d_42">
      <g>
       <use style="stroke:#000000;stroke-width:0.8;" x="546.199792" xlink:href="#m850b2224bb" y="614.659062"/>
      </g>
     </g>
     <g id="text_34">
      <!-- 0.50 -->
      <g transform="translate(532.840417 630.777187)scale(0.12 -0.12)">
       <use xlink:href="#DejaVuSans-30"/>
       <use x="63.623047" xlink:href="#DejaVuSans-2e"/>
       <use x="95.410156" xlink:href="#DejaVuSans-35"/>
       <use x="159.033203" xlink:href="#DejaVuSans-30"/>
      </g>
     </g>
    </g>
    <g id="xtick_14">
     <g id="line2d_43">
      <g>
       <use style="stroke:#000000;stroke-width:0.8;" x="589.063333" xlink:href="#m850b2224bb" y="614.659062"/>
      </g>
     </g>
     <g id="text_35">
      <!-- 0.75 -->
      <g transform="translate(575.703958 630.777187)scale(0.12 -0.12)">
       <use xlink:href="#DejaVuSans-30"/>
       <use x="63.623047" xlink:href="#DejaVuSans-2e"/>
       <use x="95.410156" xlink:href="#DejaVuSans-37"/>
       <use x="159.033203" xlink:href="#DejaVuSans-35"/>
      </g>
     </g>
    </g>
    <g id="xtick_15">
     <g id="line2d_44">
      <g>
       <use style="stroke:#000000;stroke-width:0.8;" x="631.926875" xlink:href="#m850b2224bb" y="614.659062"/>
      </g>
     </g>
     <g id="text_36">
      <!-- 1.00 -->
      <g transform="translate(618.5675 630.777187)scale(0.12 -0.12)">
       <use xlink:href="#DejaVuSans-31"/>
       <use x="63.623047" xlink:href="#DejaVuSans-2e"/>
       <use x="95.410156" xlink:href="#DejaVuSans-30"/>
       <use x="159.033203" xlink:href="#DejaVuSans-30"/>
      </g>
     </g>
    </g>
   </g>
   <g id="line2d_45">
    <path clip-path="url(#pd247b3157d)" d="M 460.472708 516.919571 
L 462.204569 512.410217 
L 463.936429 508.106195 
L 465.668289 504.008466 
L 467.400149 500.1179 
L 469.13201 496.435273 
L 470.86387 492.961261 
L 472.59573 489.696431 
L 474.32759 486.641235 
L 476.059451 483.796004 
L 477.791311 481.160937 
L 479.523171 478.736099 
L 481.255032 476.521408 
L 482.986892 474.516626 
L 484.718752 472.721356 
L 486.450612 471.135028 
L 488.182473 469.756892 
L 489.914333 468.586006 
L 491.646193 467.62123 
L 493.378053 466.861216 
L 495.109914 466.304394 
L 496.841774 465.948965 
L 498.573634 465.792892 
L 500.305495 465.833885 
L 502.037355 466.069394 
L 503.769215 466.4966 
L 505.501075 467.112399 
L 507.232936 467.913397 
L 508.964796 468.895897 
L 510.696656 470.055889 
L 512.428516 471.389042 
L 514.160377 472.890692 
L 515.892237 474.555834 
L 517.624097 476.379114 
L 519.355957 478.354818 
L 521.087818 480.476869 
L 522.819678 482.738816 
L 524.551538 485.133827 
L 526.283399 487.65469 
L 528.015259 490.293802 
L 529.747119 493.04317 
L 531.478979 495.894406 
L 533.21084 498.83873 
L 534.9427 501.866967 
L 536.67456 504.969555 
L 538.40642 508.136542 
L 540.138281 511.357599 
L 541.870141 514.622026 
L 543.602001 517.91876 
L 545.333862 521.236392 
L 547.065722 524.563181 
L 548.797582 527.887073 
L 550.529442 531.195721 
L 552.261303 534.47651 
L 553.993163 537.716588 
L 555.725023 540.902894 
L 557.456883 544.022196 
L 559.188744 547.061128 
L 560.920604 550.006238 
L 562.652464 552.844033 
L 564.384324 555.561035 
L 566.116185 558.143839 
L 567.848045 560.579176 
L 569.579905 562.853984 
L 571.311766 564.955484 
L 573.043626 566.871261 
L 574.775486 568.589356 
L 576.507346 570.098358 
L 578.239207 571.387509 
L 579.971067 572.446816 
L 581.702927 573.267168 
L 583.434787 573.840465 
L 585.166648 574.159754 
L 586.898508 574.219374 
L 588.630368 574.015111 
L 590.362229 573.544365 
L 592.094089 572.806324 
L 593.825949 571.802151 
L 595.557809 570.53518 
L 597.28967 569.011132 
L 599.02153 567.238329 
L 600.75339 565.227936 
L 602.48525 562.994205 
L 604.217111 560.554738 
L 605.948971 557.930767 
L 607.680831 555.14744 
L 609.412691 552.23413 
L 611.144552 549.224762 
L 612.876412 546.158145 
L 614.608272 543.078335 
L 616.340133 540.035008 
L 618.071993 537.083851 
L 619.803853 534.286976 
L 621.535713 531.713353 
L 623.267574 529.439258 
L 624.999434 527.548752 
L 626.731294 526.134171 
L 628.463154 525.296646 
L 630.195015 525.146645 
L 631.926875 525.804535 
" style="fill:none;stroke:#000000;stroke-linecap:square;stroke-width:1.5;"/>
   </g>
   <g id="patch_43">
    <path d="M 460.472708 614.659062 
L 460.472708 425.559062 
" style="fill:none;stroke:#000000;stroke-linecap:square;stroke-linejoin:miter;stroke-width:0.8;"/>
   </g>
   <g id="patch_44">
    <path d="M 631.926875 614.659062 
L 631.926875 425.559062 
" style="fill:none;stroke:#000000;stroke-linecap:square;stroke-linejoin:miter;stroke-width:0.8;"/>
   </g>
   <g id="patch_45">
    <path d="M 460.472708 614.659062 
L 631.926875 614.659062 
" style="fill:none;stroke:#000000;stroke-linecap:square;stroke-linejoin:miter;stroke-width:0.8;"/>
   </g>
   <g id="patch_46">
    <path d="M 460.472708 425.559062 
L 631.926875 425.559062 
" style="fill:none;stroke:#000000;stroke-linecap:square;stroke-linejoin:miter;stroke-width:0.8;"/>
   </g>
  </g>
 </g>
 <defs>
  <clipPath id="p121571726f">
   <rect height="189.1" width="171.454167" x="43.339375" y="11.759062"/>
  </clipPath>
  <clipPath id="p157d758d0e">
   <rect height="189.1" width="171.454167" x="251.906042" y="11.759062"/>
  </clipPath>
  <clipPath id="p4a96e8c944">
   <rect height="189.1" width="171.454167" x="460.472708" y="11.759062"/>
  </clipPath>
  <clipPath id="p7efcd1340e">
   <rect height="189.1" width="171.454167" x="43.339375" y="218.659062"/>
  </clipPath>
  <clipPath id="pb093727bc3">
   <rect height="189.1" width="171.454167" x="251.906042" y="218.659062"/>
  </clipPath>
  <clipPath id="p6f1704f849">
   <rect height="189.1" width="171.454167" x="460.472708" y="218.659062"/>
  </clipPath>
  <clipPath id="p076a8b5edb">
   <rect height="189.1" width="171.454167" x="43.339375" y="425.559062"/>
  </clipPath>
  <clipPath id="p01a4e22d34">
   <rect height="189.1" width="171.454167" x="251.906042" y="425.559062"/>
  </clipPath>
  <clipPath id="pd247b3157d">
   <rect height="189.1" width="171.454167" x="460.472708" y="425.559062"/>
  </clipPath>
 </defs>
</svg>
