<?xml version="1.0" encoding="utf-8" standalone="no"?>
<!DOCTYPE svg PUBLIC "-//W3C//DTD SVG 1.1//EN"
  "http://www.w3.org/Graphics/SVG/1.1/DTD/svg11.dtd">
<!-- Created with matplotlib (http://matplotlib.org/) -->
<svg height="345pt" version="1.1" viewBox="0 0 460 345" width="460pt" xmlns="http://www.w3.org/2000/svg" xmlns:xlink="http://www.w3.org/1999/xlink">
 <defs>
  <style type="text/css">
*{stroke-linecap:butt;stroke-linejoin:round;}
  </style>
 </defs>
 <g id="figure_1">
  <g id="patch_1">
   <path d="M 0 345.6 
L 460.8 345.6 
L 460.8 0 
L 0 0 
z
" style="fill:#ffffff;"/>
  </g>
  <g id="axes_1">
   <g id="patch_2">
    <path d="M 80.58 332.28 
L 380.22 332.28 
L 380.22 32.64 
L 80.58 32.64 
z
" style="fill:#ffffff;"/>
   </g>
   <g id="PathCollection_1">
    <defs>
     <path d="M -3 3 
L 3 -3 
M -3 -3 
L 3 3 
" id="m45711cc25b" style="stroke:#ff0000;stroke-width:1.5;"/>
    </defs>
    <g clip-path="url(#p6e0d146480)">
     <use style="fill:#ff0000;stroke:#ff0000;stroke-width:1.5;" x="96.921335" xlink:href="#m45711cc25b" y="312.941088"/>
     <use style="fill:#ff0000;stroke:#ff0000;stroke-width:1.5;" x="148.781176" xlink:href="#m45711cc25b" y="247.292293"/>
     <use style="fill:#ff0000;stroke:#ff0000;stroke-width:1.5;" x="94.336608" xlink:href="#m45711cc25b" y="325.84418"/>
     <use style="fill:#ff0000;stroke:#ff0000;stroke-width:1.5;" x="159.884805" xlink:href="#m45711cc25b" y="254.109012"/>
     <use style="fill:#ff0000;stroke:#ff0000;stroke-width:1.5;" x="236.584556" xlink:href="#m45711cc25b" y="173.19965"/>
     <use style="fill:#ff0000;stroke:#ff0000;stroke-width:1.5;" x="214.176211" xlink:href="#m45711cc25b" y="187.789826"/>
     <use style="fill:#ff0000;stroke:#ff0000;stroke-width:1.5;" x="173.006236" xlink:href="#m45711cc25b" y="238.942296"/>
     <use style="fill:#ff0000;stroke:#ff0000;stroke-width:1.5;" x="195.942016" xlink:href="#m45711cc25b" y="214.418429"/>
     <use style="fill:#ff0000;stroke:#ff0000;stroke-width:1.5;" x="119.386946" xlink:href="#m45711cc25b" y="295.009894"/>
     <use style="fill:#ff0000;stroke:#ff0000;stroke-width:1.5;" x="210.176447" xlink:href="#m45711cc25b" y="209.081584"/>
     <use style="fill:#ff0000;stroke:#ff0000;stroke-width:1.5;" x="409.476606" xlink:href="#m45711cc25b" y="-1"/>
     <use style="fill:#ff0000;stroke:#ff0000;stroke-width:1.5;" x="409.364227" xlink:href="#m45711cc25b" y="-1"/>
     <use style="fill:#ff0000;stroke:#ff0000;stroke-width:1.5;" x="168.505858" xlink:href="#m45711cc25b" y="249.9137"/>
     <use style="fill:#ff0000;stroke:#ff0000;stroke-width:1.5;" x="66.032675" xlink:href="#m45711cc25b" y="357.721978"/>
     <use style="fill:#ff0000;stroke:#ff0000;stroke-width:1.5;" x="227.677614" xlink:href="#m45711cc25b" y="186.58458"/>
     <use style="fill:#ff0000;stroke:#ff0000;stroke-width:1.5;" x="110.219641" xlink:href="#m45711cc25b" y="291.633392"/>
     <use style="fill:#ff0000;stroke:#ff0000;stroke-width:1.5;" x="217.390999" xlink:href="#m45711cc25b" y="192.636186"/>
     <use style="fill:#ff0000;stroke:#ff0000;stroke-width:1.5;" x="304.239921" xlink:href="#m45711cc25b" y="123.458225"/>
     <use style="fill:#ff0000;stroke:#ff0000;stroke-width:1.5;" x="255.843896" xlink:href="#m45711cc25b" y="155.844894"/>
     <use style="fill:#ff0000;stroke:#ff0000;stroke-width:1.5;" x="133.850685" xlink:href="#m45711cc25b" y="270.002288"/>
     <use style="fill:#ff0000;stroke:#ff0000;stroke-width:1.5;" x="260.510636" xlink:href="#m45711cc25b" y="154.613914"/>
     <use style="fill:#ff0000;stroke:#ff0000;stroke-width:1.5;" x="314.167534" xlink:href="#m45711cc25b" y="109.32982"/>
     <use style="fill:#ff0000;stroke:#ff0000;stroke-width:1.5;" x="350.7502" xlink:href="#m45711cc25b" y="47.496542"/>
     <use style="fill:#ff0000;stroke:#ff0000;stroke-width:1.5;" x="270.1711" xlink:href="#m45711cc25b" y="145.970515"/>
     <use style="fill:#ff0000;stroke:#ff0000;stroke-width:1.5;" x="321.217428" xlink:href="#m45711cc25b" y="85.818391"/>
     <use style="fill:#ff0000;stroke:#ff0000;stroke-width:1.5;" x="351.942691" xlink:href="#m45711cc25b" y="62.510947"/>
     <use style="fill:#ff0000;stroke:#ff0000;stroke-width:1.5;" x="295.946355" xlink:href="#m45711cc25b" y="114.015358"/>
     <use style="fill:#ff0000;stroke:#ff0000;stroke-width:1.5;" x="273.03861" xlink:href="#m45711cc25b" y="148.665505"/>
     <use style="fill:#ff0000;stroke:#ff0000;stroke-width:1.5;" x="230.904173" xlink:href="#m45711cc25b" y="178.747193"/>
     <use style="fill:#ff0000;stroke:#ff0000;stroke-width:1.5;" x="224.290519" xlink:href="#m45711cc25b" y="186.303664"/>
     <use style="fill:#ff0000;stroke:#ff0000;stroke-width:1.5;" x="279.216282" xlink:href="#m45711cc25b" y="136.361013"/>
     <use style="fill:#ff0000;stroke:#ff0000;stroke-width:1.5;" x="282.057712" xlink:href="#m45711cc25b" y="133.495701"/>
     <use style="fill:#ff0000;stroke:#ff0000;stroke-width:1.5;" x="297.702391" xlink:href="#m45711cc25b" y="128.089192"/>
     <use style="fill:#ff0000;stroke:#ff0000;stroke-width:1.5;" x="218.630502" xlink:href="#m45711cc25b" y="197.239239"/>
     <use style="fill:#ff0000;stroke:#ff0000;stroke-width:1.5;" x="350.632064" xlink:href="#m45711cc25b" y="58.761234"/>
     <use style="fill:#ff0000;stroke:#ff0000;stroke-width:1.5;" x="298.086149" xlink:href="#m45711cc25b" y="114.384728"/>
     <use style="fill:#ff0000;stroke:#ff0000;stroke-width:1.5;" x="175.369033" xlink:href="#m45711cc25b" y="236.524756"/>
     <use style="fill:#ff0000;stroke:#ff0000;stroke-width:1.5;" x="149.779292" xlink:href="#m45711cc25b" y="272.330788"/>
     <use style="fill:#ff0000;stroke:#ff0000;stroke-width:1.5;" x="202.863242" xlink:href="#m45711cc25b" y="215.126671"/>
     <use style="fill:#ff0000;stroke:#ff0000;stroke-width:1.5;" x="297.717906" xlink:href="#m45711cc25b" y="119.478257"/>
     <use style="fill:#ff0000;stroke:#ff0000;stroke-width:1.5;" x="253.498842" xlink:href="#m45711cc25b" y="158.940424"/>
     <use style="fill:#ff0000;stroke:#ff0000;stroke-width:1.5;" x="314.198159" xlink:href="#m45711cc25b" y="91.91375"/>
     <use style="fill:#ff0000;stroke:#ff0000;stroke-width:1.5;" x="201.314858" xlink:href="#m45711cc25b" y="223.053143"/>
     <use style="fill:#ff0000;stroke:#ff0000;stroke-width:1.5;" x="111.953419" xlink:href="#m45711cc25b" y="286.704476"/>
     <use style="fill:#ff0000;stroke:#ff0000;stroke-width:1.5;" x="142.881978" xlink:href="#m45711cc25b" y="271.325839"/>
     <use style="fill:#ff0000;stroke:#ff0000;stroke-width:1.5;" x="306.560305" xlink:href="#m45711cc25b" y="98.400798"/>
     <use style="fill:#ff0000;stroke:#ff0000;stroke-width:1.5;" x="255.985541" xlink:href="#m45711cc25b" y="147.717123"/>
     <use style="fill:#ff0000;stroke:#ff0000;stroke-width:1.5;" x="211.159634" xlink:href="#m45711cc25b" y="194.384363"/>
     <use style="fill:#ff0000;stroke:#ff0000;stroke-width:1.5;" x="201.091514" xlink:href="#m45711cc25b" y="206.475547"/>
     <use style="fill:#ff0000;stroke:#ff0000;stroke-width:1.5;" x="222.925449" xlink:href="#m45711cc25b" y="176.556595"/>
     <use style="fill:#ff0000;stroke:#ff0000;stroke-width:1.5;" x="219.399255" xlink:href="#m45711cc25b" y="190.449443"/>
     <use style="fill:#ff0000;stroke:#ff0000;stroke-width:1.5;" x="94.557657" xlink:href="#m45711cc25b" y="328.398406"/>
     <use style="fill:#ff0000;stroke:#ff0000;stroke-width:1.5;" x="321.822116" xlink:href="#m45711cc25b" y="83.776133"/>
     <use style="fill:#ff0000;stroke:#ff0000;stroke-width:1.5;" x="310.888924" xlink:href="#m45711cc25b" y="87.41141"/>
     <use style="fill:#ff0000;stroke:#ff0000;stroke-width:1.5;" x="264.145035" xlink:href="#m45711cc25b" y="154.314149"/>
     <use style="fill:#ff0000;stroke:#ff0000;stroke-width:1.5;" x="80.987317" xlink:href="#m45711cc25b" y="320.782147"/>
     <use style="fill:#ff0000;stroke:#ff0000;stroke-width:1.5;" x="87.282551" xlink:href="#m45711cc25b" y="318.790268"/>
     <use style="fill:#ff0000;stroke:#ff0000;stroke-width:1.5;" x="287.679574" xlink:href="#m45711cc25b" y="110.872129"/>
     <use style="fill:#ff0000;stroke:#ff0000;stroke-width:1.5;" x="247.445421" xlink:href="#m45711cc25b" y="159.403378"/>
     <use style="fill:#ff0000;stroke:#ff0000;stroke-width:1.5;" x="160.110699" xlink:href="#m45711cc25b" y="253.910481"/>
     <use style="fill:#ff0000;stroke:#ff0000;stroke-width:1.5;" x="181.002726" xlink:href="#m45711cc25b" y="224.949024"/>
     <use style="fill:#ff0000;stroke:#ff0000;stroke-width:1.5;" x="206.355039" xlink:href="#m45711cc25b" y="214.740573"/>
     <use style="fill:#ff0000;stroke:#ff0000;stroke-width:1.5;" x="203.118944" xlink:href="#m45711cc25b" y="199.8051"/>
     <use style="fill:#ff0000;stroke:#ff0000;stroke-width:1.5;" x="282.925456" xlink:href="#m45711cc25b" y="131.055456"/>
     <use style="fill:#ff0000;stroke:#ff0000;stroke-width:1.5;" x="256.030163" xlink:href="#m45711cc25b" y="142.977002"/>
     <use style="fill:#ff0000;stroke:#ff0000;stroke-width:1.5;" x="178.575243" xlink:href="#m45711cc25b" y="231.232461"/>
     <use style="fill:#ff0000;stroke:#ff0000;stroke-width:1.5;" x="285.982517" xlink:href="#m45711cc25b" y="122.837967"/>
     <use style="fill:#ff0000;stroke:#ff0000;stroke-width:1.5;" x="280.731856" xlink:href="#m45711cc25b" y="131.889701"/>
     <use style="fill:#ff0000;stroke:#ff0000;stroke-width:1.5;" x="275.438073" xlink:href="#m45711cc25b" y="132.354766"/>
     <use style="fill:#ff0000;stroke:#ff0000;stroke-width:1.5;" x="188.041789" xlink:href="#m45711cc25b" y="226.378577"/>
     <use style="fill:#ff0000;stroke:#ff0000;stroke-width:1.5;" x="204.866303" xlink:href="#m45711cc25b" y="216.18182"/>
     <use style="fill:#ff0000;stroke:#ff0000;stroke-width:1.5;" x="340.32464" xlink:href="#m45711cc25b" y="69.243877"/>
     <use style="fill:#ff0000;stroke:#ff0000;stroke-width:1.5;" x="215.551595" xlink:href="#m45711cc25b" y="192.551385"/>
     <use style="fill:#ff0000;stroke:#ff0000;stroke-width:1.5;" x="48.564368" xlink:href="#m45711cc25b" y="357.220536"/>
     <use style="fill:#ff0000;stroke:#ff0000;stroke-width:1.5;" x="294.510201" xlink:href="#m45711cc25b" y="109.98223"/>
     <use style="fill:#ff0000;stroke:#ff0000;stroke-width:1.5;" x="330.580194" xlink:href="#m45711cc25b" y="85.737536"/>
     <use style="fill:#ff0000;stroke:#ff0000;stroke-width:1.5;" x="229.08826" xlink:href="#m45711cc25b" y="170.93709"/>
     <use style="fill:#ff0000;stroke:#ff0000;stroke-width:1.5;" x="289.215229" xlink:href="#m45711cc25b" y="129.835622"/>
     <use style="fill:#ff0000;stroke:#ff0000;stroke-width:1.5;" x="240.250912" xlink:href="#m45711cc25b" y="177.579204"/>
     <use style="fill:#ff0000;stroke:#ff0000;stroke-width:1.5;" x="150.154148" xlink:href="#m45711cc25b" y="270.795619"/>
     <use style="fill:#ff0000;stroke:#ff0000;stroke-width:1.5;" x="317.889218" xlink:href="#m45711cc25b" y="98.250492"/>
     <use style="fill:#ff0000;stroke:#ff0000;stroke-width:1.5;" x="260.433885" xlink:href="#m45711cc25b" y="137.971991"/>
     <use style="fill:#ff0000;stroke:#ff0000;stroke-width:1.5;" x="159.039921" xlink:href="#m45711cc25b" y="253.164232"/>
     <use style="fill:#ff0000;stroke:#ff0000;stroke-width:1.5;" x="318.919995" xlink:href="#m45711cc25b" y="87.614882"/>
     <use style="fill:#ff0000;stroke:#ff0000;stroke-width:1.5;" x="311.018356" xlink:href="#m45711cc25b" y="113.413525"/>
     <use style="fill:#ff0000;stroke:#ff0000;stroke-width:1.5;" x="140.328893" xlink:href="#m45711cc25b" y="270.156889"/>
     <use style="fill:#ff0000;stroke:#ff0000;stroke-width:1.5;" x="160.310952" xlink:href="#m45711cc25b" y="250.161459"/>
     <use style="fill:#ff0000;stroke:#ff0000;stroke-width:1.5;" x="168.733517" xlink:href="#m45711cc25b" y="249.003316"/>
     <use style="fill:#ff0000;stroke:#ff0000;stroke-width:1.5;" x="305.225314" xlink:href="#m45711cc25b" y="102.528861"/>
     <use style="fill:#ff0000;stroke:#ff0000;stroke-width:1.5;" x="293.09085" xlink:href="#m45711cc25b" y="124.934567"/>
     <use style="fill:#ff0000;stroke:#ff0000;stroke-width:1.5;" x="264.41579" xlink:href="#m45711cc25b" y="148.313274"/>
     <use style="fill:#ff0000;stroke:#ff0000;stroke-width:1.5;" x="262.034396" xlink:href="#m45711cc25b" y="161.125364"/>
     <use style="fill:#ff0000;stroke:#ff0000;stroke-width:1.5;" x="286.880907" xlink:href="#m45711cc25b" y="142.634606"/>
     <use style="fill:#ff0000;stroke:#ff0000;stroke-width:1.5;" x="189.623001" xlink:href="#m45711cc25b" y="235.238013"/>
     <use style="fill:#ff0000;stroke:#ff0000;stroke-width:1.5;" x="312.830495" xlink:href="#m45711cc25b" y="99.638736"/>
     <use style="fill:#ff0000;stroke:#ff0000;stroke-width:1.5;" x="279.952009" xlink:href="#m45711cc25b" y="121.349269"/>
     <use style="fill:#ff0000;stroke:#ff0000;stroke-width:1.5;" x="326.126536" xlink:href="#m45711cc25b" y="84.732986"/>
     <use style="fill:#ff0000;stroke:#ff0000;stroke-width:1.5;" x="237.714089" xlink:href="#m45711cc25b" y="183.896099"/>
     <use style="fill:#ff0000;stroke:#ff0000;stroke-width:1.5;" x="191.892901" xlink:href="#m45711cc25b" y="222.252152"/>
     <use style="fill:#ff0000;stroke:#ff0000;stroke-width:1.5;" x="169.573049" xlink:href="#m45711cc25b" y="237.118082"/>
     <use style="fill:#ff0000;stroke:#ff0000;stroke-width:1.5;" x="63.548716" xlink:href="#m45711cc25b" y="339.299353"/>
    </g>
   </g>
   <g id="patch_3">
    <path clip-path="url(#p6e0d146480)" d="M 298.500608 114.359392 
L 290.555203 130.250203 
L 287.906734 127.601734 
L 231.724234 183.784234 
L 229.075766 181.135766 
L 285.258266 124.953266 
L 282.609797 122.304797 
z
" style="stroke:#000000;stroke-linejoin:miter;"/>
   </g>
   <g id="patch_4">
    <path d="M 80.58 332.28 
L 80.58 32.64 
" style="fill:none;stroke:#000000;stroke-linecap:square;stroke-linejoin:miter;stroke-width:0.8;"/>
   </g>
   <g id="patch_5">
    <path d="M 380.22 332.28 
L 380.22 32.64 
" style="fill:none;stroke:#000000;stroke-linecap:square;stroke-linejoin:miter;stroke-width:0.8;"/>
   </g>
   <g id="patch_6">
    <path d="M 80.58 332.28 
L 380.22 332.28 
" style="fill:none;stroke:#000000;stroke-linecap:square;stroke-linejoin:miter;stroke-width:0.8;"/>
   </g>
   <g id="patch_7">
    <path d="M 80.58 32.64 
L 380.22 32.64 
" style="fill:none;stroke:#000000;stroke-linecap:square;stroke-linejoin:miter;stroke-width:0.8;"/>
   </g>
   <g id="text_1">
    <!-- Highly correlated $2$D data -->
    <defs>
     <path d="M 76.515625 0 
L 47.75 0 
L 47.75 3.46875 
Q 48.921875 3.5625 51.140625 3.75 
Q 53.375 3.953125 54.203125 4.34375 
Q 55.671875 4.9375 56.34375 6.125 
Q 57.03125 7.328125 57.03125 9.234375 
L 57.03125 33.890625 
L 24.46875 33.890625 
L 24.46875 9.765625 
Q 24.46875 8.0625 25.03125 6.890625 
Q 25.59375 5.71875 27.25 4.828125 
Q 28.078125 4.390625 30.203125 3.953125 
Q 32.328125 3.515625 33.546875 3.46875 
L 33.546875 0 
L 4.78125 0 
L 4.78125 3.46875 
Q 5.953125 3.5625 8.171875 3.75 
Q 10.40625 3.953125 11.234375 4.34375 
Q 12.703125 4.9375 13.375 6.125 
Q 14.0625 7.328125 14.0625 9.234375 
L 14.0625 59.234375 
Q 14.0625 60.796875 13.421875 62.078125 
Q 12.796875 63.375 11.234375 64.109375 
Q 9.90625 64.75 8.03125 65.234375 
Q 6.15625 65.71875 4.78125 65.828125 
L 4.78125 69.28125 
L 33.546875 69.28125 
L 33.546875 65.828125 
Q 32.171875 65.765625 30.1875 65.375 
Q 28.21875 64.984375 27.25 64.65625 
Q 25.59375 64.0625 25.03125 62.6875 
Q 24.46875 61.328125 24.46875 59.71875 
L 24.46875 38.234375 
L 57.03125 38.234375 
L 57.03125 59.234375 
Q 57.03125 60.796875 56.390625 62.078125 
Q 55.765625 63.375 54.203125 64.109375 
Q 52.875 64.75 51 65.234375 
Q 49.125 65.71875 47.75 65.828125 
L 47.75 69.28125 
L 76.515625 69.28125 
L 76.515625 65.828125 
Q 75.140625 65.765625 73.15625 65.375 
Q 71.1875 64.984375 70.21875 64.65625 
Q 68.5625 64.0625 68 62.6875 
Q 67.4375 61.328125 67.4375 59.71875 
L 67.4375 9.765625 
Q 67.4375 8.0625 68 6.890625 
Q 68.5625 5.71875 70.21875 4.828125 
Q 71.046875 4.390625 73.171875 3.953125 
Q 75.296875 3.515625 76.515625 3.46875 
z
" id="Georgia-48"/>
     <path d="M 26.90625 0 
L 3.609375 0 
L 3.609375 3.21875 
Q 4.734375 3.328125 5.921875 3.421875 
Q 7.125 3.515625 8.015625 3.8125 
Q 9.375 4.25 10.03125 5.34375 
Q 10.6875 6.453125 10.6875 8.203125 
L 10.6875 37.9375 
Q 10.6875 39.5 9.984375 40.796875 
Q 9.28125 42.09375 8.015625 42.96875 
Q 7.078125 43.5625 5.3125 43.96875 
Q 3.5625 44.390625 2.09375 44.484375 
L 2.09375 47.65625 
L 19.09375 48.734375 
L 19.78125 48.046875 
L 19.78125 8.796875 
Q 19.78125 7.078125 20.4375 5.953125 
Q 21.09375 4.828125 22.515625 4.296875 
Q 23.578125 3.859375 24.609375 3.59375 
Q 25.640625 3.328125 26.90625 3.21875 
z
M 20.75 67.71875 
Q 20.75 64.9375 18.921875 62.859375 
Q 17.09375 60.796875 14.40625 60.796875 
Q 11.921875 60.796875 10.078125 62.765625 
Q 8.25 64.75 8.25 67.28125 
Q 8.25 69.96875 10.078125 71.96875 
Q 11.921875 73.96875 14.40625 73.96875 
Q 17.1875 73.96875 18.96875 72.09375 
Q 20.75 70.21875 20.75 67.71875 
z
" id="Georgia-69"/>
     <path d="M 44.78125 4.984375 
Q 46.734375 3.125 47.84375 0.78125 
Q 48.96875 -1.5625 48.96875 -5.03125 
Q 48.96875 -8.5 47.453125 -11.546875 
Q 45.953125 -14.59375 42.875 -16.84375 
Q 39.59375 -19.140625 35.046875 -20.40625 
Q 30.515625 -21.6875 23.828125 -21.6875 
Q 12.890625 -21.6875 7.46875 -18.484375 
Q 2.046875 -15.28125 2.046875 -9.125 
Q 2.046875 -4.15625 5.953125 -1.265625 
Q 9.859375 1.609375 15.921875 1.859375 
L 15.921875 2.546875 
Q 14.453125 2.984375 12.890625 3.640625 
Q 11.328125 4.296875 10.203125 5.171875 
Q 8.9375 6.203125 8.15625 7.59375 
Q 7.375 8.984375 7.375 11.03125 
Q 7.375 13.625 9.203125 15.796875 
Q 11.03125 17.96875 14.75 19.53125 
L 14.75 20.265625 
Q 10.0625 22.46875 7.46875 25.90625 
Q 4.890625 29.34375 4.890625 33.890625 
Q 4.890625 40.71875 9.984375 45.109375 
Q 15.09375 49.515625 23.046875 49.515625 
Q 25.25 49.515625 27.421875 49.078125 
Q 29.59375 48.640625 31.84375 47.953125 
L 48.640625 47.953125 
L 48.640625 43.265625 
L 37.3125 43.265625 
L 37.3125 42.96875 
Q 39.109375 40.875 39.984375 38.328125 
Q 40.875 35.796875 40.875 33.34375 
Q 40.875 27 35.71875 22.609375 
Q 30.5625 18.21875 23.734375 18.21875 
L 17.828125 18.21875 
Q 16.703125 17.828125 15.484375 16.796875 
Q 14.265625 15.765625 14.265625 14.015625 
Q 14.265625 12.203125 15.28125 11.25 
Q 16.3125 10.296875 17.78125 9.96875 
Q 19.1875 9.578125 21.0625 9.46875 
Q 22.953125 9.375 24.953125 9.328125 
Q 27.09375 9.28125 30.828125 9.03125 
Q 34.578125 8.796875 36.140625 8.734375 
Q 38.375 8.640625 40.640625 7.65625 
Q 42.921875 6.6875 44.78125 4.984375 
z
M 31.59375 33.546875 
Q 31.59375 39.265625 29.265625 42.65625 
Q 26.953125 46.046875 22.75 46.046875 
Q 20.453125 46.046875 18.8125 45.09375 
Q 17.1875 44.140625 16.15625 42.390625 
Q 15.1875 40.765625 14.765625 38.5 
Q 14.359375 36.234375 14.359375 33.84375 
Q 14.359375 28.421875 16.71875 25 
Q 19.09375 21.578125 22.859375 21.578125 
Q 27.046875 21.578125 29.3125 24.96875 
Q 31.59375 28.375 31.59375 33.546875 
z
M 40.96875 -6.84375 
Q 40.96875 -4.109375 39.6875 -2.34375 
Q 38.421875 -0.59375 35.84375 0.046875 
Q 34.46875 0.25 30.21875 0.484375 
Q 25.984375 0.734375 20.359375 0.734375 
Q 15.09375 -0.296875 12.859375 -2.703125 
Q 10.640625 -5.125 10.640625 -8.9375 
Q 10.640625 -10.640625 11.375 -12.203125 
Q 12.109375 -13.765625 13.921875 -15.09375 
Q 15.625 -16.359375 18.5 -17.15625 
Q 21.390625 -17.96875 25.53125 -17.96875 
Q 32.71875 -17.96875 36.84375 -15.203125 
Q 40.96875 -12.453125 40.96875 -6.84375 
z
" id="Georgia-67"/>
     <path d="M 55.8125 0 
L 32.171875 0 
L 32.171875 3.21875 
Q 33.296875 3.328125 34.65625 3.421875 
Q 36.03125 3.515625 36.921875 3.8125 
Q 38.28125 4.25 38.9375 5.34375 
Q 39.59375 6.453125 39.59375 8.203125 
L 39.59375 32.953125 
Q 39.59375 38.09375 37.171875 40.875 
Q 34.765625 43.65625 31.296875 43.65625 
Q 28.765625 43.65625 26.59375 42.84375 
Q 24.421875 42.046875 22.703125 40.875 
Q 21.046875 39.65625 20.15625 38.421875 
Q 19.28125 37.203125 18.796875 36.375 
L 18.796875 8.6875 
Q 18.796875 7.03125 19.453125 5.953125 
Q 20.125 4.890625 21.484375 4.296875 
Q 22.5625 3.8125 23.703125 3.5625 
Q 24.859375 3.328125 26.21875 3.21875 
L 26.21875 0 
L 2.59375 0 
L 2.59375 3.21875 
Q 3.71875 3.328125 4.9375 3.4375 
Q 6.15625 3.5625 6.984375 3.8125 
Q 8.34375 4.25 9.03125 5.34375 
Q 9.71875 6.453125 9.71875 8.203125 
L 9.71875 64.265625 
Q 9.71875 65.921875 8.953125 67.578125 
Q 8.203125 69.234375 6.984375 70.0625 
Q 6.109375 70.703125 3.875 70.96875 
Q 1.65625 71.234375 0.296875 71.34375 
L 0.296875 74.46875 
L 18.109375 75.59375 
L 18.796875 74.859375 
L 18.796875 41.265625 
L 19 41.265625 
Q 20.609375 42.875 21.921875 44.109375 
Q 23.25 45.359375 25.390625 46.734375 
Q 27.25 47.90625 29.765625 48.6875 
Q 32.28125 49.46875 35.40625 49.46875 
Q 41.84375 49.46875 45.3125 45.390625 
Q 48.78125 41.3125 48.78125 33.640625 
L 48.78125 8.59375 
Q 48.78125 6.890625 49.390625 5.828125 
Q 50 4.78125 51.421875 4.203125 
Q 52.546875 3.765625 53.4375 3.546875 
Q 54.34375 3.328125 55.8125 3.21875 
z
" id="Georgia-68"/>
     <path d="M 26.078125 0 
L 2.59375 0 
L 2.59375 3.21875 
Q 3.71875 3.328125 4.984375 3.4375 
Q 6.25 3.5625 7.078125 3.8125 
Q 8.453125 4.25 9.125 5.34375 
Q 9.8125 6.453125 9.8125 8.203125 
L 9.8125 63.96875 
Q 9.8125 65.71875 9.046875 67.25 
Q 8.296875 68.796875 7.078125 69.671875 
Q 6.203125 70.265625 3.859375 70.75 
Q 1.515625 71.234375 0.09375 71.34375 
L 0.09375 74.46875 
L 18.21875 75.59375 
L 18.890625 74.859375 
L 18.890625 8.796875 
Q 18.890625 7.078125 19.53125 5.984375 
Q 20.171875 4.890625 21.578125 4.296875 
Q 22.65625 3.8125 23.703125 3.5625 
Q 24.75 3.328125 26.078125 3.21875 
z
" id="Georgia-6c"/>
     <path d="M -0.140625 -15.71875 
Q -0.140625 -13.28125 1.203125 -11.734375 
Q 2.546875 -10.203125 4.546875 -10.203125 
Q 6.109375 -10.203125 7.21875 -10.78125 
Q 8.34375 -11.375 9.234375 -12.3125 
Q 9.96875 -13.03125 10.796875 -14.296875 
Q 11.625 -15.578125 12.109375 -16.40625 
Q 14.546875 -15.09375 17.9375 -9.515625 
Q 21.34375 -3.953125 22.859375 0.25 
Q 18.21875 11.8125 14.453125 20.9375 
Q 10.6875 30.078125 6.59375 39.84375 
Q 5.671875 42.09375 3.46875 43.328125 
Q 1.265625 44.578125 -0.921875 44.921875 
L -0.921875 48.140625 
L 21.046875 48.140625 
L 21.046875 44.734375 
Q 19.578125 44.671875 17.53125 44.109375 
Q 15.484375 43.5625 15.484375 42.828125 
Q 15.484375 42.53125 15.703125 41.84375 
Q 15.921875 41.15625 16.21875 40.4375 
Q 18.0625 35.59375 21.875 26.484375 
Q 25.6875 17.390625 27.78125 11.921875 
Q 29.984375 17.140625 32.34375 22.734375 
Q 34.71875 28.328125 37.640625 35.9375 
Q 37.984375 36.859375 38.625 38.5 
Q 39.265625 40.140625 39.265625 41.3125 
Q 39.265625 42.578125 37.03125 43.671875 
Q 34.8125 44.78125 32.8125 45.015625 
L 32.8125 48.140625 
L 50.6875 48.140625 
L 50.6875 45.125 
Q 49.21875 44.875 46.828125 43.4375 
Q 44.4375 42 43.265625 39.359375 
Q 37.453125 25.875 32.9375 14.796875 
Q 28.421875 3.71875 26.078125 -1.515625 
Q 23 -8.34375 20.578125 -12.171875 
Q 18.171875 -16.015625 15.875 -18.21875 
Q 13.625 -20.265625 11.796875 -20.96875 
Q 9.96875 -21.6875 8.015625 -21.6875 
Q 4.203125 -21.6875 2.03125 -19.875 
Q -0.140625 -18.0625 -0.140625 -15.71875 
z
" id="Georgia-79"/>
     <path id="Georgia-20"/>
     <path d="M 25.78125 -1.265625 
Q 15.328125 -1.265625 9.421875 5.65625 
Q 3.515625 12.59375 3.515625 24.265625 
Q 3.515625 29.34375 5.09375 33.765625 
Q 6.6875 38.1875 9.71875 41.796875 
Q 12.59375 45.265625 16.9375 47.390625 
Q 21.296875 49.515625 26.421875 49.515625 
Q 33.5 49.515625 37.9375 46.109375 
Q 42.390625 42.71875 42.390625 36.859375 
Q 42.390625 34.421875 41.21875 32.546875 
Q 40.046875 30.671875 37.359375 30.671875 
Q 34.46875 30.671875 32.875 32.125 
Q 31.296875 33.59375 31.296875 35.40625 
Q 31.296875 37.59375 31.875 39.90625 
Q 32.46875 42.234375 32.5625 43.3125 
Q 31.6875 44.828125 29.953125 45.328125 
Q 28.21875 45.84375 26.21875 45.84375 
Q 23.875 45.84375 21.75 44.84375 
Q 19.625 43.84375 17.625 41.15625 
Q 15.828125 38.71875 14.703125 34.5625 
Q 13.578125 30.421875 13.578125 24.65625 
Q 13.578125 15.578125 17.59375 9.84375 
Q 21.625 4.109375 28.171875 4.109375 
Q 32.90625 4.109375 36.109375 6.390625 
Q 39.3125 8.6875 42.046875 13.28125 
L 45.171875 11.234375 
Q 41.9375 5.46875 36.65625 2.09375 
Q 31.390625 -1.265625 25.78125 -1.265625 
z
" id="Georgia-63"/>
     <path d="M 50.4375 24.5625 
Q 50.4375 19.484375 48.828125 14.578125 
Q 47.21875 9.671875 44.234375 6.25 
Q 40.875 2.34375 36.421875 0.4375 
Q 31.984375 -1.46875 26.46875 -1.46875 
Q 21.875 -1.46875 17.71875 0.265625 
Q 13.578125 2 10.359375 5.328125 
Q 7.171875 8.59375 5.296875 13.296875 
Q 3.421875 18.015625 3.421875 23.875 
Q 3.421875 35.15625 9.984375 42.328125 
Q 16.546875 49.515625 27.203125 49.515625 
Q 37.3125 49.515625 43.875 42.703125 
Q 50.4375 35.890625 50.4375 24.5625 
z
M 40.328125 24.46875 
Q 40.328125 28.125 39.59375 32.203125 
Q 38.875 36.28125 37.40625 39.109375 
Q 35.84375 42.140625 33.296875 43.96875 
Q 30.765625 45.796875 27.09375 45.796875 
Q 23.34375 45.796875 20.671875 43.9375 
Q 18.015625 42.09375 16.359375 38.875 
Q 14.796875 35.890625 14.15625 32.078125 
Q 13.53125 28.265625 13.53125 24.703125 
Q 13.53125 20.015625 14.28125 16.03125 
Q 15.046875 12.0625 16.703125 8.9375 
Q 18.359375 5.8125 20.875 4.03125 
Q 23.390625 2.25 27.09375 2.25 
Q 33.203125 2.25 36.765625 8.15625 
Q 40.328125 14.0625 40.328125 24.46875 
z
" id="Georgia-6f"/>
     <path d="M 40.375 41.9375 
Q 40.375 39.453125 39.15625 37.515625 
Q 37.9375 35.59375 35.40625 35.59375 
Q 32.671875 35.59375 31.21875 37 
Q 29.78125 38.421875 29.78125 40.140625 
Q 29.78125 41.21875 29.953125 42.09375 
Q 30.125 42.96875 30.28125 43.84375 
Q 27.984375 43.84375 24.90625 41.984375 
Q 21.828125 40.140625 19.671875 36.71875 
L 19.671875 8.6875 
Q 19.671875 6.984375 20.328125 5.90625 
Q 21 4.828125 22.40625 4.296875 
Q 23.640625 3.8125 25.5625 3.5625 
Q 27.484375 3.328125 28.90625 3.21875 
L 28.90625 0 
L 3.515625 0 
L 3.515625 3.21875 
Q 4.640625 3.328125 5.828125 3.421875 
Q 7.03125 3.515625 7.90625 3.8125 
Q 9.28125 4.25 9.9375 5.34375 
Q 10.59375 6.453125 10.59375 8.203125 
L 10.59375 37.9375 
Q 10.59375 39.453125 9.890625 40.921875 
Q 9.1875 42.390625 7.90625 43.265625 
Q 6.984375 43.84375 5.703125 44.109375 
Q 4.4375 44.390625 2.984375 44.484375 
L 2.984375 47.65625 
L 19 48.734375 
L 19.671875 48.046875 
L 19.671875 41.265625 
L 19.921875 41.265625 
Q 22.953125 45.21875 26.65625 47.265625 
Q 30.375 49.3125 33.453125 49.3125 
Q 36.53125 49.3125 38.453125 47.3125 
Q 40.375 45.3125 40.375 41.9375 
z
" id="Georgia-72"/>
     <path d="M 46.296875 11.328125 
Q 43.265625 5.5625 38.1875 2.140625 
Q 33.109375 -1.265625 26.515625 -1.265625 
Q 20.703125 -1.265625 16.328125 0.78125 
Q 11.96875 2.828125 9.125 6.34375 
Q 6.296875 9.859375 4.90625 14.546875 
Q 3.515625 19.234375 3.515625 24.46875 
Q 3.515625 29.15625 5 33.671875 
Q 6.5 38.1875 9.375 41.796875 
Q 12.15625 45.265625 16.28125 47.390625 
Q 20.40625 49.515625 25.53125 49.515625 
Q 30.8125 49.515625 34.5625 47.84375 
Q 38.328125 46.1875 40.671875 43.3125 
Q 42.921875 40.578125 44.015625 36.859375 
Q 45.125 33.15625 45.125 28.8125 
L 45.125 25.59375 
L 13.234375 25.59375 
Q 13.234375 20.84375 14.140625 16.984375 
Q 15.046875 13.140625 17 10.203125 
Q 18.890625 7.375 21.96875 5.734375 
Q 25.046875 4.109375 29.296875 4.109375 
Q 33.640625 4.109375 36.78125 6.125 
Q 39.9375 8.15625 42.875 13.421875 
z
M 35.5 29.6875 
Q 35.5 32.421875 35.03125 35.546875 
Q 34.578125 38.671875 33.546875 40.765625 
Q 32.421875 43.015625 30.46875 44.421875 
Q 28.515625 45.84375 25.4375 45.84375 
Q 20.3125 45.84375 16.921875 41.578125 
Q 13.53125 37.3125 13.234375 29.6875 
z
" id="Georgia-65"/>
     <path d="M 49.125 0.875 
Q 46.828125 0.046875 45.09375 -0.46875 
Q 43.359375 -0.984375 41.15625 -0.984375 
Q 37.359375 -0.984375 35.078125 0.796875 
Q 32.8125 2.59375 32.171875 6 
L 31.890625 6 
Q 28.71875 2.484375 25.078125 0.625 
Q 21.4375 -1.21875 16.3125 -1.21875 
Q 10.890625 -1.21875 7.390625 2.09375 
Q 3.90625 5.421875 3.90625 10.796875 
Q 3.90625 13.578125 4.6875 15.765625 
Q 5.46875 17.96875 7.03125 19.734375 
Q 8.25 21.1875 10.25 22.328125 
Q 12.25 23.484375 14.015625 24.171875 
Q 16.21875 25 22.921875 27.25 
Q 29.640625 29.5 31.984375 30.765625 
L 31.984375 35.59375 
Q 31.984375 36.234375 31.71875 38.03125 
Q 31.453125 39.84375 30.5625 41.453125 
Q 29.59375 43.265625 27.8125 44.609375 
Q 26.03125 45.953125 22.75 45.953125 
Q 20.515625 45.953125 18.578125 45.1875 
Q 16.65625 44.4375 15.875 43.609375 
Q 15.875 42.625 16.328125 40.71875 
Q 16.796875 38.8125 16.796875 37.203125 
Q 16.796875 35.5 15.25 34.078125 
Q 13.71875 32.671875 10.984375 32.671875 
Q 8.546875 32.671875 7.390625 34.40625 
Q 6.25 36.140625 6.25 38.28125 
Q 6.25 40.53125 7.828125 42.578125 
Q 9.421875 44.625 11.96875 46.234375 
Q 14.15625 47.609375 17.28125 48.5625 
Q 20.40625 49.515625 23.390625 49.515625 
Q 27.484375 49.515625 30.53125 48.953125 
Q 33.59375 48.390625 36.078125 46.53125 
Q 38.578125 44.734375 39.859375 41.625 
Q 41.15625 38.53125 41.15625 33.640625 
Q 41.15625 26.65625 41.015625 21.265625 
Q 40.875 15.875 40.875 9.46875 
Q 40.875 7.5625 41.53125 6.4375 
Q 42.1875 5.328125 43.5625 4.546875 
Q 44.28125 4.109375 45.875 4.046875 
Q 47.46875 4 49.125 4 
z
M 32.078125 26.65625 
Q 27.9375 25.4375 24.8125 24.265625 
Q 21.6875 23.09375 19 21.34375 
Q 16.546875 19.671875 15.125 17.40625 
Q 13.71875 15.140625 13.71875 12.015625 
Q 13.71875 7.953125 15.84375 6.046875 
Q 17.96875 4.15625 21.234375 4.15625 
Q 24.703125 4.15625 27.34375 5.828125 
Q 29.984375 7.515625 31.78125 9.8125 
z
" id="Georgia-61"/>
     <path d="M 33.25 2.09375 
Q 30.078125 0.78125 27.25 -0.125 
Q 24.421875 -1.03125 20.3125 -1.03125 
Q 14.265625 -1.03125 11.796875 2.015625 
Q 9.328125 5.078125 9.328125 10.640625 
L 9.328125 43.265625 
L 0.640625 43.265625 
L 0.640625 47.953125 
L 9.515625 47.953125 
L 9.515625 62.9375 
L 18.40625 62.9375 
L 18.40625 47.953125 
L 32.234375 47.953125 
L 32.234375 43.265625 
L 18.5 43.265625 
L 18.5 16.359375 
Q 18.5 13.328125 18.71875 11.296875 
Q 18.953125 9.28125 19.78125 7.765625 
Q 20.5625 6.34375 22.125 5.609375 
Q 23.6875 4.890625 26.3125 4.890625 
Q 27.546875 4.890625 29.90625 5.109375 
Q 32.28125 5.328125 33.25 5.671875 
z
" id="Georgia-74"/>
     <path d="M 56.25 0.875 
L 39.453125 -0.203125 
L 38.71875 0.484375 
L 38.71875 4.984375 
L 38.328125 5.078125 
Q 35.796875 2.25 32.0625 0.4375 
Q 28.328125 -1.375 24.359375 -1.375 
Q 20.265625 -1.375 16.421875 0.453125 
Q 12.59375 2.296875 9.765625 5.609375 
Q 6.890625 8.984375 5.203125 13.71875 
Q 3.515625 18.453125 3.515625 24.171875 
Q 3.515625 29.390625 5.3125 34.078125 
Q 7.125 38.765625 10.296875 42.28125 
Q 13.28125 45.5625 17.59375 47.515625 
Q 21.921875 49.46875 26.421875 49.46875 
Q 29.78125 49.46875 33.03125 48.609375 
Q 36.28125 47.75 38.625 46.4375 
L 38.625 63.1875 
Q 38.625 65.234375 37.9375 66.921875 
Q 37.25 68.609375 36.03125 69.484375 
Q 34.671875 70.40625 32.34375 70.8125 
Q 30.03125 71.234375 27.34375 71.4375 
L 27.34375 74.46875 
L 47.015625 75.59375 
L 47.75 74.859375 
L 47.75 9.90625 
Q 47.75 8.203125 48.40625 7 
Q 49.078125 5.8125 50.34375 4.984375 
Q 51.265625 4.390625 53.015625 4.25 
Q 54.78125 4.109375 56.25 4.046875 
z
M 38.625 9.328125 
L 38.625 37.5 
Q 38.234375 38.765625 37.34375 40.234375 
Q 36.46875 41.703125 35.15625 42.921875 
Q 33.734375 44.140625 31.828125 44.9375 
Q 29.9375 45.75 27.390625 45.75 
Q 24.46875 45.75 22 44.234375 
Q 19.53125 42.71875 17.625 39.890625 
Q 15.828125 37.15625 14.765625 32.9375 
Q 13.71875 28.71875 13.71875 23.578125 
Q 13.71875 19.484375 14.5 16.140625 
Q 15.28125 12.796875 17.140625 9.90625 
Q 18.84375 7.171875 21.5 5.515625 
Q 24.171875 3.859375 27.828125 3.859375 
Q 31.734375 3.859375 34.296875 5.5625 
Q 36.859375 7.28125 38.625 9.328125 
z
" id="Georgia-64"/>
     <path d="M 47.40625 13.703125 
L 42 0 
L 2.90625 0 
L 2.90625 1.203125 
L 20.703125 20.09375 
Q 27.703125 27.40625 30.703125 33.5 
Q 33.703125 39.59375 33.703125 46.09375 
Q 33.703125 52.796875 30 56.5 
Q 26.296875 60.203125 19.796875 60.203125 
Q 14.40625 60.203125 11.25 57.390625 
Q 8.09375 54.59375 5.09375 47.203125 
L 3 47.703125 
Q 4.703125 57 9.84375 62.296875 
Q 15 67.59375 23.796875 67.59375 
Q 32.09375 67.59375 37.1875 62.59375 
Q 42.296875 57.59375 42.296875 50 
Q 42.296875 38.703125 29.5 25.203125 
L 13 7.59375 
L 36.40625 7.59375 
Q 39.703125 7.59375 41.640625 8.890625 
Q 43.59375 10.203125 46 14.296875 
z
" id="STIXGeneral-Regular-32"/>
     <path d="M 71.140625 34.234375 
Q 71.140625 25.390625 67.8125 18.890625 
Q 64.5 12.40625 59.1875 8.25 
Q 53.8125 4.109375 47.125 2.046875 
Q 40.4375 0 33.296875 0 
L 4.59375 0 
L 4.59375 3.46875 
Q 6 3.46875 8.265625 3.734375 
Q 10.546875 4 11.28125 4.34375 
Q 12.75 4.984375 13.40625 6.21875 
Q 14.0625 7.46875 14.0625 9.234375 
L 14.0625 59.234375 
Q 14.0625 60.890625 13.5 62.203125 
Q 12.9375 63.53125 11.28125 64.3125 
Q 9.765625 65.046875 8 65.375 
Q 6.25 65.71875 4.984375 65.828125 
L 4.984375 69.28125 
L 35.25 69.28125 
Q 41.5 69.28125 47.546875 67.359375 
Q 53.609375 65.4375 58.109375 62.15625 
Q 64.203125 57.8125 67.671875 50.78125 
Q 71.140625 43.75 71.140625 34.234375 
z
M 59.1875 34.28125 
Q 59.1875 41.265625 57.328125 46.90625 
Q 55.46875 52.546875 51.90625 56.734375 
Q 48.53125 60.75 43.625 63.03125 
Q 38.71875 65.328125 32.71875 65.328125 
Q 30.71875 65.328125 28.203125 65.25 
Q 25.6875 65.1875 24.46875 65.140625 
L 24.46875 11.859375 
Q 24.46875 7.421875 27.046875 5.703125 
Q 29.640625 4 35.015625 4 
Q 41.21875 4 45.84375 6.203125 
Q 50.484375 8.40625 53.375 12.3125 
Q 56.390625 16.40625 57.78125 21.796875 
Q 59.1875 27.203125 59.1875 34.28125 
z
" id="Georgia-44"/>
    </defs>
    <g transform="translate(128.07 26.64)scale(0.18 -0.18)">
     <use transform="translate(0 0.40625)" xlink:href="#Georgia-48"/>
     <use transform="translate(81.494141 0.40625)" xlink:href="#Georgia-69"/>
     <use transform="translate(110.791016 0.40625)" xlink:href="#Georgia-67"/>
     <use transform="translate(161.71875 0.40625)" xlink:href="#Georgia-68"/>
     <use transform="translate(219.921875 0.40625)" xlink:href="#Georgia-6c"/>
     <use transform="translate(248.535156 0.40625)" xlink:href="#Georgia-79"/>
     <use transform="translate(297.753906 0.40625)" xlink:href="#Georgia-20"/>
     <use transform="translate(321.875 0.40625)" xlink:href="#Georgia-63"/>
     <use transform="translate(367.285156 0.40625)" xlink:href="#Georgia-6f"/>
     <use transform="translate(421.191406 0.40625)" xlink:href="#Georgia-72"/>
     <use transform="translate(462.158203 0.40625)" xlink:href="#Georgia-72"/>
     <use transform="translate(503.125 0.40625)" xlink:href="#Georgia-65"/>
     <use transform="translate(551.464844 0.40625)" xlink:href="#Georgia-6c"/>
     <use transform="translate(580.078125 0.40625)" xlink:href="#Georgia-61"/>
     <use transform="translate(630.46875 0.40625)" xlink:href="#Georgia-74"/>
     <use transform="translate(664.990234 0.40625)" xlink:href="#Georgia-65"/>
     <use transform="translate(713.330078 0.40625)" xlink:href="#Georgia-64"/>
     <use transform="translate(770.751953 0.40625)" xlink:href="#Georgia-20"/>
     <use transform="translate(794.873047 0.40625)" xlink:href="#STIXGeneral-Regular-32"/>
     <use transform="translate(844.873032 0.40625)" xlink:href="#Georgia-44"/>
     <use transform="translate(919.775375 0.40625)" xlink:href="#Georgia-20"/>
     <use transform="translate(943.896469 0.40625)" xlink:href="#Georgia-64"/>
     <use transform="translate(1001.318344 0.40625)" xlink:href="#Georgia-61"/>
     <use transform="translate(1051.708969 0.40625)" xlink:href="#Georgia-74"/>
     <use transform="translate(1086.230453 0.40625)" xlink:href="#Georgia-61"/>
    </g>
   </g>
  </g>
 </g>
 <defs>
  <clipPath id="p6e0d146480">
   <rect height="299.64" width="299.64" x="80.58" y="32.64"/>
  </clipPath>
 </defs>
</svg>
