<?xml version="1.0" encoding="utf-8" standalone="no"?>
<!DOCTYPE svg PUBLIC "-//W3C//DTD SVG 1.1//EN"
  "http://www.w3.org/Graphics/SVG/1.1/DTD/svg11.dtd">
<!-- Created with matplotlib (http://matplotlib.org/) -->
<svg height="279.41375pt" version="1.1" viewBox="0 0 424.865625 279.41375" width="424.865625pt" xmlns="http://www.w3.org/2000/svg" xmlns:xlink="http://www.w3.org/1999/xlink">
 <defs>
  <style type="text/css">
*{stroke-linecap:butt;stroke-linejoin:round;}
  </style>
 </defs>
 <g id="figure_1">
  <g id="patch_1">
   <path d="M -0 279.41375 
L 424.865625 279.41375 
L 424.865625 0 
L -0 0 
z
" style="fill:none;"/>
  </g>
  <g id="axes_1">
   <g id="patch_2">
    <path d="M 31.890625 253.6 
L 114.109375 253.6 
L 114.109375 10.7 
L 31.890625 10.7 
z
" style="fill:#ffffff;"/>
   </g>
   <g id="PathCollection_1">
    <defs>
     <path d="M -3 3 
L 3 -3 
M -3 -3 
L 3 3 
" id="m6c27be35dd" style="stroke:#ff0000;stroke-width:1.5;"/>
    </defs>
    <g clip-path="url(#pdb91d338a5)">
     <use style="fill:#ff0000;stroke:#ff0000;stroke-width:1.5;" x="103.754202" xlink:href="#m6c27be35dd" y="123.188816"/>
     <use style="fill:#ff0000;stroke:#ff0000;stroke-width:1.5;" x="92.876159" xlink:href="#m6c27be35dd" y="117.193219"/>
     <use style="fill:#ff0000;stroke:#ff0000;stroke-width:1.5;" x="95.301823" xlink:href="#m6c27be35dd" y="125.05351"/>
     <use style="fill:#ff0000;stroke:#ff0000;stroke-width:1.5;" x="50.243441" xlink:href="#m6c27be35dd" y="128.734437"/>
     <use style="fill:#ff0000;stroke:#ff0000;stroke-width:1.5;" x="58.583816" xlink:href="#m6c27be35dd" y="133.796142"/>
     <use style="fill:#ff0000;stroke:#ff0000;stroke-width:1.5;" x="74.973292" xlink:href="#m6c27be35dd" y="126.428845"/>
     <use style="fill:#ff0000;stroke:#ff0000;stroke-width:1.5;" x="79.809671" xlink:href="#m6c27be35dd" y="125.184173"/>
    </g>
   </g>
   <g id="matplotlib.axis_1">
    <g id="xtick_1">
     <g id="line2d_1">
      <defs>
       <path d="M 0 0 
L 0 3.5 
" id="m76b425432d" style="stroke:#000000;stroke-width:0.8;"/>
      </defs>
      <g>
       <use style="stroke:#000000;stroke-width:0.8;" x="38.742188" xlink:href="#m76b425432d" y="253.6"/>
      </g>
     </g>
     <g id="text_1">
      <!-- 0 -->
      <defs>
       <path d="M 31.78125 66.40625 
Q 24.171875 66.40625 20.328125 58.90625 
Q 16.5 51.421875 16.5 36.375 
Q 16.5 21.390625 20.328125 13.890625 
Q 24.171875 6.390625 31.78125 6.390625 
Q 39.453125 6.390625 43.28125 13.890625 
Q 47.125 21.390625 47.125 36.375 
Q 47.125 51.421875 43.28125 58.90625 
Q 39.453125 66.40625 31.78125 66.40625 
z
M 31.78125 74.21875 
Q 44.046875 74.21875 50.515625 64.515625 
Q 56.984375 54.828125 56.984375 36.375 
Q 56.984375 17.96875 50.515625 8.265625 
Q 44.046875 -1.421875 31.78125 -1.421875 
Q 19.53125 -1.421875 13.0625 8.265625 
Q 6.59375 17.96875 6.59375 36.375 
Q 6.59375 54.828125 13.0625 64.515625 
Q 19.53125 74.21875 31.78125 74.21875 
z
" id="DejaVuSans-30"/>
      </defs>
      <g transform="translate(34.924687 269.718125)scale(0.12 -0.12)">
       <use xlink:href="#DejaVuSans-30"/>
      </g>
     </g>
    </g>
    <g id="xtick_2">
     <g id="line2d_2">
      <g>
       <use style="stroke:#000000;stroke-width:0.8;" x="107.257812" xlink:href="#m76b425432d" y="253.6"/>
      </g>
     </g>
     <g id="text_2">
      <!-- 1 -->
      <defs>
       <path d="M 12.40625 8.296875 
L 28.515625 8.296875 
L 28.515625 63.921875 
L 10.984375 60.40625 
L 10.984375 69.390625 
L 28.421875 72.90625 
L 38.28125 72.90625 
L 38.28125 8.296875 
L 54.390625 8.296875 
L 54.390625 0 
L 12.40625 0 
z
" id="DejaVuSans-31"/>
      </defs>
      <g transform="translate(103.440312 269.718125)scale(0.12 -0.12)">
       <use xlink:href="#DejaVuSans-31"/>
      </g>
     </g>
    </g>
   </g>
   <g id="matplotlib.axis_2">
    <g id="ytick_1">
     <g id="line2d_3">
      <defs>
       <path d="M 0 0 
L -3.5 0 
" id="m12a15ca064" style="stroke:#000000;stroke-width:0.8;"/>
      </defs>
      <g>
       <use style="stroke:#000000;stroke-width:0.8;" x="31.890625" xlink:href="#m12a15ca064" y="249.682258"/>
      </g>
     </g>
     <g id="text_3">
      <!-- −3 -->
      <defs>
       <path d="M 10.59375 35.5 
L 73.1875 35.5 
L 73.1875 27.203125 
L 10.59375 27.203125 
z
" id="DejaVuSans-2212"/>
       <path d="M 40.578125 39.3125 
Q 47.65625 37.796875 51.625 33 
Q 55.609375 28.21875 55.609375 21.1875 
Q 55.609375 10.40625 48.1875 4.484375 
Q 40.765625 -1.421875 27.09375 -1.421875 
Q 22.515625 -1.421875 17.65625 -0.515625 
Q 12.796875 0.390625 7.625 2.203125 
L 7.625 11.71875 
Q 11.71875 9.328125 16.59375 8.109375 
Q 21.484375 6.890625 26.8125 6.890625 
Q 36.078125 6.890625 40.9375 10.546875 
Q 45.796875 14.203125 45.796875 21.1875 
Q 45.796875 27.640625 41.28125 31.265625 
Q 36.765625 34.90625 28.71875 34.90625 
L 20.21875 34.90625 
L 20.21875 43.015625 
L 29.109375 43.015625 
Q 36.375 43.015625 40.234375 45.921875 
Q 44.09375 48.828125 44.09375 54.296875 
Q 44.09375 59.90625 40.109375 62.90625 
Q 36.140625 65.921875 28.71875 65.921875 
Q 24.65625 65.921875 20.015625 65.03125 
Q 15.375 64.15625 9.8125 62.3125 
L 9.8125 71.09375 
Q 15.4375 72.65625 20.34375 73.4375 
Q 25.25 74.21875 29.59375 74.21875 
Q 40.828125 74.21875 47.359375 69.109375 
Q 53.90625 64.015625 53.90625 55.328125 
Q 53.90625 49.265625 50.4375 45.09375 
Q 46.96875 40.921875 40.578125 39.3125 
z
" id="DejaVuSans-33"/>
      </defs>
      <g transform="translate(7.2 254.241321)scale(0.12 -0.12)">
       <use xlink:href="#DejaVuSans-2212"/>
       <use x="83.789062" xlink:href="#DejaVuSans-33"/>
      </g>
     </g>
    </g>
    <g id="ytick_2">
     <g id="line2d_4">
      <g>
       <use style="stroke:#000000;stroke-width:0.8;" x="31.890625" xlink:href="#m12a15ca064" y="210.504839"/>
      </g>
     </g>
     <g id="text_4">
      <!-- −2 -->
      <defs>
       <path d="M 19.1875 8.296875 
L 53.609375 8.296875 
L 53.609375 0 
L 7.328125 0 
L 7.328125 8.296875 
Q 12.9375 14.109375 22.625 23.890625 
Q 32.328125 33.6875 34.8125 36.53125 
Q 39.546875 41.84375 41.421875 45.53125 
Q 43.3125 49.21875 43.3125 52.78125 
Q 43.3125 58.59375 39.234375 62.25 
Q 35.15625 65.921875 28.609375 65.921875 
Q 23.96875 65.921875 18.8125 64.3125 
Q 13.671875 62.703125 7.8125 59.421875 
L 7.8125 69.390625 
Q 13.765625 71.78125 18.9375 73 
Q 24.125 74.21875 28.421875 74.21875 
Q 39.75 74.21875 46.484375 68.546875 
Q 53.21875 62.890625 53.21875 53.421875 
Q 53.21875 48.921875 51.53125 44.890625 
Q 49.859375 40.875 45.40625 35.40625 
Q 44.1875 33.984375 37.640625 27.21875 
Q 31.109375 20.453125 19.1875 8.296875 
z
" id="DejaVuSans-32"/>
      </defs>
      <g transform="translate(7.2 215.063901)scale(0.12 -0.12)">
       <use xlink:href="#DejaVuSans-2212"/>
       <use x="83.789062" xlink:href="#DejaVuSans-32"/>
      </g>
     </g>
    </g>
    <g id="ytick_3">
     <g id="line2d_5">
      <g>
       <use style="stroke:#000000;stroke-width:0.8;" x="31.890625" xlink:href="#m12a15ca064" y="171.327419"/>
      </g>
     </g>
     <g id="text_5">
      <!-- −1 -->
      <g transform="translate(7.2 175.886482)scale(0.12 -0.12)">
       <use xlink:href="#DejaVuSans-2212"/>
       <use x="83.789062" xlink:href="#DejaVuSans-31"/>
      </g>
     </g>
    </g>
    <g id="ytick_4">
     <g id="line2d_6">
      <g>
       <use style="stroke:#000000;stroke-width:0.8;" x="31.890625" xlink:href="#m12a15ca064" y="132.15"/>
      </g>
     </g>
     <g id="text_6">
      <!-- 0 -->
      <g transform="translate(17.255625 136.709063)scale(0.12 -0.12)">
       <use xlink:href="#DejaVuSans-30"/>
      </g>
     </g>
    </g>
    <g id="ytick_5">
     <g id="line2d_7">
      <g>
       <use style="stroke:#000000;stroke-width:0.8;" x="31.890625" xlink:href="#m12a15ca064" y="92.972581"/>
      </g>
     </g>
     <g id="text_7">
      <!-- 1 -->
      <g transform="translate(17.255625 97.531643)scale(0.12 -0.12)">
       <use xlink:href="#DejaVuSans-31"/>
      </g>
     </g>
    </g>
    <g id="ytick_6">
     <g id="line2d_8">
      <g>
       <use style="stroke:#000000;stroke-width:0.8;" x="31.890625" xlink:href="#m12a15ca064" y="53.795161"/>
      </g>
     </g>
     <g id="text_8">
      <!-- 2 -->
      <g transform="translate(17.255625 58.354224)scale(0.12 -0.12)">
       <use xlink:href="#DejaVuSans-32"/>
      </g>
     </g>
    </g>
    <g id="ytick_7">
     <g id="line2d_9">
      <g>
       <use style="stroke:#000000;stroke-width:0.8;" x="31.890625" xlink:href="#m12a15ca064" y="14.617742"/>
      </g>
     </g>
     <g id="text_9">
      <!-- 3 -->
      <g transform="translate(17.255625 19.176804)scale(0.12 -0.12)">
       <use xlink:href="#DejaVuSans-33"/>
      </g>
     </g>
    </g>
   </g>
   <g id="line2d_10">
    <path clip-path="url(#pdb91d338a5)" d="M 38.742188 129.504805 
L 39.434265 129.404226 
L 40.126342 129.303646 
L 40.818419 129.203067 
L 41.510496 129.102488 
L 42.202573 129.001909 
L 42.89465 128.901329 
L 43.586727 128.80075 
L 44.278804 128.700171 
L 44.970881 128.599592 
L 45.662958 128.499012 
L 46.355035 128.398433 
L 47.047112 128.297854 
L 47.739189 128.197275 
L 48.431266 128.096695 
L 49.123343 127.996116 
L 49.81542 127.895537 
L 50.507497 127.794958 
L 51.199574 127.694378 
L 51.891651 127.593799 
L 52.583728 127.49322 
L 53.275805 127.392641 
L 53.967882 127.292061 
L 54.659959 127.191482 
L 55.352036 127.090903 
L 56.044113 126.990324 
L 56.73619 126.889744 
L 57.428267 126.789165 
L 58.120344 126.688586 
L 58.812421 126.588006 
L 59.504498 126.487427 
L 60.196575 126.386848 
L 60.888652 126.286269 
L 61.580729 126.185689 
L 62.272806 126.08511 
L 62.964883 125.984531 
L 63.65696 125.883952 
L 64.349037 125.783372 
L 65.041114 125.682793 
L 65.733191 125.582214 
L 66.425268 125.481635 
L 67.117345 125.381055 
L 67.809422 125.280476 
L 68.501499 125.179897 
L 69.193576 125.079318 
L 69.885653 124.978738 
L 70.57773 124.878159 
L 71.269807 124.77758 
L 71.961884 124.677001 
L 72.653961 124.576421 
L 73.346039 124.475842 
L 74.038116 124.375263 
L 74.730193 124.274683 
L 75.42227 124.174104 
L 76.114347 124.073525 
L 76.806424 123.972946 
L 77.498501 123.872366 
L 78.190578 123.771787 
L 78.882655 123.671208 
L 79.574732 123.570629 
L 80.266809 123.470049 
L 80.958886 123.36947 
L 81.650963 123.268891 
L 82.34304 123.168312 
L 83.035117 123.067732 
L 83.727194 122.967153 
L 84.419271 122.866574 
L 85.111348 122.765995 
L 85.803425 122.665415 
L 86.495502 122.564836 
L 87.187579 122.464257 
L 87.879656 122.363678 
L 88.571733 122.263098 
L 89.26381 122.162519 
L 89.955887 122.06194 
L 90.647964 121.96136 
L 91.340041 121.860781 
L 92.032118 121.760202 
L 92.724195 121.659623 
L 93.416272 121.559043 
L 94.108349 121.458464 
L 94.800426 121.357885 
L 95.492503 121.257306 
L 96.18458 121.156726 
L 96.876657 121.056147 
L 97.568734 120.955568 
L 98.260811 120.854989 
L 98.952888 120.754409 
L 99.644965 120.65383 
L 100.337042 120.553251 
L 101.029119 120.452672 
L 101.721196 120.352092 
L 102.413273 120.251513 
L 103.10535 120.150934 
L 103.797427 120.050355 
L 104.489504 119.949775 
L 105.181581 119.849196 
L 105.873658 119.748617 
L 106.565735 119.648038 
L 107.257812 119.547458 
" style="fill:none;stroke:#1f77b4;stroke-linecap:square;stroke-width:1.5;"/>
   </g>
   <g id="patch_3">
    <path d="M 31.890625 253.6 
L 31.890625 10.7 
" style="fill:none;stroke:#000000;stroke-linecap:square;stroke-linejoin:miter;stroke-width:0.8;"/>
   </g>
   <g id="patch_4">
    <path d="M 114.109375 253.6 
L 114.109375 10.7 
" style="fill:none;stroke:#000000;stroke-linecap:square;stroke-linejoin:miter;stroke-width:0.8;"/>
   </g>
   <g id="patch_5">
    <path d="M 31.890625 253.6 
L 114.109375 253.6 
" style="fill:none;stroke:#000000;stroke-linecap:square;stroke-linejoin:miter;stroke-width:0.8;"/>
   </g>
   <g id="patch_6">
    <path d="M 31.890625 10.7 
L 114.109375 10.7 
" style="fill:none;stroke:#000000;stroke-linecap:square;stroke-linejoin:miter;stroke-width:0.8;"/>
   </g>
  </g>
  <g id="axes_2">
   <g id="patch_7">
    <path d="M 131.909375 253.6 
L 214.128125 253.6 
L 214.128125 10.7 
L 131.909375 10.7 
z
" style="fill:#ffffff;"/>
   </g>
   <g id="PathCollection_2">
    <g clip-path="url(#pe03c017155)">
     <use style="fill:#ff0000;stroke:#ff0000;stroke-width:1.5;" x="186.784689" xlink:href="#m6c27be35dd" y="93.029648"/>
     <use style="fill:#ff0000;stroke:#ff0000;stroke-width:1.5;" x="182.39992" xlink:href="#m6c27be35dd" y="85.077327"/>
     <use style="fill:#ff0000;stroke:#ff0000;stroke-width:1.5;" x="164.317201" xlink:href="#m6c27be35dd" y="91.802486"/>
     <use style="fill:#ff0000;stroke:#ff0000;stroke-width:1.5;" x="201.547533" xlink:href="#m6c27be35dd" y="71.190585"/>
     <use style="fill:#ff0000;stroke:#ff0000;stroke-width:1.5;" x="165.26525" xlink:href="#m6c27be35dd" y="95.686774"/>
     <use style="fill:#ff0000;stroke:#ff0000;stroke-width:1.5;" x="170.43957" xlink:href="#m6c27be35dd" y="91.443273"/>
     <use style="fill:#ff0000;stroke:#ff0000;stroke-width:1.5;" x="153.884972" xlink:href="#m6c27be35dd" y="95.370082"/>
    </g>
   </g>
   <g id="matplotlib.axis_3">
    <g id="xtick_3">
     <g id="line2d_11">
      <g>
       <use style="stroke:#000000;stroke-width:0.8;" x="138.760938" xlink:href="#m76b425432d" y="253.6"/>
      </g>
     </g>
     <g id="text_10">
      <!-- 0 -->
      <g transform="translate(134.943438 269.718125)scale(0.12 -0.12)">
       <use xlink:href="#DejaVuSans-30"/>
      </g>
     </g>
    </g>
    <g id="xtick_4">
     <g id="line2d_12">
      <g>
       <use style="stroke:#000000;stroke-width:0.8;" x="207.276562" xlink:href="#m76b425432d" y="253.6"/>
      </g>
     </g>
     <g id="text_11">
      <!-- 1 -->
      <g transform="translate(203.459062 269.718125)scale(0.12 -0.12)">
       <use xlink:href="#DejaVuSans-31"/>
      </g>
     </g>
    </g>
   </g>
   <g id="line2d_13">
    <path clip-path="url(#pe03c017155)" d="M 138.760938 103.256193 
L 139.453015 102.942827 
L 140.145092 102.629461 
L 140.837169 102.316095 
L 141.529246 102.002729 
L 142.221323 101.689363 
L 142.9134 101.375997 
L 143.605477 101.06263 
L 144.297554 100.749264 
L 144.989631 100.435898 
L 145.681708 100.122532 
L 146.373785 99.809166 
L 147.065862 99.4958 
L 147.757939 99.182434 
L 148.450016 98.869067 
L 149.142093 98.555701 
L 149.83417 98.242335 
L 150.526247 97.928969 
L 151.218324 97.615603 
L 151.910401 97.302237 
L 152.602478 96.988871 
L 153.294555 96.675504 
L 153.986632 96.362138 
L 154.678709 96.048772 
L 155.370786 95.735406 
L 156.062863 95.42204 
L 156.75494 95.108674 
L 157.447017 94.795308 
L 158.139094 94.481941 
L 158.831171 94.168575 
L 159.523248 93.855209 
L 160.215325 93.541843 
L 160.907402 93.228477 
L 161.599479 92.915111 
L 162.291556 92.601745 
L 162.983633 92.288378 
L 163.67571 91.975012 
L 164.367787 91.661646 
L 165.059864 91.34828 
L 165.751941 91.034914 
L 166.444018 90.721548 
L 167.136095 90.408182 
L 167.828172 90.094815 
L 168.520249 89.781449 
L 169.212326 89.468083 
L 169.904403 89.154717 
L 170.59648 88.841351 
L 171.288557 88.527985 
L 171.980634 88.214619 
L 172.672711 87.901252 
L 173.364789 87.587886 
L 174.056866 87.27452 
L 174.748943 86.961154 
L 175.44102 86.647788 
L 176.133097 86.334422 
L 176.825174 86.021056 
L 177.517251 85.707689 
L 178.209328 85.394323 
L 178.901405 85.080957 
L 179.593482 84.767591 
L 180.285559 84.454225 
L 180.977636 84.140859 
L 181.669713 83.827493 
L 182.36179 83.514126 
L 183.053867 83.20076 
L 183.745944 82.887394 
L 184.438021 82.574028 
L 185.130098 82.260662 
L 185.822175 81.947296 
L 186.514252 81.63393 
L 187.206329 81.320563 
L 187.898406 81.007197 
L 188.590483 80.693831 
L 189.28256 80.380465 
L 189.974637 80.067099 
L 190.666714 79.753733 
L 191.358791 79.440367 
L 192.050868 79.127 
L 192.742945 78.813634 
L 193.435022 78.500268 
L 194.127099 78.186902 
L 194.819176 77.873536 
L 195.511253 77.56017 
L 196.20333 77.246804 
L 196.895407 76.933437 
L 197.587484 76.620071 
L 198.279561 76.306705 
L 198.971638 75.993339 
L 199.663715 75.679973 
L 200.355792 75.366607 
L 201.047869 75.053241 
L 201.739946 74.739874 
L 202.432023 74.426508 
L 203.1241 74.113142 
L 203.816177 73.799776 
L 204.508254 73.48641 
L 205.200331 73.173044 
L 205.892408 72.859678 
L 206.584485 72.546312 
L 207.276562 72.232945 
" style="fill:none;stroke:#1f77b4;stroke-linecap:square;stroke-width:1.5;"/>
   </g>
   <g id="patch_8">
    <path d="M 131.909375 253.6 
L 131.909375 10.7 
" style="fill:none;stroke:#000000;stroke-linecap:square;stroke-linejoin:miter;stroke-width:0.8;"/>
   </g>
   <g id="patch_9">
    <path d="M 214.128125 253.6 
L 214.128125 10.7 
" style="fill:none;stroke:#000000;stroke-linecap:square;stroke-linejoin:miter;stroke-width:0.8;"/>
   </g>
   <g id="patch_10">
    <path d="M 131.909375 253.6 
L 214.128125 253.6 
" style="fill:none;stroke:#000000;stroke-linecap:square;stroke-linejoin:miter;stroke-width:0.8;"/>
   </g>
   <g id="patch_11">
    <path d="M 131.909375 10.7 
L 214.128125 10.7 
" style="fill:none;stroke:#000000;stroke-linecap:square;stroke-linejoin:miter;stroke-width:0.8;"/>
   </g>
  </g>
  <g id="axes_3">
   <g id="patch_12">
    <path d="M 231.928125 253.6 
L 314.146875 253.6 
L 314.146875 10.7 
L 231.928125 10.7 
z
" style="fill:#ffffff;"/>
   </g>
   <g id="PathCollection_3">
    <g clip-path="url(#pd848aafa58)">
     <use style="fill:#ff0000;stroke:#ff0000;stroke-width:1.5;" x="265.414807" xlink:href="#m6c27be35dd" y="109.947567"/>
     <use style="fill:#ff0000;stroke:#ff0000;stroke-width:1.5;" x="300.979004" xlink:href="#m6c27be35dd" y="136.388721"/>
     <use style="fill:#ff0000;stroke:#ff0000;stroke-width:1.5;" x="302.990601" xlink:href="#m6c27be35dd" y="136.427345"/>
     <use style="fill:#ff0000;stroke:#ff0000;stroke-width:1.5;" x="286.182697" xlink:href="#m6c27be35dd" y="137.979993"/>
     <use style="fill:#ff0000;stroke:#ff0000;stroke-width:1.5;" x="305.647055" xlink:href="#m6c27be35dd" y="140.343674"/>
     <use style="fill:#ff0000;stroke:#ff0000;stroke-width:1.5;" x="304.098535" xlink:href="#m6c27be35dd" y="139.589465"/>
     <use style="fill:#ff0000;stroke:#ff0000;stroke-width:1.5;" x="271.913848" xlink:href="#m6c27be35dd" y="118.844811"/>
    </g>
   </g>
   <g id="matplotlib.axis_4">
    <g id="xtick_5">
     <g id="line2d_14">
      <g>
       <use style="stroke:#000000;stroke-width:0.8;" x="238.779687" xlink:href="#m76b425432d" y="253.6"/>
      </g>
     </g>
     <g id="text_12">
      <!-- 0 -->
      <g transform="translate(234.962187 269.718125)scale(0.12 -0.12)">
       <use xlink:href="#DejaVuSans-30"/>
      </g>
     </g>
    </g>
    <g id="xtick_6">
     <g id="line2d_15">
      <g>
       <use style="stroke:#000000;stroke-width:0.8;" x="307.295312" xlink:href="#m76b425432d" y="253.6"/>
      </g>
     </g>
     <g id="text_13">
      <!-- 1 -->
      <g transform="translate(303.477812 269.718125)scale(0.12 -0.12)">
       <use xlink:href="#DejaVuSans-31"/>
      </g>
     </g>
    </g>
   </g>
   <g id="line2d_16">
    <path clip-path="url(#pd848aafa58)" d="M 238.779687 97.750838 
L 239.471765 98.21417 
L 240.163842 98.677502 
L 240.855919 99.140835 
L 241.547996 99.604167 
L 242.240073 100.067499 
L 242.93215 100.530832 
L 243.624227 100.994164 
L 244.316304 101.457496 
L 245.008381 101.920829 
L 245.700458 102.384161 
L 246.392535 102.847493 
L 247.084612 103.310826 
L 247.776689 103.774158 
L 248.468766 104.237491 
L 249.160843 104.700823 
L 249.85292 105.164155 
L 250.544997 105.627488 
L 251.237074 106.09082 
L 251.929151 106.554152 
L 252.621228 107.017485 
L 253.313305 107.480817 
L 254.005382 107.944149 
L 254.697459 108.407482 
L 255.389536 108.870814 
L 256.081613 109.334146 
L 256.77369 109.797479 
L 257.465767 110.260811 
L 258.157844 110.724143 
L 258.849921 111.187476 
L 259.541998 111.650808 
L 260.234075 112.11414 
L 260.926152 112.577473 
L 261.618229 113.040805 
L 262.310306 113.504138 
L 263.002383 113.96747 
L 263.69446 114.430802 
L 264.386537 114.894135 
L 265.078614 115.357467 
L 265.770691 115.820799 
L 266.462768 116.284132 
L 267.154845 116.747464 
L 267.846922 117.210796 
L 268.538999 117.674129 
L 269.231076 118.137461 
L 269.923153 118.600793 
L 270.61523 119.064126 
L 271.307307 119.527458 
L 271.999384 119.99079 
L 272.691461 120.454123 
L 273.383539 120.917455 
L 274.075616 121.380787 
L 274.767693 121.84412 
L 275.45977 122.307452 
L 276.151847 122.770784 
L 276.843924 123.234117 
L 277.536001 123.697449 
L 278.228078 124.160782 
L 278.920155 124.624114 
L 279.612232 125.087446 
L 280.304309 125.550779 
L 280.996386 126.014111 
L 281.688463 126.477443 
L 282.38054 126.940776 
L 283.072617 127.404108 
L 283.764694 127.86744 
L 284.456771 128.330773 
L 285.148848 128.794105 
L 285.840925 129.257437 
L 286.533002 129.72077 
L 287.225079 130.184102 
L 287.917156 130.647434 
L 288.609233 131.110767 
L 289.30131 131.574099 
L 289.993387 132.037431 
L 290.685464 132.500764 
L 291.377541 132.964096 
L 292.069618 133.427429 
L 292.761695 133.890761 
L 293.453772 134.354093 
L 294.145849 134.817426 
L 294.837926 135.280758 
L 295.530003 135.74409 
L 296.22208 136.207423 
L 296.914157 136.670755 
L 297.606234 137.134087 
L 298.298311 137.59742 
L 298.990388 138.060752 
L 299.682465 138.524084 
L 300.374542 138.987417 
L 301.066619 139.450749 
L 301.758696 139.914081 
L 302.450773 140.377414 
L 303.14285 140.840746 
L 303.834927 141.304078 
L 304.527004 141.767411 
L 305.219081 142.230743 
L 305.911158 142.694076 
L 306.603235 143.157408 
L 307.295312 143.62074 
" style="fill:none;stroke:#1f77b4;stroke-linecap:square;stroke-width:1.5;"/>
   </g>
   <g id="patch_13">
    <path d="M 231.928125 253.6 
L 231.928125 10.7 
" style="fill:none;stroke:#000000;stroke-linecap:square;stroke-linejoin:miter;stroke-width:0.8;"/>
   </g>
   <g id="patch_14">
    <path d="M 314.146875 253.6 
L 314.146875 10.7 
" style="fill:none;stroke:#000000;stroke-linecap:square;stroke-linejoin:miter;stroke-width:0.8;"/>
   </g>
   <g id="patch_15">
    <path d="M 231.928125 253.6 
L 314.146875 253.6 
" style="fill:none;stroke:#000000;stroke-linecap:square;stroke-linejoin:miter;stroke-width:0.8;"/>
   </g>
   <g id="patch_16">
    <path d="M 231.928125 10.7 
L 314.146875 10.7 
" style="fill:none;stroke:#000000;stroke-linecap:square;stroke-linejoin:miter;stroke-width:0.8;"/>
   </g>
  </g>
  <g id="axes_4">
   <g id="patch_17">
    <path d="M 331.946875 253.6 
L 414.165625 253.6 
L 414.165625 10.7 
L 331.946875 10.7 
z
" style="fill:#ffffff;"/>
   </g>
   <g id="PathCollection_4">
    <g clip-path="url(#p7899961aeb)">
     <use style="fill:#ff0000;stroke:#ff0000;stroke-width:1.5;" x="404.526894" xlink:href="#m6c27be35dd" y="88.285541"/>
     <use style="fill:#ff0000;stroke:#ff0000;stroke-width:1.5;" x="370.054385" xlink:href="#m6c27be35dd" y="102.638836"/>
     <use style="fill:#ff0000;stroke:#ff0000;stroke-width:1.5;" x="389.351525" xlink:href="#m6c27be35dd" y="88.145108"/>
     <use style="fill:#ff0000;stroke:#ff0000;stroke-width:1.5;" x="405.241331" xlink:href="#m6c27be35dd" y="89.497491"/>
     <use style="fill:#ff0000;stroke:#ff0000;stroke-width:1.5;" x="359.39206" xlink:href="#m6c27be35dd" y="114.748058"/>
     <use style="fill:#ff0000;stroke:#ff0000;stroke-width:1.5;" x="341.201764" xlink:href="#m6c27be35dd" y="112.503535"/>
     <use style="fill:#ff0000;stroke:#ff0000;stroke-width:1.5;" x="378.663539" xlink:href="#m6c27be35dd" y="98.675877"/>
    </g>
   </g>
   <g id="matplotlib.axis_5">
    <g id="xtick_7">
     <g id="line2d_17">
      <g>
       <use style="stroke:#000000;stroke-width:0.8;" x="338.798437" xlink:href="#m76b425432d" y="253.6"/>
      </g>
     </g>
     <g id="text_14">
      <!-- 0 -->
      <g transform="translate(334.980937 269.718125)scale(0.12 -0.12)">
       <use xlink:href="#DejaVuSans-30"/>
      </g>
     </g>
    </g>
    <g id="xtick_8">
     <g id="line2d_18">
      <g>
       <use style="stroke:#000000;stroke-width:0.8;" x="407.314062" xlink:href="#m76b425432d" y="253.6"/>
      </g>
     </g>
     <g id="text_15">
      <!-- 1 -->
      <g transform="translate(403.496562 269.718125)scale(0.12 -0.12)">
       <use xlink:href="#DejaVuSans-31"/>
      </g>
     </g>
    </g>
   </g>
   <g id="line2d_19">
    <path clip-path="url(#p7899961aeb)" d="M 338.798437 111.380258 
L 339.490515 111.164099 
L 340.182592 110.94794 
L 340.874669 110.731781 
L 341.566746 110.515622 
L 342.258823 110.299463 
L 342.9509 110.083304 
L 343.642977 109.867145 
L 344.335054 109.650986 
L 345.027131 109.434828 
L 345.719208 109.218669 
L 346.411285 109.00251 
L 347.103362 108.786351 
L 347.795439 108.570192 
L 348.487516 108.354033 
L 349.179593 108.137874 
L 349.87167 107.921715 
L 350.563747 107.705556 
L 351.255824 107.489398 
L 351.947901 107.273239 
L 352.639978 107.05708 
L 353.332055 106.840921 
L 354.024132 106.624762 
L 354.716209 106.408603 
L 355.408286 106.192444 
L 356.100363 105.976285 
L 356.79244 105.760126 
L 357.484517 105.543968 
L 358.176594 105.327809 
L 358.868671 105.11165 
L 359.560748 104.895491 
L 360.252825 104.679332 
L 360.944902 104.463173 
L 361.636979 104.247014 
L 362.329056 104.030855 
L 363.021133 103.814696 
L 363.71321 103.598538 
L 364.405287 103.382379 
L 365.097364 103.16622 
L 365.789441 102.950061 
L 366.481518 102.733902 
L 367.173595 102.517743 
L 367.865672 102.301584 
L 368.557749 102.085425 
L 369.249826 101.869266 
L 369.941903 101.653108 
L 370.63398 101.436949 
L 371.326057 101.22079 
L 372.018134 101.004631 
L 372.710211 100.788472 
L 373.402289 100.572313 
L 374.094366 100.356154 
L 374.786443 100.139995 
L 375.47852 99.923836 
L 376.170597 99.707678 
L 376.862674 99.491519 
L 377.554751 99.27536 
L 378.246828 99.059201 
L 378.938905 98.843042 
L 379.630982 98.626883 
L 380.323059 98.410724 
L 381.015136 98.194565 
L 381.707213 97.978406 
L 382.39929 97.762248 
L 383.091367 97.546089 
L 383.783444 97.32993 
L 384.475521 97.113771 
L 385.167598 96.897612 
L 385.859675 96.681453 
L 386.551752 96.465294 
L 387.243829 96.249135 
L 387.935906 96.032976 
L 388.627983 95.816818 
L 389.32006 95.600659 
L 390.012137 95.3845 
L 390.704214 95.168341 
L 391.396291 94.952182 
L 392.088368 94.736023 
L 392.780445 94.519864 
L 393.472522 94.303705 
L 394.164599 94.087546 
L 394.856676 93.871388 
L 395.548753 93.655229 
L 396.24083 93.43907 
L 396.932907 93.222911 
L 397.624984 93.006752 
L 398.317061 92.790593 
L 399.009138 92.574434 
L 399.701215 92.358275 
L 400.393292 92.142116 
L 401.085369 91.925958 
L 401.777446 91.709799 
L 402.469523 91.49364 
L 403.1616 91.277481 
L 403.853677 91.061322 
L 404.545754 90.845163 
L 405.237831 90.629004 
L 405.929908 90.412845 
L 406.621985 90.196686 
L 407.314062 89.980528 
" style="fill:none;stroke:#1f77b4;stroke-linecap:square;stroke-width:1.5;"/>
   </g>
   <g id="patch_18">
    <path d="M 331.946875 253.6 
L 331.946875 10.7 
" style="fill:none;stroke:#000000;stroke-linecap:square;stroke-linejoin:miter;stroke-width:0.8;"/>
   </g>
   <g id="patch_19">
    <path d="M 414.165625 253.6 
L 414.165625 10.7 
" style="fill:none;stroke:#000000;stroke-linecap:square;stroke-linejoin:miter;stroke-width:0.8;"/>
   </g>
   <g id="patch_20">
    <path d="M 331.946875 253.6 
L 414.165625 253.6 
" style="fill:none;stroke:#000000;stroke-linecap:square;stroke-linejoin:miter;stroke-width:0.8;"/>
   </g>
   <g id="patch_21">
    <path d="M 331.946875 10.7 
L 414.165625 10.7 
" style="fill:none;stroke:#000000;stroke-linecap:square;stroke-linejoin:miter;stroke-width:0.8;"/>
   </g>
  </g>
 </g>
 <defs>
  <clipPath id="pdb91d338a5">
   <rect height="242.9" width="82.21875" x="31.890625" y="10.7"/>
  </clipPath>
  <clipPath id="pe03c017155">
   <rect height="242.9" width="82.21875" x="131.909375" y="10.7"/>
  </clipPath>
  <clipPath id="pd848aafa58">
   <rect height="242.9" width="82.21875" x="231.928125" y="10.7"/>
  </clipPath>
  <clipPath id="p7899961aeb">
   <rect height="242.9" width="82.21875" x="331.946875" y="10.7"/>
  </clipPath>
 </defs>
</svg>
