<?xml version="1.0" encoding="utf-8" standalone="no"?>
<!DOCTYPE svg PUBLIC "-//W3C//DTD SVG 1.1//EN"
  "http://www.w3.org/Graphics/SVG/1.1/DTD/svg11.dtd">
<!-- Created with matplotlib (http://matplotlib.org/) -->
<svg height="284.640938pt" version="1.1" viewBox="0 0 406.38875 284.640938" width="406.38875pt" xmlns="http://www.w3.org/2000/svg" xmlns:xlink="http://www.w3.org/1999/xlink">
 <defs>
  <style type="text/css">
*{stroke-linecap:butt;stroke-linejoin:round;}
  </style>
 </defs>
 <g id="figure_1">
  <g id="patch_1">
   <path d="M 0 284.640938 
L 406.38875 284.640938 
L 406.38875 0 
L 0 0 
z
" style="fill:none;"/>
  </g>
  <g id="axes_1">
   <g id="patch_2">
    <path d="M 60.88875 241.277813 
L 395.68875 241.277813 
L 395.68875 23.837812 
L 60.88875 23.837812 
z
" style="fill:#ffffff;"/>
   </g>
   <g id="PolyCollection_1">
    <path clip-path="url(#p104459d87b)" d="M 60.88875 220.06392 
L 60.88875 181.431522 
L 64.270568 176.80851 
L 67.652386 172.238126 
L 71.034205 167.72447 
L 74.416023 163.271507 
L 77.797841 158.883074 
L 81.179659 154.562877 
L 84.561477 150.314499 
L 87.943295 146.141413 
L 91.325114 142.046993 
L 94.706932 138.034554 
L 98.08875 134.1074 
L 101.470568 130.268887 
L 104.852386 126.522526 
L 108.234205 122.872087 
L 111.616023 119.321738 
L 114.997841 115.87617 
L 118.379659 112.540709 
L 121.761477 109.321379 
L 125.143295 106.224897 
L 128.525114 103.258588 
L 131.906932 100.43023 
L 135.28875 97.747838 
L 138.670568 95.219434 
L 142.052386 92.852829 
L 145.434205 90.655433 
L 148.816023 88.634124 
L 152.197841 86.795155 
L 155.579659 85.144115 
L 158.961477 83.685914 
L 162.343295 82.42479 
L 165.725114 81.364333 
L 169.106932 80.507508 
L 172.48875 79.856675 
L 175.870568 79.413617 
L 179.252386 79.179547 
L 182.634205 79.155118 
L 186.016023 79.340424 
L 189.397841 79.734997 
L 192.779659 80.337787 
L 196.161477 81.147152 
L 199.543295 82.160829 
L 202.925114 83.37591 
L 206.306932 84.788804 
L 209.68875 86.395202 
L 213.070568 88.190039 
L 216.452386 90.167444 
L 219.834205 92.320697 
L 223.216023 94.64218 
L 226.597841 97.123323 
L 229.979659 99.754557 
L 233.361477 102.525255 
L 236.743295 105.423686 
L 240.125114 108.436959 
L 243.506932 111.55098 
L 246.88875 114.750401 
L 250.270568 118.018583 
L 253.652386 121.337559 
L 257.034205 124.68801 
L 260.416023 128.049245 
L 263.797841 131.399198 
L 267.179659 134.714438 
L 270.561477 137.970198 
L 273.943295 141.140426 
L 277.325114 144.197866 
L 280.706932 147.114172 
L 284.08875 149.860056 
L 287.470568 152.405496 
L 290.852386 154.719988 
L 294.234205 156.772869 
L 297.616023 158.533713 
L 300.997841 159.972806 
L 304.379659 161.061714 
L 307.761477 161.77395 
L 311.143295 162.085746 
L 314.525114 161.976928 
L 317.906932 161.431903 
L 321.28875 160.440753 
L 324.670568 159.000417 
L 328.052386 157.115927 
L 331.434205 154.801647 
L 334.816023 152.082347 
L 338.197841 148.993829 
L 341.579659 145.582406 
L 344.961477 141.901662 
L 348.343295 138.002609 
L 351.725114 133.90782 
L 355.106932 129.550072 
L 358.48875 124.670514 
L 361.870568 118.841663 
L 365.252386 111.855728 
L 368.634205 103.903676 
L 372.016023 95.278309 
L 375.397841 86.217663 
L 378.779659 76.917086 
L 382.161477 67.560313 
L 385.543295 58.338775 
L 388.925114 49.462639 
L 392.306932 41.167859 
L 395.68875 33.721449 
L 395.68875 231.394176 
L 395.68875 231.394176 
L 392.306932 202.179633 
L 388.925114 179.311078 
L 385.543295 161.836004 
L 382.161477 148.915328 
L 378.779659 139.815206 
L 375.397841 133.901676 
L 372.016023 130.640227 
L 368.634205 129.604559 
L 365.252386 130.497931 
L 361.870568 133.156313 
L 358.48875 137.383588 
L 355.106932 142.647121 
L 351.725114 148.249952 
L 348.343295 153.71285 
L 344.961477 158.79159 
L 341.579659 163.369908 
L 338.197841 167.393428 
L 334.816023 170.839497 
L 331.434205 173.70348 
L 328.052386 175.992012 
L 324.670568 177.719334 
L 321.28875 178.905093 
L 317.906932 179.572888 
L 314.525114 179.749246 
L 311.143295 179.462856 
L 307.761477 178.743971 
L 304.379659 177.623926 
L 300.997841 176.134747 
L 297.616023 174.308821 
L 294.234205 172.178613 
L 290.852386 169.77643 
L 287.470568 167.1342 
L 284.08875 164.283294 
L 280.706932 161.254356 
L 277.325114 158.07716 
L 273.943295 154.78048 
L 270.561477 151.391985 
L 267.179659 147.938146 
L 263.797841 144.444164 
L 260.416023 140.933912 
L 257.034205 137.429896 
L 253.652386 133.953229 
L 250.270568 130.523626 
L 246.88875 127.159399 
L 243.506932 123.877478 
L 240.125114 120.693434 
L 236.743295 117.62151 
L 233.361477 114.674662 
L 229.979659 111.86461 
L 226.597841 109.201881 
L 223.216023 106.69587 
L 219.834205 104.354895 
L 216.452386 102.186258 
L 213.070568 100.196305 
L 209.68875 98.390487 
L 206.306932 96.773426 
L 202.925114 95.348975 
L 199.543295 94.120282 
L 196.161477 93.089852 
L 192.779659 92.25961 
L 189.397841 91.630964 
L 186.016023 91.204871 
L 182.634205 90.981893 
L 179.252386 90.962271 
L 175.870568 91.145982 
L 172.48875 91.532812 
L 169.106932 92.122425 
L 165.725114 92.914434 
L 162.343295 93.908475 
L 158.961477 95.104282 
L 155.579659 96.501768 
L 152.197841 98.101091 
L 148.816023 99.902726 
L 145.434205 101.907508 
L 142.052386 104.116664 
L 138.670568 106.531799 
L 135.28875 109.154844 
L 131.906932 111.987944 
L 128.525114 115.03331 
L 125.143295 118.293011 
L 121.761477 121.768776 
L 118.379659 125.461795 
L 114.997841 129.372585 
L 111.616023 133.500919 
L 108.234205 137.845839 
L 104.852386 142.405733 
L 101.470568 147.178457 
L 98.08875 152.161478 
L 94.706932 157.352016 
L 91.325114 162.747162 
L 87.943295 168.343987 
L 84.561477 174.139613 
L 81.179659 180.131274 
L 77.797841 186.316348 
L 74.416023 192.692387 
L 71.034205 199.257128 
L 67.652386 206.008506 
L 64.270568 212.944657 
L 60.88875 220.06392 
z
" style="fill:#808080;fill-opacity:0.5;"/>
   </g>
   <g id="PathCollection_1">
    <defs>
     <path d="M -3 3 
L 3 -3 
M -3 -3 
L 3 3 
" id="mfd792d76c1" style="stroke:#ff0000;stroke-width:1.5;"/>
    </defs>
    <g clip-path="url(#p104459d87b)">
     <use style="fill:#ff0000;stroke:#ff0000;stroke-width:1.5;" x="275.888381" xlink:href="#mfd792d76c1" y="155.438381"/>
     <use style="fill:#ff0000;stroke:#ff0000;stroke-width:1.5;" x="175.063625" xlink:href="#mfd792d76c1" y="76.867594"/>
     <use style="fill:#ff0000;stroke:#ff0000;stroke-width:1.5;" x="144.496816" xlink:href="#mfd792d76c1" y="98.789622"/>
     <use style="fill:#ff0000;stroke:#ff0000;stroke-width:1.5;" x="127.548621" xlink:href="#mfd792d76c1" y="123.962773"/>
     <use style="fill:#ff0000;stroke:#ff0000;stroke-width:1.5;" x="352.436716" xlink:href="#mfd792d76c1" y="134.295371"/>
     <use style="fill:#ff0000;stroke:#ff0000;stroke-width:1.5;" x="127.902913" xlink:href="#mfd792d76c1" y="110.142587"/>
     <use style="fill:#ff0000;stroke:#ff0000;stroke-width:1.5;" x="201.114981" xlink:href="#mfd792d76c1" y="85.852094"/>
     <use style="fill:#ff0000;stroke:#ff0000;stroke-width:1.5;" x="137.824667" xlink:href="#mfd792d76c1" y="91.030963"/>
     <use style="fill:#ff0000;stroke:#ff0000;stroke-width:1.5;" x="361.877115" xlink:href="#mfd792d76c1" y="129.872502"/>
     <use style="fill:#ff0000;stroke:#ff0000;stroke-width:1.5;" x="227.95514" xlink:href="#mfd792d76c1" y="105.934256"/>
    </g>
   </g>
   <g id="matplotlib.axis_1">
    <g id="xtick_1">
     <g id="line2d_1">
      <defs>
       <path d="M 0 0 
L 0 3.5 
" id="m0961d81e5a" style="stroke:#000000;stroke-width:0.8;"/>
      </defs>
      <g>
       <use style="stroke:#000000;stroke-width:0.8;" x="73.28875" xlink:href="#m0961d81e5a" y="241.277813"/>
      </g>
     </g>
     <g id="text_1">
      <!-- −0.2 -->
      <defs>
       <path d="M 10.59375 35.5 
L 73.1875 35.5 
L 73.1875 27.203125 
L 10.59375 27.203125 
z
" id="DejaVuSans-2212"/>
       <path d="M 31.78125 66.40625 
Q 24.171875 66.40625 20.328125 58.90625 
Q 16.5 51.421875 16.5 36.375 
Q 16.5 21.390625 20.328125 13.890625 
Q 24.171875 6.390625 31.78125 6.390625 
Q 39.453125 6.390625 43.28125 13.890625 
Q 47.125 21.390625 47.125 36.375 
Q 47.125 51.421875 43.28125 58.90625 
Q 39.453125 66.40625 31.78125 66.40625 
z
M 31.78125 74.21875 
Q 44.046875 74.21875 50.515625 64.515625 
Q 56.984375 54.828125 56.984375 36.375 
Q 56.984375 17.96875 50.515625 8.265625 
Q 44.046875 -1.421875 31.78125 -1.421875 
Q 19.53125 -1.421875 13.0625 8.265625 
Q 6.59375 17.96875 6.59375 36.375 
Q 6.59375 54.828125 13.0625 64.515625 
Q 19.53125 74.21875 31.78125 74.21875 
z
" id="DejaVuSans-30"/>
       <path d="M 10.6875 12.40625 
L 21 12.40625 
L 21 0 
L 10.6875 0 
z
" id="DejaVuSans-2e"/>
       <path d="M 19.1875 8.296875 
L 53.609375 8.296875 
L 53.609375 0 
L 7.328125 0 
L 7.328125 8.296875 
Q 12.9375 14.109375 22.625 23.890625 
Q 32.328125 33.6875 34.8125 36.53125 
Q 39.546875 41.84375 41.421875 45.53125 
Q 43.3125 49.21875 43.3125 52.78125 
Q 43.3125 58.59375 39.234375 62.25 
Q 35.15625 65.921875 28.609375 65.921875 
Q 23.96875 65.921875 18.8125 64.3125 
Q 13.671875 62.703125 7.8125 59.421875 
L 7.8125 69.390625 
Q 13.765625 71.78125 18.9375 73 
Q 24.125 74.21875 28.421875 74.21875 
Q 39.75 74.21875 46.484375 68.546875 
Q 53.21875 62.890625 53.21875 53.421875 
Q 53.21875 48.921875 51.53125 44.890625 
Q 49.859375 40.875 45.40625 35.40625 
Q 44.1875 33.984375 37.640625 27.21875 
Q 31.109375 20.453125 19.1875 8.296875 
z
" id="DejaVuSans-32"/>
      </defs>
      <g transform="translate(58.719062 257.395938)scale(0.12 -0.12)">
       <use xlink:href="#DejaVuSans-2212"/>
       <use x="83.789062" xlink:href="#DejaVuSans-30"/>
       <use x="147.412109" xlink:href="#DejaVuSans-2e"/>
       <use x="179.199219" xlink:href="#DejaVuSans-32"/>
      </g>
     </g>
    </g>
    <g id="xtick_2">
     <g id="line2d_2">
      <g>
       <use style="stroke:#000000;stroke-width:0.8;" x="122.88875" xlink:href="#m0961d81e5a" y="241.277813"/>
      </g>
     </g>
     <g id="text_2">
      <!-- 0.0 -->
      <g transform="translate(113.346875 257.395938)scale(0.12 -0.12)">
       <use xlink:href="#DejaVuSans-30"/>
       <use x="63.623047" xlink:href="#DejaVuSans-2e"/>
       <use x="95.410156" xlink:href="#DejaVuSans-30"/>
      </g>
     </g>
    </g>
    <g id="xtick_3">
     <g id="line2d_3">
      <g>
       <use style="stroke:#000000;stroke-width:0.8;" x="172.48875" xlink:href="#m0961d81e5a" y="241.277813"/>
      </g>
     </g>
     <g id="text_3">
      <!-- 0.2 -->
      <g transform="translate(162.946875 257.395938)scale(0.12 -0.12)">
       <use xlink:href="#DejaVuSans-30"/>
       <use x="63.623047" xlink:href="#DejaVuSans-2e"/>
       <use x="95.410156" xlink:href="#DejaVuSans-32"/>
      </g>
     </g>
    </g>
    <g id="xtick_4">
     <g id="line2d_4">
      <g>
       <use style="stroke:#000000;stroke-width:0.8;" x="222.08875" xlink:href="#m0961d81e5a" y="241.277813"/>
      </g>
     </g>
     <g id="text_4">
      <!-- 0.4 -->
      <defs>
       <path d="M 37.796875 64.3125 
L 12.890625 25.390625 
L 37.796875 25.390625 
z
M 35.203125 72.90625 
L 47.609375 72.90625 
L 47.609375 25.390625 
L 58.015625 25.390625 
L 58.015625 17.1875 
L 47.609375 17.1875 
L 47.609375 0 
L 37.796875 0 
L 37.796875 17.1875 
L 4.890625 17.1875 
L 4.890625 26.703125 
z
" id="DejaVuSans-34"/>
      </defs>
      <g transform="translate(212.546875 257.395938)scale(0.12 -0.12)">
       <use xlink:href="#DejaVuSans-30"/>
       <use x="63.623047" xlink:href="#DejaVuSans-2e"/>
       <use x="95.410156" xlink:href="#DejaVuSans-34"/>
      </g>
     </g>
    </g>
    <g id="xtick_5">
     <g id="line2d_5">
      <g>
       <use style="stroke:#000000;stroke-width:0.8;" x="271.68875" xlink:href="#m0961d81e5a" y="241.277813"/>
      </g>
     </g>
     <g id="text_5">
      <!-- 0.6 -->
      <defs>
       <path d="M 33.015625 40.375 
Q 26.375 40.375 22.484375 35.828125 
Q 18.609375 31.296875 18.609375 23.390625 
Q 18.609375 15.53125 22.484375 10.953125 
Q 26.375 6.390625 33.015625 6.390625 
Q 39.65625 6.390625 43.53125 10.953125 
Q 47.40625 15.53125 47.40625 23.390625 
Q 47.40625 31.296875 43.53125 35.828125 
Q 39.65625 40.375 33.015625 40.375 
z
M 52.59375 71.296875 
L 52.59375 62.3125 
Q 48.875 64.0625 45.09375 64.984375 
Q 41.3125 65.921875 37.59375 65.921875 
Q 27.828125 65.921875 22.671875 59.328125 
Q 17.53125 52.734375 16.796875 39.40625 
Q 19.671875 43.65625 24.015625 45.921875 
Q 28.375 48.1875 33.59375 48.1875 
Q 44.578125 48.1875 50.953125 41.515625 
Q 57.328125 34.859375 57.328125 23.390625 
Q 57.328125 12.15625 50.6875 5.359375 
Q 44.046875 -1.421875 33.015625 -1.421875 
Q 20.359375 -1.421875 13.671875 8.265625 
Q 6.984375 17.96875 6.984375 36.375 
Q 6.984375 53.65625 15.1875 63.9375 
Q 23.390625 74.21875 37.203125 74.21875 
Q 40.921875 74.21875 44.703125 73.484375 
Q 48.484375 72.75 52.59375 71.296875 
z
" id="DejaVuSans-36"/>
      </defs>
      <g transform="translate(262.146875 257.395938)scale(0.12 -0.12)">
       <use xlink:href="#DejaVuSans-30"/>
       <use x="63.623047" xlink:href="#DejaVuSans-2e"/>
       <use x="95.410156" xlink:href="#DejaVuSans-36"/>
      </g>
     </g>
    </g>
    <g id="xtick_6">
     <g id="line2d_6">
      <g>
       <use style="stroke:#000000;stroke-width:0.8;" x="321.28875" xlink:href="#m0961d81e5a" y="241.277813"/>
      </g>
     </g>
     <g id="text_6">
      <!-- 0.8 -->
      <defs>
       <path d="M 31.78125 34.625 
Q 24.75 34.625 20.71875 30.859375 
Q 16.703125 27.09375 16.703125 20.515625 
Q 16.703125 13.921875 20.71875 10.15625 
Q 24.75 6.390625 31.78125 6.390625 
Q 38.8125 6.390625 42.859375 10.171875 
Q 46.921875 13.96875 46.921875 20.515625 
Q 46.921875 27.09375 42.890625 30.859375 
Q 38.875 34.625 31.78125 34.625 
z
M 21.921875 38.8125 
Q 15.578125 40.375 12.03125 44.71875 
Q 8.5 49.078125 8.5 55.328125 
Q 8.5 64.0625 14.71875 69.140625 
Q 20.953125 74.21875 31.78125 74.21875 
Q 42.671875 74.21875 48.875 69.140625 
Q 55.078125 64.0625 55.078125 55.328125 
Q 55.078125 49.078125 51.53125 44.71875 
Q 48 40.375 41.703125 38.8125 
Q 48.828125 37.15625 52.796875 32.3125 
Q 56.78125 27.484375 56.78125 20.515625 
Q 56.78125 9.90625 50.3125 4.234375 
Q 43.84375 -1.421875 31.78125 -1.421875 
Q 19.734375 -1.421875 13.25 4.234375 
Q 6.78125 9.90625 6.78125 20.515625 
Q 6.78125 27.484375 10.78125 32.3125 
Q 14.796875 37.15625 21.921875 38.8125 
z
M 18.3125 54.390625 
Q 18.3125 48.734375 21.84375 45.5625 
Q 25.390625 42.390625 31.78125 42.390625 
Q 38.140625 42.390625 41.71875 45.5625 
Q 45.3125 48.734375 45.3125 54.390625 
Q 45.3125 60.0625 41.71875 63.234375 
Q 38.140625 66.40625 31.78125 66.40625 
Q 25.390625 66.40625 21.84375 63.234375 
Q 18.3125 60.0625 18.3125 54.390625 
z
" id="DejaVuSans-38"/>
      </defs>
      <g transform="translate(311.746875 257.395938)scale(0.12 -0.12)">
       <use xlink:href="#DejaVuSans-30"/>
       <use x="63.623047" xlink:href="#DejaVuSans-2e"/>
       <use x="95.410156" xlink:href="#DejaVuSans-38"/>
      </g>
     </g>
    </g>
    <g id="xtick_7">
     <g id="line2d_7">
      <g>
       <use style="stroke:#000000;stroke-width:0.8;" x="370.88875" xlink:href="#m0961d81e5a" y="241.277813"/>
      </g>
     </g>
     <g id="text_7">
      <!-- 1.0 -->
      <defs>
       <path d="M 12.40625 8.296875 
L 28.515625 8.296875 
L 28.515625 63.921875 
L 10.984375 60.40625 
L 10.984375 69.390625 
L 28.421875 72.90625 
L 38.28125 72.90625 
L 38.28125 8.296875 
L 54.390625 8.296875 
L 54.390625 0 
L 12.40625 0 
z
" id="DejaVuSans-31"/>
      </defs>
      <g transform="translate(361.346875 257.395938)scale(0.12 -0.12)">
       <use xlink:href="#DejaVuSans-31"/>
       <use x="63.623047" xlink:href="#DejaVuSans-2e"/>
       <use x="95.410156" xlink:href="#DejaVuSans-30"/>
      </g>
     </g>
    </g>
    <g id="text_8">
     <!-- $x$ -->
     <defs>
      <path d="M 24.296875 35.5 
L 25.5 29.796875 
Q 30.796875 37.90625 34.046875 41 
Q 37.296875 44.09375 40.59375 44.09375 
Q 42.40625 44.09375 43.546875 43.046875 
Q 44.703125 42 44.703125 40.390625 
Q 44.703125 38.796875 43.75 37.796875 
Q 42.796875 36.796875 41.296875 36.796875 
Q 40.40625 36.796875 38.90625 37.640625 
Q 37.40625 38.5 36.09375 38.5 
Q 33.203125 38.5 26.296875 26.40625 
Q 26.296875 25.09375 27.09375 21.90625 
L 30.296875 8.5 
Q 31.296875 4.40625 33.296875 4.40625 
Q 34.90625 4.40625 38 8.40625 
Q 38.296875 8.796875 38.6875 9.34375 
Q 39.09375 9.90625 39.390625 10.34375 
Q 39.703125 10.796875 40.09375 11.203125 
L 41.59375 10.296875 
Q 37.296875 3.59375 34.796875 1.25 
Q 32.296875 -1.09375 29.40625 -1.09375 
Q 27 -1.09375 25.703125 0.40625 
Q 24.40625 1.90625 23.5 5.703125 
L 20.59375 17.59375 
L 11.796875 5.703125 
Q 8.703125 1.5 6.75 0.203125 
Q 4.796875 -1.09375 2.296875 -1.09375 
Q 0 -1.09375 -1.34375 0 
Q -2.703125 1.09375 -2.703125 3.09375 
Q -2.703125 4.59375 -1.75 5.640625 
Q -0.796875 6.703125 0.703125 6.703125 
Q 1.90625 6.703125 3.90625 5.59375 
Q 5.40625 4.703125 6.5 4.703125 
Q 8.203125 4.703125 11.59375 9.59375 
L 19.796875 21.203125 
L 17 33.59375 
Q 16 38 15.140625 39.203125 
Q 14.296875 40.40625 12.40625 40.40625 
Q 11.203125 40.40625 8.5 39.703125 
L 6.703125 39.203125 
L 6.40625 40.796875 
L 7.5 41.203125 
Q 15.5 44.09375 19.203125 44.09375 
Q 21.09375 44.09375 22.1875 42.296875 
Q 23.296875 40.5 24.296875 35.5 
z
" id="STIXGeneral-Italic-78"/>
     </defs>
     <g transform="translate(225.13875 274.529375)scale(0.14 -0.14)">
      <use transform="translate(0 0.90625)" xlink:href="#STIXGeneral-Italic-78"/>
     </g>
    </g>
   </g>
   <g id="matplotlib.axis_2">
    <g id="ytick_1">
     <g id="line2d_8">
      <defs>
       <path d="M 0 0 
L -3.5 0 
" id="m6bfd052a3f" style="stroke:#000000;stroke-width:0.8;"/>
      </defs>
      <g>
       <use style="stroke:#000000;stroke-width:0.8;" x="60.88875" xlink:href="#m6bfd052a3f" y="226.298237"/>
      </g>
     </g>
     <g id="text_9">
      <!-- −2.0 -->
      <g transform="translate(24.749375 230.857299)scale(0.12 -0.12)">
       <use xlink:href="#DejaVuSans-2212"/>
       <use x="83.789062" xlink:href="#DejaVuSans-32"/>
       <use x="147.412109" xlink:href="#DejaVuSans-2e"/>
       <use x="179.199219" xlink:href="#DejaVuSans-30"/>
      </g>
     </g>
    </g>
    <g id="ytick_2">
     <g id="line2d_9">
      <g>
       <use style="stroke:#000000;stroke-width:0.8;" x="60.88875" xlink:href="#m6bfd052a3f" y="200.549459"/>
      </g>
     </g>
     <g id="text_10">
      <!-- −1.5 -->
      <defs>
       <path d="M 10.796875 72.90625 
L 49.515625 72.90625 
L 49.515625 64.59375 
L 19.828125 64.59375 
L 19.828125 46.734375 
Q 21.96875 47.46875 24.109375 47.828125 
Q 26.265625 48.1875 28.421875 48.1875 
Q 40.625 48.1875 47.75 41.5 
Q 54.890625 34.8125 54.890625 23.390625 
Q 54.890625 11.625 47.5625 5.09375 
Q 40.234375 -1.421875 26.90625 -1.421875 
Q 22.3125 -1.421875 17.546875 -0.640625 
Q 12.796875 0.140625 7.71875 1.703125 
L 7.71875 11.625 
Q 12.109375 9.234375 16.796875 8.0625 
Q 21.484375 6.890625 26.703125 6.890625 
Q 35.15625 6.890625 40.078125 11.328125 
Q 45.015625 15.765625 45.015625 23.390625 
Q 45.015625 31 40.078125 35.4375 
Q 35.15625 39.890625 26.703125 39.890625 
Q 22.75 39.890625 18.8125 39.015625 
Q 14.890625 38.140625 10.796875 36.28125 
z
" id="DejaVuSans-35"/>
      </defs>
      <g transform="translate(24.749375 205.108521)scale(0.12 -0.12)">
       <use xlink:href="#DejaVuSans-2212"/>
       <use x="83.789062" xlink:href="#DejaVuSans-31"/>
       <use x="147.412109" xlink:href="#DejaVuSans-2e"/>
       <use x="179.199219" xlink:href="#DejaVuSans-35"/>
      </g>
     </g>
    </g>
    <g id="ytick_3">
     <g id="line2d_10">
      <g>
       <use style="stroke:#000000;stroke-width:0.8;" x="60.88875" xlink:href="#m6bfd052a3f" y="174.80068"/>
      </g>
     </g>
     <g id="text_11">
      <!-- −1.0 -->
      <g transform="translate(24.749375 179.359743)scale(0.12 -0.12)">
       <use xlink:href="#DejaVuSans-2212"/>
       <use x="83.789062" xlink:href="#DejaVuSans-31"/>
       <use x="147.412109" xlink:href="#DejaVuSans-2e"/>
       <use x="179.199219" xlink:href="#DejaVuSans-30"/>
      </g>
     </g>
    </g>
    <g id="ytick_4">
     <g id="line2d_11">
      <g>
       <use style="stroke:#000000;stroke-width:0.8;" x="60.88875" xlink:href="#m6bfd052a3f" y="149.051902"/>
      </g>
     </g>
     <g id="text_12">
      <!-- −0.5 -->
      <g transform="translate(24.749375 153.610964)scale(0.12 -0.12)">
       <use xlink:href="#DejaVuSans-2212"/>
       <use x="83.789062" xlink:href="#DejaVuSans-30"/>
       <use x="147.412109" xlink:href="#DejaVuSans-2e"/>
       <use x="179.199219" xlink:href="#DejaVuSans-35"/>
      </g>
     </g>
    </g>
    <g id="ytick_5">
     <g id="line2d_12">
      <g>
       <use style="stroke:#000000;stroke-width:0.8;" x="60.88875" xlink:href="#m6bfd052a3f" y="123.303124"/>
      </g>
     </g>
     <g id="text_13">
      <!-- 0.0 -->
      <g transform="translate(34.805 127.862186)scale(0.12 -0.12)">
       <use xlink:href="#DejaVuSans-30"/>
       <use x="63.623047" xlink:href="#DejaVuSans-2e"/>
       <use x="95.410156" xlink:href="#DejaVuSans-30"/>
      </g>
     </g>
    </g>
    <g id="ytick_6">
     <g id="line2d_13">
      <g>
       <use style="stroke:#000000;stroke-width:0.8;" x="60.88875" xlink:href="#m6bfd052a3f" y="97.554345"/>
      </g>
     </g>
     <g id="text_14">
      <!-- 0.5 -->
      <g transform="translate(34.805 102.113408)scale(0.12 -0.12)">
       <use xlink:href="#DejaVuSans-30"/>
       <use x="63.623047" xlink:href="#DejaVuSans-2e"/>
       <use x="95.410156" xlink:href="#DejaVuSans-35"/>
      </g>
     </g>
    </g>
    <g id="ytick_7">
     <g id="line2d_14">
      <g>
       <use style="stroke:#000000;stroke-width:0.8;" x="60.88875" xlink:href="#m6bfd052a3f" y="71.805567"/>
      </g>
     </g>
     <g id="text_15">
      <!-- 1.0 -->
      <g transform="translate(34.805 76.36463)scale(0.12 -0.12)">
       <use xlink:href="#DejaVuSans-31"/>
       <use x="63.623047" xlink:href="#DejaVuSans-2e"/>
       <use x="95.410156" xlink:href="#DejaVuSans-30"/>
      </g>
     </g>
    </g>
    <g id="ytick_8">
     <g id="line2d_15">
      <g>
       <use style="stroke:#000000;stroke-width:0.8;" x="60.88875" xlink:href="#m6bfd052a3f" y="46.056789"/>
      </g>
     </g>
     <g id="text_16">
      <!-- 1.5 -->
      <g transform="translate(34.805 50.615851)scale(0.12 -0.12)">
       <use xlink:href="#DejaVuSans-31"/>
       <use x="63.623047" xlink:href="#DejaVuSans-2e"/>
       <use x="95.410156" xlink:href="#DejaVuSans-35"/>
      </g>
     </g>
    </g>
    <g id="text_17">
     <!-- $y$ -->
     <defs>
      <path d="M 24.296875 18.59375 
L 26.40625 7.59375 
Q 33.09375 18.59375 35.84375 24.34375 
Q 38.59375 30.09375 38.59375 33.296875 
Q 38.59375 34.90625 36 36.5 
Q 33.40625 38.203125 33.40625 40.40625 
Q 33.40625 42 34.546875 43.046875 
Q 35.703125 44.09375 37.40625 44.09375 
Q 39.59375 44.09375 41.09375 42.5 
Q 42.59375 40.90625 42.59375 38.59375 
Q 42.59375 29.90625 29.5 8.09375 
Q 21.703125 -4.796875 14.34375 -12.6875 
Q 7 -20.59375 2.703125 -20.59375 
Q 0.40625 -20.59375 -1 -19.390625 
Q -2.40625 -18.203125 -2.40625 -16.296875 
Q -2.40625 -14.59375 -1.25 -13.4375 
Q -0.09375 -12.296875 1.5 -12.296875 
Q 3.40625 -12.296875 4.90625 -13.6875 
Q 6.40625 -15.09375 7.59375 -15.09375 
Q 9.40625 -15.09375 12.40625 -11.796875 
Q 13.703125 -10.5 16.25 -7.140625 
Q 18.796875 -3.796875 19.5 -2.703125 
Q 20.5 -0.703125 20.5 0.796875 
Q 20.5 3.796875 17.390625 16.34375 
Q 14.296875 28.90625 12.296875 34 
Q 10.90625 37.703125 9.25 39.046875 
Q 7.59375 40.40625 4.59375 40.40625 
Q 3 40.40625 1.5 40 
L 1.5 41.703125 
Q 3.703125 42.09375 4.703125 42.296875 
Q 8.796875 43.09375 15.40625 44.09375 
L 15.796875 44.09375 
Q 16.90625 44.09375 19.953125 34.796875 
Q 23 25.5 24.296875 18.59375 
z
" id="STIXGeneral-Italic-79"/>
     </defs>
     <g transform="translate(17.809375 135.707812)rotate(-90)scale(0.14 -0.14)">
      <use transform="translate(0 0.90625)" xlink:href="#STIXGeneral-Italic-79"/>
     </g>
    </g>
   </g>
   <g id="line2d_16">
    <path clip-path="url(#p104459d87b)" d="M 60.88875 200.747721 
L 64.270568 194.876583 
L 67.652386 189.123316 
L 71.034205 183.490799 
L 74.416023 177.981947 
L 77.797841 172.599711 
L 81.179659 167.347075 
L 84.561477 162.227056 
L 87.943295 157.2427 
L 91.325114 152.397077 
L 94.706932 147.693285 
L 98.08875 143.134439 
L 101.470568 138.723672 
L 104.852386 134.464129 
L 108.234205 130.358963 
L 111.616023 126.411328 
L 114.997841 122.624377 
L 118.379659 119.001252 
L 121.761477 115.545077 
L 125.143295 112.258954 
L 128.525114 109.145949 
L 131.906932 106.209087 
L 135.28875 103.451341 
L 138.670568 100.875617 
L 142.052386 98.484747 
L 145.434205 96.281471 
L 148.816023 94.268425 
L 152.197841 92.448123 
L 155.579659 90.822941 
L 158.961477 89.395098 
L 162.343295 88.166632 
L 165.725114 87.139384 
L 169.106932 86.314967 
L 172.48875 85.694744 
L 175.870568 85.279799 
L 179.252386 85.070909 
L 182.634205 85.068505 
L 186.016023 85.272648 
L 189.397841 85.68298 
L 192.779659 86.298698 
L 196.161477 87.118502 
L 199.543295 88.140556 
L 202.925114 89.362443 
L 206.306932 90.781115 
L 209.68875 92.392845 
L 213.070568 94.193172 
L 216.452386 96.176851 
L 219.834205 98.337796 
L 223.216023 100.669025 
L 226.597841 103.162602 
L 229.979659 105.809583 
L 233.361477 108.599959 
L 236.743295 111.522598 
L 240.125114 114.565197 
L 243.506932 117.714229 
L 246.88875 120.9549 
L 250.270568 124.271104 
L 253.652386 127.645394 
L 257.034205 131.058953 
L 260.416023 134.491579 
L 263.797841 137.921681 
L 267.179659 141.326292 
L 270.561477 144.681091 
L 273.943295 147.960453 
L 277.325114 151.137513 
L 280.706932 154.184264 
L 284.08875 157.071675 
L 287.470568 159.769848 
L 290.852386 162.248209 
L 294.234205 164.475741 
L 297.616023 166.421267 
L 300.997841 168.053777 
L 304.379659 169.34282 
L 307.761477 170.258961 
L 311.143295 170.774301 
L 314.525114 170.863087 
L 317.906932 170.502395 
L 321.28875 169.672923 
L 324.670568 168.359875 
L 328.052386 166.553969 
L 331.434205 164.252564 
L 334.816023 161.460922 
L 338.197841 158.193628 
L 341.579659 154.476157 
L 344.961477 150.346626 
L 348.343295 145.85773 
L 351.725114 141.078886 
L 355.106932 136.098596 
L 358.48875 131.027051 
L 361.870568 125.998988 
L 365.252386 121.176829 
L 368.634205 116.754117 
L 372.016023 112.959268 
L 375.397841 110.059669 
L 378.779659 108.366146 
L 382.161477 108.23782 
L 385.543295 110.08739 
L 388.925114 114.386858 
L 392.306932 121.673746 
L 395.68875 132.557813 
" style="fill:none;stroke:#000000;stroke-linecap:square;stroke-width:1.5;"/>
   </g>
   <g id="patch_3">
    <path d="M 60.88875 241.277813 
L 60.88875 23.837812 
" style="fill:none;stroke:#000000;stroke-linecap:square;stroke-linejoin:miter;stroke-width:0.8;"/>
   </g>
   <g id="patch_4">
    <path d="M 395.68875 241.277813 
L 395.68875 23.837812 
" style="fill:none;stroke:#000000;stroke-linecap:square;stroke-linejoin:miter;stroke-width:0.8;"/>
   </g>
   <g id="patch_5">
    <path d="M 60.88875 241.277813 
L 395.68875 241.277813 
" style="fill:none;stroke:#000000;stroke-linecap:square;stroke-linejoin:miter;stroke-width:0.8;"/>
   </g>
   <g id="patch_6">
    <path d="M 60.88875 23.837812 
L 395.68875 23.837812 
" style="fill:none;stroke:#000000;stroke-linecap:square;stroke-linejoin:miter;stroke-width:0.8;"/>
   </g>
   <g id="text_18">
    <!-- Bayesian regression predictive -->
    <defs>
     <path d="M 19.671875 34.8125 
L 19.671875 8.109375 
L 35.5 8.109375 
Q 43.453125 8.109375 47.28125 11.40625 
Q 51.125 14.703125 51.125 21.484375 
Q 51.125 28.328125 47.28125 31.5625 
Q 43.453125 34.8125 35.5 34.8125 
z
M 19.671875 64.796875 
L 19.671875 42.828125 
L 34.28125 42.828125 
Q 41.5 42.828125 45.03125 45.53125 
Q 48.578125 48.25 48.578125 53.8125 
Q 48.578125 59.328125 45.03125 62.0625 
Q 41.5 64.796875 34.28125 64.796875 
z
M 9.8125 72.90625 
L 35.015625 72.90625 
Q 46.296875 72.90625 52.390625 68.21875 
Q 58.5 63.53125 58.5 54.890625 
Q 58.5 48.1875 55.375 44.234375 
Q 52.25 40.28125 46.1875 39.3125 
Q 53.46875 37.75 57.5 32.78125 
Q 61.53125 27.828125 61.53125 20.40625 
Q 61.53125 10.640625 54.890625 5.3125 
Q 48.25 0 35.984375 0 
L 9.8125 0 
z
" id="DejaVuSans-42"/>
     <path d="M 34.28125 27.484375 
Q 23.390625 27.484375 19.1875 25 
Q 14.984375 22.515625 14.984375 16.5 
Q 14.984375 11.71875 18.140625 8.90625 
Q 21.296875 6.109375 26.703125 6.109375 
Q 34.1875 6.109375 38.703125 11.40625 
Q 43.21875 16.703125 43.21875 25.484375 
L 43.21875 27.484375 
z
M 52.203125 31.203125 
L 52.203125 0 
L 43.21875 0 
L 43.21875 8.296875 
Q 40.140625 3.328125 35.546875 0.953125 
Q 30.953125 -1.421875 24.3125 -1.421875 
Q 15.921875 -1.421875 10.953125 3.296875 
Q 6 8.015625 6 15.921875 
Q 6 25.140625 12.171875 29.828125 
Q 18.359375 34.515625 30.609375 34.515625 
L 43.21875 34.515625 
L 43.21875 35.40625 
Q 43.21875 41.609375 39.140625 45 
Q 35.0625 48.390625 27.6875 48.390625 
Q 23 48.390625 18.546875 47.265625 
Q 14.109375 46.140625 10.015625 43.890625 
L 10.015625 52.203125 
Q 14.9375 54.109375 19.578125 55.046875 
Q 24.21875 56 28.609375 56 
Q 40.484375 56 46.34375 49.84375 
Q 52.203125 43.703125 52.203125 31.203125 
z
" id="DejaVuSans-61"/>
     <path d="M 32.171875 -5.078125 
Q 28.375 -14.84375 24.75 -17.8125 
Q 21.140625 -20.796875 15.09375 -20.796875 
L 7.90625 -20.796875 
L 7.90625 -13.28125 
L 13.1875 -13.28125 
Q 16.890625 -13.28125 18.9375 -11.515625 
Q 21 -9.765625 23.484375 -3.21875 
L 25.09375 0.875 
L 2.984375 54.6875 
L 12.5 54.6875 
L 29.59375 11.921875 
L 46.6875 54.6875 
L 56.203125 54.6875 
z
" id="DejaVuSans-79"/>
     <path d="M 56.203125 29.59375 
L 56.203125 25.203125 
L 14.890625 25.203125 
Q 15.484375 15.921875 20.484375 11.0625 
Q 25.484375 6.203125 34.421875 6.203125 
Q 39.59375 6.203125 44.453125 7.46875 
Q 49.3125 8.734375 54.109375 11.28125 
L 54.109375 2.78125 
Q 49.265625 0.734375 44.1875 -0.34375 
Q 39.109375 -1.421875 33.890625 -1.421875 
Q 20.796875 -1.421875 13.15625 6.1875 
Q 5.515625 13.8125 5.515625 26.8125 
Q 5.515625 40.234375 12.765625 48.109375 
Q 20.015625 56 32.328125 56 
Q 43.359375 56 49.78125 48.890625 
Q 56.203125 41.796875 56.203125 29.59375 
z
M 47.21875 32.234375 
Q 47.125 39.59375 43.09375 43.984375 
Q 39.0625 48.390625 32.421875 48.390625 
Q 24.90625 48.390625 20.390625 44.140625 
Q 15.875 39.890625 15.1875 32.171875 
z
" id="DejaVuSans-65"/>
     <path d="M 44.28125 53.078125 
L 44.28125 44.578125 
Q 40.484375 46.53125 36.375 47.5 
Q 32.28125 48.484375 27.875 48.484375 
Q 21.1875 48.484375 17.84375 46.4375 
Q 14.5 44.390625 14.5 40.28125 
Q 14.5 37.15625 16.890625 35.375 
Q 19.28125 33.59375 26.515625 31.984375 
L 29.59375 31.296875 
Q 39.15625 29.25 43.1875 25.515625 
Q 47.21875 21.78125 47.21875 15.09375 
Q 47.21875 7.46875 41.1875 3.015625 
Q 35.15625 -1.421875 24.609375 -1.421875 
Q 20.21875 -1.421875 15.453125 -0.5625 
Q 10.6875 0.296875 5.421875 2 
L 5.421875 11.28125 
Q 10.40625 8.6875 15.234375 7.390625 
Q 20.0625 6.109375 24.8125 6.109375 
Q 31.15625 6.109375 34.5625 8.28125 
Q 37.984375 10.453125 37.984375 14.40625 
Q 37.984375 18.0625 35.515625 20.015625 
Q 33.0625 21.96875 24.703125 23.78125 
L 21.578125 24.515625 
Q 13.234375 26.265625 9.515625 29.90625 
Q 5.8125 33.546875 5.8125 39.890625 
Q 5.8125 47.609375 11.28125 51.796875 
Q 16.75 56 26.8125 56 
Q 31.78125 56 36.171875 55.265625 
Q 40.578125 54.546875 44.28125 53.078125 
z
" id="DejaVuSans-73"/>
     <path d="M 9.421875 54.6875 
L 18.40625 54.6875 
L 18.40625 0 
L 9.421875 0 
z
M 9.421875 75.984375 
L 18.40625 75.984375 
L 18.40625 64.59375 
L 9.421875 64.59375 
z
" id="DejaVuSans-69"/>
     <path d="M 54.890625 33.015625 
L 54.890625 0 
L 45.90625 0 
L 45.90625 32.71875 
Q 45.90625 40.484375 42.875 44.328125 
Q 39.84375 48.1875 33.796875 48.1875 
Q 26.515625 48.1875 22.3125 43.546875 
Q 18.109375 38.921875 18.109375 30.90625 
L 18.109375 0 
L 9.078125 0 
L 9.078125 54.6875 
L 18.109375 54.6875 
L 18.109375 46.1875 
Q 21.34375 51.125 25.703125 53.5625 
Q 30.078125 56 35.796875 56 
Q 45.21875 56 50.046875 50.171875 
Q 54.890625 44.34375 54.890625 33.015625 
z
" id="DejaVuSans-6e"/>
     <path id="DejaVuSans-20"/>
     <path d="M 41.109375 46.296875 
Q 39.59375 47.171875 37.8125 47.578125 
Q 36.03125 48 33.890625 48 
Q 26.265625 48 22.1875 43.046875 
Q 18.109375 38.09375 18.109375 28.8125 
L 18.109375 0 
L 9.078125 0 
L 9.078125 54.6875 
L 18.109375 54.6875 
L 18.109375 46.1875 
Q 20.953125 51.171875 25.484375 53.578125 
Q 30.03125 56 36.53125 56 
Q 37.453125 56 38.578125 55.875 
Q 39.703125 55.765625 41.0625 55.515625 
z
" id="DejaVuSans-72"/>
     <path d="M 45.40625 27.984375 
Q 45.40625 37.75 41.375 43.109375 
Q 37.359375 48.484375 30.078125 48.484375 
Q 22.859375 48.484375 18.828125 43.109375 
Q 14.796875 37.75 14.796875 27.984375 
Q 14.796875 18.265625 18.828125 12.890625 
Q 22.859375 7.515625 30.078125 7.515625 
Q 37.359375 7.515625 41.375 12.890625 
Q 45.40625 18.265625 45.40625 27.984375 
z
M 54.390625 6.78125 
Q 54.390625 -7.171875 48.1875 -13.984375 
Q 42 -20.796875 29.203125 -20.796875 
Q 24.46875 -20.796875 20.265625 -20.09375 
Q 16.0625 -19.390625 12.109375 -17.921875 
L 12.109375 -9.1875 
Q 16.0625 -11.328125 19.921875 -12.34375 
Q 23.78125 -13.375 27.78125 -13.375 
Q 36.625 -13.375 41.015625 -8.765625 
Q 45.40625 -4.15625 45.40625 5.171875 
L 45.40625 9.625 
Q 42.625 4.78125 38.28125 2.390625 
Q 33.9375 0 27.875 0 
Q 17.828125 0 11.671875 7.65625 
Q 5.515625 15.328125 5.515625 27.984375 
Q 5.515625 40.671875 11.671875 48.328125 
Q 17.828125 56 27.875 56 
Q 33.9375 56 38.28125 53.609375 
Q 42.625 51.21875 45.40625 46.390625 
L 45.40625 54.6875 
L 54.390625 54.6875 
z
" id="DejaVuSans-67"/>
     <path d="M 30.609375 48.390625 
Q 23.390625 48.390625 19.1875 42.75 
Q 14.984375 37.109375 14.984375 27.296875 
Q 14.984375 17.484375 19.15625 11.84375 
Q 23.34375 6.203125 30.609375 6.203125 
Q 37.796875 6.203125 41.984375 11.859375 
Q 46.1875 17.53125 46.1875 27.296875 
Q 46.1875 37.015625 41.984375 42.703125 
Q 37.796875 48.390625 30.609375 48.390625 
z
M 30.609375 56 
Q 42.328125 56 49.015625 48.375 
Q 55.71875 40.765625 55.71875 27.296875 
Q 55.71875 13.875 49.015625 6.21875 
Q 42.328125 -1.421875 30.609375 -1.421875 
Q 18.84375 -1.421875 12.171875 6.21875 
Q 5.515625 13.875 5.515625 27.296875 
Q 5.515625 40.765625 12.171875 48.375 
Q 18.84375 56 30.609375 56 
z
" id="DejaVuSans-6f"/>
     <path d="M 18.109375 8.203125 
L 18.109375 -20.796875 
L 9.078125 -20.796875 
L 9.078125 54.6875 
L 18.109375 54.6875 
L 18.109375 46.390625 
Q 20.953125 51.265625 25.265625 53.625 
Q 29.59375 56 35.59375 56 
Q 45.5625 56 51.78125 48.09375 
Q 58.015625 40.1875 58.015625 27.296875 
Q 58.015625 14.40625 51.78125 6.484375 
Q 45.5625 -1.421875 35.59375 -1.421875 
Q 29.59375 -1.421875 25.265625 0.953125 
Q 20.953125 3.328125 18.109375 8.203125 
z
M 48.6875 27.296875 
Q 48.6875 37.203125 44.609375 42.84375 
Q 40.53125 48.484375 33.40625 48.484375 
Q 26.265625 48.484375 22.1875 42.84375 
Q 18.109375 37.203125 18.109375 27.296875 
Q 18.109375 17.390625 22.1875 11.75 
Q 26.265625 6.109375 33.40625 6.109375 
Q 40.53125 6.109375 44.609375 11.75 
Q 48.6875 17.390625 48.6875 27.296875 
z
" id="DejaVuSans-70"/>
     <path d="M 45.40625 46.390625 
L 45.40625 75.984375 
L 54.390625 75.984375 
L 54.390625 0 
L 45.40625 0 
L 45.40625 8.203125 
Q 42.578125 3.328125 38.25 0.953125 
Q 33.9375 -1.421875 27.875 -1.421875 
Q 17.96875 -1.421875 11.734375 6.484375 
Q 5.515625 14.40625 5.515625 27.296875 
Q 5.515625 40.1875 11.734375 48.09375 
Q 17.96875 56 27.875 56 
Q 33.9375 56 38.25 53.625 
Q 42.578125 51.265625 45.40625 46.390625 
z
M 14.796875 27.296875 
Q 14.796875 17.390625 18.875 11.75 
Q 22.953125 6.109375 30.078125 6.109375 
Q 37.203125 6.109375 41.296875 11.75 
Q 45.40625 17.390625 45.40625 27.296875 
Q 45.40625 37.203125 41.296875 42.84375 
Q 37.203125 48.484375 30.078125 48.484375 
Q 22.953125 48.484375 18.875 42.84375 
Q 14.796875 37.203125 14.796875 27.296875 
z
" id="DejaVuSans-64"/>
     <path d="M 48.78125 52.59375 
L 48.78125 44.1875 
Q 44.96875 46.296875 41.140625 47.34375 
Q 37.3125 48.390625 33.40625 48.390625 
Q 24.65625 48.390625 19.8125 42.84375 
Q 14.984375 37.3125 14.984375 27.296875 
Q 14.984375 17.28125 19.8125 11.734375 
Q 24.65625 6.203125 33.40625 6.203125 
Q 37.3125 6.203125 41.140625 7.25 
Q 44.96875 8.296875 48.78125 10.40625 
L 48.78125 2.09375 
Q 45.015625 0.34375 40.984375 -0.53125 
Q 36.96875 -1.421875 32.421875 -1.421875 
Q 20.0625 -1.421875 12.78125 6.34375 
Q 5.515625 14.109375 5.515625 27.296875 
Q 5.515625 40.671875 12.859375 48.328125 
Q 20.21875 56 33.015625 56 
Q 37.15625 56 41.109375 55.140625 
Q 45.0625 54.296875 48.78125 52.59375 
z
" id="DejaVuSans-63"/>
     <path d="M 18.3125 70.21875 
L 18.3125 54.6875 
L 36.8125 54.6875 
L 36.8125 47.703125 
L 18.3125 47.703125 
L 18.3125 18.015625 
Q 18.3125 11.328125 20.140625 9.421875 
Q 21.96875 7.515625 27.59375 7.515625 
L 36.8125 7.515625 
L 36.8125 0 
L 27.59375 0 
Q 17.1875 0 13.234375 3.875 
Q 9.28125 7.765625 9.28125 18.015625 
L 9.28125 47.703125 
L 2.6875 47.703125 
L 2.6875 54.6875 
L 9.28125 54.6875 
L 9.28125 70.21875 
z
" id="DejaVuSans-74"/>
     <path d="M 2.984375 54.6875 
L 12.5 54.6875 
L 29.59375 8.796875 
L 46.6875 54.6875 
L 56.203125 54.6875 
L 35.6875 0 
L 23.484375 0 
z
" id="DejaVuSans-76"/>
    </defs>
    <g transform="translate(120.209844 17.837812)scale(0.14 -0.14)">
     <use xlink:href="#DejaVuSans-42"/>
     <use x="68.603516" xlink:href="#DejaVuSans-61"/>
     <use x="129.882812" xlink:href="#DejaVuSans-79"/>
     <use x="189.0625" xlink:href="#DejaVuSans-65"/>
     <use x="250.585938" xlink:href="#DejaVuSans-73"/>
     <use x="302.685547" xlink:href="#DejaVuSans-69"/>
     <use x="330.46875" xlink:href="#DejaVuSans-61"/>
     <use x="391.748047" xlink:href="#DejaVuSans-6e"/>
     <use x="455.126953" xlink:href="#DejaVuSans-20"/>
     <use x="486.914062" xlink:href="#DejaVuSans-72"/>
     <use x="527.996094" xlink:href="#DejaVuSans-65"/>
     <use x="589.519531" xlink:href="#DejaVuSans-67"/>
     <use x="652.996094" xlink:href="#DejaVuSans-72"/>
     <use x="694.078125" xlink:href="#DejaVuSans-65"/>
     <use x="755.601562" xlink:href="#DejaVuSans-73"/>
     <use x="807.701172" xlink:href="#DejaVuSans-73"/>
     <use x="859.800781" xlink:href="#DejaVuSans-69"/>
     <use x="887.583984" xlink:href="#DejaVuSans-6f"/>
     <use x="948.765625" xlink:href="#DejaVuSans-6e"/>
     <use x="1012.144531" xlink:href="#DejaVuSans-20"/>
     <use x="1043.931641" xlink:href="#DejaVuSans-70"/>
     <use x="1107.408203" xlink:href="#DejaVuSans-72"/>
     <use x="1148.490234" xlink:href="#DejaVuSans-65"/>
     <use x="1210.013672" xlink:href="#DejaVuSans-64"/>
     <use x="1273.490234" xlink:href="#DejaVuSans-69"/>
     <use x="1301.273438" xlink:href="#DejaVuSans-63"/>
     <use x="1356.253906" xlink:href="#DejaVuSans-74"/>
     <use x="1395.462891" xlink:href="#DejaVuSans-69"/>
     <use x="1423.246094" xlink:href="#DejaVuSans-76"/>
     <use x="1482.425781" xlink:href="#DejaVuSans-65"/>
    </g>
   </g>
  </g>
 </g>
 <defs>
  <clipPath id="p104459d87b">
   <rect height="217.44" width="334.8" x="60.88875" y="23.837812"/>
  </clipPath>
 </defs>
</svg>
