<?xml version="1.0" encoding="utf-8" standalone="no"?>
<!DOCTYPE svg PUBLIC "-//W3C//DTD SVG 1.1//EN"
  "http://www.w3.org/Graphics/SVG/1.1/DTD/svg11.dtd">
<!-- Created with matplotlib (http://matplotlib.org/) -->
<svg height="216pt" version="1.1" viewBox="0 0 216 216" width="216pt" xmlns="http://www.w3.org/2000/svg" xmlns:xlink="http://www.w3.org/1999/xlink">
 <defs>
  <style type="text/css">
*{stroke-linecap:butt;stroke-linejoin:round;}
  </style>
 </defs>
 <g id="figure_1">
  <g id="patch_1">
   <path d="M 0 216 
L 216 216 
L 216 0 
L 0 0 
z
" style="fill:#ffffff;"/>
  </g>
  <g id="axes_1">
   <g id="patch_2">
    <path d="M 27 192.24 
L 194.4 192.24 
L 194.4 25.92 
L 27 25.92 
z
" style="fill:#ffffff;"/>
   </g>
   <g id="PathCollection_1">
    <defs>
     <path d="M -3 3 
L 3 -3 
M -3 -3 
L 3 3 
" id="me359c13c48" style="stroke:#ff0000;stroke-width:1.5;"/>
    </defs>
    <g clip-path="url(#p26ce0f5f89)">
     <use style="fill:#ff0000;stroke:#ff0000;stroke-width:1.5;" x="85.233007" xlink:href="#me359c13c48" y="134.95148"/>
     <use style="fill:#ff0000;stroke:#ff0000;stroke-width:1.5;" x="171.213767" xlink:href="#me359c13c48" y="50.100849"/>
     <use style="fill:#ff0000;stroke:#ff0000;stroke-width:1.5;" x="139.123941" xlink:href="#me359c13c48" y="76.680843"/>
     <use style="fill:#ff0000;stroke:#ff0000;stroke-width:1.5;" x="116.917878" xlink:href="#me359c13c48" y="104.137321"/>
     <use style="fill:#ff0000;stroke:#ff0000;stroke-width:1.5;" x="56.327306" xlink:href="#me359c13c48" y="162.419947"/>
     <use style="fill:#ff0000;stroke:#ff0000;stroke-width:1.5;" x="109.039063" xlink:href="#me359c13c48" y="104.875209"/>
     <use style="fill:#ff0000;stroke:#ff0000;stroke-width:1.5;" x="49.922215" xlink:href="#me359c13c48" y="167.596846"/>
     <use style="fill:#ff0000;stroke:#ff0000;stroke-width:1.5;" x="166.398566" xlink:href="#me359c13c48" y="47.133334"/>
     <use style="fill:#ff0000;stroke:#ff0000;stroke-width:1.5;" x="56.677422" xlink:href="#me359c13c48" y="157.883533"/>
     <use style="fill:#ff0000;stroke:#ff0000;stroke-width:1.5;" x="95.641724" xlink:href="#me359c13c48" y="127.147335"/>
     <use style="fill:#ff0000;stroke:#ff0000;stroke-width:1.5;" x="102.769258" xlink:href="#me359c13c48" y="111.679797"/>
     <use style="fill:#ff0000;stroke:#ff0000;stroke-width:1.5;" x="141.336351" xlink:href="#me359c13c48" y="68.011104"/>
     <use style="fill:#ff0000;stroke:#ff0000;stroke-width:1.5;" x="102.154143" xlink:href="#me359c13c48" y="119.43472"/>
     <use style="fill:#ff0000;stroke:#ff0000;stroke-width:1.5;" x="58.716043" xlink:href="#me359c13c48" y="153.401777"/>
     <use style="fill:#ff0000;stroke:#ff0000;stroke-width:1.5;" x="83.319614" xlink:href="#me359c13c48" y="132.129795"/>
     <use style="fill:#ff0000;stroke:#ff0000;stroke-width:1.5;" x="140.202464" xlink:href="#me359c13c48" y="79.269248"/>
     <use style="fill:#ff0000;stroke:#ff0000;stroke-width:1.5;" x="62.998582" xlink:href="#me359c13c48" y="154.565452"/>
     <use style="fill:#ff0000;stroke:#ff0000;stroke-width:1.5;" x="94.678427" xlink:href="#me359c13c48" y="112.724369"/>
     <use style="fill:#ff0000;stroke:#ff0000;stroke-width:1.5;" x="140.665176" xlink:href="#me359c13c48" y="72.200901"/>
     <use style="fill:#ff0000;stroke:#ff0000;stroke-width:1.5;" x="81.606264" xlink:href="#me359c13c48" y="134.636293"/>
     <use style="fill:#ff0000;stroke:#ff0000;stroke-width:1.5;" x="137.159014" xlink:href="#me359c13c48" y="83.119652"/>
     <use style="fill:#ff0000;stroke:#ff0000;stroke-width:1.5;" x="106.869116" xlink:href="#me359c13c48" y="114.013576"/>
     <use style="fill:#ff0000;stroke:#ff0000;stroke-width:1.5;" x="124.622947" xlink:href="#me359c13c48" y="88.804992"/>
     <use style="fill:#ff0000;stroke:#ff0000;stroke-width:1.5;" x="119.556619" xlink:href="#me359c13c48" y="102.42783"/>
     <use style="fill:#ff0000;stroke:#ff0000;stroke-width:1.5;" x="49.401394" xlink:href="#me359c13c48" y="162.184828"/>
     <use style="fill:#ff0000;stroke:#ff0000;stroke-width:1.5;" x="137.927398" xlink:href="#me359c13c48" y="84.512336"/>
     <use style="fill:#ff0000;stroke:#ff0000;stroke-width:1.5;" x="120.087531" xlink:href="#me359c13c48" y="91.897443"/>
     <use style="fill:#ff0000;stroke:#ff0000;stroke-width:1.5;" x="107.506244" xlink:href="#me359c13c48" y="108.794088"/>
     <use style="fill:#ff0000;stroke:#ff0000;stroke-width:1.5;" x="172.033362" xlink:href="#me359c13c48" y="50.62609"/>
     <use style="fill:#ff0000;stroke:#ff0000;stroke-width:1.5;" x="164.990566" xlink:href="#me359c13c48" y="54.796753"/>
     <use style="fill:#ff0000;stroke:#ff0000;stroke-width:1.5;" x="89.577387" xlink:href="#me359c13c48" y="126.560886"/>
     <use style="fill:#ff0000;stroke:#ff0000;stroke-width:1.5;" x="58.405676" xlink:href="#me359c13c48" y="156.726892"/>
     <use style="fill:#ff0000;stroke:#ff0000;stroke-width:1.5;" x="131.902526" xlink:href="#me359c13c48" y="87.632416"/>
     <use style="fill:#ff0000;stroke:#ff0000;stroke-width:1.5;" x="35.118618" xlink:href="#me359c13c48" y="184.179337"/>
     <use style="fill:#ff0000;stroke:#ff0000;stroke-width:1.5;" x="118.610447" xlink:href="#me359c13c48" y="98.460158"/>
     <use style="fill:#ff0000;stroke:#ff0000;stroke-width:1.5;" x="131.2505" xlink:href="#me359c13c48" y="79.984147"/>
     <use style="fill:#ff0000;stroke:#ff0000;stroke-width:1.5;" x="102.238403" xlink:href="#me359c13c48" y="112.206596"/>
     <use style="fill:#ff0000;stroke:#ff0000;stroke-width:1.5;" x="69.688888" xlink:href="#me359c13c48" y="142.420061"/>
     <use style="fill:#ff0000;stroke:#ff0000;stroke-width:1.5;" x="112.594237" xlink:href="#me359c13c48" y="114.97917"/>
     <use style="fill:#ff0000;stroke:#ff0000;stroke-width:1.5;" x="116.19826" xlink:href="#me359c13c48" y="104.819137"/>
     <use style="fill:#ff0000;stroke:#ff0000;stroke-width:1.5;" x="157.086374" xlink:href="#me359c13c48" y="61.599297"/>
     <use style="fill:#ff0000;stroke:#ff0000;stroke-width:1.5;" x="95.75191" xlink:href="#me359c13c48" y="116.70445"/>
     <use style="fill:#ff0000;stroke:#ff0000;stroke-width:1.5;" x="103.744847" xlink:href="#me359c13c48" y="111.480158"/>
     <use style="fill:#ff0000;stroke:#ff0000;stroke-width:1.5;" x="111.016975" xlink:href="#me359c13c48" y="105.491176"/>
     <use style="fill:#ff0000;stroke:#ff0000;stroke-width:1.5;" x="81.366377" xlink:href="#me359c13c48" y="137.216298"/>
     <use style="fill:#ff0000;stroke:#ff0000;stroke-width:1.5;" x="79.316891" xlink:href="#me359c13c48" y="135.304959"/>
     <use style="fill:#ff0000;stroke:#ff0000;stroke-width:1.5;" x="91.687682" xlink:href="#me359c13c48" y="124.257096"/>
     <use style="fill:#ff0000;stroke:#ff0000;stroke-width:1.5;" x="100.798383" xlink:href="#me359c13c48" y="116.872702"/>
     <use style="fill:#ff0000;stroke:#ff0000;stroke-width:1.5;" x="85.342368" xlink:href="#me359c13c48" y="125.111122"/>
     <use style="fill:#ff0000;stroke:#ff0000;stroke-width:1.5;" x="120.405683" xlink:href="#me359c13c48" y="94.439087"/>
     <use style="fill:#ff0000;stroke:#ff0000;stroke-width:1.5;" x="108.682808" xlink:href="#me359c13c48" y="108.540105"/>
     <use style="fill:#ff0000;stroke:#ff0000;stroke-width:1.5;" x="147.731174" xlink:href="#me359c13c48" y="67.719458"/>
     <use style="fill:#ff0000;stroke:#ff0000;stroke-width:1.5;" x="154.702233" xlink:href="#me359c13c48" y="63.788762"/>
     <use style="fill:#ff0000;stroke:#ff0000;stroke-width:1.5;" x="176.434314" xlink:href="#me359c13c48" y="45.401338"/>
     <use style="fill:#ff0000;stroke:#ff0000;stroke-width:1.5;" x="101.57171" xlink:href="#me359c13c48" y="117.32358"/>
     <use style="fill:#ff0000;stroke:#ff0000;stroke-width:1.5;" x="94.072826" xlink:href="#me359c13c48" y="120.25941"/>
     <use style="fill:#ff0000;stroke:#ff0000;stroke-width:1.5;" x="146.014189" xlink:href="#me359c13c48" y="73.641853"/>
     <use style="fill:#ff0000;stroke:#ff0000;stroke-width:1.5;" x="144.870933" xlink:href="#me359c13c48" y="71.993429"/>
     <use style="fill:#ff0000;stroke:#ff0000;stroke-width:1.5;" x="108.257919" xlink:href="#me359c13c48" y="101.716837"/>
     <use style="fill:#ff0000;stroke:#ff0000;stroke-width:1.5;" x="59.65166" xlink:href="#me359c13c48" y="152.861663"/>
     <use style="fill:#ff0000;stroke:#ff0000;stroke-width:1.5;" x="98.818729" xlink:href="#me359c13c48" y="122.867443"/>
     <use style="fill:#ff0000;stroke:#ff0000;stroke-width:1.5;" x="108.289507" xlink:href="#me359c13c48" y="105.752694"/>
     <use style="fill:#ff0000;stroke:#ff0000;stroke-width:1.5;" x="107.009702" xlink:href="#me359c13c48" y="102.487617"/>
     <use style="fill:#ff0000;stroke:#ff0000;stroke-width:1.5;" x="48.260579" xlink:href="#me359c13c48" y="168.147592"/>
     <use style="fill:#ff0000;stroke:#ff0000;stroke-width:1.5;" x="71.527378" xlink:href="#me359c13c48" y="140.558302"/>
     <use style="fill:#ff0000;stroke:#ff0000;stroke-width:1.5;" x="136.615641" xlink:href="#me359c13c48" y="82.176438"/>
     <use style="fill:#ff0000;stroke:#ff0000;stroke-width:1.5;" x="99.70176" xlink:href="#me359c13c48" y="119.002868"/>
     <use style="fill:#ff0000;stroke:#ff0000;stroke-width:1.5;" x="127.898713" xlink:href="#me359c13c48" y="83.210729"/>
     <use style="fill:#ff0000;stroke:#ff0000;stroke-width:1.5;" x="126.874641" xlink:href="#me359c13c48" y="93.804687"/>
     <use style="fill:#ff0000;stroke:#ff0000;stroke-width:1.5;" x="186.281382" xlink:href="#me359c13c48" y="33.980663"/>
     <use style="fill:#ff0000;stroke:#ff0000;stroke-width:1.5;" x="153.771689" xlink:href="#me359c13c48" y="71.291211"/>
     <use style="fill:#ff0000;stroke:#ff0000;stroke-width:1.5;" x="162.024233" xlink:href="#me359c13c48" y="61.078911"/>
     <use style="fill:#ff0000;stroke:#ff0000;stroke-width:1.5;" x="65.163199" xlink:href="#me359c13c48" y="148.877885"/>
     <use style="fill:#ff0000;stroke:#ff0000;stroke-width:1.5;" x="156.717664" xlink:href="#me359c13c48" y="58.437315"/>
     <use style="fill:#ff0000;stroke:#ff0000;stroke-width:1.5;" x="127.397209" xlink:href="#me359c13c48" y="96.777253"/>
     <use style="fill:#ff0000;stroke:#ff0000;stroke-width:1.5;" x="82.560251" xlink:href="#me359c13c48" y="143.723168"/>
     <use style="fill:#ff0000;stroke:#ff0000;stroke-width:1.5;" x="81.454854" xlink:href="#me359c13c48" y="131.589347"/>
     <use style="fill:#ff0000;stroke:#ff0000;stroke-width:1.5;" x="120.479939" xlink:href="#me359c13c48" y="97.110637"/>
     <use style="fill:#ff0000;stroke:#ff0000;stroke-width:1.5;" x="81.96551" xlink:href="#me359c13c48" y="130.510545"/>
     <use style="fill:#ff0000;stroke:#ff0000;stroke-width:1.5;" x="156.053508" xlink:href="#me359c13c48" y="61.566185"/>
     <use style="fill:#ff0000;stroke:#ff0000;stroke-width:1.5;" x="84.252982" xlink:href="#me359c13c48" y="130.129502"/>
     <use style="fill:#ff0000;stroke:#ff0000;stroke-width:1.5;" x="103.815834" xlink:href="#me359c13c48" y="101.386657"/>
     <use style="fill:#ff0000;stroke:#ff0000;stroke-width:1.5;" x="103.838665" xlink:href="#me359c13c48" y="113.263866"/>
     <use style="fill:#ff0000;stroke:#ff0000;stroke-width:1.5;" x="99.567239" xlink:href="#me359c13c48" y="106.699955"/>
     <use style="fill:#ff0000;stroke:#ff0000;stroke-width:1.5;" x="150.718874" xlink:href="#me359c13c48" y="72.192104"/>
     <use style="fill:#ff0000;stroke:#ff0000;stroke-width:1.5;" x="142.536096" xlink:href="#me359c13c48" y="61.89476"/>
     <use style="fill:#ff0000;stroke:#ff0000;stroke-width:1.5;" x="87.531013" xlink:href="#me359c13c48" y="129.339185"/>
     <use style="fill:#ff0000;stroke:#ff0000;stroke-width:1.5;" x="125.181147" xlink:href="#me359c13c48" y="99.08471"/>
     <use style="fill:#ff0000;stroke:#ff0000;stroke-width:1.5;" x="135.298708" xlink:href="#me359c13c48" y="77.078345"/>
     <use style="fill:#ff0000;stroke:#ff0000;stroke-width:1.5;" x="56.217006" xlink:href="#me359c13c48" y="158.54607"/>
     <use style="fill:#ff0000;stroke:#ff0000;stroke-width:1.5;" x="108.846208" xlink:href="#me359c13c48" y="109.007898"/>
     <use style="fill:#ff0000;stroke:#ff0000;stroke-width:1.5;" x="159.888335" xlink:href="#me359c13c48" y="55.703237"/>
     <use style="fill:#ff0000;stroke:#ff0000;stroke-width:1.5;" x="60.690077" xlink:href="#me359c13c48" y="147.912954"/>
     <use style="fill:#ff0000;stroke:#ff0000;stroke-width:1.5;" x="100.072357" xlink:href="#me359c13c48" y="112.758209"/>
     <use style="fill:#ff0000;stroke:#ff0000;stroke-width:1.5;" x="156.766312" xlink:href="#me359c13c48" y="57.522879"/>
     <use style="fill:#ff0000;stroke:#ff0000;stroke-width:1.5;" x="166.233669" xlink:href="#me359c13c48" y="56.685075"/>
     <use style="fill:#ff0000;stroke:#ff0000;stroke-width:1.5;" x="83.33443" xlink:href="#me359c13c48" y="129.300211"/>
     <use style="fill:#ff0000;stroke:#ff0000;stroke-width:1.5;" x="57.192672" xlink:href="#me359c13c48" y="160.312362"/>
     <use style="fill:#ff0000;stroke:#ff0000;stroke-width:1.5;" x="106.288553" xlink:href="#me359c13c48" y="105.426516"/>
     <use style="fill:#ff0000;stroke:#ff0000;stroke-width:1.5;" x="98.823444" xlink:href="#me359c13c48" y="110.697418"/>
    </g>
   </g>
   <g id="patch_3">
    <path clip-path="url(#p26ce0f5f89)" d="M 146.91955 69.936566 
L 142.731179 78.114482 
L 141.335056 76.751496 
L 111.718806 105.664796 
L 110.322683 104.30181 
L 139.938933 75.38851 
L 138.542809 74.025524 
z
" style="stroke:#000000;stroke-linejoin:miter;"/>
   </g>
   <g id="matplotlib.axis_1">
    <g id="text_1">
     <!-- $x_1$ -->
     <defs>
      <path d="M 60.015625 54.6875 
L 34.90625 27.875 
L 50.296875 0 
L 39.984375 0 
L 28.421875 21.6875 
L 8.296875 0 
L -2.59375 0 
L 24.3125 28.8125 
L 10.015625 54.6875 
L 20.3125 54.6875 
L 30.8125 34.90625 
L 49.125 54.6875 
z
" id="DejaVuSans-Oblique-78"/>
      <path d="M 12.40625 8.296875 
L 28.515625 8.296875 
L 28.515625 63.921875 
L 10.984375 60.40625 
L 10.984375 69.390625 
L 28.421875 72.90625 
L 38.28125 72.90625 
L 38.28125 8.296875 
L 54.390625 8.296875 
L 54.390625 0 
L 12.40625 0 
z
" id="DejaVuSans-31"/>
     </defs>
     <g transform="translate(105.35 203.838437)scale(0.1 -0.1)">
      <use transform="translate(0 0.3125)" xlink:href="#DejaVuSans-Oblique-78"/>
      <use transform="translate(59.179688 -16.09375)scale(0.7)" xlink:href="#DejaVuSans-31"/>
     </g>
    </g>
   </g>
   <g id="matplotlib.axis_2">
    <g id="text_2">
     <!-- $x_2$ -->
     <defs>
      <path d="M 19.1875 8.296875 
L 53.609375 8.296875 
L 53.609375 0 
L 7.328125 0 
L 7.328125 8.296875 
Q 12.9375 14.109375 22.625 23.890625 
Q 32.328125 33.6875 34.8125 36.53125 
Q 39.546875 41.84375 41.421875 45.53125 
Q 43.3125 49.21875 43.3125 52.78125 
Q 43.3125 58.59375 39.234375 62.25 
Q 35.15625 65.921875 28.609375 65.921875 
Q 23.96875 65.921875 18.8125 64.3125 
Q 13.671875 62.703125 7.8125 59.421875 
L 7.8125 69.390625 
Q 13.765625 71.78125 18.9375 73 
Q 24.125 74.21875 28.421875 74.21875 
Q 39.75 74.21875 46.484375 68.546875 
Q 53.21875 62.890625 53.21875 53.421875 
Q 53.21875 48.921875 51.53125 44.890625 
Q 49.859375 40.875 45.40625 35.40625 
Q 44.1875 33.984375 37.640625 27.21875 
Q 31.109375 20.453125 19.1875 8.296875 
z
" id="DejaVuSans-32"/>
     </defs>
     <g transform="translate(20.920313 114.43)rotate(-90)scale(0.1 -0.1)">
      <use transform="translate(0 0.3125)" xlink:href="#DejaVuSans-Oblique-78"/>
      <use transform="translate(59.179688 -16.09375)scale(0.7)" xlink:href="#DejaVuSans-32"/>
     </g>
    </g>
   </g>
   <g id="patch_4">
    <path d="M 27 192.24 
L 27 25.92 
" style="fill:none;stroke:#000000;stroke-linecap:square;stroke-linejoin:miter;stroke-width:0.8;"/>
   </g>
   <g id="patch_5">
    <path d="M 194.4 192.24 
L 194.4 25.92 
" style="fill:none;stroke:#000000;stroke-linecap:square;stroke-linejoin:miter;stroke-width:0.8;"/>
   </g>
   <g id="patch_6">
    <path d="M 27 192.24 
L 194.4 192.24 
" style="fill:none;stroke:#000000;stroke-linecap:square;stroke-linejoin:miter;stroke-width:0.8;"/>
   </g>
   <g id="patch_7">
    <path d="M 27 25.92 
L 194.4 25.92 
" style="fill:none;stroke:#000000;stroke-linecap:square;stroke-linejoin:miter;stroke-width:0.8;"/>
   </g>
   <g id="text_3">
    <!-- Highly correlated 2D data -->
    <defs>
     <path d="M 9.8125 72.90625 
L 19.671875 72.90625 
L 19.671875 43.015625 
L 55.515625 43.015625 
L 55.515625 72.90625 
L 65.375 72.90625 
L 65.375 0 
L 55.515625 0 
L 55.515625 34.71875 
L 19.671875 34.71875 
L 19.671875 0 
L 9.8125 0 
z
" id="DejaVuSans-48"/>
     <path d="M 9.421875 54.6875 
L 18.40625 54.6875 
L 18.40625 0 
L 9.421875 0 
z
M 9.421875 75.984375 
L 18.40625 75.984375 
L 18.40625 64.59375 
L 9.421875 64.59375 
z
" id="DejaVuSans-69"/>
     <path d="M 45.40625 27.984375 
Q 45.40625 37.75 41.375 43.109375 
Q 37.359375 48.484375 30.078125 48.484375 
Q 22.859375 48.484375 18.828125 43.109375 
Q 14.796875 37.75 14.796875 27.984375 
Q 14.796875 18.265625 18.828125 12.890625 
Q 22.859375 7.515625 30.078125 7.515625 
Q 37.359375 7.515625 41.375 12.890625 
Q 45.40625 18.265625 45.40625 27.984375 
z
M 54.390625 6.78125 
Q 54.390625 -7.171875 48.1875 -13.984375 
Q 42 -20.796875 29.203125 -20.796875 
Q 24.46875 -20.796875 20.265625 -20.09375 
Q 16.0625 -19.390625 12.109375 -17.921875 
L 12.109375 -9.1875 
Q 16.0625 -11.328125 19.921875 -12.34375 
Q 23.78125 -13.375 27.78125 -13.375 
Q 36.625 -13.375 41.015625 -8.765625 
Q 45.40625 -4.15625 45.40625 5.171875 
L 45.40625 9.625 
Q 42.625 4.78125 38.28125 2.390625 
Q 33.9375 0 27.875 0 
Q 17.828125 0 11.671875 7.65625 
Q 5.515625 15.328125 5.515625 27.984375 
Q 5.515625 40.671875 11.671875 48.328125 
Q 17.828125 56 27.875 56 
Q 33.9375 56 38.28125 53.609375 
Q 42.625 51.21875 45.40625 46.390625 
L 45.40625 54.6875 
L 54.390625 54.6875 
z
" id="DejaVuSans-67"/>
     <path d="M 54.890625 33.015625 
L 54.890625 0 
L 45.90625 0 
L 45.90625 32.71875 
Q 45.90625 40.484375 42.875 44.328125 
Q 39.84375 48.1875 33.796875 48.1875 
Q 26.515625 48.1875 22.3125 43.546875 
Q 18.109375 38.921875 18.109375 30.90625 
L 18.109375 0 
L 9.078125 0 
L 9.078125 75.984375 
L 18.109375 75.984375 
L 18.109375 46.1875 
Q 21.34375 51.125 25.703125 53.5625 
Q 30.078125 56 35.796875 56 
Q 45.21875 56 50.046875 50.171875 
Q 54.890625 44.34375 54.890625 33.015625 
z
" id="DejaVuSans-68"/>
     <path d="M 9.421875 75.984375 
L 18.40625 75.984375 
L 18.40625 0 
L 9.421875 0 
z
" id="DejaVuSans-6c"/>
     <path d="M 32.171875 -5.078125 
Q 28.375 -14.84375 24.75 -17.8125 
Q 21.140625 -20.796875 15.09375 -20.796875 
L 7.90625 -20.796875 
L 7.90625 -13.28125 
L 13.1875 -13.28125 
Q 16.890625 -13.28125 18.9375 -11.515625 
Q 21 -9.765625 23.484375 -3.21875 
L 25.09375 0.875 
L 2.984375 54.6875 
L 12.5 54.6875 
L 29.59375 11.921875 
L 46.6875 54.6875 
L 56.203125 54.6875 
z
" id="DejaVuSans-79"/>
     <path id="DejaVuSans-20"/>
     <path d="M 48.78125 52.59375 
L 48.78125 44.1875 
Q 44.96875 46.296875 41.140625 47.34375 
Q 37.3125 48.390625 33.40625 48.390625 
Q 24.65625 48.390625 19.8125 42.84375 
Q 14.984375 37.3125 14.984375 27.296875 
Q 14.984375 17.28125 19.8125 11.734375 
Q 24.65625 6.203125 33.40625 6.203125 
Q 37.3125 6.203125 41.140625 7.25 
Q 44.96875 8.296875 48.78125 10.40625 
L 48.78125 2.09375 
Q 45.015625 0.34375 40.984375 -0.53125 
Q 36.96875 -1.421875 32.421875 -1.421875 
Q 20.0625 -1.421875 12.78125 6.34375 
Q 5.515625 14.109375 5.515625 27.296875 
Q 5.515625 40.671875 12.859375 48.328125 
Q 20.21875 56 33.015625 56 
Q 37.15625 56 41.109375 55.140625 
Q 45.0625 54.296875 48.78125 52.59375 
z
" id="DejaVuSans-63"/>
     <path d="M 30.609375 48.390625 
Q 23.390625 48.390625 19.1875 42.75 
Q 14.984375 37.109375 14.984375 27.296875 
Q 14.984375 17.484375 19.15625 11.84375 
Q 23.34375 6.203125 30.609375 6.203125 
Q 37.796875 6.203125 41.984375 11.859375 
Q 46.1875 17.53125 46.1875 27.296875 
Q 46.1875 37.015625 41.984375 42.703125 
Q 37.796875 48.390625 30.609375 48.390625 
z
M 30.609375 56 
Q 42.328125 56 49.015625 48.375 
Q 55.71875 40.765625 55.71875 27.296875 
Q 55.71875 13.875 49.015625 6.21875 
Q 42.328125 -1.421875 30.609375 -1.421875 
Q 18.84375 -1.421875 12.171875 6.21875 
Q 5.515625 13.875 5.515625 27.296875 
Q 5.515625 40.765625 12.171875 48.375 
Q 18.84375 56 30.609375 56 
z
" id="DejaVuSans-6f"/>
     <path d="M 41.109375 46.296875 
Q 39.59375 47.171875 37.8125 47.578125 
Q 36.03125 48 33.890625 48 
Q 26.265625 48 22.1875 43.046875 
Q 18.109375 38.09375 18.109375 28.8125 
L 18.109375 0 
L 9.078125 0 
L 9.078125 54.6875 
L 18.109375 54.6875 
L 18.109375 46.1875 
Q 20.953125 51.171875 25.484375 53.578125 
Q 30.03125 56 36.53125 56 
Q 37.453125 56 38.578125 55.875 
Q 39.703125 55.765625 41.0625 55.515625 
z
" id="DejaVuSans-72"/>
     <path d="M 56.203125 29.59375 
L 56.203125 25.203125 
L 14.890625 25.203125 
Q 15.484375 15.921875 20.484375 11.0625 
Q 25.484375 6.203125 34.421875 6.203125 
Q 39.59375 6.203125 44.453125 7.46875 
Q 49.3125 8.734375 54.109375 11.28125 
L 54.109375 2.78125 
Q 49.265625 0.734375 44.1875 -0.34375 
Q 39.109375 -1.421875 33.890625 -1.421875 
Q 20.796875 -1.421875 13.15625 6.1875 
Q 5.515625 13.8125 5.515625 26.8125 
Q 5.515625 40.234375 12.765625 48.109375 
Q 20.015625 56 32.328125 56 
Q 43.359375 56 49.78125 48.890625 
Q 56.203125 41.796875 56.203125 29.59375 
z
M 47.21875 32.234375 
Q 47.125 39.59375 43.09375 43.984375 
Q 39.0625 48.390625 32.421875 48.390625 
Q 24.90625 48.390625 20.390625 44.140625 
Q 15.875 39.890625 15.1875 32.171875 
z
" id="DejaVuSans-65"/>
     <path d="M 34.28125 27.484375 
Q 23.390625 27.484375 19.1875 25 
Q 14.984375 22.515625 14.984375 16.5 
Q 14.984375 11.71875 18.140625 8.90625 
Q 21.296875 6.109375 26.703125 6.109375 
Q 34.1875 6.109375 38.703125 11.40625 
Q 43.21875 16.703125 43.21875 25.484375 
L 43.21875 27.484375 
z
M 52.203125 31.203125 
L 52.203125 0 
L 43.21875 0 
L 43.21875 8.296875 
Q 40.140625 3.328125 35.546875 0.953125 
Q 30.953125 -1.421875 24.3125 -1.421875 
Q 15.921875 -1.421875 10.953125 3.296875 
Q 6 8.015625 6 15.921875 
Q 6 25.140625 12.171875 29.828125 
Q 18.359375 34.515625 30.609375 34.515625 
L 43.21875 34.515625 
L 43.21875 35.40625 
Q 43.21875 41.609375 39.140625 45 
Q 35.0625 48.390625 27.6875 48.390625 
Q 23 48.390625 18.546875 47.265625 
Q 14.109375 46.140625 10.015625 43.890625 
L 10.015625 52.203125 
Q 14.9375 54.109375 19.578125 55.046875 
Q 24.21875 56 28.609375 56 
Q 40.484375 56 46.34375 49.84375 
Q 52.203125 43.703125 52.203125 31.203125 
z
" id="DejaVuSans-61"/>
     <path d="M 18.3125 70.21875 
L 18.3125 54.6875 
L 36.8125 54.6875 
L 36.8125 47.703125 
L 18.3125 47.703125 
L 18.3125 18.015625 
Q 18.3125 11.328125 20.140625 9.421875 
Q 21.96875 7.515625 27.59375 7.515625 
L 36.8125 7.515625 
L 36.8125 0 
L 27.59375 0 
Q 17.1875 0 13.234375 3.875 
Q 9.28125 7.765625 9.28125 18.015625 
L 9.28125 47.703125 
L 2.6875 47.703125 
L 2.6875 54.6875 
L 9.28125 54.6875 
L 9.28125 70.21875 
z
" id="DejaVuSans-74"/>
     <path d="M 45.40625 46.390625 
L 45.40625 75.984375 
L 54.390625 75.984375 
L 54.390625 0 
L 45.40625 0 
L 45.40625 8.203125 
Q 42.578125 3.328125 38.25 0.953125 
Q 33.9375 -1.421875 27.875 -1.421875 
Q 17.96875 -1.421875 11.734375 6.484375 
Q 5.515625 14.40625 5.515625 27.296875 
Q 5.515625 40.1875 11.734375 48.09375 
Q 17.96875 56 27.875 56 
Q 33.9375 56 38.25 53.625 
Q 42.578125 51.265625 45.40625 46.390625 
z
M 14.796875 27.296875 
Q 14.796875 17.390625 18.875 11.75 
Q 22.953125 6.109375 30.078125 6.109375 
Q 37.203125 6.109375 41.296875 11.75 
Q 45.40625 17.390625 45.40625 27.296875 
Q 45.40625 37.203125 41.296875 42.84375 
Q 37.203125 48.484375 30.078125 48.484375 
Q 22.953125 48.484375 18.875 42.84375 
Q 14.796875 37.203125 14.796875 27.296875 
z
" id="DejaVuSans-64"/>
     <path d="M 19.671875 64.796875 
L 19.671875 8.109375 
L 31.59375 8.109375 
Q 46.6875 8.109375 53.6875 14.9375 
Q 60.6875 21.78125 60.6875 36.53125 
Q 60.6875 51.171875 53.6875 57.984375 
Q 46.6875 64.796875 31.59375 64.796875 
z
M 9.8125 72.90625 
L 30.078125 72.90625 
Q 51.265625 72.90625 61.171875 64.09375 
Q 71.09375 55.28125 71.09375 36.53125 
Q 71.09375 17.671875 61.125 8.828125 
Q 51.171875 0 30.078125 0 
L 9.8125 0 
z
" id="DejaVuSans-44"/>
    </defs>
    <g transform="translate(33.22875 19.92)scale(0.12 -0.12)">
     <use xlink:href="#DejaVuSans-48"/>
     <use x="75.195312" xlink:href="#DejaVuSans-69"/>
     <use x="102.978516" xlink:href="#DejaVuSans-67"/>
     <use x="166.455078" xlink:href="#DejaVuSans-68"/>
     <use x="229.833984" xlink:href="#DejaVuSans-6c"/>
     <use x="257.617188" xlink:href="#DejaVuSans-79"/>
     <use x="316.796875" xlink:href="#DejaVuSans-20"/>
     <use x="348.583984" xlink:href="#DejaVuSans-63"/>
     <use x="403.564453" xlink:href="#DejaVuSans-6f"/>
     <use x="464.746094" xlink:href="#DejaVuSans-72"/>
     <use x="505.84375" xlink:href="#DejaVuSans-72"/>
     <use x="546.925781" xlink:href="#DejaVuSans-65"/>
     <use x="608.449219" xlink:href="#DejaVuSans-6c"/>
     <use x="636.232422" xlink:href="#DejaVuSans-61"/>
     <use x="697.511719" xlink:href="#DejaVuSans-74"/>
     <use x="736.720703" xlink:href="#DejaVuSans-65"/>
     <use x="798.244141" xlink:href="#DejaVuSans-64"/>
     <use x="861.720703" xlink:href="#DejaVuSans-20"/>
     <use x="893.507812" xlink:href="#DejaVuSans-32"/>
     <use x="957.130859" xlink:href="#DejaVuSans-44"/>
     <use x="1034.132812" xlink:href="#DejaVuSans-20"/>
     <use x="1065.919922" xlink:href="#DejaVuSans-64"/>
     <use x="1129.396484" xlink:href="#DejaVuSans-61"/>
     <use x="1190.675781" xlink:href="#DejaVuSans-74"/>
     <use x="1229.884766" xlink:href="#DejaVuSans-61"/>
    </g>
   </g>
  </g>
 </g>
 <defs>
  <clipPath id="p26ce0f5f89">
   <rect height="166.32" width="167.4" x="27" y="25.92"/>
  </clipPath>
 </defs>
</svg>
