<?xml version="1.0" encoding="utf-8" standalone="no"?>
<!DOCTYPE svg PUBLIC "-//W3C//DTD SVG 1.1//EN"
  "http://www.w3.org/Graphics/SVG/1.1/DTD/svg11.dtd">
<!-- Created with matplotlib (http://matplotlib.org/) -->
<svg height="288pt" version="1.1" viewBox="0 0 864 288" width="864pt" xmlns="http://www.w3.org/2000/svg" xmlns:xlink="http://www.w3.org/1999/xlink">
 <defs>
  <style type="text/css">
*{stroke-linecap:butt;stroke-linejoin:round;}
  </style>
 </defs>
 <g id="figure_1">
  <g id="patch_1">
   <path d="M 0 288 
L 864 288 
L 864 0 
L 0 0 
z
" style="fill:#ffffff;"/>
  </g>
  <g id="axes_1">
   <g id="patch_2">
    <path d="M 52.04 237.4 
L 276.66 237.4 
L 276.66 32.64 
L 52.04 32.64 
z
" style="fill:#ffffff;"/>
   </g>
   <g id="PathCollection_1">
    <defs>
     <path d="M 0 3 
C 0.795609 3 1.55874 2.683901 2.12132 2.12132 
C 2.683901 1.55874 3 0.795609 3 0 
C 3 -0.795609 2.683901 -1.55874 2.12132 -2.12132 
C 1.55874 -2.683901 0.795609 -3 0 -3 
C -0.795609 -3 -1.55874 -2.683901 -2.12132 -2.12132 
C -2.683901 -1.55874 -3 -0.795609 -3 0 
C -3 0.795609 -2.683901 1.55874 -2.12132 2.12132 
C -1.55874 2.683901 -0.795609 3 0 3 
z
" id="m8f7df2a05f" style="stroke:#000000;"/>
    </defs>
    <g clip-path="url(#p5362ddd699)">
     <use style="fill:#ff0000;stroke:#000000;" x="133.946747" xlink:href="#m8f7df2a05f" y="188.158623"/>
     <use style="fill:#ff0000;stroke:#000000;" x="204.284882" xlink:href="#m8f7df2a05f" y="110.329847"/>
     <use style="fill:#ff0000;stroke:#000000;" x="96.527991" xlink:href="#m8f7df2a05f" y="178.909774"/>
     <use style="fill:#ff0000;stroke:#000000;" x="72.351223" xlink:href="#m8f7df2a05f" y="108.765306"/>
     <use style="fill:#ff0000;stroke:#000000;" x="77.419156" xlink:href="#m8f7df2a05f" y="95.663578"/>
     <use style="fill:#ff0000;stroke:#000000;" x="111.90505" xlink:href="#m8f7df2a05f" y="194.616051"/>
     <use style="fill:#ff0000;stroke:#000000;" x="161.401227" xlink:href="#m8f7df2a05f" y="181.700791"/>
     <use style="fill:#ff0000;stroke:#000000;" x="204.236421" xlink:href="#m8f7df2a05f" y="118.319134"/>
     <use style="fill:#ff0000;stroke:#000000;" x="172.84787" xlink:href="#m8f7df2a05f" y="123.361271"/>
     <use style="fill:#ff0000;stroke:#000000;" x="118.79465" xlink:href="#m8f7df2a05f" y="86.360253"/>
     <use style="fill:#ff0000;stroke:#000000;" x="134.926985" xlink:href="#m8f7df2a05f" y="83.678478"/>
     <use style="fill:#ff0000;stroke:#000000;" x="118.865309" xlink:href="#m8f7df2a05f" y="75.434839"/>
     <use style="fill:#ff0000;stroke:#000000;" x="262.979672" xlink:href="#m8f7df2a05f" y="117.947946"/>
     <use style="fill:#ff0000;stroke:#000000;" x="201.586579" xlink:href="#m8f7df2a05f" y="119.280663"/>
     <use style="fill:#ff0000;stroke:#000000;" x="210.114847" xlink:href="#m8f7df2a05f" y="112.844525"/>
     <use style="fill:#ff0000;stroke:#000000;" x="229.598159" xlink:href="#m8f7df2a05f" y="133.515977"/>
     <use style="fill:#ff0000;stroke:#000000;" x="66.007294" xlink:href="#m8f7df2a05f" y="182.468097"/>
     <use style="fill:#ff0000;stroke:#000000;" x="223.636774" xlink:href="#m8f7df2a05f" y="111.959732"/>
     <use style="fill:#ff0000;stroke:#000000;" x="107.140254" xlink:href="#m8f7df2a05f" y="195.007721"/>
     <use style="fill:#ff0000;stroke:#000000;" x="65.353434" xlink:href="#m8f7df2a05f" y="195.518699"/>
     <use style="fill:#ff0000;stroke:#000000;" x="173.932347" xlink:href="#m8f7df2a05f" y="121.89634"/>
     <use style="fill:#ff0000;stroke:#000000;" x="162.866974" xlink:href="#m8f7df2a05f" y="161.896213"/>
     <use style="fill:#ff0000;stroke:#000000;" x="156.832726" xlink:href="#m8f7df2a05f" y="193.631401"/>
     <use style="fill:#ff0000;stroke:#000000;" x="213.519747" xlink:href="#m8f7df2a05f" y="105.173703"/>
     <use style="fill:#ff0000;stroke:#000000;" x="129.359837" xlink:href="#m8f7df2a05f" y="178.457449"/>
     <use style="fill:#ff0000;stroke:#000000;" x="141.31992" xlink:href="#m8f7df2a05f" y="184.393148"/>
     <use style="fill:#ff0000;stroke:#000000;" x="127.633664" xlink:href="#m8f7df2a05f" y="201.80735"/>
     <use style="fill:#ff0000;stroke:#000000;" x="131.820416" xlink:href="#m8f7df2a05f" y="80.065503"/>
     <use style="fill:#ff0000;stroke:#000000;" x="233.965017" xlink:href="#m8f7df2a05f" y="145.815872"/>
     <use style="fill:#ff0000;stroke:#000000;" x="176.136346" xlink:href="#m8f7df2a05f" y="189.632748"/>
     <use style="fill:#ff0000;stroke:#000000;" x="166.246779" xlink:href="#m8f7df2a05f" y="178.01796"/>
     <use style="fill:#ff0000;stroke:#000000;" x="146.007127" xlink:href="#m8f7df2a05f" y="180.337888"/>
     <use style="fill:#ff0000;stroke:#000000;" x="141.169024" xlink:href="#m8f7df2a05f" y="200.426376"/>
     <use style="fill:#ff0000;stroke:#000000;" x="170.27563" xlink:href="#m8f7df2a05f" y="183.964031"/>
     <use style="fill:#ff0000;stroke:#000000;" x="214.283435" xlink:href="#m8f7df2a05f" y="125.292971"/>
     <use style="fill:#ff0000;stroke:#000000;" x="194.544142" xlink:href="#m8f7df2a05f" y="118.708313"/>
     <use style="fill:#ff0000;stroke:#000000;" x="250.900113" xlink:href="#m8f7df2a05f" y="127.97752"/>
     <use style="fill:#ff0000;stroke:#000000;" x="102.104465" xlink:href="#m8f7df2a05f" y="96.749635"/>
     <use style="fill:#ff0000;stroke:#000000;" x="206.107571" xlink:href="#m8f7df2a05f" y="109.35661"/>
    </g>
   </g>
   <g id="PathCollection_2">
    <defs>
     <path d="M 0 3 
C 0.795609 3 1.55874 2.683901 2.12132 2.12132 
C 2.683901 1.55874 3 0.795609 3 0 
C 3 -0.795609 2.683901 -1.55874 2.12132 -2.12132 
C 1.55874 -2.683901 0.795609 -3 0 -3 
C -0.795609 -3 -1.55874 -2.683901 -2.12132 -2.12132 
C -2.683901 -1.55874 -3 -0.795609 -3 0 
C -3 0.795609 -2.683901 1.55874 -2.12132 2.12132 
C -1.55874 2.683901 -0.795609 3 0 3 
z
" id="m21139eb828" style="stroke:#000000;"/>
    </defs>
    <g clip-path="url(#p5362ddd699)">
     <use style="fill:#008000;stroke:#000000;" x="167.348256" xlink:href="#m21139eb828" y="173.296789"/>
     <use style="fill:#008000;stroke:#000000;" x="229.391669" xlink:href="#m21139eb828" y="114.725452"/>
     <use style="fill:#008000;stroke:#000000;" x="259.604937" xlink:href="#m21139eb828" y="115.325792"/>
     <use style="fill:#008000;stroke:#000000;" x="244.226694" xlink:href="#m21139eb828" y="92.604245"/>
     <use style="fill:#008000;stroke:#000000;" x="212.538197" xlink:href="#m21139eb828" y="127.359767"/>
     <use style="fill:#008000;stroke:#000000;" x="128.656475" xlink:href="#m21139eb828" y="184.926237"/>
     <use style="fill:#008000;stroke:#000000;" x="143.056974" xlink:href="#m21139eb828" y="201.368641"/>
     <use style="fill:#008000;stroke:#000000;" x="64.575978" xlink:href="#m21139eb828" y="202.482061"/>
     <use style="fill:#008000;stroke:#000000;" x="253.040296" xlink:href="#m21139eb828" y="123.498385"/>
     <use style="fill:#008000;stroke:#000000;" x="116.975956" xlink:href="#m21139eb828" y="189.089986"/>
     <use style="fill:#008000;stroke:#000000;" x="220.314366" xlink:href="#m21139eb828" y="139.098797"/>
     <use style="fill:#008000;stroke:#000000;" x="183.969777" xlink:href="#m21139eb828" y="174.224889"/>
     <use style="fill:#008000;stroke:#000000;" x="142.015522" xlink:href="#m21139eb828" y="182.126995"/>
     <use style="fill:#008000;stroke:#000000;" x="173.45396" xlink:href="#m21139eb828" y="109.808165"/>
     <use style="fill:#008000;stroke:#000000;" x="128.052923" xlink:href="#m21139eb828" y="80.332815"/>
     <use style="fill:#008000;stroke:#000000;" x="124.806747" xlink:href="#m21139eb828" y="81.667204"/>
     <use style="fill:#008000;stroke:#000000;" x="122.664274" xlink:href="#m21139eb828" y="83.092366"/>
     <use style="fill:#008000;stroke:#000000;" x="220.80216" xlink:href="#m21139eb828" y="121.137245"/>
     <use style="fill:#008000;stroke:#000000;" x="231.222648" xlink:href="#m21139eb828" y="103.558269"/>
     <use style="fill:#008000;stroke:#000000;" x="84.00814" xlink:href="#m21139eb828" y="99.916105"/>
     <use style="fill:#008000;stroke:#000000;" x="214.024545" xlink:href="#m21139eb828" y="97.892184"/>
     <use style="fill:#008000;stroke:#000000;" x="121.502151" xlink:href="#m21139eb828" y="87.944623"/>
     <use style="fill:#008000;stroke:#000000;" x="211.021679" xlink:href="#m21139eb828" y="113.657335"/>
     <use style="fill:#008000;stroke:#000000;" x="133.210776" xlink:href="#m21139eb828" y="77.773629"/>
     <use style="fill:#008000;stroke:#000000;" x="219.297597" xlink:href="#m21139eb828" y="117.897057"/>
     <use style="fill:#008000;stroke:#000000;" x="218.998595" xlink:href="#m21139eb828" y="127.242707"/>
     <use style="fill:#008000;stroke:#000000;" x="145.767638" xlink:href="#m21139eb828" y="174.331998"/>
     <use style="fill:#008000;stroke:#000000;" x="240.846642" xlink:href="#m21139eb828" y="114.198676"/>
     <use style="fill:#008000;stroke:#000000;" x="130.608695" xlink:href="#m21139eb828" y="205.511104"/>
     <use style="fill:#008000;stroke:#000000;" x="166.844566" xlink:href="#m21139eb828" y="110.02551"/>
     <use style="fill:#008000;stroke:#000000;" x="126.795342" xlink:href="#m21139eb828" y="181.89471"/>
     <use style="fill:#008000;stroke:#000000;" x="203.176321" xlink:href="#m21139eb828" y="104.975365"/>
     <use style="fill:#008000;stroke:#000000;" x="224.002967" xlink:href="#m21139eb828" y="100.543602"/>
     <use style="fill:#008000;stroke:#000000;" x="213.448587" xlink:href="#m21139eb828" y="114.349431"/>
    </g>
   </g>
   <g id="PathCollection_3">
    <defs>
     <path d="M 0 3 
C 0.795609 3 1.55874 2.683901 2.12132 2.12132 
C 2.683901 1.55874 3 0.795609 3 0 
C 3 -0.795609 2.683901 -1.55874 2.12132 -2.12132 
C 1.55874 -2.683901 0.795609 -3 0 -3 
C -0.795609 -3 -1.55874 -2.683901 -2.12132 -2.12132 
C -2.683901 -1.55874 -3 -0.795609 -3 0 
C -3 0.795609 -2.683901 1.55874 -2.12132 2.12132 
C -1.55874 2.683901 -0.795609 3 0 3 
z
" id="m614b681aaa" style="stroke:#000000;"/>
    </defs>
    <g clip-path="url(#p5362ddd699)">
     <use style="fill:#0000ff;stroke:#000000;" x="126.17854" xlink:href="#m614b681aaa" y="78.85839"/>
     <use style="fill:#0000ff;stroke:#000000;" x="262.785808" xlink:href="#m614b681aaa" y="127.654371"/>
     <use style="fill:#0000ff;stroke:#000000;" x="214.795289" xlink:href="#m614b681aaa" y="121.882739"/>
     <use style="fill:#0000ff;stroke:#000000;" x="129.037775" xlink:href="#m614b681aaa" y="192.648234"/>
     <use style="fill:#0000ff;stroke:#000000;" x="199.737914" xlink:href="#m614b681aaa" y="104.813325"/>
     <use style="fill:#0000ff;stroke:#000000;" x="91.078385" xlink:href="#m614b681aaa" y="87.080346"/>
     <use style="fill:#0000ff;stroke:#000000;" x="193.487715" xlink:href="#m614b681aaa" y="124.588517"/>
     <use style="fill:#0000ff;stroke:#000000;" x="84.910077" xlink:href="#m614b681aaa" y="98.361857"/>
     <use style="fill:#0000ff;stroke:#000000;" x="214.009991" xlink:href="#m614b681aaa" y="106.678179"/>
     <use style="fill:#0000ff;stroke:#000000;" x="90.564971" xlink:href="#m614b681aaa" y="212.974645"/>
     <use style="fill:#0000ff;stroke:#000000;" x="235.898108" xlink:href="#m614b681aaa" y="127.82599"/>
     <use style="fill:#0000ff;stroke:#000000;" x="241.215974" xlink:href="#m614b681aaa" y="118.036684"/>
     <use style="fill:#0000ff;stroke:#000000;" x="116.058395" xlink:href="#m614b681aaa" y="92.010835"/>
     <use style="fill:#0000ff;stroke:#000000;" x="108.348943" xlink:href="#m614b681aaa" y="183.017132"/>
     <use style="fill:#0000ff;stroke:#000000;" x="137.044461" xlink:href="#m614b681aaa" y="184.507081"/>
     <use style="fill:#0000ff;stroke:#000000;" x="175.244906" xlink:href="#m614b681aaa" y="109.244821"/>
     <use style="fill:#0000ff;stroke:#000000;" x="116.667672" xlink:href="#m614b681aaa" y="82.257438"/>
     <use style="fill:#0000ff;stroke:#000000;" x="237.141919" xlink:href="#m614b681aaa" y="109.343807"/>
     <use style="fill:#0000ff;stroke:#000000;" x="236.74352" xlink:href="#m614b681aaa" y="107.812215"/>
     <use style="fill:#0000ff;stroke:#000000;" x="158.745655" xlink:href="#m614b681aaa" y="178.154123"/>
     <use style="fill:#0000ff;stroke:#000000;" x="235.180617" xlink:href="#m614b681aaa" y="111.475986"/>
     <use style="fill:#0000ff;stroke:#000000;" x="235.90264" xlink:href="#m614b681aaa" y="102.91226"/>
     <use style="fill:#0000ff;stroke:#000000;" x="105.458661" xlink:href="#m614b681aaa" y="89.920559"/>
     <use style="fill:#0000ff;stroke:#000000;" x="67.96554" xlink:href="#m614b681aaa" y="101.439823"/>
     <use style="fill:#0000ff;stroke:#000000;" x="97.715532" xlink:href="#m614b681aaa" y="222.591367"/>
     <use style="fill:#0000ff;stroke:#000000;" x="124.986713" xlink:href="#m614b681aaa" y="184.726168"/>
     <use style="fill:#0000ff;stroke:#000000;" x="227.403524" xlink:href="#m614b681aaa" y="115.862637"/>
    </g>
   </g>
   <g id="matplotlib.axis_1">
    <g id="xtick_1">
     <g id="line2d_1">
      <defs>
       <path d="M 0 0 
L 0 3.5 
" id="ma89d109389" style="stroke:#000000;stroke-width:0.8;"/>
      </defs>
      <g>
       <use style="stroke:#000000;stroke-width:0.8;" x="57.290622" xlink:href="#ma89d109389" y="237.4"/>
      </g>
     </g>
     <g id="text_1">
      <!-- −2 -->
      <defs>
       <path d="M 57.03125 24.265625 
L 7.28125 24.265625 
L 7.28125 30.375 
L 57.03125 30.375 
z
" id="Georgia-2212"/>
       <path d="M 51.125 0 
L 5.375 0 
L 5.375 6.640625 
Q 6.6875 8.15625 9.03125 10.03125 
Q 11.375 11.921875 14.59375 14.109375 
Q 16.546875 15.4375 19.28125 17 
Q 22.015625 18.5625 25.484375 20.40625 
Q 29.34375 22.46875 31.421875 24.03125 
Q 33.5 25.59375 35.203125 27.875 
Q 36.328125 29.390625 37.015625 31.65625 
Q 37.703125 33.9375 37.703125 38.140625 
Q 37.703125 44.234375 34.421875 47.09375 
Q 31.15625 49.953125 26.03125 49.953125 
Q 22.859375 49.953125 20.015625 48.703125 
Q 17.1875 47.46875 15.765625 45.265625 
Q 16.109375 43.703125 16.625 41.546875 
Q 17.140625 39.40625 17.140625 37.359375 
Q 17.140625 35.5 15.59375 34.0625 
Q 14.0625 32.625 11.03125 32.625 
Q 8.59375 32.625 7.265625 34.296875 
Q 5.953125 35.984375 5.953125 38.8125 
Q 5.953125 41.453125 7.421875 44.109375 
Q 8.890625 46.78125 11.625 49.03125 
Q 14.3125 51.21875 18.265625 52.578125 
Q 22.21875 53.953125 26.8125 53.953125 
Q 36.8125 53.953125 42.6875 49.484375 
Q 48.578125 45.015625 48.578125 37.546875 
Q 48.578125 33.984375 47.53125 31.046875 
Q 46.484375 28.125 44.140625 25.875 
Q 41.546875 23.390625 38.078125 21.609375 
Q 34.625 19.828125 27.484375 16.65625 
Q 23.25 14.75 19.578125 12.671875 
Q 15.921875 10.59375 13.578125 8.640625 
L 51.125 8.640625 
z
" id="Georgia-32"/>
      </defs>
      <g transform="translate(50.080309 253.47125)scale(0.12 -0.12)">
       <use xlink:href="#Georgia-2212"/>
       <use x="64.306641" xlink:href="#Georgia-32"/>
      </g>
     </g>
    </g>
    <g id="xtick_2">
     <g id="line2d_2">
      <g>
       <use style="stroke:#000000;stroke-width:0.8;" x="112.132966" xlink:href="#ma89d109389" y="237.4"/>
      </g>
     </g>
     <g id="text_2">
      <!-- −1 -->
      <defs>
       <path d="M 39.5 0 
L 6.59375 0 
L 6.59375 3.46875 
Q 8.0625 3.5625 11.15625 3.875 
Q 14.265625 4.203125 15.4375 4.546875 
Q 16.9375 5.03125 17.75 6.125 
Q 18.5625 7.234375 18.5625 9.421875 
L 18.5625 43.703125 
L 6.390625 43.703125 
L 6.390625 47.796875 
L 9.078125 47.796875 
Q 14.359375 47.796875 18.53125 49.75 
Q 22.703125 51.703125 24.515625 53.953125 
L 28.5625 53.953125 
Q 28.421875 50.78125 28.265625 46.53125 
Q 28.125 42.28125 28.125 38.921875 
L 28.125 9.96875 
Q 28.125 8.25 28.875 6.90625 
Q 29.640625 5.5625 31.0625 4.9375 
Q 32.328125 4.390625 35.203125 3.953125 
Q 38.09375 3.515625 39.5 3.46875 
z
" id="Georgia-31"/>
      </defs>
      <g transform="translate(105.696091 253.47125)scale(0.12 -0.12)">
       <use xlink:href="#Georgia-2212"/>
       <use x="64.306641" xlink:href="#Georgia-31"/>
      </g>
     </g>
    </g>
    <g id="xtick_3">
     <g id="line2d_3">
      <g>
       <use style="stroke:#000000;stroke-width:0.8;" x="166.975311" xlink:href="#ma89d109389" y="237.4"/>
      </g>
     </g>
     <g id="text_3">
      <!-- 0 -->
      <defs>
       <path d="M 50.140625 45.609375 
Q 53.265625 41.84375 54.796875 36.78125 
Q 56.34375 31.734375 56.34375 26.21875 
Q 56.34375 19.578125 54.4375 14.328125 
Q 52.546875 9.078125 49.21875 5.609375 
Q 45.796875 2.046875 41.109375 0.234375 
Q 36.421875 -1.5625 30.671875 -1.5625 
Q 24.359375 -1.5625 19.421875 0.53125 
Q 14.5 2.640625 11.421875 6.296875 
Q 8.203125 10.109375 6.609375 15.203125 
Q 5.03125 20.3125 5.03125 26.21875 
Q 5.03125 32.03125 6.5625 36.90625 
Q 8.109375 41.796875 11.375 45.75 
Q 14.5 49.5625 19.421875 51.75 
Q 24.359375 53.953125 30.71875 53.953125 
Q 37.40625 53.953125 42.1875 51.703125 
Q 46.96875 49.46875 50.140625 45.609375 
z
M 45.5625 26.21875 
Q 45.5625 37.84375 41.578125 44.234375 
Q 37.59375 50.640625 30.765625 50.640625 
Q 23.828125 50.640625 19.828125 44.234375 
Q 15.828125 37.84375 15.828125 26.21875 
Q 15.828125 15.1875 19.65625 8.46875 
Q 23.484375 1.765625 30.671875 1.765625 
Q 37.84375 1.765625 41.703125 8.46875 
Q 45.5625 15.1875 45.5625 26.21875 
z
" id="Georgia-30"/>
      </defs>
      <g transform="translate(163.292811 253.47125)scale(0.12 -0.12)">
       <use xlink:href="#Georgia-30"/>
      </g>
     </g>
    </g>
    <g id="xtick_4">
     <g id="line2d_4">
      <g>
       <use style="stroke:#000000;stroke-width:0.8;" x="221.817655" xlink:href="#ma89d109389" y="237.4"/>
      </g>
     </g>
     <g id="text_4">
      <!-- 1 -->
      <g transform="translate(219.23953 253.47125)scale(0.12 -0.12)">
       <use xlink:href="#Georgia-31"/>
      </g>
     </g>
    </g>
    <g id="xtick_5">
     <g id="line2d_5">
      <g>
       <use style="stroke:#000000;stroke-width:0.8;" x="276.66" xlink:href="#ma89d109389" y="237.4"/>
      </g>
     </g>
     <g id="text_5">
      <!-- 2 -->
      <g transform="translate(273.308438 253.47125)scale(0.12 -0.12)">
       <use xlink:href="#Georgia-32"/>
      </g>
     </g>
    </g>
    <g id="text_6">
     <!-- $x_1$ -->
     <defs>
      <path d="M 24.296875 35.5 
L 25.5 29.796875 
Q 30.796875 37.90625 34.046875 41 
Q 37.296875 44.09375 40.59375 44.09375 
Q 42.40625 44.09375 43.546875 43.046875 
Q 44.703125 42 44.703125 40.390625 
Q 44.703125 38.796875 43.75 37.796875 
Q 42.796875 36.796875 41.296875 36.796875 
Q 40.40625 36.796875 38.90625 37.640625 
Q 37.40625 38.5 36.09375 38.5 
Q 33.203125 38.5 26.296875 26.40625 
Q 26.296875 25.09375 27.09375 21.90625 
L 30.296875 8.5 
Q 31.296875 4.40625 33.296875 4.40625 
Q 34.90625 4.40625 38 8.40625 
Q 38.296875 8.796875 38.6875 9.34375 
Q 39.09375 9.90625 39.390625 10.34375 
Q 39.703125 10.796875 40.09375 11.203125 
L 41.59375 10.296875 
Q 37.296875 3.59375 34.796875 1.25 
Q 32.296875 -1.09375 29.40625 -1.09375 
Q 27 -1.09375 25.703125 0.40625 
Q 24.40625 1.90625 23.5 5.703125 
L 20.59375 17.59375 
L 11.796875 5.703125 
Q 8.703125 1.5 6.75 0.203125 
Q 4.796875 -1.09375 2.296875 -1.09375 
Q 0 -1.09375 -1.34375 0 
Q -2.703125 1.09375 -2.703125 3.09375 
Q -2.703125 4.59375 -1.75 5.640625 
Q -0.796875 6.703125 0.703125 6.703125 
Q 1.90625 6.703125 3.90625 5.59375 
Q 5.40625 4.703125 6.5 4.703125 
Q 8.203125 4.703125 11.59375 9.59375 
L 19.796875 21.203125 
L 17 33.59375 
Q 16 38 15.140625 39.203125 
Q 14.296875 40.40625 12.40625 40.40625 
Q 11.203125 40.40625 8.5 39.703125 
L 6.703125 39.203125 
L 6.40625 40.796875 
L 7.5 41.203125 
Q 15.5 44.09375 19.203125 44.09375 
Q 21.09375 44.09375 22.1875 42.296875 
Q 23.296875 40.5 24.296875 35.5 
z
" id="STIXGeneral-Italic-78"/>
      <path d="M 39.40625 0 
L 11.796875 0 
L 11.796875 1.5 
Q 17.296875 1.796875 19.296875 3.546875 
Q 21.296875 5.296875 21.296875 9.5 
L 21.296875 54.40625 
Q 21.296875 59.296875 18.296875 59.296875 
Q 16.90625 59.296875 13.796875 58.09375 
L 11.09375 57.09375 
L 11.09375 58.5 
L 29 67.59375 
L 29.90625 67.296875 
L 29.90625 7.59375 
Q 29.90625 4.296875 31.90625 2.890625 
Q 33.90625 1.5 39.40625 1.5 
z
" id="STIXGeneral-Regular-31"/>
     </defs>
     <g transform="translate(157.63 272.16875)scale(0.16 -0.16)">
      <use transform="translate(0 0.90625)" xlink:href="#STIXGeneral-Italic-78"/>
      <use transform="translate(44.399994 -12.321875)scale(0.7)" xlink:href="#STIXGeneral-Regular-31"/>
     </g>
    </g>
   </g>
   <g id="matplotlib.axis_2">
    <g id="ytick_1">
     <g id="line2d_6">
      <defs>
       <path d="M 0 0 
L -3.5 0 
" id="me40f4024d5" style="stroke:#000000;stroke-width:0.8;"/>
      </defs>
      <g>
       <use style="stroke:#000000;stroke-width:0.8;" x="52.04" xlink:href="#me40f4024d5" y="216.924"/>
      </g>
     </g>
     <g id="text_7">
      <!-- −2 -->
      <g transform="translate(30.619375 221.459625)scale(0.12 -0.12)">
       <use xlink:href="#Georgia-2212"/>
       <use x="64.306641" xlink:href="#Georgia-32"/>
      </g>
     </g>
    </g>
    <g id="ytick_2">
     <g id="line2d_7">
      <g>
       <use style="stroke:#000000;stroke-width:0.8;" x="52.04" xlink:href="#me40f4024d5" y="175.972"/>
      </g>
     </g>
     <g id="text_8">
      <!-- −1 -->
      <g transform="translate(32.16625 180.507625)scale(0.12 -0.12)">
       <use xlink:href="#Georgia-2212"/>
       <use x="64.306641" xlink:href="#Georgia-31"/>
      </g>
     </g>
    </g>
    <g id="ytick_3">
     <g id="line2d_8">
      <g>
       <use style="stroke:#000000;stroke-width:0.8;" x="52.04" xlink:href="#me40f4024d5" y="135.02"/>
      </g>
     </g>
     <g id="text_9">
      <!-- 0 -->
      <g transform="translate(37.675 139.555625)scale(0.12 -0.12)">
       <use xlink:href="#Georgia-30"/>
      </g>
     </g>
    </g>
    <g id="ytick_4">
     <g id="line2d_9">
      <g>
       <use style="stroke:#000000;stroke-width:0.8;" x="52.04" xlink:href="#me40f4024d5" y="94.068"/>
      </g>
     </g>
     <g id="text_10">
      <!-- 1 -->
      <g transform="translate(39.88375 98.603625)scale(0.12 -0.12)">
       <use xlink:href="#Georgia-31"/>
      </g>
     </g>
    </g>
    <g id="ytick_5">
     <g id="line2d_10">
      <g>
       <use style="stroke:#000000;stroke-width:0.8;" x="52.04" xlink:href="#me40f4024d5" y="53.116"/>
      </g>
     </g>
     <g id="text_11">
      <!-- 2 -->
      <g transform="translate(38.336875 57.651625)scale(0.12 -0.12)">
       <use xlink:href="#Georgia-32"/>
      </g>
     </g>
    </g>
    <g id="text_12">
     <!-- $x_2$ -->
     <defs>
      <path d="M 47.40625 13.703125 
L 42 0 
L 2.90625 0 
L 2.90625 1.203125 
L 20.703125 20.09375 
Q 27.703125 27.40625 30.703125 33.5 
Q 33.703125 39.59375 33.703125 46.09375 
Q 33.703125 52.796875 30 56.5 
Q 26.296875 60.203125 19.796875 60.203125 
Q 14.40625 60.203125 11.25 57.390625 
Q 8.09375 54.59375 5.09375 47.203125 
L 3 47.703125 
Q 4.703125 57 9.84375 62.296875 
Q 15 67.59375 23.796875 67.59375 
Q 32.09375 67.59375 37.1875 62.59375 
Q 42.296875 57.59375 42.296875 50 
Q 42.296875 38.703125 29.5 25.203125 
L 13 7.59375 
L 36.40625 7.59375 
Q 39.703125 7.59375 41.640625 8.890625 
Q 43.59375 10.203125 46 14.296875 
z
" id="STIXGeneral-Regular-32"/>
     </defs>
     <g transform="translate(23.149375 141.74)rotate(-90)scale(0.16 -0.16)">
      <use transform="translate(0 0.90625)" xlink:href="#STIXGeneral-Italic-78"/>
      <use transform="translate(44.399994 -12.321875)scale(0.7)" xlink:href="#STIXGeneral-Regular-32"/>
     </g>
    </g>
   </g>
   <g id="PathCollection_4">
    <defs>
     <path d="M 0 -7.071068 
L -7.071068 7.071068 
L 7.071068 7.071068 
z
" id="mc3a2d6d9e9" style="stroke:#000000;stroke-width:2;"/>
    </defs>
    <g clip-path="url(#p5362ddd699)">
     <use style="fill:#ff0000;stroke:#000000;stroke-width:2;" x="156.006842" xlink:href="#mc3a2d6d9e9" y="94.068"/>
    </g>
   </g>
   <g id="PathCollection_5">
    <defs>
     <path d="M 0 -7.071068 
L -7.071068 7.071068 
L 7.071068 7.071068 
z
" id="mb2bd194482" style="stroke:#000000;stroke-width:2;"/>
    </defs>
    <g clip-path="url(#p5362ddd699)">
     <use style="fill:#008000;stroke:#000000;stroke-width:2;" x="71.001208" xlink:href="#mb2bd194482" y="145.258"/>
    </g>
   </g>
   <g id="PathCollection_6">
    <defs>
     <path d="M 0 -7.071068 
L -7.071068 7.071068 
L 7.071068 7.071068 
z
" id="mde6b3669d4" style="stroke:#000000;stroke-width:2;"/>
    </defs>
    <g clip-path="url(#p5362ddd699)">
     <use style="fill:#0000ff;stroke:#000000;stroke-width:2;" x="208.107069" xlink:href="#mde6b3669d4" y="155.496"/>
    </g>
   </g>
   <g id="patch_3">
    <path d="M 52.04 237.4 
L 52.04 32.64 
" style="fill:none;stroke:#000000;stroke-linecap:square;stroke-linejoin:miter;stroke-width:0.8;"/>
   </g>
   <g id="patch_4">
    <path d="M 276.66 237.4 
L 276.66 32.64 
" style="fill:none;stroke:#000000;stroke-linecap:square;stroke-linejoin:miter;stroke-width:0.8;"/>
   </g>
   <g id="patch_5">
    <path d="M 52.04 237.4 
L 276.66 237.4 
" style="fill:none;stroke:#000000;stroke-linecap:square;stroke-linejoin:miter;stroke-width:0.8;"/>
   </g>
   <g id="patch_6">
    <path d="M 52.04 32.64 
L 276.66 32.64 
" style="fill:none;stroke:#000000;stroke-linecap:square;stroke-linejoin:miter;stroke-width:0.8;"/>
   </g>
   <g id="text_13">
    <!-- Initialisation -->
    <defs>
     <path d="M 35.0625 0 
L 3.859375 0 
L 3.859375 3.46875 
Q 5.171875 3.5625 7.65625 3.75 
Q 10.15625 3.953125 11.1875 4.34375 
Q 12.796875 4.984375 13.53125 6.078125 
Q 14.265625 7.171875 14.265625 9.125 
L 14.265625 59.328125 
Q 14.265625 61.03125 13.71875 62.171875 
Q 13.1875 63.328125 11.1875 64.109375 
Q 9.71875 64.703125 7.5 65.203125 
Q 5.28125 65.71875 3.859375 65.828125 
L 3.859375 69.28125 
L 35.0625 69.28125 
L 35.0625 65.828125 
Q 33.546875 65.765625 31.4375 65.453125 
Q 29.34375 65.140625 27.78125 64.65625 
Q 25.921875 64.0625 25.28125 62.734375 
Q 24.65625 61.421875 24.65625 59.8125 
L 24.65625 9.671875 
Q 24.65625 8.0625 25.359375 6.8125 
Q 26.078125 5.5625 27.78125 4.828125 
Q 28.8125 4.4375 31.125 3.96875 
Q 33.453125 3.515625 35.0625 3.46875 
z
" id="Georgia-49"/>
     <path d="M 56.6875 0 
L 33.109375 0 
L 33.109375 3.21875 
Q 34.234375 3.328125 35.578125 3.421875 
Q 36.921875 3.515625 37.796875 3.8125 
Q 39.15625 4.25 39.8125 5.34375 
Q 40.484375 6.453125 40.484375 8.203125 
L 40.484375 32.953125 
Q 40.484375 38.09375 38.0625 40.875 
Q 35.640625 43.65625 32.171875 43.65625 
Q 29.59375 43.65625 27.4375 42.84375 
Q 25.296875 42.046875 23.640625 40.875 
Q 22.015625 39.75 21.0625 38.453125 
Q 20.125 37.15625 19.671875 36.375 
L 19.671875 8.6875 
Q 19.671875 7.03125 20.359375 5.953125 
Q 21.046875 4.890625 22.40625 4.296875 
Q 23.4375 3.8125 24.625 3.5625 
Q 25.828125 3.328125 27.09375 3.21875 
L 27.09375 0 
L 3.515625 0 
L 3.515625 3.21875 
Q 4.640625 3.328125 5.828125 3.421875 
Q 7.03125 3.515625 7.90625 3.8125 
Q 9.28125 4.25 9.9375 5.34375 
Q 10.59375 6.453125 10.59375 8.203125 
L 10.59375 37.9375 
Q 10.59375 39.59375 9.890625 40.984375 
Q 9.1875 42.390625 7.90625 43.265625 
Q 6.984375 43.84375 5.703125 44.109375 
Q 4.4375 44.390625 2.984375 44.484375 
L 2.984375 47.65625 
L 19 48.734375 
L 19.671875 48.046875 
L 19.671875 41.265625 
L 19.921875 41.265625 
Q 21.09375 42.4375 22.84375 44.0625 
Q 24.609375 45.703125 26.171875 46.734375 
Q 27.984375 47.90625 30.46875 48.6875 
Q 32.953125 49.46875 36.078125 49.46875 
Q 43.015625 49.46875 46.359375 45.140625 
Q 49.703125 40.828125 49.703125 33.640625 
L 49.703125 8.59375 
Q 49.703125 6.890625 50.28125 5.828125 
Q 50.875 4.78125 52.296875 4.203125 
Q 53.46875 3.71875 54.3125 3.515625 
Q 55.171875 3.328125 56.6875 3.21875 
z
" id="Georgia-6e"/>
     <path d="M 26.90625 0 
L 3.609375 0 
L 3.609375 3.21875 
Q 4.734375 3.328125 5.921875 3.421875 
Q 7.125 3.515625 8.015625 3.8125 
Q 9.375 4.25 10.03125 5.34375 
Q 10.6875 6.453125 10.6875 8.203125 
L 10.6875 37.9375 
Q 10.6875 39.5 9.984375 40.796875 
Q 9.28125 42.09375 8.015625 42.96875 
Q 7.078125 43.5625 5.3125 43.96875 
Q 3.5625 44.390625 2.09375 44.484375 
L 2.09375 47.65625 
L 19.09375 48.734375 
L 19.78125 48.046875 
L 19.78125 8.796875 
Q 19.78125 7.078125 20.4375 5.953125 
Q 21.09375 4.828125 22.515625 4.296875 
Q 23.578125 3.859375 24.609375 3.59375 
Q 25.640625 3.328125 26.90625 3.21875 
z
M 20.75 67.71875 
Q 20.75 64.9375 18.921875 62.859375 
Q 17.09375 60.796875 14.40625 60.796875 
Q 11.921875 60.796875 10.078125 62.765625 
Q 8.25 64.75 8.25 67.28125 
Q 8.25 69.96875 10.078125 71.96875 
Q 11.921875 73.96875 14.40625 73.96875 
Q 17.1875 73.96875 18.96875 72.09375 
Q 20.75 70.21875 20.75 67.71875 
z
" id="Georgia-69"/>
     <path d="M 33.25 2.09375 
Q 30.078125 0.78125 27.25 -0.125 
Q 24.421875 -1.03125 20.3125 -1.03125 
Q 14.265625 -1.03125 11.796875 2.015625 
Q 9.328125 5.078125 9.328125 10.640625 
L 9.328125 43.265625 
L 0.640625 43.265625 
L 0.640625 47.953125 
L 9.515625 47.953125 
L 9.515625 62.9375 
L 18.40625 62.9375 
L 18.40625 47.953125 
L 32.234375 47.953125 
L 32.234375 43.265625 
L 18.5 43.265625 
L 18.5 16.359375 
Q 18.5 13.328125 18.71875 11.296875 
Q 18.953125 9.28125 19.78125 7.765625 
Q 20.5625 6.34375 22.125 5.609375 
Q 23.6875 4.890625 26.3125 4.890625 
Q 27.546875 4.890625 29.90625 5.109375 
Q 32.28125 5.328125 33.25 5.671875 
z
" id="Georgia-74"/>
     <path d="M 49.125 0.875 
Q 46.828125 0.046875 45.09375 -0.46875 
Q 43.359375 -0.984375 41.15625 -0.984375 
Q 37.359375 -0.984375 35.078125 0.796875 
Q 32.8125 2.59375 32.171875 6 
L 31.890625 6 
Q 28.71875 2.484375 25.078125 0.625 
Q 21.4375 -1.21875 16.3125 -1.21875 
Q 10.890625 -1.21875 7.390625 2.09375 
Q 3.90625 5.421875 3.90625 10.796875 
Q 3.90625 13.578125 4.6875 15.765625 
Q 5.46875 17.96875 7.03125 19.734375 
Q 8.25 21.1875 10.25 22.328125 
Q 12.25 23.484375 14.015625 24.171875 
Q 16.21875 25 22.921875 27.25 
Q 29.640625 29.5 31.984375 30.765625 
L 31.984375 35.59375 
Q 31.984375 36.234375 31.71875 38.03125 
Q 31.453125 39.84375 30.5625 41.453125 
Q 29.59375 43.265625 27.8125 44.609375 
Q 26.03125 45.953125 22.75 45.953125 
Q 20.515625 45.953125 18.578125 45.1875 
Q 16.65625 44.4375 15.875 43.609375 
Q 15.875 42.625 16.328125 40.71875 
Q 16.796875 38.8125 16.796875 37.203125 
Q 16.796875 35.5 15.25 34.078125 
Q 13.71875 32.671875 10.984375 32.671875 
Q 8.546875 32.671875 7.390625 34.40625 
Q 6.25 36.140625 6.25 38.28125 
Q 6.25 40.53125 7.828125 42.578125 
Q 9.421875 44.625 11.96875 46.234375 
Q 14.15625 47.609375 17.28125 48.5625 
Q 20.40625 49.515625 23.390625 49.515625 
Q 27.484375 49.515625 30.53125 48.953125 
Q 33.59375 48.390625 36.078125 46.53125 
Q 38.578125 44.734375 39.859375 41.625 
Q 41.15625 38.53125 41.15625 33.640625 
Q 41.15625 26.65625 41.015625 21.265625 
Q 40.875 15.875 40.875 9.46875 
Q 40.875 7.5625 41.53125 6.4375 
Q 42.1875 5.328125 43.5625 4.546875 
Q 44.28125 4.109375 45.875 4.046875 
Q 47.46875 4 49.125 4 
z
M 32.078125 26.65625 
Q 27.9375 25.4375 24.8125 24.265625 
Q 21.6875 23.09375 19 21.34375 
Q 16.546875 19.671875 15.125 17.40625 
Q 13.71875 15.140625 13.71875 12.015625 
Q 13.71875 7.953125 15.84375 6.046875 
Q 17.96875 4.15625 21.234375 4.15625 
Q 24.703125 4.15625 27.34375 5.828125 
Q 29.984375 7.515625 31.78125 9.8125 
z
" id="Georgia-61"/>
     <path d="M 26.078125 0 
L 2.59375 0 
L 2.59375 3.21875 
Q 3.71875 3.328125 4.984375 3.4375 
Q 6.25 3.5625 7.078125 3.8125 
Q 8.453125 4.25 9.125 5.34375 
Q 9.8125 6.453125 9.8125 8.203125 
L 9.8125 63.96875 
Q 9.8125 65.71875 9.046875 67.25 
Q 8.296875 68.796875 7.078125 69.671875 
Q 6.203125 70.265625 3.859375 70.75 
Q 1.515625 71.234375 0.09375 71.34375 
L 0.09375 74.46875 
L 18.21875 75.59375 
L 18.890625 74.859375 
L 18.890625 8.796875 
Q 18.890625 7.078125 19.53125 5.984375 
Q 20.171875 4.890625 21.578125 4.296875 
Q 22.65625 3.8125 23.703125 3.5625 
Q 24.75 3.328125 26.078125 3.21875 
z
" id="Georgia-6c"/>
     <path d="M 35.296875 23.578125 
Q 37.3125 21.828125 38.375 19.53125 
Q 39.453125 17.234375 39.453125 13.921875 
Q 39.453125 7.234375 34.4375 2.984375 
Q 29.4375 -1.265625 21.484375 -1.265625 
Q 17.28125 -1.265625 13.734375 0.25 
Q 10.203125 1.765625 8.6875 3.03125 
L 7.71875 -0.140625 
L 4.046875 -0.140625 
L 3.5625 16.609375 
L 6.9375 16.609375 
Q 7.328125 14.703125 8.59375 12.15625 
Q 9.859375 9.625 11.671875 7.5625 
Q 13.578125 5.421875 16.234375 3.953125 
Q 18.890625 2.484375 22.21875 2.484375 
Q 26.90625 2.484375 29.4375 4.609375 
Q 31.984375 6.734375 31.984375 10.6875 
Q 31.984375 12.75 31.171875 14.234375 
Q 30.375 15.71875 28.8125 16.84375 
Q 27.203125 17.96875 24.859375 18.875 
Q 22.515625 19.78125 19.625 20.65625 
Q 17.328125 21.34375 14.515625 22.53125 
Q 11.71875 23.734375 9.71875 25.34375 
Q 7.5625 27.046875 6.1875 29.53125 
Q 4.828125 32.03125 4.828125 35.40625 
Q 4.828125 41.3125 9.21875 45.40625 
Q 13.625 49.515625 21 49.515625 
Q 23.828125 49.515625 26.78125 48.78125 
Q 29.734375 48.046875 31.59375 47.015625 
L 32.71875 49.5625 
L 36.234375 49.5625 
L 36.96875 34.078125 
L 33.59375 34.078125 
Q 32.5625 39.265625 29.171875 42.5 
Q 25.78125 45.75 20.90625 45.75 
Q 16.890625 45.75 14.59375 43.75 
Q 12.3125 41.75 12.3125 38.921875 
Q 12.3125 36.71875 13.0625 35.25 
Q 13.8125 33.796875 15.328125 32.765625 
Q 16.796875 31.78125 19.015625 30.921875 
Q 21.234375 30.078125 24.515625 29 
Q 27.734375 27.984375 30.59375 26.609375 
Q 33.453125 25.25 35.296875 23.578125 
z
" id="Georgia-73"/>
     <path d="M 50.4375 24.5625 
Q 50.4375 19.484375 48.828125 14.578125 
Q 47.21875 9.671875 44.234375 6.25 
Q 40.875 2.34375 36.421875 0.4375 
Q 31.984375 -1.46875 26.46875 -1.46875 
Q 21.875 -1.46875 17.71875 0.265625 
Q 13.578125 2 10.359375 5.328125 
Q 7.171875 8.59375 5.296875 13.296875 
Q 3.421875 18.015625 3.421875 23.875 
Q 3.421875 35.15625 9.984375 42.328125 
Q 16.546875 49.515625 27.203125 49.515625 
Q 37.3125 49.515625 43.875 42.703125 
Q 50.4375 35.890625 50.4375 24.5625 
z
M 40.328125 24.46875 
Q 40.328125 28.125 39.59375 32.203125 
Q 38.875 36.28125 37.40625 39.109375 
Q 35.84375 42.140625 33.296875 43.96875 
Q 30.765625 45.796875 27.09375 45.796875 
Q 23.34375 45.796875 20.671875 43.9375 
Q 18.015625 42.09375 16.359375 38.875 
Q 14.796875 35.890625 14.15625 32.078125 
Q 13.53125 28.265625 13.53125 24.703125 
Q 13.53125 20.015625 14.28125 16.03125 
Q 15.046875 12.0625 16.703125 8.9375 
Q 18.359375 5.8125 20.875 4.03125 
Q 23.390625 2.25 27.09375 2.25 
Q 33.203125 2.25 36.765625 8.15625 
Q 40.328125 14.0625 40.328125 24.46875 
z
" id="Georgia-6f"/>
    </defs>
    <g transform="translate(113.062656 26.64)scale(0.18 -0.18)">
     <use xlink:href="#Georgia-49"/>
     <use x="38.964844" xlink:href="#Georgia-6e"/>
     <use x="98.046875" xlink:href="#Georgia-69"/>
     <use x="127.34375" xlink:href="#Georgia-74"/>
     <use x="161.865234" xlink:href="#Georgia-69"/>
     <use x="191.162109" xlink:href="#Georgia-61"/>
     <use x="241.552734" xlink:href="#Georgia-6c"/>
     <use x="270.166016" xlink:href="#Georgia-69"/>
     <use x="299.462891" xlink:href="#Georgia-73"/>
     <use x="342.675781" xlink:href="#Georgia-61"/>
     <use x="393.066406" xlink:href="#Georgia-74"/>
     <use x="427.587891" xlink:href="#Georgia-69"/>
     <use x="456.884766" xlink:href="#Georgia-6f"/>
     <use x="510.791016" xlink:href="#Georgia-6e"/>
    </g>
   </g>
  </g>
  <g id="axes_2">
   <g id="patch_7">
    <path d="M 339.05 237.4 
L 563.67 237.4 
L 563.67 32.64 
L 339.05 32.64 
z
" style="fill:#ffffff;"/>
   </g>
   <g id="PathCollection_7">
    <g clip-path="url(#pabf8a7e50d)">
     <use style="fill:#ff0000;stroke:#000000;" x="412.060606" xlink:href="#m8f7df2a05f" y="78.85839"/>
     <use style="fill:#ff0000;stroke:#000000;" x="357.829826" xlink:href="#m8f7df2a05f" y="108.765306"/>
     <use style="fill:#ff0000;stroke:#000000;" x="362.935747" xlink:href="#m8f7df2a05f" y="95.663578"/>
     <use style="fill:#ff0000;stroke:#000000;" x="404.62137" xlink:href="#m8f7df2a05f" y="86.360253"/>
     <use style="fill:#ff0000;stroke:#000000;" x="376.697358" xlink:href="#m8f7df2a05f" y="87.080346"/>
     <use style="fill:#ff0000;stroke:#000000;" x="420.874625" xlink:href="#m8f7df2a05f" y="83.678478"/>
     <use style="fill:#ff0000;stroke:#000000;" x="404.692559" xlink:href="#m8f7df2a05f" y="75.434839"/>
     <use style="fill:#ff0000;stroke:#000000;" x="370.482816" xlink:href="#m8f7df2a05f" y="98.361857"/>
     <use style="fill:#ff0000;stroke:#000000;" x="413.949038" xlink:href="#m8f7df2a05f" y="80.332815"/>
     <use style="fill:#ff0000;stroke:#000000;" x="410.678531" xlink:href="#m8f7df2a05f" y="81.667204"/>
     <use style="fill:#ff0000;stroke:#000000;" x="408.519999" xlink:href="#m8f7df2a05f" y="83.092366"/>
     <use style="fill:#ff0000;stroke:#000000;" x="401.864606" xlink:href="#m8f7df2a05f" y="92.010835"/>
     <use style="fill:#ff0000;stroke:#000000;" x="369.574118" xlink:href="#m8f7df2a05f" y="99.916105"/>
     <use style="fill:#ff0000;stroke:#000000;" x="407.349165" xlink:href="#m8f7df2a05f" y="87.944623"/>
     <use style="fill:#ff0000;stroke:#000000;" x="402.47845" xlink:href="#m8f7df2a05f" y="82.257438"/>
     <use style="fill:#ff0000;stroke:#000000;" x="419.145553" xlink:href="#m8f7df2a05f" y="77.773629"/>
     <use style="fill:#ff0000;stroke:#000000;" x="417.744771" xlink:href="#m8f7df2a05f" y="80.065503"/>
     <use style="fill:#ff0000;stroke:#000000;" x="391.185421" xlink:href="#m8f7df2a05f" y="89.920559"/>
     <use style="fill:#ff0000;stroke:#000000;" x="353.411271" xlink:href="#m8f7df2a05f" y="101.439823"/>
     <use style="fill:#ff0000;stroke:#000000;" x="387.806084" xlink:href="#m8f7df2a05f" y="96.749635"/>
    </g>
   </g>
   <g id="PathCollection_8">
    <g clip-path="url(#pabf8a7e50d)">
     <use style="fill:#008000;stroke:#000000;" x="419.88704" xlink:href="#m21139eb828" y="188.158623"/>
     <use style="fill:#008000;stroke:#000000;" x="453.53891" xlink:href="#m21139eb828" y="173.296789"/>
     <use style="fill:#008000;stroke:#000000;" x="382.187812" xlink:href="#m21139eb828" y="178.909774"/>
     <use style="fill:#008000;stroke:#000000;" x="397.680129" xlink:href="#m21139eb828" y="194.616051"/>
     <use style="fill:#008000;stroke:#000000;" x="414.941273" xlink:href="#m21139eb828" y="192.648234"/>
     <use style="fill:#008000;stroke:#000000;" x="447.547306" xlink:href="#m21139eb828" y="181.700791"/>
     <use style="fill:#008000;stroke:#000000;" x="414.557115" xlink:href="#m21139eb828" y="184.926237"/>
     <use style="fill:#008000;stroke:#000000;" x="429.065553" xlink:href="#m21139eb828" y="201.368641"/>
     <use style="fill:#008000;stroke:#000000;" x="349.996303" xlink:href="#m21139eb828" y="202.482061"/>
     <use style="fill:#008000;stroke:#000000;" x="402.789044" xlink:href="#m21139eb828" y="189.089986"/>
     <use style="fill:#008000;stroke:#000000;" x="470.285018" xlink:href="#m21139eb828" y="174.224889"/>
     <use style="fill:#008000;stroke:#000000;" x="428.016295" xlink:href="#m21139eb828" y="182.126995"/>
     <use style="fill:#008000;stroke:#000000;" x="376.180096" xlink:href="#m21139eb828" y="212.974645"/>
     <use style="fill:#008000;stroke:#000000;" x="351.438347" xlink:href="#m21139eb828" y="182.468097"/>
     <use style="fill:#008000;stroke:#000000;" x="392.879619" xlink:href="#m21139eb828" y="195.007721"/>
     <use style="fill:#008000;stroke:#000000;" x="350.779586" xlink:href="#m21139eb828" y="195.518699"/>
     <use style="fill:#008000;stroke:#000000;" x="449.024038" xlink:href="#m21139eb828" y="161.896213"/>
     <use style="fill:#008000;stroke:#000000;" x="394.097368" xlink:href="#m21139eb828" y="183.017132"/>
     <use style="fill:#008000;stroke:#000000;" x="423.007973" xlink:href="#m21139eb828" y="184.507081"/>
     <use style="fill:#008000;stroke:#000000;" x="442.944561" xlink:href="#m21139eb828" y="193.631401"/>
     <use style="fill:#008000;stroke:#000000;" x="415.265749" xlink:href="#m21139eb828" y="178.457449"/>
     <use style="fill:#008000;stroke:#000000;" x="444.871828" xlink:href="#m21139eb828" y="178.154123"/>
     <use style="fill:#008000;stroke:#000000;" x="427.315479" xlink:href="#m21139eb828" y="184.393148"/>
     <use style="fill:#008000;stroke:#000000;" x="413.526638" xlink:href="#m21139eb828" y="201.80735"/>
     <use style="fill:#008000;stroke:#000000;" x="462.392871" xlink:href="#m21139eb828" y="189.632748"/>
     <use style="fill:#008000;stroke:#000000;" x="452.429176" xlink:href="#m21139eb828" y="178.01796"/>
     <use style="fill:#008000;stroke:#000000;" x="432.037819" xlink:href="#m21139eb828" y="180.337888"/>
     <use style="fill:#008000;stroke:#000000;" x="427.163452" xlink:href="#m21139eb828" y="200.426376"/>
     <use style="fill:#008000;stroke:#000000;" x="456.488226" xlink:href="#m21139eb828" y="183.964031"/>
     <use style="fill:#008000;stroke:#000000;" x="431.796535" xlink:href="#m21139eb828" y="174.331998"/>
     <use style="fill:#008000;stroke:#000000;" x="416.523968" xlink:href="#m21139eb828" y="205.511104"/>
     <use style="fill:#008000;stroke:#000000;" x="412.682031" xlink:href="#m21139eb828" y="181.89471"/>
     <use style="fill:#008000;stroke:#000000;" x="383.384254" xlink:href="#m21139eb828" y="222.591367"/>
     <use style="fill:#008000;stroke:#000000;" x="410.859846" xlink:href="#m21139eb828" y="184.726168"/>
    </g>
   </g>
   <g id="PathCollection_9">
    <g clip-path="url(#pabf8a7e50d)">
     <use style="fill:#0000ff;stroke:#000000;" x="490.752395" xlink:href="#m614b681aaa" y="110.329847"/>
     <use style="fill:#0000ff;stroke:#000000;" x="516.047369" xlink:href="#m614b681aaa" y="114.725452"/>
     <use style="fill:#0000ff;stroke:#000000;" x="546.487101" xlink:href="#m614b681aaa" y="115.325792"/>
     <use style="fill:#0000ff;stroke:#000000;" x="549.691814" xlink:href="#m614b681aaa" y="127.654371"/>
     <use style="fill:#0000ff;stroke:#000000;" x="501.341582" xlink:href="#m614b681aaa" y="121.882739"/>
     <use style="fill:#0000ff;stroke:#000000;" x="530.993591" xlink:href="#m614b681aaa" y="92.604245"/>
     <use style="fill:#0000ff;stroke:#000000;" x="486.171345" xlink:href="#m614b681aaa" y="104.813325"/>
     <use style="fill:#0000ff;stroke:#000000;" x="499.067572" xlink:href="#m614b681aaa" y="127.359767"/>
     <use style="fill:#0000ff;stroke:#000000;" x="490.70357" xlink:href="#m614b681aaa" y="118.319134"/>
     <use style="fill:#0000ff;stroke:#000000;" x="539.873255" xlink:href="#m614b681aaa" y="123.498385"/>
     <use style="fill:#0000ff;stroke:#000000;" x="459.079746" xlink:href="#m614b681aaa" y="123.361271"/>
     <use style="fill:#0000ff;stroke:#000000;" x="479.874297" xlink:href="#m614b681aaa" y="124.588517"/>
     <use style="fill:#0000ff;stroke:#000000;" x="506.902027" xlink:href="#m614b681aaa" y="139.098797"/>
     <use style="fill:#0000ff;stroke:#000000;" x="549.887131" xlink:href="#m614b681aaa" y="117.947946"/>
     <use style="fill:#0000ff;stroke:#000000;" x="459.690379" xlink:href="#m614b681aaa" y="109.808165"/>
     <use style="fill:#0000ff;stroke:#000000;" x="488.033867" xlink:href="#m614b681aaa" y="119.280663"/>
     <use style="fill:#0000ff;stroke:#000000;" x="500.550398" xlink:href="#m614b681aaa" y="106.678179"/>
     <use style="fill:#0000ff;stroke:#000000;" x="496.626058" xlink:href="#m614b681aaa" y="112.844525"/>
     <use style="fill:#0000ff;stroke:#000000;" x="522.602578" xlink:href="#m614b681aaa" y="127.82599"/>
     <use style="fill:#0000ff;stroke:#000000;" x="516.255407" xlink:href="#m614b681aaa" y="133.515977"/>
     <use style="fill:#0000ff;stroke:#000000;" x="527.960303" xlink:href="#m614b681aaa" y="118.036684"/>
     <use style="fill:#0000ff;stroke:#000000;" x="510.249338" xlink:href="#m614b681aaa" y="111.959732"/>
     <use style="fill:#0000ff;stroke:#000000;" x="460.172352" xlink:href="#m614b681aaa" y="121.89634"/>
     <use style="fill:#0000ff;stroke:#000000;" x="507.393478" xlink:href="#m614b681aaa" y="121.137245"/>
     <use style="fill:#0000ff;stroke:#000000;" x="517.892072" xlink:href="#m614b681aaa" y="103.558269"/>
     <use style="fill:#0000ff;stroke:#000000;" x="500.565061" xlink:href="#m614b681aaa" y="97.892184"/>
     <use style="fill:#0000ff;stroke:#000000;" x="497.539687" xlink:href="#m614b681aaa" y="113.657335"/>
     <use style="fill:#0000ff;stroke:#000000;" x="461.494749" xlink:href="#m614b681aaa" y="109.244821"/>
     <use style="fill:#0000ff;stroke:#000000;" x="523.855712" xlink:href="#m614b681aaa" y="109.343807"/>
     <use style="fill:#0000ff;stroke:#000000;" x="500.056479" xlink:href="#m614b681aaa" y="105.173703"/>
     <use style="fill:#0000ff;stroke:#000000;" x="523.454326" xlink:href="#m614b681aaa" y="107.812215"/>
     <use style="fill:#0000ff;stroke:#000000;" x="505.877637" xlink:href="#m614b681aaa" y="117.897057"/>
     <use style="fill:#0000ff;stroke:#000000;" x="521.879709" xlink:href="#m614b681aaa" y="111.475986"/>
     <use style="fill:#0000ff;stroke:#000000;" x="520.654996" xlink:href="#m614b681aaa" y="145.815872"/>
     <use style="fill:#0000ff;stroke:#000000;" x="522.607143" xlink:href="#m614b681aaa" y="102.91226"/>
     <use style="fill:#0000ff;stroke:#000000;" x="505.576394" xlink:href="#m614b681aaa" y="127.242707"/>
     <use style="fill:#0000ff;stroke:#000000;" x="527.588203" xlink:href="#m614b681aaa" y="114.198676"/>
     <use style="fill:#0000ff;stroke:#000000;" x="500.825891" xlink:href="#m614b681aaa" y="125.292971"/>
     <use style="fill:#0000ff;stroke:#000000;" x="453.031445" xlink:href="#m614b681aaa" y="110.02551"/>
     <use style="fill:#0000ff;stroke:#000000;" x="480.938642" xlink:href="#m614b681aaa" y="118.708313"/>
     <use style="fill:#0000ff;stroke:#000000;" x="489.635525" xlink:href="#m614b681aaa" y="104.975365"/>
     <use style="fill:#0000ff;stroke:#000000;" x="537.717029" xlink:href="#m614b681aaa" y="127.97752"/>
     <use style="fill:#0000ff;stroke:#000000;" x="510.618276" xlink:href="#m614b681aaa" y="100.543602"/>
     <use style="fill:#0000ff;stroke:#000000;" x="492.588745" xlink:href="#m614b681aaa" y="109.35661"/>
     <use style="fill:#0000ff;stroke:#000000;" x="499.984786" xlink:href="#m614b681aaa" y="114.349431"/>
     <use style="fill:#0000ff;stroke:#000000;" x="514.044322" xlink:href="#m614b681aaa" y="115.862637"/>
    </g>
   </g>
   <g id="matplotlib.axis_3">
    <g id="xtick_6">
     <g id="line2d_11">
      <g>
       <use style="stroke:#000000;stroke-width:0.8;" x="342.656339" xlink:href="#ma89d109389" y="237.4"/>
      </g>
     </g>
     <g id="text_14">
      <!-- −2 -->
      <g transform="translate(335.446027 253.47125)scale(0.12 -0.12)">
       <use xlink:href="#Georgia-2212"/>
       <use x="64.306641" xlink:href="#Georgia-32"/>
      </g>
     </g>
    </g>
    <g id="xtick_7">
     <g id="line2d_12">
      <g>
       <use style="stroke:#000000;stroke-width:0.8;" x="397.909754" xlink:href="#ma89d109389" y="237.4"/>
      </g>
     </g>
     <g id="text_15">
      <!-- −1 -->
      <g transform="translate(391.472879 253.47125)scale(0.12 -0.12)">
       <use xlink:href="#Georgia-2212"/>
       <use x="64.306641" xlink:href="#Georgia-31"/>
      </g>
     </g>
    </g>
    <g id="xtick_8">
     <g id="line2d_13">
      <g>
       <use style="stroke:#000000;stroke-width:0.8;" x="453.16317" xlink:href="#ma89d109389" y="237.4"/>
      </g>
     </g>
     <g id="text_16">
      <!-- 0 -->
      <g transform="translate(449.48067 253.47125)scale(0.12 -0.12)">
       <use xlink:href="#Georgia-30"/>
      </g>
     </g>
    </g>
    <g id="xtick_9">
     <g id="line2d_14">
      <g>
       <use style="stroke:#000000;stroke-width:0.8;" x="508.416585" xlink:href="#ma89d109389" y="237.4"/>
      </g>
     </g>
     <g id="text_17">
      <!-- 1 -->
      <g transform="translate(505.83846 253.47125)scale(0.12 -0.12)">
       <use xlink:href="#Georgia-31"/>
      </g>
     </g>
    </g>
    <g id="xtick_10">
     <g id="line2d_15">
      <g>
       <use style="stroke:#000000;stroke-width:0.8;" x="563.67" xlink:href="#ma89d109389" y="237.4"/>
      </g>
     </g>
     <g id="text_18">
      <!-- 2 -->
      <g transform="translate(560.318437 253.47125)scale(0.12 -0.12)">
       <use xlink:href="#Georgia-32"/>
      </g>
     </g>
    </g>
    <g id="text_19">
     <!-- $x_1$ -->
     <g transform="translate(444.64 272.16875)scale(0.16 -0.16)">
      <use transform="translate(0 0.90625)" xlink:href="#STIXGeneral-Italic-78"/>
      <use transform="translate(44.399994 -12.321875)scale(0.7)" xlink:href="#STIXGeneral-Regular-31"/>
     </g>
    </g>
   </g>
   <g id="matplotlib.axis_4">
    <g id="ytick_6">
     <g id="line2d_16">
      <g>
       <use style="stroke:#000000;stroke-width:0.8;" x="339.05" xlink:href="#me40f4024d5" y="216.924"/>
      </g>
     </g>
     <g id="text_20">
      <!-- −2 -->
      <g transform="translate(317.629375 221.459625)scale(0.12 -0.12)">
       <use xlink:href="#Georgia-2212"/>
       <use x="64.306641" xlink:href="#Georgia-32"/>
      </g>
     </g>
    </g>
    <g id="ytick_7">
     <g id="line2d_17">
      <g>
       <use style="stroke:#000000;stroke-width:0.8;" x="339.05" xlink:href="#me40f4024d5" y="175.972"/>
      </g>
     </g>
     <g id="text_21">
      <!-- −1 -->
      <g transform="translate(319.17625 180.507625)scale(0.12 -0.12)">
       <use xlink:href="#Georgia-2212"/>
       <use x="64.306641" xlink:href="#Georgia-31"/>
      </g>
     </g>
    </g>
    <g id="ytick_8">
     <g id="line2d_18">
      <g>
       <use style="stroke:#000000;stroke-width:0.8;" x="339.05" xlink:href="#me40f4024d5" y="135.02"/>
      </g>
     </g>
     <g id="text_22">
      <!-- 0 -->
      <g transform="translate(324.685 139.555625)scale(0.12 -0.12)">
       <use xlink:href="#Georgia-30"/>
      </g>
     </g>
    </g>
    <g id="ytick_9">
     <g id="line2d_19">
      <g>
       <use style="stroke:#000000;stroke-width:0.8;" x="339.05" xlink:href="#me40f4024d5" y="94.068"/>
      </g>
     </g>
     <g id="text_23">
      <!-- 1 -->
      <g transform="translate(326.89375 98.603625)scale(0.12 -0.12)">
       <use xlink:href="#Georgia-31"/>
      </g>
     </g>
    </g>
    <g id="ytick_10">
     <g id="line2d_20">
      <g>
       <use style="stroke:#000000;stroke-width:0.8;" x="339.05" xlink:href="#me40f4024d5" y="53.116"/>
      </g>
     </g>
     <g id="text_24">
      <!-- 2 -->
      <g transform="translate(325.346875 57.651625)scale(0.12 -0.12)">
       <use xlink:href="#Georgia-32"/>
      </g>
     </g>
    </g>
    <g id="text_25">
     <!-- $x_2$ -->
     <g transform="translate(310.159375 141.74)rotate(-90)scale(0.16 -0.16)">
      <use transform="translate(0 0.90625)" xlink:href="#STIXGeneral-Italic-78"/>
      <use transform="translate(44.399994 -12.321875)scale(0.7)" xlink:href="#STIXGeneral-Regular-32"/>
     </g>
    </g>
   </g>
   <g id="PathCollection_10">
    <g clip-path="url(#pabf8a7e50d)">
     <use style="fill:#ff0000;stroke:#000000;stroke-width:2;" x="394.695096" xlink:href="#mc3a2d6d9e9" y="88.368679"/>
    </g>
   </g>
   <g id="PathCollection_11">
    <g clip-path="url(#pabf8a7e50d)">
     <use style="fill:#008000;stroke:#000000;stroke-width:2;" x="416.987684" xlink:href="#mb2bd194482" y="188.141661"/>
    </g>
   </g>
   <g id="PathCollection_12">
    <g clip-path="url(#pabf8a7e50d)">
     <use style="fill:#0000ff;stroke:#000000;stroke-width:2;" x="505.322473" xlink:href="#mde6b3669d4" y="116.039346"/>
    </g>
   </g>
   <g id="patch_8">
    <path d="M 339.05 237.4 
L 339.05 32.64 
" style="fill:none;stroke:#000000;stroke-linecap:square;stroke-linejoin:miter;stroke-width:0.8;"/>
   </g>
   <g id="patch_9">
    <path d="M 563.67 237.4 
L 563.67 32.64 
" style="fill:none;stroke:#000000;stroke-linecap:square;stroke-linejoin:miter;stroke-width:0.8;"/>
   </g>
   <g id="patch_10">
    <path d="M 339.05 237.4 
L 563.67 237.4 
" style="fill:none;stroke:#000000;stroke-linecap:square;stroke-linejoin:miter;stroke-width:0.8;"/>
   </g>
   <g id="patch_11">
    <path d="M 339.05 32.64 
L 563.67 32.64 
" style="fill:none;stroke:#000000;stroke-linecap:square;stroke-linejoin:miter;stroke-width:0.8;"/>
   </g>
   <g id="text_26">
    <!-- After convergence -->
    <defs>
     <path d="M 69.390625 0 
L 40.53125 0 
L 40.53125 3.46875 
Q 44.34375 3.71875 46.84375 4.4375 
Q 49.359375 5.171875 49.359375 6.25 
Q 49.359375 6.6875 49.265625 7.3125 
Q 49.171875 7.953125 48.96875 8.453125 
L 43.21875 23.96875 
L 18.953125 23.96875 
Q 17.578125 20.5625 16.71875 18.015625 
Q 15.875 15.484375 15.1875 13.328125 
Q 14.546875 11.234375 14.296875 9.90625 
Q 14.0625 8.59375 14.0625 7.765625 
Q 14.0625 5.8125 17.140625 4.734375 
Q 20.21875 3.65625 24.078125 3.46875 
L 24.078125 0 
L -2 0 
L -2 3.46875 
Q -0.734375 3.5625 1.171875 4.03125 
Q 3.078125 4.5 4.296875 5.28125 
Q 6.25 6.59375 7.328125 8.03125 
Q 8.40625 9.46875 9.421875 12.015625 
Q 14.65625 25.046875 20.953125 41.296875 
Q 27.25 57.5625 32.171875 70.265625 
L 36.078125 70.265625 
L 59.1875 10.5 
Q 59.90625 8.59375 60.828125 7.421875 
Q 61.765625 6.25 63.421875 5.125 
Q 64.546875 4.4375 66.359375 3.96875 
Q 68.171875 3.515625 69.390625 3.46875 
z
M 41.453125 28.328125 
L 30.953125 55.171875 
L 20.65625 28.328125 
z
" id="Georgia-41"/>
     <path d="M 39.359375 69.78125 
Q 39.359375 67.578125 38.1875 66.0625 
Q 37.015625 64.546875 34.625 64.546875 
Q 33.109375 64.546875 31.953125 65.1875 
Q 30.8125 65.828125 29.828125 66.890625 
Q 28.859375 67.96875 28.03125 69.328125 
Q 27.203125 70.703125 26.609375 71.53125 
Q 23.34375 71.390625 21.5625 66.96875 
Q 19.78125 62.546875 19.78125 52.875 
L 19.78125 47.953125 
L 32.171875 47.953125 
L 32.171875 43.265625 
L 19.78125 43.265625 
L 19.78125 8.6875 
Q 19.78125 6.984375 20.4375 5.90625 
Q 21.09375 4.828125 22.515625 4.296875 
Q 23.6875 3.859375 25.640625 3.59375 
Q 27.59375 3.328125 29 3.21875 
L 29 0 
L 3.609375 0 
L 3.609375 3.21875 
Q 4.734375 3.328125 5.921875 3.421875 
Q 7.125 3.515625 8.015625 3.8125 
Q 9.375 4.25 10.03125 5.34375 
Q 10.6875 6.453125 10.6875 8.203125 
L 10.6875 43.265625 
L 1.171875 43.265625 
L 1.171875 47.953125 
L 10.6875 47.953125 
L 10.6875 51.03125 
Q 10.6875 62.015625 16.375 68.828125 
Q 22.078125 75.640625 30.609375 75.640625 
Q 34.96875 75.640625 37.15625 73.921875 
Q 39.359375 72.21875 39.359375 69.78125 
z
" id="Georgia-66"/>
     <path d="M 46.296875 11.328125 
Q 43.265625 5.5625 38.1875 2.140625 
Q 33.109375 -1.265625 26.515625 -1.265625 
Q 20.703125 -1.265625 16.328125 0.78125 
Q 11.96875 2.828125 9.125 6.34375 
Q 6.296875 9.859375 4.90625 14.546875 
Q 3.515625 19.234375 3.515625 24.46875 
Q 3.515625 29.15625 5 33.671875 
Q 6.5 38.1875 9.375 41.796875 
Q 12.15625 45.265625 16.28125 47.390625 
Q 20.40625 49.515625 25.53125 49.515625 
Q 30.8125 49.515625 34.5625 47.84375 
Q 38.328125 46.1875 40.671875 43.3125 
Q 42.921875 40.578125 44.015625 36.859375 
Q 45.125 33.15625 45.125 28.8125 
L 45.125 25.59375 
L 13.234375 25.59375 
Q 13.234375 20.84375 14.140625 16.984375 
Q 15.046875 13.140625 17 10.203125 
Q 18.890625 7.375 21.96875 5.734375 
Q 25.046875 4.109375 29.296875 4.109375 
Q 33.640625 4.109375 36.78125 6.125 
Q 39.9375 8.15625 42.875 13.421875 
z
M 35.5 29.6875 
Q 35.5 32.421875 35.03125 35.546875 
Q 34.578125 38.671875 33.546875 40.765625 
Q 32.421875 43.015625 30.46875 44.421875 
Q 28.515625 45.84375 25.4375 45.84375 
Q 20.3125 45.84375 16.921875 41.578125 
Q 13.53125 37.3125 13.234375 29.6875 
z
" id="Georgia-65"/>
     <path d="M 40.375 41.9375 
Q 40.375 39.453125 39.15625 37.515625 
Q 37.9375 35.59375 35.40625 35.59375 
Q 32.671875 35.59375 31.21875 37 
Q 29.78125 38.421875 29.78125 40.140625 
Q 29.78125 41.21875 29.953125 42.09375 
Q 30.125 42.96875 30.28125 43.84375 
Q 27.984375 43.84375 24.90625 41.984375 
Q 21.828125 40.140625 19.671875 36.71875 
L 19.671875 8.6875 
Q 19.671875 6.984375 20.328125 5.90625 
Q 21 4.828125 22.40625 4.296875 
Q 23.640625 3.8125 25.5625 3.5625 
Q 27.484375 3.328125 28.90625 3.21875 
L 28.90625 0 
L 3.515625 0 
L 3.515625 3.21875 
Q 4.640625 3.328125 5.828125 3.421875 
Q 7.03125 3.515625 7.90625 3.8125 
Q 9.28125 4.25 9.9375 5.34375 
Q 10.59375 6.453125 10.59375 8.203125 
L 10.59375 37.9375 
Q 10.59375 39.453125 9.890625 40.921875 
Q 9.1875 42.390625 7.90625 43.265625 
Q 6.984375 43.84375 5.703125 44.109375 
Q 4.4375 44.390625 2.984375 44.484375 
L 2.984375 47.65625 
L 19 48.734375 
L 19.671875 48.046875 
L 19.671875 41.265625 
L 19.921875 41.265625 
Q 22.953125 45.21875 26.65625 47.265625 
Q 30.375 49.3125 33.453125 49.3125 
Q 36.53125 49.3125 38.453125 47.3125 
Q 40.375 45.3125 40.375 41.9375 
z
" id="Georgia-72"/>
     <path id="Georgia-20"/>
     <path d="M 25.78125 -1.265625 
Q 15.328125 -1.265625 9.421875 5.65625 
Q 3.515625 12.59375 3.515625 24.265625 
Q 3.515625 29.34375 5.09375 33.765625 
Q 6.6875 38.1875 9.71875 41.796875 
Q 12.59375 45.265625 16.9375 47.390625 
Q 21.296875 49.515625 26.421875 49.515625 
Q 33.5 49.515625 37.9375 46.109375 
Q 42.390625 42.71875 42.390625 36.859375 
Q 42.390625 34.421875 41.21875 32.546875 
Q 40.046875 30.671875 37.359375 30.671875 
Q 34.46875 30.671875 32.875 32.125 
Q 31.296875 33.59375 31.296875 35.40625 
Q 31.296875 37.59375 31.875 39.90625 
Q 32.46875 42.234375 32.5625 43.3125 
Q 31.6875 44.828125 29.953125 45.328125 
Q 28.21875 45.84375 26.21875 45.84375 
Q 23.875 45.84375 21.75 44.84375 
Q 19.625 43.84375 17.625 41.15625 
Q 15.828125 38.71875 14.703125 34.5625 
Q 13.578125 30.421875 13.578125 24.65625 
Q 13.578125 15.578125 17.59375 9.84375 
Q 21.625 4.109375 28.171875 4.109375 
Q 32.90625 4.109375 36.109375 6.390625 
Q 39.3125 8.6875 42.046875 13.28125 
L 45.171875 11.234375 
Q 41.9375 5.46875 36.65625 2.09375 
Q 31.390625 -1.265625 25.78125 -1.265625 
z
" id="Georgia-63"/>
     <path d="M 51.078125 45.171875 
Q 48.875 44.78125 46.890625 43.578125 
Q 44.921875 42.390625 43.5 39.359375 
Q 40.625 32.8125 37.546875 25.703125 
Q 34.46875 18.609375 31.15625 10.796875 
Q 30.171875 8.546875 29.078125 5.46875 
Q 27.984375 2.390625 27.046875 -0.4375 
L 23.25 -0.4375 
Q 18.609375 11.03125 14.703125 20.484375 
Q 10.796875 29.9375 6.59375 39.84375 
Q 5.609375 42.09375 3.4375 43.328125 
Q 1.265625 44.578125 -0.921875 44.921875 
L -0.921875 48.140625 
L 21.34375 48.140625 
L 21.34375 44.734375 
Q 19.875 44.671875 17.671875 44.109375 
Q 15.484375 43.5625 15.484375 42.578125 
Q 15.484375 42.4375 15.71875 41.828125 
Q 15.96875 41.21875 16.21875 40.4375 
Q 18.21875 35.453125 21.875 26.515625 
Q 25.53125 17.578125 27.828125 12.109375 
Q 29.59375 16.3125 32.25 22.5625 
Q 34.90625 28.8125 37.984375 36.53125 
Q 38.484375 37.84375 38.921875 38.984375 
Q 39.359375 40.140625 39.359375 41.3125 
Q 39.359375 42.140625 38.546875 42.796875 
Q 37.75 43.453125 36.625 43.953125 
Q 35.5 44.4375 34.421875 44.671875 
Q 33.34375 44.921875 32.671875 45.015625 
L 32.671875 48.140625 
L 51.078125 48.140625 
z
" id="Georgia-76"/>
     <path d="M 44.78125 4.984375 
Q 46.734375 3.125 47.84375 0.78125 
Q 48.96875 -1.5625 48.96875 -5.03125 
Q 48.96875 -8.5 47.453125 -11.546875 
Q 45.953125 -14.59375 42.875 -16.84375 
Q 39.59375 -19.140625 35.046875 -20.40625 
Q 30.515625 -21.6875 23.828125 -21.6875 
Q 12.890625 -21.6875 7.46875 -18.484375 
Q 2.046875 -15.28125 2.046875 -9.125 
Q 2.046875 -4.15625 5.953125 -1.265625 
Q 9.859375 1.609375 15.921875 1.859375 
L 15.921875 2.546875 
Q 14.453125 2.984375 12.890625 3.640625 
Q 11.328125 4.296875 10.203125 5.171875 
Q 8.9375 6.203125 8.15625 7.59375 
Q 7.375 8.984375 7.375 11.03125 
Q 7.375 13.625 9.203125 15.796875 
Q 11.03125 17.96875 14.75 19.53125 
L 14.75 20.265625 
Q 10.0625 22.46875 7.46875 25.90625 
Q 4.890625 29.34375 4.890625 33.890625 
Q 4.890625 40.71875 9.984375 45.109375 
Q 15.09375 49.515625 23.046875 49.515625 
Q 25.25 49.515625 27.421875 49.078125 
Q 29.59375 48.640625 31.84375 47.953125 
L 48.640625 47.953125 
L 48.640625 43.265625 
L 37.3125 43.265625 
L 37.3125 42.96875 
Q 39.109375 40.875 39.984375 38.328125 
Q 40.875 35.796875 40.875 33.34375 
Q 40.875 27 35.71875 22.609375 
Q 30.5625 18.21875 23.734375 18.21875 
L 17.828125 18.21875 
Q 16.703125 17.828125 15.484375 16.796875 
Q 14.265625 15.765625 14.265625 14.015625 
Q 14.265625 12.203125 15.28125 11.25 
Q 16.3125 10.296875 17.78125 9.96875 
Q 19.1875 9.578125 21.0625 9.46875 
Q 22.953125 9.375 24.953125 9.328125 
Q 27.09375 9.28125 30.828125 9.03125 
Q 34.578125 8.796875 36.140625 8.734375 
Q 38.375 8.640625 40.640625 7.65625 
Q 42.921875 6.6875 44.78125 4.984375 
z
M 31.59375 33.546875 
Q 31.59375 39.265625 29.265625 42.65625 
Q 26.953125 46.046875 22.75 46.046875 
Q 20.453125 46.046875 18.8125 45.09375 
Q 17.1875 44.140625 16.15625 42.390625 
Q 15.1875 40.765625 14.765625 38.5 
Q 14.359375 36.234375 14.359375 33.84375 
Q 14.359375 28.421875 16.71875 25 
Q 19.09375 21.578125 22.859375 21.578125 
Q 27.046875 21.578125 29.3125 24.96875 
Q 31.59375 28.375 31.59375 33.546875 
z
M 40.96875 -6.84375 
Q 40.96875 -4.109375 39.6875 -2.34375 
Q 38.421875 -0.59375 35.84375 0.046875 
Q 34.46875 0.25 30.21875 0.484375 
Q 25.984375 0.734375 20.359375 0.734375 
Q 15.09375 -0.296875 12.859375 -2.703125 
Q 10.640625 -5.125 10.640625 -8.9375 
Q 10.640625 -10.640625 11.375 -12.203125 
Q 12.109375 -13.765625 13.921875 -15.09375 
Q 15.625 -16.359375 18.5 -17.15625 
Q 21.390625 -17.96875 25.53125 -17.96875 
Q 32.71875 -17.96875 36.84375 -15.203125 
Q 40.96875 -12.453125 40.96875 -6.84375 
z
" id="Georgia-67"/>
    </defs>
    <g transform="translate(379.628594 26.64)scale(0.18 -0.18)">
     <use xlink:href="#Georgia-41"/>
     <use x="67.089844" xlink:href="#Georgia-66"/>
     <use x="99.609375" xlink:href="#Georgia-74"/>
     <use x="134.130859" xlink:href="#Georgia-65"/>
     <use x="182.470703" xlink:href="#Georgia-72"/>
     <use x="223.4375" xlink:href="#Georgia-20"/>
     <use x="247.558594" xlink:href="#Georgia-63"/>
     <use x="292.96875" xlink:href="#Georgia-6f"/>
     <use x="346.875" xlink:href="#Georgia-6e"/>
     <use x="405.957031" xlink:href="#Georgia-76"/>
     <use x="455.615234" xlink:href="#Georgia-65"/>
     <use x="503.955078" xlink:href="#Georgia-72"/>
     <use x="544.921875" xlink:href="#Georgia-67"/>
     <use x="595.849609" xlink:href="#Georgia-65"/>
     <use x="644.189453" xlink:href="#Georgia-6e"/>
     <use x="703.271484" xlink:href="#Georgia-63"/>
     <use x="748.681641" xlink:href="#Georgia-65"/>
    </g>
   </g>
  </g>
  <g id="axes_3">
   <g id="patch_12">
    <path d="M 626.06 237.4 
L 850.68 237.4 
L 850.68 32.64 
L 626.06 32.64 
z
" style="fill:#ffffff;"/>
   </g>
   <g id="matplotlib.axis_5">
    <g id="xtick_11">
     <g id="line2d_21">
      <g>
       <use style="stroke:#000000;stroke-width:0.8;" x="636.27" xlink:href="#ma89d109389" y="237.4"/>
      </g>
     </g>
     <g id="text_27">
      <!-- 0 -->
      <g transform="translate(632.5875 253.47125)scale(0.12 -0.12)">
       <use xlink:href="#Georgia-30"/>
      </g>
     </g>
    </g>
    <g id="xtick_12">
     <g id="line2d_22">
      <g>
       <use style="stroke:#000000;stroke-width:0.8;" x="677.11" xlink:href="#ma89d109389" y="237.4"/>
      </g>
     </g>
     <g id="text_28">
      <!-- 1 -->
      <g transform="translate(674.531875 253.47125)scale(0.12 -0.12)">
       <use xlink:href="#Georgia-31"/>
      </g>
     </g>
    </g>
    <g id="xtick_13">
     <g id="line2d_23">
      <g>
       <use style="stroke:#000000;stroke-width:0.8;" x="717.95" xlink:href="#ma89d109389" y="237.4"/>
      </g>
     </g>
     <g id="text_29">
      <!-- 2 -->
      <g transform="translate(714.598437 253.47125)scale(0.12 -0.12)">
       <use xlink:href="#Georgia-32"/>
      </g>
     </g>
    </g>
    <g id="xtick_14">
     <g id="line2d_24">
      <g>
       <use style="stroke:#000000;stroke-width:0.8;" x="758.79" xlink:href="#ma89d109389" y="237.4"/>
      </g>
     </g>
     <g id="text_30">
      <!-- 3 -->
      <defs>
       <path d="M 23.78125 -17.828125 
Q 19.1875 -17.828125 15.375 -16.671875 
Q 11.578125 -15.53125 8.84375 -13.578125 
Q 6.109375 -11.625 4.609375 -9.078125 
Q 3.125 -6.546875 3.125 -3.859375 
Q 3.125 -1.46875 4.296875 0.453125 
Q 5.46875 2.390625 8.0625 2.390625 
Q 10.984375 2.390625 12.515625 0.953125 
Q 14.0625 -0.484375 14.0625 -2.34375 
Q 14.0625 -3.90625 13.546875 -6.296875 
Q 13.03125 -8.6875 12.75 -9.71875 
Q 13.09375 -10.15625 13.984375 -10.890625 
Q 14.890625 -11.625 16.21875 -12.203125 
Q 17.78125 -12.9375 19.484375 -13.375 
Q 21.1875 -13.8125 24.3125 -13.8125 
Q 27.25 -13.8125 29.953125 -12.828125 
Q 32.671875 -11.859375 34.71875 -9.71875 
Q 36.859375 -7.46875 38.0625 -4.46875 
Q 39.265625 -1.46875 39.265625 3.421875 
Q 39.265625 6.0625 38.703125 8.640625 
Q 38.140625 11.234375 36.625 13.140625 
Q 35.109375 15.046875 32.5 16.09375 
Q 29.890625 17.140625 25.875 17.140625 
L 19.484375 17.140625 
L 19.484375 22.75 
L 23.734375 22.75 
Q 30.46875 22.75 33.4375 26.453125 
Q 36.421875 30.171875 36.421875 37.640625 
Q 36.421875 43.75 33.546875 46.84375 
Q 30.671875 49.953125 25.390625 49.953125 
Q 22.859375 49.953125 21.21875 49.34375 
Q 19.578125 48.734375 18.5625 48.140625 
Q 17.328125 47.46875 16.546875 46.625 
Q 15.765625 45.796875 15.375 45.40625 
Q 15.71875 43.84375 16.203125 41.578125 
Q 16.703125 39.3125 16.703125 37.25 
Q 16.703125 35.453125 15.15625 34 
Q 13.625 32.5625 10.640625 32.5625 
Q 8.0625 32.5625 6.859375 34.421875 
Q 5.671875 36.28125 5.671875 38.71875 
Q 5.671875 41.265625 7.078125 43.890625 
Q 8.5 46.53125 11.28125 48.828125 
Q 14.0625 51.125 18.0625 52.53125 
Q 22.078125 53.953125 27.296875 53.953125 
Q 33.296875 53.953125 37.21875 52.171875 
Q 41.15625 50.390625 43.40625 47.859375 
Q 45.609375 45.359375 46.4375 42.625 
Q 47.265625 39.890625 47.265625 37.9375 
Q 47.265625 35.5 46.578125 33.03125 
Q 45.90625 30.5625 44.34375 28.46875 
Q 42.625 26.171875 39.8125 24.28125 
Q 37.015625 22.40625 32.765625 21.234375 
L 32.765625 20.453125 
Q 35.5 20.21875 38.59375 19.234375 
Q 41.703125 18.265625 44.1875 16.359375 
Q 46.78125 14.359375 48.4375 11.203125 
Q 50.09375 8.0625 50.09375 3.21875 
Q 50.09375 -6.15625 42.578125 -11.984375 
Q 35.0625 -17.828125 23.78125 -17.828125 
z
" id="Georgia-33"/>
      </defs>
      <g transform="translate(755.479687 253.47125)scale(0.12 -0.12)">
       <use xlink:href="#Georgia-33"/>
      </g>
     </g>
    </g>
    <g id="xtick_15">
     <g id="line2d_25">
      <g>
       <use style="stroke:#000000;stroke-width:0.8;" x="799.63" xlink:href="#ma89d109389" y="237.4"/>
      </g>
     </g>
     <g id="text_31">
      <!-- 4 -->
      <defs>
       <path d="M 52.9375 4.390625 
L 43.015625 4.390625 
L 43.015625 -17.828125 
L 33.640625 -17.828125 
L 33.640625 4.390625 
L 2.390625 4.390625 
L 2.390625 11.921875 
L 36.625 53.65625 
L 43.015625 53.65625 
L 43.015625 10.796875 
L 52.9375 10.796875 
z
M 33.640625 10.796875 
L 33.640625 42.78125 
L 7.28125 10.796875 
z
" id="Georgia-34"/>
      </defs>
      <g transform="translate(796.24 253.47125)scale(0.12 -0.12)">
       <use xlink:href="#Georgia-34"/>
      </g>
     </g>
    </g>
    <g id="xtick_16">
     <g id="line2d_26">
      <g>
       <use style="stroke:#000000;stroke-width:0.8;" x="840.47" xlink:href="#ma89d109389" y="237.4"/>
      </g>
     </g>
     <g id="text_32">
      <!-- 5 -->
      <defs>
       <path d="M 41.15625 22.90625 
Q 44.390625 20.359375 46.515625 16.359375 
Q 48.640625 12.359375 48.640625 6.34375 
Q 48.640625 -4.15625 41.453125 -10.984375 
Q 34.28125 -17.828125 23.25 -17.828125 
Q 14.703125 -17.828125 8.78125 -13.765625 
Q 2.875 -9.71875 2.875 -4.34375 
Q 2.875 -1.859375 4.09375 0 
Q 5.328125 1.859375 7.859375 1.859375 
Q 10.796875 1.859375 12.328125 0.3125 
Q 13.875 -1.21875 13.875 -3.03125 
Q 13.875 -4.59375 13.328125 -6.9375 
Q 12.796875 -9.28125 12.5 -10.40625 
Q 12.890625 -10.75 13.765625 -11.328125 
Q 14.65625 -11.921875 15.875 -12.453125 
Q 17.140625 -12.984375 18.96875 -13.390625 
Q 20.796875 -13.8125 23.25 -13.8125 
Q 26.375 -13.8125 29.15625 -12.546875 
Q 31.9375 -11.28125 33.84375 -8.796875 
Q 35.9375 -6.0625 36.984375 -2.5625 
Q 38.03125 0.921875 38.03125 6.296875 
Q 38.03125 13.1875 34.203125 17.703125 
Q 30.375 22.21875 24.125 22.21875 
Q 20.21875 22.21875 16.8125 20.75 
Q 13.421875 19.28125 10.75 15.875 
L 7.46875 17.140625 
L 11.625 52.390625 
L 46.578125 52.390625 
L 46.578125 43.703125 
L 15.578125 43.703125 
L 13.03125 23 
Q 15.234375 24.5625 18.8125 26.09375 
Q 22.40625 27.640625 26.703125 27.640625 
Q 30.28125 27.640625 34.109375 26.53125 
Q 37.9375 25.4375 41.15625 22.90625 
z
" id="Georgia-35"/>
      </defs>
      <g transform="translate(837.300312 253.47125)scale(0.12 -0.12)">
       <use xlink:href="#Georgia-35"/>
      </g>
     </g>
    </g>
    <g id="text_33">
     <!-- No. iterations -->
     <defs>
      <path d="M 75.875 65.828125 
Q 74.515625 65.765625 71.671875 65.03125 
Q 68.84375 64.3125 67.625 63.53125 
Q 65.875 62.3125 65.265625 58.84375 
Q 64.65625 55.375 64.65625 50.046875 
L 64.65625 -0.6875 
L 60.40625 -0.6875 
L 18.40625 56 
L 18.40625 20.265625 
Q 18.40625 14.265625 19.15625 11.03125 
Q 19.921875 7.8125 21.484375 6.453125 
Q 22.609375 5.375 26.125 4.4375 
Q 29.640625 3.515625 30.765625 3.46875 
L 30.765625 0 
L 2.34375 0 
L 2.34375 3.46875 
Q 3.65625 3.5625 6.78125 4.421875 
Q 9.90625 5.28125 10.6875 5.953125 
Q 12.40625 7.328125 13.03125 10.125 
Q 13.671875 12.9375 13.671875 19.734375 
L 13.671875 53.859375 
Q 13.671875 56.109375 12.890625 58.34375 
Q 12.109375 60.59375 10.796875 61.8125 
Q 9.03125 63.421875 6.03125 64.5625 
Q 3.03125 65.71875 1.171875 65.828125 
L 1.171875 69.28125 
L 20.953125 69.28125 
L 59.90625 16.453125 
L 59.90625 49.421875 
Q 59.90625 55.46875 59.125 58.71875 
Q 58.34375 61.96875 56.890625 63.03125 
Q 55.515625 63.96875 52.40625 64.84375 
Q 49.3125 65.71875 47.703125 65.828125 
L 47.703125 69.28125 
L 75.875 69.28125 
z
" id="Georgia-4e"/>
      <path d="M 20.265625 5.609375 
Q 20.265625 2.875 18.28125 0.9375 
Q 16.3125 -0.984375 13.578125 -0.984375 
Q 10.84375 -0.984375 8.859375 0.9375 
Q 6.890625 2.875 6.890625 5.609375 
Q 6.890625 8.34375 8.859375 10.328125 
Q 10.84375 12.3125 13.578125 12.3125 
Q 16.3125 12.3125 18.28125 10.328125 
Q 20.265625 8.34375 20.265625 5.609375 
z
" id="Georgia-2e"/>
     </defs>
     <g transform="translate(689.9525 272.16875)scale(0.16 -0.16)">
      <use xlink:href="#Georgia-4e"/>
      <use x="76.708984" xlink:href="#Georgia-6f"/>
      <use x="130.615234" xlink:href="#Georgia-2e"/>
      <use x="157.568359" xlink:href="#Georgia-20"/>
      <use x="181.689453" xlink:href="#Georgia-69"/>
      <use x="210.986328" xlink:href="#Georgia-74"/>
      <use x="245.507812" xlink:href="#Georgia-65"/>
      <use x="293.847656" xlink:href="#Georgia-72"/>
      <use x="334.814453" xlink:href="#Georgia-61"/>
      <use x="385.205078" xlink:href="#Georgia-74"/>
      <use x="419.726562" xlink:href="#Georgia-69"/>
      <use x="449.023438" xlink:href="#Georgia-6f"/>
      <use x="502.929688" xlink:href="#Georgia-6e"/>
      <use x="562.011719" xlink:href="#Georgia-73"/>
     </g>
    </g>
   </g>
   <g id="matplotlib.axis_6">
    <g id="ytick_11">
     <g id="line2d_27">
      <g>
       <use style="stroke:#000000;stroke-width:0.8;" x="626.06" xlink:href="#me40f4024d5" y="215.208804"/>
      </g>
     </g>
     <g id="text_34">
      <!-- 50 -->
      <g transform="translate(605.355625 219.744429)scale(0.12 -0.12)">
       <use xlink:href="#Georgia-35"/>
       <use x="52.832031" xlink:href="#Georgia-30"/>
      </g>
     </g>
    </g>
    <g id="ytick_12">
     <g id="line2d_28">
      <g>
       <use style="stroke:#000000;stroke-width:0.8;" x="626.06" xlink:href="#me40f4024d5" y="184.543767"/>
      </g>
     </g>
     <g id="text_35">
      <!-- 100 -->
      <g transform="translate(599.17375 189.079392)scale(0.12 -0.12)">
       <use xlink:href="#Georgia-31"/>
       <use x="42.96875" xlink:href="#Georgia-30"/>
       <use x="104.345703" xlink:href="#Georgia-30"/>
      </g>
     </g>
    </g>
    <g id="ytick_13">
     <g id="line2d_29">
      <g>
       <use style="stroke:#000000;stroke-width:0.8;" x="626.06" xlink:href="#me40f4024d5" y="153.87873"/>
      </g>
     </g>
     <g id="text_36">
      <!-- 150 -->
      <g transform="translate(600.199375 158.414355)scale(0.12 -0.12)">
       <use xlink:href="#Georgia-31"/>
       <use x="42.96875" xlink:href="#Georgia-35"/>
       <use x="95.800781" xlink:href="#Georgia-30"/>
      </g>
     </g>
    </g>
    <g id="ytick_14">
     <g id="line2d_30">
      <g>
       <use style="stroke:#000000;stroke-width:0.8;" x="626.06" xlink:href="#me40f4024d5" y="123.213693"/>
      </g>
     </g>
     <g id="text_37">
      <!-- 200 -->
      <g transform="translate(597.626875 127.749318)scale(0.12 -0.12)">
       <use xlink:href="#Georgia-32"/>
       <use x="55.859375" xlink:href="#Georgia-30"/>
       <use x="117.236328" xlink:href="#Georgia-30"/>
      </g>
     </g>
    </g>
    <g id="ytick_15">
     <g id="line2d_31">
      <g>
       <use style="stroke:#000000;stroke-width:0.8;" x="626.06" xlink:href="#me40f4024d5" y="92.548656"/>
      </g>
     </g>
     <g id="text_38">
      <!-- 250 -->
      <g transform="translate(598.6525 97.084281)scale(0.12 -0.12)">
       <use xlink:href="#Georgia-32"/>
       <use x="55.859375" xlink:href="#Georgia-35"/>
       <use x="108.691406" xlink:href="#Georgia-30"/>
      </g>
     </g>
    </g>
    <g id="ytick_16">
     <g id="line2d_32">
      <g>
       <use style="stroke:#000000;stroke-width:0.8;" x="626.06" xlink:href="#me40f4024d5" y="61.883618"/>
      </g>
     </g>
     <g id="text_39">
      <!-- 300 -->
      <g transform="translate(597.709375 66.419243)scale(0.12 -0.12)">
       <use xlink:href="#Georgia-33"/>
       <use x="55.175781" xlink:href="#Georgia-30"/>
       <use x="116.552734" xlink:href="#Georgia-30"/>
      </g>
     </g>
    </g>
    <g id="text_40">
     <!-- Cost $\mathcal{C}$ -->
     <defs>
      <path d="M 35.296875 -1.609375 
Q 29.109375 -1.609375 23.40625 0.828125 
Q 17.71875 3.265625 13.328125 7.859375 
Q 8.984375 12.453125 6.390625 19.0625 
Q 3.8125 25.6875 3.8125 33.984375 
Q 3.8125 42.28125 6.34375 49.046875 
Q 8.890625 55.8125 13.375 60.6875 
Q 17.828125 65.53125 23.875 68.15625 
Q 29.9375 70.796875 36.8125 70.796875 
Q 41.9375 70.796875 46.09375 69.53125 
Q 50.25 68.265625 54 65.96875 
L 56 69.28125 
L 59.90625 69.28125 
L 60.359375 44.578125 
L 56.34375 44.578125 
Q 55.5625 48.1875 54 52.40625 
Q 52.4375 56.640625 50.34375 59.578125 
Q 48 62.890625 44.765625 64.765625 
Q 41.546875 66.65625 37.40625 66.65625 
Q 32.671875 66.65625 28.59375 64.546875 
Q 24.515625 62.453125 21.53125 58.34375 
Q 18.703125 54.390625 17.09375 48.28125 
Q 15.484375 42.1875 15.484375 34.671875 
Q 15.484375 28.03125 17.15625 22.484375 
Q 18.84375 16.9375 21.96875 12.75 
Q 25.09375 8.59375 29.359375 6.25 
Q 33.640625 3.90625 38.921875 3.90625 
Q 42.875 3.90625 46.1875 5.140625 
Q 49.515625 6.390625 51.953125 8.453125 
Q 54.390625 10.59375 56.25 13.328125 
Q 58.109375 16.0625 59.28125 19.28125 
L 62.9375 17.53125 
Q 58.734375 7.234375 51.796875 2.8125 
Q 44.875 -1.609375 35.296875 -1.609375 
z
" id="Georgia-43"/>
      <path d="M 51.40625 14 
L 52.90625 12.40625 
Q 52.40625 11.59375 51.703125 10.6875 
Q 51 9.796875 48.59375 7.4375 
Q 46.203125 5.09375 43.546875 3.390625 
Q 40.90625 1.703125 36.65625 0.296875 
Q 32.40625 -1.09375 27.90625 -1.09375 
Q 18.09375 -1.09375 11.1875 4.65625 
Q 4.296875 10.40625 4.296875 21.90625 
Q 4.296875 38 14.796875 50.5 
Q 25.296875 63 40 66.296875 
Q 43.796875 67.09375 46.703125 67.09375 
Q 52.09375 67.09375 55.34375 64.59375 
Q 58.59375 62.09375 58.59375 57.703125 
Q 58.59375 55 56.390625 52.09375 
Q 54.203125 49.203125 51.09375 49.203125 
Q 48.5 49.203125 47 50.703125 
Q 45.5 52.203125 45.5 54.40625 
Q 45.5 56.09375 46.296875 57.25 
Q 47.09375 58.40625 48 58.796875 
Q 48.90625 59.203125 49.703125 59.796875 
Q 50.5 60.40625 50.5 61.296875 
Q 50.5 62.296875 49 62.9375 
Q 47.5 63.59375 45.703125 63.59375 
Q 37.59375 63.59375 30.296875 57.9375 
Q 23 52.296875 18.90625 42.203125 
Q 15 32.40625 15 21.40625 
Q 15 12.296875 19.546875 7.75 
Q 24.09375 3.203125 31.203125 3.203125 
Q 41.203125 3.203125 51.40625 14 
z
" id="STIXNonUnicode-Italic-e22f"/>
     </defs>
     <g transform="translate(590.156875 157.18)rotate(-90)scale(0.16 -0.16)">
      <use transform="translate(0 0.203125)" xlink:href="#Georgia-43"/>
      <use transform="translate(64.208984 0.203125)" xlink:href="#Georgia-6f"/>
      <use transform="translate(118.115234 0.203125)" xlink:href="#Georgia-73"/>
      <use transform="translate(161.328125 0.203125)" xlink:href="#Georgia-74"/>
      <use transform="translate(195.849609 0.203125)" xlink:href="#Georgia-20"/>
      <use transform="translate(219.970703 0.203125)" xlink:href="#STIXNonUnicode-Italic-e22f"/>
     </g>
    </g>
   </g>
   <g id="line2d_33">
    <path clip-path="url(#p20d6d9e473)" d="M 636.27 41.947273 
L 677.11 185.77435 
L 717.95 215.581578 
L 758.79 227.430659 
L 799.63 228.092727 
L 840.47 228.092727 
" style="fill:none;stroke:#000000;stroke-linecap:square;stroke-width:1.5;"/>
   </g>
   <g id="patch_13">
    <path d="M 626.06 237.4 
L 626.06 32.64 
" style="fill:none;stroke:#000000;stroke-linecap:square;stroke-linejoin:miter;stroke-width:0.8;"/>
   </g>
   <g id="patch_14">
    <path d="M 850.68 237.4 
L 850.68 32.64 
" style="fill:none;stroke:#000000;stroke-linecap:square;stroke-linejoin:miter;stroke-width:0.8;"/>
   </g>
   <g id="patch_15">
    <path d="M 626.06 237.4 
L 850.68 237.4 
" style="fill:none;stroke:#000000;stroke-linecap:square;stroke-linejoin:miter;stroke-width:0.8;"/>
   </g>
   <g id="patch_16">
    <path d="M 626.06 32.64 
L 850.68 32.64 
" style="fill:none;stroke:#000000;stroke-linecap:square;stroke-linejoin:miter;stroke-width:0.8;"/>
   </g>
   <g id="text_41">
    <!-- Optimisation of $\mathcal{C}$ -->
    <defs>
     <path d="M 60.75 61.078125 
Q 65.328125 56.296875 67.921875 49.53125 
Q 70.515625 42.78125 70.515625 34.578125 
Q 70.515625 26.3125 67.875 19.578125 
Q 65.234375 12.84375 60.546875 8.109375 
Q 56 3.421875 50 0.875 
Q 44 -1.65625 37.203125 -1.65625 
Q 29.984375 -1.65625 23.84375 1.046875 
Q 17.71875 3.765625 13.328125 8.59375 
Q 8.9375 13.328125 6.421875 20.09375 
Q 3.90625 26.859375 3.90625 34.578125 
Q 3.90625 43.015625 6.546875 49.625 
Q 9.1875 56.25 13.8125 61.078125 
Q 18.40625 65.875 24.484375 68.40625 
Q 30.5625 70.953125 37.203125 70.953125 
Q 44.09375 70.953125 50.1875 68.359375 
Q 56.296875 65.765625 60.75 61.078125 
z
M 53.46875 11.96875 
Q 56.203125 16.40625 57.4375 22.015625 
Q 58.6875 27.640625 58.6875 34.578125 
Q 58.6875 41.703125 57.296875 47.65625 
Q 55.90625 53.609375 53.21875 57.8125 
Q 50.53125 61.96875 46.484375 64.28125 
Q 42.4375 66.609375 37.203125 66.609375 
Q 31.34375 66.609375 27.234375 63.921875 
Q 23.140625 61.234375 20.5625 56.734375 
Q 18.109375 52.4375 16.90625 46.671875 
Q 15.71875 40.921875 15.71875 34.578125 
Q 15.71875 27.546875 16.984375 21.875 
Q 18.265625 16.21875 21 11.8125 
Q 23.640625 7.515625 27.640625 5.09375 
Q 31.640625 2.6875 37.203125 2.6875 
Q 42.4375 2.6875 46.625 5.125 
Q 50.828125 7.5625 53.46875 11.96875 
z
" id="Georgia-4f"/>
     <path d="M 47.515625 42.4375 
Q 50.390625 39.015625 51.96875 34.5 
Q 53.5625 29.984375 53.5625 24.171875 
Q 53.5625 18.453125 51.65625 13.734375 
Q 49.75 9.03125 46.625 5.71875 
Q 43.359375 2.34375 39.359375 0.53125 
Q 35.359375 -1.265625 30.859375 -1.265625 
Q 26.515625 -1.265625 23.734375 -0.28125 
Q 20.953125 0.6875 19.1875 2 
L 18.796875 2 
L 18.796875 -12.453125 
Q 18.796875 -14.203125 19.484375 -15.375 
Q 20.171875 -16.546875 21.578125 -17.09375 
Q 22.75 -17.53125 24.921875 -17.9375 
Q 27.09375 -18.359375 28.515625 -18.40625 
L 28.515625 -21.6875 
L 1.609375 -21.6875 
L 1.609375 -18.40625 
Q 3.125 -18.3125 4.53125 -18.15625 
Q 5.953125 -18.015625 7.078125 -17.671875 
Q 8.546875 -17.1875 9.125 -15.96875 
Q 9.71875 -14.75 9.71875 -13.09375 
L 9.71875 38.140625 
Q 9.71875 39.59375 8.984375 40.953125 
Q 8.25 42.328125 7.078125 43.171875 
Q 6.203125 43.75 4.640625 44.0625 
Q 3.078125 44.390625 1.609375 44.484375 
L 1.609375 47.65625 
L 18.015625 48.734375 
L 18.703125 48.140625 
L 18.703125 42.71875 
L 19.09375 42.625 
Q 21.625 45.5625 25.390625 47.515625 
Q 29.15625 49.46875 32.859375 49.46875 
Q 37.359375 49.46875 41.09375 47.5625 
Q 44.828125 45.65625 47.515625 42.4375 
z
M 39.546875 7.8125 
Q 41.5 10.84375 42.421875 14.84375 
Q 43.359375 18.84375 43.359375 23.78125 
Q 43.359375 27.390625 42.578125 31.140625 
Q 41.796875 34.90625 40.140625 37.703125 
Q 38.484375 40.53125 35.796875 42.28125 
Q 33.109375 44.046875 29.34375 44.046875 
Q 25.734375 44.046875 23.1875 42.453125 
Q 20.65625 40.875 18.796875 38.671875 
L 18.796875 10.203125 
Q 19.234375 8.890625 20.234375 7.46875 
Q 21.234375 6.0625 22.46875 5.03125 
Q 23.96875 3.8125 25.71875 3.046875 
Q 27.484375 2.296875 30.03125 2.296875 
Q 32.765625 2.296875 35.296875 3.734375 
Q 37.84375 5.171875 39.546875 7.8125 
z
" id="Georgia-70"/>
     <path d="M 85.984375 0 
L 62.5 0 
L 62.5 3.21875 
Q 63.625 3.328125 64.765625 3.421875 
Q 65.921875 3.515625 66.796875 3.8125 
Q 68.171875 4.25 68.828125 5.34375 
Q 69.484375 6.453125 69.484375 8.203125 
L 69.484375 33.0625 
Q 69.484375 38.140625 67.15625 40.890625 
Q 64.84375 43.65625 61.375 43.65625 
Q 58.984375 43.65625 56.875 42.921875 
Q 54.78125 42.1875 53.03125 40.875 
Q 51.609375 39.796875 50.65625 38.546875 
Q 49.703125 37.3125 49.21875 36.46875 
L 49.21875 8.6875 
Q 49.21875 6.984375 49.796875 5.875 
Q 50.390625 4.78125 51.8125 4.203125 
Q 52.9375 3.765625 53.828125 3.546875 
Q 54.734375 3.328125 56.203125 3.21875 
L 56.203125 0 
L 33.203125 0 
L 33.203125 3.21875 
Q 34.328125 3.328125 35.375 3.421875 
Q 36.421875 3.515625 37.3125 3.8125 
Q 38.671875 4.25 39.328125 5.34375 
Q 39.984375 6.453125 39.984375 8.203125 
L 39.984375 33.0625 
Q 39.984375 38.140625 37.671875 40.890625 
Q 35.359375 43.65625 31.890625 43.65625 
Q 29.5 43.65625 27.390625 42.890625 
Q 25.296875 42.140625 23.53125 40.828125 
Q 22.125 39.75 21.140625 38.40625 
Q 20.171875 37.0625 19.671875 36.375 
L 19.671875 8.796875 
Q 19.671875 7.125 20.359375 6 
Q 21.046875 4.890625 22.40625 4.296875 
Q 23.4375 3.8125 24.515625 3.5625 
Q 25.59375 3.328125 26.90625 3.21875 
L 26.90625 0 
L 3.515625 0 
L 3.515625 3.21875 
Q 4.640625 3.328125 5.828125 3.421875 
Q 7.03125 3.515625 7.90625 3.8125 
Q 9.28125 4.25 9.9375 5.34375 
Q 10.59375 6.453125 10.59375 8.203125 
L 10.59375 38.140625 
Q 10.59375 39.703125 9.890625 40.9375 
Q 9.1875 42.1875 7.90625 43.0625 
Q 6.984375 43.65625 5.609375 44.015625 
Q 4.25 44.390625 2.78125 44.484375 
L 2.78125 47.65625 
L 18.890625 48.734375 
L 19.578125 48.046875 
L 19.578125 41.15625 
L 19.921875 41.15625 
Q 21.140625 42.390625 22.890625 44.046875 
Q 24.65625 45.703125 26.171875 46.734375 
Q 27.875 47.90625 30.4375 48.6875 
Q 33.015625 49.46875 35.984375 49.46875 
Q 40.671875 49.46875 44.03125 46.953125 
Q 47.40625 44.4375 48.875 40.875 
Q 50.640625 42.578125 51.984375 43.875 
Q 53.328125 45.171875 55.515625 46.625 
Q 57.375 47.90625 59.890625 48.6875 
Q 62.40625 49.46875 65.484375 49.46875 
Q 71.578125 49.46875 75.140625 45.453125 
Q 78.71875 41.453125 78.71875 33.15625 
L 78.71875 8.6875 
Q 78.71875 6.984375 79.296875 5.875 
Q 79.890625 4.78125 81.296875 4.203125 
Q 82.421875 3.765625 83.515625 3.546875 
Q 84.625 3.328125 85.984375 3.21875 
z
" id="Georgia-6d"/>
    </defs>
    <g transform="translate(668.62 26.64)scale(0.18 -0.18)">
     <use transform="translate(0 0.359375)" xlink:href="#Georgia-4f"/>
     <use transform="translate(74.414062 0.359375)" xlink:href="#Georgia-70"/>
     <use transform="translate(131.542969 0.359375)" xlink:href="#Georgia-74"/>
     <use transform="translate(166.064453 0.359375)" xlink:href="#Georgia-69"/>
     <use transform="translate(195.361328 0.359375)" xlink:href="#Georgia-6d"/>
     <use transform="translate(283.447266 0.359375)" xlink:href="#Georgia-69"/>
     <use transform="translate(312.744141 0.359375)" xlink:href="#Georgia-73"/>
     <use transform="translate(355.957031 0.359375)" xlink:href="#Georgia-61"/>
     <use transform="translate(406.347656 0.359375)" xlink:href="#Georgia-74"/>
     <use transform="translate(440.869141 0.359375)" xlink:href="#Georgia-69"/>
     <use transform="translate(470.166016 0.359375)" xlink:href="#Georgia-6f"/>
     <use transform="translate(524.072266 0.359375)" xlink:href="#Georgia-6e"/>
     <use transform="translate(583.154297 0.359375)" xlink:href="#Georgia-20"/>
     <use transform="translate(607.275391 0.359375)" xlink:href="#Georgia-6f"/>
     <use transform="translate(661.181641 0.359375)" xlink:href="#Georgia-66"/>
     <use transform="translate(693.701172 0.359375)" xlink:href="#Georgia-20"/>
     <use transform="translate(717.822266 0.359375)" xlink:href="#STIXNonUnicode-Italic-e22f"/>
    </g>
   </g>
  </g>
  <g id="patch_17">
   <path d="M 260.158915 151.309616 
Q 297.758316 165.790343 335.307597 157.048301 
L 333.947091 151.204585 
Q 343.949053 154.035524 355.320393 155.040579 
Q 347.585941 163.404583 338.48211 170.68364 
L 337.121604 164.839924 
Q 297.177604 174.139492 257.283724 158.775088 
L 260.158915 151.309616 
z
" style="fill:#ffa500;stroke:#000000;stroke-linecap:round;"/>
  </g>
 </g>
 <defs>
  <clipPath id="p5362ddd699">
   <rect height="204.76" width="224.62" x="52.04" y="32.64"/>
  </clipPath>
  <clipPath id="pabf8a7e50d">
   <rect height="204.76" width="224.62" x="339.05" y="32.64"/>
  </clipPath>
  <clipPath id="p20d6d9e473">
   <rect height="204.76" width="224.62" x="626.06" y="32.64"/>
  </clipPath>
 </defs>
</svg>
