<?xml version="1.0" encoding="utf-8" standalone="no"?>
<!DOCTYPE svg PUBLIC "-//W3C//DTD SVG 1.1//EN"
  "http://www.w3.org/Graphics/SVG/1.1/DTD/svg11.dtd">
<!-- Created with matplotlib (http://matplotlib.org/) -->
<svg height="230.280937pt" version="1.1" viewBox="0 0 579.4 230.280937" width="579.4pt" xmlns="http://www.w3.org/2000/svg" xmlns:xlink="http://www.w3.org/1999/xlink">
 <defs>
  <style type="text/css">
*{stroke-linecap:butt;stroke-linejoin:round;}
  </style>
 </defs>
 <g id="figure_1">
  <g id="patch_1">
   <path d="M 0 230.280937 
L 579.4 230.280937 
L 579.4 0 
L 0 0 
z
" style="fill:none;"/>
  </g>
  <g id="axes_1">
   <g id="patch_2">
    <path d="M 10.7 186.917812 
L 568.7 186.917812 
L 568.7 23.837812 
L 10.7 23.837812 
z
" style="fill:#ffffff;"/>
   </g>
   <g id="PathCollection_1">
    <defs>
     <path d="M -1.936492 1.936492 
L 1.936492 -1.936492 
M -1.936492 -1.936492 
L 1.936492 1.936492 
" id="mb99624309f" style="stroke:#0000ff;stroke-width:1.5;"/>
    </defs>
    <g clip-path="url(#pc5a6870f5d)">
     <use style="fill:#0000ff;stroke:#0000ff;stroke-width:1.5;" x="379.162301" xlink:href="#mb99624309f" y="105.377812"/>
     <use style="fill:#0000ff;stroke:#0000ff;stroke-width:1.5;" x="255.972169" xlink:href="#mb99624309f" y="105.377812"/>
     <use style="fill:#0000ff;stroke:#0000ff;stroke-width:1.5;" x="351.856729" xlink:href="#mb99624309f" y="105.377812"/>
     <use style="fill:#0000ff;stroke:#0000ff;stroke-width:1.5;" x="469.420375" xlink:href="#mb99624309f" y="105.377812"/>
     <use style="fill:#0000ff;stroke:#0000ff;stroke-width:1.5;" x="381.58947" xlink:href="#mb99624309f" y="105.377812"/>
     <use style="fill:#0000ff;stroke:#0000ff;stroke-width:1.5;" x="417.117136" xlink:href="#mb99624309f" y="105.377812"/>
     <use style="fill:#0000ff;stroke:#0000ff;stroke-width:1.5;" x="299.911027" xlink:href="#mb99624309f" y="105.377812"/>
     <use style="fill:#0000ff;stroke:#0000ff;stroke-width:1.5;" x="357.579075" xlink:href="#mb99624309f" y="105.377812"/>
     <use style="fill:#0000ff;stroke:#0000ff;stroke-width:1.5;" x="334.370366" xlink:href="#mb99624309f" y="105.377812"/>
     <use style="fill:#0000ff;stroke:#0000ff;stroke-width:1.5;" x="425.777237" xlink:href="#mb99624309f" y="105.377812"/>
    </g>
   </g>
   <g id="PathCollection_2">
    <defs>
     <path d="M -1.936492 1.936492 
L 1.936492 -1.936492 
M -1.936492 -1.936492 
L 1.936492 1.936492 
" id="m908da60eb3" style="stroke:#ff0000;stroke-width:1.5;"/>
    </defs>
    <g clip-path="url(#pc5a6870f5d)">
     <use style="fill:#ff0000;stroke:#ff0000;stroke-width:1.5;" x="229.435418" xlink:href="#m908da60eb3" y="105.377812"/>
     <use style="fill:#ff0000;stroke:#ff0000;stroke-width:1.5;" x="137.5983" xlink:href="#m908da60eb3" y="105.377812"/>
     <use style="fill:#ff0000;stroke:#ff0000;stroke-width:1.5;" x="296.608889" xlink:href="#m908da60eb3" y="105.377812"/>
     <use style="fill:#ff0000;stroke:#ff0000;stroke-width:1.5;" x="323.480119" xlink:href="#m908da60eb3" y="105.377812"/>
     <use style="fill:#ff0000;stroke:#ff0000;stroke-width:1.5;" x="350.309281" xlink:href="#m908da60eb3" y="105.377812"/>
     <use style="fill:#ff0000;stroke:#ff0000;stroke-width:1.5;" x="223.95974" xlink:href="#m908da60eb3" y="105.377812"/>
     <use style="fill:#ff0000;stroke:#ff0000;stroke-width:1.5;" x="132.096803" xlink:href="#m908da60eb3" y="105.377812"/>
     <use style="fill:#ff0000;stroke:#ff0000;stroke-width:1.5;" x="36.798774" xlink:href="#m908da60eb3" y="105.377812"/>
     <use style="fill:#ff0000;stroke:#ff0000;stroke-width:1.5;" x="97.656379" xlink:href="#m908da60eb3" y="105.377812"/>
     <use style="fill:#ff0000;stroke:#ff0000;stroke-width:1.5;" x="214.739891" xlink:href="#m908da60eb3" y="105.377812"/>
    </g>
   </g>
   <g id="PathCollection_3">
    <defs>
     <path d="M 0 2.236068 
C 0.593012 2.236068 1.161816 2.000462 1.581139 1.581139 
C 2.000462 1.161816 2.236068 0.593012 2.236068 0 
C 2.236068 -0.593012 2.000462 -1.161816 1.581139 -1.581139 
C 1.161816 -2.000462 0.593012 -2.236068 0 -2.236068 
C -0.593012 -2.236068 -1.161816 -2.000462 -1.581139 -1.581139 
C -2.000462 -1.161816 -2.236068 -0.593012 -2.236068 0 
C -2.236068 0.593012 -2.000462 1.161816 -1.581139 1.581139 
C -1.161816 2.000462 -0.593012 2.236068 0 2.236068 
z
" id="m54a6622abf" style="stroke:#0000ff;"/>
    </defs>
    <g clip-path="url(#pc5a6870f5d)">
     <use style="fill:#0000ff;stroke:#0000ff;" x="441.958569" xlink:href="#m54a6622abf" y="105.377812"/>
     <use style="fill:#0000ff;stroke:#0000ff;" x="217.358575" xlink:href="#m54a6622abf" y="105.377812"/>
     <use style="fill:#0000ff;stroke:#0000ff;" x="428.068066" xlink:href="#m54a6622abf" y="105.377812"/>
     <use style="fill:#0000ff;stroke:#0000ff;" x="410.436239" xlink:href="#m54a6622abf" y="105.377812"/>
     <use style="fill:#0000ff;stroke:#0000ff;" x="541.616109" xlink:href="#m54a6622abf" y="105.377812"/>
     <use style="fill:#0000ff;stroke:#0000ff;" x="501.139953" xlink:href="#m54a6622abf" y="105.377812"/>
     <use style="fill:#0000ff;stroke:#0000ff;" x="375.08562" xlink:href="#m54a6622abf" y="105.377812"/>
    </g>
   </g>
   <g id="PathCollection_4">
    <defs>
     <path d="M 0 2.236068 
C 0.593012 2.236068 1.161816 2.000462 1.581139 1.581139 
C 2.000462 1.161816 2.236068 0.593012 2.236068 0 
C 2.236068 -0.593012 2.000462 -1.161816 1.581139 -1.581139 
C 1.161816 -2.000462 0.593012 -2.236068 0 -2.236068 
C -0.593012 -2.236068 -1.161816 -2.000462 -1.581139 -1.581139 
C -2.000462 -1.161816 -2.236068 -0.593012 -2.236068 0 
C -2.236068 0.593012 -2.000462 1.161816 -1.581139 1.581139 
C -1.161816 2.000462 -0.593012 2.236068 0 2.236068 
z
" id="mac3cdf5138" style="stroke:#ff0000;"/>
    </defs>
    <g clip-path="url(#pc5a6870f5d)">
     <use style="fill:#ff0000;stroke:#ff0000;" x="117.720797" xlink:href="#mac3cdf5138" y="105.377812"/>
     <use style="fill:#ff0000;stroke:#ff0000;" x="337.582954" xlink:href="#mac3cdf5138" y="105.377812"/>
     <use style="fill:#ff0000;stroke:#ff0000;" x="268.051704" xlink:href="#mac3cdf5138" y="105.377812"/>
     <use style="fill:#ff0000;stroke:#ff0000;" x="286.954017" xlink:href="#mac3cdf5138" y="105.377812"/>
     <use style="fill:#ff0000;stroke:#ff0000;" x="261.195661" xlink:href="#mac3cdf5138" y="105.377812"/>
     <use style="fill:#ff0000;stroke:#ff0000;" x="189.735095" xlink:href="#mac3cdf5138" y="105.377812"/>
     <use style="fill:#ff0000;stroke:#ff0000;" x="251.096973" xlink:href="#mac3cdf5138" y="105.377812"/>
     <use style="fill:#ff0000;stroke:#ff0000;" x="380.664447" xlink:href="#mac3cdf5138" y="105.377812"/>
     <use style="fill:#ff0000;stroke:#ff0000;" x="143.356682" xlink:href="#mac3cdf5138" y="105.377812"/>
     <use style="fill:#ff0000;stroke:#ff0000;" x="165.970023" xlink:href="#mac3cdf5138" y="105.377812"/>
     <use style="fill:#ff0000;stroke:#ff0000;" x="207.554422" xlink:href="#mac3cdf5138" y="105.377812"/>
     <use style="fill:#ff0000;stroke:#ff0000;" x="338.896708" xlink:href="#mac3cdf5138" y="105.377812"/>
     <use style="fill:#ff0000;stroke:#ff0000;" x="212.304152" xlink:href="#mac3cdf5138" y="105.377812"/>
    </g>
   </g>
   <g id="matplotlib.axis_1">
    <g id="xtick_1">
     <g id="line2d_1">
      <defs>
       <path d="M 0 0 
L 0 3.5 
" id="mcd6f4aa54e" style="stroke:#000000;stroke-width:0.8;"/>
      </defs>
      <g>
       <use style="stroke:#000000;stroke-width:0.8;" x="60.221637" xlink:href="#mcd6f4aa54e" y="186.917812"/>
      </g>
     </g>
     <g id="text_1">
      <!-- −2 -->
      <defs>
       <path d="M 10.59375 35.5 
L 73.1875 35.5 
L 73.1875 27.203125 
L 10.59375 27.203125 
z
" id="DejaVuSans-2212"/>
       <path d="M 19.1875 8.296875 
L 53.609375 8.296875 
L 53.609375 0 
L 7.328125 0 
L 7.328125 8.296875 
Q 12.9375 14.109375 22.625 23.890625 
Q 32.328125 33.6875 34.8125 36.53125 
Q 39.546875 41.84375 41.421875 45.53125 
Q 43.3125 49.21875 43.3125 52.78125 
Q 43.3125 58.59375 39.234375 62.25 
Q 35.15625 65.921875 28.609375 65.921875 
Q 23.96875 65.921875 18.8125 64.3125 
Q 13.671875 62.703125 7.8125 59.421875 
L 7.8125 69.390625 
Q 13.765625 71.78125 18.9375 73 
Q 24.125 74.21875 28.421875 74.21875 
Q 39.75 74.21875 46.484375 68.546875 
Q 53.21875 62.890625 53.21875 53.421875 
Q 53.21875 48.921875 51.53125 44.890625 
Q 49.859375 40.875 45.40625 35.40625 
Q 44.1875 33.984375 37.640625 27.21875 
Q 31.109375 20.453125 19.1875 8.296875 
z
" id="DejaVuSans-32"/>
      </defs>
      <g transform="translate(51.376324 203.035937)scale(0.12 -0.12)">
       <use xlink:href="#DejaVuSans-2212"/>
       <use x="83.789062" xlink:href="#DejaVuSans-32"/>
      </g>
     </g>
    </g>
    <g id="xtick_2">
     <g id="line2d_2">
      <g>
       <use style="stroke:#000000;stroke-width:0.8;" x="143.686687" xlink:href="#mcd6f4aa54e" y="186.917812"/>
      </g>
     </g>
     <g id="text_2">
      <!-- −1 -->
      <defs>
       <path d="M 12.40625 8.296875 
L 28.515625 8.296875 
L 28.515625 63.921875 
L 10.984375 60.40625 
L 10.984375 69.390625 
L 28.421875 72.90625 
L 38.28125 72.90625 
L 38.28125 8.296875 
L 54.390625 8.296875 
L 54.390625 0 
L 12.40625 0 
z
" id="DejaVuSans-31"/>
      </defs>
      <g transform="translate(134.841374 203.035937)scale(0.12 -0.12)">
       <use xlink:href="#DejaVuSans-2212"/>
       <use x="83.789062" xlink:href="#DejaVuSans-31"/>
      </g>
     </g>
    </g>
    <g id="xtick_3">
     <g id="line2d_3">
      <g>
       <use style="stroke:#000000;stroke-width:0.8;" x="227.151737" xlink:href="#mcd6f4aa54e" y="186.917812"/>
      </g>
     </g>
     <g id="text_3">
      <!-- 0 -->
      <defs>
       <path d="M 31.78125 66.40625 
Q 24.171875 66.40625 20.328125 58.90625 
Q 16.5 51.421875 16.5 36.375 
Q 16.5 21.390625 20.328125 13.890625 
Q 24.171875 6.390625 31.78125 6.390625 
Q 39.453125 6.390625 43.28125 13.890625 
Q 47.125 21.390625 47.125 36.375 
Q 47.125 51.421875 43.28125 58.90625 
Q 39.453125 66.40625 31.78125 66.40625 
z
M 31.78125 74.21875 
Q 44.046875 74.21875 50.515625 64.515625 
Q 56.984375 54.828125 56.984375 36.375 
Q 56.984375 17.96875 50.515625 8.265625 
Q 44.046875 -1.421875 31.78125 -1.421875 
Q 19.53125 -1.421875 13.0625 8.265625 
Q 6.59375 17.96875 6.59375 36.375 
Q 6.59375 54.828125 13.0625 64.515625 
Q 19.53125 74.21875 31.78125 74.21875 
z
" id="DejaVuSans-30"/>
      </defs>
      <g transform="translate(223.334237 203.035937)scale(0.12 -0.12)">
       <use xlink:href="#DejaVuSans-30"/>
      </g>
     </g>
    </g>
    <g id="xtick_4">
     <g id="line2d_4">
      <g>
       <use style="stroke:#000000;stroke-width:0.8;" x="310.616787" xlink:href="#mcd6f4aa54e" y="186.917812"/>
      </g>
     </g>
     <g id="text_4">
      <!-- 1 -->
      <g transform="translate(306.799287 203.035937)scale(0.12 -0.12)">
       <use xlink:href="#DejaVuSans-31"/>
      </g>
     </g>
    </g>
    <g id="xtick_5">
     <g id="line2d_5">
      <g>
       <use style="stroke:#000000;stroke-width:0.8;" x="394.081837" xlink:href="#mcd6f4aa54e" y="186.917812"/>
      </g>
     </g>
     <g id="text_5">
      <!-- 2 -->
      <g transform="translate(390.264337 203.035937)scale(0.12 -0.12)">
       <use xlink:href="#DejaVuSans-32"/>
      </g>
     </g>
    </g>
    <g id="xtick_6">
     <g id="line2d_6">
      <g>
       <use style="stroke:#000000;stroke-width:0.8;" x="477.546887" xlink:href="#mcd6f4aa54e" y="186.917812"/>
      </g>
     </g>
     <g id="text_6">
      <!-- 3 -->
      <defs>
       <path d="M 40.578125 39.3125 
Q 47.65625 37.796875 51.625 33 
Q 55.609375 28.21875 55.609375 21.1875 
Q 55.609375 10.40625 48.1875 4.484375 
Q 40.765625 -1.421875 27.09375 -1.421875 
Q 22.515625 -1.421875 17.65625 -0.515625 
Q 12.796875 0.390625 7.625 2.203125 
L 7.625 11.71875 
Q 11.71875 9.328125 16.59375 8.109375 
Q 21.484375 6.890625 26.8125 6.890625 
Q 36.078125 6.890625 40.9375 10.546875 
Q 45.796875 14.203125 45.796875 21.1875 
Q 45.796875 27.640625 41.28125 31.265625 
Q 36.765625 34.90625 28.71875 34.90625 
L 20.21875 34.90625 
L 20.21875 43.015625 
L 29.109375 43.015625 
Q 36.375 43.015625 40.234375 45.921875 
Q 44.09375 48.828125 44.09375 54.296875 
Q 44.09375 59.90625 40.109375 62.90625 
Q 36.140625 65.921875 28.71875 65.921875 
Q 24.65625 65.921875 20.015625 65.03125 
Q 15.375 64.15625 9.8125 62.3125 
L 9.8125 71.09375 
Q 15.4375 72.65625 20.34375 73.4375 
Q 25.25 74.21875 29.59375 74.21875 
Q 40.828125 74.21875 47.359375 69.109375 
Q 53.90625 64.015625 53.90625 55.328125 
Q 53.90625 49.265625 50.4375 45.09375 
Q 46.96875 40.921875 40.578125 39.3125 
z
" id="DejaVuSans-33"/>
      </defs>
      <g transform="translate(473.729387 203.035937)scale(0.12 -0.12)">
       <use xlink:href="#DejaVuSans-33"/>
      </g>
     </g>
    </g>
    <g id="xtick_7">
     <g id="line2d_7">
      <g>
       <use style="stroke:#000000;stroke-width:0.8;" x="561.011938" xlink:href="#mcd6f4aa54e" y="186.917812"/>
      </g>
     </g>
     <g id="text_7">
      <!-- 4 -->
      <defs>
       <path d="M 37.796875 64.3125 
L 12.890625 25.390625 
L 37.796875 25.390625 
z
M 35.203125 72.90625 
L 47.609375 72.90625 
L 47.609375 25.390625 
L 58.015625 25.390625 
L 58.015625 17.1875 
L 47.609375 17.1875 
L 47.609375 0 
L 37.796875 0 
L 37.796875 17.1875 
L 4.890625 17.1875 
L 4.890625 26.703125 
z
" id="DejaVuSans-34"/>
      </defs>
      <g transform="translate(557.194438 203.035937)scale(0.12 -0.12)">
       <use xlink:href="#DejaVuSans-34"/>
      </g>
     </g>
    </g>
    <g id="text_8">
     <!-- $x_1$ -->
     <defs>
      <path d="M 24.296875 35.5 
L 25.5 29.796875 
Q 30.796875 37.90625 34.046875 41 
Q 37.296875 44.09375 40.59375 44.09375 
Q 42.40625 44.09375 43.546875 43.046875 
Q 44.703125 42 44.703125 40.390625 
Q 44.703125 38.796875 43.75 37.796875 
Q 42.796875 36.796875 41.296875 36.796875 
Q 40.40625 36.796875 38.90625 37.640625 
Q 37.40625 38.5 36.09375 38.5 
Q 33.203125 38.5 26.296875 26.40625 
Q 26.296875 25.09375 27.09375 21.90625 
L 30.296875 8.5 
Q 31.296875 4.40625 33.296875 4.40625 
Q 34.90625 4.40625 38 8.40625 
Q 38.296875 8.796875 38.6875 9.34375 
Q 39.09375 9.90625 39.390625 10.34375 
Q 39.703125 10.796875 40.09375 11.203125 
L 41.59375 10.296875 
Q 37.296875 3.59375 34.796875 1.25 
Q 32.296875 -1.09375 29.40625 -1.09375 
Q 27 -1.09375 25.703125 0.40625 
Q 24.40625 1.90625 23.5 5.703125 
L 20.59375 17.59375 
L 11.796875 5.703125 
Q 8.703125 1.5 6.75 0.203125 
Q 4.796875 -1.09375 2.296875 -1.09375 
Q 0 -1.09375 -1.34375 0 
Q -2.703125 1.09375 -2.703125 3.09375 
Q -2.703125 4.59375 -1.75 5.640625 
Q -0.796875 6.703125 0.703125 6.703125 
Q 1.90625 6.703125 3.90625 5.59375 
Q 5.40625 4.703125 6.5 4.703125 
Q 8.203125 4.703125 11.59375 9.59375 
L 19.796875 21.203125 
L 17 33.59375 
Q 16 38 15.140625 39.203125 
Q 14.296875 40.40625 12.40625 40.40625 
Q 11.203125 40.40625 8.5 39.703125 
L 6.703125 39.203125 
L 6.40625 40.796875 
L 7.5 41.203125 
Q 15.5 44.09375 19.203125 44.09375 
Q 21.09375 44.09375 22.1875 42.296875 
Q 23.296875 40.5 24.296875 35.5 
z
" id="STIXGeneral-Italic-78"/>
      <path d="M 39.40625 0 
L 11.796875 0 
L 11.796875 1.5 
Q 17.296875 1.796875 19.296875 3.546875 
Q 21.296875 5.296875 21.296875 9.5 
L 21.296875 54.40625 
Q 21.296875 59.296875 18.296875 59.296875 
Q 16.90625 59.296875 13.796875 58.09375 
L 11.09375 57.09375 
L 11.09375 58.5 
L 29 67.59375 
L 29.90625 67.296875 
L 29.90625 7.59375 
Q 29.90625 4.296875 31.90625 2.890625 
Q 33.90625 1.5 39.40625 1.5 
z
" id="STIXGeneral-Regular-31"/>
     </defs>
     <g transform="translate(283.82 220.169375)scale(0.14 -0.14)">
      <use transform="translate(0 0.90625)" xlink:href="#STIXGeneral-Italic-78"/>
      <use transform="translate(44.399994 -12.321875)scale(0.7)" xlink:href="#STIXGeneral-Regular-31"/>
     </g>
    </g>
   </g>
   <g id="matplotlib.axis_2"/>
   <g id="patch_3">
    <path d="M 10.7 186.917812 
L 10.7 23.837812 
" style="fill:none;stroke:#000000;stroke-linecap:square;stroke-linejoin:miter;stroke-width:0.8;"/>
   </g>
   <g id="patch_4">
    <path d="M 568.7 186.917812 
L 568.7 23.837812 
" style="fill:none;stroke:#000000;stroke-linecap:square;stroke-linejoin:miter;stroke-width:0.8;"/>
   </g>
   <g id="patch_5">
    <path d="M 10.7 186.917812 
L 568.7 186.917812 
" style="fill:none;stroke:#000000;stroke-linecap:square;stroke-linejoin:miter;stroke-width:0.8;"/>
   </g>
   <g id="patch_6">
    <path d="M 10.7 23.837812 
L 568.7 23.837812 
" style="fill:none;stroke:#000000;stroke-linecap:square;stroke-linejoin:miter;stroke-width:0.8;"/>
   </g>
   <g id="text_9">
    <!-- 1D binary Iris dataset -->
    <defs>
     <path d="M 19.671875 64.796875 
L 19.671875 8.109375 
L 31.59375 8.109375 
Q 46.6875 8.109375 53.6875 14.9375 
Q 60.6875 21.78125 60.6875 36.53125 
Q 60.6875 51.171875 53.6875 57.984375 
Q 46.6875 64.796875 31.59375 64.796875 
z
M 9.8125 72.90625 
L 30.078125 72.90625 
Q 51.265625 72.90625 61.171875 64.09375 
Q 71.09375 55.28125 71.09375 36.53125 
Q 71.09375 17.671875 61.125 8.828125 
Q 51.171875 0 30.078125 0 
L 9.8125 0 
z
" id="DejaVuSans-44"/>
     <path id="DejaVuSans-20"/>
     <path d="M 48.6875 27.296875 
Q 48.6875 37.203125 44.609375 42.84375 
Q 40.53125 48.484375 33.40625 48.484375 
Q 26.265625 48.484375 22.1875 42.84375 
Q 18.109375 37.203125 18.109375 27.296875 
Q 18.109375 17.390625 22.1875 11.75 
Q 26.265625 6.109375 33.40625 6.109375 
Q 40.53125 6.109375 44.609375 11.75 
Q 48.6875 17.390625 48.6875 27.296875 
z
M 18.109375 46.390625 
Q 20.953125 51.265625 25.265625 53.625 
Q 29.59375 56 35.59375 56 
Q 45.5625 56 51.78125 48.09375 
Q 58.015625 40.1875 58.015625 27.296875 
Q 58.015625 14.40625 51.78125 6.484375 
Q 45.5625 -1.421875 35.59375 -1.421875 
Q 29.59375 -1.421875 25.265625 0.953125 
Q 20.953125 3.328125 18.109375 8.203125 
L 18.109375 0 
L 9.078125 0 
L 9.078125 75.984375 
L 18.109375 75.984375 
z
" id="DejaVuSans-62"/>
     <path d="M 9.421875 54.6875 
L 18.40625 54.6875 
L 18.40625 0 
L 9.421875 0 
z
M 9.421875 75.984375 
L 18.40625 75.984375 
L 18.40625 64.59375 
L 9.421875 64.59375 
z
" id="DejaVuSans-69"/>
     <path d="M 54.890625 33.015625 
L 54.890625 0 
L 45.90625 0 
L 45.90625 32.71875 
Q 45.90625 40.484375 42.875 44.328125 
Q 39.84375 48.1875 33.796875 48.1875 
Q 26.515625 48.1875 22.3125 43.546875 
Q 18.109375 38.921875 18.109375 30.90625 
L 18.109375 0 
L 9.078125 0 
L 9.078125 54.6875 
L 18.109375 54.6875 
L 18.109375 46.1875 
Q 21.34375 51.125 25.703125 53.5625 
Q 30.078125 56 35.796875 56 
Q 45.21875 56 50.046875 50.171875 
Q 54.890625 44.34375 54.890625 33.015625 
z
" id="DejaVuSans-6e"/>
     <path d="M 34.28125 27.484375 
Q 23.390625 27.484375 19.1875 25 
Q 14.984375 22.515625 14.984375 16.5 
Q 14.984375 11.71875 18.140625 8.90625 
Q 21.296875 6.109375 26.703125 6.109375 
Q 34.1875 6.109375 38.703125 11.40625 
Q 43.21875 16.703125 43.21875 25.484375 
L 43.21875 27.484375 
z
M 52.203125 31.203125 
L 52.203125 0 
L 43.21875 0 
L 43.21875 8.296875 
Q 40.140625 3.328125 35.546875 0.953125 
Q 30.953125 -1.421875 24.3125 -1.421875 
Q 15.921875 -1.421875 10.953125 3.296875 
Q 6 8.015625 6 15.921875 
Q 6 25.140625 12.171875 29.828125 
Q 18.359375 34.515625 30.609375 34.515625 
L 43.21875 34.515625 
L 43.21875 35.40625 
Q 43.21875 41.609375 39.140625 45 
Q 35.0625 48.390625 27.6875 48.390625 
Q 23 48.390625 18.546875 47.265625 
Q 14.109375 46.140625 10.015625 43.890625 
L 10.015625 52.203125 
Q 14.9375 54.109375 19.578125 55.046875 
Q 24.21875 56 28.609375 56 
Q 40.484375 56 46.34375 49.84375 
Q 52.203125 43.703125 52.203125 31.203125 
z
" id="DejaVuSans-61"/>
     <path d="M 41.109375 46.296875 
Q 39.59375 47.171875 37.8125 47.578125 
Q 36.03125 48 33.890625 48 
Q 26.265625 48 22.1875 43.046875 
Q 18.109375 38.09375 18.109375 28.8125 
L 18.109375 0 
L 9.078125 0 
L 9.078125 54.6875 
L 18.109375 54.6875 
L 18.109375 46.1875 
Q 20.953125 51.171875 25.484375 53.578125 
Q 30.03125 56 36.53125 56 
Q 37.453125 56 38.578125 55.875 
Q 39.703125 55.765625 41.0625 55.515625 
z
" id="DejaVuSans-72"/>
     <path d="M 32.171875 -5.078125 
Q 28.375 -14.84375 24.75 -17.8125 
Q 21.140625 -20.796875 15.09375 -20.796875 
L 7.90625 -20.796875 
L 7.90625 -13.28125 
L 13.1875 -13.28125 
Q 16.890625 -13.28125 18.9375 -11.515625 
Q 21 -9.765625 23.484375 -3.21875 
L 25.09375 0.875 
L 2.984375 54.6875 
L 12.5 54.6875 
L 29.59375 11.921875 
L 46.6875 54.6875 
L 56.203125 54.6875 
z
" id="DejaVuSans-79"/>
     <path d="M 9.8125 72.90625 
L 19.671875 72.90625 
L 19.671875 0 
L 9.8125 0 
z
" id="DejaVuSans-49"/>
     <path d="M 44.28125 53.078125 
L 44.28125 44.578125 
Q 40.484375 46.53125 36.375 47.5 
Q 32.28125 48.484375 27.875 48.484375 
Q 21.1875 48.484375 17.84375 46.4375 
Q 14.5 44.390625 14.5 40.28125 
Q 14.5 37.15625 16.890625 35.375 
Q 19.28125 33.59375 26.515625 31.984375 
L 29.59375 31.296875 
Q 39.15625 29.25 43.1875 25.515625 
Q 47.21875 21.78125 47.21875 15.09375 
Q 47.21875 7.46875 41.1875 3.015625 
Q 35.15625 -1.421875 24.609375 -1.421875 
Q 20.21875 -1.421875 15.453125 -0.5625 
Q 10.6875 0.296875 5.421875 2 
L 5.421875 11.28125 
Q 10.40625 8.6875 15.234375 7.390625 
Q 20.0625 6.109375 24.8125 6.109375 
Q 31.15625 6.109375 34.5625 8.28125 
Q 37.984375 10.453125 37.984375 14.40625 
Q 37.984375 18.0625 35.515625 20.015625 
Q 33.0625 21.96875 24.703125 23.78125 
L 21.578125 24.515625 
Q 13.234375 26.265625 9.515625 29.90625 
Q 5.8125 33.546875 5.8125 39.890625 
Q 5.8125 47.609375 11.28125 51.796875 
Q 16.75 56 26.8125 56 
Q 31.78125 56 36.171875 55.265625 
Q 40.578125 54.546875 44.28125 53.078125 
z
" id="DejaVuSans-73"/>
     <path d="M 45.40625 46.390625 
L 45.40625 75.984375 
L 54.390625 75.984375 
L 54.390625 0 
L 45.40625 0 
L 45.40625 8.203125 
Q 42.578125 3.328125 38.25 0.953125 
Q 33.9375 -1.421875 27.875 -1.421875 
Q 17.96875 -1.421875 11.734375 6.484375 
Q 5.515625 14.40625 5.515625 27.296875 
Q 5.515625 40.1875 11.734375 48.09375 
Q 17.96875 56 27.875 56 
Q 33.9375 56 38.25 53.625 
Q 42.578125 51.265625 45.40625 46.390625 
z
M 14.796875 27.296875 
Q 14.796875 17.390625 18.875 11.75 
Q 22.953125 6.109375 30.078125 6.109375 
Q 37.203125 6.109375 41.296875 11.75 
Q 45.40625 17.390625 45.40625 27.296875 
Q 45.40625 37.203125 41.296875 42.84375 
Q 37.203125 48.484375 30.078125 48.484375 
Q 22.953125 48.484375 18.875 42.84375 
Q 14.796875 37.203125 14.796875 27.296875 
z
" id="DejaVuSans-64"/>
     <path d="M 18.3125 70.21875 
L 18.3125 54.6875 
L 36.8125 54.6875 
L 36.8125 47.703125 
L 18.3125 47.703125 
L 18.3125 18.015625 
Q 18.3125 11.328125 20.140625 9.421875 
Q 21.96875 7.515625 27.59375 7.515625 
L 36.8125 7.515625 
L 36.8125 0 
L 27.59375 0 
Q 17.1875 0 13.234375 3.875 
Q 9.28125 7.765625 9.28125 18.015625 
L 9.28125 47.703125 
L 2.6875 47.703125 
L 2.6875 54.6875 
L 9.28125 54.6875 
L 9.28125 70.21875 
z
" id="DejaVuSans-74"/>
     <path d="M 56.203125 29.59375 
L 56.203125 25.203125 
L 14.890625 25.203125 
Q 15.484375 15.921875 20.484375 11.0625 
Q 25.484375 6.203125 34.421875 6.203125 
Q 39.59375 6.203125 44.453125 7.46875 
Q 49.3125 8.734375 54.109375 11.28125 
L 54.109375 2.78125 
Q 49.265625 0.734375 44.1875 -0.34375 
Q 39.109375 -1.421875 33.890625 -1.421875 
Q 20.796875 -1.421875 13.15625 6.1875 
Q 5.515625 13.8125 5.515625 26.8125 
Q 5.515625 40.234375 12.765625 48.109375 
Q 20.015625 56 32.328125 56 
Q 43.359375 56 49.78125 48.890625 
Q 56.203125 41.796875 56.203125 29.59375 
z
M 47.21875 32.234375 
Q 47.125 39.59375 43.09375 43.984375 
Q 39.0625 48.390625 32.421875 48.390625 
Q 24.90625 48.390625 20.390625 44.140625 
Q 15.875 39.890625 15.1875 32.171875 
z
" id="DejaVuSans-65"/>
    </defs>
    <g transform="translate(214.0475 17.837812)scale(0.14 -0.14)">
     <use xlink:href="#DejaVuSans-31"/>
     <use x="63.623047" xlink:href="#DejaVuSans-44"/>
     <use x="140.625" xlink:href="#DejaVuSans-20"/>
     <use x="172.412109" xlink:href="#DejaVuSans-62"/>
     <use x="235.888672" xlink:href="#DejaVuSans-69"/>
     <use x="263.671875" xlink:href="#DejaVuSans-6e"/>
     <use x="327.050781" xlink:href="#DejaVuSans-61"/>
     <use x="388.330078" xlink:href="#DejaVuSans-72"/>
     <use x="429.443359" xlink:href="#DejaVuSans-79"/>
     <use x="488.623047" xlink:href="#DejaVuSans-20"/>
     <use x="520.410156" xlink:href="#DejaVuSans-49"/>
     <use x="549.902344" xlink:href="#DejaVuSans-72"/>
     <use x="591.015625" xlink:href="#DejaVuSans-69"/>
     <use x="618.798828" xlink:href="#DejaVuSans-73"/>
     <use x="670.898438" xlink:href="#DejaVuSans-20"/>
     <use x="702.685547" xlink:href="#DejaVuSans-64"/>
     <use x="766.162109" xlink:href="#DejaVuSans-61"/>
     <use x="827.441406" xlink:href="#DejaVuSans-74"/>
     <use x="866.650391" xlink:href="#DejaVuSans-61"/>
     <use x="927.929688" xlink:href="#DejaVuSans-73"/>
     <use x="980.029297" xlink:href="#DejaVuSans-65"/>
     <use x="1041.552734" xlink:href="#DejaVuSans-74"/>
    </g>
   </g>
   <g id="legend_1">
    <g id="patch_7">
     <path d="M 465.704687 90.550312 
L 561.7 90.550312 
Q 563.7 90.550312 563.7 88.550312 
L 563.7 30.837812 
Q 563.7 28.837812 561.7 28.837812 
L 465.704687 28.837812 
Q 463.704687 28.837812 463.704687 30.837812 
L 463.704687 88.550312 
Q 463.704687 90.550312 465.704687 90.550312 
z
" style="fill:#ffffff;opacity:0.8;stroke:#cccccc;stroke-linejoin:miter;"/>
    </g>
    <g id="PathCollection_5">
     <g>
      <use style="fill:#0000ff;stroke:#0000ff;stroke-width:1.5;" x="477.704687" xlink:href="#mb99624309f" y="37.81125"/>
     </g>
    </g>
    <g id="text_10">
     <!-- class 0, train -->
     <defs>
      <path d="M 48.78125 52.59375 
L 48.78125 44.1875 
Q 44.96875 46.296875 41.140625 47.34375 
Q 37.3125 48.390625 33.40625 48.390625 
Q 24.65625 48.390625 19.8125 42.84375 
Q 14.984375 37.3125 14.984375 27.296875 
Q 14.984375 17.28125 19.8125 11.734375 
Q 24.65625 6.203125 33.40625 6.203125 
Q 37.3125 6.203125 41.140625 7.25 
Q 44.96875 8.296875 48.78125 10.40625 
L 48.78125 2.09375 
Q 45.015625 0.34375 40.984375 -0.53125 
Q 36.96875 -1.421875 32.421875 -1.421875 
Q 20.0625 -1.421875 12.78125 6.34375 
Q 5.515625 14.109375 5.515625 27.296875 
Q 5.515625 40.671875 12.859375 48.328125 
Q 20.21875 56 33.015625 56 
Q 37.15625 56 41.109375 55.140625 
Q 45.0625 54.296875 48.78125 52.59375 
z
" id="DejaVuSans-63"/>
      <path d="M 9.421875 75.984375 
L 18.40625 75.984375 
L 18.40625 0 
L 9.421875 0 
z
" id="DejaVuSans-6c"/>
      <path d="M 11.71875 12.40625 
L 22.015625 12.40625 
L 22.015625 4 
L 14.015625 -11.625 
L 7.71875 -11.625 
L 11.71875 4 
z
" id="DejaVuSans-2c"/>
     </defs>
     <g transform="translate(495.704687 40.43625)scale(0.1 -0.1)">
      <use xlink:href="#DejaVuSans-63"/>
      <use x="54.980469" xlink:href="#DejaVuSans-6c"/>
      <use x="82.763672" xlink:href="#DejaVuSans-61"/>
      <use x="144.042969" xlink:href="#DejaVuSans-73"/>
      <use x="196.142578" xlink:href="#DejaVuSans-73"/>
      <use x="248.242188" xlink:href="#DejaVuSans-20"/>
      <use x="280.029297" xlink:href="#DejaVuSans-30"/>
      <use x="343.652344" xlink:href="#DejaVuSans-2c"/>
      <use x="375.439453" xlink:href="#DejaVuSans-20"/>
      <use x="407.226562" xlink:href="#DejaVuSans-74"/>
      <use x="446.435547" xlink:href="#DejaVuSans-72"/>
      <use x="487.548828" xlink:href="#DejaVuSans-61"/>
      <use x="548.828125" xlink:href="#DejaVuSans-69"/>
      <use x="576.611328" xlink:href="#DejaVuSans-6e"/>
     </g>
    </g>
    <g id="PathCollection_6">
     <g>
      <use style="fill:#ff0000;stroke:#ff0000;stroke-width:1.5;" x="477.704687" xlink:href="#m908da60eb3" y="52.489375"/>
     </g>
    </g>
    <g id="text_11">
     <!-- class 1, train -->
     <g transform="translate(495.704687 55.114375)scale(0.1 -0.1)">
      <use xlink:href="#DejaVuSans-63"/>
      <use x="54.980469" xlink:href="#DejaVuSans-6c"/>
      <use x="82.763672" xlink:href="#DejaVuSans-61"/>
      <use x="144.042969" xlink:href="#DejaVuSans-73"/>
      <use x="196.142578" xlink:href="#DejaVuSans-73"/>
      <use x="248.242188" xlink:href="#DejaVuSans-20"/>
      <use x="280.029297" xlink:href="#DejaVuSans-31"/>
      <use x="343.652344" xlink:href="#DejaVuSans-2c"/>
      <use x="375.439453" xlink:href="#DejaVuSans-20"/>
      <use x="407.226562" xlink:href="#DejaVuSans-74"/>
      <use x="446.435547" xlink:href="#DejaVuSans-72"/>
      <use x="487.548828" xlink:href="#DejaVuSans-61"/>
      <use x="548.828125" xlink:href="#DejaVuSans-69"/>
      <use x="576.611328" xlink:href="#DejaVuSans-6e"/>
     </g>
    </g>
    <g id="PathCollection_7">
     <g>
      <use style="fill:#0000ff;stroke:#0000ff;" x="477.704687" xlink:href="#m54a6622abf" y="67.1675"/>
     </g>
    </g>
    <g id="text_12">
     <!-- class 0, test -->
     <g transform="translate(495.704687 69.7925)scale(0.1 -0.1)">
      <use xlink:href="#DejaVuSans-63"/>
      <use x="54.980469" xlink:href="#DejaVuSans-6c"/>
      <use x="82.763672" xlink:href="#DejaVuSans-61"/>
      <use x="144.042969" xlink:href="#DejaVuSans-73"/>
      <use x="196.142578" xlink:href="#DejaVuSans-73"/>
      <use x="248.242188" xlink:href="#DejaVuSans-20"/>
      <use x="280.029297" xlink:href="#DejaVuSans-30"/>
      <use x="343.652344" xlink:href="#DejaVuSans-2c"/>
      <use x="375.439453" xlink:href="#DejaVuSans-20"/>
      <use x="407.226562" xlink:href="#DejaVuSans-74"/>
      <use x="446.435547" xlink:href="#DejaVuSans-65"/>
      <use x="507.958984" xlink:href="#DejaVuSans-73"/>
      <use x="560.058594" xlink:href="#DejaVuSans-74"/>
     </g>
    </g>
    <g id="PathCollection_8">
     <g>
      <use style="fill:#ff0000;stroke:#ff0000;" x="477.704687" xlink:href="#mac3cdf5138" y="81.845625"/>
     </g>
    </g>
    <g id="text_13">
     <!-- class 1, test -->
     <g transform="translate(495.704687 84.470625)scale(0.1 -0.1)">
      <use xlink:href="#DejaVuSans-63"/>
      <use x="54.980469" xlink:href="#DejaVuSans-6c"/>
      <use x="82.763672" xlink:href="#DejaVuSans-61"/>
      <use x="144.042969" xlink:href="#DejaVuSans-73"/>
      <use x="196.142578" xlink:href="#DejaVuSans-73"/>
      <use x="248.242188" xlink:href="#DejaVuSans-20"/>
      <use x="280.029297" xlink:href="#DejaVuSans-31"/>
      <use x="343.652344" xlink:href="#DejaVuSans-2c"/>
      <use x="375.439453" xlink:href="#DejaVuSans-20"/>
      <use x="407.226562" xlink:href="#DejaVuSans-74"/>
      <use x="446.435547" xlink:href="#DejaVuSans-65"/>
      <use x="507.958984" xlink:href="#DejaVuSans-73"/>
      <use x="560.058594" xlink:href="#DejaVuSans-74"/>
     </g>
    </g>
   </g>
  </g>
 </g>
 <defs>
  <clipPath id="pc5a6870f5d">
   <rect height="163.08" width="558" x="10.7" y="23.837812"/>
  </clipPath>
 </defs>
</svg>
