<?xml version="1.0" encoding="utf-8" standalone="no"?>
<!DOCTYPE svg PUBLIC "-//W3C//DTD SVG 1.1//EN"
  "http://www.w3.org/Graphics/SVG/1.1/DTD/svg11.dtd">
<!-- Created with matplotlib (https://matplotlib.org/) -->
<svg height="291.135625pt" version="1.1" viewBox="0 0 401.903437 291.135625" width="401.903437pt" xmlns="http://www.w3.org/2000/svg" xmlns:xlink="http://www.w3.org/1999/xlink">
 <metadata>
  <rdf:RDF xmlns:cc="http://creativecommons.org/ns#" xmlns:dc="http://purl.org/dc/elements/1.1/" xmlns:rdf="http://www.w3.org/1999/02/22-rdf-syntax-ns#">
   <cc:Work>
    <dc:type rdf:resource="http://purl.org/dc/dcmitype/StillImage"/>
    <dc:date>2021-06-15T23:59:30.005507</dc:date>
    <dc:format>image/svg+xml</dc:format>
    <dc:creator>
     <cc:Agent>
      <dc:title>Matplotlib v3.3.3, https://matplotlib.org/</dc:title>
     </cc:Agent>
    </dc:creator>
   </cc:Work>
  </rdf:RDF>
 </metadata>
 <defs>
  <style type="text/css">*{stroke-linecap:butt;stroke-linejoin:round;}</style>
 </defs>
 <g id="figure_1">
  <g id="patch_1">
   <path d="M 0 291.135625 
L 401.903437 291.135625 
L 401.903437 0 
L 0 0 
z
" style="fill:none;"/>
  </g>
  <g id="axes_1">
   <g id="patch_2">
    <path d="M 59.903438 245.836875 
L 394.703438 245.836875 
L 394.703438 28.396875 
L 59.903438 28.396875 
z
" style="fill:#ffffff;"/>
   </g>
   <g id="PathCollection_1">
    <defs>
     <path d="M -1.581139 1.581139 
L 1.581139 -1.581139 
M -1.581139 -1.581139 
L 1.581139 1.581139 
" id="m225f7f7f0f" style="stroke:#0000ff;stroke-width:1.5;"/>
    </defs>
    <g clip-path="url(#p42755e9b6e)">
     <use style="fill:#0000ff;stroke:#0000ff;stroke-width:1.5;" x="237.605103" xlink:href="#m225f7f7f0f" y="42.284615"/>
     <use style="fill:#0000ff;stroke:#0000ff;stroke-width:1.5;" x="357.767324" xlink:href="#m225f7f7f0f" y="79.251611"/>
     <use style="fill:#0000ff;stroke:#0000ff;stroke-width:1.5;" x="325.497636" xlink:href="#m225f7f7f0f" y="89.390553"/>
     <use style="fill:#0000ff;stroke:#0000ff;stroke-width:1.5;" x="319.674875" xlink:href="#m225f7f7f0f" y="73.997142"/>
     <use style="fill:#0000ff;stroke:#0000ff;stroke-width:1.5;" x="161.694693" xlink:href="#m225f7f7f0f" y="51.741927"/>
     <use style="fill:#0000ff;stroke:#0000ff;stroke-width:1.5;" x="332.005408" xlink:href="#m225f7f7f0f" y="68.838815"/>
     <use style="fill:#0000ff;stroke:#0000ff;stroke-width:1.5;" x="187.800098" xlink:href="#m225f7f7f0f" y="164.23379"/>
     <use style="fill:#0000ff;stroke:#0000ff;stroke-width:1.5;" x="251.322289" xlink:href="#m225f7f7f0f" y="40.067802"/>
     <use style="fill:#0000ff;stroke:#0000ff;stroke-width:1.5;" x="262.781714" xlink:href="#m225f7f7f0f" y="55.557856"/>
     <use style="fill:#0000ff;stroke:#0000ff;stroke-width:1.5;" x="334.197449" xlink:href="#m225f7f7f0f" y="146.406458"/>
     <use style="fill:#0000ff;stroke:#0000ff;stroke-width:1.5;" x="210.318937" xlink:href="#m225f7f7f0f" y="53.740103"/>
     <use style="fill:#0000ff;stroke:#0000ff;stroke-width:1.5;" x="307.795357" xlink:href="#m225f7f7f0f" y="155.048084"/>
     <use style="fill:#0000ff;stroke:#0000ff;stroke-width:1.5;" x="300.463397" xlink:href="#m225f7f7f0f" y="51.190593"/>
     <use style="fill:#0000ff;stroke:#0000ff;stroke-width:1.5;" x="338.384293" xlink:href="#m225f7f7f0f" y="78.207577"/>
     <use style="fill:#0000ff;stroke:#0000ff;stroke-width:1.5;" x="372.277094" xlink:href="#m225f7f7f0f" y="95.078464"/>
     <use style="fill:#0000ff;stroke:#0000ff;stroke-width:1.5;" x="323.651917" xlink:href="#m225f7f7f0f" y="133.266002"/>
     <use style="fill:#0000ff;stroke:#0000ff;stroke-width:1.5;" x="176.115125" xlink:href="#m225f7f7f0f" y="53.776602"/>
     <use style="fill:#0000ff;stroke:#0000ff;stroke-width:1.5;" x="322.605341" xlink:href="#m225f7f7f0f" y="93.815494"/>
     <use style="fill:#0000ff;stroke:#0000ff;stroke-width:1.5;" x="262.574108" xlink:href="#m225f7f7f0f" y="162.009733"/>
     <use style="fill:#0000ff;stroke:#0000ff;stroke-width:1.5;" x="276.885395" xlink:href="#m225f7f7f0f" y="158.234139"/>
     <use style="fill:#0000ff;stroke:#0000ff;stroke-width:1.5;" x="246.688029" xlink:href="#m225f7f7f0f" y="160.948654"/>
     <use style="fill:#0000ff;stroke:#0000ff;stroke-width:1.5;" x="360.538581" xlink:href="#m225f7f7f0f" y="142.023169"/>
     <use style="fill:#0000ff;stroke:#0000ff;stroke-width:1.5;" x="276.145926" xlink:href="#m225f7f7f0f" y="38.280511"/>
     <use style="fill:#0000ff;stroke:#0000ff;stroke-width:1.5;" x="359.525942" xlink:href="#m225f7f7f0f" y="81.517893"/>
     <use style="fill:#0000ff;stroke:#0000ff;stroke-width:1.5;" x="333.134188" xlink:href="#m225f7f7f0f" y="148.604781"/>
     <use style="fill:#0000ff;stroke:#0000ff;stroke-width:1.5;" x="241.825472" xlink:href="#m225f7f7f0f" y="39.373656"/>
     <use style="fill:#0000ff;stroke:#0000ff;stroke-width:1.5;" x="373.177592" xlink:href="#m225f7f7f0f" y="130.803681"/>
     <use style="fill:#0000ff;stroke:#0000ff;stroke-width:1.5;" x="301.303821" xlink:href="#m225f7f7f0f" y="57.888351"/>
     <use style="fill:#0000ff;stroke:#0000ff;stroke-width:1.5;" x="282.857231" xlink:href="#m225f7f7f0f" y="43.0416"/>
     <use style="fill:#0000ff;stroke:#0000ff;stroke-width:1.5;" x="188.580903" xlink:href="#m225f7f7f0f" y="56.207236"/>
     <use style="fill:#0000ff;stroke:#0000ff;stroke-width:1.5;" x="256.707405" xlink:href="#m225f7f7f0f" y="44.113642"/>
     <use style="fill:#0000ff;stroke:#0000ff;stroke-width:1.5;" x="173.452985" xlink:href="#m225f7f7f0f" y="164.918203"/>
     <use style="fill:#0000ff;stroke:#0000ff;stroke-width:1.5;" x="203.715337" xlink:href="#m225f7f7f0f" y="161.326274"/>
     <use style="fill:#0000ff;stroke:#0000ff;stroke-width:1.5;" x="301.492855" xlink:href="#m225f7f7f0f" y="53.888574"/>
     <use style="fill:#0000ff;stroke:#0000ff;stroke-width:1.5;" x="379.310898" xlink:href="#m225f7f7f0f" y="131.312112"/>
     <use style="fill:#0000ff;stroke:#0000ff;stroke-width:1.5;" x="278.456793" xlink:href="#m225f7f7f0f" y="60.693733"/>
     <use style="fill:#0000ff;stroke:#0000ff;stroke-width:1.5;" x="288.55216" xlink:href="#m225f7f7f0f" y="41.860988"/>
     <use style="fill:#0000ff;stroke:#0000ff;stroke-width:1.5;" x="304.633972" xlink:href="#m225f7f7f0f" y="77.324499"/>
     <use style="fill:#0000ff;stroke:#0000ff;stroke-width:1.5;" x="183.013044" xlink:href="#m225f7f7f0f" y="51.256436"/>
     <use style="fill:#0000ff;stroke:#0000ff;stroke-width:1.5;" x="300.37815" xlink:href="#m225f7f7f0f" y="167.483451"/>
     <use style="fill:#0000ff;stroke:#0000ff;stroke-width:1.5;" x="277.58419" xlink:href="#m225f7f7f0f" y="157.196685"/>
     <use style="fill:#0000ff;stroke:#0000ff;stroke-width:1.5;" x="351.256066" xlink:href="#m225f7f7f0f" y="88.362197"/>
     <use style="fill:#0000ff;stroke:#0000ff;stroke-width:1.5;" x="302.190099" xlink:href="#m225f7f7f0f" y="53.331409"/>
     <use style="fill:#0000ff;stroke:#0000ff;stroke-width:1.5;" x="253.534478" xlink:href="#m225f7f7f0f" y="42.676154"/>
     <use style="fill:#0000ff;stroke:#0000ff;stroke-width:1.5;" x="254.832697" xlink:href="#m225f7f7f0f" y="49.103751"/>
     <use style="fill:#0000ff;stroke:#0000ff;stroke-width:1.5;" x="229.971264" xlink:href="#m225f7f7f0f" y="53.129839"/>
     <use style="fill:#0000ff;stroke:#0000ff;stroke-width:1.5;" x="280.846967" xlink:href="#m225f7f7f0f" y="52.40246"/>
     <use style="fill:#0000ff;stroke:#0000ff;stroke-width:1.5;" x="290.385767" xlink:href="#m225f7f7f0f" y="74.050654"/>
     <use style="fill:#0000ff;stroke:#0000ff;stroke-width:1.5;" x="278.398771" xlink:href="#m225f7f7f0f" y="50.212526"/>
     <use style="fill:#0000ff;stroke:#0000ff;stroke-width:1.5;" x="297.583689" xlink:href="#m225f7f7f0f" y="67.682583"/>
     <use style="fill:#0000ff;stroke:#0000ff;stroke-width:1.5;" x="224.443668" xlink:href="#m225f7f7f0f" y="55.311074"/>
     <use style="fill:#0000ff;stroke:#0000ff;stroke-width:1.5;" x="256.393216" xlink:href="#m225f7f7f0f" y="169.149856"/>
     <use style="fill:#0000ff;stroke:#0000ff;stroke-width:1.5;" x="339.052139" xlink:href="#m225f7f7f0f" y="138.775957"/>
     <use style="fill:#0000ff;stroke:#0000ff;stroke-width:1.5;" x="357.505651" xlink:href="#m225f7f7f0f" y="84.665619"/>
     <use style="fill:#0000ff;stroke:#0000ff;stroke-width:1.5;" x="249.944071" xlink:href="#m225f7f7f0f" y="50.131197"/>
     <use style="fill:#0000ff;stroke:#0000ff;stroke-width:1.5;" x="325.461691" xlink:href="#m225f7f7f0f" y="62.717874"/>
     <use style="fill:#0000ff;stroke:#0000ff;stroke-width:1.5;" x="316.94616" xlink:href="#m225f7f7f0f" y="59.503788"/>
     <use style="fill:#0000ff;stroke:#0000ff;stroke-width:1.5;" x="273.563053" xlink:href="#m225f7f7f0f" y="49.737821"/>
     <use style="fill:#0000ff;stroke:#0000ff;stroke-width:1.5;" x="217.765078" xlink:href="#m225f7f7f0f" y="165.330058"/>
     <use style="fill:#0000ff;stroke:#0000ff;stroke-width:1.5;" x="263.628928" xlink:href="#m225f7f7f0f" y="59.274382"/>
     <use style="fill:#0000ff;stroke:#0000ff;stroke-width:1.5;" x="279.075453" xlink:href="#m225f7f7f0f" y="163.187336"/>
     <use style="fill:#0000ff;stroke:#0000ff;stroke-width:1.5;" x="327.109531" xlink:href="#m225f7f7f0f" y="71.926338"/>
     <use style="fill:#0000ff;stroke:#0000ff;stroke-width:1.5;" x="333.76324" xlink:href="#m225f7f7f0f" y="156.383768"/>
     <use style="fill:#0000ff;stroke:#0000ff;stroke-width:1.5;" x="267.291672" xlink:href="#m225f7f7f0f" y="157.375965"/>
     <use style="fill:#0000ff;stroke:#0000ff;stroke-width:1.5;" x="333.197631" xlink:href="#m225f7f7f0f" y="58.318212"/>
     <use style="fill:#0000ff;stroke:#0000ff;stroke-width:1.5;" x="202.89502" xlink:href="#m225f7f7f0f" y="48.896738"/>
     <use style="fill:#0000ff;stroke:#0000ff;stroke-width:1.5;" x="182.549252" xlink:href="#m225f7f7f0f" y="52.084601"/>
     <use style="fill:#0000ff;stroke:#0000ff;stroke-width:1.5;" x="319.801792" xlink:href="#m225f7f7f0f" y="159.472955"/>
     <use style="fill:#0000ff;stroke:#0000ff;stroke-width:1.5;" x="335.18062" xlink:href="#m225f7f7f0f" y="153.429897"/>
     <use style="fill:#0000ff;stroke:#0000ff;stroke-width:1.5;" x="379.485256" xlink:href="#m225f7f7f0f" y="121.133054"/>
     <use style="fill:#0000ff;stroke:#0000ff;stroke-width:1.5;" x="330.683376" xlink:href="#m225f7f7f0f" y="73.799133"/>
     <use style="fill:#0000ff;stroke:#0000ff;stroke-width:1.5;" x="328.719375" xlink:href="#m225f7f7f0f" y="137.444501"/>
     <use style="fill:#0000ff;stroke:#0000ff;stroke-width:1.5;" x="355.246568" xlink:href="#m225f7f7f0f" y="118.440963"/>
     <use style="fill:#0000ff;stroke:#0000ff;stroke-width:1.5;" x="309.561499" xlink:href="#m225f7f7f0f" y="65.594178"/>
     <use style="fill:#0000ff;stroke:#0000ff;stroke-width:1.5;" x="232.741994" xlink:href="#m225f7f7f0f" y="168.697715"/>
    </g>
   </g>
   <g id="PathCollection_2">
    <defs>
     <path d="M -1.581139 1.581139 
L 1.581139 -1.581139 
M -1.581139 -1.581139 
L 1.581139 1.581139 
" id="m276ff5e622" style="stroke:#ff0000;stroke-width:1.5;"/>
    </defs>
    <g clip-path="url(#p42755e9b6e)">
     <use style="fill:#ff0000;stroke:#ff0000;stroke-width:1.5;" x="172.8013" xlink:href="#m276ff5e622" y="229.884901"/>
     <use style="fill:#ff0000;stroke:#ff0000;stroke-width:1.5;" x="82.621174" xlink:href="#m276ff5e622" y="158.151202"/>
     <use style="fill:#ff0000;stroke:#ff0000;stroke-width:1.5;" x="218.603955" xlink:href="#m276ff5e622" y="101.247836"/>
     <use style="fill:#ff0000;stroke:#ff0000;stroke-width:1.5;" x="116.17496" xlink:href="#m276ff5e622" y="120.701128"/>
     <use style="fill:#ff0000;stroke:#ff0000;stroke-width:1.5;" x="123.844922" xlink:href="#m276ff5e622" y="122.281819"/>
     <use style="fill:#ff0000;stroke:#ff0000;stroke-width:1.5;" x="149.107068" xlink:href="#m276ff5e622" y="125.705122"/>
     <use style="fill:#ff0000;stroke:#ff0000;stroke-width:1.5;" x="142.514453" xlink:href="#m276ff5e622" y="116.785559"/>
     <use style="fill:#ff0000;stroke:#ff0000;stroke-width:1.5;" x="211.48446" xlink:href="#m276ff5e622" y="217.33585"/>
     <use style="fill:#ff0000;stroke:#ff0000;stroke-width:1.5;" x="160.837734" xlink:href="#m276ff5e622" y="121.928919"/>
     <use style="fill:#ff0000;stroke:#ff0000;stroke-width:1.5;" x="105.729208" xlink:href="#m276ff5e622" y="154.796564"/>
     <use style="fill:#ff0000;stroke:#ff0000;stroke-width:1.5;" x="204.226797" xlink:href="#m276ff5e622" y="220.43712"/>
     <use style="fill:#ff0000;stroke:#ff0000;stroke-width:1.5;" x="120.605828" xlink:href="#m276ff5e622" y="140.067603"/>
     <use style="fill:#ff0000;stroke:#ff0000;stroke-width:1.5;" x="141.557952" xlink:href="#m276ff5e622" y="208.417897"/>
     <use style="fill:#ff0000;stroke:#ff0000;stroke-width:1.5;" x="182.605902" xlink:href="#m276ff5e622" y="117.05186"/>
     <use style="fill:#ff0000;stroke:#ff0000;stroke-width:1.5;" x="133.608633" xlink:href="#m276ff5e622" y="210.332005"/>
     <use style="fill:#ff0000;stroke:#ff0000;stroke-width:1.5;" x="213.657568" xlink:href="#m276ff5e622" y="220.84519"/>
     <use style="fill:#ff0000;stroke:#ff0000;stroke-width:1.5;" x="118.403666" xlink:href="#m276ff5e622" y="130.163801"/>
     <use style="fill:#ff0000;stroke:#ff0000;stroke-width:1.5;" x="101.17854" xlink:href="#m276ff5e622" y="148.977014"/>
     <use style="fill:#ff0000;stroke:#ff0000;stroke-width:1.5;" x="107.047514" xlink:href="#m276ff5e622" y="195.488868"/>
     <use style="fill:#ff0000;stroke:#ff0000;stroke-width:1.5;" x="136.066725" xlink:href="#m276ff5e622" y="111.299224"/>
     <use style="fill:#ff0000;stroke:#ff0000;stroke-width:1.5;" x="107.289874" xlink:href="#m276ff5e622" y="212.203743"/>
     <use style="fill:#ff0000;stroke:#ff0000;stroke-width:1.5;" x="284.651806" xlink:href="#m276ff5e622" y="115.993827"/>
     <use style="fill:#ff0000;stroke:#ff0000;stroke-width:1.5;" x="133.348209" xlink:href="#m276ff5e622" y="133.961511"/>
     <use style="fill:#ff0000;stroke:#ff0000;stroke-width:1.5;" x="166.800177" xlink:href="#m276ff5e622" y="120.898588"/>
     <use style="fill:#ff0000;stroke:#ff0000;stroke-width:1.5;" x="95.417266" xlink:href="#m276ff5e622" y="143.116967"/>
     <use style="fill:#ff0000;stroke:#ff0000;stroke-width:1.5;" x="105.037747" xlink:href="#m276ff5e622" y="129.032531"/>
     <use style="fill:#ff0000;stroke:#ff0000;stroke-width:1.5;" x="112.578522" xlink:href="#m276ff5e622" y="205.199536"/>
     <use style="fill:#ff0000;stroke:#ff0000;stroke-width:1.5;" x="126.536885" xlink:href="#m276ff5e622" y="121.143975"/>
     <use style="fill:#ff0000;stroke:#ff0000;stroke-width:1.5;" x="258.042894" xlink:href="#m276ff5e622" y="228.224515"/>
     <use style="fill:#ff0000;stroke:#ff0000;stroke-width:1.5;" x="163.063194" xlink:href="#m276ff5e622" y="226.545638"/>
     <use style="fill:#ff0000;stroke:#ff0000;stroke-width:1.5;" x="164.091829" xlink:href="#m276ff5e622" y="209.490541"/>
     <use style="fill:#ff0000;stroke:#ff0000;stroke-width:1.5;" x="184.939423" xlink:href="#m276ff5e622" y="222.698572"/>
     <use style="fill:#ff0000;stroke:#ff0000;stroke-width:1.5;" x="170.668123" xlink:href="#m276ff5e622" y="121.29643"/>
     <use style="fill:#ff0000;stroke:#ff0000;stroke-width:1.5;" x="94.40852" xlink:href="#m276ff5e622" y="147.223933"/>
     <use style="fill:#ff0000;stroke:#ff0000;stroke-width:1.5;" x="179.080087" xlink:href="#m276ff5e622" y="119.720208"/>
     <use style="fill:#ff0000;stroke:#ff0000;stroke-width:1.5;" x="109.598801" xlink:href="#m276ff5e622" y="214.905573"/>
     <use style="fill:#ff0000;stroke:#ff0000;stroke-width:1.5;" x="103.731334" xlink:href="#m276ff5e622" y="129.799022"/>
     <use style="fill:#ff0000;stroke:#ff0000;stroke-width:1.5;" x="207.348478" xlink:href="#m276ff5e622" y="101.691083"/>
     <use style="fill:#ff0000;stroke:#ff0000;stroke-width:1.5;" x="145.028139" xlink:href="#m276ff5e622" y="116.522691"/>
     <use style="fill:#ff0000;stroke:#ff0000;stroke-width:1.5;" x="183.970597" xlink:href="#m276ff5e622" y="227.826656"/>
     <use style="fill:#ff0000;stroke:#ff0000;stroke-width:1.5;" x="143.453359" xlink:href="#m276ff5e622" y="122.18033"/>
     <use style="fill:#ff0000;stroke:#ff0000;stroke-width:1.5;" x="185.036619" xlink:href="#m276ff5e622" y="225.474165"/>
     <use style="fill:#ff0000;stroke:#ff0000;stroke-width:1.5;" x="216.859844" xlink:href="#m276ff5e622" y="234.53786"/>
     <use style="fill:#ff0000;stroke:#ff0000;stroke-width:1.5;" x="92.267805" xlink:href="#m276ff5e622" y="128.899185"/>
     <use style="fill:#ff0000;stroke:#ff0000;stroke-width:1.5;" x="117.537067" xlink:href="#m276ff5e622" y="214.358564"/>
     <use style="fill:#ff0000;stroke:#ff0000;stroke-width:1.5;" x="172.741433" xlink:href="#m276ff5e622" y="108.873754"/>
     <use style="fill:#ff0000;stroke:#ff0000;stroke-width:1.5;" x="157.285575" xlink:href="#m276ff5e622" y="121.895889"/>
     <use style="fill:#ff0000;stroke:#ff0000;stroke-width:1.5;" x="263.15195" xlink:href="#m276ff5e622" y="101.257721"/>
     <use style="fill:#ff0000;stroke:#ff0000;stroke-width:1.5;" x="134.060247" xlink:href="#m276ff5e622" y="127.017181"/>
     <use style="fill:#ff0000;stroke:#ff0000;stroke-width:1.5;" x="90.390181" xlink:href="#m276ff5e622" y="173.059889"/>
     <use style="fill:#ff0000;stroke:#ff0000;stroke-width:1.5;" x="132.054235" xlink:href="#m276ff5e622" y="107.352749"/>
     <use style="fill:#ff0000;stroke:#ff0000;stroke-width:1.5;" x="184.592221" xlink:href="#m276ff5e622" y="105.238119"/>
     <use style="fill:#ff0000;stroke:#ff0000;stroke-width:1.5;" x="119.736751" xlink:href="#m276ff5e622" y="139.666138"/>
     <use style="fill:#ff0000;stroke:#ff0000;stroke-width:1.5;" x="239.097079" xlink:href="#m276ff5e622" y="225.922995"/>
     <use style="fill:#ff0000;stroke:#ff0000;stroke-width:1.5;" x="197.927959" xlink:href="#m276ff5e622" y="230.118126"/>
     <use style="fill:#ff0000;stroke:#ff0000;stroke-width:1.5;" x="160.279462" xlink:href="#m276ff5e622" y="219.942331"/>
     <use style="fill:#ff0000;stroke:#ff0000;stroke-width:1.5;" x="97.37818" xlink:href="#m276ff5e622" y="131.191769"/>
     <use style="fill:#ff0000;stroke:#ff0000;stroke-width:1.5;" x="203.634206" xlink:href="#m276ff5e622" y="235.953239"/>
     <use style="fill:#ff0000;stroke:#ff0000;stroke-width:1.5;" x="181.04033" xlink:href="#m276ff5e622" y="224.309403"/>
     <use style="fill:#ff0000;stroke:#ff0000;stroke-width:1.5;" x="75.121619" xlink:href="#m276ff5e622" y="161.04543"/>
     <use style="fill:#ff0000;stroke:#ff0000;stroke-width:1.5;" x="118.038243" xlink:href="#m276ff5e622" y="213.223598"/>
     <use style="fill:#ff0000;stroke:#ff0000;stroke-width:1.5;" x="214.872099" xlink:href="#m276ff5e622" y="99.478707"/>
     <use style="fill:#ff0000;stroke:#ff0000;stroke-width:1.5;" x="140.944961" xlink:href="#m276ff5e622" y="118.995647"/>
     <use style="fill:#ff0000;stroke:#ff0000;stroke-width:1.5;" x="171.429874" xlink:href="#m276ff5e622" y="114.384254"/>
     <use style="fill:#ff0000;stroke:#ff0000;stroke-width:1.5;" x="109.142919" xlink:href="#m276ff5e622" y="184.834618"/>
     <use style="fill:#ff0000;stroke:#ff0000;stroke-width:1.5;" x="166.216784" xlink:href="#m276ff5e622" y="107.153854"/>
     <use style="fill:#ff0000;stroke:#ff0000;stroke-width:1.5;" x="150.565713" xlink:href="#m276ff5e622" y="116.560909"/>
     <use style="fill:#ff0000;stroke:#ff0000;stroke-width:1.5;" x="101.567513" xlink:href="#m276ff5e622" y="148.725449"/>
     <use style="fill:#ff0000;stroke:#ff0000;stroke-width:1.5;" x="119.190218" xlink:href="#m276ff5e622" y="131.199645"/>
     <use style="fill:#ff0000;stroke:#ff0000;stroke-width:1.5;" x="162.755339" xlink:href="#m276ff5e622" y="118.6286"/>
     <use style="fill:#ff0000;stroke:#ff0000;stroke-width:1.5;" x="189.071738" xlink:href="#m276ff5e622" y="223.463113"/>
     <use style="fill:#ff0000;stroke:#ff0000;stroke-width:1.5;" x="112.968376" xlink:href="#m276ff5e622" y="190.637645"/>
     <use style="fill:#ff0000;stroke:#ff0000;stroke-width:1.5;" x="144.509069" xlink:href="#m276ff5e622" y="120.797984"/>
     <use style="fill:#ff0000;stroke:#ff0000;stroke-width:1.5;" x="111.618577" xlink:href="#m276ff5e622" y="157.738831"/>
     <use style="fill:#ff0000;stroke:#ff0000;stroke-width:1.5;" x="127.79394" xlink:href="#m276ff5e622" y="126.660478"/>
    </g>
   </g>
   <g id="matplotlib.axis_1">
    <g id="xtick_1">
     <g id="line2d_1">
      <defs>
       <path d="M 0 0 
L 0 3.5 
" id="m4127836d85" style="stroke:#000000;stroke-width:0.8;"/>
      </defs>
      <g>
       <use style="stroke:#000000;stroke-width:0.8;" x="71.650138" xlink:href="#m4127836d85" y="245.836875"/>
      </g>
     </g>
     <g id="text_1">
      <!-- −1.0 -->
      <g transform="translate(59.508731 260.435313)scale(0.1 -0.1)">
       <defs>
        <path d="M 10.59375 35.5 
L 73.1875 35.5 
L 73.1875 27.203125 
L 10.59375 27.203125 
z
" id="DejaVuSans-8722"/>
        <path d="M 12.40625 8.296875 
L 28.515625 8.296875 
L 28.515625 63.921875 
L 10.984375 60.40625 
L 10.984375 69.390625 
L 28.421875 72.90625 
L 38.28125 72.90625 
L 38.28125 8.296875 
L 54.390625 8.296875 
L 54.390625 0 
L 12.40625 0 
z
" id="DejaVuSans-49"/>
        <path d="M 10.6875 12.40625 
L 21 12.40625 
L 21 0 
L 10.6875 0 
z
" id="DejaVuSans-46"/>
        <path d="M 31.78125 66.40625 
Q 24.171875 66.40625 20.328125 58.90625 
Q 16.5 51.421875 16.5 36.375 
Q 16.5 21.390625 20.328125 13.890625 
Q 24.171875 6.390625 31.78125 6.390625 
Q 39.453125 6.390625 43.28125 13.890625 
Q 47.125 21.390625 47.125 36.375 
Q 47.125 51.421875 43.28125 58.90625 
Q 39.453125 66.40625 31.78125 66.40625 
z
M 31.78125 74.21875 
Q 44.046875 74.21875 50.515625 64.515625 
Q 56.984375 54.828125 56.984375 36.375 
Q 56.984375 17.96875 50.515625 8.265625 
Q 44.046875 -1.421875 31.78125 -1.421875 
Q 19.53125 -1.421875 13.0625 8.265625 
Q 6.59375 17.96875 6.59375 36.375 
Q 6.59375 54.828125 13.0625 64.515625 
Q 19.53125 74.21875 31.78125 74.21875 
z
" id="DejaVuSans-48"/>
       </defs>
       <use xlink:href="#DejaVuSans-8722"/>
       <use x="83.789062" xlink:href="#DejaVuSans-49"/>
       <use x="147.412109" xlink:href="#DejaVuSans-46"/>
       <use x="179.199219" xlink:href="#DejaVuSans-48"/>
      </g>
     </g>
    </g>
    <g id="xtick_2">
     <g id="line2d_2">
      <g>
       <use style="stroke:#000000;stroke-width:0.8;" x="148.608917" xlink:href="#m4127836d85" y="245.836875"/>
      </g>
     </g>
     <g id="text_2">
      <!-- −0.5 -->
      <g transform="translate(136.467511 260.435313)scale(0.1 -0.1)">
       <defs>
        <path d="M 10.796875 72.90625 
L 49.515625 72.90625 
L 49.515625 64.59375 
L 19.828125 64.59375 
L 19.828125 46.734375 
Q 21.96875 47.46875 24.109375 47.828125 
Q 26.265625 48.1875 28.421875 48.1875 
Q 40.625 48.1875 47.75 41.5 
Q 54.890625 34.8125 54.890625 23.390625 
Q 54.890625 11.625 47.5625 5.09375 
Q 40.234375 -1.421875 26.90625 -1.421875 
Q 22.3125 -1.421875 17.546875 -0.640625 
Q 12.796875 0.140625 7.71875 1.703125 
L 7.71875 11.625 
Q 12.109375 9.234375 16.796875 8.0625 
Q 21.484375 6.890625 26.703125 6.890625 
Q 35.15625 6.890625 40.078125 11.328125 
Q 45.015625 15.765625 45.015625 23.390625 
Q 45.015625 31 40.078125 35.4375 
Q 35.15625 39.890625 26.703125 39.890625 
Q 22.75 39.890625 18.8125 39.015625 
Q 14.890625 38.140625 10.796875 36.28125 
z
" id="DejaVuSans-53"/>
       </defs>
       <use xlink:href="#DejaVuSans-8722"/>
       <use x="83.789062" xlink:href="#DejaVuSans-48"/>
       <use x="147.412109" xlink:href="#DejaVuSans-46"/>
       <use x="179.199219" xlink:href="#DejaVuSans-53"/>
      </g>
     </g>
    </g>
    <g id="xtick_3">
     <g id="line2d_3">
      <g>
       <use style="stroke:#000000;stroke-width:0.8;" x="225.567697" xlink:href="#m4127836d85" y="245.836875"/>
      </g>
     </g>
     <g id="text_3">
      <!-- 0.0 -->
      <g transform="translate(217.616134 260.435313)scale(0.1 -0.1)">
       <use xlink:href="#DejaVuSans-48"/>
       <use x="63.623047" xlink:href="#DejaVuSans-46"/>
       <use x="95.410156" xlink:href="#DejaVuSans-48"/>
      </g>
     </g>
    </g>
    <g id="xtick_4">
     <g id="line2d_4">
      <g>
       <use style="stroke:#000000;stroke-width:0.8;" x="302.526476" xlink:href="#m4127836d85" y="245.836875"/>
      </g>
     </g>
     <g id="text_4">
      <!-- 0.5 -->
      <g transform="translate(294.574914 260.435313)scale(0.1 -0.1)">
       <use xlink:href="#DejaVuSans-48"/>
       <use x="63.623047" xlink:href="#DejaVuSans-46"/>
       <use x="95.410156" xlink:href="#DejaVuSans-53"/>
      </g>
     </g>
    </g>
    <g id="xtick_5">
     <g id="line2d_5">
      <g>
       <use style="stroke:#000000;stroke-width:0.8;" x="379.485256" xlink:href="#m4127836d85" y="245.836875"/>
      </g>
     </g>
     <g id="text_5">
      <!-- 1.0 -->
      <g transform="translate(371.533693 260.435313)scale(0.1 -0.1)">
       <use xlink:href="#DejaVuSans-49"/>
       <use x="63.623047" xlink:href="#DejaVuSans-46"/>
       <use x="95.410156" xlink:href="#DejaVuSans-48"/>
      </g>
     </g>
    </g>
    <g id="text_6">
     <!-- $x_1$ -->
     <g transform="translate(217.673438 280.192187)scale(0.18 -0.18)">
      <defs>
       <path d="M 60.015625 54.6875 
L 34.90625 27.875 
L 50.296875 0 
L 39.984375 0 
L 28.421875 21.6875 
L 8.296875 0 
L -2.59375 0 
L 24.3125 28.8125 
L 10.015625 54.6875 
L 20.3125 54.6875 
L 30.8125 34.90625 
L 49.125 54.6875 
z
" id="DejaVuSans-Oblique-120"/>
      </defs>
      <use transform="translate(0 0.3125)" xlink:href="#DejaVuSans-Oblique-120"/>
      <use transform="translate(59.179688 -16.09375)scale(0.7)" xlink:href="#DejaVuSans-49"/>
     </g>
    </g>
   </g>
   <g id="matplotlib.axis_2">
    <g id="ytick_1">
     <g id="line2d_6">
      <defs>
       <path d="M 0 0 
L -3.5 0 
" id="m0ebd85ce48" style="stroke:#000000;stroke-width:0.8;"/>
      </defs>
      <g>
       <use style="stroke:#000000;stroke-width:0.8;" x="59.903438" xlink:href="#m0ebd85ce48" y="236.23236"/>
      </g>
     </g>
     <g id="text_7">
      <!-- −1.0 -->
      <g transform="translate(28.620625 240.031578)scale(0.1 -0.1)">
       <use xlink:href="#DejaVuSans-8722"/>
       <use x="83.789062" xlink:href="#DejaVuSans-49"/>
       <use x="147.412109" xlink:href="#DejaVuSans-46"/>
       <use x="179.199219" xlink:href="#DejaVuSans-48"/>
      </g>
     </g>
    </g>
    <g id="ytick_2">
     <g id="line2d_7">
      <g>
       <use style="stroke:#000000;stroke-width:0.8;" x="59.903438" xlink:href="#m0ebd85ce48" y="186.744398"/>
      </g>
     </g>
     <g id="text_8">
      <!-- −0.5 -->
      <g transform="translate(28.620625 190.543616)scale(0.1 -0.1)">
       <use xlink:href="#DejaVuSans-8722"/>
       <use x="83.789062" xlink:href="#DejaVuSans-48"/>
       <use x="147.412109" xlink:href="#DejaVuSans-46"/>
       <use x="179.199219" xlink:href="#DejaVuSans-53"/>
      </g>
     </g>
    </g>
    <g id="ytick_3">
     <g id="line2d_8">
      <g>
       <use style="stroke:#000000;stroke-width:0.8;" x="59.903438" xlink:href="#m0ebd85ce48" y="137.256435"/>
      </g>
     </g>
     <g id="text_9">
      <!-- 0.0 -->
      <g transform="translate(37.000312 141.055654)scale(0.1 -0.1)">
       <use xlink:href="#DejaVuSans-48"/>
       <use x="63.623047" xlink:href="#DejaVuSans-46"/>
       <use x="95.410156" xlink:href="#DejaVuSans-48"/>
      </g>
     </g>
    </g>
    <g id="ytick_4">
     <g id="line2d_9">
      <g>
       <use style="stroke:#000000;stroke-width:0.8;" x="59.903438" xlink:href="#m0ebd85ce48" y="87.768473"/>
      </g>
     </g>
     <g id="text_10">
      <!-- 0.5 -->
      <g transform="translate(37.000312 91.567692)scale(0.1 -0.1)">
       <use xlink:href="#DejaVuSans-48"/>
       <use x="63.623047" xlink:href="#DejaVuSans-46"/>
       <use x="95.410156" xlink:href="#DejaVuSans-53"/>
      </g>
     </g>
    </g>
    <g id="ytick_5">
     <g id="line2d_10">
      <g>
       <use style="stroke:#000000;stroke-width:0.8;" x="59.903438" xlink:href="#m0ebd85ce48" y="38.280511"/>
      </g>
     </g>
     <g id="text_11">
      <!-- 1.0 -->
      <g transform="translate(37.000312 42.07973)scale(0.1 -0.1)">
       <use xlink:href="#DejaVuSans-49"/>
       <use x="63.623047" xlink:href="#DejaVuSans-46"/>
       <use x="95.410156" xlink:href="#DejaVuSans-48"/>
      </g>
     </g>
    </g>
    <g id="text_12">
     <!-- $x_2$ -->
     <g transform="translate(20.877188 146.746875)rotate(-90)scale(0.18 -0.18)">
      <defs>
       <path d="M 19.1875 8.296875 
L 53.609375 8.296875 
L 53.609375 0 
L 7.328125 0 
L 7.328125 8.296875 
Q 12.9375 14.109375 22.625 23.890625 
Q 32.328125 33.6875 34.8125 36.53125 
Q 39.546875 41.84375 41.421875 45.53125 
Q 43.3125 49.21875 43.3125 52.78125 
Q 43.3125 58.59375 39.234375 62.25 
Q 35.15625 65.921875 28.609375 65.921875 
Q 23.96875 65.921875 18.8125 64.3125 
Q 13.671875 62.703125 7.8125 59.421875 
L 7.8125 69.390625 
Q 13.765625 71.78125 18.9375 73 
Q 24.125 74.21875 28.421875 74.21875 
Q 39.75 74.21875 46.484375 68.546875 
Q 53.21875 62.890625 53.21875 53.421875 
Q 53.21875 48.921875 51.53125 44.890625 
Q 49.859375 40.875 45.40625 35.40625 
Q 44.1875 33.984375 37.640625 27.21875 
Q 31.109375 20.453125 19.1875 8.296875 
z
" id="DejaVuSans-50"/>
      </defs>
      <use transform="translate(0 0.3125)" xlink:href="#DejaVuSans-Oblique-120"/>
      <use transform="translate(59.179688 -16.09375)scale(0.7)" xlink:href="#DejaVuSans-50"/>
     </g>
    </g>
   </g>
   <g id="patch_3">
    <path d="M 59.903438 245.836875 
L 59.903438 28.396875 
" style="fill:none;stroke:#000000;stroke-linecap:square;stroke-linejoin:miter;stroke-width:0.8;"/>
   </g>
   <g id="patch_4">
    <path d="M 394.703438 245.836875 
L 394.703438 28.396875 
" style="fill:none;stroke:#000000;stroke-linecap:square;stroke-linejoin:miter;stroke-width:0.8;"/>
   </g>
   <g id="patch_5">
    <path d="M 59.903437 245.836875 
L 394.703438 245.836875 
" style="fill:none;stroke:#000000;stroke-linecap:square;stroke-linejoin:miter;stroke-width:0.8;"/>
   </g>
   <g id="patch_6">
    <path d="M 59.903437 28.396875 
L 394.703438 28.396875 
" style="fill:none;stroke:#000000;stroke-linecap:square;stroke-linejoin:miter;stroke-width:0.8;"/>
   </g>
   <g id="text_13">
    <!-- Crescent dataset -->
    <g transform="translate(142.176875 22.396875)scale(0.2 -0.2)">
     <defs>
      <path d="M 64.40625 67.28125 
L 64.40625 56.890625 
Q 59.421875 61.53125 53.78125 63.8125 
Q 48.140625 66.109375 41.796875 66.109375 
Q 29.296875 66.109375 22.65625 58.46875 
Q 16.015625 50.828125 16.015625 36.375 
Q 16.015625 21.96875 22.65625 14.328125 
Q 29.296875 6.6875 41.796875 6.6875 
Q 48.140625 6.6875 53.78125 8.984375 
Q 59.421875 11.28125 64.40625 15.921875 
L 64.40625 5.609375 
Q 59.234375 2.09375 53.4375 0.328125 
Q 47.65625 -1.421875 41.21875 -1.421875 
Q 24.65625 -1.421875 15.125 8.703125 
Q 5.609375 18.84375 5.609375 36.375 
Q 5.609375 53.953125 15.125 64.078125 
Q 24.65625 74.21875 41.21875 74.21875 
Q 47.75 74.21875 53.53125 72.484375 
Q 59.328125 70.75 64.40625 67.28125 
z
" id="DejaVuSans-67"/>
      <path d="M 41.109375 46.296875 
Q 39.59375 47.171875 37.8125 47.578125 
Q 36.03125 48 33.890625 48 
Q 26.265625 48 22.1875 43.046875 
Q 18.109375 38.09375 18.109375 28.8125 
L 18.109375 0 
L 9.078125 0 
L 9.078125 54.6875 
L 18.109375 54.6875 
L 18.109375 46.1875 
Q 20.953125 51.171875 25.484375 53.578125 
Q 30.03125 56 36.53125 56 
Q 37.453125 56 38.578125 55.875 
Q 39.703125 55.765625 41.0625 55.515625 
z
" id="DejaVuSans-114"/>
      <path d="M 56.203125 29.59375 
L 56.203125 25.203125 
L 14.890625 25.203125 
Q 15.484375 15.921875 20.484375 11.0625 
Q 25.484375 6.203125 34.421875 6.203125 
Q 39.59375 6.203125 44.453125 7.46875 
Q 49.3125 8.734375 54.109375 11.28125 
L 54.109375 2.78125 
Q 49.265625 0.734375 44.1875 -0.34375 
Q 39.109375 -1.421875 33.890625 -1.421875 
Q 20.796875 -1.421875 13.15625 6.1875 
Q 5.515625 13.8125 5.515625 26.8125 
Q 5.515625 40.234375 12.765625 48.109375 
Q 20.015625 56 32.328125 56 
Q 43.359375 56 49.78125 48.890625 
Q 56.203125 41.796875 56.203125 29.59375 
z
M 47.21875 32.234375 
Q 47.125 39.59375 43.09375 43.984375 
Q 39.0625 48.390625 32.421875 48.390625 
Q 24.90625 48.390625 20.390625 44.140625 
Q 15.875 39.890625 15.1875 32.171875 
z
" id="DejaVuSans-101"/>
      <path d="M 44.28125 53.078125 
L 44.28125 44.578125 
Q 40.484375 46.53125 36.375 47.5 
Q 32.28125 48.484375 27.875 48.484375 
Q 21.1875 48.484375 17.84375 46.4375 
Q 14.5 44.390625 14.5 40.28125 
Q 14.5 37.15625 16.890625 35.375 
Q 19.28125 33.59375 26.515625 31.984375 
L 29.59375 31.296875 
Q 39.15625 29.25 43.1875 25.515625 
Q 47.21875 21.78125 47.21875 15.09375 
Q 47.21875 7.46875 41.1875 3.015625 
Q 35.15625 -1.421875 24.609375 -1.421875 
Q 20.21875 -1.421875 15.453125 -0.5625 
Q 10.6875 0.296875 5.421875 2 
L 5.421875 11.28125 
Q 10.40625 8.6875 15.234375 7.390625 
Q 20.0625 6.109375 24.8125 6.109375 
Q 31.15625 6.109375 34.5625 8.28125 
Q 37.984375 10.453125 37.984375 14.40625 
Q 37.984375 18.0625 35.515625 20.015625 
Q 33.0625 21.96875 24.703125 23.78125 
L 21.578125 24.515625 
Q 13.234375 26.265625 9.515625 29.90625 
Q 5.8125 33.546875 5.8125 39.890625 
Q 5.8125 47.609375 11.28125 51.796875 
Q 16.75 56 26.8125 56 
Q 31.78125 56 36.171875 55.265625 
Q 40.578125 54.546875 44.28125 53.078125 
z
" id="DejaVuSans-115"/>
      <path d="M 48.78125 52.59375 
L 48.78125 44.1875 
Q 44.96875 46.296875 41.140625 47.34375 
Q 37.3125 48.390625 33.40625 48.390625 
Q 24.65625 48.390625 19.8125 42.84375 
Q 14.984375 37.3125 14.984375 27.296875 
Q 14.984375 17.28125 19.8125 11.734375 
Q 24.65625 6.203125 33.40625 6.203125 
Q 37.3125 6.203125 41.140625 7.25 
Q 44.96875 8.296875 48.78125 10.40625 
L 48.78125 2.09375 
Q 45.015625 0.34375 40.984375 -0.53125 
Q 36.96875 -1.421875 32.421875 -1.421875 
Q 20.0625 -1.421875 12.78125 6.34375 
Q 5.515625 14.109375 5.515625 27.296875 
Q 5.515625 40.671875 12.859375 48.328125 
Q 20.21875 56 33.015625 56 
Q 37.15625 56 41.109375 55.140625 
Q 45.0625 54.296875 48.78125 52.59375 
z
" id="DejaVuSans-99"/>
      <path d="M 54.890625 33.015625 
L 54.890625 0 
L 45.90625 0 
L 45.90625 32.71875 
Q 45.90625 40.484375 42.875 44.328125 
Q 39.84375 48.1875 33.796875 48.1875 
Q 26.515625 48.1875 22.3125 43.546875 
Q 18.109375 38.921875 18.109375 30.90625 
L 18.109375 0 
L 9.078125 0 
L 9.078125 54.6875 
L 18.109375 54.6875 
L 18.109375 46.1875 
Q 21.34375 51.125 25.703125 53.5625 
Q 30.078125 56 35.796875 56 
Q 45.21875 56 50.046875 50.171875 
Q 54.890625 44.34375 54.890625 33.015625 
z
" id="DejaVuSans-110"/>
      <path d="M 18.3125 70.21875 
L 18.3125 54.6875 
L 36.8125 54.6875 
L 36.8125 47.703125 
L 18.3125 47.703125 
L 18.3125 18.015625 
Q 18.3125 11.328125 20.140625 9.421875 
Q 21.96875 7.515625 27.59375 7.515625 
L 36.8125 7.515625 
L 36.8125 0 
L 27.59375 0 
Q 17.1875 0 13.234375 3.875 
Q 9.28125 7.765625 9.28125 18.015625 
L 9.28125 47.703125 
L 2.6875 47.703125 
L 2.6875 54.6875 
L 9.28125 54.6875 
L 9.28125 70.21875 
z
" id="DejaVuSans-116"/>
      <path id="DejaVuSans-32"/>
      <path d="M 45.40625 46.390625 
L 45.40625 75.984375 
L 54.390625 75.984375 
L 54.390625 0 
L 45.40625 0 
L 45.40625 8.203125 
Q 42.578125 3.328125 38.25 0.953125 
Q 33.9375 -1.421875 27.875 -1.421875 
Q 17.96875 -1.421875 11.734375 6.484375 
Q 5.515625 14.40625 5.515625 27.296875 
Q 5.515625 40.1875 11.734375 48.09375 
Q 17.96875 56 27.875 56 
Q 33.9375 56 38.25 53.625 
Q 42.578125 51.265625 45.40625 46.390625 
z
M 14.796875 27.296875 
Q 14.796875 17.390625 18.875 11.75 
Q 22.953125 6.109375 30.078125 6.109375 
Q 37.203125 6.109375 41.296875 11.75 
Q 45.40625 17.390625 45.40625 27.296875 
Q 45.40625 37.203125 41.296875 42.84375 
Q 37.203125 48.484375 30.078125 48.484375 
Q 22.953125 48.484375 18.875 42.84375 
Q 14.796875 37.203125 14.796875 27.296875 
z
" id="DejaVuSans-100"/>
      <path d="M 34.28125 27.484375 
Q 23.390625 27.484375 19.1875 25 
Q 14.984375 22.515625 14.984375 16.5 
Q 14.984375 11.71875 18.140625 8.90625 
Q 21.296875 6.109375 26.703125 6.109375 
Q 34.1875 6.109375 38.703125 11.40625 
Q 43.21875 16.703125 43.21875 25.484375 
L 43.21875 27.484375 
z
M 52.203125 31.203125 
L 52.203125 0 
L 43.21875 0 
L 43.21875 8.296875 
Q 40.140625 3.328125 35.546875 0.953125 
Q 30.953125 -1.421875 24.3125 -1.421875 
Q 15.921875 -1.421875 10.953125 3.296875 
Q 6 8.015625 6 15.921875 
Q 6 25.140625 12.171875 29.828125 
Q 18.359375 34.515625 30.609375 34.515625 
L 43.21875 34.515625 
L 43.21875 35.40625 
Q 43.21875 41.609375 39.140625 45 
Q 35.0625 48.390625 27.6875 48.390625 
Q 23 48.390625 18.546875 47.265625 
Q 14.109375 46.140625 10.015625 43.890625 
L 10.015625 52.203125 
Q 14.9375 54.109375 19.578125 55.046875 
Q 24.21875 56 28.609375 56 
Q 40.484375 56 46.34375 49.84375 
Q 52.203125 43.703125 52.203125 31.203125 
z
" id="DejaVuSans-97"/>
     </defs>
     <use xlink:href="#DejaVuSans-67"/>
     <use x="69.824219" xlink:href="#DejaVuSans-114"/>
     <use x="108.6875" xlink:href="#DejaVuSans-101"/>
     <use x="170.210938" xlink:href="#DejaVuSans-115"/>
     <use x="222.310547" xlink:href="#DejaVuSans-99"/>
     <use x="277.291016" xlink:href="#DejaVuSans-101"/>
     <use x="338.814453" xlink:href="#DejaVuSans-110"/>
     <use x="402.193359" xlink:href="#DejaVuSans-116"/>
     <use x="441.402344" xlink:href="#DejaVuSans-32"/>
     <use x="473.189453" xlink:href="#DejaVuSans-100"/>
     <use x="536.666016" xlink:href="#DejaVuSans-97"/>
     <use x="597.945312" xlink:href="#DejaVuSans-116"/>
     <use x="637.154297" xlink:href="#DejaVuSans-97"/>
     <use x="698.433594" xlink:href="#DejaVuSans-115"/>
     <use x="750.533203" xlink:href="#DejaVuSans-101"/>
     <use x="812.056641" xlink:href="#DejaVuSans-116"/>
    </g>
   </g>
  </g>
 </g>
 <defs>
  <clipPath id="p42755e9b6e">
   <rect height="217.44" width="334.8" x="59.903438" y="28.396875"/>
  </clipPath>
 </defs>
</svg>
