<?xml version="1.0" encoding="utf-8" standalone="no"?>
<!DOCTYPE svg PUBLIC "-//W3C//DTD SVG 1.1//EN"
  "http://www.w3.org/Graphics/SVG/1.1/DTD/svg11.dtd">
<!-- Created with matplotlib (http://matplotlib.org/) -->
<svg height="284.640938pt" version="1.1" viewBox="0 0 396.333125 284.640938" width="396.333125pt" xmlns="http://www.w3.org/2000/svg" xmlns:xlink="http://www.w3.org/1999/xlink">
 <defs>
  <style type="text/css">
*{stroke-linecap:butt;stroke-linejoin:round;}
  </style>
 </defs>
 <g id="figure_1">
  <g id="patch_1">
   <path d="M 0 284.640938 
L 396.333125 284.640938 
L 396.333125 0 
L 0 0 
z
" style="fill:none;"/>
  </g>
  <g id="axes_1">
   <g id="patch_2">
    <path d="M 50.833125 241.277813 
L 385.633125 241.277813 
L 385.633125 23.837812 
L 50.833125 23.837812 
z
" style="fill:#ffffff;"/>
   </g>
   <g id="PathCollection_1">
    <defs>
     <path d="M -1.936492 1.936492 
L 1.936492 -1.936492 
M -1.936492 -1.936492 
L 1.936492 1.936492 
" id="mc216800eca" style="stroke:#0000ff;stroke-width:1.5;"/>
    </defs>
    <g clip-path="url(#pbe350772ee)">
     <use style="fill:#0000ff;stroke:#0000ff;stroke-width:1.5;" x="134.565064" xlink:href="#mc216800eca" y="149.034278"/>
     <use style="fill:#0000ff;stroke:#0000ff;stroke-width:1.5;" x="112.058552" xlink:href="#mc216800eca" y="132.92045"/>
     <use style="fill:#0000ff;stroke:#0000ff;stroke-width:1.5;" x="158.403051" xlink:href="#mc216800eca" y="84.792809"/>
     <use style="fill:#0000ff;stroke:#0000ff;stroke-width:1.5;" x="135.905826" xlink:href="#mc216800eca" y="141.208351"/>
     <use style="fill:#0000ff;stroke:#0000ff;stroke-width:1.5;" x="147.985324" xlink:href="#mc216800eca" y="107.352805"/>
     <use style="fill:#0000ff;stroke:#0000ff;stroke-width:1.5;" x="158.45741" xlink:href="#mc216800eca" y="115.616087"/>
     <use style="fill:#0000ff;stroke:#0000ff;stroke-width:1.5;" x="99.697594" xlink:href="#mc216800eca" y="140.654354"/>
     <use style="fill:#0000ff;stroke:#0000ff;stroke-width:1.5;" x="99.80985" xlink:href="#mc216800eca" y="131.620746"/>
     <use style="fill:#0000ff;stroke:#0000ff;stroke-width:1.5;" x="123.398678" xlink:href="#mc216800eca" y="117.785957"/>
     <use style="fill:#0000ff;stroke:#0000ff;stroke-width:1.5;" x="157.139709" xlink:href="#mc216800eca" y="84.850295"/>
     <use style="fill:#0000ff;stroke:#0000ff;stroke-width:1.5;" x="155.512533" xlink:href="#mc216800eca" y="107.811906"/>
     <use style="fill:#0000ff;stroke:#0000ff;stroke-width:1.5;" x="191.151389" xlink:href="#mc216800eca" y="115.252972"/>
     <use style="fill:#0000ff;stroke:#0000ff;stroke-width:1.5;" x="79.917381" xlink:href="#mc216800eca" y="149.523444"/>
     <use style="fill:#0000ff;stroke:#0000ff;stroke-width:1.5;" x="179.700937" xlink:href="#mc216800eca" y="92.410992"/>
     <use style="fill:#0000ff;stroke:#0000ff;stroke-width:1.5;" x="78.669746" xlink:href="#mc216800eca" y="132.106658"/>
     <use style="fill:#0000ff;stroke:#0000ff;stroke-width:1.5;" x="191.076697" xlink:href="#mc216800eca" y="75.39919"/>
     <use style="fill:#0000ff;stroke:#0000ff;stroke-width:1.5;" x="221.862334" xlink:href="#mc216800eca" y="82.514321"/>
     <use style="fill:#0000ff;stroke:#0000ff;stroke-width:1.5;" x="148.327009" xlink:href="#mc216800eca" y="101.158972"/>
     <use style="fill:#0000ff;stroke:#0000ff;stroke-width:1.5;" x="66.69638" xlink:href="#mc216800eca" y="149.644553"/>
     <use style="fill:#0000ff;stroke:#0000ff;stroke-width:1.5;" x="166.370782" xlink:href="#mc216800eca" y="60.560992"/>
     <use style="fill:#0000ff;stroke:#0000ff;stroke-width:1.5;" x="191.15285" xlink:href="#mc216800eca" y="76.548304"/>
     <use style="fill:#0000ff;stroke:#0000ff;stroke-width:1.5;" x="134.603017" xlink:href="#mc216800eca" y="140.749875"/>
     <use style="fill:#0000ff;stroke:#0000ff;stroke-width:1.5;" x="99.162985" xlink:href="#mc216800eca" y="116.786938"/>
     <use style="fill:#0000ff;stroke:#0000ff;stroke-width:1.5;" x="124.945027" xlink:href="#mc216800eca" y="148.80636"/>
     <use style="fill:#0000ff;stroke:#0000ff;stroke-width:1.5;" x="145.703279" xlink:href="#mc216800eca" y="108.934827"/>
     <use style="fill:#0000ff;stroke:#0000ff;stroke-width:1.5;" x="236.898472" xlink:href="#mc216800eca" y="68.666762"/>
     <use style="fill:#0000ff;stroke:#0000ff;stroke-width:1.5;" x="145.050448" xlink:href="#mc216800eca" y="115.35685"/>
     <use style="fill:#0000ff;stroke:#0000ff;stroke-width:1.5;" x="123.447719" xlink:href="#mc216800eca" y="115.819891"/>
     <use style="fill:#0000ff;stroke:#0000ff;stroke-width:1.5;" x="158.062869" xlink:href="#mc216800eca" y="108.4706"/>
     <use style="fill:#0000ff;stroke:#0000ff;stroke-width:1.5;" x="78.556446" xlink:href="#mc216800eca" y="156.140746"/>
     <use style="fill:#0000ff;stroke:#0000ff;stroke-width:1.5;" x="123.836211" xlink:href="#mc216800eca" y="140.962717"/>
     <use style="fill:#0000ff;stroke:#0000ff;stroke-width:1.5;" x="201.598097" xlink:href="#mc216800eca" y="50.724897"/>
     <use style="fill:#0000ff;stroke:#0000ff;stroke-width:1.5;" x="201.581536" xlink:href="#mc216800eca" y="108.271594"/>
     <use style="fill:#0000ff;stroke:#0000ff;stroke-width:1.5;" x="124.521927" xlink:href="#mc216800eca" y="149.412376"/>
     <use style="fill:#0000ff;stroke:#0000ff;stroke-width:1.5;" x="168.040609" xlink:href="#mc216800eca" y="107.493117"/>
     <use style="fill:#0000ff;stroke:#0000ff;stroke-width:1.5;" x="190.274955" xlink:href="#mc216800eca" y="116.242986"/>
     <use style="fill:#0000ff;stroke:#0000ff;stroke-width:1.5;" x="100.049292" xlink:href="#mc216800eca" y="101.45328"/>
     <use style="fill:#0000ff;stroke:#0000ff;stroke-width:1.5;" x="146.051531" xlink:href="#mc216800eca" y="115.558105"/>
     <use style="fill:#0000ff;stroke:#0000ff;stroke-width:1.5;" x="156.78293" xlink:href="#mc216800eca" y="84.913208"/>
     <use style="fill:#0000ff;stroke:#0000ff;stroke-width:1.5;" x="133.931256" xlink:href="#mc216800eca" y="140.910302"/>
    </g>
   </g>
   <g id="PathCollection_2">
    <defs>
     <path d="M -1.936492 1.936492 
L 1.936492 -1.936492 
M -1.936492 -1.936492 
L 1.936492 1.936492 
" id="m343b803e2e" style="stroke:#ff0000;stroke-width:1.5;"/>
    </defs>
    <g clip-path="url(#pbe350772ee)">
     <use style="fill:#ff0000;stroke:#ff0000;stroke-width:1.5;" x="202.510848" xlink:href="#m343b803e2e" y="197.029901"/>
     <use style="fill:#ff0000;stroke:#ff0000;stroke-width:1.5;" x="288.956217" xlink:href="#m343b803e2e" y="125.924233"/>
     <use style="fill:#ff0000;stroke:#ff0000;stroke-width:1.5;" x="301.437469" xlink:href="#m343b803e2e" y="133.111124"/>
     <use style="fill:#ff0000;stroke:#ff0000;stroke-width:1.5;" x="290.738068" xlink:href="#m343b803e2e" y="205.901167"/>
     <use style="fill:#ff0000;stroke:#ff0000;stroke-width:1.5;" x="136.576322" xlink:href="#m343b803e2e" y="197.231691"/>
     <use style="fill:#ff0000;stroke:#ff0000;stroke-width:1.5;" x="201.70604" xlink:href="#m343b803e2e" y="205.953011"/>
     <use style="fill:#ff0000;stroke:#ff0000;stroke-width:1.5;" x="280.365156" xlink:href="#m343b803e2e" y="212.184233"/>
     <use style="fill:#ff0000;stroke:#ff0000;stroke-width:1.5;" x="203.042259" xlink:href="#m343b803e2e" y="180.161342"/>
     <use style="fill:#ff0000;stroke:#ff0000;stroke-width:1.5;" x="281.322676" xlink:href="#m343b803e2e" y="156.924185"/>
     <use style="fill:#ff0000;stroke:#ff0000;stroke-width:1.5;" x="222.955884" xlink:href="#m343b803e2e" y="163.780401"/>
     <use style="fill:#ff0000;stroke:#ff0000;stroke-width:1.5;" x="291.390966" xlink:href="#m343b803e2e" y="189.684846"/>
     <use style="fill:#ff0000;stroke:#ff0000;stroke-width:1.5;" x="303.48906" xlink:href="#m343b803e2e" y="156.23362"/>
     <use style="fill:#ff0000;stroke:#ff0000;stroke-width:1.5;" x="358.431331" xlink:href="#m343b803e2e" y="140.601569"/>
     <use style="fill:#ff0000;stroke:#ff0000;stroke-width:1.5;" x="201.649378" xlink:href="#m343b803e2e" y="197.026595"/>
     <use style="fill:#ff0000;stroke:#ff0000;stroke-width:1.5;" x="333.682277" xlink:href="#m343b803e2e" y="140.720363"/>
     <use style="fill:#ff0000;stroke:#ff0000;stroke-width:1.5;" x="212.511796" xlink:href="#m343b803e2e" y="174.285783"/>
     <use style="fill:#ff0000;stroke:#ff0000;stroke-width:1.5;" x="257.640173" xlink:href="#m343b803e2e" y="115.940842"/>
     <use style="fill:#ff0000;stroke:#ff0000;stroke-width:1.5;" x="144.930212" xlink:href="#m343b803e2e" y="204.328051"/>
     <use style="fill:#ff0000;stroke:#ff0000;stroke-width:1.5;" x="271.455234" xlink:href="#m343b803e2e" y="156.669974"/>
     <use style="fill:#ff0000;stroke:#ff0000;stroke-width:1.5;" x="257.866212" xlink:href="#m343b803e2e" y="212.431713"/>
     <use style="fill:#ff0000;stroke:#ff0000;stroke-width:1.5;" x="157.463994" xlink:href="#m343b803e2e" y="189.58444"/>
     <use style="fill:#ff0000;stroke:#ff0000;stroke-width:1.5;" x="237.223803" xlink:href="#m343b803e2e" y="180.940724"/>
     <use style="fill:#ff0000;stroke:#ff0000;stroke-width:1.5;" x="235.285042" xlink:href="#m343b803e2e" y="172.373199"/>
     <use style="fill:#ff0000;stroke:#ff0000;stroke-width:1.5;" x="348.678527" xlink:href="#m343b803e2e" y="163.621582"/>
     <use style="fill:#ff0000;stroke:#ff0000;stroke-width:1.5;" x="327.433642" xlink:href="#m343b803e2e" y="147.750242"/>
     <use style="fill:#ff0000;stroke:#ff0000;stroke-width:1.5;" x="369.323836" xlink:href="#m343b803e2e" y="133.425357"/>
     <use style="fill:#ff0000;stroke:#ff0000;stroke-width:1.5;" x="257.194956" xlink:href="#m343b803e2e" y="172.548969"/>
     <use style="fill:#ff0000;stroke:#ff0000;stroke-width:1.5;" x="215.26625" xlink:href="#m343b803e2e" y="148.588191"/>
     <use style="fill:#ff0000;stroke:#ff0000;stroke-width:1.5;" x="226.671198" xlink:href="#m343b803e2e" y="182.513918"/>
     <use style="fill:#ff0000;stroke:#ff0000;stroke-width:1.5;" x="326.683872" xlink:href="#m343b803e2e" y="156.594247"/>
     <use style="fill:#ff0000;stroke:#ff0000;stroke-width:1.5;" x="335.359119" xlink:href="#m343b803e2e" y="149.44619"/>
     <use style="fill:#ff0000;stroke:#ff0000;stroke-width:1.5;" x="190.032898" xlink:href="#m343b803e2e" y="147.790072"/>
     <use style="fill:#ff0000;stroke:#ff0000;stroke-width:1.5;" x="169.131735" xlink:href="#m343b803e2e" y="171.916649"/>
     <use style="fill:#ff0000;stroke:#ff0000;stroke-width:1.5;" x="224.778305" xlink:href="#m343b803e2e" y="157.377168"/>
     <use style="fill:#ff0000;stroke:#ff0000;stroke-width:1.5;" x="314.103495" xlink:href="#m343b803e2e" y="164.263834"/>
    </g>
   </g>
   <g id="PathCollection_3">
    <defs>
     <path d="M 0 2.236068 
C 0.593012 2.236068 1.161816 2.000462 1.581139 1.581139 
C 2.000462 1.161816 2.236068 0.593012 2.236068 0 
C 2.236068 -0.593012 2.000462 -1.161816 1.581139 -1.581139 
C 1.161816 -2.000462 0.593012 -2.236068 0 -2.236068 
C -0.593012 -2.236068 -1.161816 -2.000462 -1.581139 -1.581139 
C -2.000462 -1.161816 -2.236068 -0.593012 -2.236068 0 
C -2.236068 0.593012 -2.000462 1.161816 -1.581139 1.581139 
C -1.161816 2.000462 -0.593012 2.236068 0 2.236068 
z
" id="m65e362f99e" style="stroke:#0000ff;"/>
    </defs>
    <g clip-path="url(#pbe350772ee)">
     <use style="fill:#0000ff;stroke:#0000ff;" x="156.67313" xlink:href="#m65e362f99e" y="124.639853"/>
     <use style="fill:#0000ff;stroke:#0000ff;" x="112.497214" xlink:href="#m65e362f99e" y="132.209042"/>
     <use style="fill:#0000ff;stroke:#0000ff;" x="225.075287" xlink:href="#m65e362f99e" y="35.570651"/>
     <use style="fill:#0000ff;stroke:#0000ff;" x="155.62086" xlink:href="#m65e362f99e" y="91.296671"/>
     <use style="fill:#0000ff;stroke:#0000ff;" x="145.214498" xlink:href="#m65e362f99e" y="148.514211"/>
     <use style="fill:#0000ff;stroke:#0000ff;" x="91.211943" xlink:href="#m65e362f99e" y="205.067299"/>
     <use style="fill:#0000ff;stroke:#0000ff;" x="145.91046" xlink:href="#m65e362f99e" y="125.406287"/>
     <use style="fill:#0000ff;stroke:#0000ff;" x="192.034582" xlink:href="#m65e362f99e" y="91.624431"/>
     <use style="fill:#0000ff;stroke:#0000ff;" x="168.264955" xlink:href="#m65e362f99e" y="115.591197"/>
     <use style="fill:#0000ff;stroke:#0000ff;" x="148.026604" xlink:href="#m65e362f99e" y="133.152847"/>
    </g>
   </g>
   <g id="PathCollection_4">
    <defs>
     <path d="M 0 2.236068 
C 0.593012 2.236068 1.161816 2.000462 1.581139 1.581139 
C 2.000462 1.161816 2.236068 0.593012 2.236068 0 
C 2.236068 -0.593012 2.000462 -1.161816 1.581139 -1.581139 
C 1.161816 -2.000462 0.593012 -2.236068 0 -2.236068 
C -0.593012 -2.236068 -1.161816 -2.000462 -1.581139 -1.581139 
C -2.000462 -1.161816 -2.236068 -0.593012 -2.236068 0 
C -2.236068 0.593012 -2.000462 1.161816 -1.581139 1.581139 
C -1.161816 2.000462 -0.593012 2.236068 0 2.236068 
z
" id="md44330ba38" style="stroke:#ff0000;"/>
    </defs>
    <g clip-path="url(#pbe350772ee)">
     <use style="fill:#ff0000;stroke:#ff0000;" x="337.053412" xlink:href="#md44330ba38" y="139.883783"/>
     <use style="fill:#ff0000;stroke:#ff0000;" x="224.559674" xlink:href="#md44330ba38" y="147.870226"/>
     <use style="fill:#ff0000;stroke:#ff0000;" x="213.044724" xlink:href="#md44330ba38" y="150.335113"/>
     <use style="fill:#ff0000;stroke:#ff0000;" x="267.844488" xlink:href="#md44330ba38" y="166.684049"/>
     <use style="fill:#ff0000;stroke:#ff0000;" x="247.943276" xlink:href="#md44330ba38" y="133.572414"/>
     <use style="fill:#ff0000;stroke:#ff0000;" x="223.216305" xlink:href="#md44330ba38" y="166.768873"/>
     <use style="fill:#ff0000;stroke:#ff0000;" x="214.550868" xlink:href="#md44330ba38" y="157.425762"/>
     <use style="fill:#ff0000;stroke:#ff0000;" x="270.039726" xlink:href="#md44330ba38" y="165.503865"/>
     <use style="fill:#ff0000;stroke:#ff0000;" x="246.51568" xlink:href="#md44330ba38" y="150.0701"/>
     <use style="fill:#ff0000;stroke:#ff0000;" x="234.720047" xlink:href="#md44330ba38" y="173.134804"/>
     <use style="fill:#ff0000;stroke:#ff0000;" x="258.292016" xlink:href="#md44330ba38" y="155.188211"/>
     <use style="fill:#ff0000;stroke:#ff0000;" x="200.445005" xlink:href="#md44330ba38" y="189.277412"/>
     <use style="fill:#ff0000;stroke:#ff0000;" x="213.837704" xlink:href="#md44330ba38" y="188.628799"/>
     <use style="fill:#ff0000;stroke:#ff0000;" x="267.748399" xlink:href="#md44330ba38" y="149.955175"/>
     <use style="fill:#ff0000;stroke:#ff0000;" x="144.954568" xlink:href="#md44330ba38" y="229.36077"/>
    </g>
   </g>
   <g id="matplotlib.axis_1">
    <g id="xtick_1">
     <g id="line2d_1">
      <defs>
       <path d="M 0 0 
L 0 3.5 
" id="md0bc947648" style="stroke:#000000;stroke-width:0.8;"/>
      </defs>
      <g>
       <use style="stroke:#000000;stroke-width:0.8;" x="90.378212" xlink:href="#md0bc947648" y="241.277813"/>
      </g>
     </g>
     <g id="text_1">
      <!-- 4.5 -->
      <defs>
       <path d="M 37.796875 64.3125 
L 12.890625 25.390625 
L 37.796875 25.390625 
z
M 35.203125 72.90625 
L 47.609375 72.90625 
L 47.609375 25.390625 
L 58.015625 25.390625 
L 58.015625 17.1875 
L 47.609375 17.1875 
L 47.609375 0 
L 37.796875 0 
L 37.796875 17.1875 
L 4.890625 17.1875 
L 4.890625 26.703125 
z
" id="DejaVuSans-34"/>
       <path d="M 10.6875 12.40625 
L 21 12.40625 
L 21 0 
L 10.6875 0 
z
" id="DejaVuSans-2e"/>
       <path d="M 10.796875 72.90625 
L 49.515625 72.90625 
L 49.515625 64.59375 
L 19.828125 64.59375 
L 19.828125 46.734375 
Q 21.96875 47.46875 24.109375 47.828125 
Q 26.265625 48.1875 28.421875 48.1875 
Q 40.625 48.1875 47.75 41.5 
Q 54.890625 34.8125 54.890625 23.390625 
Q 54.890625 11.625 47.5625 5.09375 
Q 40.234375 -1.421875 26.90625 -1.421875 
Q 22.3125 -1.421875 17.546875 -0.640625 
Q 12.796875 0.140625 7.71875 1.703125 
L 7.71875 11.625 
Q 12.109375 9.234375 16.796875 8.0625 
Q 21.484375 6.890625 26.703125 6.890625 
Q 35.15625 6.890625 40.078125 11.328125 
Q 45.015625 15.765625 45.015625 23.390625 
Q 45.015625 31 40.078125 35.4375 
Q 35.15625 39.890625 26.703125 39.890625 
Q 22.75 39.890625 18.8125 39.015625 
Q 14.890625 38.140625 10.796875 36.28125 
z
" id="DejaVuSans-35"/>
      </defs>
      <g transform="translate(80.836337 257.395938)scale(0.12 -0.12)">
       <use xlink:href="#DejaVuSans-34"/>
       <use x="63.623047" xlink:href="#DejaVuSans-2e"/>
       <use x="95.410156" xlink:href="#DejaVuSans-35"/>
      </g>
     </g>
    </g>
    <g id="xtick_2">
     <g id="line2d_2">
      <g>
       <use style="stroke:#000000;stroke-width:0.8;" x="146.141518" xlink:href="#md0bc947648" y="241.277813"/>
      </g>
     </g>
     <g id="text_2">
      <!-- 5.0 -->
      <defs>
       <path d="M 31.78125 66.40625 
Q 24.171875 66.40625 20.328125 58.90625 
Q 16.5 51.421875 16.5 36.375 
Q 16.5 21.390625 20.328125 13.890625 
Q 24.171875 6.390625 31.78125 6.390625 
Q 39.453125 6.390625 43.28125 13.890625 
Q 47.125 21.390625 47.125 36.375 
Q 47.125 51.421875 43.28125 58.90625 
Q 39.453125 66.40625 31.78125 66.40625 
z
M 31.78125 74.21875 
Q 44.046875 74.21875 50.515625 64.515625 
Q 56.984375 54.828125 56.984375 36.375 
Q 56.984375 17.96875 50.515625 8.265625 
Q 44.046875 -1.421875 31.78125 -1.421875 
Q 19.53125 -1.421875 13.0625 8.265625 
Q 6.59375 17.96875 6.59375 36.375 
Q 6.59375 54.828125 13.0625 64.515625 
Q 19.53125 74.21875 31.78125 74.21875 
z
" id="DejaVuSans-30"/>
      </defs>
      <g transform="translate(136.599643 257.395938)scale(0.12 -0.12)">
       <use xlink:href="#DejaVuSans-35"/>
       <use x="63.623047" xlink:href="#DejaVuSans-2e"/>
       <use x="95.410156" xlink:href="#DejaVuSans-30"/>
      </g>
     </g>
    </g>
    <g id="xtick_3">
     <g id="line2d_3">
      <g>
       <use style="stroke:#000000;stroke-width:0.8;" x="201.904824" xlink:href="#md0bc947648" y="241.277813"/>
      </g>
     </g>
     <g id="text_3">
      <!-- 5.5 -->
      <g transform="translate(192.362949 257.395938)scale(0.12 -0.12)">
       <use xlink:href="#DejaVuSans-35"/>
       <use x="63.623047" xlink:href="#DejaVuSans-2e"/>
       <use x="95.410156" xlink:href="#DejaVuSans-35"/>
      </g>
     </g>
    </g>
    <g id="xtick_4">
     <g id="line2d_4">
      <g>
       <use style="stroke:#000000;stroke-width:0.8;" x="257.66813" xlink:href="#md0bc947648" y="241.277813"/>
      </g>
     </g>
     <g id="text_4">
      <!-- 6.0 -->
      <defs>
       <path d="M 33.015625 40.375 
Q 26.375 40.375 22.484375 35.828125 
Q 18.609375 31.296875 18.609375 23.390625 
Q 18.609375 15.53125 22.484375 10.953125 
Q 26.375 6.390625 33.015625 6.390625 
Q 39.65625 6.390625 43.53125 10.953125 
Q 47.40625 15.53125 47.40625 23.390625 
Q 47.40625 31.296875 43.53125 35.828125 
Q 39.65625 40.375 33.015625 40.375 
z
M 52.59375 71.296875 
L 52.59375 62.3125 
Q 48.875 64.0625 45.09375 64.984375 
Q 41.3125 65.921875 37.59375 65.921875 
Q 27.828125 65.921875 22.671875 59.328125 
Q 17.53125 52.734375 16.796875 39.40625 
Q 19.671875 43.65625 24.015625 45.921875 
Q 28.375 48.1875 33.59375 48.1875 
Q 44.578125 48.1875 50.953125 41.515625 
Q 57.328125 34.859375 57.328125 23.390625 
Q 57.328125 12.15625 50.6875 5.359375 
Q 44.046875 -1.421875 33.015625 -1.421875 
Q 20.359375 -1.421875 13.671875 8.265625 
Q 6.984375 17.96875 6.984375 36.375 
Q 6.984375 53.65625 15.1875 63.9375 
Q 23.390625 74.21875 37.203125 74.21875 
Q 40.921875 74.21875 44.703125 73.484375 
Q 48.484375 72.75 52.59375 71.296875 
z
" id="DejaVuSans-36"/>
      </defs>
      <g transform="translate(248.126255 257.395938)scale(0.12 -0.12)">
       <use xlink:href="#DejaVuSans-36"/>
       <use x="63.623047" xlink:href="#DejaVuSans-2e"/>
       <use x="95.410156" xlink:href="#DejaVuSans-30"/>
      </g>
     </g>
    </g>
    <g id="xtick_5">
     <g id="line2d_5">
      <g>
       <use style="stroke:#000000;stroke-width:0.8;" x="313.431436" xlink:href="#md0bc947648" y="241.277813"/>
      </g>
     </g>
     <g id="text_5">
      <!-- 6.5 -->
      <g transform="translate(303.889561 257.395938)scale(0.12 -0.12)">
       <use xlink:href="#DejaVuSans-36"/>
       <use x="63.623047" xlink:href="#DejaVuSans-2e"/>
       <use x="95.410156" xlink:href="#DejaVuSans-35"/>
      </g>
     </g>
    </g>
    <g id="xtick_6">
     <g id="line2d_6">
      <g>
       <use style="stroke:#000000;stroke-width:0.8;" x="369.194742" xlink:href="#md0bc947648" y="241.277813"/>
      </g>
     </g>
     <g id="text_6">
      <!-- 7.0 -->
      <defs>
       <path d="M 8.203125 72.90625 
L 55.078125 72.90625 
L 55.078125 68.703125 
L 28.609375 0 
L 18.3125 0 
L 43.21875 64.59375 
L 8.203125 64.59375 
z
" id="DejaVuSans-37"/>
      </defs>
      <g transform="translate(359.652867 257.395938)scale(0.12 -0.12)">
       <use xlink:href="#DejaVuSans-37"/>
       <use x="63.623047" xlink:href="#DejaVuSans-2e"/>
       <use x="95.410156" xlink:href="#DejaVuSans-30"/>
      </g>
     </g>
    </g>
    <g id="text_7">
     <!-- $x_1$ -->
     <defs>
      <path d="M 24.296875 35.5 
L 25.5 29.796875 
Q 30.796875 37.90625 34.046875 41 
Q 37.296875 44.09375 40.59375 44.09375 
Q 42.40625 44.09375 43.546875 43.046875 
Q 44.703125 42 44.703125 40.390625 
Q 44.703125 38.796875 43.75 37.796875 
Q 42.796875 36.796875 41.296875 36.796875 
Q 40.40625 36.796875 38.90625 37.640625 
Q 37.40625 38.5 36.09375 38.5 
Q 33.203125 38.5 26.296875 26.40625 
Q 26.296875 25.09375 27.09375 21.90625 
L 30.296875 8.5 
Q 31.296875 4.40625 33.296875 4.40625 
Q 34.90625 4.40625 38 8.40625 
Q 38.296875 8.796875 38.6875 9.34375 
Q 39.09375 9.90625 39.390625 10.34375 
Q 39.703125 10.796875 40.09375 11.203125 
L 41.59375 10.296875 
Q 37.296875 3.59375 34.796875 1.25 
Q 32.296875 -1.09375 29.40625 -1.09375 
Q 27 -1.09375 25.703125 0.40625 
Q 24.40625 1.90625 23.5 5.703125 
L 20.59375 17.59375 
L 11.796875 5.703125 
Q 8.703125 1.5 6.75 0.203125 
Q 4.796875 -1.09375 2.296875 -1.09375 
Q 0 -1.09375 -1.34375 0 
Q -2.703125 1.09375 -2.703125 3.09375 
Q -2.703125 4.59375 -1.75 5.640625 
Q -0.796875 6.703125 0.703125 6.703125 
Q 1.90625 6.703125 3.90625 5.59375 
Q 5.40625 4.703125 6.5 4.703125 
Q 8.203125 4.703125 11.59375 9.59375 
L 19.796875 21.203125 
L 17 33.59375 
Q 16 38 15.140625 39.203125 
Q 14.296875 40.40625 12.40625 40.40625 
Q 11.203125 40.40625 8.5 39.703125 
L 6.703125 39.203125 
L 6.40625 40.796875 
L 7.5 41.203125 
Q 15.5 44.09375 19.203125 44.09375 
Q 21.09375 44.09375 22.1875 42.296875 
Q 23.296875 40.5 24.296875 35.5 
z
" id="STIXGeneral-Italic-78"/>
      <path d="M 39.40625 0 
L 11.796875 0 
L 11.796875 1.5 
Q 17.296875 1.796875 19.296875 3.546875 
Q 21.296875 5.296875 21.296875 9.5 
L 21.296875 54.40625 
Q 21.296875 59.296875 18.296875 59.296875 
Q 16.90625 59.296875 13.796875 58.09375 
L 11.09375 57.09375 
L 11.09375 58.5 
L 29 67.59375 
L 29.90625 67.296875 
L 29.90625 7.59375 
Q 29.90625 4.296875 31.90625 2.890625 
Q 33.90625 1.5 39.40625 1.5 
z
" id="STIXGeneral-Regular-31"/>
     </defs>
     <g transform="translate(212.353125 274.529375)scale(0.14 -0.14)">
      <use transform="translate(0 0.90625)" xlink:href="#STIXGeneral-Italic-78"/>
      <use transform="translate(44.399994 -12.321875)scale(0.7)" xlink:href="#STIXGeneral-Regular-31"/>
     </g>
    </g>
   </g>
   <g id="matplotlib.axis_2">
    <g id="ytick_1">
     <g id="line2d_7">
      <defs>
       <path d="M 0 0 
L -3.5 0 
" id="m8f5fd0d019" style="stroke:#000000;stroke-width:0.8;"/>
      </defs>
      <g>
       <use style="stroke:#000000;stroke-width:0.8;" x="50.833125" xlink:href="#m8f5fd0d019" y="229.546807"/>
      </g>
     </g>
     <g id="text_8">
      <!-- 2.0 -->
      <defs>
       <path d="M 19.1875 8.296875 
L 53.609375 8.296875 
L 53.609375 0 
L 7.328125 0 
L 7.328125 8.296875 
Q 12.9375 14.109375 22.625 23.890625 
Q 32.328125 33.6875 34.8125 36.53125 
Q 39.546875 41.84375 41.421875 45.53125 
Q 43.3125 49.21875 43.3125 52.78125 
Q 43.3125 58.59375 39.234375 62.25 
Q 35.15625 65.921875 28.609375 65.921875 
Q 23.96875 65.921875 18.8125 64.3125 
Q 13.671875 62.703125 7.8125 59.421875 
L 7.8125 69.390625 
Q 13.765625 71.78125 18.9375 73 
Q 24.125 74.21875 28.421875 74.21875 
Q 39.75 74.21875 46.484375 68.546875 
Q 53.21875 62.890625 53.21875 53.421875 
Q 53.21875 48.921875 51.53125 44.890625 
Q 49.859375 40.875 45.40625 35.40625 
Q 44.1875 33.984375 37.640625 27.21875 
Q 31.109375 20.453125 19.1875 8.296875 
z
" id="DejaVuSans-32"/>
      </defs>
      <g transform="translate(24.749375 234.10587)scale(0.12 -0.12)">
       <use xlink:href="#DejaVuSans-32"/>
       <use x="63.623047" xlink:href="#DejaVuSans-2e"/>
       <use x="95.410156" xlink:href="#DejaVuSans-30"/>
      </g>
     </g>
    </g>
    <g id="ytick_2">
     <g id="line2d_8">
      <g>
       <use style="stroke:#000000;stroke-width:0.8;" x="50.833125" xlink:href="#m8f5fd0d019" y="189.154128"/>
      </g>
     </g>
     <g id="text_9">
      <!-- 2.5 -->
      <g transform="translate(24.749375 193.71319)scale(0.12 -0.12)">
       <use xlink:href="#DejaVuSans-32"/>
       <use x="63.623047" xlink:href="#DejaVuSans-2e"/>
       <use x="95.410156" xlink:href="#DejaVuSans-35"/>
      </g>
     </g>
    </g>
    <g id="ytick_3">
     <g id="line2d_9">
      <g>
       <use style="stroke:#000000;stroke-width:0.8;" x="50.833125" xlink:href="#m8f5fd0d019" y="148.761448"/>
      </g>
     </g>
     <g id="text_10">
      <!-- 3.0 -->
      <defs>
       <path d="M 40.578125 39.3125 
Q 47.65625 37.796875 51.625 33 
Q 55.609375 28.21875 55.609375 21.1875 
Q 55.609375 10.40625 48.1875 4.484375 
Q 40.765625 -1.421875 27.09375 -1.421875 
Q 22.515625 -1.421875 17.65625 -0.515625 
Q 12.796875 0.390625 7.625 2.203125 
L 7.625 11.71875 
Q 11.71875 9.328125 16.59375 8.109375 
Q 21.484375 6.890625 26.8125 6.890625 
Q 36.078125 6.890625 40.9375 10.546875 
Q 45.796875 14.203125 45.796875 21.1875 
Q 45.796875 27.640625 41.28125 31.265625 
Q 36.765625 34.90625 28.71875 34.90625 
L 20.21875 34.90625 
L 20.21875 43.015625 
L 29.109375 43.015625 
Q 36.375 43.015625 40.234375 45.921875 
Q 44.09375 48.828125 44.09375 54.296875 
Q 44.09375 59.90625 40.109375 62.90625 
Q 36.140625 65.921875 28.71875 65.921875 
Q 24.65625 65.921875 20.015625 65.03125 
Q 15.375 64.15625 9.8125 62.3125 
L 9.8125 71.09375 
Q 15.4375 72.65625 20.34375 73.4375 
Q 25.25 74.21875 29.59375 74.21875 
Q 40.828125 74.21875 47.359375 69.109375 
Q 53.90625 64.015625 53.90625 55.328125 
Q 53.90625 49.265625 50.4375 45.09375 
Q 46.96875 40.921875 40.578125 39.3125 
z
" id="DejaVuSans-33"/>
      </defs>
      <g transform="translate(24.749375 153.32051)scale(0.12 -0.12)">
       <use xlink:href="#DejaVuSans-33"/>
       <use x="63.623047" xlink:href="#DejaVuSans-2e"/>
       <use x="95.410156" xlink:href="#DejaVuSans-30"/>
      </g>
     </g>
    </g>
    <g id="ytick_4">
     <g id="line2d_10">
      <g>
       <use style="stroke:#000000;stroke-width:0.8;" x="50.833125" xlink:href="#m8f5fd0d019" y="108.368768"/>
      </g>
     </g>
     <g id="text_11">
      <!-- 3.5 -->
      <g transform="translate(24.749375 112.92783)scale(0.12 -0.12)">
       <use xlink:href="#DejaVuSans-33"/>
       <use x="63.623047" xlink:href="#DejaVuSans-2e"/>
       <use x="95.410156" xlink:href="#DejaVuSans-35"/>
      </g>
     </g>
    </g>
    <g id="ytick_5">
     <g id="line2d_11">
      <g>
       <use style="stroke:#000000;stroke-width:0.8;" x="50.833125" xlink:href="#m8f5fd0d019" y="67.976088"/>
      </g>
     </g>
     <g id="text_12">
      <!-- 4.0 -->
      <g transform="translate(24.749375 72.535151)scale(0.12 -0.12)">
       <use xlink:href="#DejaVuSans-34"/>
       <use x="63.623047" xlink:href="#DejaVuSans-2e"/>
       <use x="95.410156" xlink:href="#DejaVuSans-30"/>
      </g>
     </g>
    </g>
    <g id="ytick_6">
     <g id="line2d_12">
      <g>
       <use style="stroke:#000000;stroke-width:0.8;" x="50.833125" xlink:href="#m8f5fd0d019" y="27.583408"/>
      </g>
     </g>
     <g id="text_13">
      <!-- 4.5 -->
      <g transform="translate(24.749375 32.142471)scale(0.12 -0.12)">
       <use xlink:href="#DejaVuSans-34"/>
       <use x="63.623047" xlink:href="#DejaVuSans-2e"/>
       <use x="95.410156" xlink:href="#DejaVuSans-35"/>
      </g>
     </g>
    </g>
    <g id="text_14">
     <!-- $x_2$ -->
     <defs>
      <path d="M 47.40625 13.703125 
L 42 0 
L 2.90625 0 
L 2.90625 1.203125 
L 20.703125 20.09375 
Q 27.703125 27.40625 30.703125 33.5 
Q 33.703125 39.59375 33.703125 46.09375 
Q 33.703125 52.796875 30 56.5 
Q 26.296875 60.203125 19.796875 60.203125 
Q 14.40625 60.203125 11.25 57.390625 
Q 8.09375 54.59375 5.09375 47.203125 
L 3 47.703125 
Q 4.703125 57 9.84375 62.296875 
Q 15 67.59375 23.796875 67.59375 
Q 32.09375 67.59375 37.1875 62.59375 
Q 42.296875 57.59375 42.296875 50 
Q 42.296875 38.703125 29.5 25.203125 
L 13 7.59375 
L 36.40625 7.59375 
Q 39.703125 7.59375 41.640625 8.890625 
Q 43.59375 10.203125 46 14.296875 
z
" id="STIXGeneral-Regular-32"/>
     </defs>
     <g transform="translate(17.837813 138.437812)rotate(-90)scale(0.14 -0.14)">
      <use transform="translate(0 0.90625)" xlink:href="#STIXGeneral-Italic-78"/>
      <use transform="translate(44.399994 -12.321875)scale(0.7)" xlink:href="#STIXGeneral-Regular-32"/>
     </g>
    </g>
   </g>
   <g id="patch_3">
    <path d="M 50.833125 241.277813 
L 50.833125 23.837812 
" style="fill:none;stroke:#000000;stroke-linecap:square;stroke-linejoin:miter;stroke-width:0.8;"/>
   </g>
   <g id="patch_4">
    <path d="M 385.633125 241.277813 
L 385.633125 23.837812 
" style="fill:none;stroke:#000000;stroke-linecap:square;stroke-linejoin:miter;stroke-width:0.8;"/>
   </g>
   <g id="patch_5">
    <path d="M 50.833125 241.277813 
L 385.633125 241.277813 
" style="fill:none;stroke:#000000;stroke-linecap:square;stroke-linejoin:miter;stroke-width:0.8;"/>
   </g>
   <g id="patch_6">
    <path d="M 50.833125 23.837812 
L 385.633125 23.837812 
" style="fill:none;stroke:#000000;stroke-linecap:square;stroke-linejoin:miter;stroke-width:0.8;"/>
   </g>
   <g id="text_15">
    <!-- 2D binary Iris dataset -->
    <defs>
     <path d="M 19.671875 64.796875 
L 19.671875 8.109375 
L 31.59375 8.109375 
Q 46.6875 8.109375 53.6875 14.9375 
Q 60.6875 21.78125 60.6875 36.53125 
Q 60.6875 51.171875 53.6875 57.984375 
Q 46.6875 64.796875 31.59375 64.796875 
z
M 9.8125 72.90625 
L 30.078125 72.90625 
Q 51.265625 72.90625 61.171875 64.09375 
Q 71.09375 55.28125 71.09375 36.53125 
Q 71.09375 17.671875 61.125 8.828125 
Q 51.171875 0 30.078125 0 
L 9.8125 0 
z
" id="DejaVuSans-44"/>
     <path id="DejaVuSans-20"/>
     <path d="M 48.6875 27.296875 
Q 48.6875 37.203125 44.609375 42.84375 
Q 40.53125 48.484375 33.40625 48.484375 
Q 26.265625 48.484375 22.1875 42.84375 
Q 18.109375 37.203125 18.109375 27.296875 
Q 18.109375 17.390625 22.1875 11.75 
Q 26.265625 6.109375 33.40625 6.109375 
Q 40.53125 6.109375 44.609375 11.75 
Q 48.6875 17.390625 48.6875 27.296875 
z
M 18.109375 46.390625 
Q 20.953125 51.265625 25.265625 53.625 
Q 29.59375 56 35.59375 56 
Q 45.5625 56 51.78125 48.09375 
Q 58.015625 40.1875 58.015625 27.296875 
Q 58.015625 14.40625 51.78125 6.484375 
Q 45.5625 -1.421875 35.59375 -1.421875 
Q 29.59375 -1.421875 25.265625 0.953125 
Q 20.953125 3.328125 18.109375 8.203125 
L 18.109375 0 
L 9.078125 0 
L 9.078125 75.984375 
L 18.109375 75.984375 
z
" id="DejaVuSans-62"/>
     <path d="M 9.421875 54.6875 
L 18.40625 54.6875 
L 18.40625 0 
L 9.421875 0 
z
M 9.421875 75.984375 
L 18.40625 75.984375 
L 18.40625 64.59375 
L 9.421875 64.59375 
z
" id="DejaVuSans-69"/>
     <path d="M 54.890625 33.015625 
L 54.890625 0 
L 45.90625 0 
L 45.90625 32.71875 
Q 45.90625 40.484375 42.875 44.328125 
Q 39.84375 48.1875 33.796875 48.1875 
Q 26.515625 48.1875 22.3125 43.546875 
Q 18.109375 38.921875 18.109375 30.90625 
L 18.109375 0 
L 9.078125 0 
L 9.078125 54.6875 
L 18.109375 54.6875 
L 18.109375 46.1875 
Q 21.34375 51.125 25.703125 53.5625 
Q 30.078125 56 35.796875 56 
Q 45.21875 56 50.046875 50.171875 
Q 54.890625 44.34375 54.890625 33.015625 
z
" id="DejaVuSans-6e"/>
     <path d="M 34.28125 27.484375 
Q 23.390625 27.484375 19.1875 25 
Q 14.984375 22.515625 14.984375 16.5 
Q 14.984375 11.71875 18.140625 8.90625 
Q 21.296875 6.109375 26.703125 6.109375 
Q 34.1875 6.109375 38.703125 11.40625 
Q 43.21875 16.703125 43.21875 25.484375 
L 43.21875 27.484375 
z
M 52.203125 31.203125 
L 52.203125 0 
L 43.21875 0 
L 43.21875 8.296875 
Q 40.140625 3.328125 35.546875 0.953125 
Q 30.953125 -1.421875 24.3125 -1.421875 
Q 15.921875 -1.421875 10.953125 3.296875 
Q 6 8.015625 6 15.921875 
Q 6 25.140625 12.171875 29.828125 
Q 18.359375 34.515625 30.609375 34.515625 
L 43.21875 34.515625 
L 43.21875 35.40625 
Q 43.21875 41.609375 39.140625 45 
Q 35.0625 48.390625 27.6875 48.390625 
Q 23 48.390625 18.546875 47.265625 
Q 14.109375 46.140625 10.015625 43.890625 
L 10.015625 52.203125 
Q 14.9375 54.109375 19.578125 55.046875 
Q 24.21875 56 28.609375 56 
Q 40.484375 56 46.34375 49.84375 
Q 52.203125 43.703125 52.203125 31.203125 
z
" id="DejaVuSans-61"/>
     <path d="M 41.109375 46.296875 
Q 39.59375 47.171875 37.8125 47.578125 
Q 36.03125 48 33.890625 48 
Q 26.265625 48 22.1875 43.046875 
Q 18.109375 38.09375 18.109375 28.8125 
L 18.109375 0 
L 9.078125 0 
L 9.078125 54.6875 
L 18.109375 54.6875 
L 18.109375 46.1875 
Q 20.953125 51.171875 25.484375 53.578125 
Q 30.03125 56 36.53125 56 
Q 37.453125 56 38.578125 55.875 
Q 39.703125 55.765625 41.0625 55.515625 
z
" id="DejaVuSans-72"/>
     <path d="M 32.171875 -5.078125 
Q 28.375 -14.84375 24.75 -17.8125 
Q 21.140625 -20.796875 15.09375 -20.796875 
L 7.90625 -20.796875 
L 7.90625 -13.28125 
L 13.1875 -13.28125 
Q 16.890625 -13.28125 18.9375 -11.515625 
Q 21 -9.765625 23.484375 -3.21875 
L 25.09375 0.875 
L 2.984375 54.6875 
L 12.5 54.6875 
L 29.59375 11.921875 
L 46.6875 54.6875 
L 56.203125 54.6875 
z
" id="DejaVuSans-79"/>
     <path d="M 9.8125 72.90625 
L 19.671875 72.90625 
L 19.671875 0 
L 9.8125 0 
z
" id="DejaVuSans-49"/>
     <path d="M 44.28125 53.078125 
L 44.28125 44.578125 
Q 40.484375 46.53125 36.375 47.5 
Q 32.28125 48.484375 27.875 48.484375 
Q 21.1875 48.484375 17.84375 46.4375 
Q 14.5 44.390625 14.5 40.28125 
Q 14.5 37.15625 16.890625 35.375 
Q 19.28125 33.59375 26.515625 31.984375 
L 29.59375 31.296875 
Q 39.15625 29.25 43.1875 25.515625 
Q 47.21875 21.78125 47.21875 15.09375 
Q 47.21875 7.46875 41.1875 3.015625 
Q 35.15625 -1.421875 24.609375 -1.421875 
Q 20.21875 -1.421875 15.453125 -0.5625 
Q 10.6875 0.296875 5.421875 2 
L 5.421875 11.28125 
Q 10.40625 8.6875 15.234375 7.390625 
Q 20.0625 6.109375 24.8125 6.109375 
Q 31.15625 6.109375 34.5625 8.28125 
Q 37.984375 10.453125 37.984375 14.40625 
Q 37.984375 18.0625 35.515625 20.015625 
Q 33.0625 21.96875 24.703125 23.78125 
L 21.578125 24.515625 
Q 13.234375 26.265625 9.515625 29.90625 
Q 5.8125 33.546875 5.8125 39.890625 
Q 5.8125 47.609375 11.28125 51.796875 
Q 16.75 56 26.8125 56 
Q 31.78125 56 36.171875 55.265625 
Q 40.578125 54.546875 44.28125 53.078125 
z
" id="DejaVuSans-73"/>
     <path d="M 45.40625 46.390625 
L 45.40625 75.984375 
L 54.390625 75.984375 
L 54.390625 0 
L 45.40625 0 
L 45.40625 8.203125 
Q 42.578125 3.328125 38.25 0.953125 
Q 33.9375 -1.421875 27.875 -1.421875 
Q 17.96875 -1.421875 11.734375 6.484375 
Q 5.515625 14.40625 5.515625 27.296875 
Q 5.515625 40.1875 11.734375 48.09375 
Q 17.96875 56 27.875 56 
Q 33.9375 56 38.25 53.625 
Q 42.578125 51.265625 45.40625 46.390625 
z
M 14.796875 27.296875 
Q 14.796875 17.390625 18.875 11.75 
Q 22.953125 6.109375 30.078125 6.109375 
Q 37.203125 6.109375 41.296875 11.75 
Q 45.40625 17.390625 45.40625 27.296875 
Q 45.40625 37.203125 41.296875 42.84375 
Q 37.203125 48.484375 30.078125 48.484375 
Q 22.953125 48.484375 18.875 42.84375 
Q 14.796875 37.203125 14.796875 27.296875 
z
" id="DejaVuSans-64"/>
     <path d="M 18.3125 70.21875 
L 18.3125 54.6875 
L 36.8125 54.6875 
L 36.8125 47.703125 
L 18.3125 47.703125 
L 18.3125 18.015625 
Q 18.3125 11.328125 20.140625 9.421875 
Q 21.96875 7.515625 27.59375 7.515625 
L 36.8125 7.515625 
L 36.8125 0 
L 27.59375 0 
Q 17.1875 0 13.234375 3.875 
Q 9.28125 7.765625 9.28125 18.015625 
L 9.28125 47.703125 
L 2.6875 47.703125 
L 2.6875 54.6875 
L 9.28125 54.6875 
L 9.28125 70.21875 
z
" id="DejaVuSans-74"/>
     <path d="M 56.203125 29.59375 
L 56.203125 25.203125 
L 14.890625 25.203125 
Q 15.484375 15.921875 20.484375 11.0625 
Q 25.484375 6.203125 34.421875 6.203125 
Q 39.59375 6.203125 44.453125 7.46875 
Q 49.3125 8.734375 54.109375 11.28125 
L 54.109375 2.78125 
Q 49.265625 0.734375 44.1875 -0.34375 
Q 39.109375 -1.421875 33.890625 -1.421875 
Q 20.796875 -1.421875 13.15625 6.1875 
Q 5.515625 13.8125 5.515625 26.8125 
Q 5.515625 40.234375 12.765625 48.109375 
Q 20.015625 56 32.328125 56 
Q 43.359375 56 49.78125 48.890625 
Q 56.203125 41.796875 56.203125 29.59375 
z
M 47.21875 32.234375 
Q 47.125 39.59375 43.09375 43.984375 
Q 39.0625 48.390625 32.421875 48.390625 
Q 24.90625 48.390625 20.390625 44.140625 
Q 15.875 39.890625 15.1875 32.171875 
z
" id="DejaVuSans-65"/>
    </defs>
    <g transform="translate(142.580625 17.837812)scale(0.14 -0.14)">
     <use xlink:href="#DejaVuSans-32"/>
     <use x="63.623047" xlink:href="#DejaVuSans-44"/>
     <use x="140.625" xlink:href="#DejaVuSans-20"/>
     <use x="172.412109" xlink:href="#DejaVuSans-62"/>
     <use x="235.888672" xlink:href="#DejaVuSans-69"/>
     <use x="263.671875" xlink:href="#DejaVuSans-6e"/>
     <use x="327.050781" xlink:href="#DejaVuSans-61"/>
     <use x="388.330078" xlink:href="#DejaVuSans-72"/>
     <use x="429.443359" xlink:href="#DejaVuSans-79"/>
     <use x="488.623047" xlink:href="#DejaVuSans-20"/>
     <use x="520.410156" xlink:href="#DejaVuSans-49"/>
     <use x="549.902344" xlink:href="#DejaVuSans-72"/>
     <use x="591.015625" xlink:href="#DejaVuSans-69"/>
     <use x="618.798828" xlink:href="#DejaVuSans-73"/>
     <use x="670.898438" xlink:href="#DejaVuSans-20"/>
     <use x="702.685547" xlink:href="#DejaVuSans-64"/>
     <use x="766.162109" xlink:href="#DejaVuSans-61"/>
     <use x="827.441406" xlink:href="#DejaVuSans-74"/>
     <use x="866.650391" xlink:href="#DejaVuSans-61"/>
     <use x="927.929688" xlink:href="#DejaVuSans-73"/>
     <use x="980.029297" xlink:href="#DejaVuSans-65"/>
     <use x="1041.552734" xlink:href="#DejaVuSans-74"/>
    </g>
   </g>
   <g id="legend_1">
    <g id="patch_7">
     <path d="M 282.637812 90.550312 
L 378.633125 90.550312 
Q 380.633125 90.550312 380.633125 88.550312 
L 380.633125 30.837812 
Q 380.633125 28.837812 378.633125 28.837812 
L 282.637812 28.837812 
Q 280.637812 28.837812 280.637812 30.837812 
L 280.637812 88.550312 
Q 280.637812 90.550312 282.637812 90.550312 
z
" style="fill:#ffffff;opacity:0.8;stroke:#cccccc;stroke-linejoin:miter;"/>
    </g>
    <g id="PathCollection_5">
     <g>
      <use style="fill:#0000ff;stroke:#0000ff;stroke-width:1.5;" x="294.637812" xlink:href="#mc216800eca" y="37.81125"/>
     </g>
    </g>
    <g id="text_16">
     <!-- class 0, train -->
     <defs>
      <path d="M 48.78125 52.59375 
L 48.78125 44.1875 
Q 44.96875 46.296875 41.140625 47.34375 
Q 37.3125 48.390625 33.40625 48.390625 
Q 24.65625 48.390625 19.8125 42.84375 
Q 14.984375 37.3125 14.984375 27.296875 
Q 14.984375 17.28125 19.8125 11.734375 
Q 24.65625 6.203125 33.40625 6.203125 
Q 37.3125 6.203125 41.140625 7.25 
Q 44.96875 8.296875 48.78125 10.40625 
L 48.78125 2.09375 
Q 45.015625 0.34375 40.984375 -0.53125 
Q 36.96875 -1.421875 32.421875 -1.421875 
Q 20.0625 -1.421875 12.78125 6.34375 
Q 5.515625 14.109375 5.515625 27.296875 
Q 5.515625 40.671875 12.859375 48.328125 
Q 20.21875 56 33.015625 56 
Q 37.15625 56 41.109375 55.140625 
Q 45.0625 54.296875 48.78125 52.59375 
z
" id="DejaVuSans-63"/>
      <path d="M 9.421875 75.984375 
L 18.40625 75.984375 
L 18.40625 0 
L 9.421875 0 
z
" id="DejaVuSans-6c"/>
      <path d="M 11.71875 12.40625 
L 22.015625 12.40625 
L 22.015625 4 
L 14.015625 -11.625 
L 7.71875 -11.625 
L 11.71875 4 
z
" id="DejaVuSans-2c"/>
     </defs>
     <g transform="translate(312.637812 40.43625)scale(0.1 -0.1)">
      <use xlink:href="#DejaVuSans-63"/>
      <use x="54.980469" xlink:href="#DejaVuSans-6c"/>
      <use x="82.763672" xlink:href="#DejaVuSans-61"/>
      <use x="144.042969" xlink:href="#DejaVuSans-73"/>
      <use x="196.142578" xlink:href="#DejaVuSans-73"/>
      <use x="248.242188" xlink:href="#DejaVuSans-20"/>
      <use x="280.029297" xlink:href="#DejaVuSans-30"/>
      <use x="343.652344" xlink:href="#DejaVuSans-2c"/>
      <use x="375.439453" xlink:href="#DejaVuSans-20"/>
      <use x="407.226562" xlink:href="#DejaVuSans-74"/>
      <use x="446.435547" xlink:href="#DejaVuSans-72"/>
      <use x="487.548828" xlink:href="#DejaVuSans-61"/>
      <use x="548.828125" xlink:href="#DejaVuSans-69"/>
      <use x="576.611328" xlink:href="#DejaVuSans-6e"/>
     </g>
    </g>
    <g id="PathCollection_6">
     <g>
      <use style="fill:#ff0000;stroke:#ff0000;stroke-width:1.5;" x="294.637812" xlink:href="#m343b803e2e" y="52.489375"/>
     </g>
    </g>
    <g id="text_17">
     <!-- class 1, train -->
     <defs>
      <path d="M 12.40625 8.296875 
L 28.515625 8.296875 
L 28.515625 63.921875 
L 10.984375 60.40625 
L 10.984375 69.390625 
L 28.421875 72.90625 
L 38.28125 72.90625 
L 38.28125 8.296875 
L 54.390625 8.296875 
L 54.390625 0 
L 12.40625 0 
z
" id="DejaVuSans-31"/>
     </defs>
     <g transform="translate(312.637812 55.114375)scale(0.1 -0.1)">
      <use xlink:href="#DejaVuSans-63"/>
      <use x="54.980469" xlink:href="#DejaVuSans-6c"/>
      <use x="82.763672" xlink:href="#DejaVuSans-61"/>
      <use x="144.042969" xlink:href="#DejaVuSans-73"/>
      <use x="196.142578" xlink:href="#DejaVuSans-73"/>
      <use x="248.242188" xlink:href="#DejaVuSans-20"/>
      <use x="280.029297" xlink:href="#DejaVuSans-31"/>
      <use x="343.652344" xlink:href="#DejaVuSans-2c"/>
      <use x="375.439453" xlink:href="#DejaVuSans-20"/>
      <use x="407.226562" xlink:href="#DejaVuSans-74"/>
      <use x="446.435547" xlink:href="#DejaVuSans-72"/>
      <use x="487.548828" xlink:href="#DejaVuSans-61"/>
      <use x="548.828125" xlink:href="#DejaVuSans-69"/>
      <use x="576.611328" xlink:href="#DejaVuSans-6e"/>
     </g>
    </g>
    <g id="PathCollection_7">
     <g>
      <use style="fill:#0000ff;stroke:#0000ff;" x="294.637812" xlink:href="#m65e362f99e" y="67.1675"/>
     </g>
    </g>
    <g id="text_18">
     <!-- class 0, test -->
     <g transform="translate(312.637812 69.7925)scale(0.1 -0.1)">
      <use xlink:href="#DejaVuSans-63"/>
      <use x="54.980469" xlink:href="#DejaVuSans-6c"/>
      <use x="82.763672" xlink:href="#DejaVuSans-61"/>
      <use x="144.042969" xlink:href="#DejaVuSans-73"/>
      <use x="196.142578" xlink:href="#DejaVuSans-73"/>
      <use x="248.242188" xlink:href="#DejaVuSans-20"/>
      <use x="280.029297" xlink:href="#DejaVuSans-30"/>
      <use x="343.652344" xlink:href="#DejaVuSans-2c"/>
      <use x="375.439453" xlink:href="#DejaVuSans-20"/>
      <use x="407.226562" xlink:href="#DejaVuSans-74"/>
      <use x="446.435547" xlink:href="#DejaVuSans-65"/>
      <use x="507.958984" xlink:href="#DejaVuSans-73"/>
      <use x="560.058594" xlink:href="#DejaVuSans-74"/>
     </g>
    </g>
    <g id="PathCollection_8">
     <g>
      <use style="fill:#ff0000;stroke:#ff0000;" x="294.637812" xlink:href="#md44330ba38" y="81.845625"/>
     </g>
    </g>
    <g id="text_19">
     <!-- class 1, test -->
     <g transform="translate(312.637812 84.470625)scale(0.1 -0.1)">
      <use xlink:href="#DejaVuSans-63"/>
      <use x="54.980469" xlink:href="#DejaVuSans-6c"/>
      <use x="82.763672" xlink:href="#DejaVuSans-61"/>
      <use x="144.042969" xlink:href="#DejaVuSans-73"/>
      <use x="196.142578" xlink:href="#DejaVuSans-73"/>
      <use x="248.242188" xlink:href="#DejaVuSans-20"/>
      <use x="280.029297" xlink:href="#DejaVuSans-31"/>
      <use x="343.652344" xlink:href="#DejaVuSans-2c"/>
      <use x="375.439453" xlink:href="#DejaVuSans-20"/>
      <use x="407.226562" xlink:href="#DejaVuSans-74"/>
      <use x="446.435547" xlink:href="#DejaVuSans-65"/>
      <use x="507.958984" xlink:href="#DejaVuSans-73"/>
      <use x="560.058594" xlink:href="#DejaVuSans-74"/>
     </g>
    </g>
   </g>
  </g>
 </g>
 <defs>
  <clipPath id="pbe350772ee">
   <rect height="217.44" width="334.8" x="50.833125" y="23.837812"/>
  </clipPath>
 </defs>
</svg>
