<?xml version="1.0" encoding="utf-8" standalone="no"?>
<!DOCTYPE svg PUBLIC "-//W3C//DTD SVG 1.1//EN"
  "http://www.w3.org/Graphics/SVG/1.1/DTD/svg11.dtd">
<!-- Created with matplotlib (http://matplotlib.org/) -->
<svg height="278.600938pt" version="1.1" viewBox="0 0 564.433125 278.600938" width="564.433125pt" xmlns="http://www.w3.org/2000/svg" xmlns:xlink="http://www.w3.org/1999/xlink">
 <defs>
  <style type="text/css">
*{stroke-linecap:butt;stroke-linejoin:round;}
  </style>
 </defs>
 <g id="figure_1">
  <g id="patch_1">
   <path d="M 0 278.600938 
L 564.433125 278.600938 
L 564.433125 0 
L 0 0 
z
" style="fill:none;"/>
  </g>
  <g id="axes_1">
   <g id="patch_2">
    <path d="M 50.833125 235.237813 
L 553.733125 235.237813 
L 553.733125 23.837812 
L 50.833125 23.837812 
z
" style="fill:#ffffff;"/>
   </g>
   <g id="PathCollection_1">
    <defs>
     <path d="M -1.936492 1.936492 
L 1.936492 -1.936492 
M -1.936492 -1.936492 
L 1.936492 1.936492 
" id="m7fdd91a117" style="stroke:#0000ff;stroke-width:1.5;"/>
    </defs>
    <g clip-path="url(#p41d49bd7dc)">
     <use style="fill:#0000ff;stroke:#0000ff;stroke-width:1.5;" x="377.630072" xlink:href="#m7fdd91a117" y="208.1352"/>
     <use style="fill:#0000ff;stroke:#0000ff;stroke-width:1.5;" x="273.81824" xlink:href="#m7fdd91a117" y="208.1352"/>
     <use style="fill:#0000ff;stroke:#0000ff;stroke-width:1.5;" x="354.619775" xlink:href="#m7fdd91a117" y="208.1352"/>
     <use style="fill:#0000ff;stroke:#0000ff;stroke-width:1.5;" x="453.69019" xlink:href="#m7fdd91a117" y="208.1352"/>
     <use style="fill:#0000ff;stroke:#0000ff;stroke-width:1.5;" x="379.675438" xlink:href="#m7fdd91a117" y="208.1352"/>
     <use style="fill:#0000ff;stroke:#0000ff;stroke-width:1.5;" x="409.614459" xlink:href="#m7fdd91a117" y="208.1352"/>
     <use style="fill:#0000ff;stroke:#0000ff;stroke-width:1.5;" x="310.845339" xlink:href="#m7fdd91a117" y="208.1352"/>
     <use style="fill:#0000ff;stroke:#0000ff;stroke-width:1.5;" x="359.441973" xlink:href="#m7fdd91a117" y="208.1352"/>
     <use style="fill:#0000ff;stroke:#0000ff;stroke-width:1.5;" x="339.884087" xlink:href="#m7fdd91a117" y="208.1352"/>
     <use style="fill:#0000ff;stroke:#0000ff;stroke-width:1.5;" x="416.912293" xlink:href="#m7fdd91a117" y="208.1352"/>
    </g>
   </g>
   <g id="PathCollection_2">
    <defs>
     <path d="M -1.936492 1.936492 
L 1.936492 -1.936492 
M -1.936492 -1.936492 
L 1.936492 1.936492 
" id="m5395bc66af" style="stroke:#ff0000;stroke-width:1.5;"/>
    </defs>
    <g clip-path="url(#p41d49bd7dc)">
     <use style="fill:#ff0000;stroke:#ff0000;stroke-width:1.5;" x="251.455826" xlink:href="#m5395bc66af" y="51.122493"/>
     <use style="fill:#ff0000;stroke:#ff0000;stroke-width:1.5;" x="174.065053" xlink:href="#m5395bc66af" y="51.122493"/>
     <use style="fill:#ff0000;stroke:#ff0000;stroke-width:1.5;" x="308.062642" xlink:href="#m5395bc66af" y="51.122493"/>
     <use style="fill:#ff0000;stroke:#ff0000;stroke-width:1.5;" x="330.706919" xlink:href="#m5395bc66af" y="51.122493"/>
     <use style="fill:#ff0000;stroke:#ff0000;stroke-width:1.5;" x="353.315747" xlink:href="#m5395bc66af" y="51.122493"/>
     <use style="fill:#ff0000;stroke:#ff0000;stroke-width:1.5;" x="246.841494" xlink:href="#m5395bc66af" y="51.122493"/>
     <use style="fill:#ff0000;stroke:#ff0000;stroke-width:1.5;" x="169.428964" xlink:href="#m5395bc66af" y="51.122493"/>
     <use style="fill:#ff0000;stroke:#ff0000;stroke-width:1.5;" x="89.121695" xlink:href="#m5395bc66af" y="51.122493"/>
     <use style="fill:#ff0000;stroke:#ff0000;stroke-width:1.5;" x="140.406156" xlink:href="#m5395bc66af" y="51.122493"/>
     <use style="fill:#ff0000;stroke:#ff0000;stroke-width:1.5;" x="239.071963" xlink:href="#m5395bc66af" y="51.122493"/>
    </g>
   </g>
   <g id="PathCollection_3">
    <defs>
     <path d="M 0 2.236068 
C 0.593012 2.236068 1.161816 2.000462 1.581139 1.581139 
C 2.000462 1.161816 2.236068 0.593012 2.236068 0 
C 2.236068 -0.593012 2.000462 -1.161816 1.581139 -1.581139 
C 1.161816 -2.000462 0.593012 -2.236068 0 -2.236068 
C -0.593012 -2.236068 -1.161816 -2.000462 -1.581139 -1.581139 
C -2.000462 -1.161816 -2.236068 -0.593012 -2.236068 0 
C -2.236068 0.593012 -2.000462 1.161816 -1.581139 1.581139 
C -1.161816 2.000462 -0.593012 2.236068 0 2.236068 
z
" id="m8a61aea064" style="stroke:#0000ff;"/>
    </defs>
    <g clip-path="url(#p41d49bd7dc)">
     <use style="fill:#0000ff;stroke:#0000ff;" x="430.548236" xlink:href="#m8a61aea064" y="223.836471"/>
     <use style="fill:#0000ff;stroke:#0000ff;" x="241.278719" xlink:href="#m8a61aea064" y="223.836471"/>
     <use style="fill:#0000ff;stroke:#0000ff;" x="418.842764" xlink:href="#m8a61aea064" y="223.836471"/>
     <use style="fill:#0000ff;stroke:#0000ff;" x="403.984494" xlink:href="#m8a61aea064" y="223.836471"/>
     <use style="fill:#0000ff;stroke:#0000ff;" x="514.529247" xlink:href="#m8a61aea064" y="223.836471"/>
     <use style="fill:#0000ff;stroke:#0000ff;" x="480.420152" xlink:href="#m8a61aea064" y="223.836471"/>
     <use style="fill:#0000ff;stroke:#0000ff;" x="374.194669" xlink:href="#m8a61aea064" y="223.836471"/>
    </g>
   </g>
   <g id="PathCollection_4">
    <defs>
     <path d="M 0 2.236068 
C 0.593012 2.236068 1.161816 2.000462 1.581139 1.581139 
C 2.000462 1.161816 2.236068 0.593012 2.236068 0 
C 2.236068 -0.593012 2.000462 -1.161816 1.581139 -1.581139 
C 1.161816 -2.000462 0.593012 -2.236068 0 -2.236068 
C -0.593012 -2.236068 -1.161816 -2.000462 -1.581139 -1.581139 
C -2.000462 -1.161816 -2.236068 -0.593012 -2.236068 0 
C -2.236068 0.593012 -2.000462 1.161816 -1.581139 1.581139 
C -1.161816 2.000462 -0.593012 2.236068 0 2.236068 
z
" id="m6ae39d19ce" style="stroke:#ff0000;"/>
    </defs>
    <g clip-path="url(#p41d49bd7dc)">
     <use style="fill:#ff0000;stroke:#ff0000;" x="157.31436" xlink:href="#m6ae39d19ce" y="35.421223"/>
     <use style="fill:#ff0000;stroke:#ff0000;" x="342.591322" xlink:href="#m6ae39d19ce" y="35.421223"/>
     <use style="fill:#ff0000;stroke:#ff0000;" x="283.997616" xlink:href="#m6ae39d19ce" y="35.421223"/>
     <use style="fill:#ff0000;stroke:#ff0000;" x="299.92652" xlink:href="#m6ae39d19ce" y="35.421223"/>
     <use style="fill:#ff0000;stroke:#ff0000;" x="278.220056" xlink:href="#m6ae39d19ce" y="35.421223"/>
     <use style="fill:#ff0000;stroke:#ff0000;" x="218.000522" xlink:href="#m6ae39d19ce" y="35.421223"/>
     <use style="fill:#ff0000;stroke:#ff0000;" x="269.709931" xlink:href="#m6ae39d19ce" y="35.421223"/>
     <use style="fill:#ff0000;stroke:#ff0000;" x="378.895925" xlink:href="#m6ae39d19ce" y="35.421223"/>
     <use style="fill:#ff0000;stroke:#ff0000;" x="178.917619" xlink:href="#m6ae39d19ce" y="35.421223"/>
     <use style="fill:#ff0000;stroke:#ff0000;" x="197.973791" xlink:href="#m6ae39d19ce" y="35.421223"/>
     <use style="fill:#ff0000;stroke:#ff0000;" x="233.016797" xlink:href="#m6ae39d19ce" y="35.421223"/>
     <use style="fill:#ff0000;stroke:#ff0000;" x="343.698418" xlink:href="#m6ae39d19ce" y="35.421223"/>
     <use style="fill:#ff0000;stroke:#ff0000;" x="237.019376" xlink:href="#m6ae39d19ce" y="35.421223"/>
    </g>
   </g>
   <g id="matplotlib.axis_1">
    <g id="xtick_1">
     <g id="line2d_1">
      <defs>
       <path d="M 0 0 
L 0 3.5 
" id="mfec8aa8634" style="stroke:#000000;stroke-width:0.8;"/>
      </defs>
      <g>
       <use style="stroke:#000000;stroke-width:0.8;" x="108.860048" xlink:href="#mfec8aa8634" y="235.237813"/>
      </g>
     </g>
     <g id="text_1">
      <!-- −2 -->
      <defs>
       <path d="M 10.59375 35.5 
L 73.1875 35.5 
L 73.1875 27.203125 
L 10.59375 27.203125 
z
" id="DejaVuSans-2212"/>
       <path d="M 19.1875 8.296875 
L 53.609375 8.296875 
L 53.609375 0 
L 7.328125 0 
L 7.328125 8.296875 
Q 12.9375 14.109375 22.625 23.890625 
Q 32.328125 33.6875 34.8125 36.53125 
Q 39.546875 41.84375 41.421875 45.53125 
Q 43.3125 49.21875 43.3125 52.78125 
Q 43.3125 58.59375 39.234375 62.25 
Q 35.15625 65.921875 28.609375 65.921875 
Q 23.96875 65.921875 18.8125 64.3125 
Q 13.671875 62.703125 7.8125 59.421875 
L 7.8125 69.390625 
Q 13.765625 71.78125 18.9375 73 
Q 24.125 74.21875 28.421875 74.21875 
Q 39.75 74.21875 46.484375 68.546875 
Q 53.21875 62.890625 53.21875 53.421875 
Q 53.21875 48.921875 51.53125 44.890625 
Q 49.859375 40.875 45.40625 35.40625 
Q 44.1875 33.984375 37.640625 27.21875 
Q 31.109375 20.453125 19.1875 8.296875 
z
" id="DejaVuSans-32"/>
      </defs>
      <g transform="translate(100.014736 251.355938)scale(0.12 -0.12)">
       <use xlink:href="#DejaVuSans-2212"/>
       <use x="83.789062" xlink:href="#DejaVuSans-32"/>
      </g>
     </g>
    </g>
    <g id="xtick_2">
     <g id="line2d_2">
      <g>
       <use style="stroke:#000000;stroke-width:0.8;" x="179.195712" xlink:href="#mfec8aa8634" y="235.237813"/>
      </g>
     </g>
     <g id="text_2">
      <!-- −1 -->
      <defs>
       <path d="M 12.40625 8.296875 
L 28.515625 8.296875 
L 28.515625 63.921875 
L 10.984375 60.40625 
L 10.984375 69.390625 
L 28.421875 72.90625 
L 38.28125 72.90625 
L 38.28125 8.296875 
L 54.390625 8.296875 
L 54.390625 0 
L 12.40625 0 
z
" id="DejaVuSans-31"/>
      </defs>
      <g transform="translate(170.3504 251.355938)scale(0.12 -0.12)">
       <use xlink:href="#DejaVuSans-2212"/>
       <use x="83.789062" xlink:href="#DejaVuSans-31"/>
      </g>
     </g>
    </g>
    <g id="xtick_3">
     <g id="line2d_3">
      <g>
       <use style="stroke:#000000;stroke-width:0.8;" x="249.531377" xlink:href="#mfec8aa8634" y="235.237813"/>
      </g>
     </g>
     <g id="text_3">
      <!-- 0 -->
      <defs>
       <path d="M 31.78125 66.40625 
Q 24.171875 66.40625 20.328125 58.90625 
Q 16.5 51.421875 16.5 36.375 
Q 16.5 21.390625 20.328125 13.890625 
Q 24.171875 6.390625 31.78125 6.390625 
Q 39.453125 6.390625 43.28125 13.890625 
Q 47.125 21.390625 47.125 36.375 
Q 47.125 51.421875 43.28125 58.90625 
Q 39.453125 66.40625 31.78125 66.40625 
z
M 31.78125 74.21875 
Q 44.046875 74.21875 50.515625 64.515625 
Q 56.984375 54.828125 56.984375 36.375 
Q 56.984375 17.96875 50.515625 8.265625 
Q 44.046875 -1.421875 31.78125 -1.421875 
Q 19.53125 -1.421875 13.0625 8.265625 
Q 6.59375 17.96875 6.59375 36.375 
Q 6.59375 54.828125 13.0625 64.515625 
Q 19.53125 74.21875 31.78125 74.21875 
z
" id="DejaVuSans-30"/>
      </defs>
      <g transform="translate(245.713877 251.355938)scale(0.12 -0.12)">
       <use xlink:href="#DejaVuSans-30"/>
      </g>
     </g>
    </g>
    <g id="xtick_4">
     <g id="line2d_4">
      <g>
       <use style="stroke:#000000;stroke-width:0.8;" x="319.867041" xlink:href="#mfec8aa8634" y="235.237813"/>
      </g>
     </g>
     <g id="text_4">
      <!-- 1 -->
      <g transform="translate(316.049541 251.355938)scale(0.12 -0.12)">
       <use xlink:href="#DejaVuSans-31"/>
      </g>
     </g>
    </g>
    <g id="xtick_5">
     <g id="line2d_5">
      <g>
       <use style="stroke:#000000;stroke-width:0.8;" x="390.202705" xlink:href="#mfec8aa8634" y="235.237813"/>
      </g>
     </g>
     <g id="text_5">
      <!-- 2 -->
      <g transform="translate(386.385205 251.355938)scale(0.12 -0.12)">
       <use xlink:href="#DejaVuSans-32"/>
      </g>
     </g>
    </g>
    <g id="xtick_6">
     <g id="line2d_6">
      <g>
       <use style="stroke:#000000;stroke-width:0.8;" x="460.53837" xlink:href="#mfec8aa8634" y="235.237813"/>
      </g>
     </g>
     <g id="text_6">
      <!-- 3 -->
      <defs>
       <path d="M 40.578125 39.3125 
Q 47.65625 37.796875 51.625 33 
Q 55.609375 28.21875 55.609375 21.1875 
Q 55.609375 10.40625 48.1875 4.484375 
Q 40.765625 -1.421875 27.09375 -1.421875 
Q 22.515625 -1.421875 17.65625 -0.515625 
Q 12.796875 0.390625 7.625 2.203125 
L 7.625 11.71875 
Q 11.71875 9.328125 16.59375 8.109375 
Q 21.484375 6.890625 26.8125 6.890625 
Q 36.078125 6.890625 40.9375 10.546875 
Q 45.796875 14.203125 45.796875 21.1875 
Q 45.796875 27.640625 41.28125 31.265625 
Q 36.765625 34.90625 28.71875 34.90625 
L 20.21875 34.90625 
L 20.21875 43.015625 
L 29.109375 43.015625 
Q 36.375 43.015625 40.234375 45.921875 
Q 44.09375 48.828125 44.09375 54.296875 
Q 44.09375 59.90625 40.109375 62.90625 
Q 36.140625 65.921875 28.71875 65.921875 
Q 24.65625 65.921875 20.015625 65.03125 
Q 15.375 64.15625 9.8125 62.3125 
L 9.8125 71.09375 
Q 15.4375 72.65625 20.34375 73.4375 
Q 25.25 74.21875 29.59375 74.21875 
Q 40.828125 74.21875 47.359375 69.109375 
Q 53.90625 64.015625 53.90625 55.328125 
Q 53.90625 49.265625 50.4375 45.09375 
Q 46.96875 40.921875 40.578125 39.3125 
z
" id="DejaVuSans-33"/>
      </defs>
      <g transform="translate(456.72087 251.355938)scale(0.12 -0.12)">
       <use xlink:href="#DejaVuSans-33"/>
      </g>
     </g>
    </g>
    <g id="xtick_7">
     <g id="line2d_7">
      <g>
       <use style="stroke:#000000;stroke-width:0.8;" x="530.874034" xlink:href="#mfec8aa8634" y="235.237813"/>
      </g>
     </g>
     <g id="text_7">
      <!-- 4 -->
      <defs>
       <path d="M 37.796875 64.3125 
L 12.890625 25.390625 
L 37.796875 25.390625 
z
M 35.203125 72.90625 
L 47.609375 72.90625 
L 47.609375 25.390625 
L 58.015625 25.390625 
L 58.015625 17.1875 
L 47.609375 17.1875 
L 47.609375 0 
L 37.796875 0 
L 37.796875 17.1875 
L 4.890625 17.1875 
L 4.890625 26.703125 
z
" id="DejaVuSans-34"/>
      </defs>
      <g transform="translate(527.056534 251.355938)scale(0.12 -0.12)">
       <use xlink:href="#DejaVuSans-34"/>
      </g>
     </g>
    </g>
    <g id="text_8">
     <!-- $x$ -->
     <defs>
      <path d="M 24.296875 35.5 
L 25.5 29.796875 
Q 30.796875 37.90625 34.046875 41 
Q 37.296875 44.09375 40.59375 44.09375 
Q 42.40625 44.09375 43.546875 43.046875 
Q 44.703125 42 44.703125 40.390625 
Q 44.703125 38.796875 43.75 37.796875 
Q 42.796875 36.796875 41.296875 36.796875 
Q 40.40625 36.796875 38.90625 37.640625 
Q 37.40625 38.5 36.09375 38.5 
Q 33.203125 38.5 26.296875 26.40625 
Q 26.296875 25.09375 27.09375 21.90625 
L 30.296875 8.5 
Q 31.296875 4.40625 33.296875 4.40625 
Q 34.90625 4.40625 38 8.40625 
Q 38.296875 8.796875 38.6875 9.34375 
Q 39.09375 9.90625 39.390625 10.34375 
Q 39.703125 10.796875 40.09375 11.203125 
L 41.59375 10.296875 
Q 37.296875 3.59375 34.796875 1.25 
Q 32.296875 -1.09375 29.40625 -1.09375 
Q 27 -1.09375 25.703125 0.40625 
Q 24.40625 1.90625 23.5 5.703125 
L 20.59375 17.59375 
L 11.796875 5.703125 
Q 8.703125 1.5 6.75 0.203125 
Q 4.796875 -1.09375 2.296875 -1.09375 
Q 0 -1.09375 -1.34375 0 
Q -2.703125 1.09375 -2.703125 3.09375 
Q -2.703125 4.59375 -1.75 5.640625 
Q -0.796875 6.703125 0.703125 6.703125 
Q 1.90625 6.703125 3.90625 5.59375 
Q 5.40625 4.703125 6.5 4.703125 
Q 8.203125 4.703125 11.59375 9.59375 
L 19.796875 21.203125 
L 17 33.59375 
Q 16 38 15.140625 39.203125 
Q 14.296875 40.40625 12.40625 40.40625 
Q 11.203125 40.40625 8.5 39.703125 
L 6.703125 39.203125 
L 6.40625 40.796875 
L 7.5 41.203125 
Q 15.5 44.09375 19.203125 44.09375 
Q 21.09375 44.09375 22.1875 42.296875 
Q 23.296875 40.5 24.296875 35.5 
z
" id="STIXGeneral-Italic-78"/>
     </defs>
     <g transform="translate(299.133125 268.489375)scale(0.14 -0.14)">
      <use transform="translate(0 0.90625)" xlink:href="#STIXGeneral-Italic-78"/>
     </g>
    </g>
   </g>
   <g id="matplotlib.axis_2">
    <g id="ytick_1">
     <g id="line2d_8">
      <defs>
       <path d="M 0 0 
L -3.5 0 
" id="mceb45081e4" style="stroke:#000000;stroke-width:0.8;"/>
      </defs>
      <g>
       <use style="stroke:#000000;stroke-width:0.8;" x="50.833125" xlink:href="#mceb45081e4" y="208.1352"/>
      </g>
     </g>
     <g id="text_9">
      <!-- 0.0 -->
      <defs>
       <path d="M 10.6875 12.40625 
L 21 12.40625 
L 21 0 
L 10.6875 0 
z
" id="DejaVuSans-2e"/>
      </defs>
      <g transform="translate(24.749375 212.694263)scale(0.12 -0.12)">
       <use xlink:href="#DejaVuSans-30"/>
       <use x="63.623047" xlink:href="#DejaVuSans-2e"/>
       <use x="95.410156" xlink:href="#DejaVuSans-30"/>
      </g>
     </g>
    </g>
    <g id="ytick_2">
     <g id="line2d_9">
      <g>
       <use style="stroke:#000000;stroke-width:0.8;" x="50.833125" xlink:href="#mceb45081e4" y="176.732659"/>
      </g>
     </g>
     <g id="text_10">
      <!-- 0.2 -->
      <g transform="translate(24.749375 181.291721)scale(0.12 -0.12)">
       <use xlink:href="#DejaVuSans-30"/>
       <use x="63.623047" xlink:href="#DejaVuSans-2e"/>
       <use x="95.410156" xlink:href="#DejaVuSans-32"/>
      </g>
     </g>
    </g>
    <g id="ytick_3">
     <g id="line2d_10">
      <g>
       <use style="stroke:#000000;stroke-width:0.8;" x="50.833125" xlink:href="#mceb45081e4" y="145.330117"/>
      </g>
     </g>
     <g id="text_11">
      <!-- 0.4 -->
      <g transform="translate(24.749375 149.88918)scale(0.12 -0.12)">
       <use xlink:href="#DejaVuSans-30"/>
       <use x="63.623047" xlink:href="#DejaVuSans-2e"/>
       <use x="95.410156" xlink:href="#DejaVuSans-34"/>
      </g>
     </g>
    </g>
    <g id="ytick_4">
     <g id="line2d_11">
      <g>
       <use style="stroke:#000000;stroke-width:0.8;" x="50.833125" xlink:href="#mceb45081e4" y="113.927576"/>
      </g>
     </g>
     <g id="text_12">
      <!-- 0.6 -->
      <defs>
       <path d="M 33.015625 40.375 
Q 26.375 40.375 22.484375 35.828125 
Q 18.609375 31.296875 18.609375 23.390625 
Q 18.609375 15.53125 22.484375 10.953125 
Q 26.375 6.390625 33.015625 6.390625 
Q 39.65625 6.390625 43.53125 10.953125 
Q 47.40625 15.53125 47.40625 23.390625 
Q 47.40625 31.296875 43.53125 35.828125 
Q 39.65625 40.375 33.015625 40.375 
z
M 52.59375 71.296875 
L 52.59375 62.3125 
Q 48.875 64.0625 45.09375 64.984375 
Q 41.3125 65.921875 37.59375 65.921875 
Q 27.828125 65.921875 22.671875 59.328125 
Q 17.53125 52.734375 16.796875 39.40625 
Q 19.671875 43.65625 24.015625 45.921875 
Q 28.375 48.1875 33.59375 48.1875 
Q 44.578125 48.1875 50.953125 41.515625 
Q 57.328125 34.859375 57.328125 23.390625 
Q 57.328125 12.15625 50.6875 5.359375 
Q 44.046875 -1.421875 33.015625 -1.421875 
Q 20.359375 -1.421875 13.671875 8.265625 
Q 6.984375 17.96875 6.984375 36.375 
Q 6.984375 53.65625 15.1875 63.9375 
Q 23.390625 74.21875 37.203125 74.21875 
Q 40.921875 74.21875 44.703125 73.484375 
Q 48.484375 72.75 52.59375 71.296875 
z
" id="DejaVuSans-36"/>
      </defs>
      <g transform="translate(24.749375 118.486638)scale(0.12 -0.12)">
       <use xlink:href="#DejaVuSans-30"/>
       <use x="63.623047" xlink:href="#DejaVuSans-2e"/>
       <use x="95.410156" xlink:href="#DejaVuSans-36"/>
      </g>
     </g>
    </g>
    <g id="ytick_5">
     <g id="line2d_12">
      <g>
       <use style="stroke:#000000;stroke-width:0.8;" x="50.833125" xlink:href="#mceb45081e4" y="82.525035"/>
      </g>
     </g>
     <g id="text_13">
      <!-- 0.8 -->
      <defs>
       <path d="M 31.78125 34.625 
Q 24.75 34.625 20.71875 30.859375 
Q 16.703125 27.09375 16.703125 20.515625 
Q 16.703125 13.921875 20.71875 10.15625 
Q 24.75 6.390625 31.78125 6.390625 
Q 38.8125 6.390625 42.859375 10.171875 
Q 46.921875 13.96875 46.921875 20.515625 
Q 46.921875 27.09375 42.890625 30.859375 
Q 38.875 34.625 31.78125 34.625 
z
M 21.921875 38.8125 
Q 15.578125 40.375 12.03125 44.71875 
Q 8.5 49.078125 8.5 55.328125 
Q 8.5 64.0625 14.71875 69.140625 
Q 20.953125 74.21875 31.78125 74.21875 
Q 42.671875 74.21875 48.875 69.140625 
Q 55.078125 64.0625 55.078125 55.328125 
Q 55.078125 49.078125 51.53125 44.71875 
Q 48 40.375 41.703125 38.8125 
Q 48.828125 37.15625 52.796875 32.3125 
Q 56.78125 27.484375 56.78125 20.515625 
Q 56.78125 9.90625 50.3125 4.234375 
Q 43.84375 -1.421875 31.78125 -1.421875 
Q 19.734375 -1.421875 13.25 4.234375 
Q 6.78125 9.90625 6.78125 20.515625 
Q 6.78125 27.484375 10.78125 32.3125 
Q 14.796875 37.15625 21.921875 38.8125 
z
M 18.3125 54.390625 
Q 18.3125 48.734375 21.84375 45.5625 
Q 25.390625 42.390625 31.78125 42.390625 
Q 38.140625 42.390625 41.71875 45.5625 
Q 45.3125 48.734375 45.3125 54.390625 
Q 45.3125 60.0625 41.71875 63.234375 
Q 38.140625 66.40625 31.78125 66.40625 
Q 25.390625 66.40625 21.84375 63.234375 
Q 18.3125 60.0625 18.3125 54.390625 
z
" id="DejaVuSans-38"/>
      </defs>
      <g transform="translate(24.749375 87.084097)scale(0.12 -0.12)">
       <use xlink:href="#DejaVuSans-30"/>
       <use x="63.623047" xlink:href="#DejaVuSans-2e"/>
       <use x="95.410156" xlink:href="#DejaVuSans-38"/>
      </g>
     </g>
    </g>
    <g id="ytick_6">
     <g id="line2d_13">
      <g>
       <use style="stroke:#000000;stroke-width:0.8;" x="50.833125" xlink:href="#mceb45081e4" y="51.122493"/>
      </g>
     </g>
     <g id="text_14">
      <!-- 1.0 -->
      <g transform="translate(24.749375 55.681556)scale(0.12 -0.12)">
       <use xlink:href="#DejaVuSans-31"/>
       <use x="63.623047" xlink:href="#DejaVuSans-2e"/>
       <use x="95.410156" xlink:href="#DejaVuSans-30"/>
      </g>
     </g>
    </g>
    <g id="text_15">
     <!-- $p(y = 1|\mathbf{w}, x)$ -->
     <defs>
      <path d="M 21.5 42.796875 
L 18.59375 32.796875 
Q 26.09375 44.09375 35.703125 44.09375 
Q 41.203125 44.09375 44.203125 40.796875 
Q 47.203125 37.5 47.203125 31.59375 
Q 47.203125 19.296875 37.84375 9.09375 
Q 28.5 -1.09375 17.5 -1.09375 
Q 13.90625 -1.09375 10.59375 0.59375 
Q 6.59375 -15.90625 6.59375 -16 
Q 6.59375 -17.59375 7.9375 -18.25 
Q 9.296875 -18.90625 12.796875 -18.90625 
L 12.796875 -20.5 
L -7.5 -20.5 
L -7.5 -18.90625 
Q -4.296875 -18.796875 -2.9375 -17.5 
Q -1.59375 -16.203125 -0.703125 -12.59375 
L 10.796875 30.59375 
Q 12.40625 36.40625 12.40625 37.703125 
Q 12.40625 40.40625 8 40.40625 
L 5.796875 40.40625 
L 5.59375 41.90625 
L 21.203125 44.09375 
Q 21.703125 44.09375 21.703125 43.703125 
Q 21.59375 43.203125 21.5 42.796875 
z
M 38.203125 31.296875 
Q 38.203125 35.703125 36.75 37.75 
Q 35.296875 39.796875 32 39.796875 
Q 28.09375 39.796875 24.1875 36.390625 
Q 20.296875 33 18.5 28.40625 
Q 16.296875 22.703125 14.140625 14.890625 
Q 12 7.09375 12 4.59375 
Q 12 2.90625 13.34375 1.84375 
Q 14.703125 0.796875 16.796875 0.796875 
Q 24.59375 0.796875 31.296875 10.296875 
Q 38.203125 19.90625 38.203125 31.296875 
z
" id="STIXGeneral-Italic-70"/>
      <path d="M 30.40625 -16.09375 
L 29.203125 -17.703125 
Q 17.59375 -11.09375 11.1875 0.5 
Q 4.796875 12.09375 4.796875 25.203125 
Q 4.796875 52.90625 29.5 67.59375 
L 30.40625 66 
Q 20.203125 57.296875 16.796875 48.84375 
Q 13.40625 40.40625 13.40625 25.5 
Q 13.40625 10.703125 16.90625 1.5 
Q 20.40625 -7.703125 30.40625 -16.09375 
z
" id="STIXGeneral-Regular-28"/>
      <path d="M 24.296875 18.59375 
L 26.40625 7.59375 
Q 33.09375 18.59375 35.84375 24.34375 
Q 38.59375 30.09375 38.59375 33.296875 
Q 38.59375 34.90625 36 36.5 
Q 33.40625 38.203125 33.40625 40.40625 
Q 33.40625 42 34.546875 43.046875 
Q 35.703125 44.09375 37.40625 44.09375 
Q 39.59375 44.09375 41.09375 42.5 
Q 42.59375 40.90625 42.59375 38.59375 
Q 42.59375 29.90625 29.5 8.09375 
Q 21.703125 -4.796875 14.34375 -12.6875 
Q 7 -20.59375 2.703125 -20.59375 
Q 0.40625 -20.59375 -1 -19.390625 
Q -2.40625 -18.203125 -2.40625 -16.296875 
Q -2.40625 -14.59375 -1.25 -13.4375 
Q -0.09375 -12.296875 1.5 -12.296875 
Q 3.40625 -12.296875 4.90625 -13.6875 
Q 6.40625 -15.09375 7.59375 -15.09375 
Q 9.40625 -15.09375 12.40625 -11.796875 
Q 13.703125 -10.5 16.25 -7.140625 
Q 18.796875 -3.796875 19.5 -2.703125 
Q 20.5 -0.703125 20.5 0.796875 
Q 20.5 3.796875 17.390625 16.34375 
Q 14.296875 28.90625 12.296875 34 
Q 10.90625 37.703125 9.25 39.046875 
Q 7.59375 40.40625 4.59375 40.40625 
Q 3 40.40625 1.5 40 
L 1.5 41.703125 
Q 3.703125 42.09375 4.703125 42.296875 
Q 8.796875 43.09375 15.40625 44.09375 
L 15.796875 44.09375 
Q 16.90625 44.09375 19.953125 34.796875 
Q 23 25.5 24.296875 18.59375 
z
" id="STIXGeneral-Italic-79"/>
      <path d="M 63.703125 32 
L 4.796875 32 
L 4.796875 38.59375 
L 63.703125 38.59375 
z
M 63.703125 12 
L 4.796875 12 
L 4.796875 18.59375 
L 63.703125 18.59375 
z
" id="STIXGeneral-Regular-3d"/>
      <path d="M 39.40625 0 
L 11.796875 0 
L 11.796875 1.5 
Q 17.296875 1.796875 19.296875 3.546875 
Q 21.296875 5.296875 21.296875 9.5 
L 21.296875 54.40625 
Q 21.296875 59.296875 18.296875 59.296875 
Q 16.90625 59.296875 13.796875 58.09375 
L 11.09375 57.09375 
L 11.09375 58.5 
L 29 67.59375 
L 29.90625 67.296875 
L 29.90625 7.59375 
Q 29.90625 4.296875 31.90625 2.890625 
Q 33.90625 1.5 39.40625 1.5 
z
" id="STIXGeneral-Regular-31"/>
      <path d="M 13.296875 -1.40625 
L 6.703125 -1.40625 
L 6.703125 67.59375 
L 13.296875 67.59375 
z
" id="STIXGeneral-Regular-7c"/>
      <path d="M 70.703125 46.09375 
L 70.703125 43.703125 
Q 68.796875 43.296875 67.75 42.296875 
Q 66.703125 41.296875 65.703125 38.703125 
L 50.203125 -1.40625 
L 47.90625 -1.40625 
L 37.703125 29.59375 
L 25.203125 -1.40625 
L 22.796875 -1.40625 
L 8 36 
Q 6.09375 40.703125 5.140625 42 
Q 4.203125 43.296875 2.296875 43.703125 
L 2.296875 46.09375 
L 24.5 46.09375 
L 24.5 43.703125 
Q 20.703125 43.203125 20.703125 40.90625 
Q 20.703125 39.703125 24.59375 29.40625 
L 29.09375 17.59375 
L 35.90625 34.703125 
Q 35.5 35.90625 35.296875 36.59375 
Q 33.90625 41.5 33.09375 42.453125 
Q 32.296875 43.40625 29.40625 43.703125 
L 29.40625 46.09375 
L 52.796875 46.09375 
L 52.796875 43.703125 
Q 50 43.5 49 43 
Q 48 42.5 48 41.296875 
Q 48 39.90625 50.703125 30.703125 
Q 53 22.796875 54.09375 18 
L 57.59375 27.40625 
Q 62 39.203125 62 40.203125 
Q 62 41.90625 61 42.65625 
Q 60 43.40625 57.203125 43.703125 
L 57.203125 46.09375 
z
" id="STIXGeneral-Bold-77"/>
      <path d="M 8.296875 -14.09375 
L 7.296875 -12.203125 
Q 15.59375 -6.59375 15.59375 -1.5 
Q 15.59375 -0.203125 14.203125 -0.203125 
Q 13.796875 -0.203125 12.84375 -0.390625 
Q 11.90625 -0.59375 11.296875 -0.59375 
Q 5.5 -0.59375 5.5 4.5 
Q 5.5 7.09375 7.140625 8.640625 
Q 8.796875 10.203125 11.5 10.203125 
Q 14.90625 10.203125 17.203125 7.75 
Q 19.5 5.296875 19.5 1.5 
Q 19.5 -3.09375 16.453125 -7.390625 
Q 13.40625 -11.703125 8.296875 -14.09375 
z
" id="STIXGeneral-Regular-2c"/>
      <path d="M 2.90625 66 
L 4.09375 67.59375 
Q 15.5 60.796875 22 49.1875 
Q 28.5 37.59375 28.5 24.703125 
Q 28.5 -2.59375 3.796875 -17.703125 
L 2.90625 -16.09375 
Q 13.203125 -7.59375 16.546875 0.84375 
Q 19.90625 9.296875 19.90625 24.40625 
Q 19.90625 39.59375 16.546875 48.75 
Q 13.203125 57.90625 2.90625 66 
z
" id="STIXGeneral-Regular-29"/>
     </defs>
     <g transform="translate(17.809375 163.487813)rotate(-90)scale(0.14 -0.14)">
      <use transform="translate(0 0.40625)" xlink:href="#STIXGeneral-Italic-70"/>
      <use transform="translate(50.399994 0.40625)" xlink:href="#STIXGeneral-Regular-28"/>
      <use transform="translate(83.699982 0.40625)" xlink:href="#STIXGeneral-Italic-79"/>
      <use transform="translate(142.539972 0.40625)" xlink:href="#STIXGeneral-Regular-3d"/>
      <use transform="translate(225.479953 0.40625)" xlink:href="#STIXGeneral-Regular-31"/>
      <use transform="translate(275.479938 0.40625)" xlink:href="#STIXGeneral-Regular-7c"/>
      <use transform="translate(295.479922 0.40625)" xlink:href="#STIXGeneral-Bold-77"/>
      <use transform="translate(367.679904 0.40625)" xlink:href="#STIXGeneral-Regular-2c"/>
      <use transform="translate(407.119885 0.40625)" xlink:href="#STIXGeneral-Italic-78"/>
      <use transform="translate(451.519879 0.40625)" xlink:href="#STIXGeneral-Regular-29"/>
     </g>
    </g>
   </g>
   <g id="patch_3">
    <path d="M 50.833125 235.237813 
L 50.833125 23.837812 
" style="fill:none;stroke:#000000;stroke-linecap:square;stroke-linejoin:miter;stroke-width:0.8;"/>
   </g>
   <g id="patch_4">
    <path d="M 553.733125 235.237813 
L 553.733125 23.837812 
" style="fill:none;stroke:#000000;stroke-linecap:square;stroke-linejoin:miter;stroke-width:0.8;"/>
   </g>
   <g id="patch_5">
    <path d="M 50.833125 235.237813 
L 553.733125 235.237813 
" style="fill:none;stroke:#000000;stroke-linecap:square;stroke-linejoin:miter;stroke-width:0.8;"/>
   </g>
   <g id="patch_6">
    <path d="M 50.833125 23.837812 
L 553.733125 23.837812 
" style="fill:none;stroke:#000000;stroke-linecap:square;stroke-linejoin:miter;stroke-width:0.8;"/>
   </g>
   <g id="line2d_14">
    <path clip-path="url(#p41d49bd7dc)" d="M 73.692216 69.939031 
L 74.608412 65.202388 
L 75.524608 61.338547 
L 76.440804 58.336598 
L 77.357 56.105126 
L 78.273196 54.508845 
L 79.189392 53.402685 
L 80.105588 52.654997 
L 81.021784 52.158634 
L 82.854176 51.620432 
L 84.686568 51.392072 
L 88.351352 51.262008 
L 92.932333 51.348864 
L 94.764725 51.517557 
L 96.597117 51.914127 
L 97.513313 52.280235 
L 98.429509 52.834371 
L 99.345705 53.66136 
L 100.261901 54.870282 
L 101.178097 56.589498 
L 102.094293 58.951913 
L 103.010489 62.068917 
L 103.926685 65.996494 
L 104.842881 70.703511 
L 106.675273 81.827524 
L 108.507665 93.482213 
L 110.340057 103.509965 
L 111.256253 107.442483 
L 112.172449 110.519951 
L 113.088645 112.696272 
L 114.004841 113.950856 
L 114.921037 114.276541 
L 115.837233 113.672306 
L 116.753429 112.14135 
L 117.669625 109.694612 
L 118.585821 106.35953 
L 119.502017 102.19319 
L 121.334409 91.833104 
L 124.999194 69.302096 
L 125.91539 64.820249 
L 126.831586 61.132534 
L 127.747782 58.242532 
L 128.663978 56.075653 
L 129.580174 54.512362 
L 130.49637 53.420131 
L 131.412566 52.676067 
L 132.328762 52.178479 
L 134.161154 51.633899 
L 135.993546 51.39996 
L 139.65833 51.262512 
L 144.23931 51.318193 
L 146.987898 51.508186 
L 149.736486 51.956508 
L 154.317466 53.02539 
L 156.149858 53.060418 
L 157.982251 52.729806 
L 162.563231 51.608625 
L 165.311819 51.314929 
L 168.976603 51.196567 
L 175.389975 51.220986 
L 178.138563 51.371017 
L 179.970955 51.667709 
L 180.887151 51.952637 
L 181.803347 52.396319 
L 182.719543 53.077108 
L 183.635739 54.09958 
L 184.551935 55.592541 
L 185.468131 57.698055 
L 186.384327 60.548771 
L 187.300523 64.235136 
L 188.216719 68.770698 
L 190.049112 79.945936 
L 193.713896 104.062494 
L 195.546288 113.643261 
L 196.462484 117.515071 
L 197.37868 120.794255 
L 198.294876 123.527472 
L 199.211072 125.772681 
L 200.127268 127.591132 
L 201.043464 129.042121 
L 201.95966 130.179816 
L 202.875856 131.051503 
L 203.792052 131.696721 
L 204.708248 132.146952 
L 205.624444 132.425598 
L 206.54064 132.548106 
L 207.456836 132.522129 
L 208.373032 132.34769 
L 209.289228 132.017297 
L 210.205424 131.516039 
L 211.12162 130.821675 
L 212.037816 129.904763 
L 212.954012 128.728936 
L 213.870208 127.251454 
L 214.786404 125.424225 
L 215.7026 123.195601 
L 216.618796 120.513325 
L 217.534992 117.329092 
L 218.451188 113.605202 
L 219.367384 109.323574 
L 221.199776 99.180157 
L 225.780757 70.676372 
L 226.696953 66.056761 
L 227.613149 62.178811 
L 228.529345 59.068928 
L 229.445541 56.680913 
L 230.361737 54.919008 
L 231.277933 53.664611 
L 232.194129 52.798707 
L 233.110325 52.216227 
L 234.026521 51.832417 
L 235.858913 51.423528 
L 238.607501 51.21471 
L 244.104677 51.144716 
L 251.434245 51.208621 
L 253.266637 51.352474 
L 254.182834 51.531814 
L 255.09903 51.888977 
L 256.015226 52.623229 
L 256.931422 54.169058 
L 257.847618 57.455349 
L 258.763814 64.331108 
L 259.68001 77.838783 
L 260.596206 100.879599 
L 262.428598 161.837511 
L 263.344794 183.422897 
L 264.26099 195.801651 
L 265.177186 202.078933 
L 266.093382 205.109368 
L 267.009578 206.564158 
L 267.925774 207.275299 
L 268.84197 207.63368 
L 270.674362 207.921812 
L 273.42295 208.021671 
L 277.087734 207.945182 
L 278.920126 207.688143 
L 279.836322 207.340685 
L 280.752518 206.58163 
L 281.668714 204.808359 
L 282.58491 200.423175 
L 283.501106 189.379501 
L 284.417302 163.952855 
L 286.249695 80.816838 
L 287.165891 60.296339 
L 288.082087 53.491628 
L 288.998283 51.678014 
L 289.914479 51.245593 
L 291.746871 51.128171 
L 305.489811 51.12762 
L 306.406007 51.173654 
L 307.322203 51.704769 
L 308.238399 57.875325 
L 309.154595 105.329663 
L 310.070791 184.041002 
L 310.986987 204.887278 
L 311.903183 207.627945 
L 312.819379 208.025363 
L 314.651771 208.117845 
L 318.316555 208.057135 
L 319.232752 207.850684 
L 320.148948 206.823741 
L 321.065144 201.290239 
L 321.98134 175.513809 
L 322.897536 114.955513 
L 323.813732 70.321698 
L 324.729928 56.407507 
L 325.646124 52.904947 
L 326.56232 51.944637 
L 327.478516 51.665423 
L 328.394712 51.643424 
L 329.310908 51.841308 
L 330.227104 52.501391 
L 331.1433 54.589982 
L 332.059496 61.537949 
L 332.975692 82.932803 
L 334.808084 171.757112 
L 335.72428 193.976647 
L 336.640476 201.985534 
L 337.556672 204.695563 
L 338.472868 205.477276 
L 339.389064 205.211974 
L 340.30526 203.572415 
L 341.221456 198.427131 
L 342.137652 182.760519 
L 343.053848 143.605398 
L 343.970044 91.768042 
L 344.88624 63.151509 
L 345.802436 54.40382 
L 346.718632 52.152611 
L 347.634828 51.546753 
L 348.551024 51.3739 
L 349.46722 51.351896 
L 350.383416 51.459275 
L 351.299613 51.931865 
L 352.215809 54.254127 
L 353.132005 68.70552 
L 354.964397 198.292306 
L 355.880593 207.490975 
L 356.796789 208.100464 
L 360.461573 208.135199 
L 382.450277 208.064755 
L 384.28267 207.883543 
L 386.115062 207.434276 
L 387.947454 206.573312 
L 389.779846 205.317252 
L 391.612238 204.00764 
L 392.528434 203.516035 
L 393.44463 203.229032 
L 394.360826 203.188603 
L 395.277022 203.398703 
L 396.193218 203.824153 
L 398.02561 205.046917 
L 399.858002 206.275265 
L 401.690394 207.156286 
L 403.522786 207.660026 
L 405.355178 207.908372 
L 409.019962 208.070828 
L 416.349531 208.085629 
L 420.014315 207.98055 
L 421.846707 207.803232 
L 423.679099 207.386438 
L 424.595295 207.012328 
L 425.511491 206.470371 
L 426.427687 205.712677 
L 427.343883 204.699021 
L 428.260079 203.41274 
L 430.092471 200.177618 
L 431.924863 196.863569 
L 432.841059 195.618554 
L 433.757255 194.873564 
L 434.673451 194.729926 
L 435.589647 195.206613 
L 436.505843 196.236217 
L 437.422039 197.679242 
L 440.170627 202.679062 
L 441.086823 204.068795 
L 442.003019 205.195047 
L 442.919215 206.058962 
L 443.835411 206.692281 
L 444.751607 207.140096 
L 446.583999 207.65616 
L 448.416392 207.886556 
L 452.081176 208.027043 
L 457.578352 207.966186 
L 460.32694 207.714387 
L 462.159332 207.240485 
L 463.075528 206.803932 
L 463.991724 206.148561 
L 464.90792 205.18412 
L 465.824116 203.801854 
L 466.740312 201.884479 
L 467.656508 199.325137 
L 468.572704 196.053602 
L 469.4889 192.06306 
L 471.321292 182.29878 
L 474.986076 161.153806 
L 476.818468 152.64162 
L 477.734664 149.178418 
L 478.65086 146.234536 
L 479.567056 143.772733 
L 480.483253 141.743554 
L 481.399449 140.092525 
L 482.315645 138.765065 
L 483.231841 137.709568 
L 484.148037 136.879135 
L 485.064233 136.232385 
L 486.896625 135.352733 
L 488.729017 134.848624 
L 490.561409 134.570327 
L 493.309997 134.377785 
L 498.807173 134.285736 
L 530.874034 134.276074 
L 530.874034 134.276074 
" style="fill:none;stroke:#000000;stroke-linecap:square;stroke-width:1.5;"/>
   </g>
   <g id="text_16">
    <!-- Fit for the short length-scale -->
    <defs>
     <path d="M 9.8125 72.90625 
L 51.703125 72.90625 
L 51.703125 64.59375 
L 19.671875 64.59375 
L 19.671875 43.109375 
L 48.578125 43.109375 
L 48.578125 34.8125 
L 19.671875 34.8125 
L 19.671875 0 
L 9.8125 0 
z
" id="DejaVuSans-46"/>
     <path d="M 9.421875 54.6875 
L 18.40625 54.6875 
L 18.40625 0 
L 9.421875 0 
z
M 9.421875 75.984375 
L 18.40625 75.984375 
L 18.40625 64.59375 
L 9.421875 64.59375 
z
" id="DejaVuSans-69"/>
     <path d="M 18.3125 70.21875 
L 18.3125 54.6875 
L 36.8125 54.6875 
L 36.8125 47.703125 
L 18.3125 47.703125 
L 18.3125 18.015625 
Q 18.3125 11.328125 20.140625 9.421875 
Q 21.96875 7.515625 27.59375 7.515625 
L 36.8125 7.515625 
L 36.8125 0 
L 27.59375 0 
Q 17.1875 0 13.234375 3.875 
Q 9.28125 7.765625 9.28125 18.015625 
L 9.28125 47.703125 
L 2.6875 47.703125 
L 2.6875 54.6875 
L 9.28125 54.6875 
L 9.28125 70.21875 
z
" id="DejaVuSans-74"/>
     <path id="DejaVuSans-20"/>
     <path d="M 37.109375 75.984375 
L 37.109375 68.5 
L 28.515625 68.5 
Q 23.6875 68.5 21.796875 66.546875 
Q 19.921875 64.59375 19.921875 59.515625 
L 19.921875 54.6875 
L 34.71875 54.6875 
L 34.71875 47.703125 
L 19.921875 47.703125 
L 19.921875 0 
L 10.890625 0 
L 10.890625 47.703125 
L 2.296875 47.703125 
L 2.296875 54.6875 
L 10.890625 54.6875 
L 10.890625 58.5 
Q 10.890625 67.625 15.140625 71.796875 
Q 19.390625 75.984375 28.609375 75.984375 
z
" id="DejaVuSans-66"/>
     <path d="M 30.609375 48.390625 
Q 23.390625 48.390625 19.1875 42.75 
Q 14.984375 37.109375 14.984375 27.296875 
Q 14.984375 17.484375 19.15625 11.84375 
Q 23.34375 6.203125 30.609375 6.203125 
Q 37.796875 6.203125 41.984375 11.859375 
Q 46.1875 17.53125 46.1875 27.296875 
Q 46.1875 37.015625 41.984375 42.703125 
Q 37.796875 48.390625 30.609375 48.390625 
z
M 30.609375 56 
Q 42.328125 56 49.015625 48.375 
Q 55.71875 40.765625 55.71875 27.296875 
Q 55.71875 13.875 49.015625 6.21875 
Q 42.328125 -1.421875 30.609375 -1.421875 
Q 18.84375 -1.421875 12.171875 6.21875 
Q 5.515625 13.875 5.515625 27.296875 
Q 5.515625 40.765625 12.171875 48.375 
Q 18.84375 56 30.609375 56 
z
" id="DejaVuSans-6f"/>
     <path d="M 41.109375 46.296875 
Q 39.59375 47.171875 37.8125 47.578125 
Q 36.03125 48 33.890625 48 
Q 26.265625 48 22.1875 43.046875 
Q 18.109375 38.09375 18.109375 28.8125 
L 18.109375 0 
L 9.078125 0 
L 9.078125 54.6875 
L 18.109375 54.6875 
L 18.109375 46.1875 
Q 20.953125 51.171875 25.484375 53.578125 
Q 30.03125 56 36.53125 56 
Q 37.453125 56 38.578125 55.875 
Q 39.703125 55.765625 41.0625 55.515625 
z
" id="DejaVuSans-72"/>
     <path d="M 54.890625 33.015625 
L 54.890625 0 
L 45.90625 0 
L 45.90625 32.71875 
Q 45.90625 40.484375 42.875 44.328125 
Q 39.84375 48.1875 33.796875 48.1875 
Q 26.515625 48.1875 22.3125 43.546875 
Q 18.109375 38.921875 18.109375 30.90625 
L 18.109375 0 
L 9.078125 0 
L 9.078125 75.984375 
L 18.109375 75.984375 
L 18.109375 46.1875 
Q 21.34375 51.125 25.703125 53.5625 
Q 30.078125 56 35.796875 56 
Q 45.21875 56 50.046875 50.171875 
Q 54.890625 44.34375 54.890625 33.015625 
z
" id="DejaVuSans-68"/>
     <path d="M 56.203125 29.59375 
L 56.203125 25.203125 
L 14.890625 25.203125 
Q 15.484375 15.921875 20.484375 11.0625 
Q 25.484375 6.203125 34.421875 6.203125 
Q 39.59375 6.203125 44.453125 7.46875 
Q 49.3125 8.734375 54.109375 11.28125 
L 54.109375 2.78125 
Q 49.265625 0.734375 44.1875 -0.34375 
Q 39.109375 -1.421875 33.890625 -1.421875 
Q 20.796875 -1.421875 13.15625 6.1875 
Q 5.515625 13.8125 5.515625 26.8125 
Q 5.515625 40.234375 12.765625 48.109375 
Q 20.015625 56 32.328125 56 
Q 43.359375 56 49.78125 48.890625 
Q 56.203125 41.796875 56.203125 29.59375 
z
M 47.21875 32.234375 
Q 47.125 39.59375 43.09375 43.984375 
Q 39.0625 48.390625 32.421875 48.390625 
Q 24.90625 48.390625 20.390625 44.140625 
Q 15.875 39.890625 15.1875 32.171875 
z
" id="DejaVuSans-65"/>
     <path d="M 44.28125 53.078125 
L 44.28125 44.578125 
Q 40.484375 46.53125 36.375 47.5 
Q 32.28125 48.484375 27.875 48.484375 
Q 21.1875 48.484375 17.84375 46.4375 
Q 14.5 44.390625 14.5 40.28125 
Q 14.5 37.15625 16.890625 35.375 
Q 19.28125 33.59375 26.515625 31.984375 
L 29.59375 31.296875 
Q 39.15625 29.25 43.1875 25.515625 
Q 47.21875 21.78125 47.21875 15.09375 
Q 47.21875 7.46875 41.1875 3.015625 
Q 35.15625 -1.421875 24.609375 -1.421875 
Q 20.21875 -1.421875 15.453125 -0.5625 
Q 10.6875 0.296875 5.421875 2 
L 5.421875 11.28125 
Q 10.40625 8.6875 15.234375 7.390625 
Q 20.0625 6.109375 24.8125 6.109375 
Q 31.15625 6.109375 34.5625 8.28125 
Q 37.984375 10.453125 37.984375 14.40625 
Q 37.984375 18.0625 35.515625 20.015625 
Q 33.0625 21.96875 24.703125 23.78125 
L 21.578125 24.515625 
Q 13.234375 26.265625 9.515625 29.90625 
Q 5.8125 33.546875 5.8125 39.890625 
Q 5.8125 47.609375 11.28125 51.796875 
Q 16.75 56 26.8125 56 
Q 31.78125 56 36.171875 55.265625 
Q 40.578125 54.546875 44.28125 53.078125 
z
" id="DejaVuSans-73"/>
     <path d="M 9.421875 75.984375 
L 18.40625 75.984375 
L 18.40625 0 
L 9.421875 0 
z
" id="DejaVuSans-6c"/>
     <path d="M 54.890625 33.015625 
L 54.890625 0 
L 45.90625 0 
L 45.90625 32.71875 
Q 45.90625 40.484375 42.875 44.328125 
Q 39.84375 48.1875 33.796875 48.1875 
Q 26.515625 48.1875 22.3125 43.546875 
Q 18.109375 38.921875 18.109375 30.90625 
L 18.109375 0 
L 9.078125 0 
L 9.078125 54.6875 
L 18.109375 54.6875 
L 18.109375 46.1875 
Q 21.34375 51.125 25.703125 53.5625 
Q 30.078125 56 35.796875 56 
Q 45.21875 56 50.046875 50.171875 
Q 54.890625 44.34375 54.890625 33.015625 
z
" id="DejaVuSans-6e"/>
     <path d="M 45.40625 27.984375 
Q 45.40625 37.75 41.375 43.109375 
Q 37.359375 48.484375 30.078125 48.484375 
Q 22.859375 48.484375 18.828125 43.109375 
Q 14.796875 37.75 14.796875 27.984375 
Q 14.796875 18.265625 18.828125 12.890625 
Q 22.859375 7.515625 30.078125 7.515625 
Q 37.359375 7.515625 41.375 12.890625 
Q 45.40625 18.265625 45.40625 27.984375 
z
M 54.390625 6.78125 
Q 54.390625 -7.171875 48.1875 -13.984375 
Q 42 -20.796875 29.203125 -20.796875 
Q 24.46875 -20.796875 20.265625 -20.09375 
Q 16.0625 -19.390625 12.109375 -17.921875 
L 12.109375 -9.1875 
Q 16.0625 -11.328125 19.921875 -12.34375 
Q 23.78125 -13.375 27.78125 -13.375 
Q 36.625 -13.375 41.015625 -8.765625 
Q 45.40625 -4.15625 45.40625 5.171875 
L 45.40625 9.625 
Q 42.625 4.78125 38.28125 2.390625 
Q 33.9375 0 27.875 0 
Q 17.828125 0 11.671875 7.65625 
Q 5.515625 15.328125 5.515625 27.984375 
Q 5.515625 40.671875 11.671875 48.328125 
Q 17.828125 56 27.875 56 
Q 33.9375 56 38.28125 53.609375 
Q 42.625 51.21875 45.40625 46.390625 
L 45.40625 54.6875 
L 54.390625 54.6875 
z
" id="DejaVuSans-67"/>
     <path d="M 4.890625 31.390625 
L 31.203125 31.390625 
L 31.203125 23.390625 
L 4.890625 23.390625 
z
" id="DejaVuSans-2d"/>
     <path d="M 48.78125 52.59375 
L 48.78125 44.1875 
Q 44.96875 46.296875 41.140625 47.34375 
Q 37.3125 48.390625 33.40625 48.390625 
Q 24.65625 48.390625 19.8125 42.84375 
Q 14.984375 37.3125 14.984375 27.296875 
Q 14.984375 17.28125 19.8125 11.734375 
Q 24.65625 6.203125 33.40625 6.203125 
Q 37.3125 6.203125 41.140625 7.25 
Q 44.96875 8.296875 48.78125 10.40625 
L 48.78125 2.09375 
Q 45.015625 0.34375 40.984375 -0.53125 
Q 36.96875 -1.421875 32.421875 -1.421875 
Q 20.0625 -1.421875 12.78125 6.34375 
Q 5.515625 14.109375 5.515625 27.296875 
Q 5.515625 40.671875 12.859375 48.328125 
Q 20.21875 56 33.015625 56 
Q 37.15625 56 41.109375 55.140625 
Q 45.0625 54.296875 48.78125 52.59375 
z
" id="DejaVuSans-63"/>
     <path d="M 34.28125 27.484375 
Q 23.390625 27.484375 19.1875 25 
Q 14.984375 22.515625 14.984375 16.5 
Q 14.984375 11.71875 18.140625 8.90625 
Q 21.296875 6.109375 26.703125 6.109375 
Q 34.1875 6.109375 38.703125 11.40625 
Q 43.21875 16.703125 43.21875 25.484375 
L 43.21875 27.484375 
z
M 52.203125 31.203125 
L 52.203125 0 
L 43.21875 0 
L 43.21875 8.296875 
Q 40.140625 3.328125 35.546875 0.953125 
Q 30.953125 -1.421875 24.3125 -1.421875 
Q 15.921875 -1.421875 10.953125 3.296875 
Q 6 8.015625 6 15.921875 
Q 6 25.140625 12.171875 29.828125 
Q 18.359375 34.515625 30.609375 34.515625 
L 43.21875 34.515625 
L 43.21875 35.40625 
Q 43.21875 41.609375 39.140625 45 
Q 35.0625 48.390625 27.6875 48.390625 
Q 23 48.390625 18.546875 47.265625 
Q 14.109375 46.140625 10.015625 43.890625 
L 10.015625 52.203125 
Q 14.9375 54.109375 19.578125 55.046875 
Q 24.21875 56 28.609375 56 
Q 40.484375 56 46.34375 49.84375 
Q 52.203125 43.703125 52.203125 31.203125 
z
" id="DejaVuSans-61"/>
    </defs>
    <g transform="translate(202.701563 17.837812)scale(0.14 -0.14)">
     <use xlink:href="#DejaVuSans-46"/>
     <use x="57.410156" xlink:href="#DejaVuSans-69"/>
     <use x="85.193359" xlink:href="#DejaVuSans-74"/>
     <use x="124.402344" xlink:href="#DejaVuSans-20"/>
     <use x="156.189453" xlink:href="#DejaVuSans-66"/>
     <use x="191.394531" xlink:href="#DejaVuSans-6f"/>
     <use x="252.576172" xlink:href="#DejaVuSans-72"/>
     <use x="293.689453" xlink:href="#DejaVuSans-20"/>
     <use x="325.476562" xlink:href="#DejaVuSans-74"/>
     <use x="364.685547" xlink:href="#DejaVuSans-68"/>
     <use x="428.064453" xlink:href="#DejaVuSans-65"/>
     <use x="489.587891" xlink:href="#DejaVuSans-20"/>
     <use x="521.375" xlink:href="#DejaVuSans-73"/>
     <use x="573.474609" xlink:href="#DejaVuSans-68"/>
     <use x="636.853516" xlink:href="#DejaVuSans-6f"/>
     <use x="698.035156" xlink:href="#DejaVuSans-72"/>
     <use x="739.148438" xlink:href="#DejaVuSans-74"/>
     <use x="778.357422" xlink:href="#DejaVuSans-20"/>
     <use x="810.144531" xlink:href="#DejaVuSans-6c"/>
     <use x="837.927734" xlink:href="#DejaVuSans-65"/>
     <use x="899.451172" xlink:href="#DejaVuSans-6e"/>
     <use x="962.830078" xlink:href="#DejaVuSans-67"/>
     <use x="1026.306641" xlink:href="#DejaVuSans-74"/>
     <use x="1065.515625" xlink:href="#DejaVuSans-68"/>
     <use x="1128.894531" xlink:href="#DejaVuSans-2d"/>
     <use x="1164.978516" xlink:href="#DejaVuSans-73"/>
     <use x="1217.078125" xlink:href="#DejaVuSans-63"/>
     <use x="1272.058594" xlink:href="#DejaVuSans-61"/>
     <use x="1333.337891" xlink:href="#DejaVuSans-6c"/>
     <use x="1361.121094" xlink:href="#DejaVuSans-65"/>
    </g>
   </g>
   <g id="legend_1">
    <g id="patch_7">
     <path d="M 450.737813 105.550312 
L 546.733125 105.550312 
Q 548.733125 105.550312 548.733125 103.550312 
L 548.733125 30.837812 
Q 548.733125 28.837812 546.733125 28.837812 
L 450.737813 28.837812 
Q 448.737813 28.837812 448.737813 30.837812 
L 448.737813 103.550312 
Q 448.737813 105.550312 450.737813 105.550312 
z
" style="fill:#ffffff;opacity:0.8;stroke:#cccccc;stroke-linejoin:miter;"/>
    </g>
    <g id="line2d_15">
     <path d="M 452.737813 36.98 
L 472.737813 36.98 
" style="fill:none;stroke:#000000;stroke-linecap:square;stroke-width:1.5;"/>
    </g>
    <g id="line2d_16"/>
    <g id="text_17">
     <!-- p(y|x,w) -->
     <defs>
      <path d="M 18.109375 8.203125 
L 18.109375 -20.796875 
L 9.078125 -20.796875 
L 9.078125 54.6875 
L 18.109375 54.6875 
L 18.109375 46.390625 
Q 20.953125 51.265625 25.265625 53.625 
Q 29.59375 56 35.59375 56 
Q 45.5625 56 51.78125 48.09375 
Q 58.015625 40.1875 58.015625 27.296875 
Q 58.015625 14.40625 51.78125 6.484375 
Q 45.5625 -1.421875 35.59375 -1.421875 
Q 29.59375 -1.421875 25.265625 0.953125 
Q 20.953125 3.328125 18.109375 8.203125 
z
M 48.6875 27.296875 
Q 48.6875 37.203125 44.609375 42.84375 
Q 40.53125 48.484375 33.40625 48.484375 
Q 26.265625 48.484375 22.1875 42.84375 
Q 18.109375 37.203125 18.109375 27.296875 
Q 18.109375 17.390625 22.1875 11.75 
Q 26.265625 6.109375 33.40625 6.109375 
Q 40.53125 6.109375 44.609375 11.75 
Q 48.6875 17.390625 48.6875 27.296875 
z
" id="DejaVuSans-70"/>
      <path d="M 31 75.875 
Q 24.46875 64.65625 21.28125 53.65625 
Q 18.109375 42.671875 18.109375 31.390625 
Q 18.109375 20.125 21.3125 9.0625 
Q 24.515625 -2 31 -13.1875 
L 23.1875 -13.1875 
Q 15.875 -1.703125 12.234375 9.375 
Q 8.59375 20.453125 8.59375 31.390625 
Q 8.59375 42.28125 12.203125 53.3125 
Q 15.828125 64.359375 23.1875 75.875 
z
" id="DejaVuSans-28"/>
      <path d="M 32.171875 -5.078125 
Q 28.375 -14.84375 24.75 -17.8125 
Q 21.140625 -20.796875 15.09375 -20.796875 
L 7.90625 -20.796875 
L 7.90625 -13.28125 
L 13.1875 -13.28125 
Q 16.890625 -13.28125 18.9375 -11.515625 
Q 21 -9.765625 23.484375 -3.21875 
L 25.09375 0.875 
L 2.984375 54.6875 
L 12.5 54.6875 
L 29.59375 11.921875 
L 46.6875 54.6875 
L 56.203125 54.6875 
z
" id="DejaVuSans-79"/>
      <path d="M 21 76.421875 
L 21 -23.578125 
L 12.703125 -23.578125 
L 12.703125 76.421875 
z
" id="DejaVuSans-7c"/>
      <path d="M 54.890625 54.6875 
L 35.109375 28.078125 
L 55.90625 0 
L 45.3125 0 
L 29.390625 21.484375 
L 13.484375 0 
L 2.875 0 
L 24.125 28.609375 
L 4.6875 54.6875 
L 15.28125 54.6875 
L 29.78125 35.203125 
L 44.28125 54.6875 
z
" id="DejaVuSans-78"/>
      <path d="M 11.71875 12.40625 
L 22.015625 12.40625 
L 22.015625 4 
L 14.015625 -11.625 
L 7.71875 -11.625 
L 11.71875 4 
z
" id="DejaVuSans-2c"/>
      <path d="M 4.203125 54.6875 
L 13.1875 54.6875 
L 24.421875 12.015625 
L 35.59375 54.6875 
L 46.1875 54.6875 
L 57.421875 12.015625 
L 68.609375 54.6875 
L 77.59375 54.6875 
L 63.28125 0 
L 52.6875 0 
L 40.921875 44.828125 
L 29.109375 0 
L 18.5 0 
z
" id="DejaVuSans-77"/>
      <path d="M 8.015625 75.875 
L 15.828125 75.875 
Q 23.140625 64.359375 26.78125 53.3125 
Q 30.421875 42.28125 30.421875 31.390625 
Q 30.421875 20.453125 26.78125 9.375 
Q 23.140625 -1.703125 15.828125 -13.1875 
L 8.015625 -13.1875 
Q 14.5 -2 17.703125 9.0625 
Q 20.90625 20.125 20.90625 31.390625 
Q 20.90625 42.671875 17.703125 53.65625 
Q 14.5 64.65625 8.015625 75.875 
z
" id="DejaVuSans-29"/>
     </defs>
     <g transform="translate(480.737813 40.48)scale(0.1 -0.1)">
      <use xlink:href="#DejaVuSans-70"/>
      <use x="63.476562" xlink:href="#DejaVuSans-28"/>
      <use x="102.490234" xlink:href="#DejaVuSans-79"/>
      <use x="161.669922" xlink:href="#DejaVuSans-7c"/>
      <use x="195.361328" xlink:href="#DejaVuSans-78"/>
      <use x="254.541016" xlink:href="#DejaVuSans-2c"/>
      <use x="286.328125" xlink:href="#DejaVuSans-77"/>
      <use x="368.115234" xlink:href="#DejaVuSans-29"/>
     </g>
    </g>
    <g id="PathCollection_5">
     <g>
      <use style="fill:#0000ff;stroke:#0000ff;stroke-width:1.5;" x="462.737813" xlink:href="#m7fdd91a117" y="52.81125"/>
     </g>
    </g>
    <g id="text_18">
     <!-- class 0, train -->
     <g transform="translate(480.737813 55.43625)scale(0.1 -0.1)">
      <use xlink:href="#DejaVuSans-63"/>
      <use x="54.980469" xlink:href="#DejaVuSans-6c"/>
      <use x="82.763672" xlink:href="#DejaVuSans-61"/>
      <use x="144.042969" xlink:href="#DejaVuSans-73"/>
      <use x="196.142578" xlink:href="#DejaVuSans-73"/>
      <use x="248.242188" xlink:href="#DejaVuSans-20"/>
      <use x="280.029297" xlink:href="#DejaVuSans-30"/>
      <use x="343.652344" xlink:href="#DejaVuSans-2c"/>
      <use x="375.439453" xlink:href="#DejaVuSans-20"/>
      <use x="407.226562" xlink:href="#DejaVuSans-74"/>
      <use x="446.435547" xlink:href="#DejaVuSans-72"/>
      <use x="487.548828" xlink:href="#DejaVuSans-61"/>
      <use x="548.828125" xlink:href="#DejaVuSans-69"/>
      <use x="576.611328" xlink:href="#DejaVuSans-6e"/>
     </g>
    </g>
    <g id="PathCollection_6">
     <g>
      <use style="fill:#ff0000;stroke:#ff0000;stroke-width:1.5;" x="462.737813" xlink:href="#m5395bc66af" y="67.489375"/>
     </g>
    </g>
    <g id="text_19">
     <!-- class 1, train -->
     <g transform="translate(480.737813 70.114375)scale(0.1 -0.1)">
      <use xlink:href="#DejaVuSans-63"/>
      <use x="54.980469" xlink:href="#DejaVuSans-6c"/>
      <use x="82.763672" xlink:href="#DejaVuSans-61"/>
      <use x="144.042969" xlink:href="#DejaVuSans-73"/>
      <use x="196.142578" xlink:href="#DejaVuSans-73"/>
      <use x="248.242188" xlink:href="#DejaVuSans-20"/>
      <use x="280.029297" xlink:href="#DejaVuSans-31"/>
      <use x="343.652344" xlink:href="#DejaVuSans-2c"/>
      <use x="375.439453" xlink:href="#DejaVuSans-20"/>
      <use x="407.226562" xlink:href="#DejaVuSans-74"/>
      <use x="446.435547" xlink:href="#DejaVuSans-72"/>
      <use x="487.548828" xlink:href="#DejaVuSans-61"/>
      <use x="548.828125" xlink:href="#DejaVuSans-69"/>
      <use x="576.611328" xlink:href="#DejaVuSans-6e"/>
     </g>
    </g>
    <g id="PathCollection_7">
     <g>
      <use style="fill:#0000ff;stroke:#0000ff;" x="462.737813" xlink:href="#m8a61aea064" y="82.1675"/>
     </g>
    </g>
    <g id="text_20">
     <!-- class 0, test -->
     <g transform="translate(480.737813 84.7925)scale(0.1 -0.1)">
      <use xlink:href="#DejaVuSans-63"/>
      <use x="54.980469" xlink:href="#DejaVuSans-6c"/>
      <use x="82.763672" xlink:href="#DejaVuSans-61"/>
      <use x="144.042969" xlink:href="#DejaVuSans-73"/>
      <use x="196.142578" xlink:href="#DejaVuSans-73"/>
      <use x="248.242188" xlink:href="#DejaVuSans-20"/>
      <use x="280.029297" xlink:href="#DejaVuSans-30"/>
      <use x="343.652344" xlink:href="#DejaVuSans-2c"/>
      <use x="375.439453" xlink:href="#DejaVuSans-20"/>
      <use x="407.226562" xlink:href="#DejaVuSans-74"/>
      <use x="446.435547" xlink:href="#DejaVuSans-65"/>
      <use x="507.958984" xlink:href="#DejaVuSans-73"/>
      <use x="560.058594" xlink:href="#DejaVuSans-74"/>
     </g>
    </g>
    <g id="PathCollection_8">
     <g>
      <use style="fill:#ff0000;stroke:#ff0000;" x="462.737813" xlink:href="#m6ae39d19ce" y="96.845625"/>
     </g>
    </g>
    <g id="text_21">
     <!-- class 1, test -->
     <g transform="translate(480.737813 99.470625)scale(0.1 -0.1)">
      <use xlink:href="#DejaVuSans-63"/>
      <use x="54.980469" xlink:href="#DejaVuSans-6c"/>
      <use x="82.763672" xlink:href="#DejaVuSans-61"/>
      <use x="144.042969" xlink:href="#DejaVuSans-73"/>
      <use x="196.142578" xlink:href="#DejaVuSans-73"/>
      <use x="248.242188" xlink:href="#DejaVuSans-20"/>
      <use x="280.029297" xlink:href="#DejaVuSans-31"/>
      <use x="343.652344" xlink:href="#DejaVuSans-2c"/>
      <use x="375.439453" xlink:href="#DejaVuSans-20"/>
      <use x="407.226562" xlink:href="#DejaVuSans-74"/>
      <use x="446.435547" xlink:href="#DejaVuSans-65"/>
      <use x="507.958984" xlink:href="#DejaVuSans-73"/>
      <use x="560.058594" xlink:href="#DejaVuSans-74"/>
     </g>
    </g>
   </g>
  </g>
 </g>
 <defs>
  <clipPath id="p41d49bd7dc">
   <rect height="211.4" width="502.9" x="50.833125" y="23.837812"/>
  </clipPath>
 </defs>
</svg>
