<?xml version="1.0" encoding="utf-8" standalone="no"?>
<!DOCTYPE svg PUBLIC "-//W3C//DTD SVG 1.1//EN"
  "http://www.w3.org/Graphics/SVG/1.1/DTD/svg11.dtd">
<!-- Created with matplotlib (http://matplotlib.org/) -->
<svg height="452.774062pt" version="1.1" viewBox="0 0 454.95125 452.774062" width="454.95125pt" xmlns="http://www.w3.org/2000/svg" xmlns:xlink="http://www.w3.org/1999/xlink">
 <defs>
  <style type="text/css">
*{stroke-linecap:butt;stroke-linejoin:round;}
  </style>
 </defs>
 <g id="figure_1">
  <g id="patch_1">
   <path d="M 0 452.774062 
L 454.95125 452.774062 
L 454.95125 0 
L 0 0 
z
" style="fill:none;"/>
  </g>
  <g id="axes_1">
   <g id="patch_2">
    <path d="M 53.65125 407.335312 
L 444.25125 407.335312 
L 444.25125 26.815312 
L 53.65125 26.815312 
z
" style="fill:#ffffff;"/>
   </g>
   <g id="PolyCollection_1">
    <path clip-path="url(#p749fdb7209)" d="M 74.355947 375.933813 
L 74.355947 71.553075 
L 81.630751 89.523048 
L 88.905555 53.082805 
L 96.180359 56.682932 
L 103.455164 46.750331 
L 110.729968 29.418997 
L 118.004772 13.023469 
L 125.279577 -4.781205 
L 132.554381 8.441454 
L 139.829185 -7.719709 
L 147.10399 3.13627 
L 154.378794 -2.094317 
L 161.653598 -4.850904 
L 168.928403 -6.962004 
L 176.203207 -29.130081 
L 183.478011 -21.884904 
L 190.752816 -35.709483 
L 198.02762 -15.367626 
L 205.302424 -13.884358 
L 212.577228 -20.531953 
L 219.852033 -9.459761 
L 227.126837 -13.281608 
L 234.401641 -37.909316 
L 241.676446 -46.011384 
L 248.95125 -61.306246 
L 256.226054 -60.546415 
L 263.500859 -46.011384 
L 270.775663 -53.023479 
L 278.050467 -55.573045 
L 285.325272 -46.223334 
L 292.600076 -32.728078 
L 299.87488 -39.696437 
L 307.149684 -38.486249 
L 314.424489 -39.557997 
L 321.699293 -22.666745 
L 328.974097 -25.727665 
L 336.248902 -17.692998 
L 343.523706 -12.374821 
L 350.79851 -12.374821 
L 358.073315 7.455923 
L 365.348119 14.464682 
L 372.622923 37.328078 
L 379.897728 38.780003 
L 387.172532 58.797337 
L 394.447336 65.592057 
L 401.722141 51.374253 
L 408.996945 72.25132 
L 416.271749 64.902705 
L 423.546553 85.38521 
L 423.546553 352.325104 
L 423.546553 352.325104 
L 416.271749 342.081234 
L 408.996945 344.509192 
L 401.722141 354.213032 
L 394.447336 320.442081 
L 387.172532 335.616721 
L 379.897728 373.79055 
L 372.622923 385.019048 
L 365.348119 358.999575 
L 358.073315 326.902038 
L 350.79851 307.626487 
L 343.523706 307.626487 
L 336.248902 301.771436 
L 328.974097 298.632875 
L 321.699293 296.96861 
L 314.424489 292.91006 
L 307.149684 311.39146 
L 299.87488 283.271926 
L 292.600076 295.856715 
L 285.325272 289.798823 
L 278.050467 287.975307 
L 270.775663 265.872593 
L 263.500859 270.033725 
L 256.226054 304.121904 
L 248.95125 303.485082 
L 241.676446 270.033725 
L 234.401641 232.601936 
L 227.126837 228.924028 
L 219.852033 234.878756 
L 212.577228 225.001147 
L 205.302424 249.079927 
L 198.02762 208.663592 
L 190.752816 237.38537 
L 183.478011 223.560791 
L 176.203207 260.135689 
L 168.928403 239.364266 
L 161.653598 267.979541 
L 154.378794 247.06646 
L 147.10399 239.042566 
L 139.829185 238.725317 
L 132.554381 275.636985 
L 125.279577 270.703149 
L 118.004772 292.00477 
L 110.729968 286.78247 
L 103.455164 289.004284 
L 96.180359 300.021484 
L 88.905555 285.465116 
L 81.630751 371.930374 
L 74.355947 375.933813 
z
" style="fill:#808080;fill-opacity:0.5;"/>
   </g>
   <g id="PathCollection_1">
    <defs>
     <path d="M -3 3 
L 3 -3 
M -3 -3 
L 3 3 
" id="m2f4149a215" style="stroke:#ff0000;stroke-width:1.5;"/>
    </defs>
    <g clip-path="url(#p749fdb7209)">
     <use style="fill:#ff0000;stroke:#ff0000;stroke-width:1.5;" x="74.355947" xlink:href="#m2f4149a215" y="223.743444"/>
     <use style="fill:#ff0000;stroke:#ff0000;stroke-width:1.5;" x="81.630751" xlink:href="#m2f4149a215" y="230.726711"/>
     <use style="fill:#ff0000;stroke:#ff0000;stroke-width:1.5;" x="88.905555" xlink:href="#m2f4149a215" y="169.273961"/>
     <use style="fill:#ff0000;stroke:#ff0000;stroke-width:1.5;" x="96.180359" xlink:href="#m2f4149a215" y="178.352208"/>
     <use style="fill:#ff0000;stroke:#ff0000;stroke-width:1.5;" x="103.455164" xlink:href="#m2f4149a215" y="167.877307"/>
     <use style="fill:#ff0000;stroke:#ff0000;stroke-width:1.5;" x="110.729968" xlink:href="#m2f4149a215" y="158.100733"/>
     <use style="fill:#ff0000;stroke:#ff0000;stroke-width:1.5;" x="118.004772" xlink:href="#m2f4149a215" y="152.51412"/>
     <use style="fill:#ff0000;stroke:#ff0000;stroke-width:1.5;" x="125.279577" xlink:href="#m2f4149a215" y="132.960972"/>
     <use style="fill:#ff0000;stroke:#ff0000;stroke-width:1.5;" x="132.554381" xlink:href="#m2f4149a215" y="142.039219"/>
     <use style="fill:#ff0000;stroke:#ff0000;stroke-width:1.5;" x="139.829185" xlink:href="#m2f4149a215" y="115.502804"/>
     <use style="fill:#ff0000;stroke:#ff0000;stroke-width:1.5;" x="147.10399" xlink:href="#m2f4149a215" y="121.089418"/>
     <use style="fill:#ff0000;stroke:#ff0000;stroke-width:1.5;" x="154.378794" xlink:href="#m2f4149a215" y="122.486071"/>
     <use style="fill:#ff0000;stroke:#ff0000;stroke-width:1.5;" x="161.653598" xlink:href="#m2f4149a215" y="131.564319"/>
     <use style="fill:#ff0000;stroke:#ff0000;stroke-width:1.5;" x="168.928403" xlink:href="#m2f4149a215" y="116.201131"/>
     <use style="fill:#ff0000;stroke:#ff0000;stroke-width:1.5;" x="176.203207" xlink:href="#m2f4149a215" y="115.502804"/>
     <use style="fill:#ff0000;stroke:#ff0000;stroke-width:1.5;" x="183.478011" xlink:href="#m2f4149a215" y="100.837943"/>
     <use style="fill:#ff0000;stroke:#ff0000;stroke-width:1.5;" x="190.752816" xlink:href="#m2f4149a215" y="100.837943"/>
     <use style="fill:#ff0000;stroke:#ff0000;stroke-width:1.5;" x="198.02762" xlink:href="#m2f4149a215" y="96.647983"/>
     <use style="fill:#ff0000;stroke:#ff0000;stroke-width:1.5;" x="205.302424" xlink:href="#m2f4149a215" y="117.597784"/>
     <use style="fill:#ff0000;stroke:#ff0000;stroke-width:1.5;" x="212.577228" xlink:href="#m2f4149a215" y="102.234597"/>
     <use style="fill:#ff0000;stroke:#ff0000;stroke-width:1.5;" x="219.852033" xlink:href="#m2f4149a215" y="112.709497"/>
     <use style="fill:#ff0000;stroke:#ff0000;stroke-width:1.5;" x="227.126837" xlink:href="#m2f4149a215" y="107.82121"/>
     <use style="fill:#ff0000;stroke:#ff0000;stroke-width:1.5;" x="234.401641" xlink:href="#m2f4149a215" y="97.34631"/>
     <use style="fill:#ff0000;stroke:#ff0000;stroke-width:1.5;" x="241.676446" xlink:href="#m2f4149a215" y="112.011171"/>
     <use style="fill:#ff0000;stroke:#ff0000;stroke-width:1.5;" x="248.95125" xlink:href="#m2f4149a215" y="121.089418"/>
     <use style="fill:#ff0000;stroke:#ff0000;stroke-width:1.5;" x="256.226054" xlink:href="#m2f4149a215" y="121.787745"/>
     <use style="fill:#ff0000;stroke:#ff0000;stroke-width:1.5;" x="263.500859" xlink:href="#m2f4149a215" y="112.011171"/>
     <use style="fill:#ff0000;stroke:#ff0000;stroke-width:1.5;" x="270.775663" xlink:href="#m2f4149a215" y="106.424557"/>
     <use style="fill:#ff0000;stroke:#ff0000;stroke-width:1.5;" x="278.050467" xlink:href="#m2f4149a215" y="116.201131"/>
     <use style="fill:#ff0000;stroke:#ff0000;stroke-width:1.5;" x="285.325272" xlink:href="#m2f4149a215" y="121.787745"/>
     <use style="fill:#ff0000;stroke:#ff0000;stroke-width:1.5;" x="292.600076" xlink:href="#m2f4149a215" y="131.564319"/>
     <use style="fill:#ff0000;stroke:#ff0000;stroke-width:1.5;" x="299.87488" xlink:href="#m2f4149a215" y="121.787745"/>
     <use style="fill:#ff0000;stroke:#ff0000;stroke-width:1.5;" x="307.149684" xlink:href="#m2f4149a215" y="136.452605"/>
     <use style="fill:#ff0000;stroke:#ff0000;stroke-width:1.5;" x="314.424489" xlink:href="#m2f4149a215" y="126.676032"/>
     <use style="fill:#ff0000;stroke:#ff0000;stroke-width:1.5;" x="321.699293" xlink:href="#m2f4149a215" y="137.150932"/>
     <use style="fill:#ff0000;stroke:#ff0000;stroke-width:1.5;" x="328.974097" xlink:href="#m2f4149a215" y="136.452605"/>
     <use style="fill:#ff0000;stroke:#ff0000;stroke-width:1.5;" x="336.248902" xlink:href="#m2f4149a215" y="142.039219"/>
     <use style="fill:#ff0000;stroke:#ff0000;stroke-width:1.5;" x="343.523706" xlink:href="#m2f4149a215" y="147.625833"/>
     <use style="fill:#ff0000;stroke:#ff0000;stroke-width:1.5;" x="350.79851" xlink:href="#m2f4149a215" y="147.625833"/>
     <use style="fill:#ff0000;stroke:#ff0000;stroke-width:1.5;" x="358.073315" xlink:href="#m2f4149a215" y="167.178981"/>
     <use style="fill:#ff0000;stroke:#ff0000;stroke-width:1.5;" x="365.348119" xlink:href="#m2f4149a215" y="186.732128"/>
     <use style="fill:#ff0000;stroke:#ff0000;stroke-width:1.5;" x="372.622923" xlink:href="#m2f4149a215" y="211.173563"/>
     <use style="fill:#ff0000;stroke:#ff0000;stroke-width:1.5;" x="379.897728" xlink:href="#m2f4149a215" y="206.285276"/>
     <use style="fill:#ff0000;stroke:#ff0000;stroke-width:1.5;" x="387.172532" xlink:href="#m2f4149a215" y="197.207029"/>
     <use style="fill:#ff0000;stroke:#ff0000;stroke-width:1.5;" x="394.447336" xlink:href="#m2f4149a215" y="193.017069"/>
     <use style="fill:#ff0000;stroke:#ff0000;stroke-width:1.5;" x="401.722141" xlink:href="#m2f4149a215" y="202.793643"/>
     <use style="fill:#ff0000;stroke:#ff0000;stroke-width:1.5;" x="408.996945" xlink:href="#m2f4149a215" y="208.380256"/>
     <use style="fill:#ff0000;stroke:#ff0000;stroke-width:1.5;" x="416.271749" xlink:href="#m2f4149a215" y="203.491969"/>
     <use style="fill:#ff0000;stroke:#ff0000;stroke-width:1.5;" x="423.546553" xlink:href="#m2f4149a215" y="218.855157"/>
    </g>
   </g>
   <g id="matplotlib.axis_1">
    <g id="xtick_1">
     <g id="line2d_1">
      <defs>
       <path d="M 0 0 
L 0 3.5 
" id="md7b3796ca9" style="stroke:#000000;stroke-width:0.8;"/>
      </defs>
      <g>
       <use style="stroke:#000000;stroke-width:0.8;" x="67.081142" xlink:href="#md7b3796ca9" y="407.335312"/>
      </g>
     </g>
     <g id="text_1">
      <!-- 0 -->
      <defs>
       <path d="M 50.140625 45.609375 
Q 53.265625 41.84375 54.796875 36.78125 
Q 56.34375 31.734375 56.34375 26.21875 
Q 56.34375 19.578125 54.4375 14.328125 
Q 52.546875 9.078125 49.21875 5.609375 
Q 45.796875 2.046875 41.109375 0.234375 
Q 36.421875 -1.5625 30.671875 -1.5625 
Q 24.359375 -1.5625 19.421875 0.53125 
Q 14.5 2.640625 11.421875 6.296875 
Q 8.203125 10.109375 6.609375 15.203125 
Q 5.03125 20.3125 5.03125 26.21875 
Q 5.03125 32.03125 6.5625 36.90625 
Q 8.109375 41.796875 11.375 45.75 
Q 14.5 49.5625 19.421875 51.75 
Q 24.359375 53.953125 30.71875 53.953125 
Q 37.40625 53.953125 42.1875 51.703125 
Q 46.96875 49.46875 50.140625 45.609375 
z
M 45.5625 26.21875 
Q 45.5625 37.84375 41.578125 44.234375 
Q 37.59375 50.640625 30.765625 50.640625 
Q 23.828125 50.640625 19.828125 44.234375 
Q 15.828125 37.84375 15.828125 26.21875 
Q 15.828125 15.1875 19.65625 8.46875 
Q 23.484375 1.765625 30.671875 1.765625 
Q 37.84375 1.765625 41.703125 8.46875 
Q 45.5625 15.1875 45.5625 26.21875 
z
" id="Georgia-30"/>
      </defs>
      <g transform="translate(63.398642 423.406562)scale(0.12 -0.12)">
       <use xlink:href="#Georgia-30"/>
      </g>
     </g>
    </g>
    <g id="xtick_2">
     <g id="line2d_2">
      <g>
       <use style="stroke:#000000;stroke-width:0.8;" x="139.829185" xlink:href="#md7b3796ca9" y="407.335312"/>
      </g>
     </g>
     <g id="text_2">
      <!-- 10 -->
      <defs>
       <path d="M 39.5 0 
L 6.59375 0 
L 6.59375 3.46875 
Q 8.0625 3.5625 11.15625 3.875 
Q 14.265625 4.203125 15.4375 4.546875 
Q 16.9375 5.03125 17.75 6.125 
Q 18.5625 7.234375 18.5625 9.421875 
L 18.5625 43.703125 
L 6.390625 43.703125 
L 6.390625 47.796875 
L 9.078125 47.796875 
Q 14.359375 47.796875 18.53125 49.75 
Q 22.703125 51.703125 24.515625 53.953125 
L 28.5625 53.953125 
Q 28.421875 50.78125 28.265625 46.53125 
Q 28.125 42.28125 28.125 38.921875 
L 28.125 9.96875 
Q 28.125 8.25 28.875 6.90625 
Q 29.640625 5.5625 31.0625 4.9375 
Q 32.328125 4.390625 35.203125 3.953125 
Q 38.09375 3.515625 39.5 3.46875 
z
" id="Georgia-31"/>
      </defs>
      <g transform="translate(133.56856 423.406562)scale(0.12 -0.12)">
       <use xlink:href="#Georgia-31"/>
       <use x="42.96875" xlink:href="#Georgia-30"/>
      </g>
     </g>
    </g>
    <g id="xtick_3">
     <g id="line2d_3">
      <g>
       <use style="stroke:#000000;stroke-width:0.8;" x="212.577228" xlink:href="#md7b3796ca9" y="407.335312"/>
      </g>
     </g>
     <g id="text_3">
      <!-- 20 -->
      <defs>
       <path d="M 51.125 0 
L 5.375 0 
L 5.375 6.640625 
Q 6.6875 8.15625 9.03125 10.03125 
Q 11.375 11.921875 14.59375 14.109375 
Q 16.546875 15.4375 19.28125 17 
Q 22.015625 18.5625 25.484375 20.40625 
Q 29.34375 22.46875 31.421875 24.03125 
Q 33.5 25.59375 35.203125 27.875 
Q 36.328125 29.390625 37.015625 31.65625 
Q 37.703125 33.9375 37.703125 38.140625 
Q 37.703125 44.234375 34.421875 47.09375 
Q 31.15625 49.953125 26.03125 49.953125 
Q 22.859375 49.953125 20.015625 48.703125 
Q 17.1875 47.46875 15.765625 45.265625 
Q 16.109375 43.703125 16.625 41.546875 
Q 17.140625 39.40625 17.140625 37.359375 
Q 17.140625 35.5 15.59375 34.0625 
Q 14.0625 32.625 11.03125 32.625 
Q 8.59375 32.625 7.265625 34.296875 
Q 5.953125 35.984375 5.953125 38.8125 
Q 5.953125 41.453125 7.421875 44.109375 
Q 8.890625 46.78125 11.625 49.03125 
Q 14.3125 51.21875 18.265625 52.578125 
Q 22.21875 53.953125 26.8125 53.953125 
Q 36.8125 53.953125 42.6875 49.484375 
Q 48.578125 45.015625 48.578125 37.546875 
Q 48.578125 33.984375 47.53125 31.046875 
Q 46.484375 28.125 44.140625 25.875 
Q 41.546875 23.390625 38.078125 21.609375 
Q 34.625 19.828125 27.484375 16.65625 
Q 23.25 14.75 19.578125 12.671875 
Q 15.921875 10.59375 13.578125 8.640625 
L 51.125 8.640625 
z
" id="Georgia-32"/>
      </defs>
      <g transform="translate(205.543166 423.406562)scale(0.12 -0.12)">
       <use xlink:href="#Georgia-32"/>
       <use x="55.859375" xlink:href="#Georgia-30"/>
      </g>
     </g>
    </g>
    <g id="xtick_4">
     <g id="line2d_4">
      <g>
       <use style="stroke:#000000;stroke-width:0.8;" x="285.325272" xlink:href="#md7b3796ca9" y="407.335312"/>
      </g>
     </g>
     <g id="text_4">
      <!-- 30 -->
      <defs>
       <path d="M 23.78125 -17.828125 
Q 19.1875 -17.828125 15.375 -16.671875 
Q 11.578125 -15.53125 8.84375 -13.578125 
Q 6.109375 -11.625 4.609375 -9.078125 
Q 3.125 -6.546875 3.125 -3.859375 
Q 3.125 -1.46875 4.296875 0.453125 
Q 5.46875 2.390625 8.0625 2.390625 
Q 10.984375 2.390625 12.515625 0.953125 
Q 14.0625 -0.484375 14.0625 -2.34375 
Q 14.0625 -3.90625 13.546875 -6.296875 
Q 13.03125 -8.6875 12.75 -9.71875 
Q 13.09375 -10.15625 13.984375 -10.890625 
Q 14.890625 -11.625 16.21875 -12.203125 
Q 17.78125 -12.9375 19.484375 -13.375 
Q 21.1875 -13.8125 24.3125 -13.8125 
Q 27.25 -13.8125 29.953125 -12.828125 
Q 32.671875 -11.859375 34.71875 -9.71875 
Q 36.859375 -7.46875 38.0625 -4.46875 
Q 39.265625 -1.46875 39.265625 3.421875 
Q 39.265625 6.0625 38.703125 8.640625 
Q 38.140625 11.234375 36.625 13.140625 
Q 35.109375 15.046875 32.5 16.09375 
Q 29.890625 17.140625 25.875 17.140625 
L 19.484375 17.140625 
L 19.484375 22.75 
L 23.734375 22.75 
Q 30.46875 22.75 33.4375 26.453125 
Q 36.421875 30.171875 36.421875 37.640625 
Q 36.421875 43.75 33.546875 46.84375 
Q 30.671875 49.953125 25.390625 49.953125 
Q 22.859375 49.953125 21.21875 49.34375 
Q 19.578125 48.734375 18.5625 48.140625 
Q 17.328125 47.46875 16.546875 46.625 
Q 15.765625 45.796875 15.375 45.40625 
Q 15.71875 43.84375 16.203125 41.578125 
Q 16.703125 39.3125 16.703125 37.25 
Q 16.703125 35.453125 15.15625 34 
Q 13.625 32.5625 10.640625 32.5625 
Q 8.0625 32.5625 6.859375 34.421875 
Q 5.671875 36.28125 5.671875 38.71875 
Q 5.671875 41.265625 7.078125 43.890625 
Q 8.5 46.53125 11.28125 48.828125 
Q 14.0625 51.125 18.0625 52.53125 
Q 22.078125 53.953125 27.296875 53.953125 
Q 33.296875 53.953125 37.21875 52.171875 
Q 41.15625 50.390625 43.40625 47.859375 
Q 45.609375 45.359375 46.4375 42.625 
Q 47.265625 39.890625 47.265625 37.9375 
Q 47.265625 35.5 46.578125 33.03125 
Q 45.90625 30.5625 44.34375 28.46875 
Q 42.625 26.171875 39.8125 24.28125 
Q 37.015625 22.40625 32.765625 21.234375 
L 32.765625 20.453125 
Q 35.5 20.21875 38.59375 19.234375 
Q 41.703125 18.265625 44.1875 16.359375 
Q 46.78125 14.359375 48.4375 11.203125 
Q 50.09375 8.0625 50.09375 3.21875 
Q 50.09375 -6.15625 42.578125 -11.984375 
Q 35.0625 -17.828125 23.78125 -17.828125 
z
" id="Georgia-33"/>
      </defs>
      <g transform="translate(278.332459 423.406562)scale(0.12 -0.12)">
       <use xlink:href="#Georgia-33"/>
       <use x="55.175781" xlink:href="#Georgia-30"/>
      </g>
     </g>
    </g>
    <g id="xtick_5">
     <g id="line2d_5">
      <g>
       <use style="stroke:#000000;stroke-width:0.8;" x="358.073315" xlink:href="#md7b3796ca9" y="407.335312"/>
      </g>
     </g>
     <g id="text_5">
      <!-- 40 -->
      <defs>
       <path d="M 52.9375 4.390625 
L 43.015625 4.390625 
L 43.015625 -17.828125 
L 33.640625 -17.828125 
L 33.640625 4.390625 
L 2.390625 4.390625 
L 2.390625 11.921875 
L 36.625 53.65625 
L 43.015625 53.65625 
L 43.015625 10.796875 
L 52.9375 10.796875 
z
M 33.640625 10.796875 
L 33.640625 42.78125 
L 7.28125 10.796875 
z
" id="Georgia-34"/>
      </defs>
      <g transform="translate(351.000815 423.406562)scale(0.12 -0.12)">
       <use xlink:href="#Georgia-34"/>
       <use x="56.494141" xlink:href="#Georgia-30"/>
      </g>
     </g>
    </g>
    <g id="xtick_6">
     <g id="line2d_6">
      <g>
       <use style="stroke:#000000;stroke-width:0.8;" x="430.821358" xlink:href="#md7b3796ca9" y="407.335312"/>
      </g>
     </g>
     <g id="text_6">
      <!-- 50 -->
      <defs>
       <path d="M 41.15625 22.90625 
Q 44.390625 20.359375 46.515625 16.359375 
Q 48.640625 12.359375 48.640625 6.34375 
Q 48.640625 -4.15625 41.453125 -10.984375 
Q 34.28125 -17.828125 23.25 -17.828125 
Q 14.703125 -17.828125 8.78125 -13.765625 
Q 2.875 -9.71875 2.875 -4.34375 
Q 2.875 -1.859375 4.09375 0 
Q 5.328125 1.859375 7.859375 1.859375 
Q 10.796875 1.859375 12.328125 0.3125 
Q 13.875 -1.21875 13.875 -3.03125 
Q 13.875 -4.59375 13.328125 -6.9375 
Q 12.796875 -9.28125 12.5 -10.40625 
Q 12.890625 -10.75 13.765625 -11.328125 
Q 14.65625 -11.921875 15.875 -12.453125 
Q 17.140625 -12.984375 18.96875 -13.390625 
Q 20.796875 -13.8125 23.25 -13.8125 
Q 26.375 -13.8125 29.15625 -12.546875 
Q 31.9375 -11.28125 33.84375 -8.796875 
Q 35.9375 -6.0625 36.984375 -2.5625 
Q 38.03125 0.921875 38.03125 6.296875 
Q 38.03125 13.1875 34.203125 17.703125 
Q 30.375 22.21875 24.125 22.21875 
Q 20.21875 22.21875 16.8125 20.75 
Q 13.421875 19.28125 10.75 15.875 
L 7.46875 17.140625 
L 11.625 52.390625 
L 46.578125 52.390625 
L 46.578125 43.703125 
L 15.578125 43.703125 
L 13.03125 23 
Q 15.234375 24.5625 18.8125 26.09375 
Q 22.40625 27.640625 26.703125 27.640625 
Q 30.28125 27.640625 34.109375 26.53125 
Q 37.9375 25.4375 41.15625 22.90625 
z
" id="Georgia-35"/>
      </defs>
      <g transform="translate(423.96917 423.406562)scale(0.12 -0.12)">
       <use xlink:href="#Georgia-35"/>
       <use x="52.832031" xlink:href="#Georgia-30"/>
      </g>
     </g>
    </g>
    <g id="text_7">
     <!-- $k$ -->
     <defs>
      <path d="M 46.09375 42.796875 
L 46.09375 41.203125 
Q 42.5 41 38.5 38.25 
Q 34.5 35.5 23.59375 25.796875 
L 27.296875 17 
Q 32.796875 4.09375 35.40625 4.09375 
Q 37.5 4.09375 39.90625 8.296875 
Q 40.40625 9.09375 41.40625 10.90625 
L 42.90625 9.796875 
Q 39.40625 3.5 37.09375 1.203125 
Q 34.796875 -1.09375 31.796875 -1.09375 
Q 29.59375 -1.09375 27.84375 0.65625 
Q 26.09375 2.40625 23.703125 7.09375 
Q 20.703125 12.90625 17.703125 21.203125 
L 13.703125 18 
L 8.90625 0 
L 1.40625 0 
L 15.5 52.796875 
Q 16.90625 57.796875 17.296875 61.59375 
Q 17 64 12.203125 64 
L 10.40625 64 
L 10.40625 65.59375 
Q 17.90625 66.5 26.09375 68.296875 
L 26.703125 67.703125 
L 14.703125 22.09375 
L 19 25.40625 
Q 33.296875 36.40625 33.296875 39.40625 
Q 33.296875 41.203125 29.59375 41.203125 
L 28.203125 41.203125 
L 28.203125 42.796875 
z
" id="STIXGeneral-Italic-6b"/>
     </defs>
     <g transform="translate(245.35125 442.104062)scale(0.16 -0.16)">
      <use transform="translate(0 0.703125)" xlink:href="#STIXGeneral-Italic-6b"/>
     </g>
    </g>
   </g>
   <g id="matplotlib.axis_2">
    <g id="ytick_1">
     <g id="line2d_7">
      <defs>
       <path d="M 0 0 
L -3.5 0 
" id="m97b1c28a51" style="stroke:#000000;stroke-width:0.8;"/>
      </defs>
      <g>
       <use style="stroke:#000000;stroke-width:0.8;" x="53.65125" xlink:href="#m97b1c28a51" y="378.771973"/>
      </g>
     </g>
     <g id="text_8">
      <!-- 40 -->
      <g transform="translate(32.50625 383.307598)scale(0.12 -0.12)">
       <use xlink:href="#Georgia-34"/>
       <use x="56.494141" xlink:href="#Georgia-30"/>
      </g>
     </g>
    </g>
    <g id="ytick_2">
     <g id="line2d_8">
      <g>
       <use style="stroke:#000000;stroke-width:0.8;" x="53.65125" xlink:href="#m97b1c28a51" y="320.112529"/>
      </g>
     </g>
     <g id="text_9">
      <!-- 50 -->
      <g transform="translate(32.946875 324.648154)scale(0.12 -0.12)">
       <use xlink:href="#Georgia-35"/>
       <use x="52.832031" xlink:href="#Georgia-30"/>
      </g>
     </g>
    </g>
    <g id="ytick_3">
     <g id="line2d_9">
      <g>
       <use style="stroke:#000000;stroke-width:0.8;" x="53.65125" xlink:href="#m97b1c28a51" y="261.453086"/>
      </g>
     </g>
     <g id="text_10">
      <!-- 60 -->
      <defs>
       <path d="M 52.484375 22.515625 
Q 52.484375 17.4375 50.65625 12.984375 
Q 48.828125 8.546875 45.75 5.421875 
Q 42.1875 1.859375 37.859375 0.140625 
Q 33.546875 -1.5625 28.859375 -1.5625 
Q 23.4375 -1.5625 19.046875 0.4375 
Q 14.65625 2.4375 11.578125 6.109375 
Q 8.453125 9.8125 6.734375 15.1875 
Q 5.03125 20.5625 5.03125 27.25 
Q 5.03125 44.671875 15.40625 56.640625 
Q 25.78125 68.609375 43.21875 71 
L 44.09375 66.609375 
L 39.703125 65.828125 
Q 29.109375 62.40625 23.3125 55.171875 
Q 17.53125 47.953125 15.828125 37.640625 
Q 20.015625 41.3125 24.109375 42.828125 
Q 28.21875 44.34375 32.765625 44.34375 
Q 40.921875 44.34375 46.703125 38.09375 
Q 52.484375 31.84375 52.484375 22.515625 
z
M 41.890625 21.1875 
Q 41.890625 29.109375 38.25 33.890625 
Q 34.625 38.671875 28.515625 38.671875 
Q 24.859375 38.671875 21.703125 37.296875 
Q 18.5625 35.9375 15.625 32.71875 
Q 15.578125 32.125 15.46875 30 
Q 15.375 27.875 15.375 26.65625 
Q 15.375 15.234375 19.109375 8.765625 
Q 22.859375 2.296875 28.953125 2.296875 
Q 34.765625 2.296875 38.328125 7.34375 
Q 41.890625 12.40625 41.890625 21.1875 
z
" id="Georgia-36"/>
      </defs>
      <g transform="translate(32.495 265.988711)scale(0.12 -0.12)">
       <use xlink:href="#Georgia-36"/>
       <use x="56.591797" xlink:href="#Georgia-30"/>
      </g>
     </g>
    </g>
    <g id="ytick_4">
     <g id="line2d_10">
      <g>
       <use style="stroke:#000000;stroke-width:0.8;" x="53.65125" xlink:href="#m97b1c28a51" y="202.793643"/>
      </g>
     </g>
     <g id="text_11">
      <!-- 70 -->
      <defs>
       <path d="M 50.25 49.21875 
L 15.4375 -17.828125 
L 9.328125 -17.828125 
L 42.09375 44.1875 
L 22.90625 44.1875 
Q 18.65625 44.1875 16.265625 44.09375 
Q 13.875 44 11.859375 43.171875 
Q 10.359375 42.53125 9.15625 39.921875 
Q 7.953125 37.3125 7.328125 33.25 
L 4.34375 33.25 
L 4.34375 52.390625 
L 50.25 52.390625 
z
" id="Georgia-37"/>
      </defs>
      <g transform="translate(33.25625 207.329268)scale(0.12 -0.12)">
       <use xlink:href="#Georgia-37"/>
       <use x="50.244141" xlink:href="#Georgia-30"/>
      </g>
     </g>
    </g>
    <g id="ytick_5">
     <g id="line2d_11">
      <g>
       <use style="stroke:#000000;stroke-width:0.8;" x="53.65125" xlink:href="#m97b1c28a51" y="144.134199"/>
      </g>
     </g>
     <g id="text_12">
      <!-- 80 -->
      <defs>
       <path d="M 54.546875 18.359375 
Q 54.546875 10.15625 47.453125 4.25 
Q 40.375 -1.65625 28.859375 -1.65625 
Q 18.0625 -1.65625 11.5625 3.765625 
Q 5.078125 9.1875 5.078125 17.71875 
Q 5.078125 24.03125 8.90625 28.25 
Q 12.75 32.46875 20.265625 35.40625 
Q 14.0625 38.875 10.984375 43.015625 
Q 7.90625 47.171875 7.90625 52.390625 
Q 7.90625 60.359375 14.671875 65.71875 
Q 21.4375 71.09375 30.859375 71.09375 
Q 40.28125 71.09375 46.109375 66.015625 
Q 51.953125 60.9375 51.953125 53.265625 
Q 51.953125 48.34375 48.734375 43.921875 
Q 45.515625 39.5 39.265625 36.671875 
Q 47.359375 33.203125 50.953125 29 
Q 54.546875 24.8125 54.546875 18.359375 
z
M 42.71875 53.8125 
Q 42.71875 59.765625 39.171875 63.5 
Q 35.640625 67.234375 30.125 67.234375 
Q 24.609375 67.234375 21.09375 63.640625 
Q 17.578125 60.0625 17.578125 54.734375 
Q 17.578125 49.609375 21.578125 46.046875 
Q 25.59375 42.484375 35.84375 38.421875 
Q 39.5 40.765625 41.109375 44.625 
Q 42.71875 48.484375 42.71875 53.8125 
z
M 44.78125 16.0625 
Q 44.78125 19.140625 43.453125 21.453125 
Q 42.140625 23.78125 39.65625 25.6875 
Q 37.25 27.546875 32.984375 29.5625 
Q 28.71875 31.59375 23.734375 33.6875 
Q 19.046875 31.15625 16.84375 27.21875 
Q 14.65625 23.296875 14.65625 18.265625 
Q 14.65625 11.078125 18.875 6.65625 
Q 23.09375 2.25 30.125 2.25 
Q 36.859375 2.25 40.8125 6.15625 
Q 44.78125 10.0625 44.78125 16.0625 
z
" id="Georgia-38"/>
      </defs>
      <g transform="translate(32.13125 148.669824)scale(0.12 -0.12)">
       <use xlink:href="#Georgia-38"/>
       <use x="59.619141" xlink:href="#Georgia-30"/>
      </g>
     </g>
    </g>
    <g id="ytick_6">
     <g id="line2d_12">
      <g>
       <use style="stroke:#000000;stroke-width:0.8;" x="53.65125" xlink:href="#m97b1c28a51" y="85.474756"/>
      </g>
     </g>
     <g id="text_13">
      <!-- 90 -->
      <defs>
       <path d="M 51.5625 25.203125 
Q 51.5625 16.703125 48.875 9.203125 
Q 46.1875 1.703125 41.15625 -3.953125 
Q 36.234375 -9.515625 29.125 -13.203125 
Q 22.015625 -16.890625 13.234375 -18.0625 
L 12.359375 -13.671875 
L 16.75 -12.890625 
Q 27.25 -9.578125 33.15625 -2.6875 
Q 39.0625 4.203125 40.765625 14.796875 
Q 36.765625 11.375 32.78125 9.78125 
Q 28.8125 8.203125 23.828125 8.203125 
Q 15.875 8.203125 9.984375 14.40625 
Q 4.109375 20.609375 4.109375 30.03125 
Q 4.109375 40.140625 10.90625 47.0625 
Q 17.71875 54 27.734375 54 
Q 38.625 54 45.09375 46.234375 
Q 51.5625 38.484375 51.5625 25.203125 
z
M 41.21875 25.78125 
Q 41.21875 37.203125 37.46875 43.671875 
Q 33.734375 50.140625 27.640625 50.140625 
Q 21.828125 50.140625 18.265625 45.140625 
Q 14.703125 40.140625 14.703125 31.34375 
Q 14.703125 23.4375 18.328125 18.65625 
Q 21.96875 13.875 28.078125 13.875 
Q 31.890625 13.875 35.0625 15.265625 
Q 38.234375 16.65625 40.96875 19.734375 
Q 40.96875 19.921875 41.03125 20.5 
Q 41.109375 21.09375 41.109375 22.171875 
Q 41.109375 22.859375 41.15625 23.828125 
Q 41.21875 24.8125 41.21875 25.78125 
z
" id="Georgia-39"/>
      </defs>
      <g transform="translate(32.495 90.010381)scale(0.12 -0.12)">
       <use xlink:href="#Georgia-39"/>
       <use x="56.591797" xlink:href="#Georgia-30"/>
      </g>
     </g>
    </g>
    <g id="ytick_7">
     <g id="line2d_13">
      <g>
       <use style="stroke:#000000;stroke-width:0.8;" x="53.65125" xlink:href="#m97b1c28a51" y="26.815313"/>
      </g>
     </g>
     <g id="text_14">
      <!-- 100 -->
      <g transform="translate(26.765 31.350937)scale(0.12 -0.12)">
       <use xlink:href="#Georgia-31"/>
       <use x="42.96875" xlink:href="#Georgia-30"/>
       <use x="104.345703" xlink:href="#Georgia-30"/>
      </g>
     </g>
    </g>
    <g id="text_15">
     <!-- Accuracy (%) -->
     <defs>
      <path d="M 69.390625 0 
L 40.53125 0 
L 40.53125 3.46875 
Q 44.34375 3.71875 46.84375 4.4375 
Q 49.359375 5.171875 49.359375 6.25 
Q 49.359375 6.6875 49.265625 7.3125 
Q 49.171875 7.953125 48.96875 8.453125 
L 43.21875 23.96875 
L 18.953125 23.96875 
Q 17.578125 20.5625 16.71875 18.015625 
Q 15.875 15.484375 15.1875 13.328125 
Q 14.546875 11.234375 14.296875 9.90625 
Q 14.0625 8.59375 14.0625 7.765625 
Q 14.0625 5.8125 17.140625 4.734375 
Q 20.21875 3.65625 24.078125 3.46875 
L 24.078125 0 
L -2 0 
L -2 3.46875 
Q -0.734375 3.5625 1.171875 4.03125 
Q 3.078125 4.5 4.296875 5.28125 
Q 6.25 6.59375 7.328125 8.03125 
Q 8.40625 9.46875 9.421875 12.015625 
Q 14.65625 25.046875 20.953125 41.296875 
Q 27.25 57.5625 32.171875 70.265625 
L 36.078125 70.265625 
L 59.1875 10.5 
Q 59.90625 8.59375 60.828125 7.421875 
Q 61.765625 6.25 63.421875 5.125 
Q 64.546875 4.4375 66.359375 3.96875 
Q 68.171875 3.515625 69.390625 3.46875 
z
M 41.453125 28.328125 
L 30.953125 55.171875 
L 20.65625 28.328125 
z
" id="Georgia-41"/>
      <path d="M 25.78125 -1.265625 
Q 15.328125 -1.265625 9.421875 5.65625 
Q 3.515625 12.59375 3.515625 24.265625 
Q 3.515625 29.34375 5.09375 33.765625 
Q 6.6875 38.1875 9.71875 41.796875 
Q 12.59375 45.265625 16.9375 47.390625 
Q 21.296875 49.515625 26.421875 49.515625 
Q 33.5 49.515625 37.9375 46.109375 
Q 42.390625 42.71875 42.390625 36.859375 
Q 42.390625 34.421875 41.21875 32.546875 
Q 40.046875 30.671875 37.359375 30.671875 
Q 34.46875 30.671875 32.875 32.125 
Q 31.296875 33.59375 31.296875 35.40625 
Q 31.296875 37.59375 31.875 39.90625 
Q 32.46875 42.234375 32.5625 43.3125 
Q 31.6875 44.828125 29.953125 45.328125 
Q 28.21875 45.84375 26.21875 45.84375 
Q 23.875 45.84375 21.75 44.84375 
Q 19.625 43.84375 17.625 41.15625 
Q 15.828125 38.71875 14.703125 34.5625 
Q 13.578125 30.421875 13.578125 24.65625 
Q 13.578125 15.578125 17.59375 9.84375 
Q 21.625 4.109375 28.171875 4.109375 
Q 32.90625 4.109375 36.109375 6.390625 
Q 39.3125 8.6875 42.046875 13.28125 
L 45.171875 11.234375 
Q 41.9375 5.46875 36.65625 2.09375 
Q 31.390625 -1.265625 25.78125 -1.265625 
z
" id="Georgia-63"/>
      <path d="M 55.125 0.875 
L 39.453125 -0.203125 
L 38.71875 0.484375 
L 38.71875 6.59375 
L 38.421875 6.59375 
Q 37.25 5.375 35.78125 3.984375 
Q 34.328125 2.59375 32.421875 1.46875 
Q 30.21875 0.140625 28.171875 -0.53125 
Q 26.125 -1.21875 22.359375 -1.21875 
Q 15.96875 -1.21875 12.625 2.953125 
Q 9.28125 7.125 9.28125 15.09375 
L 9.28125 38.140625 
Q 9.28125 39.890625 8.609375 41.078125 
Q 7.953125 42.28125 6.6875 43.171875 
Q 5.8125 43.75 4.484375 44.015625 
Q 3.171875 44.28125 1.703125 44.390625 
L 1.703125 47.5625 
L 17.78125 48.734375 
L 18.5 48.046875 
L 18.5 14.59375 
Q 18.5 9.375 20.84375 6.734375 
Q 23.1875 4.109375 26.46875 4.109375 
Q 29.15625 4.109375 31.25 4.9375 
Q 33.34375 5.765625 34.765625 6.890625 
Q 36.078125 7.90625 37.078125 9.046875 
Q 38.09375 10.203125 38.625 11.1875 
L 38.625 38.484375 
Q 38.625 40.09375 37.9375 41.328125 
Q 37.25 42.578125 36.03125 43.453125 
Q 35.15625 44.046875 33.421875 44.15625 
Q 31.6875 44.28125 29.546875 44.390625 
L 29.546875 47.5625 
L 47.015625 48.734375 
L 47.75 48.046875 
L 47.75 9.8125 
Q 47.75 8.15625 48.4375 6.984375 
Q 49.125 5.8125 50.34375 4.984375 
Q 51.21875 4.4375 52.4375 4.265625 
Q 53.65625 4.109375 55.125 4.046875 
z
" id="Georgia-75"/>
      <path d="M 40.375 41.9375 
Q 40.375 39.453125 39.15625 37.515625 
Q 37.9375 35.59375 35.40625 35.59375 
Q 32.671875 35.59375 31.21875 37 
Q 29.78125 38.421875 29.78125 40.140625 
Q 29.78125 41.21875 29.953125 42.09375 
Q 30.125 42.96875 30.28125 43.84375 
Q 27.984375 43.84375 24.90625 41.984375 
Q 21.828125 40.140625 19.671875 36.71875 
L 19.671875 8.6875 
Q 19.671875 6.984375 20.328125 5.90625 
Q 21 4.828125 22.40625 4.296875 
Q 23.640625 3.8125 25.5625 3.5625 
Q 27.484375 3.328125 28.90625 3.21875 
L 28.90625 0 
L 3.515625 0 
L 3.515625 3.21875 
Q 4.640625 3.328125 5.828125 3.421875 
Q 7.03125 3.515625 7.90625 3.8125 
Q 9.28125 4.25 9.9375 5.34375 
Q 10.59375 6.453125 10.59375 8.203125 
L 10.59375 37.9375 
Q 10.59375 39.453125 9.890625 40.921875 
Q 9.1875 42.390625 7.90625 43.265625 
Q 6.984375 43.84375 5.703125 44.109375 
Q 4.4375 44.390625 2.984375 44.484375 
L 2.984375 47.65625 
L 19 48.734375 
L 19.671875 48.046875 
L 19.671875 41.265625 
L 19.921875 41.265625 
Q 22.953125 45.21875 26.65625 47.265625 
Q 30.375 49.3125 33.453125 49.3125 
Q 36.53125 49.3125 38.453125 47.3125 
Q 40.375 45.3125 40.375 41.9375 
z
" id="Georgia-72"/>
      <path d="M 49.125 0.875 
Q 46.828125 0.046875 45.09375 -0.46875 
Q 43.359375 -0.984375 41.15625 -0.984375 
Q 37.359375 -0.984375 35.078125 0.796875 
Q 32.8125 2.59375 32.171875 6 
L 31.890625 6 
Q 28.71875 2.484375 25.078125 0.625 
Q 21.4375 -1.21875 16.3125 -1.21875 
Q 10.890625 -1.21875 7.390625 2.09375 
Q 3.90625 5.421875 3.90625 10.796875 
Q 3.90625 13.578125 4.6875 15.765625 
Q 5.46875 17.96875 7.03125 19.734375 
Q 8.25 21.1875 10.25 22.328125 
Q 12.25 23.484375 14.015625 24.171875 
Q 16.21875 25 22.921875 27.25 
Q 29.640625 29.5 31.984375 30.765625 
L 31.984375 35.59375 
Q 31.984375 36.234375 31.71875 38.03125 
Q 31.453125 39.84375 30.5625 41.453125 
Q 29.59375 43.265625 27.8125 44.609375 
Q 26.03125 45.953125 22.75 45.953125 
Q 20.515625 45.953125 18.578125 45.1875 
Q 16.65625 44.4375 15.875 43.609375 
Q 15.875 42.625 16.328125 40.71875 
Q 16.796875 38.8125 16.796875 37.203125 
Q 16.796875 35.5 15.25 34.078125 
Q 13.71875 32.671875 10.984375 32.671875 
Q 8.546875 32.671875 7.390625 34.40625 
Q 6.25 36.140625 6.25 38.28125 
Q 6.25 40.53125 7.828125 42.578125 
Q 9.421875 44.625 11.96875 46.234375 
Q 14.15625 47.609375 17.28125 48.5625 
Q 20.40625 49.515625 23.390625 49.515625 
Q 27.484375 49.515625 30.53125 48.953125 
Q 33.59375 48.390625 36.078125 46.53125 
Q 38.578125 44.734375 39.859375 41.625 
Q 41.15625 38.53125 41.15625 33.640625 
Q 41.15625 26.65625 41.015625 21.265625 
Q 40.875 15.875 40.875 9.46875 
Q 40.875 7.5625 41.53125 6.4375 
Q 42.1875 5.328125 43.5625 4.546875 
Q 44.28125 4.109375 45.875 4.046875 
Q 47.46875 4 49.125 4 
z
M 32.078125 26.65625 
Q 27.9375 25.4375 24.8125 24.265625 
Q 21.6875 23.09375 19 21.34375 
Q 16.546875 19.671875 15.125 17.40625 
Q 13.71875 15.140625 13.71875 12.015625 
Q 13.71875 7.953125 15.84375 6.046875 
Q 17.96875 4.15625 21.234375 4.15625 
Q 24.703125 4.15625 27.34375 5.828125 
Q 29.984375 7.515625 31.78125 9.8125 
z
" id="Georgia-61"/>
      <path d="M -0.140625 -15.71875 
Q -0.140625 -13.28125 1.203125 -11.734375 
Q 2.546875 -10.203125 4.546875 -10.203125 
Q 6.109375 -10.203125 7.21875 -10.78125 
Q 8.34375 -11.375 9.234375 -12.3125 
Q 9.96875 -13.03125 10.796875 -14.296875 
Q 11.625 -15.578125 12.109375 -16.40625 
Q 14.546875 -15.09375 17.9375 -9.515625 
Q 21.34375 -3.953125 22.859375 0.25 
Q 18.21875 11.8125 14.453125 20.9375 
Q 10.6875 30.078125 6.59375 39.84375 
Q 5.671875 42.09375 3.46875 43.328125 
Q 1.265625 44.578125 -0.921875 44.921875 
L -0.921875 48.140625 
L 21.046875 48.140625 
L 21.046875 44.734375 
Q 19.578125 44.671875 17.53125 44.109375 
Q 15.484375 43.5625 15.484375 42.828125 
Q 15.484375 42.53125 15.703125 41.84375 
Q 15.921875 41.15625 16.21875 40.4375 
Q 18.0625 35.59375 21.875 26.484375 
Q 25.6875 17.390625 27.78125 11.921875 
Q 29.984375 17.140625 32.34375 22.734375 
Q 34.71875 28.328125 37.640625 35.9375 
Q 37.984375 36.859375 38.625 38.5 
Q 39.265625 40.140625 39.265625 41.3125 
Q 39.265625 42.578125 37.03125 43.671875 
Q 34.8125 44.78125 32.8125 45.015625 
L 32.8125 48.140625 
L 50.6875 48.140625 
L 50.6875 45.125 
Q 49.21875 44.875 46.828125 43.4375 
Q 44.4375 42 43.265625 39.359375 
Q 37.453125 25.875 32.9375 14.796875 
Q 28.421875 3.71875 26.078125 -1.515625 
Q 23 -8.34375 20.578125 -12.171875 
Q 18.171875 -16.015625 15.875 -18.21875 
Q 13.625 -20.265625 11.796875 -20.96875 
Q 9.96875 -21.6875 8.015625 -21.6875 
Q 4.203125 -21.6875 2.03125 -19.875 
Q -0.140625 -18.0625 -0.140625 -15.71875 
z
" id="Georgia-79"/>
      <path id="Georgia-20"/>
      <path d="M 34.234375 -16.015625 
Q 20.90625 -14.359375 13.3125 -2.578125 
Q 5.71875 9.1875 5.71875 29.109375 
Q 5.71875 49.359375 13.3125 61.203125 
Q 20.90625 73.046875 34.234375 74.8125 
L 34.234375 70.75 
Q 24.859375 69.046875 19.96875 58.78125 
Q 15.09375 48.53125 15.09375 29 
Q 15.09375 10.40625 19.875 0.078125 
Q 24.65625 -10.25 34.234375 -12.015625 
z
" id="Georgia-28"/>
      <path d="M 38.484375 52.875 
Q 38.484375 44.28125 33.84375 39.546875 
Q 29.203125 34.8125 21.875 34.8125 
Q 14.546875 34.8125 9.9375 39.546875 
Q 5.328125 44.28125 5.328125 52.875 
Q 5.328125 60.984375 9.84375 65.96875 
Q 14.359375 70.953125 21.921875 70.953125 
Q 29.390625 70.953125 33.9375 65.96875 
Q 38.484375 60.984375 38.484375 52.875 
z
M 30.21875 52.875 
Q 30.21875 59.234375 28.125 63.28125 
Q 26.03125 67.328125 21.921875 67.328125 
Q 17.71875 67.328125 15.640625 63.28125 
Q 13.578125 59.234375 13.578125 52.875 
Q 13.578125 46.390625 15.671875 42.40625 
Q 17.78125 38.421875 21.875 38.421875 
Q 25.984375 38.421875 28.09375 42.40625 
Q 30.21875 46.390625 30.21875 52.875 
z
M 76.421875 16.5 
Q 76.421875 7.90625 71.78125 3.171875 
Q 67.140625 -1.5625 59.8125 -1.5625 
Q 52.484375 -1.5625 47.875 3.171875 
Q 43.265625 7.90625 43.265625 16.5 
Q 43.265625 24.609375 47.78125 29.59375 
Q 52.296875 34.578125 59.859375 34.578125 
Q 67.328125 34.578125 71.875 29.59375 
Q 76.421875 24.609375 76.421875 16.5 
z
M 68.171875 16.5 
Q 68.171875 22.859375 66.0625 26.90625 
Q 63.96875 30.953125 59.859375 30.953125 
Q 55.671875 30.953125 53.59375 26.90625 
Q 51.515625 22.859375 51.515625 16.5 
Q 51.515625 10.015625 53.609375 6.03125 
Q 55.71875 2.046875 59.8125 2.046875 
Q 63.921875 2.046875 66.046875 6.03125 
Q 68.171875 10.015625 68.171875 16.5 
z
M 73.1875 69.53125 
L 15.625 0 
L 8.890625 0 
L 66.3125 69.53125 
z
" id="Georgia-25"/>
      <path d="M 31.78125 29.109375 
Q 31.78125 9.1875 24.1875 -2.578125 
Q 16.609375 -14.359375 3.265625 -16.015625 
L 3.265625 -12.015625 
Q 12.84375 -10.25 17.625 0.078125 
Q 22.40625 10.40625 22.40625 29 
Q 22.40625 48.53125 17.515625 58.78125 
Q 12.640625 69.046875 3.265625 70.75 
L 3.265625 74.8125 
Q 16.609375 73.046875 24.1875 61.203125 
Q 31.78125 49.359375 31.78125 29.109375 
z
" id="Georgia-29"/>
     </defs>
     <g transform="translate(19.295 263.656562)rotate(-90)scale(0.16 -0.16)">
      <use xlink:href="#Georgia-41"/>
      <use x="67.089844" xlink:href="#Georgia-63"/>
      <use x="112.5" xlink:href="#Georgia-63"/>
      <use x="157.910156" xlink:href="#Georgia-75"/>
      <use x="215.429688" xlink:href="#Georgia-72"/>
      <use x="256.396484" xlink:href="#Georgia-61"/>
      <use x="306.787109" xlink:href="#Georgia-63"/>
      <use x="352.197266" xlink:href="#Georgia-79"/>
      <use x="401.416016" xlink:href="#Georgia-20"/>
      <use x="425.537109" xlink:href="#Georgia-28"/>
      <use x="463.037109" xlink:href="#Georgia-25"/>
      <use x="544.775391" xlink:href="#Georgia-29"/>
     </g>
    </g>
   </g>
   <g id="patch_3">
    <path d="M 53.65125 407.335312 
L 53.65125 26.815313 
" style="fill:none;stroke:#000000;stroke-linecap:square;stroke-linejoin:miter;stroke-width:0.8;"/>
   </g>
   <g id="patch_4">
    <path d="M 444.25125 407.335312 
L 444.25125 26.815313 
" style="fill:none;stroke:#000000;stroke-linecap:square;stroke-linejoin:miter;stroke-width:0.8;"/>
   </g>
   <g id="patch_5">
    <path d="M 53.65125 407.335312 
L 444.25125 407.335312 
" style="fill:none;stroke:#000000;stroke-linecap:square;stroke-linejoin:miter;stroke-width:0.8;"/>
   </g>
   <g id="patch_6">
    <path d="M 53.65125 26.815312 
L 444.25125 26.815312 
" style="fill:none;stroke:#000000;stroke-linecap:square;stroke-linejoin:miter;stroke-width:0.8;"/>
   </g>
   <g id="text_16">
    <!-- Accuracy vs k for kNN -->
    <defs>
     <path d="M 51.078125 45.171875 
Q 48.875 44.78125 46.890625 43.578125 
Q 44.921875 42.390625 43.5 39.359375 
Q 40.625 32.8125 37.546875 25.703125 
Q 34.46875 18.609375 31.15625 10.796875 
Q 30.171875 8.546875 29.078125 5.46875 
Q 27.984375 2.390625 27.046875 -0.4375 
L 23.25 -0.4375 
Q 18.609375 11.03125 14.703125 20.484375 
Q 10.796875 29.9375 6.59375 39.84375 
Q 5.609375 42.09375 3.4375 43.328125 
Q 1.265625 44.578125 -0.921875 44.921875 
L -0.921875 48.140625 
L 21.34375 48.140625 
L 21.34375 44.734375 
Q 19.875 44.671875 17.671875 44.109375 
Q 15.484375 43.5625 15.484375 42.578125 
Q 15.484375 42.4375 15.71875 41.828125 
Q 15.96875 41.21875 16.21875 40.4375 
Q 18.21875 35.453125 21.875 26.515625 
Q 25.53125 17.578125 27.828125 12.109375 
Q 29.59375 16.3125 32.25 22.5625 
Q 34.90625 28.8125 37.984375 36.53125 
Q 38.484375 37.84375 38.921875 38.984375 
Q 39.359375 40.140625 39.359375 41.3125 
Q 39.359375 42.140625 38.546875 42.796875 
Q 37.75 43.453125 36.625 43.953125 
Q 35.5 44.4375 34.421875 44.671875 
Q 33.34375 44.921875 32.671875 45.015625 
L 32.671875 48.140625 
L 51.078125 48.140625 
z
" id="Georgia-76"/>
     <path d="M 35.296875 23.578125 
Q 37.3125 21.828125 38.375 19.53125 
Q 39.453125 17.234375 39.453125 13.921875 
Q 39.453125 7.234375 34.4375 2.984375 
Q 29.4375 -1.265625 21.484375 -1.265625 
Q 17.28125 -1.265625 13.734375 0.25 
Q 10.203125 1.765625 8.6875 3.03125 
L 7.71875 -0.140625 
L 4.046875 -0.140625 
L 3.5625 16.609375 
L 6.9375 16.609375 
Q 7.328125 14.703125 8.59375 12.15625 
Q 9.859375 9.625 11.671875 7.5625 
Q 13.578125 5.421875 16.234375 3.953125 
Q 18.890625 2.484375 22.21875 2.484375 
Q 26.90625 2.484375 29.4375 4.609375 
Q 31.984375 6.734375 31.984375 10.6875 
Q 31.984375 12.75 31.171875 14.234375 
Q 30.375 15.71875 28.8125 16.84375 
Q 27.203125 17.96875 24.859375 18.875 
Q 22.515625 19.78125 19.625 20.65625 
Q 17.328125 21.34375 14.515625 22.53125 
Q 11.71875 23.734375 9.71875 25.34375 
Q 7.5625 27.046875 6.1875 29.53125 
Q 4.828125 32.03125 4.828125 35.40625 
Q 4.828125 41.3125 9.21875 45.40625 
Q 13.625 49.515625 21 49.515625 
Q 23.828125 49.515625 26.78125 48.78125 
Q 29.734375 48.046875 31.59375 47.015625 
L 32.71875 49.5625 
L 36.234375 49.5625 
L 36.96875 34.078125 
L 33.59375 34.078125 
Q 32.5625 39.265625 29.171875 42.5 
Q 25.78125 45.75 20.90625 45.75 
Q 16.890625 45.75 14.59375 43.75 
Q 12.3125 41.75 12.3125 38.921875 
Q 12.3125 36.71875 13.0625 35.25 
Q 13.8125 33.796875 15.328125 32.765625 
Q 16.796875 31.78125 19.015625 30.921875 
Q 21.234375 30.078125 24.515625 29 
Q 27.734375 27.984375 30.59375 26.609375 
Q 33.453125 25.25 35.296875 23.578125 
z
" id="Georgia-73"/>
     <path d="M 54.546875 0 
L 39.984375 0 
Q 36.1875 5.515625 31.828125 11.8125 
Q 27.484375 18.109375 22.796875 24.078125 
L 18.796875 20.3125 
L 18.796875 8.890625 
Q 18.796875 7.125 19.421875 5.96875 
Q 20.0625 4.828125 21.484375 4.296875 
Q 22.65625 3.8125 23.734375 3.5625 
Q 24.8125 3.328125 26.21875 3.21875 
L 26.21875 0 
L 2.59375 0 
L 2.59375 3.21875 
Q 3.71875 3.328125 4.9375 3.4375 
Q 6.15625 3.5625 6.984375 3.8125 
Q 8.34375 4.25 9.03125 5.34375 
Q 9.71875 6.453125 9.71875 8.203125 
L 9.71875 64.15625 
Q 9.71875 65.96875 8.953125 67.546875 
Q 8.203125 69.140625 6.984375 69.96875 
Q 5.953125 70.75 3.78125 70.984375 
Q 1.609375 71.234375 0.296875 71.34375 
L 0.296875 74.46875 
L 18.109375 75.59375 
L 18.796875 74.859375 
L 18.796875 23.921875 
Q 22.609375 27.734375 27.03125 32.09375 
Q 31.453125 36.46875 34.46875 39.890625 
Q 34.859375 40.328125 35.328125 41.03125 
Q 35.796875 41.75 35.796875 42.1875 
Q 35.796875 43.5 33.671875 44.140625 
Q 31.546875 44.78125 29.59375 45.015625 
L 29.59375 48.140625 
L 50.78125 48.140625 
L 50.78125 45.125 
Q 46.6875 43.890625 43.53125 42.0625 
Q 40.375 40.234375 38.71875 38.765625 
Q 37.546875 37.796875 35.390625 35.59375 
Q 33.25 33.40625 29.390625 29.828125 
Q 33.40625 24.90625 38.40625 18.015625 
Q 43.40625 11.140625 45.703125 8.0625 
Q 47.859375 5.171875 49.5625 4.296875 
Q 51.265625 3.421875 54.546875 3.21875 
z
" id="Georgia-6b"/>
     <path d="M 39.359375 69.78125 
Q 39.359375 67.578125 38.1875 66.0625 
Q 37.015625 64.546875 34.625 64.546875 
Q 33.109375 64.546875 31.953125 65.1875 
Q 30.8125 65.828125 29.828125 66.890625 
Q 28.859375 67.96875 28.03125 69.328125 
Q 27.203125 70.703125 26.609375 71.53125 
Q 23.34375 71.390625 21.5625 66.96875 
Q 19.78125 62.546875 19.78125 52.875 
L 19.78125 47.953125 
L 32.171875 47.953125 
L 32.171875 43.265625 
L 19.78125 43.265625 
L 19.78125 8.6875 
Q 19.78125 6.984375 20.4375 5.90625 
Q 21.09375 4.828125 22.515625 4.296875 
Q 23.6875 3.859375 25.640625 3.59375 
Q 27.59375 3.328125 29 3.21875 
L 29 0 
L 3.609375 0 
L 3.609375 3.21875 
Q 4.734375 3.328125 5.921875 3.421875 
Q 7.125 3.515625 8.015625 3.8125 
Q 9.375 4.25 10.03125 5.34375 
Q 10.6875 6.453125 10.6875 8.203125 
L 10.6875 43.265625 
L 1.171875 43.265625 
L 1.171875 47.953125 
L 10.6875 47.953125 
L 10.6875 51.03125 
Q 10.6875 62.015625 16.375 68.828125 
Q 22.078125 75.640625 30.609375 75.640625 
Q 34.96875 75.640625 37.15625 73.921875 
Q 39.359375 72.21875 39.359375 69.78125 
z
" id="Georgia-66"/>
     <path d="M 50.4375 24.5625 
Q 50.4375 19.484375 48.828125 14.578125 
Q 47.21875 9.671875 44.234375 6.25 
Q 40.875 2.34375 36.421875 0.4375 
Q 31.984375 -1.46875 26.46875 -1.46875 
Q 21.875 -1.46875 17.71875 0.265625 
Q 13.578125 2 10.359375 5.328125 
Q 7.171875 8.59375 5.296875 13.296875 
Q 3.421875 18.015625 3.421875 23.875 
Q 3.421875 35.15625 9.984375 42.328125 
Q 16.546875 49.515625 27.203125 49.515625 
Q 37.3125 49.515625 43.875 42.703125 
Q 50.4375 35.890625 50.4375 24.5625 
z
M 40.328125 24.46875 
Q 40.328125 28.125 39.59375 32.203125 
Q 38.875 36.28125 37.40625 39.109375 
Q 35.84375 42.140625 33.296875 43.96875 
Q 30.765625 45.796875 27.09375 45.796875 
Q 23.34375 45.796875 20.671875 43.9375 
Q 18.015625 42.09375 16.359375 38.875 
Q 14.796875 35.890625 14.15625 32.078125 
Q 13.53125 28.265625 13.53125 24.703125 
Q 13.53125 20.015625 14.28125 16.03125 
Q 15.046875 12.0625 16.703125 8.9375 
Q 18.359375 5.8125 20.875 4.03125 
Q 23.390625 2.25 27.09375 2.25 
Q 33.203125 2.25 36.765625 8.15625 
Q 40.328125 14.0625 40.328125 24.46875 
z
" id="Georgia-6f"/>
     <path d="M 75.875 65.828125 
Q 74.515625 65.765625 71.671875 65.03125 
Q 68.84375 64.3125 67.625 63.53125 
Q 65.875 62.3125 65.265625 58.84375 
Q 64.65625 55.375 64.65625 50.046875 
L 64.65625 -0.6875 
L 60.40625 -0.6875 
L 18.40625 56 
L 18.40625 20.265625 
Q 18.40625 14.265625 19.15625 11.03125 
Q 19.921875 7.8125 21.484375 6.453125 
Q 22.609375 5.375 26.125 4.4375 
Q 29.640625 3.515625 30.765625 3.46875 
L 30.765625 0 
L 2.34375 0 
L 2.34375 3.46875 
Q 3.65625 3.5625 6.78125 4.421875 
Q 9.90625 5.28125 10.6875 5.953125 
Q 12.40625 7.328125 13.03125 10.125 
Q 13.671875 12.9375 13.671875 19.734375 
L 13.671875 53.859375 
Q 13.671875 56.109375 12.890625 58.34375 
Q 12.109375 60.59375 10.796875 61.8125 
Q 9.03125 63.421875 6.03125 64.5625 
Q 3.03125 65.71875 1.171875 65.828125 
L 1.171875 69.28125 
L 20.953125 69.28125 
L 59.90625 16.453125 
L 59.90625 49.421875 
Q 59.90625 55.46875 59.125 58.71875 
Q 58.34375 61.96875 56.890625 63.03125 
Q 55.515625 63.96875 52.40625 64.84375 
Q 49.3125 65.71875 47.703125 65.828125 
L 47.703125 69.28125 
L 75.875 69.28125 
z
" id="Georgia-4e"/>
    </defs>
    <g transform="translate(160.867969 20.815312)scale(0.18 -0.18)">
     <use xlink:href="#Georgia-41"/>
     <use x="67.089844" xlink:href="#Georgia-63"/>
     <use x="112.5" xlink:href="#Georgia-63"/>
     <use x="157.910156" xlink:href="#Georgia-75"/>
     <use x="215.429688" xlink:href="#Georgia-72"/>
     <use x="256.396484" xlink:href="#Georgia-61"/>
     <use x="306.787109" xlink:href="#Georgia-63"/>
     <use x="352.197266" xlink:href="#Georgia-79"/>
     <use x="401.416016" xlink:href="#Georgia-20"/>
     <use x="425.537109" xlink:href="#Georgia-76"/>
     <use x="475.195312" xlink:href="#Georgia-73"/>
     <use x="518.408203" xlink:href="#Georgia-20"/>
     <use x="542.529297" xlink:href="#Georgia-6b"/>
     <use x="596.09375" xlink:href="#Georgia-20"/>
     <use x="620.214844" xlink:href="#Georgia-66"/>
     <use x="652.734375" xlink:href="#Georgia-6f"/>
     <use x="706.640625" xlink:href="#Georgia-72"/>
     <use x="747.607422" xlink:href="#Georgia-20"/>
     <use x="771.728516" xlink:href="#Georgia-6b"/>
     <use x="825.292969" xlink:href="#Georgia-4e"/>
     <use x="902.001953" xlink:href="#Georgia-4e"/>
    </g>
   </g>
  </g>
 </g>
 <defs>
  <clipPath id="p749fdb7209">
   <rect height="380.52" width="390.6" x="53.65125" y="26.815312"/>
  </clipPath>
 </defs>
</svg>
