<?xml version="1.0" encoding="utf-8" standalone="no"?>
<!DOCTYPE svg PUBLIC "-//W3C//DTD SVG 1.1//EN"
  "http://www.w3.org/Graphics/SVG/1.1/DTD/svg11.dtd">
<!-- Created with matplotlib (https://matplotlib.org/) -->
<svg height="284.640938pt" version="1.1" viewBox="0 0 414.02375 284.640938" width="414.02375pt" xmlns="http://www.w3.org/2000/svg" xmlns:xlink="http://www.w3.org/1999/xlink">
 <defs>
  <style type="text/css">
*{stroke-linecap:butt;stroke-linejoin:round;}
  </style>
 </defs>
 <g id="figure_1">
  <g id="patch_1">
   <path d="M -0 284.640938 
L 414.02375 284.640938 
L 414.02375 0 
L -0 0 
z
" style="fill:none;"/>
  </g>
  <g id="axes_1">
   <g id="patch_2">
    <path d="M 68.52375 241.277813 
L 403.32375 241.277813 
L 403.32375 23.837812 
L 68.52375 23.837812 
z
" style="fill:#ffffff;"/>
   </g>
   <g id="PathCollection_1">
    <defs>
     <path d="M -1.581139 1.581139 
L 1.581139 -1.581139 
M -1.581139 -1.581139 
L 1.581139 1.581139 
" id="mc100f21b61" style="stroke:#0000ff;stroke-width:1.5;"/>
    </defs>
    <g clip-path="url(#pce3206ef3a)">
     <use style="fill:#0000ff;stroke:#0000ff;stroke-width:1.5;" x="246.36742" xlink:href="#mc100f21b61" y="38.403156"/>
     <use style="fill:#0000ff;stroke:#0000ff;stroke-width:1.5;" x="365.797496" xlink:href="#mc100f21b61" y="75.040606"/>
     <use style="fill:#0000ff;stroke:#0000ff;stroke-width:1.5;" x="333.724426" xlink:href="#mc100f21b61" y="85.089164"/>
     <use style="fill:#0000ff;stroke:#0000ff;stroke-width:1.5;" x="327.937143" xlink:href="#mc100f21b61" y="69.832979"/>
     <use style="fill:#0000ff;stroke:#0000ff;stroke-width:1.5;" x="170.91953" xlink:href="#mc100f21b61" y="47.77616"/>
     <use style="fill:#0000ff;stroke:#0000ff;stroke-width:1.5;" x="340.192547" xlink:href="#mc100f21b61" y="64.720636"/>
     <use style="fill:#0000ff;stroke:#0000ff;stroke-width:1.5;" x="196.865876" xlink:href="#mc100f21b61" y="159.265204"/>
     <use style="fill:#0000ff;stroke:#0000ff;stroke-width:1.5;" x="260.001028" xlink:href="#mc100f21b61" y="36.206104"/>
     <use style="fill:#0000ff;stroke:#0000ff;stroke-width:1.5;" x="271.39063" xlink:href="#mc100f21b61" y="51.558072"/>
     <use style="fill:#0000ff;stroke:#0000ff;stroke-width:1.5;" x="342.371231" xlink:href="#mc100f21b61" y="141.596795"/>
     <use style="fill:#0000ff;stroke:#0000ff;stroke-width:1.5;" x="219.247508" xlink:href="#mc100f21b61" y="49.756523"/>
     <use style="fill:#0000ff;stroke:#0000ff;stroke-width:1.5;" x="316.130007" xlink:href="#mc100f21b61" y="150.161385"/>
     <use style="fill:#0000ff;stroke:#0000ff;stroke-width:1.5;" x="308.84272" xlink:href="#mc100f21b61" y="47.229741"/>
     <use style="fill:#0000ff;stroke:#0000ff;stroke-width:1.5;" x="346.532565" xlink:href="#mc100f21b61" y="74.005879"/>
     <use style="fill:#0000ff;stroke:#0000ff;stroke-width:1.5;" x="380.218858" xlink:href="#mc100f21b61" y="90.72637"/>
     <use style="fill:#0000ff;stroke:#0000ff;stroke-width:1.5;" x="331.889953" xlink:href="#mc100f21b61" y="128.573481"/>
     <use style="fill:#0000ff;stroke:#0000ff;stroke-width:1.5;" x="185.252099" xlink:href="#mc100f21b61" y="49.792697"/>
     <use style="fill:#0000ff;stroke:#0000ff;stroke-width:1.5;" x="330.849754" xlink:href="#mc100f21b61" y="89.474658"/>
     <use style="fill:#0000ff;stroke:#0000ff;stroke-width:1.5;" x="271.184289" xlink:href="#mc100f21b61" y="157.060974"/>
     <use style="fill:#0000ff;stroke:#0000ff;stroke-width:1.5;" x="285.408379" xlink:href="#mc100f21b61" y="153.319038"/>
     <use style="fill:#0000ff;stroke:#0000ff;stroke-width:1.5;" x="255.395004" xlink:href="#mc100f21b61" y="156.009353"/>
     <use style="fill:#0000ff;stroke:#0000ff;stroke-width:1.5;" x="368.551867" xlink:href="#mc100f21b61" y="137.252581"/>
     <use style="fill:#0000ff;stroke:#0000ff;stroke-width:1.5;" x="284.673415" xlink:href="#mc100f21b61" y="34.434747"/>
     <use style="fill:#0000ff;stroke:#0000ff;stroke-width:1.5;" x="367.545398" xlink:href="#mc100f21b61" y="77.286685"/>
     <use style="fill:#0000ff;stroke:#0000ff;stroke-width:1.5;" x="341.314448" xlink:href="#mc100f21b61" y="143.775521"/>
     <use style="fill:#0000ff;stroke:#0000ff;stroke-width:1.5;" x="250.562075" xlink:href="#mc100f21b61" y="35.518147"/>
     <use style="fill:#0000ff;stroke:#0000ff;stroke-width:1.5;" x="381.113869" xlink:href="#mc100f21b61" y="126.13311"/>
     <use style="fill:#0000ff;stroke:#0000ff;stroke-width:1.5;" x="309.678024" xlink:href="#mc100f21b61" y="53.867791"/>
     <use style="fill:#0000ff;stroke:#0000ff;stroke-width:1.5;" x="291.343828" xlink:href="#mc100f21b61" y="39.153393"/>
     <use style="fill:#0000ff;stroke:#0000ff;stroke-width:1.5;" x="197.641924" xlink:href="#mc100f21b61" y="52.201663"/>
     <use style="fill:#0000ff;stroke:#0000ff;stroke-width:1.5;" x="265.353332" xlink:href="#mc100f21b61" y="40.215878"/>
     <use style="fill:#0000ff;stroke:#0000ff;stroke-width:1.5;" x="182.60618" xlink:href="#mc100f21b61" y="159.943515"/>
     <use style="fill:#0000ff;stroke:#0000ff;stroke-width:1.5;" x="212.684144" xlink:href="#mc100f21b61" y="156.383608"/>
     <use style="fill:#0000ff;stroke:#0000ff;stroke-width:1.5;" x="309.865906" xlink:href="#mc100f21b61" y="49.90367"/>
     <use style="fill:#0000ff;stroke:#0000ff;stroke-width:1.5;" x="387.209805" xlink:href="#mc100f21b61" y="126.637009"/>
     <use style="fill:#0000ff;stroke:#0000ff;stroke-width:1.5;" x="286.970202" xlink:href="#mc100f21b61" y="56.648165"/>
     <use style="fill:#0000ff;stroke:#0000ff;stroke-width:1.5;" x="297.004058" xlink:href="#mc100f21b61" y="37.983306"/>
     <use style="fill:#0000ff;stroke:#0000ff;stroke-width:1.5;" x="312.987884" xlink:href="#mc100f21b61" y="73.130673"/>
     <use style="fill:#0000ff;stroke:#0000ff;stroke-width:1.5;" x="192.10799" xlink:href="#mc100f21b61" y="47.294996"/>
     <use style="fill:#0000ff;stroke:#0000ff;stroke-width:1.5;" x="308.757992" xlink:href="#mc100f21b61" y="162.485896"/>
     <use style="fill:#0000ff;stroke:#0000ff;stroke-width:1.5;" x="286.102916" xlink:href="#mc100f21b61" y="152.290832"/>
     <use style="fill:#0000ff;stroke:#0000ff;stroke-width:1.5;" x="359.325911" xlink:href="#mc100f21b61" y="84.069975"/>
     <use style="fill:#0000ff;stroke:#0000ff;stroke-width:1.5;" x="310.558901" xlink:href="#mc100f21b61" y="49.351472"/>
     <use style="fill:#0000ff;stroke:#0000ff;stroke-width:1.5;" x="262.199738" xlink:href="#mc100f21b61" y="38.791205"/>
     <use style="fill:#0000ff;stroke:#0000ff;stroke-width:1.5;" x="263.490047" xlink:href="#mc100f21b61" y="45.161502"/>
     <use style="fill:#0000ff;stroke:#0000ff;stroke-width:1.5;" x="238.780094" xlink:href="#mc100f21b61" y="49.151699"/>
     <use style="fill:#0000ff;stroke:#0000ff;stroke-width:1.5;" x="289.345812" xlink:href="#mc100f21b61" y="48.430804"/>
     <use style="fill:#0000ff;stroke:#0000ff;stroke-width:1.5;" x="298.826492" xlink:href="#mc100f21b61" y="69.886013"/>
     <use style="fill:#0000ff;stroke:#0000ff;stroke-width:1.5;" x="286.912533" xlink:href="#mc100f21b61" y="46.260393"/>
     <use style="fill:#0000ff;stroke:#0000ff;stroke-width:1.5;" x="305.980559" xlink:href="#mc100f21b61" y="63.574711"/>
     <use style="fill:#0000ff;stroke:#0000ff;stroke-width:1.5;" x="233.286178" xlink:href="#mc100f21b61" y="51.313489"/>
     <use style="fill:#0000ff;stroke:#0000ff;stroke-width:1.5;" x="265.041058" xlink:href="#mc100f21b61" y="164.137445"/>
     <use style="fill:#0000ff;stroke:#0000ff;stroke-width:1.5;" x="347.196342" xlink:href="#mc100f21b61" y="134.034318"/>
     <use style="fill:#0000ff;stroke:#0000ff;stroke-width:1.5;" x="365.537417" xlink:href="#mc100f21b61" y="80.406351"/>
     <use style="fill:#0000ff;stroke:#0000ff;stroke-width:1.5;" x="258.631207" xlink:href="#mc100f21b61" y="46.179789"/>
     <use style="fill:#0000ff;stroke:#0000ff;stroke-width:1.5;" x="333.6887" xlink:href="#mc100f21b61" y="58.654261"/>
     <use style="fill:#0000ff;stroke:#0000ff;stroke-width:1.5;" x="325.225054" xlink:href="#mc100f21b61" y="55.468827"/>
     <use style="fill:#0000ff;stroke:#0000ff;stroke-width:1.5;" x="282.106279" xlink:href="#mc100f21b61" y="45.789919"/>
     <use style="fill:#0000ff;stroke:#0000ff;stroke-width:1.5;" x="226.64828" xlink:href="#mc100f21b61" y="160.351699"/>
     <use style="fill:#0000ff;stroke:#0000ff;stroke-width:1.5;" x="272.232682" xlink:href="#mc100f21b61" y="55.241466"/>
     <use style="fill:#0000ff;stroke:#0000ff;stroke-width:1.5;" x="287.585092" xlink:href="#mc100f21b61" y="158.228079"/>
     <use style="fill:#0000ff;stroke:#0000ff;stroke-width:1.5;" x="335.3265" xlink:href="#mc100f21b61" y="67.780635"/>
     <use style="fill:#0000ff;stroke:#0000ff;stroke-width:1.5;" x="341.939668" xlink:href="#mc100f21b61" y="151.485161"/>
     <use style="fill:#0000ff;stroke:#0000ff;stroke-width:1.5;" x="275.87311" xlink:href="#mc100f21b61" y="152.468514"/>
     <use style="fill:#0000ff;stroke:#0000ff;stroke-width:1.5;" x="341.377505" xlink:href="#mc100f21b61" y="54.29382"/>
     <use style="fill:#0000ff;stroke:#0000ff;stroke-width:1.5;" x="211.868825" xlink:href="#mc100f21b61" y="44.956334"/>
     <use style="fill:#0000ff;stroke:#0000ff;stroke-width:1.5;" x="191.647023" xlink:href="#mc100f21b61" y="48.115779"/>
     <use style="fill:#0000ff;stroke:#0000ff;stroke-width:1.5;" x="328.063287" xlink:href="#mc100f21b61" y="154.54681"/>
     <use style="fill:#0000ff;stroke:#0000ff;stroke-width:1.5;" x="343.348411" xlink:href="#mc100f21b61" y="148.557623"/>
     <use style="fill:#0000ff;stroke:#0000ff;stroke-width:1.5;" x="387.3831" xlink:href="#mc100f21b61" y="116.548693"/>
     <use style="fill:#0000ff;stroke:#0000ff;stroke-width:1.5;" x="338.87857" xlink:href="#mc100f21b61" y="69.636735"/>
     <use style="fill:#0000ff;stroke:#0000ff;stroke-width:1.5;" x="336.926535" xlink:href="#mc100f21b61" y="132.71473"/>
     <use style="fill:#0000ff;stroke:#0000ff;stroke-width:1.5;" x="363.292098" xlink:href="#mc100f21b61" y="113.880602"/>
     <use style="fill:#0000ff;stroke:#0000ff;stroke-width:1.5;" x="317.885387" xlink:href="#mc100f21b61" y="61.504924"/>
     <use style="fill:#0000ff;stroke:#0000ff;stroke-width:1.5;" x="241.533942" xlink:href="#mc100f21b61" y="163.689335"/>
    </g>
   </g>
   <g id="PathCollection_2">
    <defs>
     <path d="M -1.581139 1.581139 
L 1.581139 -1.581139 
M -1.581139 -1.581139 
L 1.581139 1.581139 
" id="m5397f24deb" style="stroke:#ff0000;stroke-width:1.5;"/>
    </defs>
    <g clip-path="url(#pce3206ef3a)">
     <use style="fill:#ff0000;stroke:#ff0000;stroke-width:1.5;" x="181.958465" xlink:href="#m5397f24deb" y="224.331062"/>
     <use style="fill:#ff0000;stroke:#ff0000;stroke-width:1.5;" x="92.327805" xlink:href="#m5397f24deb" y="153.236839"/>
     <use style="fill:#ff0000;stroke:#ff0000;stroke-width:1.5;" x="227.482046" xlink:href="#m5397f24deb" y="96.840744"/>
     <use style="fill:#ff0000;stroke:#ff0000;stroke-width:1.5;" x="125.677148" xlink:href="#m5397f24deb" y="116.120618"/>
     <use style="fill:#ff0000;stroke:#ff0000;stroke-width:1.5;" x="133.300377" xlink:href="#m5397f24deb" y="117.687217"/>
     <use style="fill:#ff0000;stroke:#ff0000;stroke-width:1.5;" x="158.408602" xlink:href="#m5397f24deb" y="121.080003"/>
     <use style="fill:#ff0000;stroke:#ff0000;stroke-width:1.5;" x="151.856156" xlink:href="#m5397f24deb" y="112.239954"/>
     <use style="fill:#ff0000;stroke:#ff0000;stroke-width:1.5;" x="220.405929" xlink:href="#m5397f24deb" y="211.893881"/>
     <use style="fill:#ff0000;stroke:#ff0000;stroke-width:1.5;" x="170.067793" xlink:href="#m5397f24deb" y="117.337464"/>
     <use style="fill:#ff0000;stroke:#ff0000;stroke-width:1.5;" x="115.295043" xlink:href="#m5397f24deb" y="149.912107"/>
     <use style="fill:#ff0000;stroke:#ff0000;stroke-width:1.5;" x="213.192487" xlink:href="#m5397f24deb" y="214.967505"/>
     <use style="fill:#ff0000;stroke:#ff0000;stroke-width:1.5;" x="130.081019" xlink:href="#m5397f24deb" y="135.314448"/>
     <use style="fill:#ff0000;stroke:#ff0000;stroke-width:1.5;" x="150.905482" xlink:href="#m5397f24deb" y="203.055427"/>
     <use style="fill:#ff0000;stroke:#ff0000;stroke-width:1.5;" x="191.703328" xlink:href="#m5397f24deb" y="112.503881"/>
     <use style="fill:#ff0000;stroke:#ff0000;stroke-width:1.5;" x="143.004599" xlink:href="#m5397f24deb" y="204.952472"/>
     <use style="fill:#ff0000;stroke:#ff0000;stroke-width:1.5;" x="222.565797" xlink:href="#m5397f24deb" y="215.371937"/>
     <use style="fill:#ff0000;stroke:#ff0000;stroke-width:1.5;" x="127.892275" xlink:href="#m5397f24deb" y="125.498935"/>
     <use style="fill:#ff0000;stroke:#ff0000;stroke-width:1.5;" x="110.772101" xlink:href="#m5397f24deb" y="144.144436"/>
     <use style="fill:#ff0000;stroke:#ff0000;stroke-width:1.5;" x="116.605316" xlink:href="#m5397f24deb" y="190.241656"/>
     <use style="fill:#ff0000;stroke:#ff0000;stroke-width:1.5;" x="145.447714" xlink:href="#m5397f24deb" y="106.802528"/>
     <use style="fill:#ff0000;stroke:#ff0000;stroke-width:1.5;" x="116.846199" xlink:href="#m5397f24deb" y="206.807524"/>
     <use style="fill:#ff0000;stroke:#ff0000;stroke-width:1.5;" x="293.127469" xlink:href="#m5397f24deb" y="111.45528"/>
     <use style="fill:#ff0000;stroke:#ff0000;stroke-width:1.5;" x="142.745761" xlink:href="#m5397f24deb" y="129.26279"/>
     <use style="fill:#ff0000;stroke:#ff0000;stroke-width:1.5;" x="175.993907" xlink:href="#m5397f24deb" y="116.316318"/>
     <use style="fill:#ff0000;stroke:#ff0000;stroke-width:1.5;" x="105.04593" xlink:href="#m5397f24deb" y="138.336629"/>
     <use style="fill:#ff0000;stroke:#ff0000;stroke-width:1.5;" x="114.607794" xlink:href="#m5397f24deb" y="124.37775"/>
     <use style="fill:#ff0000;stroke:#ff0000;stroke-width:1.5;" x="122.102624" xlink:href="#m5397f24deb" y="199.865757"/>
     <use style="fill:#ff0000;stroke:#ff0000;stroke-width:1.5;" x="135.975939" xlink:href="#m5397f24deb" y="116.559517"/>
     <use style="fill:#ff0000;stroke:#ff0000;stroke-width:1.5;" x="266.680685" xlink:href="#m5397f24deb" y="222.685478"/>
     <use style="fill:#ff0000;stroke:#ff0000;stroke-width:1.5;" x="172.279694" xlink:href="#m5397f24deb" y="221.021567"/>
     <use style="fill:#ff0000;stroke:#ff0000;stroke-width:1.5;" x="173.302061" xlink:href="#m5397f24deb" y="204.11851"/>
     <use style="fill:#ff0000;stroke:#ff0000;stroke-width:1.5;" x="194.022631" xlink:href="#m5397f24deb" y="217.208797"/>
     <use style="fill:#ff0000;stroke:#ff0000;stroke-width:1.5;" x="179.838286" xlink:href="#m5397f24deb" y="116.710612"/>
     <use style="fill:#ff0000;stroke:#ff0000;stroke-width:1.5;" x="104.043331" xlink:href="#m5397f24deb" y="142.406983"/>
     <use style="fill:#ff0000;stroke:#ff0000;stroke-width:1.5;" x="188.198996" xlink:href="#m5397f24deb" y="115.148442"/>
     <use style="fill:#ff0000;stroke:#ff0000;stroke-width:1.5;" x="119.141058" xlink:href="#m5397f24deb" y="209.485269"/>
     <use style="fill:#ff0000;stroke:#ff0000;stroke-width:1.5;" x="113.309342" xlink:href="#m5397f24deb" y="125.137408"/>
     <use style="fill:#ff0000;stroke:#ff0000;stroke-width:1.5;" x="216.295149" xlink:href="#m5397f24deb" y="97.28004"/>
     <use style="fill:#ff0000;stroke:#ff0000;stroke-width:1.5;" x="154.354526" xlink:href="#m5397f24deb" y="111.97943"/>
     <use style="fill:#ff0000;stroke:#ff0000;stroke-width:1.5;" x="193.059708" xlink:href="#m5397f24deb" y="222.291166"/>
     <use style="fill:#ff0000;stroke:#ff0000;stroke-width:1.5;" x="152.789341" xlink:href="#m5397f24deb" y="117.586633"/>
     <use style="fill:#ff0000;stroke:#ff0000;stroke-width:1.5;" x="194.119235" xlink:href="#m5397f24deb" y="219.959646"/>
     <use style="fill:#ff0000;stroke:#ff0000;stroke-width:1.5;" x="225.748562" xlink:href="#m5397f24deb" y="228.942542"/>
     <use style="fill:#ff0000;stroke:#ff0000;stroke-width:1.5;" x="101.915659" xlink:href="#m5397f24deb" y="124.245593"/>
     <use style="fill:#ff0000;stroke:#ff0000;stroke-width:1.5;" x="127.030956" xlink:href="#m5397f24deb" y="208.943136"/>
     <use style="fill:#ff0000;stroke:#ff0000;stroke-width:1.5;" x="181.898963" xlink:href="#m5397f24deb" y="104.39868"/>
     <use style="fill:#ff0000;stroke:#ff0000;stroke-width:1.5;" x="166.537277" xlink:href="#m5397f24deb" y="117.304728"/>
     <use style="fill:#ff0000;stroke:#ff0000;stroke-width:1.5;" x="271.758611" xlink:href="#m5397f24deb" y="96.850541"/>
     <use style="fill:#ff0000;stroke:#ff0000;stroke-width:1.5;" x="143.45346" xlink:href="#m5397f24deb" y="122.380366"/>
     <use style="fill:#ff0000;stroke:#ff0000;stroke-width:1.5;" x="100.049476" xlink:href="#m5397f24deb" y="168.012622"/>
     <use style="fill:#ff0000;stroke:#ff0000;stroke-width:1.5;" x="141.459672" xlink:href="#m5397f24deb" y="102.891234"/>
     <use style="fill:#ff0000;stroke:#ff0000;stroke-width:1.5;" x="193.677544" xlink:href="#m5397f24deb" y="100.795455"/>
     <use style="fill:#ff0000;stroke:#ff0000;stroke-width:1.5;" x="129.217238" xlink:href="#m5397f24deb" y="134.916562"/>
     <use style="fill:#ff0000;stroke:#ff0000;stroke-width:1.5;" x="247.850305" xlink:href="#m5397f24deb" y="220.404475"/>
     <use style="fill:#ff0000;stroke:#ff0000;stroke-width:1.5;" x="206.932029" xlink:href="#m5397f24deb" y="224.562208"/>
     <use style="fill:#ff0000;stroke:#ff0000;stroke-width:1.5;" x="169.512922" xlink:href="#m5397f24deb" y="214.477126"/>
     <use style="fill:#ff0000;stroke:#ff0000;stroke-width:1.5;" x="106.994897" xlink:href="#m5397f24deb" y="126.517739"/>
     <use style="fill:#ff0000;stroke:#ff0000;stroke-width:1.5;" x="212.603508" xlink:href="#m5397f24deb" y="230.345303"/>
     <use style="fill:#ff0000;stroke:#ff0000;stroke-width:1.5;" x="190.147296" xlink:href="#m5397f24deb" y="218.805268"/>
     <use style="fill:#ff0000;stroke:#ff0000;stroke-width:1.5;" x="84.873945" xlink:href="#m5397f24deb" y="156.105266"/>
     <use style="fill:#ff0000;stroke:#ff0000;stroke-width:1.5;" x="127.529079" xlink:href="#m5397f24deb" y="207.818287"/>
     <use style="fill:#ff0000;stroke:#ff0000;stroke-width:1.5;" x="223.772928" xlink:href="#m5397f24deb" y="95.087385"/>
     <use style="fill:#ff0000;stroke:#ff0000;stroke-width:1.5;" x="150.296226" xlink:href="#m5397f24deb" y="114.43034"/>
     <use style="fill:#ff0000;stroke:#ff0000;stroke-width:1.5;" x="180.595395" xlink:href="#m5397f24deb" y="109.860056"/>
     <use style="fill:#ff0000;stroke:#ff0000;stroke-width:1.5;" x="118.687953" xlink:href="#m5397f24deb" y="179.682384"/>
     <use style="fill:#ff0000;stroke:#ff0000;stroke-width:1.5;" x="175.414069" xlink:href="#m5397f24deb" y="102.694112"/>
     <use style="fill:#ff0000;stroke:#ff0000;stroke-width:1.5;" x="159.858359" xlink:href="#m5397f24deb" y="112.017307"/>
     <use style="fill:#ff0000;stroke:#ff0000;stroke-width:1.5;" x="111.158704" xlink:href="#m5397f24deb" y="143.895113"/>
     <use style="fill:#ff0000;stroke:#ff0000;stroke-width:1.5;" x="128.674035" xlink:href="#m5397f24deb" y="126.525545"/>
     <use style="fill:#ff0000;stroke:#ff0000;stroke-width:1.5;" x="171.973714" xlink:href="#m5397f24deb" y="114.066566"/>
     <use style="fill:#ff0000;stroke:#ff0000;stroke-width:1.5;" x="198.129768" xlink:href="#m5397f24deb" y="217.966522"/>
     <use style="fill:#ff0000;stroke:#ff0000;stroke-width:1.5;" x="122.490102" xlink:href="#m5397f24deb" y="185.433679"/>
     <use style="fill:#ff0000;stroke:#ff0000;stroke-width:1.5;" x="153.838618" xlink:href="#m5397f24deb" y="116.216611"/>
     <use style="fill:#ff0000;stroke:#ff0000;stroke-width:1.5;" x="121.148527" xlink:href="#m5397f24deb" y="152.828145"/>
     <use style="fill:#ff0000;stroke:#ff0000;stroke-width:1.5;" x="137.225334" xlink:href="#m5397f24deb" y="122.026842"/>
    </g>
   </g>
   <g id="matplotlib.axis_1">
    <g id="xtick_1">
     <g id="line2d_1">
      <defs>
       <path d="M 0 0 
L 0 3.5 
" id="mdc8eea61df" style="stroke:#000000;stroke-width:0.8;"/>
      </defs>
      <g>
       <use style="stroke:#000000;stroke-width:0.8;" x="81.423615" xlink:href="#mdc8eea61df" y="241.277813"/>
      </g>
     </g>
     <g id="text_1">
      <!-- −1.00 -->
      <defs>
       <path d="M 10.59375 35.5 
L 73.1875 35.5 
L 73.1875 27.203125 
L 10.59375 27.203125 
z
" id="DejaVuSans-8722"/>
       <path d="M 12.40625 8.296875 
L 28.515625 8.296875 
L 28.515625 63.921875 
L 10.984375 60.40625 
L 10.984375 69.390625 
L 28.421875 72.90625 
L 38.28125 72.90625 
L 38.28125 8.296875 
L 54.390625 8.296875 
L 54.390625 0 
L 12.40625 0 
z
" id="DejaVuSans-49"/>
       <path d="M 10.6875 12.40625 
L 21 12.40625 
L 21 0 
L 10.6875 0 
z
" id="DejaVuSans-46"/>
       <path d="M 31.78125 66.40625 
Q 24.171875 66.40625 20.328125 58.90625 
Q 16.5 51.421875 16.5 36.375 
Q 16.5 21.390625 20.328125 13.890625 
Q 24.171875 6.390625 31.78125 6.390625 
Q 39.453125 6.390625 43.28125 13.890625 
Q 47.125 21.390625 47.125 36.375 
Q 47.125 51.421875 43.28125 58.90625 
Q 39.453125 66.40625 31.78125 66.40625 
z
M 31.78125 74.21875 
Q 44.046875 74.21875 50.515625 64.515625 
Q 56.984375 54.828125 56.984375 36.375 
Q 56.984375 17.96875 50.515625 8.265625 
Q 44.046875 -1.421875 31.78125 -1.421875 
Q 19.53125 -1.421875 13.0625 8.265625 
Q 6.59375 17.96875 6.59375 36.375 
Q 6.59375 54.828125 13.0625 64.515625 
Q 19.53125 74.21875 31.78125 74.21875 
z
" id="DejaVuSans-48"/>
      </defs>
      <g transform="translate(63.036427 257.395938)scale(0.12 -0.12)">
       <use xlink:href="#DejaVuSans-8722"/>
       <use x="83.789062" xlink:href="#DejaVuSans-49"/>
       <use x="147.412109" xlink:href="#DejaVuSans-46"/>
       <use x="179.199219" xlink:href="#DejaVuSans-48"/>
       <use x="242.822266" xlink:href="#DejaVuSans-48"/>
      </g>
     </g>
    </g>
    <g id="xtick_2">
     <g id="line2d_2">
      <g>
       <use style="stroke:#000000;stroke-width:0.8;" x="119.66855" xlink:href="#mdc8eea61df" y="241.277813"/>
      </g>
     </g>
     <g id="text_2">
      <!-- −0.75 -->
      <defs>
       <path d="M 8.203125 72.90625 
L 55.078125 72.90625 
L 55.078125 68.703125 
L 28.609375 0 
L 18.3125 0 
L 43.21875 64.59375 
L 8.203125 64.59375 
z
" id="DejaVuSans-55"/>
       <path d="M 10.796875 72.90625 
L 49.515625 72.90625 
L 49.515625 64.59375 
L 19.828125 64.59375 
L 19.828125 46.734375 
Q 21.96875 47.46875 24.109375 47.828125 
Q 26.265625 48.1875 28.421875 48.1875 
Q 40.625 48.1875 47.75 41.5 
Q 54.890625 34.8125 54.890625 23.390625 
Q 54.890625 11.625 47.5625 5.09375 
Q 40.234375 -1.421875 26.90625 -1.421875 
Q 22.3125 -1.421875 17.546875 -0.640625 
Q 12.796875 0.140625 7.71875 1.703125 
L 7.71875 11.625 
Q 12.109375 9.234375 16.796875 8.0625 
Q 21.484375 6.890625 26.703125 6.890625 
Q 35.15625 6.890625 40.078125 11.328125 
Q 45.015625 15.765625 45.015625 23.390625 
Q 45.015625 31 40.078125 35.4375 
Q 35.15625 39.890625 26.703125 39.890625 
Q 22.75 39.890625 18.8125 39.015625 
Q 14.890625 38.140625 10.796875 36.28125 
z
" id="DejaVuSans-53"/>
      </defs>
      <g transform="translate(101.281363 257.395938)scale(0.12 -0.12)">
       <use xlink:href="#DejaVuSans-8722"/>
       <use x="83.789062" xlink:href="#DejaVuSans-48"/>
       <use x="147.412109" xlink:href="#DejaVuSans-46"/>
       <use x="179.199219" xlink:href="#DejaVuSans-55"/>
       <use x="242.822266" xlink:href="#DejaVuSans-53"/>
      </g>
     </g>
    </g>
    <g id="xtick_3">
     <g id="line2d_3">
      <g>
       <use style="stroke:#000000;stroke-width:0.8;" x="157.913486" xlink:href="#mdc8eea61df" y="241.277813"/>
      </g>
     </g>
     <g id="text_3">
      <!-- −0.50 -->
      <g transform="translate(139.526299 257.395938)scale(0.12 -0.12)">
       <use xlink:href="#DejaVuSans-8722"/>
       <use x="83.789062" xlink:href="#DejaVuSans-48"/>
       <use x="147.412109" xlink:href="#DejaVuSans-46"/>
       <use x="179.199219" xlink:href="#DejaVuSans-53"/>
       <use x="242.822266" xlink:href="#DejaVuSans-48"/>
      </g>
     </g>
    </g>
    <g id="xtick_4">
     <g id="line2d_4">
      <g>
       <use style="stroke:#000000;stroke-width:0.8;" x="196.158422" xlink:href="#mdc8eea61df" y="241.277813"/>
      </g>
     </g>
     <g id="text_4">
      <!-- −0.25 -->
      <defs>
       <path d="M 19.1875 8.296875 
L 53.609375 8.296875 
L 53.609375 0 
L 7.328125 0 
L 7.328125 8.296875 
Q 12.9375 14.109375 22.625 23.890625 
Q 32.328125 33.6875 34.8125 36.53125 
Q 39.546875 41.84375 41.421875 45.53125 
Q 43.3125 49.21875 43.3125 52.78125 
Q 43.3125 58.59375 39.234375 62.25 
Q 35.15625 65.921875 28.609375 65.921875 
Q 23.96875 65.921875 18.8125 64.3125 
Q 13.671875 62.703125 7.8125 59.421875 
L 7.8125 69.390625 
Q 13.765625 71.78125 18.9375 73 
Q 24.125 74.21875 28.421875 74.21875 
Q 39.75 74.21875 46.484375 68.546875 
Q 53.21875 62.890625 53.21875 53.421875 
Q 53.21875 48.921875 51.53125 44.890625 
Q 49.859375 40.875 45.40625 35.40625 
Q 44.1875 33.984375 37.640625 27.21875 
Q 31.109375 20.453125 19.1875 8.296875 
z
" id="DejaVuSans-50"/>
      </defs>
      <g transform="translate(177.771234 257.395938)scale(0.12 -0.12)">
       <use xlink:href="#DejaVuSans-8722"/>
       <use x="83.789062" xlink:href="#DejaVuSans-48"/>
       <use x="147.412109" xlink:href="#DejaVuSans-46"/>
       <use x="179.199219" xlink:href="#DejaVuSans-50"/>
       <use x="242.822266" xlink:href="#DejaVuSans-53"/>
      </g>
     </g>
    </g>
    <g id="xtick_5">
     <g id="line2d_5">
      <g>
       <use style="stroke:#000000;stroke-width:0.8;" x="234.403358" xlink:href="#mdc8eea61df" y="241.277813"/>
      </g>
     </g>
     <g id="text_5">
      <!-- 0.00 -->
      <g transform="translate(221.043983 257.395938)scale(0.12 -0.12)">
       <use xlink:href="#DejaVuSans-48"/>
       <use x="63.623047" xlink:href="#DejaVuSans-46"/>
       <use x="95.410156" xlink:href="#DejaVuSans-48"/>
       <use x="159.033203" xlink:href="#DejaVuSans-48"/>
      </g>
     </g>
    </g>
    <g id="xtick_6">
     <g id="line2d_6">
      <g>
       <use style="stroke:#000000;stroke-width:0.8;" x="272.648293" xlink:href="#mdc8eea61df" y="241.277813"/>
      </g>
     </g>
     <g id="text_6">
      <!-- 0.25 -->
      <g transform="translate(259.288918 257.395938)scale(0.12 -0.12)">
       <use xlink:href="#DejaVuSans-48"/>
       <use x="63.623047" xlink:href="#DejaVuSans-46"/>
       <use x="95.410156" xlink:href="#DejaVuSans-50"/>
       <use x="159.033203" xlink:href="#DejaVuSans-53"/>
      </g>
     </g>
    </g>
    <g id="xtick_7">
     <g id="line2d_7">
      <g>
       <use style="stroke:#000000;stroke-width:0.8;" x="310.893229" xlink:href="#mdc8eea61df" y="241.277813"/>
      </g>
     </g>
     <g id="text_7">
      <!-- 0.50 -->
      <g transform="translate(297.533854 257.395938)scale(0.12 -0.12)">
       <use xlink:href="#DejaVuSans-48"/>
       <use x="63.623047" xlink:href="#DejaVuSans-46"/>
       <use x="95.410156" xlink:href="#DejaVuSans-53"/>
       <use x="159.033203" xlink:href="#DejaVuSans-48"/>
      </g>
     </g>
    </g>
    <g id="xtick_8">
     <g id="line2d_8">
      <g>
       <use style="stroke:#000000;stroke-width:0.8;" x="349.138165" xlink:href="#mdc8eea61df" y="241.277813"/>
      </g>
     </g>
     <g id="text_8">
      <!-- 0.75 -->
      <g transform="translate(335.77879 257.395938)scale(0.12 -0.12)">
       <use xlink:href="#DejaVuSans-48"/>
       <use x="63.623047" xlink:href="#DejaVuSans-46"/>
       <use x="95.410156" xlink:href="#DejaVuSans-55"/>
       <use x="159.033203" xlink:href="#DejaVuSans-53"/>
      </g>
     </g>
    </g>
    <g id="xtick_9">
     <g id="line2d_9">
      <g>
       <use style="stroke:#000000;stroke-width:0.8;" x="387.3831" xlink:href="#mdc8eea61df" y="241.277813"/>
      </g>
     </g>
     <g id="text_9">
      <!-- 1.00 -->
      <g transform="translate(374.023725 257.395938)scale(0.12 -0.12)">
       <use xlink:href="#DejaVuSans-49"/>
       <use x="63.623047" xlink:href="#DejaVuSans-46"/>
       <use x="95.410156" xlink:href="#DejaVuSans-48"/>
       <use x="159.033203" xlink:href="#DejaVuSans-48"/>
      </g>
     </g>
    </g>
    <g id="text_10">
     <!-- $x_1$ -->
     <defs>
      <path d="M 24.296875 35.5 
L 25.5 29.796875 
Q 30.796875 37.90625 34.046875 41 
Q 37.296875 44.09375 40.59375 44.09375 
Q 42.40625 44.09375 43.546875 43.046875 
Q 44.703125 42 44.703125 40.390625 
Q 44.703125 38.796875 43.75 37.796875 
Q 42.796875 36.796875 41.296875 36.796875 
Q 40.40625 36.796875 38.90625 37.640625 
Q 37.40625 38.5 36.09375 38.5 
Q 33.203125 38.5 26.296875 26.40625 
Q 26.296875 25.09375 27.09375 21.90625 
L 30.296875 8.5 
Q 31.296875 4.40625 33.296875 4.40625 
Q 34.90625 4.40625 38 8.40625 
Q 38.296875 8.796875 38.6875 9.34375 
Q 39.09375 9.90625 39.390625 10.34375 
Q 39.703125 10.796875 40.09375 11.203125 
L 41.59375 10.296875 
Q 37.296875 3.59375 34.796875 1.25 
Q 32.296875 -1.09375 29.40625 -1.09375 
Q 27 -1.09375 25.703125 0.40625 
Q 24.40625 1.90625 23.5 5.703125 
L 20.59375 17.59375 
L 11.796875 5.703125 
Q 8.703125 1.5 6.75 0.203125 
Q 4.796875 -1.09375 2.296875 -1.09375 
Q 0 -1.09375 -1.34375 0 
Q -2.703125 1.09375 -2.703125 3.09375 
Q -2.703125 4.59375 -1.75 5.640625 
Q -0.796875 6.703125 0.703125 6.703125 
Q 1.90625 6.703125 3.90625 5.59375 
Q 5.40625 4.703125 6.5 4.703125 
Q 8.203125 4.703125 11.59375 9.59375 
L 19.796875 21.203125 
L 17 33.59375 
Q 16 38 15.140625 39.203125 
Q 14.296875 40.40625 12.40625 40.40625 
Q 11.203125 40.40625 8.5 39.703125 
L 6.703125 39.203125 
L 6.40625 40.796875 
L 7.5 41.203125 
Q 15.5 44.09375 19.203125 44.09375 
Q 21.09375 44.09375 22.1875 42.296875 
Q 23.296875 40.5 24.296875 35.5 
z
" id="STIXGeneral-Italic-120"/>
      <path d="M 39.40625 0 
L 11.796875 0 
L 11.796875 1.5 
Q 17.296875 1.796875 19.296875 3.546875 
Q 21.296875 5.296875 21.296875 9.5 
L 21.296875 54.40625 
Q 21.296875 59.296875 18.296875 59.296875 
Q 16.90625 59.296875 13.796875 58.09375 
L 11.09375 57.09375 
L 11.09375 58.5 
L 29 67.59375 
L 29.90625 67.296875 
L 29.90625 7.59375 
Q 29.90625 4.296875 31.90625 2.890625 
Q 33.90625 1.5 39.40625 1.5 
z
" id="STIXGeneral-Regular-49"/>
     </defs>
     <g transform="translate(230.04375 274.529375)scale(0.14 -0.14)">
      <use transform="translate(0 0.90625)" xlink:href="#STIXGeneral-Italic-120"/>
      <use transform="translate(44.399994 -12.321875)scale(0.7)" xlink:href="#STIXGeneral-Regular-49"/>
     </g>
    </g>
   </g>
   <g id="matplotlib.axis_2">
    <g id="ytick_1">
     <g id="line2d_10">
      <defs>
       <path d="M 0 0 
L -3.5 0 
" id="mbe25c7fa2d" style="stroke:#000000;stroke-width:0.8;"/>
      </defs>
      <g>
       <use style="stroke:#000000;stroke-width:0.8;" x="68.52375" xlink:href="#mbe25c7fa2d" y="230.621936"/>
      </g>
     </g>
     <g id="text_11">
      <!-- −1.00 -->
      <g transform="translate(24.749375 235.180998)scale(0.12 -0.12)">
       <use xlink:href="#DejaVuSans-8722"/>
       <use x="83.789062" xlink:href="#DejaVuSans-49"/>
       <use x="147.412109" xlink:href="#DejaVuSans-46"/>
       <use x="179.199219" xlink:href="#DejaVuSans-48"/>
       <use x="242.822266" xlink:href="#DejaVuSans-48"/>
      </g>
     </g>
    </g>
    <g id="ytick_2">
     <g id="line2d_11">
      <g>
       <use style="stroke:#000000;stroke-width:0.8;" x="68.52375" xlink:href="#mbe25c7fa2d" y="206.098537"/>
      </g>
     </g>
     <g id="text_12">
      <!-- −0.75 -->
      <g transform="translate(24.749375 210.6576)scale(0.12 -0.12)">
       <use xlink:href="#DejaVuSans-8722"/>
       <use x="83.789062" xlink:href="#DejaVuSans-48"/>
       <use x="147.412109" xlink:href="#DejaVuSans-46"/>
       <use x="179.199219" xlink:href="#DejaVuSans-55"/>
       <use x="242.822266" xlink:href="#DejaVuSans-53"/>
      </g>
     </g>
    </g>
    <g id="ytick_3">
     <g id="line2d_12">
      <g>
       <use style="stroke:#000000;stroke-width:0.8;" x="68.52375" xlink:href="#mbe25c7fa2d" y="181.575139"/>
      </g>
     </g>
     <g id="text_13">
      <!-- −0.50 -->
      <g transform="translate(24.749375 186.134201)scale(0.12 -0.12)">
       <use xlink:href="#DejaVuSans-8722"/>
       <use x="83.789062" xlink:href="#DejaVuSans-48"/>
       <use x="147.412109" xlink:href="#DejaVuSans-46"/>
       <use x="179.199219" xlink:href="#DejaVuSans-53"/>
       <use x="242.822266" xlink:href="#DejaVuSans-48"/>
      </g>
     </g>
    </g>
    <g id="ytick_4">
     <g id="line2d_13">
      <g>
       <use style="stroke:#000000;stroke-width:0.8;" x="68.52375" xlink:href="#mbe25c7fa2d" y="157.05174"/>
      </g>
     </g>
     <g id="text_14">
      <!-- −0.25 -->
      <g transform="translate(24.749375 161.610803)scale(0.12 -0.12)">
       <use xlink:href="#DejaVuSans-8722"/>
       <use x="83.789062" xlink:href="#DejaVuSans-48"/>
       <use x="147.412109" xlink:href="#DejaVuSans-46"/>
       <use x="179.199219" xlink:href="#DejaVuSans-50"/>
       <use x="242.822266" xlink:href="#DejaVuSans-53"/>
      </g>
     </g>
    </g>
    <g id="ytick_5">
     <g id="line2d_14">
      <g>
       <use style="stroke:#000000;stroke-width:0.8;" x="68.52375" xlink:href="#mbe25c7fa2d" y="132.528341"/>
      </g>
     </g>
     <g id="text_15">
      <!-- 0.00 -->
      <g transform="translate(34.805 137.087404)scale(0.12 -0.12)">
       <use xlink:href="#DejaVuSans-48"/>
       <use x="63.623047" xlink:href="#DejaVuSans-46"/>
       <use x="95.410156" xlink:href="#DejaVuSans-48"/>
       <use x="159.033203" xlink:href="#DejaVuSans-48"/>
      </g>
     </g>
    </g>
    <g id="ytick_6">
     <g id="line2d_15">
      <g>
       <use style="stroke:#000000;stroke-width:0.8;" x="68.52375" xlink:href="#mbe25c7fa2d" y="108.004943"/>
      </g>
     </g>
     <g id="text_16">
      <!-- 0.25 -->
      <g transform="translate(34.805 112.564005)scale(0.12 -0.12)">
       <use xlink:href="#DejaVuSans-48"/>
       <use x="63.623047" xlink:href="#DejaVuSans-46"/>
       <use x="95.410156" xlink:href="#DejaVuSans-50"/>
       <use x="159.033203" xlink:href="#DejaVuSans-53"/>
      </g>
     </g>
    </g>
    <g id="ytick_7">
     <g id="line2d_16">
      <g>
       <use style="stroke:#000000;stroke-width:0.8;" x="68.52375" xlink:href="#mbe25c7fa2d" y="83.481544"/>
      </g>
     </g>
     <g id="text_17">
      <!-- 0.50 -->
      <g transform="translate(34.805 88.040607)scale(0.12 -0.12)">
       <use xlink:href="#DejaVuSans-48"/>
       <use x="63.623047" xlink:href="#DejaVuSans-46"/>
       <use x="95.410156" xlink:href="#DejaVuSans-53"/>
       <use x="159.033203" xlink:href="#DejaVuSans-48"/>
      </g>
     </g>
    </g>
    <g id="ytick_8">
     <g id="line2d_17">
      <g>
       <use style="stroke:#000000;stroke-width:0.8;" x="68.52375" xlink:href="#mbe25c7fa2d" y="58.958146"/>
      </g>
     </g>
     <g id="text_18">
      <!-- 0.75 -->
      <g transform="translate(34.805 63.517208)scale(0.12 -0.12)">
       <use xlink:href="#DejaVuSans-48"/>
       <use x="63.623047" xlink:href="#DejaVuSans-46"/>
       <use x="95.410156" xlink:href="#DejaVuSans-55"/>
       <use x="159.033203" xlink:href="#DejaVuSans-53"/>
      </g>
     </g>
    </g>
    <g id="ytick_9">
     <g id="line2d_18">
      <g>
       <use style="stroke:#000000;stroke-width:0.8;" x="68.52375" xlink:href="#mbe25c7fa2d" y="34.434747"/>
      </g>
     </g>
     <g id="text_19">
      <!-- 1.00 -->
      <g transform="translate(34.805 38.99381)scale(0.12 -0.12)">
       <use xlink:href="#DejaVuSans-49"/>
       <use x="63.623047" xlink:href="#DejaVuSans-46"/>
       <use x="95.410156" xlink:href="#DejaVuSans-48"/>
       <use x="159.033203" xlink:href="#DejaVuSans-48"/>
      </g>
     </g>
    </g>
    <g id="text_20">
     <!-- $x_2$ -->
     <defs>
      <path d="M 47.40625 13.703125 
L 42 0 
L 2.90625 0 
L 2.90625 1.203125 
L 20.703125 20.09375 
Q 27.703125 27.40625 30.703125 33.5 
Q 33.703125 39.59375 33.703125 46.09375 
Q 33.703125 52.796875 30 56.5 
Q 26.296875 60.203125 19.796875 60.203125 
Q 14.40625 60.203125 11.25 57.390625 
Q 8.09375 54.59375 5.09375 47.203125 
L 3 47.703125 
Q 4.703125 57 9.84375 62.296875 
Q 15 67.59375 23.796875 67.59375 
Q 32.09375 67.59375 37.1875 62.59375 
Q 42.296875 57.59375 42.296875 50 
Q 42.296875 38.703125 29.5 25.203125 
L 13 7.59375 
L 36.40625 7.59375 
Q 39.703125 7.59375 41.640625 8.890625 
Q 43.59375 10.203125 46 14.296875 
z
" id="STIXGeneral-Regular-50"/>
     </defs>
     <g transform="translate(17.837813 138.437812)rotate(-90)scale(0.14 -0.14)">
      <use transform="translate(0 0.90625)" xlink:href="#STIXGeneral-Italic-120"/>
      <use transform="translate(44.399994 -12.321875)scale(0.7)" xlink:href="#STIXGeneral-Regular-50"/>
     </g>
    </g>
   </g>
   <g id="patch_3">
    <path d="M 68.52375 241.277813 
L 68.52375 23.837813 
" style="fill:none;stroke:#000000;stroke-linecap:square;stroke-linejoin:miter;stroke-width:0.8;"/>
   </g>
   <g id="patch_4">
    <path d="M 403.32375 241.277813 
L 403.32375 23.837813 
" style="fill:none;stroke:#000000;stroke-linecap:square;stroke-linejoin:miter;stroke-width:0.8;"/>
   </g>
   <g id="patch_5">
    <path d="M 68.52375 241.277813 
L 403.32375 241.277813 
" style="fill:none;stroke:#000000;stroke-linecap:square;stroke-linejoin:miter;stroke-width:0.8;"/>
   </g>
   <g id="patch_6">
    <path d="M 68.52375 23.837812 
L 403.32375 23.837812 
" style="fill:none;stroke:#000000;stroke-linecap:square;stroke-linejoin:miter;stroke-width:0.8;"/>
   </g>
   <g id="text_21">
    <!-- Crescent dataset -->
    <defs>
     <path d="M 64.40625 67.28125 
L 64.40625 56.890625 
Q 59.421875 61.53125 53.78125 63.8125 
Q 48.140625 66.109375 41.796875 66.109375 
Q 29.296875 66.109375 22.65625 58.46875 
Q 16.015625 50.828125 16.015625 36.375 
Q 16.015625 21.96875 22.65625 14.328125 
Q 29.296875 6.6875 41.796875 6.6875 
Q 48.140625 6.6875 53.78125 8.984375 
Q 59.421875 11.28125 64.40625 15.921875 
L 64.40625 5.609375 
Q 59.234375 2.09375 53.4375 0.328125 
Q 47.65625 -1.421875 41.21875 -1.421875 
Q 24.65625 -1.421875 15.125 8.703125 
Q 5.609375 18.84375 5.609375 36.375 
Q 5.609375 53.953125 15.125 64.078125 
Q 24.65625 74.21875 41.21875 74.21875 
Q 47.75 74.21875 53.53125 72.484375 
Q 59.328125 70.75 64.40625 67.28125 
z
" id="DejaVuSans-67"/>
     <path d="M 41.109375 46.296875 
Q 39.59375 47.171875 37.8125 47.578125 
Q 36.03125 48 33.890625 48 
Q 26.265625 48 22.1875 43.046875 
Q 18.109375 38.09375 18.109375 28.8125 
L 18.109375 0 
L 9.078125 0 
L 9.078125 54.6875 
L 18.109375 54.6875 
L 18.109375 46.1875 
Q 20.953125 51.171875 25.484375 53.578125 
Q 30.03125 56 36.53125 56 
Q 37.453125 56 38.578125 55.875 
Q 39.703125 55.765625 41.0625 55.515625 
z
" id="DejaVuSans-114"/>
     <path d="M 56.203125 29.59375 
L 56.203125 25.203125 
L 14.890625 25.203125 
Q 15.484375 15.921875 20.484375 11.0625 
Q 25.484375 6.203125 34.421875 6.203125 
Q 39.59375 6.203125 44.453125 7.46875 
Q 49.3125 8.734375 54.109375 11.28125 
L 54.109375 2.78125 
Q 49.265625 0.734375 44.1875 -0.34375 
Q 39.109375 -1.421875 33.890625 -1.421875 
Q 20.796875 -1.421875 13.15625 6.1875 
Q 5.515625 13.8125 5.515625 26.8125 
Q 5.515625 40.234375 12.765625 48.109375 
Q 20.015625 56 32.328125 56 
Q 43.359375 56 49.78125 48.890625 
Q 56.203125 41.796875 56.203125 29.59375 
z
M 47.21875 32.234375 
Q 47.125 39.59375 43.09375 43.984375 
Q 39.0625 48.390625 32.421875 48.390625 
Q 24.90625 48.390625 20.390625 44.140625 
Q 15.875 39.890625 15.1875 32.171875 
z
" id="DejaVuSans-101"/>
     <path d="M 44.28125 53.078125 
L 44.28125 44.578125 
Q 40.484375 46.53125 36.375 47.5 
Q 32.28125 48.484375 27.875 48.484375 
Q 21.1875 48.484375 17.84375 46.4375 
Q 14.5 44.390625 14.5 40.28125 
Q 14.5 37.15625 16.890625 35.375 
Q 19.28125 33.59375 26.515625 31.984375 
L 29.59375 31.296875 
Q 39.15625 29.25 43.1875 25.515625 
Q 47.21875 21.78125 47.21875 15.09375 
Q 47.21875 7.46875 41.1875 3.015625 
Q 35.15625 -1.421875 24.609375 -1.421875 
Q 20.21875 -1.421875 15.453125 -0.5625 
Q 10.6875 0.296875 5.421875 2 
L 5.421875 11.28125 
Q 10.40625 8.6875 15.234375 7.390625 
Q 20.0625 6.109375 24.8125 6.109375 
Q 31.15625 6.109375 34.5625 8.28125 
Q 37.984375 10.453125 37.984375 14.40625 
Q 37.984375 18.0625 35.515625 20.015625 
Q 33.0625 21.96875 24.703125 23.78125 
L 21.578125 24.515625 
Q 13.234375 26.265625 9.515625 29.90625 
Q 5.8125 33.546875 5.8125 39.890625 
Q 5.8125 47.609375 11.28125 51.796875 
Q 16.75 56 26.8125 56 
Q 31.78125 56 36.171875 55.265625 
Q 40.578125 54.546875 44.28125 53.078125 
z
" id="DejaVuSans-115"/>
     <path d="M 48.78125 52.59375 
L 48.78125 44.1875 
Q 44.96875 46.296875 41.140625 47.34375 
Q 37.3125 48.390625 33.40625 48.390625 
Q 24.65625 48.390625 19.8125 42.84375 
Q 14.984375 37.3125 14.984375 27.296875 
Q 14.984375 17.28125 19.8125 11.734375 
Q 24.65625 6.203125 33.40625 6.203125 
Q 37.3125 6.203125 41.140625 7.25 
Q 44.96875 8.296875 48.78125 10.40625 
L 48.78125 2.09375 
Q 45.015625 0.34375 40.984375 -0.53125 
Q 36.96875 -1.421875 32.421875 -1.421875 
Q 20.0625 -1.421875 12.78125 6.34375 
Q 5.515625 14.109375 5.515625 27.296875 
Q 5.515625 40.671875 12.859375 48.328125 
Q 20.21875 56 33.015625 56 
Q 37.15625 56 41.109375 55.140625 
Q 45.0625 54.296875 48.78125 52.59375 
z
" id="DejaVuSans-99"/>
     <path d="M 54.890625 33.015625 
L 54.890625 0 
L 45.90625 0 
L 45.90625 32.71875 
Q 45.90625 40.484375 42.875 44.328125 
Q 39.84375 48.1875 33.796875 48.1875 
Q 26.515625 48.1875 22.3125 43.546875 
Q 18.109375 38.921875 18.109375 30.90625 
L 18.109375 0 
L 9.078125 0 
L 9.078125 54.6875 
L 18.109375 54.6875 
L 18.109375 46.1875 
Q 21.34375 51.125 25.703125 53.5625 
Q 30.078125 56 35.796875 56 
Q 45.21875 56 50.046875 50.171875 
Q 54.890625 44.34375 54.890625 33.015625 
z
" id="DejaVuSans-110"/>
     <path d="M 18.3125 70.21875 
L 18.3125 54.6875 
L 36.8125 54.6875 
L 36.8125 47.703125 
L 18.3125 47.703125 
L 18.3125 18.015625 
Q 18.3125 11.328125 20.140625 9.421875 
Q 21.96875 7.515625 27.59375 7.515625 
L 36.8125 7.515625 
L 36.8125 0 
L 27.59375 0 
Q 17.1875 0 13.234375 3.875 
Q 9.28125 7.765625 9.28125 18.015625 
L 9.28125 47.703125 
L 2.6875 47.703125 
L 2.6875 54.6875 
L 9.28125 54.6875 
L 9.28125 70.21875 
z
" id="DejaVuSans-116"/>
     <path id="DejaVuSans-32"/>
     <path d="M 45.40625 46.390625 
L 45.40625 75.984375 
L 54.390625 75.984375 
L 54.390625 0 
L 45.40625 0 
L 45.40625 8.203125 
Q 42.578125 3.328125 38.25 0.953125 
Q 33.9375 -1.421875 27.875 -1.421875 
Q 17.96875 -1.421875 11.734375 6.484375 
Q 5.515625 14.40625 5.515625 27.296875 
Q 5.515625 40.1875 11.734375 48.09375 
Q 17.96875 56 27.875 56 
Q 33.9375 56 38.25 53.625 
Q 42.578125 51.265625 45.40625 46.390625 
z
M 14.796875 27.296875 
Q 14.796875 17.390625 18.875 11.75 
Q 22.953125 6.109375 30.078125 6.109375 
Q 37.203125 6.109375 41.296875 11.75 
Q 45.40625 17.390625 45.40625 27.296875 
Q 45.40625 37.203125 41.296875 42.84375 
Q 37.203125 48.484375 30.078125 48.484375 
Q 22.953125 48.484375 18.875 42.84375 
Q 14.796875 37.203125 14.796875 27.296875 
z
" id="DejaVuSans-100"/>
     <path d="M 34.28125 27.484375 
Q 23.390625 27.484375 19.1875 25 
Q 14.984375 22.515625 14.984375 16.5 
Q 14.984375 11.71875 18.140625 8.90625 
Q 21.296875 6.109375 26.703125 6.109375 
Q 34.1875 6.109375 38.703125 11.40625 
Q 43.21875 16.703125 43.21875 25.484375 
L 43.21875 27.484375 
z
M 52.203125 31.203125 
L 52.203125 0 
L 43.21875 0 
L 43.21875 8.296875 
Q 40.140625 3.328125 35.546875 0.953125 
Q 30.953125 -1.421875 24.3125 -1.421875 
Q 15.921875 -1.421875 10.953125 3.296875 
Q 6 8.015625 6 15.921875 
Q 6 25.140625 12.171875 29.828125 
Q 18.359375 34.515625 30.609375 34.515625 
L 43.21875 34.515625 
L 43.21875 35.40625 
Q 43.21875 41.609375 39.140625 45 
Q 35.0625 48.390625 27.6875 48.390625 
Q 23 48.390625 18.546875 47.265625 
Q 14.109375 46.140625 10.015625 43.890625 
L 10.015625 52.203125 
Q 14.9375 54.109375 19.578125 55.046875 
Q 24.21875 56 28.609375 56 
Q 40.484375 56 46.34375 49.84375 
Q 52.203125 43.703125 52.203125 31.203125 
z
" id="DejaVuSans-97"/>
    </defs>
    <g transform="translate(176.179844 17.837812)scale(0.14 -0.14)">
     <use xlink:href="#DejaVuSans-67"/>
     <use x="69.824219" xlink:href="#DejaVuSans-114"/>
     <use x="110.90625" xlink:href="#DejaVuSans-101"/>
     <use x="172.429688" xlink:href="#DejaVuSans-115"/>
     <use x="224.529297" xlink:href="#DejaVuSans-99"/>
     <use x="279.509766" xlink:href="#DejaVuSans-101"/>
     <use x="341.033203" xlink:href="#DejaVuSans-110"/>
     <use x="404.412109" xlink:href="#DejaVuSans-116"/>
     <use x="443.621094" xlink:href="#DejaVuSans-32"/>
     <use x="475.408203" xlink:href="#DejaVuSans-100"/>
     <use x="538.884766" xlink:href="#DejaVuSans-97"/>
     <use x="600.164062" xlink:href="#DejaVuSans-116"/>
     <use x="639.373047" xlink:href="#DejaVuSans-97"/>
     <use x="700.652344" xlink:href="#DejaVuSans-115"/>
     <use x="752.751953" xlink:href="#DejaVuSans-101"/>
     <use x="814.275391" xlink:href="#DejaVuSans-116"/>
    </g>
   </g>
  </g>
 </g>
 <defs>
  <clipPath id="pce3206ef3a">
   <rect height="217.44" width="334.8" x="68.52375" y="23.837812"/>
  </clipPath>
 </defs>
</svg>
