<?xml version="1.0" encoding="utf-8" standalone="no"?>
<!DOCTYPE svg PUBLIC "-//W3C//DTD SVG 1.1//EN"
  "http://www.w3.org/Graphics/SVG/1.1/DTD/svg11.dtd">
<!-- Created with matplotlib (https://matplotlib.org/) -->
<svg height="208.640312pt" version="1.1" viewBox="0 0 565.299687 208.640312" width="565.299687pt" xmlns="http://www.w3.org/2000/svg" xmlns:xlink="http://www.w3.org/1999/xlink">
 <metadata>
  <rdf:RDF xmlns:cc="http://creativecommons.org/ns#" xmlns:dc="http://purl.org/dc/elements/1.1/" xmlns:rdf="http://www.w3.org/1999/02/22-rdf-syntax-ns#">
   <cc:Work>
    <dc:type rdf:resource="http://purl.org/dc/dcmitype/StillImage"/>
    <dc:date>2021-06-15T23:34:55.951691</dc:date>
    <dc:format>image/svg+xml</dc:format>
    <dc:creator>
     <cc:Agent>
      <dc:title>Matplotlib v3.3.3, https://matplotlib.org/</dc:title>
     </cc:Agent>
    </dc:creator>
   </cc:Work>
  </rdf:RDF>
 </metadata>
 <defs>
  <style type="text/css">*{stroke-linecap:butt;stroke-linejoin:round;}</style>
 </defs>
 <g id="figure_1">
  <g id="patch_1">
   <path d="M 0 208.640312 
L 565.299687 208.640312 
L 565.299687 0 
L 0 0 
z
" style="fill:none;"/>
  </g>
  <g id="axes_1">
   <g id="patch_2">
    <path d="M 54.824688 165.277187 
L 276.585877 165.277187 
L 276.585877 26.877187 
L 54.824688 26.877187 
z
" style="fill:#ffffff;"/>
   </g>
   <g id="matplotlib.axis_1">
    <g id="xtick_1">
     <g id="line2d_1">
      <defs>
       <path d="M 0 0 
L 0 3.5 
" id="m3d00403a43" style="stroke:#000000;stroke-width:0.8;"/>
      </defs>
      <g>
       <use style="stroke:#000000;stroke-width:0.8;" x="64.904742" xlink:href="#m3d00403a43" y="165.277187"/>
      </g>
     </g>
     <g id="text_1">
      <!-- 0 -->
      <g transform="translate(61.723492 179.875625)scale(0.1 -0.1)">
       <defs>
        <path d="M 31.78125 66.40625 
Q 24.171875 66.40625 20.328125 58.90625 
Q 16.5 51.421875 16.5 36.375 
Q 16.5 21.390625 20.328125 13.890625 
Q 24.171875 6.390625 31.78125 6.390625 
Q 39.453125 6.390625 43.28125 13.890625 
Q 47.125 21.390625 47.125 36.375 
Q 47.125 51.421875 43.28125 58.90625 
Q 39.453125 66.40625 31.78125 66.40625 
z
M 31.78125 74.21875 
Q 44.046875 74.21875 50.515625 64.515625 
Q 56.984375 54.828125 56.984375 36.375 
Q 56.984375 17.96875 50.515625 8.265625 
Q 44.046875 -1.421875 31.78125 -1.421875 
Q 19.53125 -1.421875 13.0625 8.265625 
Q 6.59375 17.96875 6.59375 36.375 
Q 6.59375 54.828125 13.0625 64.515625 
Q 19.53125 74.21875 31.78125 74.21875 
z
" id="DejaVuSans-48"/>
       </defs>
       <use xlink:href="#DejaVuSans-48"/>
      </g>
     </g>
    </g>
    <g id="xtick_2">
     <g id="line2d_2">
      <g>
       <use style="stroke:#000000;stroke-width:0.8;" x="105.632233" xlink:href="#m3d00403a43" y="165.277187"/>
      </g>
     </g>
     <g id="text_2">
      <!-- 20 -->
      <g transform="translate(99.269733 179.875625)scale(0.1 -0.1)">
       <defs>
        <path d="M 19.1875 8.296875 
L 53.609375 8.296875 
L 53.609375 0 
L 7.328125 0 
L 7.328125 8.296875 
Q 12.9375 14.109375 22.625 23.890625 
Q 32.328125 33.6875 34.8125 36.53125 
Q 39.546875 41.84375 41.421875 45.53125 
Q 43.3125 49.21875 43.3125 52.78125 
Q 43.3125 58.59375 39.234375 62.25 
Q 35.15625 65.921875 28.609375 65.921875 
Q 23.96875 65.921875 18.8125 64.3125 
Q 13.671875 62.703125 7.8125 59.421875 
L 7.8125 69.390625 
Q 13.765625 71.78125 18.9375 73 
Q 24.125 74.21875 28.421875 74.21875 
Q 39.75 74.21875 46.484375 68.546875 
Q 53.21875 62.890625 53.21875 53.421875 
Q 53.21875 48.921875 51.53125 44.890625 
Q 49.859375 40.875 45.40625 35.40625 
Q 44.1875 33.984375 37.640625 27.21875 
Q 31.109375 20.453125 19.1875 8.296875 
z
" id="DejaVuSans-50"/>
       </defs>
       <use xlink:href="#DejaVuSans-50"/>
       <use x="63.623047" xlink:href="#DejaVuSans-48"/>
      </g>
     </g>
    </g>
    <g id="xtick_3">
     <g id="line2d_3">
      <g>
       <use style="stroke:#000000;stroke-width:0.8;" x="146.359724" xlink:href="#m3d00403a43" y="165.277187"/>
      </g>
     </g>
     <g id="text_3">
      <!-- 40 -->
      <g transform="translate(139.997224 179.875625)scale(0.1 -0.1)">
       <defs>
        <path d="M 37.796875 64.3125 
L 12.890625 25.390625 
L 37.796875 25.390625 
z
M 35.203125 72.90625 
L 47.609375 72.90625 
L 47.609375 25.390625 
L 58.015625 25.390625 
L 58.015625 17.1875 
L 47.609375 17.1875 
L 47.609375 0 
L 37.796875 0 
L 37.796875 17.1875 
L 4.890625 17.1875 
L 4.890625 26.703125 
z
" id="DejaVuSans-52"/>
       </defs>
       <use xlink:href="#DejaVuSans-52"/>
       <use x="63.623047" xlink:href="#DejaVuSans-48"/>
      </g>
     </g>
    </g>
    <g id="xtick_4">
     <g id="line2d_4">
      <g>
       <use style="stroke:#000000;stroke-width:0.8;" x="187.087215" xlink:href="#m3d00403a43" y="165.277187"/>
      </g>
     </g>
     <g id="text_4">
      <!-- 60 -->
      <g transform="translate(180.724715 179.875625)scale(0.1 -0.1)">
       <defs>
        <path d="M 33.015625 40.375 
Q 26.375 40.375 22.484375 35.828125 
Q 18.609375 31.296875 18.609375 23.390625 
Q 18.609375 15.53125 22.484375 10.953125 
Q 26.375 6.390625 33.015625 6.390625 
Q 39.65625 6.390625 43.53125 10.953125 
Q 47.40625 15.53125 47.40625 23.390625 
Q 47.40625 31.296875 43.53125 35.828125 
Q 39.65625 40.375 33.015625 40.375 
z
M 52.59375 71.296875 
L 52.59375 62.3125 
Q 48.875 64.0625 45.09375 64.984375 
Q 41.3125 65.921875 37.59375 65.921875 
Q 27.828125 65.921875 22.671875 59.328125 
Q 17.53125 52.734375 16.796875 39.40625 
Q 19.671875 43.65625 24.015625 45.921875 
Q 28.375 48.1875 33.59375 48.1875 
Q 44.578125 48.1875 50.953125 41.515625 
Q 57.328125 34.859375 57.328125 23.390625 
Q 57.328125 12.15625 50.6875 5.359375 
Q 44.046875 -1.421875 33.015625 -1.421875 
Q 20.359375 -1.421875 13.671875 8.265625 
Q 6.984375 17.96875 6.984375 36.375 
Q 6.984375 53.65625 15.1875 63.9375 
Q 23.390625 74.21875 37.203125 74.21875 
Q 40.921875 74.21875 44.703125 73.484375 
Q 48.484375 72.75 52.59375 71.296875 
z
" id="DejaVuSans-54"/>
       </defs>
       <use xlink:href="#DejaVuSans-54"/>
       <use x="63.623047" xlink:href="#DejaVuSans-48"/>
      </g>
     </g>
    </g>
    <g id="xtick_5">
     <g id="line2d_5">
      <g>
       <use style="stroke:#000000;stroke-width:0.8;" x="227.814707" xlink:href="#m3d00403a43" y="165.277187"/>
      </g>
     </g>
     <g id="text_5">
      <!-- 80 -->
      <g transform="translate(221.452207 179.875625)scale(0.1 -0.1)">
       <defs>
        <path d="M 31.78125 34.625 
Q 24.75 34.625 20.71875 30.859375 
Q 16.703125 27.09375 16.703125 20.515625 
Q 16.703125 13.921875 20.71875 10.15625 
Q 24.75 6.390625 31.78125 6.390625 
Q 38.8125 6.390625 42.859375 10.171875 
Q 46.921875 13.96875 46.921875 20.515625 
Q 46.921875 27.09375 42.890625 30.859375 
Q 38.875 34.625 31.78125 34.625 
z
M 21.921875 38.8125 
Q 15.578125 40.375 12.03125 44.71875 
Q 8.5 49.078125 8.5 55.328125 
Q 8.5 64.0625 14.71875 69.140625 
Q 20.953125 74.21875 31.78125 74.21875 
Q 42.671875 74.21875 48.875 69.140625 
Q 55.078125 64.0625 55.078125 55.328125 
Q 55.078125 49.078125 51.53125 44.71875 
Q 48 40.375 41.703125 38.8125 
Q 48.828125 37.15625 52.796875 32.3125 
Q 56.78125 27.484375 56.78125 20.515625 
Q 56.78125 9.90625 50.3125 4.234375 
Q 43.84375 -1.421875 31.78125 -1.421875 
Q 19.734375 -1.421875 13.25 4.234375 
Q 6.78125 9.90625 6.78125 20.515625 
Q 6.78125 27.484375 10.78125 32.3125 
Q 14.796875 37.15625 21.921875 38.8125 
z
M 18.3125 54.390625 
Q 18.3125 48.734375 21.84375 45.5625 
Q 25.390625 42.390625 31.78125 42.390625 
Q 38.140625 42.390625 41.71875 45.5625 
Q 45.3125 48.734375 45.3125 54.390625 
Q 45.3125 60.0625 41.71875 63.234375 
Q 38.140625 66.40625 31.78125 66.40625 
Q 25.390625 66.40625 21.84375 63.234375 
Q 18.3125 60.0625 18.3125 54.390625 
z
" id="DejaVuSans-56"/>
       </defs>
       <use xlink:href="#DejaVuSans-56"/>
       <use x="63.623047" xlink:href="#DejaVuSans-48"/>
      </g>
     </g>
    </g>
    <g id="xtick_6">
     <g id="line2d_6">
      <g>
       <use style="stroke:#000000;stroke-width:0.8;" x="268.542198" xlink:href="#m3d00403a43" y="165.277187"/>
      </g>
     </g>
     <g id="text_6">
      <!-- 100 -->
      <g transform="translate(258.998448 179.875625)scale(0.1 -0.1)">
       <defs>
        <path d="M 12.40625 8.296875 
L 28.515625 8.296875 
L 28.515625 63.921875 
L 10.984375 60.40625 
L 10.984375 69.390625 
L 28.421875 72.90625 
L 38.28125 72.90625 
L 38.28125 8.296875 
L 54.390625 8.296875 
L 54.390625 0 
L 12.40625 0 
z
" id="DejaVuSans-49"/>
       </defs>
       <use xlink:href="#DejaVuSans-49"/>
       <use x="63.623047" xlink:href="#DejaVuSans-48"/>
       <use x="127.246094" xlink:href="#DejaVuSans-48"/>
      </g>
     </g>
    </g>
    <g id="text_7">
     <!-- Step # -->
     <g transform="translate(138.242782 198.112812)scale(0.16 -0.16)">
      <defs>
       <path d="M 53.515625 70.515625 
L 53.515625 60.890625 
Q 47.90625 63.578125 42.921875 64.890625 
Q 37.9375 66.21875 33.296875 66.21875 
Q 25.25 66.21875 20.875 63.09375 
Q 16.5 59.96875 16.5 54.203125 
Q 16.5 49.359375 19.40625 46.890625 
Q 22.3125 44.4375 30.421875 42.921875 
L 36.375 41.703125 
Q 47.40625 39.59375 52.65625 34.296875 
Q 57.90625 29 57.90625 20.125 
Q 57.90625 9.515625 50.796875 4.046875 
Q 43.703125 -1.421875 29.984375 -1.421875 
Q 24.8125 -1.421875 18.96875 -0.25 
Q 13.140625 0.921875 6.890625 3.21875 
L 6.890625 13.375 
Q 12.890625 10.015625 18.65625 8.296875 
Q 24.421875 6.59375 29.984375 6.59375 
Q 38.421875 6.59375 43.015625 9.90625 
Q 47.609375 13.234375 47.609375 19.390625 
Q 47.609375 24.75 44.3125 27.78125 
Q 41.015625 30.8125 33.5 32.328125 
L 27.484375 33.5 
Q 16.453125 35.6875 11.515625 40.375 
Q 6.59375 45.0625 6.59375 53.421875 
Q 6.59375 63.09375 13.40625 68.65625 
Q 20.21875 74.21875 32.171875 74.21875 
Q 37.3125 74.21875 42.625 73.28125 
Q 47.953125 72.359375 53.515625 70.515625 
z
" id="DejaVuSans-83"/>
       <path d="M 18.3125 70.21875 
L 18.3125 54.6875 
L 36.8125 54.6875 
L 36.8125 47.703125 
L 18.3125 47.703125 
L 18.3125 18.015625 
Q 18.3125 11.328125 20.140625 9.421875 
Q 21.96875 7.515625 27.59375 7.515625 
L 36.8125 7.515625 
L 36.8125 0 
L 27.59375 0 
Q 17.1875 0 13.234375 3.875 
Q 9.28125 7.765625 9.28125 18.015625 
L 9.28125 47.703125 
L 2.6875 47.703125 
L 2.6875 54.6875 
L 9.28125 54.6875 
L 9.28125 70.21875 
z
" id="DejaVuSans-116"/>
       <path d="M 56.203125 29.59375 
L 56.203125 25.203125 
L 14.890625 25.203125 
Q 15.484375 15.921875 20.484375 11.0625 
Q 25.484375 6.203125 34.421875 6.203125 
Q 39.59375 6.203125 44.453125 7.46875 
Q 49.3125 8.734375 54.109375 11.28125 
L 54.109375 2.78125 
Q 49.265625 0.734375 44.1875 -0.34375 
Q 39.109375 -1.421875 33.890625 -1.421875 
Q 20.796875 -1.421875 13.15625 6.1875 
Q 5.515625 13.8125 5.515625 26.8125 
Q 5.515625 40.234375 12.765625 48.109375 
Q 20.015625 56 32.328125 56 
Q 43.359375 56 49.78125 48.890625 
Q 56.203125 41.796875 56.203125 29.59375 
z
M 47.21875 32.234375 
Q 47.125 39.59375 43.09375 43.984375 
Q 39.0625 48.390625 32.421875 48.390625 
Q 24.90625 48.390625 20.390625 44.140625 
Q 15.875 39.890625 15.1875 32.171875 
z
" id="DejaVuSans-101"/>
       <path d="M 18.109375 8.203125 
L 18.109375 -20.796875 
L 9.078125 -20.796875 
L 9.078125 54.6875 
L 18.109375 54.6875 
L 18.109375 46.390625 
Q 20.953125 51.265625 25.265625 53.625 
Q 29.59375 56 35.59375 56 
Q 45.5625 56 51.78125 48.09375 
Q 58.015625 40.1875 58.015625 27.296875 
Q 58.015625 14.40625 51.78125 6.484375 
Q 45.5625 -1.421875 35.59375 -1.421875 
Q 29.59375 -1.421875 25.265625 0.953125 
Q 20.953125 3.328125 18.109375 8.203125 
z
M 48.6875 27.296875 
Q 48.6875 37.203125 44.609375 42.84375 
Q 40.53125 48.484375 33.40625 48.484375 
Q 26.265625 48.484375 22.1875 42.84375 
Q 18.109375 37.203125 18.109375 27.296875 
Q 18.109375 17.390625 22.1875 11.75 
Q 26.265625 6.109375 33.40625 6.109375 
Q 40.53125 6.109375 44.609375 11.75 
Q 48.6875 17.390625 48.6875 27.296875 
z
" id="DejaVuSans-112"/>
       <path id="DejaVuSans-32"/>
       <path d="M 51.125 44 
L 36.921875 44 
L 32.8125 27.6875 
L 47.125 27.6875 
z
M 43.796875 71.78125 
L 38.71875 51.515625 
L 52.984375 51.515625 
L 58.109375 71.78125 
L 65.921875 71.78125 
L 60.890625 51.515625 
L 76.125 51.515625 
L 76.125 44 
L 58.984375 44 
L 54.984375 27.6875 
L 70.515625 27.6875 
L 70.515625 20.21875 
L 53.078125 20.21875 
L 48 0 
L 40.1875 0 
L 45.21875 20.21875 
L 30.90625 20.21875 
L 25.875 0 
L 18.015625 0 
L 23.09375 20.21875 
L 7.71875 20.21875 
L 7.71875 27.6875 
L 24.90625 27.6875 
L 29 44 
L 13.28125 44 
L 13.28125 51.515625 
L 30.90625 51.515625 
L 35.890625 71.78125 
z
" id="DejaVuSans-35"/>
      </defs>
      <use xlink:href="#DejaVuSans-83"/>
      <use x="63.476562" xlink:href="#DejaVuSans-116"/>
      <use x="102.685547" xlink:href="#DejaVuSans-101"/>
      <use x="164.208984" xlink:href="#DejaVuSans-112"/>
      <use x="227.685547" xlink:href="#DejaVuSans-32"/>
      <use x="259.472656" xlink:href="#DejaVuSans-35"/>
     </g>
    </g>
   </g>
   <g id="matplotlib.axis_2">
    <g id="ytick_1">
     <g id="line2d_7">
      <defs>
       <path d="M 0 0 
L -3.5 0 
" id="mcf70ce75cd" style="stroke:#000000;stroke-width:0.8;"/>
      </defs>
      <g>
       <use style="stroke:#000000;stroke-width:0.8;" x="54.824688" xlink:href="#mcf70ce75cd" y="161.454754"/>
      </g>
     </g>
     <g id="text_8">
      <!-- −14 -->
      <g transform="translate(26.72 165.253973)scale(0.1 -0.1)">
       <defs>
        <path d="M 10.59375 35.5 
L 73.1875 35.5 
L 73.1875 27.203125 
L 10.59375 27.203125 
z
" id="DejaVuSans-8722"/>
       </defs>
       <use xlink:href="#DejaVuSans-8722"/>
       <use x="83.789062" xlink:href="#DejaVuSans-49"/>
       <use x="147.412109" xlink:href="#DejaVuSans-52"/>
      </g>
     </g>
    </g>
    <g id="ytick_2">
     <g id="line2d_8">
      <g>
       <use style="stroke:#000000;stroke-width:0.8;" x="54.824688" xlink:href="#mcf70ce75cd" y="125.433434"/>
      </g>
     </g>
     <g id="text_9">
      <!-- −12 -->
      <g transform="translate(26.72 129.232652)scale(0.1 -0.1)">
       <use xlink:href="#DejaVuSans-8722"/>
       <use x="83.789062" xlink:href="#DejaVuSans-49"/>
       <use x="147.412109" xlink:href="#DejaVuSans-50"/>
      </g>
     </g>
    </g>
    <g id="ytick_3">
     <g id="line2d_9">
      <g>
       <use style="stroke:#000000;stroke-width:0.8;" x="54.824688" xlink:href="#mcf70ce75cd" y="89.412113"/>
      </g>
     </g>
     <g id="text_10">
      <!-- −10 -->
      <g transform="translate(26.72 93.211332)scale(0.1 -0.1)">
       <use xlink:href="#DejaVuSans-8722"/>
       <use x="83.789062" xlink:href="#DejaVuSans-49"/>
       <use x="147.412109" xlink:href="#DejaVuSans-48"/>
      </g>
     </g>
    </g>
    <g id="ytick_4">
     <g id="line2d_10">
      <g>
       <use style="stroke:#000000;stroke-width:0.8;" x="54.824688" xlink:href="#mcf70ce75cd" y="53.390792"/>
      </g>
     </g>
     <g id="text_11">
      <!-- −8 -->
      <g transform="translate(33.0825 57.190011)scale(0.1 -0.1)">
       <use xlink:href="#DejaVuSans-8722"/>
       <use x="83.789062" xlink:href="#DejaVuSans-56"/>
      </g>
     </g>
    </g>
    <g id="text_12">
     <!-- Log-likelihood $\mathcal{L}$ -->
     <g transform="translate(19.36 159.917187)rotate(-90)scale(0.16 -0.16)">
      <defs>
       <path d="M 9.8125 72.90625 
L 19.671875 72.90625 
L 19.671875 8.296875 
L 55.171875 8.296875 
L 55.171875 0 
L 9.8125 0 
z
" id="DejaVuSans-76"/>
       <path d="M 30.609375 48.390625 
Q 23.390625 48.390625 19.1875 42.75 
Q 14.984375 37.109375 14.984375 27.296875 
Q 14.984375 17.484375 19.15625 11.84375 
Q 23.34375 6.203125 30.609375 6.203125 
Q 37.796875 6.203125 41.984375 11.859375 
Q 46.1875 17.53125 46.1875 27.296875 
Q 46.1875 37.015625 41.984375 42.703125 
Q 37.796875 48.390625 30.609375 48.390625 
z
M 30.609375 56 
Q 42.328125 56 49.015625 48.375 
Q 55.71875 40.765625 55.71875 27.296875 
Q 55.71875 13.875 49.015625 6.21875 
Q 42.328125 -1.421875 30.609375 -1.421875 
Q 18.84375 -1.421875 12.171875 6.21875 
Q 5.515625 13.875 5.515625 27.296875 
Q 5.515625 40.765625 12.171875 48.375 
Q 18.84375 56 30.609375 56 
z
" id="DejaVuSans-111"/>
       <path d="M 45.40625 27.984375 
Q 45.40625 37.75 41.375 43.109375 
Q 37.359375 48.484375 30.078125 48.484375 
Q 22.859375 48.484375 18.828125 43.109375 
Q 14.796875 37.75 14.796875 27.984375 
Q 14.796875 18.265625 18.828125 12.890625 
Q 22.859375 7.515625 30.078125 7.515625 
Q 37.359375 7.515625 41.375 12.890625 
Q 45.40625 18.265625 45.40625 27.984375 
z
M 54.390625 6.78125 
Q 54.390625 -7.171875 48.1875 -13.984375 
Q 42 -20.796875 29.203125 -20.796875 
Q 24.46875 -20.796875 20.265625 -20.09375 
Q 16.0625 -19.390625 12.109375 -17.921875 
L 12.109375 -9.1875 
Q 16.0625 -11.328125 19.921875 -12.34375 
Q 23.78125 -13.375 27.78125 -13.375 
Q 36.625 -13.375 41.015625 -8.765625 
Q 45.40625 -4.15625 45.40625 5.171875 
L 45.40625 9.625 
Q 42.625 4.78125 38.28125 2.390625 
Q 33.9375 0 27.875 0 
Q 17.828125 0 11.671875 7.65625 
Q 5.515625 15.328125 5.515625 27.984375 
Q 5.515625 40.671875 11.671875 48.328125 
Q 17.828125 56 27.875 56 
Q 33.9375 56 38.28125 53.609375 
Q 42.625 51.21875 45.40625 46.390625 
L 45.40625 54.6875 
L 54.390625 54.6875 
z
" id="DejaVuSans-103"/>
       <path d="M 4.890625 31.390625 
L 31.203125 31.390625 
L 31.203125 23.390625 
L 4.890625 23.390625 
z
" id="DejaVuSans-45"/>
       <path d="M 9.421875 75.984375 
L 18.40625 75.984375 
L 18.40625 0 
L 9.421875 0 
z
" id="DejaVuSans-108"/>
       <path d="M 9.421875 54.6875 
L 18.40625 54.6875 
L 18.40625 0 
L 9.421875 0 
z
M 9.421875 75.984375 
L 18.40625 75.984375 
L 18.40625 64.59375 
L 9.421875 64.59375 
z
" id="DejaVuSans-105"/>
       <path d="M 9.078125 75.984375 
L 18.109375 75.984375 
L 18.109375 31.109375 
L 44.921875 54.6875 
L 56.390625 54.6875 
L 27.390625 29.109375 
L 57.625 0 
L 45.90625 0 
L 18.109375 26.703125 
L 18.109375 0 
L 9.078125 0 
z
" id="DejaVuSans-107"/>
       <path d="M 54.890625 33.015625 
L 54.890625 0 
L 45.90625 0 
L 45.90625 32.71875 
Q 45.90625 40.484375 42.875 44.328125 
Q 39.84375 48.1875 33.796875 48.1875 
Q 26.515625 48.1875 22.3125 43.546875 
Q 18.109375 38.921875 18.109375 30.90625 
L 18.109375 0 
L 9.078125 0 
L 9.078125 75.984375 
L 18.109375 75.984375 
L 18.109375 46.1875 
Q 21.34375 51.125 25.703125 53.5625 
Q 30.078125 56 35.796875 56 
Q 45.21875 56 50.046875 50.171875 
Q 54.890625 44.34375 54.890625 33.015625 
z
" id="DejaVuSans-104"/>
       <path d="M 45.40625 46.390625 
L 45.40625 75.984375 
L 54.390625 75.984375 
L 54.390625 0 
L 45.40625 0 
L 45.40625 8.203125 
Q 42.578125 3.328125 38.25 0.953125 
Q 33.9375 -1.421875 27.875 -1.421875 
Q 17.96875 -1.421875 11.734375 6.484375 
Q 5.515625 14.40625 5.515625 27.296875 
Q 5.515625 40.1875 11.734375 48.09375 
Q 17.96875 56 27.875 56 
Q 33.9375 56 38.25 53.625 
Q 42.578125 51.265625 45.40625 46.390625 
z
M 14.796875 27.296875 
Q 14.796875 17.390625 18.875 11.75 
Q 22.953125 6.109375 30.078125 6.109375 
Q 37.203125 6.109375 41.296875 11.75 
Q 45.40625 17.390625 45.40625 27.296875 
Q 45.40625 37.203125 41.296875 42.84375 
Q 37.203125 48.484375 30.078125 48.484375 
Q 22.953125 48.484375 18.875 42.84375 
Q 14.796875 37.203125 14.796875 27.296875 
z
" id="DejaVuSans-100"/>
       <path d="M 63.59375 14.296875 
L 65.296875 12.5 
Q 52.296875 -0.703125 37.703125 -0.703125 
Q 33.703125 -0.703125 28.90625 0.40625 
Q 21.796875 1.90625 17.90625 1.90625 
Q 15.703125 1.90625 10.5 0.953125 
Q 5.296875 0 3 0 
L 3.59375 2.40625 
Q 9.09375 2.40625 11.40625 11.703125 
L 18.40625 40.09375 
Q 20.09375 47 23.6875 52.390625 
Q 27.296875 57.796875 31.640625 60.84375 
Q 36 63.90625 40.390625 65.453125 
Q 44.796875 67 48.796875 67 
Q 53.796875 67 56.140625 63.796875 
Q 58.5 60.59375 58.5 56 
Q 58.5 52.296875 56.140625 50 
Q 53.796875 47.703125 50.40625 47.703125 
Q 48.203125 47.703125 46.796875 49.203125 
Q 45.40625 50.703125 45.40625 52.796875 
Q 45.40625 54.40625 46.203125 55.5 
Q 47 56.59375 47.890625 56.9375 
Q 48.796875 57.296875 49.59375 57.890625 
Q 50.40625 58.5 50.40625 59.203125 
Q 50.40625 63 44.59375 63 
Q 39.40625 63 36.09375 59.140625 
Q 32.796875 55.296875 31.09375 48.9375 
Q 29.40625 42.59375 28.046875 35.6875 
Q 26.703125 28.796875 24.203125 21.296875 
Q 21.703125 13.796875 18.09375 9.203125 
L 18.09375 8.796875 
Q 21.296875 11 29.5 11 
Q 34.796875 11 38.4375 8.5 
Q 42.09375 6 46.296875 6 
Q 54.796875 6 63.59375 14.296875 
z
" id="STIXNonUnicode-Italic-57912"/>
      </defs>
      <use transform="translate(0 0.015625)" xlink:href="#DejaVuSans-76"/>
      <use transform="translate(55.712891 0.015625)" xlink:href="#DejaVuSans-111"/>
      <use transform="translate(116.894531 0.015625)" xlink:href="#DejaVuSans-103"/>
      <use transform="translate(180.371094 0.015625)" xlink:href="#DejaVuSans-45"/>
      <use transform="translate(216.455078 0.015625)" xlink:href="#DejaVuSans-108"/>
      <use transform="translate(244.238281 0.015625)" xlink:href="#DejaVuSans-105"/>
      <use transform="translate(272.021484 0.015625)" xlink:href="#DejaVuSans-107"/>
      <use transform="translate(329.931641 0.015625)" xlink:href="#DejaVuSans-101"/>
      <use transform="translate(391.455078 0.015625)" xlink:href="#DejaVuSans-108"/>
      <use transform="translate(419.238281 0.015625)" xlink:href="#DejaVuSans-105"/>
      <use transform="translate(447.021484 0.015625)" xlink:href="#DejaVuSans-104"/>
      <use transform="translate(510.400391 0.015625)" xlink:href="#DejaVuSans-111"/>
      <use transform="translate(571.582031 0.015625)" xlink:href="#DejaVuSans-111"/>
      <use transform="translate(632.763672 0.015625)" xlink:href="#DejaVuSans-100"/>
      <use transform="translate(696.240234 0.015625)" xlink:href="#DejaVuSans-32"/>
      <use transform="translate(728.027344 0.015625)" xlink:href="#STIXNonUnicode-Italic-57912"/>
     </g>
    </g>
   </g>
   <g id="line2d_11">
    <path clip-path="url(#pa668d5f7a6)" d="M 64.904742 158.986278 
L 66.941116 97.578932 
L 68.977491 80.985669 
L 71.013865 72.12307 
L 73.05024 66.084521 
L 75.086614 61.534016 
L 77.122989 57.929836 
L 79.159364 54.991421 
L 81.195738 52.549041 
L 83.232113 50.489574 
L 85.268487 48.732923 
L 87.304862 47.220103 
L 89.341236 45.906475 
L 91.377611 44.75756 
L 93.413985 43.746288 
L 95.45036 42.851113 
L 97.486735 42.054676 
L 99.523109 41.342845 
L 101.559484 40.704001 
L 103.595858 40.128507 
L 105.632233 39.608307 
L 107.668607 39.136619 
L 109.704982 38.707689 
L 111.741357 38.316612 
L 113.777731 37.959178 
L 115.814106 37.631754 
L 117.85048 37.331192 
L 119.886855 37.05475 
L 121.923229 36.800031 
L 123.959604 36.564929 
L 125.995978 36.347587 
L 128.032353 36.146364 
L 130.068728 35.959803 
L 132.105102 35.786608 
L 134.141477 35.625621 
L 136.177851 35.475805 
L 138.214226 35.336231 
L 140.2506 35.206061 
L 142.286975 35.08454 
L 144.32335 34.970988 
L 146.359724 34.864785 
L 148.396099 34.765371 
L 150.432473 34.672236 
L 152.468848 34.584916 
L 154.505222 34.502988 
L 156.541597 34.426063 
L 158.577971 34.353788 
L 160.614346 34.285838 
L 162.650721 34.221914 
L 164.687095 34.161742 
L 166.72347 34.10507 
L 168.759844 34.051665 
L 170.796219 34.001312 
L 172.832593 33.953814 
L 174.868968 33.908987 
L 176.905343 33.86666 
L 178.941717 33.826678 
L 180.978092 33.788893 
L 183.014466 33.75317 
L 185.050841 33.719383 
L 187.087215 33.687415 
L 189.12359 33.657156 
L 191.159964 33.628506 
L 193.196339 33.601369 
L 195.232714 33.575657 
L 197.269088 33.551288 
L 199.305463 33.528183 
L 201.341837 33.50627 
L 203.378212 33.485483 
L 205.414586 33.465758 
L 207.450961 33.447035 
L 209.487336 33.429259 
L 211.52371 33.412377 
L 213.560085 33.396342 
L 215.596459 33.381105 
L 217.632834 33.366626 
L 219.669208 33.352862 
L 221.705583 33.339775 
L 223.741957 33.327331 
L 225.778332 33.315494 
L 227.814707 33.304232 
L 229.851081 33.293517 
L 231.887456 33.283318 
L 233.92383 33.273611 
L 235.960205 33.264369 
L 237.996579 33.255568 
L 240.032954 33.247186 
L 242.069329 33.239202 
L 244.105703 33.231596 
L 246.142078 33.224349 
L 248.178452 33.217443 
L 250.214827 33.21086 
L 252.251201 33.204585 
L 254.287576 33.198603 
L 256.32395 33.192898 
L 258.360325 33.187459 
L 260.3967 33.182271 
L 262.433074 33.177322 
L 264.469449 33.172601 
L 266.505823 33.168097 
" style="fill:none;stroke:#000000;stroke-linecap:square;stroke-width:1.5;"/>
   </g>
   <g id="patch_3">
    <path d="M 54.824688 165.277187 
L 54.824688 26.877187 
" style="fill:none;stroke:#000000;stroke-linecap:square;stroke-linejoin:miter;stroke-width:0.8;"/>
   </g>
   <g id="patch_4">
    <path d="M 276.585877 165.277187 
L 276.585877 26.877187 
" style="fill:none;stroke:#000000;stroke-linecap:square;stroke-linejoin:miter;stroke-width:0.8;"/>
   </g>
   <g id="patch_5">
    <path d="M 54.824688 165.277187 
L 276.585877 165.277187 
" style="fill:none;stroke:#000000;stroke-linecap:square;stroke-linejoin:miter;stroke-width:0.8;"/>
   </g>
   <g id="patch_6">
    <path d="M 54.824688 26.877187 
L 276.585877 26.877187 
" style="fill:none;stroke:#000000;stroke-linecap:square;stroke-linejoin:miter;stroke-width:0.8;"/>
   </g>
   <g id="text_13">
    <!-- Evolution of $\mathcal{L}$ -->
    <g transform="translate(103.065282 20.877187)scale(0.18 -0.18)">
     <defs>
      <path d="M 9.8125 72.90625 
L 55.90625 72.90625 
L 55.90625 64.59375 
L 19.671875 64.59375 
L 19.671875 43.015625 
L 54.390625 43.015625 
L 54.390625 34.71875 
L 19.671875 34.71875 
L 19.671875 8.296875 
L 56.78125 8.296875 
L 56.78125 0 
L 9.8125 0 
z
" id="DejaVuSans-69"/>
      <path d="M 2.984375 54.6875 
L 12.5 54.6875 
L 29.59375 8.796875 
L 46.6875 54.6875 
L 56.203125 54.6875 
L 35.6875 0 
L 23.484375 0 
z
" id="DejaVuSans-118"/>
      <path d="M 8.5 21.578125 
L 8.5 54.6875 
L 17.484375 54.6875 
L 17.484375 21.921875 
Q 17.484375 14.15625 20.5 10.265625 
Q 23.53125 6.390625 29.59375 6.390625 
Q 36.859375 6.390625 41.078125 11.03125 
Q 45.3125 15.671875 45.3125 23.6875 
L 45.3125 54.6875 
L 54.296875 54.6875 
L 54.296875 0 
L 45.3125 0 
L 45.3125 8.40625 
Q 42.046875 3.421875 37.71875 1 
Q 33.40625 -1.421875 27.6875 -1.421875 
Q 18.265625 -1.421875 13.375 4.4375 
Q 8.5 10.296875 8.5 21.578125 
z
M 31.109375 56 
z
" id="DejaVuSans-117"/>
      <path d="M 54.890625 33.015625 
L 54.890625 0 
L 45.90625 0 
L 45.90625 32.71875 
Q 45.90625 40.484375 42.875 44.328125 
Q 39.84375 48.1875 33.796875 48.1875 
Q 26.515625 48.1875 22.3125 43.546875 
Q 18.109375 38.921875 18.109375 30.90625 
L 18.109375 0 
L 9.078125 0 
L 9.078125 54.6875 
L 18.109375 54.6875 
L 18.109375 46.1875 
Q 21.34375 51.125 25.703125 53.5625 
Q 30.078125 56 35.796875 56 
Q 45.21875 56 50.046875 50.171875 
Q 54.890625 44.34375 54.890625 33.015625 
z
" id="DejaVuSans-110"/>
      <path d="M 37.109375 75.984375 
L 37.109375 68.5 
L 28.515625 68.5 
Q 23.6875 68.5 21.796875 66.546875 
Q 19.921875 64.59375 19.921875 59.515625 
L 19.921875 54.6875 
L 34.71875 54.6875 
L 34.71875 47.703125 
L 19.921875 47.703125 
L 19.921875 0 
L 10.890625 0 
L 10.890625 47.703125 
L 2.296875 47.703125 
L 2.296875 54.6875 
L 10.890625 54.6875 
L 10.890625 58.5 
Q 10.890625 67.625 15.140625 71.796875 
Q 19.390625 75.984375 28.609375 75.984375 
z
" id="DejaVuSans-102"/>
     </defs>
     <use transform="translate(0 0.015625)" xlink:href="#DejaVuSans-69"/>
     <use transform="translate(63.183594 0.015625)" xlink:href="#DejaVuSans-118"/>
     <use transform="translate(122.363281 0.015625)" xlink:href="#DejaVuSans-111"/>
     <use transform="translate(183.544922 0.015625)" xlink:href="#DejaVuSans-108"/>
     <use transform="translate(211.328125 0.015625)" xlink:href="#DejaVuSans-117"/>
     <use transform="translate(274.707031 0.015625)" xlink:href="#DejaVuSans-116"/>
     <use transform="translate(313.916016 0.015625)" xlink:href="#DejaVuSans-105"/>
     <use transform="translate(341.699219 0.015625)" xlink:href="#DejaVuSans-111"/>
     <use transform="translate(402.880859 0.015625)" xlink:href="#DejaVuSans-110"/>
     <use transform="translate(466.259766 0.015625)" xlink:href="#DejaVuSans-32"/>
     <use transform="translate(498.046875 0.015625)" xlink:href="#DejaVuSans-111"/>
     <use transform="translate(559.228516 0.015625)" xlink:href="#DejaVuSans-102"/>
     <use transform="translate(594.433594 0.015625)" xlink:href="#DejaVuSans-32"/>
     <use transform="translate(626.220703 0.015625)" xlink:href="#STIXNonUnicode-Italic-57912"/>
    </g>
   </g>
  </g>
  <g id="axes_2">
   <g id="patch_7">
    <path d="M 336.338498 165.277187 
L 558.099687 165.277187 
L 558.099687 26.877187 
L 336.338498 26.877187 
z
" style="fill:#ffffff;"/>
   </g>
   <g id="PathCollection_1">
    <defs>
     <path d="M -3.162278 3.162278 
L 3.162278 -3.162278 
M -3.162278 -3.162278 
L 3.162278 3.162278 
" id="mf33eef2f9e" style="stroke:#000000;stroke-width:1.5;"/>
    </defs>
    <g clip-path="url(#paf24d0005e)">
     <use style="stroke:#000000;stroke-width:1.5;" x="418.216135" xlink:href="#mf33eef2f9e" y="158.986278"/>
     <use style="stroke:#000000;stroke-width:1.5;" x="383.987532" xlink:href="#mf33eef2f9e" y="158.986278"/>
     <use style="stroke:#000000;stroke-width:1.5;" x="443.252352" xlink:href="#mf33eef2f9e" y="158.986278"/>
     <use style="stroke:#000000;stroke-width:1.5;" x="453.267525" xlink:href="#mf33eef2f9e" y="158.986278"/>
     <use style="stroke:#000000;stroke-width:1.5;" x="463.267019" xlink:href="#mf33eef2f9e" y="158.986278"/>
     <use style="stroke:#000000;stroke-width:1.5;" x="416.175295" xlink:href="#mf33eef2f9e" y="158.986278"/>
     <use style="stroke:#000000;stroke-width:1.5;" x="381.93707" xlink:href="#mf33eef2f9e" y="158.986278"/>
     <use style="stroke:#000000;stroke-width:1.5;" x="346.418552" xlink:href="#mf33eef2f9e" y="158.986278"/>
     <use style="stroke:#000000;stroke-width:1.5;" x="369.100783" xlink:href="#mf33eef2f9e" y="158.986278"/>
     <use style="stroke:#000000;stroke-width:1.5;" x="412.738966" xlink:href="#mf33eef2f9e" y="158.986278"/>
    </g>
   </g>
   <g id="matplotlib.axis_3">
    <g id="xtick_7">
     <g id="line2d_12">
      <g>
       <use style="stroke:#000000;stroke-width:0.8;" x="355.148484" xlink:href="#m3d00403a43" y="165.277187"/>
      </g>
     </g>
     <g id="text_14">
      <!-- −2 -->
      <g transform="translate(347.777391 179.875625)scale(0.1 -0.1)">
       <use xlink:href="#DejaVuSans-8722"/>
       <use x="83.789062" xlink:href="#DejaVuSans-50"/>
      </g>
     </g>
    </g>
    <g id="xtick_8">
     <g id="line2d_13">
      <g>
       <use style="stroke:#000000;stroke-width:0.8;" x="417.364984" xlink:href="#m3d00403a43" y="165.277187"/>
      </g>
     </g>
     <g id="text_15">
      <!-- 0 -->
      <g transform="translate(414.183734 179.875625)scale(0.1 -0.1)">
       <use xlink:href="#DejaVuSans-48"/>
      </g>
     </g>
    </g>
    <g id="xtick_9">
     <g id="line2d_14">
      <g>
       <use style="stroke:#000000;stroke-width:0.8;" x="479.581484" xlink:href="#m3d00403a43" y="165.277187"/>
      </g>
     </g>
     <g id="text_16">
      <!-- 2 -->
      <g transform="translate(476.400234 179.875625)scale(0.1 -0.1)">
       <use xlink:href="#DejaVuSans-50"/>
      </g>
     </g>
    </g>
    <g id="xtick_10">
     <g id="line2d_15">
      <g>
       <use style="stroke:#000000;stroke-width:0.8;" x="541.797983" xlink:href="#m3d00403a43" y="165.277187"/>
      </g>
     </g>
     <g id="text_17">
      <!-- 4 -->
      <g transform="translate(538.616733 179.875625)scale(0.1 -0.1)">
       <use xlink:href="#DejaVuSans-52"/>
      </g>
     </g>
    </g>
    <g id="text_18">
     <!-- $x$ -->
     <g transform="translate(442.419093 198.112812)scale(0.16 -0.16)">
      <defs>
       <path d="M 60.015625 54.6875 
L 34.90625 27.875 
L 50.296875 0 
L 39.984375 0 
L 28.421875 21.6875 
L 8.296875 0 
L -2.59375 0 
L 24.3125 28.8125 
L 10.015625 54.6875 
L 20.3125 54.6875 
L 30.8125 34.90625 
L 49.125 54.6875 
z
" id="DejaVuSans-Oblique-120"/>
      </defs>
      <use transform="translate(0 0.3125)" xlink:href="#DejaVuSans-Oblique-120"/>
     </g>
    </g>
   </g>
   <g id="matplotlib.axis_4">
    <g id="ytick_5">
     <g id="line2d_16">
      <g>
       <use style="stroke:#000000;stroke-width:0.8;" x="336.338498" xlink:href="#mcf70ce75cd" y="158.986278"/>
      </g>
     </g>
     <g id="text_19">
      <!-- 0.0 -->
      <g transform="translate(313.435373 162.785497)scale(0.1 -0.1)">
       <defs>
        <path d="M 10.6875 12.40625 
L 21 12.40625 
L 21 0 
L 10.6875 0 
z
" id="DejaVuSans-46"/>
       </defs>
       <use xlink:href="#DejaVuSans-48"/>
       <use x="63.623047" xlink:href="#DejaVuSans-46"/>
       <use x="95.410156" xlink:href="#DejaVuSans-48"/>
      </g>
     </g>
    </g>
    <g id="ytick_6">
     <g id="line2d_17">
      <g>
       <use style="stroke:#000000;stroke-width:0.8;" x="336.338498" xlink:href="#mcf70ce75cd" y="133.790319"/>
      </g>
     </g>
     <g id="text_20">
      <!-- 0.2 -->
      <g transform="translate(313.435373 137.589538)scale(0.1 -0.1)">
       <use xlink:href="#DejaVuSans-48"/>
       <use x="63.623047" xlink:href="#DejaVuSans-46"/>
       <use x="95.410156" xlink:href="#DejaVuSans-50"/>
      </g>
     </g>
    </g>
    <g id="ytick_7">
     <g id="line2d_18">
      <g>
       <use style="stroke:#000000;stroke-width:0.8;" x="336.338498" xlink:href="#mcf70ce75cd" y="108.59436"/>
      </g>
     </g>
     <g id="text_21">
      <!-- 0.4 -->
      <g transform="translate(313.435373 112.393578)scale(0.1 -0.1)">
       <use xlink:href="#DejaVuSans-48"/>
       <use x="63.623047" xlink:href="#DejaVuSans-46"/>
       <use x="95.410156" xlink:href="#DejaVuSans-52"/>
      </g>
     </g>
    </g>
    <g id="ytick_8">
     <g id="line2d_19">
      <g>
       <use style="stroke:#000000;stroke-width:0.8;" x="336.338498" xlink:href="#mcf70ce75cd" y="83.3984"/>
      </g>
     </g>
     <g id="text_22">
      <!-- 0.6 -->
      <g transform="translate(313.435373 87.197619)scale(0.1 -0.1)">
       <use xlink:href="#DejaVuSans-48"/>
       <use x="63.623047" xlink:href="#DejaVuSans-46"/>
       <use x="95.410156" xlink:href="#DejaVuSans-54"/>
      </g>
     </g>
    </g>
    <g id="ytick_9">
     <g id="line2d_20">
      <g>
       <use style="stroke:#000000;stroke-width:0.8;" x="336.338498" xlink:href="#mcf70ce75cd" y="58.202441"/>
      </g>
     </g>
     <g id="text_23">
      <!-- 0.8 -->
      <g transform="translate(313.435373 62.001659)scale(0.1 -0.1)">
       <use xlink:href="#DejaVuSans-48"/>
       <use x="63.623047" xlink:href="#DejaVuSans-46"/>
       <use x="95.410156" xlink:href="#DejaVuSans-56"/>
      </g>
     </g>
    </g>
    <g id="ytick_10">
     <g id="line2d_21">
      <g>
       <use style="stroke:#000000;stroke-width:0.8;" x="336.338498" xlink:href="#mcf70ce75cd" y="33.006481"/>
      </g>
     </g>
     <g id="text_24">
      <!-- 1.0 -->
      <g transform="translate(313.435373 36.8057)scale(0.1 -0.1)">
       <use xlink:href="#DejaVuSans-49"/>
       <use x="63.623047" xlink:href="#DejaVuSans-46"/>
       <use x="95.410156" xlink:href="#DejaVuSans-48"/>
      </g>
     </g>
    </g>
    <g id="text_25">
     <!-- $p(y = 1|\mathbf{w}, x)$ -->
     <g transform="translate(305.595373 145.997187)rotate(-90)scale(0.16 -0.16)">
      <defs>
       <path d="M 49.609375 33.6875 
Q 49.609375 40.875 46.484375 44.671875 
Q 43.359375 48.484375 37.5 48.484375 
Q 33.5 48.484375 29.859375 46.4375 
Q 26.21875 44.390625 23.390625 40.484375 
Q 20.609375 36.625 18.9375 31.15625 
Q 17.28125 25.6875 17.28125 20.3125 
Q 17.28125 13.484375 20.40625 9.796875 
Q 23.53125 6.109375 29.296875 6.109375 
Q 33.546875 6.109375 37.1875 8.109375 
Q 40.828125 10.109375 43.40625 13.921875 
Q 46.1875 17.921875 47.890625 23.34375 
Q 49.609375 28.765625 49.609375 33.6875 
z
M 21.78125 46.390625 
Q 25.390625 51.125 30.296875 53.5625 
Q 35.203125 56 41.21875 56 
Q 49.609375 56 54.25 50.5 
Q 58.890625 45.015625 58.890625 35.109375 
Q 58.890625 27 56 19.65625 
Q 53.125 12.3125 47.703125 6.5 
Q 44.09375 2.640625 39.546875 0.609375 
Q 35.015625 -1.421875 29.984375 -1.421875 
Q 24.171875 -1.421875 20.21875 1 
Q 16.265625 3.421875 14.3125 8.203125 
L 8.6875 -20.796875 
L -0.296875 -20.796875 
L 14.40625 54.6875 
L 23.390625 54.6875 
z
" id="DejaVuSans-Oblique-112"/>
       <path d="M 31 75.875 
Q 24.46875 64.65625 21.28125 53.65625 
Q 18.109375 42.671875 18.109375 31.390625 
Q 18.109375 20.125 21.3125 9.0625 
Q 24.515625 -2 31 -13.1875 
L 23.1875 -13.1875 
Q 15.875 -1.703125 12.234375 9.375 
Q 8.59375 20.453125 8.59375 31.390625 
Q 8.59375 42.28125 12.203125 53.3125 
Q 15.828125 64.359375 23.1875 75.875 
z
" id="DejaVuSans-40"/>
       <path d="M 24.8125 -5.078125 
Q 18.5625 -15.578125 14.625 -18.1875 
Q 10.6875 -20.796875 4.59375 -20.796875 
L -2.484375 -20.796875 
L -0.984375 -13.28125 
L 4.203125 -13.28125 
Q 7.953125 -13.28125 10.59375 -11.234375 
Q 13.234375 -9.1875 16.5 -3.21875 
L 19.28125 2 
L 7.171875 54.6875 
L 16.703125 54.6875 
L 25.78125 12.796875 
L 50.875 54.6875 
L 60.296875 54.6875 
z
" id="DejaVuSans-Oblique-121"/>
       <path d="M 10.59375 45.40625 
L 73.1875 45.40625 
L 73.1875 37.203125 
L 10.59375 37.203125 
z
M 10.59375 25.484375 
L 73.1875 25.484375 
L 73.1875 17.1875 
L 10.59375 17.1875 
z
" id="DejaVuSans-61"/>
       <path d="M 21 76.421875 
L 21 -23.578125 
L 12.703125 -23.578125 
L 12.703125 76.421875 
z
" id="DejaVuSans-124"/>
       <path d="M 3.515625 54.6875 
L 20.515625 54.6875 
L 29.6875 17 
L 38.921875 54.6875 
L 53.515625 54.6875 
L 62.703125 17.390625 
L 71.921875 54.6875 
L 88.921875 54.6875 
L 74.515625 0 
L 55.421875 0 
L 46.1875 37.59375 
L 37.015625 0 
L 17.921875 0 
z
" id="DejaVuSans-Bold-119"/>
       <path d="M 11.71875 12.40625 
L 22.015625 12.40625 
L 22.015625 4 
L 14.015625 -11.625 
L 7.71875 -11.625 
L 11.71875 4 
z
" id="DejaVuSans-44"/>
       <path d="M 8.015625 75.875 
L 15.828125 75.875 
Q 23.140625 64.359375 26.78125 53.3125 
Q 30.421875 42.28125 30.421875 31.390625 
Q 30.421875 20.453125 26.78125 9.375 
Q 23.140625 -1.703125 15.828125 -13.1875 
L 8.015625 -13.1875 
Q 14.5 -2 17.703125 9.0625 
Q 20.90625 20.125 20.90625 31.390625 
Q 20.90625 42.671875 17.703125 53.65625 
Q 14.5 64.65625 8.015625 75.875 
z
" id="DejaVuSans-41"/>
      </defs>
      <use transform="translate(0 0.578125)" xlink:href="#DejaVuSans-Oblique-112"/>
      <use transform="translate(63.476562 0.578125)" xlink:href="#DejaVuSans-40"/>
      <use transform="translate(102.490234 0.578125)" xlink:href="#DejaVuSans-Oblique-121"/>
      <use transform="translate(181.152344 0.578125)" xlink:href="#DejaVuSans-61"/>
      <use transform="translate(284.423828 0.578125)" xlink:href="#DejaVuSans-49"/>
      <use transform="translate(348.046875 0.578125)" xlink:href="#DejaVuSans-124"/>
      <use transform="translate(381.738281 0.578125)" xlink:href="#DejaVuSans-Bold-119"/>
      <use transform="translate(474.121094 0.578125)" xlink:href="#DejaVuSans-44"/>
      <use transform="translate(525.390625 0.578125)" xlink:href="#DejaVuSans-Oblique-120"/>
      <use transform="translate(584.570312 0.578125)" xlink:href="#DejaVuSans-41"/>
     </g>
    </g>
   </g>
   <g id="PathCollection_2">
    <defs>
     <path d="M 0 2.738613 
C 0.726289 2.738613 1.422928 2.450055 1.936492 1.936492 
C 2.450055 1.422928 2.738613 0.726289 2.738613 0 
C 2.738613 -0.726289 2.450055 -1.422928 1.936492 -1.936492 
C 1.422928 -2.450055 0.726289 -2.738613 0 -2.738613 
C -0.726289 -2.738613 -1.422928 -2.450055 -1.936492 -1.936492 
C -2.450055 -1.422928 -2.738613 -0.726289 -2.738613 0 
C -2.738613 0.726289 -2.450055 1.422928 -1.936492 1.936492 
C -1.422928 2.450055 -0.726289 2.738613 0 2.738613 
z
" id="m5061928776" style="stroke:#000000;"/>
    </defs>
    <g clip-path="url(#paf24d0005e)">
     <use style="fill:#ffffff;stroke:#000000;" x="474.020825" xlink:href="#m5061928776" y="158.986278"/>
     <use style="fill:#ffffff;stroke:#000000;" x="428.106644" xlink:href="#m5061928776" y="158.986278"/>
     <use style="fill:#ffffff;stroke:#000000;" x="463.843768" xlink:href="#m5061928776" y="158.986278"/>
     <use style="fill:#ffffff;stroke:#000000;" x="507.660902" xlink:href="#m5061928776" y="158.986278"/>
     <use style="fill:#ffffff;stroke:#000000;" x="474.925455" xlink:href="#m5061928776" y="158.986278"/>
     <use style="fill:#ffffff;stroke:#000000;" x="488.166967" xlink:href="#m5061928776" y="158.986278"/>
     <use style="fill:#ffffff;stroke:#000000;" x="444.483091" xlink:href="#m5061928776" y="158.986278"/>
     <use style="fill:#ffffff;stroke:#000000;" x="465.976543" xlink:href="#m5061928776" y="158.986278"/>
     <use style="fill:#ffffff;stroke:#000000;" x="457.326428" xlink:href="#m5061928776" y="158.986278"/>
     <use style="fill:#ffffff;stroke:#000000;" x="491.394673" xlink:href="#m5061928776" y="158.986278"/>
    </g>
   </g>
   <g id="patch_8">
    <path d="M 336.338498 165.277187 
L 336.338498 26.877187 
" style="fill:none;stroke:#000000;stroke-linecap:square;stroke-linejoin:miter;stroke-width:0.8;"/>
   </g>
   <g id="patch_9">
    <path d="M 558.099687 165.277187 
L 558.099687 26.877187 
" style="fill:none;stroke:#000000;stroke-linecap:square;stroke-linejoin:miter;stroke-width:0.8;"/>
   </g>
   <g id="patch_10">
    <path d="M 336.338498 165.277187 
L 558.099687 165.277187 
" style="fill:none;stroke:#000000;stroke-linecap:square;stroke-linejoin:miter;stroke-width:0.8;"/>
   </g>
   <g id="patch_11">
    <path d="M 336.338498 26.877187 
L 558.099687 26.877187 
" style="fill:none;stroke:#000000;stroke-linecap:square;stroke-linejoin:miter;stroke-width:0.8;"/>
   </g>
   <g id="line2d_22">
    <path clip-path="url(#paf24d0005e)" d="M 348.926834 95.99638 
L 350.937873 95.99638 
L 352.948911 95.99638 
L 354.959949 95.99638 
L 356.970988 95.99638 
L 358.982026 95.99638 
L 360.993065 95.99638 
L 363.004103 95.99638 
L 365.015141 95.99638 
L 367.02618 95.99638 
L 369.037218 95.99638 
L 371.048256 95.99638 
L 373.059295 95.99638 
L 375.070333 95.99638 
L 377.081372 95.99638 
L 379.09241 95.99638 
L 381.103448 95.99638 
L 383.114487 95.99638 
L 385.125525 95.99638 
L 387.136563 95.99638 
L 389.147602 95.99638 
L 391.15864 95.99638 
L 393.169679 95.99638 
L 395.180717 95.99638 
L 397.191755 95.99638 
L 399.202794 95.99638 
L 401.213832 95.99638 
L 403.22487 95.99638 
L 405.235909 95.99638 
L 407.246947 95.99638 
L 409.257986 95.99638 
L 411.269024 95.99638 
L 413.280062 95.99638 
L 415.291101 95.99638 
L 417.302139 95.99638 
L 419.313177 95.99638 
L 421.324216 95.99638 
L 423.335254 95.99638 
L 425.346293 95.99638 
L 427.357331 95.99638 
L 429.368369 95.99638 
L 431.379408 95.99638 
L 433.390446 95.99638 
L 435.401484 95.99638 
L 437.412523 95.99638 
L 439.423561 95.99638 
L 441.4346 95.99638 
L 443.445638 95.99638 
L 445.456676 95.99638 
L 447.467715 95.99638 
L 449.478753 95.99638 
L 451.489791 95.99638 
L 453.50083 95.99638 
L 455.511868 95.99638 
L 457.522907 95.99638 
L 459.533945 95.99638 
L 461.544983 95.99638 
L 463.556022 95.99638 
L 465.56706 95.99638 
L 467.578098 95.99638 
L 469.589137 95.99638 
L 471.600175 95.99638 
L 473.611214 95.99638 
L 475.622252 95.99638 
L 477.63329 95.99638 
L 479.644329 95.99638 
L 481.655367 95.99638 
L 483.666405 95.99638 
L 485.677444 95.99638 
L 487.688482 95.99638 
L 489.699521 95.99638 
L 491.710559 95.99638 
L 493.721597 95.99638 
L 495.732636 95.99638 
L 497.743674 95.99638 
L 499.754712 95.99638 
L 501.765751 95.99638 
L 503.776789 95.99638 
L 505.787828 95.99638 
L 507.798866 95.99638 
L 509.809904 95.99638 
L 511.820943 95.99638 
L 513.831981 95.99638 
L 515.843019 95.99638 
L 517.854058 95.99638 
L 519.865096 95.99638 
L 521.876135 95.99638 
L 523.887173 95.99638 
L 525.898211 95.99638 
L 527.90925 95.99638 
L 529.920288 95.99638 
L 531.931326 95.99638 
L 533.942365 95.99638 
L 535.953403 95.99638 
L 537.964442 95.99638 
L 539.97548 95.99638 
L 541.986518 95.99638 
L 543.997557 95.99638 
L 546.008595 95.99638 
L 548.019633 95.99638 
" style="fill:none;stroke:#0000ff;stroke-linecap:square;stroke-width:1.5;"/>
   </g>
   <g id="line2d_23">
    <path clip-path="url(#paf24d0005e)" d="M 348.926834 33.168097 
L 350.937873 33.192366 
L 352.948911 33.220275 
L 354.959949 33.252365 
L 356.970988 33.28926 
L 358.982026 33.331678 
L 360.993065 33.38044 
L 363.004103 33.436489 
L 365.015141 33.500905 
L 367.02618 33.574926 
L 369.037218 33.659972 
L 371.048256 33.757666 
L 373.059295 33.869864 
L 375.070333 33.998687 
L 377.081372 34.146557 
L 379.09241 34.316232 
L 381.103448 34.510856 
L 383.114487 34.733999 
L 385.125525 34.989714 
L 387.136563 35.282588 
L 389.147602 35.6178 
L 391.15864 36.001186 
L 393.169679 36.439293 
L 395.180717 36.939443 
L 397.191755 37.509785 
L 399.202794 38.159344 
L 401.213832 38.898052 
L 403.22487 39.736761 
L 405.235909 40.68723 
L 407.246947 41.762071 
L 409.257986 42.974652 
L 411.269024 44.33893 
L 413.280062 45.869226 
L 415.291101 47.5799 
L 417.302139 49.484942 
L 419.313177 51.597454 
L 421.324216 53.929042 
L 423.335254 56.489103 
L 425.346293 59.284059 
L 427.357331 62.316549 
L 429.368369 65.584645 
L 431.379408 69.081154 
L 433.390446 72.793077 
L 435.401484 76.701314 
L 437.412523 80.78067 
L 439.423561 85.000226 
L 441.4346 89.324087 
L 443.445638 93.712491 
L 445.456676 98.123207 
L 447.467715 102.513142 
L 449.478753 106.840006 
L 451.489791 111.063923 
L 453.50083 115.148838 
L 455.511868 119.063642 
L 457.522907 122.782926 
L 459.533945 126.287371 
L 461.544983 129.563764 
L 463.556022 132.604713 
L 465.56706 135.408114 
L 467.578098 137.976456 
L 469.589137 140.316039 
L 471.600175 142.436171 
L 473.611214 144.348388 
L 475.622252 146.065752 
L 477.63329 147.602231 
L 479.644329 148.972179 
L 481.655367 150.189922 
L 483.666405 151.269439 
L 485.677444 152.224119 
L 487.688482 153.066603 
L 489.699521 153.808683 
L 491.710559 154.461243 
L 493.721597 155.034248 
L 495.732636 155.536754 
L 497.743674 155.976942 
L 499.754712 156.362161 
L 501.765751 156.698986 
L 503.776789 156.993275 
L 505.787828 157.250232 
L 507.798866 157.474464 
L 509.809904 157.67004 
L 511.820943 157.840548 
L 513.831981 157.989145 
L 515.843019 158.118604 
L 517.854058 158.231356 
L 519.865096 158.329533 
L 521.876135 158.415001 
L 523.887173 158.48939 
L 525.898211 158.554126 
L 527.90925 158.610453 
L 529.920288 158.659458 
L 531.931326 158.702087 
L 533.942365 158.739167 
L 535.953403 158.771417 
L 537.964442 158.799464 
L 539.97548 158.823855 
L 541.986518 158.845065 
L 543.997557 158.863508 
L 546.008595 158.879544 
L 548.019633 158.893488 
" style="fill:none;stroke:#ff0000;stroke-linecap:square;stroke-width:1.5;"/>
   </g>
   <g id="text_26">
    <!-- Data space -->
    <g transform="translate(396.466124 20.877187)scale(0.18 -0.18)">
     <defs>
      <path d="M 19.671875 64.796875 
L 19.671875 8.109375 
L 31.59375 8.109375 
Q 46.6875 8.109375 53.6875 14.9375 
Q 60.6875 21.78125 60.6875 36.53125 
Q 60.6875 51.171875 53.6875 57.984375 
Q 46.6875 64.796875 31.59375 64.796875 
z
M 9.8125 72.90625 
L 30.078125 72.90625 
Q 51.265625 72.90625 61.171875 64.09375 
Q 71.09375 55.28125 71.09375 36.53125 
Q 71.09375 17.671875 61.125 8.828125 
Q 51.171875 0 30.078125 0 
L 9.8125 0 
z
" id="DejaVuSans-68"/>
      <path d="M 34.28125 27.484375 
Q 23.390625 27.484375 19.1875 25 
Q 14.984375 22.515625 14.984375 16.5 
Q 14.984375 11.71875 18.140625 8.90625 
Q 21.296875 6.109375 26.703125 6.109375 
Q 34.1875 6.109375 38.703125 11.40625 
Q 43.21875 16.703125 43.21875 25.484375 
L 43.21875 27.484375 
z
M 52.203125 31.203125 
L 52.203125 0 
L 43.21875 0 
L 43.21875 8.296875 
Q 40.140625 3.328125 35.546875 0.953125 
Q 30.953125 -1.421875 24.3125 -1.421875 
Q 15.921875 -1.421875 10.953125 3.296875 
Q 6 8.015625 6 15.921875 
Q 6 25.140625 12.171875 29.828125 
Q 18.359375 34.515625 30.609375 34.515625 
L 43.21875 34.515625 
L 43.21875 35.40625 
Q 43.21875 41.609375 39.140625 45 
Q 35.0625 48.390625 27.6875 48.390625 
Q 23 48.390625 18.546875 47.265625 
Q 14.109375 46.140625 10.015625 43.890625 
L 10.015625 52.203125 
Q 14.9375 54.109375 19.578125 55.046875 
Q 24.21875 56 28.609375 56 
Q 40.484375 56 46.34375 49.84375 
Q 52.203125 43.703125 52.203125 31.203125 
z
" id="DejaVuSans-97"/>
      <path d="M 44.28125 53.078125 
L 44.28125 44.578125 
Q 40.484375 46.53125 36.375 47.5 
Q 32.28125 48.484375 27.875 48.484375 
Q 21.1875 48.484375 17.84375 46.4375 
Q 14.5 44.390625 14.5 40.28125 
Q 14.5 37.15625 16.890625 35.375 
Q 19.28125 33.59375 26.515625 31.984375 
L 29.59375 31.296875 
Q 39.15625 29.25 43.1875 25.515625 
Q 47.21875 21.78125 47.21875 15.09375 
Q 47.21875 7.46875 41.1875 3.015625 
Q 35.15625 -1.421875 24.609375 -1.421875 
Q 20.21875 -1.421875 15.453125 -0.5625 
Q 10.6875 0.296875 5.421875 2 
L 5.421875 11.28125 
Q 10.40625 8.6875 15.234375 7.390625 
Q 20.0625 6.109375 24.8125 6.109375 
Q 31.15625 6.109375 34.5625 8.28125 
Q 37.984375 10.453125 37.984375 14.40625 
Q 37.984375 18.0625 35.515625 20.015625 
Q 33.0625 21.96875 24.703125 23.78125 
L 21.578125 24.515625 
Q 13.234375 26.265625 9.515625 29.90625 
Q 5.8125 33.546875 5.8125 39.890625 
Q 5.8125 47.609375 11.28125 51.796875 
Q 16.75 56 26.8125 56 
Q 31.78125 56 36.171875 55.265625 
Q 40.578125 54.546875 44.28125 53.078125 
z
" id="DejaVuSans-115"/>
      <path d="M 48.78125 52.59375 
L 48.78125 44.1875 
Q 44.96875 46.296875 41.140625 47.34375 
Q 37.3125 48.390625 33.40625 48.390625 
Q 24.65625 48.390625 19.8125 42.84375 
Q 14.984375 37.3125 14.984375 27.296875 
Q 14.984375 17.28125 19.8125 11.734375 
Q 24.65625 6.203125 33.40625 6.203125 
Q 37.3125 6.203125 41.140625 7.25 
Q 44.96875 8.296875 48.78125 10.40625 
L 48.78125 2.09375 
Q 45.015625 0.34375 40.984375 -0.53125 
Q 36.96875 -1.421875 32.421875 -1.421875 
Q 20.0625 -1.421875 12.78125 6.34375 
Q 5.515625 14.109375 5.515625 27.296875 
Q 5.515625 40.671875 12.859375 48.328125 
Q 20.21875 56 33.015625 56 
Q 37.15625 56 41.109375 55.140625 
Q 45.0625 54.296875 48.78125 52.59375 
z
" id="DejaVuSans-99"/>
     </defs>
     <use xlink:href="#DejaVuSans-68"/>
     <use x="77.001953" xlink:href="#DejaVuSans-97"/>
     <use x="138.28125" xlink:href="#DejaVuSans-116"/>
     <use x="177.490234" xlink:href="#DejaVuSans-97"/>
     <use x="238.769531" xlink:href="#DejaVuSans-32"/>
     <use x="270.556641" xlink:href="#DejaVuSans-115"/>
     <use x="322.65625" xlink:href="#DejaVuSans-112"/>
     <use x="386.132812" xlink:href="#DejaVuSans-97"/>
     <use x="447.412109" xlink:href="#DejaVuSans-99"/>
     <use x="502.392578" xlink:href="#DejaVuSans-101"/>
    </g>
   </g>
   <g id="legend_1">
    <g id="patch_12">
     <path d="M 486.4075 93.630312 
L 551.099687 93.630312 
Q 553.099687 93.630312 553.099687 91.630312 
L 553.099687 33.877187 
Q 553.099687 31.877187 551.099687 31.877187 
L 486.4075 31.877187 
Q 484.4075 31.877187 484.4075 33.877187 
L 484.4075 91.630312 
Q 484.4075 93.630312 486.4075 93.630312 
z
" style="fill:#ffffff;opacity:0.8;stroke:#cccccc;stroke-linejoin:miter;"/>
    </g>
    <g id="line2d_24">
     <path d="M 488.4075 39.975625 
L 508.4075 39.975625 
" style="fill:none;stroke:#0000ff;stroke-linecap:square;stroke-width:1.5;"/>
    </g>
    <g id="line2d_25"/>
    <g id="text_27">
     <!-- Before -->
     <g transform="translate(516.4075 43.475625)scale(0.1 -0.1)">
      <defs>
       <path d="M 19.671875 34.8125 
L 19.671875 8.109375 
L 35.5 8.109375 
Q 43.453125 8.109375 47.28125 11.40625 
Q 51.125 14.703125 51.125 21.484375 
Q 51.125 28.328125 47.28125 31.5625 
Q 43.453125 34.8125 35.5 34.8125 
z
M 19.671875 64.796875 
L 19.671875 42.828125 
L 34.28125 42.828125 
Q 41.5 42.828125 45.03125 45.53125 
Q 48.578125 48.25 48.578125 53.8125 
Q 48.578125 59.328125 45.03125 62.0625 
Q 41.5 64.796875 34.28125 64.796875 
z
M 9.8125 72.90625 
L 35.015625 72.90625 
Q 46.296875 72.90625 52.390625 68.21875 
Q 58.5 63.53125 58.5 54.890625 
Q 58.5 48.1875 55.375 44.234375 
Q 52.25 40.28125 46.1875 39.3125 
Q 53.46875 37.75 57.5 32.78125 
Q 61.53125 27.828125 61.53125 20.40625 
Q 61.53125 10.640625 54.890625 5.3125 
Q 48.25 0 35.984375 0 
L 9.8125 0 
z
" id="DejaVuSans-66"/>
       <path d="M 41.109375 46.296875 
Q 39.59375 47.171875 37.8125 47.578125 
Q 36.03125 48 33.890625 48 
Q 26.265625 48 22.1875 43.046875 
Q 18.109375 38.09375 18.109375 28.8125 
L 18.109375 0 
L 9.078125 0 
L 9.078125 54.6875 
L 18.109375 54.6875 
L 18.109375 46.1875 
Q 20.953125 51.171875 25.484375 53.578125 
Q 30.03125 56 36.53125 56 
Q 37.453125 56 38.578125 55.875 
Q 39.703125 55.765625 41.0625 55.515625 
z
" id="DejaVuSans-114"/>
      </defs>
      <use xlink:href="#DejaVuSans-66"/>
      <use x="68.603516" xlink:href="#DejaVuSans-101"/>
      <use x="130.126953" xlink:href="#DejaVuSans-102"/>
      <use x="165.332031" xlink:href="#DejaVuSans-111"/>
      <use x="226.513672" xlink:href="#DejaVuSans-114"/>
      <use x="265.376953" xlink:href="#DejaVuSans-101"/>
     </g>
    </g>
    <g id="line2d_26">
     <path d="M 488.4075 54.65375 
L 508.4075 54.65375 
" style="fill:none;stroke:#ff0000;stroke-linecap:square;stroke-width:1.5;"/>
    </g>
    <g id="line2d_27"/>
    <g id="text_28">
     <!-- After -->
     <g transform="translate(516.4075 58.15375)scale(0.1 -0.1)">
      <defs>
       <path d="M 34.1875 63.1875 
L 20.796875 26.90625 
L 47.609375 26.90625 
z
M 28.609375 72.90625 
L 39.796875 72.90625 
L 67.578125 0 
L 57.328125 0 
L 50.6875 18.703125 
L 17.828125 18.703125 
L 11.1875 0 
L 0.78125 0 
z
" id="DejaVuSans-65"/>
      </defs>
      <use xlink:href="#DejaVuSans-65"/>
      <use x="64.783203" xlink:href="#DejaVuSans-102"/>
      <use x="98.238281" xlink:href="#DejaVuSans-116"/>
      <use x="137.447266" xlink:href="#DejaVuSans-101"/>
      <use x="198.970703" xlink:href="#DejaVuSans-114"/>
     </g>
    </g>
    <g id="PathCollection_3">
     <g>
      <use style="fill:#ffffff;stroke:#000000;" x="498.4075" xlink:href="#m5061928776" y="70.206875"/>
     </g>
    </g>
    <g id="text_29">
     <!-- $y=0$ -->
     <g transform="translate(516.4075 72.831875)scale(0.1 -0.1)">
      <use transform="translate(0 0.78125)" xlink:href="#DejaVuSans-Oblique-121"/>
      <use transform="translate(78.662109 0.78125)" xlink:href="#DejaVuSans-61"/>
      <use transform="translate(181.933594 0.78125)" xlink:href="#DejaVuSans-48"/>
     </g>
    </g>
    <g id="PathCollection_4">
     <g>
      <use style="stroke:#000000;stroke-width:1.5;" x="498.4075" xlink:href="#mf33eef2f9e" y="84.905312"/>
     </g>
    </g>
    <g id="text_30">
     <!-- $y=1$ -->
     <g transform="translate(516.4075 87.530312)scale(0.1 -0.1)">
      <use transform="translate(0 0.09375)" xlink:href="#DejaVuSans-Oblique-121"/>
      <use transform="translate(78.662109 0.09375)" xlink:href="#DejaVuSans-61"/>
      <use transform="translate(181.933594 0.09375)" xlink:href="#DejaVuSans-49"/>
     </g>
    </g>
   </g>
  </g>
 </g>
 <defs>
  <clipPath id="pa668d5f7a6">
   <rect height="138.4" width="221.76119" x="54.824688" y="26.877187"/>
  </clipPath>
  <clipPath id="paf24d0005e">
   <rect height="138.4" width="221.76119" x="336.338498" y="26.877187"/>
  </clipPath>
 </defs>
</svg>
