<?xml version="1.0" encoding="utf-8" standalone="no"?>
<!DOCTYPE svg PUBLIC "-//W3C//DTD SVG 1.1//EN"
  "http://www.w3.org/Graphics/SVG/1.1/DTD/svg11.dtd">
<!-- Created with matplotlib (http://matplotlib.org/) -->
<svg height="343.975937pt" version="1.1" viewBox="0 0 341.075625 343.975937" width="341.075625pt" xmlns="http://www.w3.org/2000/svg" xmlns:xlink="http://www.w3.org/1999/xlink">
 <defs>
  <style type="text/css">
*{stroke-linecap:butt;stroke-linejoin:round;}
  </style>
 </defs>
 <g id="figure_1">
  <g id="patch_1">
   <path d="M 0 343.975937 
L 341.075625 343.975937 
L 341.075625 0 
L 0 0 
z
" style="fill:none;"/>
  </g>
  <g id="axes_1">
   <g id="patch_2">
    <path d="M 51.375625 298.677188 
L 330.375625 298.677188 
L 330.375625 26.877187 
L 51.375625 26.877187 
z
" style="fill:#ffffff;"/>
   </g>
   <g id="PathCollection_1">
    <defs>
     <path d="M -3 3 
L 3 -3 
M -3 -3 
L 3 3 
" id="m8ee2e116c5" style="stroke:#ff0000;stroke-width:1.5;"/>
    </defs>
    <g clip-path="url(#p42c4f348a0)">
     <use style="fill:#ff0000;stroke:#ff0000;stroke-width:1.5;" x="97.576959" xlink:href="#m8ee2e116c5" y="255.895553"/>
     <use style="fill:#ff0000;stroke:#ff0000;stroke-width:1.5;" x="132.935587" xlink:href="#m8ee2e116c5" y="212.098097"/>
     <use style="fill:#ff0000;stroke:#ff0000;stroke-width:1.5;" x="95.814663" xlink:href="#m8ee2e116c5" y="264.503824"/>
     <use style="fill:#ff0000;stroke:#ff0000;stroke-width:1.5;" x="140.506167" xlink:href="#m8ee2e116c5" y="216.645857"/>
     <use style="fill:#ff0000;stroke:#ff0000;stroke-width:1.5;" x="192.800928" xlink:href="#m8ee2e116c5" y="162.667346"/>
     <use style="fill:#ff0000;stroke:#ff0000;stroke-width:1.5;" x="177.522664" xlink:href="#m8ee2e116c5" y="172.401151"/>
     <use style="fill:#ff0000;stroke:#ff0000;stroke-width:1.5;" x="149.452508" xlink:href="#m8ee2e116c5" y="206.527414"/>
     <use style="fill:#ff0000;stroke:#ff0000;stroke-width:1.5;" x="165.090383" xlink:href="#m8ee2e116c5" y="190.166368"/>
     <use style="fill:#ff0000;stroke:#ff0000;stroke-width:1.5;" x="112.894268" xlink:href="#m8ee2e116c5" y="243.932795"/>
     <use style="fill:#ff0000;stroke:#ff0000;stroke-width:1.5;" x="174.795579" xlink:href="#m8ee2e116c5" y="186.605903"/>
     <use style="fill:#ff0000;stroke:#ff0000;stroke-width:1.5;" x="317.144619" xlink:href="#m8ee2e116c5" y="39.783345"/>
     <use style="fill:#ff0000;stroke:#ff0000;stroke-width:1.5;" x="146.384099" xlink:href="#m8ee2e116c5" y="213.846963"/>
     <use style="fill:#ff0000;stroke:#ff0000;stroke-width:1.5;" x="76.516721" xlink:href="#m8ee2e116c5" y="285.77103"/>
     <use style="fill:#ff0000;stroke:#ff0000;stroke-width:1.5;" x="186.728073" xlink:href="#m8ee2e116c5" y="171.597074"/>
     <use style="fill:#ff0000;stroke:#ff0000;stroke-width:1.5;" x="106.643895" xlink:href="#m8ee2e116c5" y="241.680168"/>
     <use style="fill:#ff0000;stroke:#ff0000;stroke-width:1.5;" x="179.714542" xlink:href="#m8ee2e116c5" y="175.63439"/>
     <use style="fill:#ff0000;stroke:#ff0000;stroke-width:1.5;" x="238.929123" xlink:href="#m8ee2e116c5" y="129.482458"/>
     <use style="fill:#ff0000;stroke:#ff0000;stroke-width:1.5;" x="205.932164" xlink:href="#m8ee2e116c5" y="151.089156"/>
     <use style="fill:#ff0000;stroke:#ff0000;stroke-width:1.5;" x="122.755809" xlink:href="#m8ee2e116c5" y="227.249022"/>
     <use style="fill:#ff0000;stroke:#ff0000;stroke-width:1.5;" x="209.114" xlink:href="#m8ee2e116c5" y="150.267911"/>
     <use style="fill:#ff0000;stroke:#ff0000;stroke-width:1.5;" x="245.697882" xlink:href="#m8ee2e116c5" y="120.056722"/>
     <use style="fill:#ff0000;stroke:#ff0000;stroke-width:1.5;" x="270.640358" xlink:href="#m8ee2e116c5" y="78.80478"/>
     <use style="fill:#ff0000;stroke:#ff0000;stroke-width:1.5;" x="215.700614" xlink:href="#m8ee2e116c5" y="144.501485"/>
     <use style="fill:#ff0000;stroke:#ff0000;stroke-width:1.5;" x="250.504579" xlink:href="#m8ee2e116c5" y="104.371122"/>
     <use style="fill:#ff0000;stroke:#ff0000;stroke-width:1.5;" x="271.453412" xlink:href="#m8ee2e116c5" y="88.821609"/>
     <use style="fill:#ff0000;stroke:#ff0000;stroke-width:1.5;" x="233.274475" xlink:href="#m8ee2e116c5" y="123.18267"/>
     <use style="fill:#ff0000;stroke:#ff0000;stroke-width:1.5;" x="217.655715" xlink:href="#m8ee2e116c5" y="146.299443"/>
     <use style="fill:#ff0000;stroke:#ff0000;stroke-width:1.5;" x="188.927978" xlink:href="#m8ee2e116c5" y="166.368377"/>
     <use style="fill:#ff0000;stroke:#ff0000;stroke-width:1.5;" x="184.418713" xlink:href="#m8ee2e116c5" y="171.409661"/>
     <use style="fill:#ff0000;stroke:#ff0000;stroke-width:1.5;" x="221.867721" xlink:href="#m8ee2e116c5" y="138.090526"/>
     <use style="fill:#ff0000;stroke:#ff0000;stroke-width:1.5;" x="223.80504" xlink:href="#m8ee2e116c5" y="136.178939"/>
     <use style="fill:#ff0000;stroke:#ff0000;stroke-width:1.5;" x="234.47176" xlink:href="#m8ee2e116c5" y="132.571998"/>
     <use style="fill:#ff0000;stroke:#ff0000;stroke-width:1.5;" x="180.55965" xlink:href="#m8ee2e116c5" y="178.705307"/>
     <use style="fill:#ff0000;stroke:#ff0000;stroke-width:1.5;" x="270.559812" xlink:href="#m8ee2e116c5" y="86.319996"/>
     <use style="fill:#ff0000;stroke:#ff0000;stroke-width:1.5;" x="234.733411" xlink:href="#m8ee2e116c5" y="123.429094"/>
     <use style="fill:#ff0000;stroke:#ff0000;stroke-width:1.5;" x="151.06349" xlink:href="#m8ee2e116c5" y="204.914557"/>
     <use style="fill:#ff0000;stroke:#ff0000;stroke-width:1.5;" x="133.616114" xlink:href="#m8ee2e116c5" y="228.802476"/>
     <use style="fill:#ff0000;stroke:#ff0000;stroke-width:1.5;" x="169.809353" xlink:href="#m8ee2e116c5" y="190.63887"/>
     <use style="fill:#ff0000;stroke:#ff0000;stroke-width:1.5;" x="234.482338" xlink:href="#m8ee2e116c5" y="126.827231"/>
     <use style="fill:#ff0000;stroke:#ff0000;stroke-width:1.5;" x="204.333279" xlink:href="#m8ee2e116c5" y="153.154333"/>
     <use style="fill:#ff0000;stroke:#ff0000;stroke-width:1.5;" x="245.718762" xlink:href="#m8ee2e116c5" y="108.437628"/>
     <use style="fill:#ff0000;stroke:#ff0000;stroke-width:1.5;" x="168.753647" xlink:href="#m8ee2e116c5" y="195.926999"/>
     <use style="fill:#ff0000;stroke:#ff0000;stroke-width:1.5;" x="107.826005" xlink:href="#m8ee2e116c5" y="238.391852"/>
     <use style="fill:#ff0000;stroke:#ff0000;stroke-width:1.5;" x="128.913447" xlink:href="#m8ee2e116c5" y="228.132027"/>
     <use style="fill:#ff0000;stroke:#ff0000;stroke-width:1.5;" x="240.511186" xlink:href="#m8ee2e116c5" y="112.765448"/>
     <use style="fill:#ff0000;stroke:#ff0000;stroke-width:1.5;" x="206.028739" xlink:href="#m8ee2e116c5" y="145.666731"/>
     <use style="fill:#ff0000;stroke:#ff0000;stroke-width:1.5;" x="175.465927" xlink:href="#m8ee2e116c5" y="176.800682"/>
     <use style="fill:#ff0000;stroke:#ff0000;stroke-width:1.5;" x="168.601368" xlink:href="#m8ee2e116c5" y="184.86729"/>
     <use style="fill:#ff0000;stroke:#ff0000;stroke-width:1.5;" x="183.487993" xlink:href="#m8ee2e116c5" y="164.906924"/>
     <use style="fill:#ff0000;stroke:#ff0000;stroke-width:1.5;" x="181.083794" xlink:href="#m8ee2e116c5" y="174.175509"/>
     <use style="fill:#ff0000;stroke:#ff0000;stroke-width:1.5;" x="95.965377" xlink:href="#m8ee2e116c5" y="266.20787"/>
     <use style="fill:#ff0000;stroke:#ff0000;stroke-width:1.5;" x="250.916863" xlink:href="#m8ee2e116c5" y="103.008634"/>
     <use style="fill:#ff0000;stroke:#ff0000;stroke-width:1.5;" x="243.462488" xlink:href="#m8ee2e116c5" y="105.433901"/>
     <use style="fill:#ff0000;stroke:#ff0000;stroke-width:1.5;" x="211.591975" xlink:href="#m8ee2e116c5" y="150.067923"/>
     <use style="fill:#ff0000;stroke:#ff0000;stroke-width:1.5;" x="86.712965" xlink:href="#m8ee2e116c5" y="261.126699"/>
     <use style="fill:#ff0000;stroke:#ff0000;stroke-width:1.5;" x="91.005127" xlink:href="#m8ee2e116c5" y="259.797821"/>
     <use style="fill:#ff0000;stroke:#ff0000;stroke-width:1.5;" x="227.63809" xlink:href="#m8ee2e116c5" y="121.085671"/>
     <use style="fill:#ff0000;stroke:#ff0000;stroke-width:1.5;" x="200.205988" xlink:href="#m8ee2e116c5" y="153.463192"/>
     <use style="fill:#ff0000;stroke:#ff0000;stroke-width:1.5;" x="140.660185" xlink:href="#m8ee2e116c5" y="216.513408"/>
     <use style="fill:#ff0000;stroke:#ff0000;stroke-width:1.5;" x="154.904605" xlink:href="#m8ee2e116c5" y="197.191832"/>
     <use style="fill:#ff0000;stroke:#ff0000;stroke-width:1.5;" x="172.1901" xlink:href="#m8ee2e116c5" y="190.381285"/>
     <use style="fill:#ff0000;stroke:#ff0000;stroke-width:1.5;" x="169.983693" xlink:href="#m8ee2e116c5" y="180.417115"/>
     <use style="fill:#ff0000;stroke:#ff0000;stroke-width:1.5;" x="224.396679" xlink:href="#m8ee2e116c5" y="134.550935"/>
     <use style="fill:#ff0000;stroke:#ff0000;stroke-width:1.5;" x="206.059163" xlink:href="#m8ee2e116c5" y="142.50437"/>
     <use style="fill:#ff0000;stroke:#ff0000;stroke-width:1.5;" x="153.24952" xlink:href="#m8ee2e116c5" y="201.383813"/>
     <use style="fill:#ff0000;stroke:#ff0000;stroke-width:1.5;" x="226.481017" xlink:href="#m8ee2e116c5" y="129.068654"/>
     <use style="fill:#ff0000;stroke:#ff0000;stroke-width:1.5;" x="222.901057" xlink:href="#m8ee2e116c5" y="135.1075"/>
     <use style="fill:#ff0000;stroke:#ff0000;stroke-width:1.5;" x="219.291696" xlink:href="#m8ee2e116c5" y="135.417767"/>
     <use style="fill:#ff0000;stroke:#ff0000;stroke-width:1.5;" x="159.703918" xlink:href="#m8ee2e116c5" y="198.145555"/>
     <use style="fill:#ff0000;stroke:#ff0000;stroke-width:1.5;" x="171.175063" xlink:href="#m8ee2e116c5" y="191.34281"/>
     <use style="fill:#ff0000;stroke:#ff0000;stroke-width:1.5;" x="263.532093" xlink:href="#m8ee2e116c5" y="93.31347"/>
     <use style="fill:#ff0000;stroke:#ff0000;stroke-width:1.5;" x="178.460416" xlink:href="#m8ee2e116c5" y="175.577815"/>
     <use style="fill:#ff0000;stroke:#ff0000;stroke-width:1.5;" x="64.606631" xlink:href="#m8ee2e116c5" y="285.436494"/>
     <use style="fill:#ff0000;stroke:#ff0000;stroke-width:1.5;" x="232.295289" xlink:href="#m8ee2e116c5" y="120.491977"/>
     <use style="fill:#ff0000;stroke:#ff0000;stroke-width:1.5;" x="256.888219" xlink:href="#m8ee2e116c5" y="104.31718"/>
     <use style="fill:#ff0000;stroke:#ff0000;stroke-width:1.5;" x="187.689867" xlink:href="#m8ee2e116c5" y="161.157884"/>
     <use style="fill:#ff0000;stroke:#ff0000;stroke-width:1.5;" x="228.685117" xlink:href="#m8ee2e116c5" y="133.737126"/>
     <use style="fill:#ff0000;stroke:#ff0000;stroke-width:1.5;" x="195.30069" xlink:href="#m8ee2e116c5" y="165.589156"/>
     <use style="fill:#ff0000;stroke:#ff0000;stroke-width:1.5;" x="133.871695" xlink:href="#m8ee2e116c5" y="227.778292"/>
     <use style="fill:#ff0000;stroke:#ff0000;stroke-width:1.5;" x="248.235368" xlink:href="#m8ee2e116c5" y="112.665172"/>
     <use style="fill:#ff0000;stroke:#ff0000;stroke-width:1.5;" x="209.06167" xlink:href="#m8ee2e116c5" y="139.165286"/>
     <use style="fill:#ff0000;stroke:#ff0000;stroke-width:1.5;" x="139.930116" xlink:href="#m8ee2e116c5" y="216.015549"/>
     <use style="fill:#ff0000;stroke:#ff0000;stroke-width:1.5;" x="248.938163" xlink:href="#m8ee2e116c5" y="105.569647"/>
     <use style="fill:#ff0000;stroke:#ff0000;stroke-width:1.5;" x="243.550736" xlink:href="#m8ee2e116c5" y="122.781158"/>
     <use style="fill:#ff0000;stroke:#ff0000;stroke-width:1.5;" x="127.172725" xlink:href="#m8ee2e116c5" y="227.352165"/>
     <use style="fill:#ff0000;stroke:#ff0000;stroke-width:1.5;" x="140.796719" xlink:href="#m8ee2e116c5" y="214.012255"/>
     <use style="fill:#ff0000;stroke:#ff0000;stroke-width:1.5;" x="146.539319" xlink:href="#m8ee2e116c5" y="213.239602"/>
     <use style="fill:#ff0000;stroke:#ff0000;stroke-width:1.5;" x="239.600975" xlink:href="#m8ee2e116c5" y="115.519477"/>
     <use style="fill:#ff0000;stroke:#ff0000;stroke-width:1.5;" x="231.32756" xlink:href="#m8ee2e116c5" y="130.467397"/>
     <use style="fill:#ff0000;stroke:#ff0000;stroke-width:1.5;" x="211.776578" xlink:href="#m8ee2e116c5" y="146.064452"/>
     <use style="fill:#ff0000;stroke:#ff0000;stroke-width:1.5;" x="210.152917" xlink:href="#m8ee2e116c5" y="154.612011"/>
     <use style="fill:#ff0000;stroke:#ff0000;stroke-width:1.5;" x="227.093549" xlink:href="#m8ee2e116c5" y="142.275941"/>
     <use style="fill:#ff0000;stroke:#ff0000;stroke-width:1.5;" x="160.782006" xlink:href="#m8ee2e116c5" y="204.05611"/>
     <use style="fill:#ff0000;stroke:#ff0000;stroke-width:1.5;" x="244.786273" xlink:href="#m8ee2e116c5" y="113.591336"/>
     <use style="fill:#ff0000;stroke:#ff0000;stroke-width:1.5;" x="222.369348" xlink:href="#m8ee2e116c5" y="128.075473"/>
     <use style="fill:#ff0000;stroke:#ff0000;stroke-width:1.5;" x="253.851665" xlink:href="#m8ee2e116c5" y="103.646996"/>
     <use style="fill:#ff0000;stroke:#ff0000;stroke-width:1.5;" x="193.571056" xlink:href="#m8ee2e116c5" y="169.803459"/>
     <use style="fill:#ff0000;stroke:#ff0000;stroke-width:1.5;" x="162.32965" xlink:href="#m8ee2e116c5" y="195.39262"/>
     <use style="fill:#ff0000;stroke:#ff0000;stroke-width:1.5;" x="147.111722" xlink:href="#m8ee2e116c5" y="205.310393"/>
     <use style="fill:#ff0000;stroke:#ff0000;stroke-width:1.5;" x="74.82313" xlink:href="#m8ee2e116c5" y="273.480414"/>
    </g>
   </g>
   <g id="patch_3">
    <path clip-path="url(#p42c4f348a0)" d="M 144.39622 212.186721 
L 149.800509 201.57886 
L 151.608426 203.343663 
L 187.680268 167.962967 
L 189.488185 169.72777 
L 153.416343 205.108466 
L 155.22426 206.873269 
z
" style="stroke:#000000;stroke-linejoin:miter;"/>
   </g>
   <g id="patch_4">
    <path clip-path="url(#p42c4f348a0)" d="M 144.290262 125.607695 
L 155.131277 130.895756 
L 153.327684 132.664791 
L 189.486023 167.960851 
L 187.682431 169.729886 
L 151.524092 134.433826 
L 149.7205 136.202861 
z
" style="stroke:#000000;stroke-linejoin:miter;"/>
   </g>
   <g id="matplotlib.axis_1">
    <g id="xtick_1">
     <g id="line2d_1">
      <defs>
       <path d="M 0 0 
L 0 3.5 
" id="mf1211dc5c0" style="stroke:#000000;stroke-width:0.8;"/>
      </defs>
      <g>
       <use style="stroke:#000000;stroke-width:0.8;" x="86.435252" xlink:href="#mf1211dc5c0" y="298.677188"/>
      </g>
     </g>
     <g id="text_1">
      <!-- −2 -->
      <defs>
       <path d="M 10.59375 35.5 
L 73.1875 35.5 
L 73.1875 27.203125 
L 10.59375 27.203125 
z
" id="DejaVuSans-2212"/>
       <path d="M 19.1875 8.296875 
L 53.609375 8.296875 
L 53.609375 0 
L 7.328125 0 
L 7.328125 8.296875 
Q 12.9375 14.109375 22.625 23.890625 
Q 32.328125 33.6875 34.8125 36.53125 
Q 39.546875 41.84375 41.421875 45.53125 
Q 43.3125 49.21875 43.3125 52.78125 
Q 43.3125 58.59375 39.234375 62.25 
Q 35.15625 65.921875 28.609375 65.921875 
Q 23.96875 65.921875 18.8125 64.3125 
Q 13.671875 62.703125 7.8125 59.421875 
L 7.8125 69.390625 
Q 13.765625 71.78125 18.9375 73 
Q 24.125 74.21875 28.421875 74.21875 
Q 39.75 74.21875 46.484375 68.546875 
Q 53.21875 62.890625 53.21875 53.421875 
Q 53.21875 48.921875 51.53125 44.890625 
Q 49.859375 40.875 45.40625 35.40625 
Q 44.1875 33.984375 37.640625 27.21875 
Q 31.109375 20.453125 19.1875 8.296875 
z
" id="DejaVuSans-32"/>
      </defs>
      <g transform="translate(77.589939 314.795312)scale(0.12 -0.12)">
       <use xlink:href="#DejaVuSans-2212"/>
       <use x="83.789062" xlink:href="#DejaVuSans-32"/>
      </g>
     </g>
    </g>
    <g id="xtick_2">
     <g id="line2d_2">
      <g>
       <use style="stroke:#000000;stroke-width:0.8;" x="137.509739" xlink:href="#mf1211dc5c0" y="298.677188"/>
      </g>
     </g>
     <g id="text_2">
      <!-- −1 -->
      <defs>
       <path d="M 12.40625 8.296875 
L 28.515625 8.296875 
L 28.515625 63.921875 
L 10.984375 60.40625 
L 10.984375 69.390625 
L 28.421875 72.90625 
L 38.28125 72.90625 
L 38.28125 8.296875 
L 54.390625 8.296875 
L 54.390625 0 
L 12.40625 0 
z
" id="DejaVuSans-31"/>
      </defs>
      <g transform="translate(128.664427 314.795312)scale(0.12 -0.12)">
       <use xlink:href="#DejaVuSans-2212"/>
       <use x="83.789062" xlink:href="#DejaVuSans-31"/>
      </g>
     </g>
    </g>
    <g id="xtick_3">
     <g id="line2d_3">
      <g>
       <use style="stroke:#000000;stroke-width:0.8;" x="188.584227" xlink:href="#mf1211dc5c0" y="298.677188"/>
      </g>
     </g>
     <g id="text_3">
      <!-- 0 -->
      <defs>
       <path d="M 31.78125 66.40625 
Q 24.171875 66.40625 20.328125 58.90625 
Q 16.5 51.421875 16.5 36.375 
Q 16.5 21.390625 20.328125 13.890625 
Q 24.171875 6.390625 31.78125 6.390625 
Q 39.453125 6.390625 43.28125 13.890625 
Q 47.125 21.390625 47.125 36.375 
Q 47.125 51.421875 43.28125 58.90625 
Q 39.453125 66.40625 31.78125 66.40625 
z
M 31.78125 74.21875 
Q 44.046875 74.21875 50.515625 64.515625 
Q 56.984375 54.828125 56.984375 36.375 
Q 56.984375 17.96875 50.515625 8.265625 
Q 44.046875 -1.421875 31.78125 -1.421875 
Q 19.53125 -1.421875 13.0625 8.265625 
Q 6.59375 17.96875 6.59375 36.375 
Q 6.59375 54.828125 13.0625 64.515625 
Q 19.53125 74.21875 31.78125 74.21875 
z
" id="DejaVuSans-30"/>
      </defs>
      <g transform="translate(184.766727 314.795312)scale(0.12 -0.12)">
       <use xlink:href="#DejaVuSans-30"/>
      </g>
     </g>
    </g>
    <g id="xtick_4">
     <g id="line2d_4">
      <g>
       <use style="stroke:#000000;stroke-width:0.8;" x="239.658714" xlink:href="#mf1211dc5c0" y="298.677188"/>
      </g>
     </g>
     <g id="text_4">
      <!-- 1 -->
      <g transform="translate(235.841214 314.795312)scale(0.12 -0.12)">
       <use xlink:href="#DejaVuSans-31"/>
      </g>
     </g>
    </g>
    <g id="xtick_5">
     <g id="line2d_5">
      <g>
       <use style="stroke:#000000;stroke-width:0.8;" x="290.733202" xlink:href="#mf1211dc5c0" y="298.677188"/>
      </g>
     </g>
     <g id="text_5">
      <!-- 2 -->
      <g transform="translate(286.915702 314.795312)scale(0.12 -0.12)">
       <use xlink:href="#DejaVuSans-32"/>
      </g>
     </g>
    </g>
    <g id="text_6">
     <!-- $x_1$ -->
     <defs>
      <path d="M 24.296875 35.5 
L 25.5 29.796875 
Q 30.796875 37.90625 34.046875 41 
Q 37.296875 44.09375 40.59375 44.09375 
Q 42.40625 44.09375 43.546875 43.046875 
Q 44.703125 42 44.703125 40.390625 
Q 44.703125 38.796875 43.75 37.796875 
Q 42.796875 36.796875 41.296875 36.796875 
Q 40.40625 36.796875 38.90625 37.640625 
Q 37.40625 38.5 36.09375 38.5 
Q 33.203125 38.5 26.296875 26.40625 
Q 26.296875 25.09375 27.09375 21.90625 
L 30.296875 8.5 
Q 31.296875 4.40625 33.296875 4.40625 
Q 34.90625 4.40625 38 8.40625 
Q 38.296875 8.796875 38.6875 9.34375 
Q 39.09375 9.90625 39.390625 10.34375 
Q 39.703125 10.796875 40.09375 11.203125 
L 41.59375 10.296875 
Q 37.296875 3.59375 34.796875 1.25 
Q 32.296875 -1.09375 29.40625 -1.09375 
Q 27 -1.09375 25.703125 0.40625 
Q 24.40625 1.90625 23.5 5.703125 
L 20.59375 17.59375 
L 11.796875 5.703125 
Q 8.703125 1.5 6.75 0.203125 
Q 4.796875 -1.09375 2.296875 -1.09375 
Q 0 -1.09375 -1.34375 0 
Q -2.703125 1.09375 -2.703125 3.09375 
Q -2.703125 4.59375 -1.75 5.640625 
Q -0.796875 6.703125 0.703125 6.703125 
Q 1.90625 6.703125 3.90625 5.59375 
Q 5.40625 4.703125 6.5 4.703125 
Q 8.203125 4.703125 11.59375 9.59375 
L 19.796875 21.203125 
L 17 33.59375 
Q 16 38 15.140625 39.203125 
Q 14.296875 40.40625 12.40625 40.40625 
Q 11.203125 40.40625 8.5 39.703125 
L 6.703125 39.203125 
L 6.40625 40.796875 
L 7.5 41.203125 
Q 15.5 44.09375 19.203125 44.09375 
Q 21.09375 44.09375 22.1875 42.296875 
Q 23.296875 40.5 24.296875 35.5 
z
" id="STIXGeneral-Italic-78"/>
      <path d="M 39.40625 0 
L 11.796875 0 
L 11.796875 1.5 
Q 17.296875 1.796875 19.296875 3.546875 
Q 21.296875 5.296875 21.296875 9.5 
L 21.296875 54.40625 
Q 21.296875 59.296875 18.296875 59.296875 
Q 16.90625 59.296875 13.796875 58.09375 
L 11.09375 57.09375 
L 11.09375 58.5 
L 29 67.59375 
L 29.90625 67.296875 
L 29.90625 7.59375 
Q 29.90625 4.296875 31.90625 2.890625 
Q 33.90625 1.5 39.40625 1.5 
z
" id="STIXGeneral-Regular-31"/>
     </defs>
     <g transform="translate(184.155625 333.448438)scale(0.16 -0.16)">
      <use transform="translate(0 0.90625)" xlink:href="#STIXGeneral-Italic-78"/>
      <use transform="translate(44.399994 -12.321875)scale(0.7)" xlink:href="#STIXGeneral-Regular-31"/>
     </g>
    </g>
   </g>
   <g id="matplotlib.axis_2">
    <g id="ytick_1">
     <g id="line2d_6">
      <defs>
       <path d="M 0 0 
L -3.5 0 
" id="m505d0a7176" style="stroke:#000000;stroke-width:0.8;"/>
      </defs>
      <g>
       <use style="stroke:#000000;stroke-width:0.8;" x="51.375625" xlink:href="#m505d0a7176" y="268.797468"/>
      </g>
     </g>
     <g id="text_7">
      <!-- −2 -->
      <g transform="translate(26.685 273.35653)scale(0.12 -0.12)">
       <use xlink:href="#DejaVuSans-2212"/>
       <use x="83.789062" xlink:href="#DejaVuSans-32"/>
      </g>
     </g>
    </g>
    <g id="ytick_2">
     <g id="line2d_7">
      <g>
       <use style="stroke:#000000;stroke-width:0.8;" x="51.375625" xlink:href="#m505d0a7176" y="218.821418"/>
      </g>
     </g>
     <g id="text_8">
      <!-- −1 -->
      <g transform="translate(26.685 223.380481)scale(0.12 -0.12)">
       <use xlink:href="#DejaVuSans-2212"/>
       <use x="83.789062" xlink:href="#DejaVuSans-31"/>
      </g>
     </g>
    </g>
    <g id="ytick_3">
     <g id="line2d_8">
      <g>
       <use style="stroke:#000000;stroke-width:0.8;" x="51.375625" xlink:href="#m505d0a7176" y="168.845369"/>
      </g>
     </g>
     <g id="text_9">
      <!-- 0 -->
      <g transform="translate(36.740625 173.404431)scale(0.12 -0.12)">
       <use xlink:href="#DejaVuSans-30"/>
      </g>
     </g>
    </g>
    <g id="ytick_4">
     <g id="line2d_9">
      <g>
       <use style="stroke:#000000;stroke-width:0.8;" x="51.375625" xlink:href="#m505d0a7176" y="118.869319"/>
      </g>
     </g>
     <g id="text_10">
      <!-- 1 -->
      <g transform="translate(36.740625 123.428382)scale(0.12 -0.12)">
       <use xlink:href="#DejaVuSans-31"/>
      </g>
     </g>
    </g>
    <g id="ytick_5">
     <g id="line2d_10">
      <g>
       <use style="stroke:#000000;stroke-width:0.8;" x="51.375625" xlink:href="#m505d0a7176" y="68.89327"/>
      </g>
     </g>
     <g id="text_11">
      <!-- 2 -->
      <g transform="translate(36.740625 73.452332)scale(0.12 -0.12)">
       <use xlink:href="#DejaVuSans-32"/>
      </g>
     </g>
    </g>
    <g id="text_12">
     <!-- $x_2$ -->
     <defs>
      <path d="M 47.40625 13.703125 
L 42 0 
L 2.90625 0 
L 2.90625 1.203125 
L 20.703125 20.09375 
Q 27.703125 27.40625 30.703125 33.5 
Q 33.703125 39.59375 33.703125 46.09375 
Q 33.703125 52.796875 30 56.5 
Q 26.296875 60.203125 19.796875 60.203125 
Q 14.40625 60.203125 11.25 57.390625 
Q 8.09375 54.59375 5.09375 47.203125 
L 3 47.703125 
Q 4.703125 57 9.84375 62.296875 
Q 15 67.59375 23.796875 67.59375 
Q 32.09375 67.59375 37.1875 62.59375 
Q 42.296875 57.59375 42.296875 50 
Q 42.296875 38.703125 29.5 25.203125 
L 13 7.59375 
L 36.40625 7.59375 
Q 39.703125 7.59375 41.640625 8.890625 
Q 43.59375 10.203125 46 14.296875 
z
" id="STIXGeneral-Regular-32"/>
     </defs>
     <g transform="translate(19.3575 169.497187)rotate(-90)scale(0.16 -0.16)">
      <use transform="translate(0 0.90625)" xlink:href="#STIXGeneral-Italic-78"/>
      <use transform="translate(44.399994 -12.321875)scale(0.7)" xlink:href="#STIXGeneral-Regular-32"/>
     </g>
    </g>
   </g>
   <g id="patch_5">
    <path d="M 51.375625 298.677188 
L 51.375625 26.877187 
" style="fill:none;stroke:#000000;stroke-linecap:square;stroke-linejoin:miter;stroke-width:0.8;"/>
   </g>
   <g id="patch_6">
    <path d="M 330.375625 298.677188 
L 330.375625 26.877187 
" style="fill:none;stroke:#000000;stroke-linecap:square;stroke-linejoin:miter;stroke-width:0.8;"/>
   </g>
   <g id="patch_7">
    <path d="M 51.375625 298.677188 
L 330.375625 298.677188 
" style="fill:none;stroke:#000000;stroke-linecap:square;stroke-linejoin:miter;stroke-width:0.8;"/>
   </g>
   <g id="patch_8">
    <path d="M 51.375625 26.877187 
L 330.375625 26.877187 
" style="fill:none;stroke:#000000;stroke-linecap:square;stroke-linejoin:miter;stroke-width:0.8;"/>
   </g>
   <g id="text_13">
    <!-- PCA on the $2$D dataset -->
    <defs>
     <path d="M 19.671875 64.796875 
L 19.671875 37.40625 
L 32.078125 37.40625 
Q 38.96875 37.40625 42.71875 40.96875 
Q 46.484375 44.53125 46.484375 51.125 
Q 46.484375 57.671875 42.71875 61.234375 
Q 38.96875 64.796875 32.078125 64.796875 
z
M 9.8125 72.90625 
L 32.078125 72.90625 
Q 44.34375 72.90625 50.609375 67.359375 
Q 56.890625 61.8125 56.890625 51.125 
Q 56.890625 40.328125 50.609375 34.8125 
Q 44.34375 29.296875 32.078125 29.296875 
L 19.671875 29.296875 
L 19.671875 0 
L 9.8125 0 
z
" id="DejaVuSans-50"/>
     <path d="M 64.40625 67.28125 
L 64.40625 56.890625 
Q 59.421875 61.53125 53.78125 63.8125 
Q 48.140625 66.109375 41.796875 66.109375 
Q 29.296875 66.109375 22.65625 58.46875 
Q 16.015625 50.828125 16.015625 36.375 
Q 16.015625 21.96875 22.65625 14.328125 
Q 29.296875 6.6875 41.796875 6.6875 
Q 48.140625 6.6875 53.78125 8.984375 
Q 59.421875 11.28125 64.40625 15.921875 
L 64.40625 5.609375 
Q 59.234375 2.09375 53.4375 0.328125 
Q 47.65625 -1.421875 41.21875 -1.421875 
Q 24.65625 -1.421875 15.125 8.703125 
Q 5.609375 18.84375 5.609375 36.375 
Q 5.609375 53.953125 15.125 64.078125 
Q 24.65625 74.21875 41.21875 74.21875 
Q 47.75 74.21875 53.53125 72.484375 
Q 59.328125 70.75 64.40625 67.28125 
z
" id="DejaVuSans-43"/>
     <path d="M 34.1875 63.1875 
L 20.796875 26.90625 
L 47.609375 26.90625 
z
M 28.609375 72.90625 
L 39.796875 72.90625 
L 67.578125 0 
L 57.328125 0 
L 50.6875 18.703125 
L 17.828125 18.703125 
L 11.1875 0 
L 0.78125 0 
z
" id="DejaVuSans-41"/>
     <path id="DejaVuSans-20"/>
     <path d="M 30.609375 48.390625 
Q 23.390625 48.390625 19.1875 42.75 
Q 14.984375 37.109375 14.984375 27.296875 
Q 14.984375 17.484375 19.15625 11.84375 
Q 23.34375 6.203125 30.609375 6.203125 
Q 37.796875 6.203125 41.984375 11.859375 
Q 46.1875 17.53125 46.1875 27.296875 
Q 46.1875 37.015625 41.984375 42.703125 
Q 37.796875 48.390625 30.609375 48.390625 
z
M 30.609375 56 
Q 42.328125 56 49.015625 48.375 
Q 55.71875 40.765625 55.71875 27.296875 
Q 55.71875 13.875 49.015625 6.21875 
Q 42.328125 -1.421875 30.609375 -1.421875 
Q 18.84375 -1.421875 12.171875 6.21875 
Q 5.515625 13.875 5.515625 27.296875 
Q 5.515625 40.765625 12.171875 48.375 
Q 18.84375 56 30.609375 56 
z
" id="DejaVuSans-6f"/>
     <path d="M 54.890625 33.015625 
L 54.890625 0 
L 45.90625 0 
L 45.90625 32.71875 
Q 45.90625 40.484375 42.875 44.328125 
Q 39.84375 48.1875 33.796875 48.1875 
Q 26.515625 48.1875 22.3125 43.546875 
Q 18.109375 38.921875 18.109375 30.90625 
L 18.109375 0 
L 9.078125 0 
L 9.078125 54.6875 
L 18.109375 54.6875 
L 18.109375 46.1875 
Q 21.34375 51.125 25.703125 53.5625 
Q 30.078125 56 35.796875 56 
Q 45.21875 56 50.046875 50.171875 
Q 54.890625 44.34375 54.890625 33.015625 
z
" id="DejaVuSans-6e"/>
     <path d="M 18.3125 70.21875 
L 18.3125 54.6875 
L 36.8125 54.6875 
L 36.8125 47.703125 
L 18.3125 47.703125 
L 18.3125 18.015625 
Q 18.3125 11.328125 20.140625 9.421875 
Q 21.96875 7.515625 27.59375 7.515625 
L 36.8125 7.515625 
L 36.8125 0 
L 27.59375 0 
Q 17.1875 0 13.234375 3.875 
Q 9.28125 7.765625 9.28125 18.015625 
L 9.28125 47.703125 
L 2.6875 47.703125 
L 2.6875 54.6875 
L 9.28125 54.6875 
L 9.28125 70.21875 
z
" id="DejaVuSans-74"/>
     <path d="M 54.890625 33.015625 
L 54.890625 0 
L 45.90625 0 
L 45.90625 32.71875 
Q 45.90625 40.484375 42.875 44.328125 
Q 39.84375 48.1875 33.796875 48.1875 
Q 26.515625 48.1875 22.3125 43.546875 
Q 18.109375 38.921875 18.109375 30.90625 
L 18.109375 0 
L 9.078125 0 
L 9.078125 75.984375 
L 18.109375 75.984375 
L 18.109375 46.1875 
Q 21.34375 51.125 25.703125 53.5625 
Q 30.078125 56 35.796875 56 
Q 45.21875 56 50.046875 50.171875 
Q 54.890625 44.34375 54.890625 33.015625 
z
" id="DejaVuSans-68"/>
     <path d="M 56.203125 29.59375 
L 56.203125 25.203125 
L 14.890625 25.203125 
Q 15.484375 15.921875 20.484375 11.0625 
Q 25.484375 6.203125 34.421875 6.203125 
Q 39.59375 6.203125 44.453125 7.46875 
Q 49.3125 8.734375 54.109375 11.28125 
L 54.109375 2.78125 
Q 49.265625 0.734375 44.1875 -0.34375 
Q 39.109375 -1.421875 33.890625 -1.421875 
Q 20.796875 -1.421875 13.15625 6.1875 
Q 5.515625 13.8125 5.515625 26.8125 
Q 5.515625 40.234375 12.765625 48.109375 
Q 20.015625 56 32.328125 56 
Q 43.359375 56 49.78125 48.890625 
Q 56.203125 41.796875 56.203125 29.59375 
z
M 47.21875 32.234375 
Q 47.125 39.59375 43.09375 43.984375 
Q 39.0625 48.390625 32.421875 48.390625 
Q 24.90625 48.390625 20.390625 44.140625 
Q 15.875 39.890625 15.1875 32.171875 
z
" id="DejaVuSans-65"/>
     <path d="M 19.671875 64.796875 
L 19.671875 8.109375 
L 31.59375 8.109375 
Q 46.6875 8.109375 53.6875 14.9375 
Q 60.6875 21.78125 60.6875 36.53125 
Q 60.6875 51.171875 53.6875 57.984375 
Q 46.6875 64.796875 31.59375 64.796875 
z
M 9.8125 72.90625 
L 30.078125 72.90625 
Q 51.265625 72.90625 61.171875 64.09375 
Q 71.09375 55.28125 71.09375 36.53125 
Q 71.09375 17.671875 61.125 8.828125 
Q 51.171875 0 30.078125 0 
L 9.8125 0 
z
" id="DejaVuSans-44"/>
     <path d="M 45.40625 46.390625 
L 45.40625 75.984375 
L 54.390625 75.984375 
L 54.390625 0 
L 45.40625 0 
L 45.40625 8.203125 
Q 42.578125 3.328125 38.25 0.953125 
Q 33.9375 -1.421875 27.875 -1.421875 
Q 17.96875 -1.421875 11.734375 6.484375 
Q 5.515625 14.40625 5.515625 27.296875 
Q 5.515625 40.1875 11.734375 48.09375 
Q 17.96875 56 27.875 56 
Q 33.9375 56 38.25 53.625 
Q 42.578125 51.265625 45.40625 46.390625 
z
M 14.796875 27.296875 
Q 14.796875 17.390625 18.875 11.75 
Q 22.953125 6.109375 30.078125 6.109375 
Q 37.203125 6.109375 41.296875 11.75 
Q 45.40625 17.390625 45.40625 27.296875 
Q 45.40625 37.203125 41.296875 42.84375 
Q 37.203125 48.484375 30.078125 48.484375 
Q 22.953125 48.484375 18.875 42.84375 
Q 14.796875 37.203125 14.796875 27.296875 
z
" id="DejaVuSans-64"/>
     <path d="M 34.28125 27.484375 
Q 23.390625 27.484375 19.1875 25 
Q 14.984375 22.515625 14.984375 16.5 
Q 14.984375 11.71875 18.140625 8.90625 
Q 21.296875 6.109375 26.703125 6.109375 
Q 34.1875 6.109375 38.703125 11.40625 
Q 43.21875 16.703125 43.21875 25.484375 
L 43.21875 27.484375 
z
M 52.203125 31.203125 
L 52.203125 0 
L 43.21875 0 
L 43.21875 8.296875 
Q 40.140625 3.328125 35.546875 0.953125 
Q 30.953125 -1.421875 24.3125 -1.421875 
Q 15.921875 -1.421875 10.953125 3.296875 
Q 6 8.015625 6 15.921875 
Q 6 25.140625 12.171875 29.828125 
Q 18.359375 34.515625 30.609375 34.515625 
L 43.21875 34.515625 
L 43.21875 35.40625 
Q 43.21875 41.609375 39.140625 45 
Q 35.0625 48.390625 27.6875 48.390625 
Q 23 48.390625 18.546875 47.265625 
Q 14.109375 46.140625 10.015625 43.890625 
L 10.015625 52.203125 
Q 14.9375 54.109375 19.578125 55.046875 
Q 24.21875 56 28.609375 56 
Q 40.484375 56 46.34375 49.84375 
Q 52.203125 43.703125 52.203125 31.203125 
z
" id="DejaVuSans-61"/>
     <path d="M 44.28125 53.078125 
L 44.28125 44.578125 
Q 40.484375 46.53125 36.375 47.5 
Q 32.28125 48.484375 27.875 48.484375 
Q 21.1875 48.484375 17.84375 46.4375 
Q 14.5 44.390625 14.5 40.28125 
Q 14.5 37.15625 16.890625 35.375 
Q 19.28125 33.59375 26.515625 31.984375 
L 29.59375 31.296875 
Q 39.15625 29.25 43.1875 25.515625 
Q 47.21875 21.78125 47.21875 15.09375 
Q 47.21875 7.46875 41.1875 3.015625 
Q 35.15625 -1.421875 24.609375 -1.421875 
Q 20.21875 -1.421875 15.453125 -0.5625 
Q 10.6875 0.296875 5.421875 2 
L 5.421875 11.28125 
Q 10.40625 8.6875 15.234375 7.390625 
Q 20.0625 6.109375 24.8125 6.109375 
Q 31.15625 6.109375 34.5625 8.28125 
Q 37.984375 10.453125 37.984375 14.40625 
Q 37.984375 18.0625 35.515625 20.015625 
Q 33.0625 21.96875 24.703125 23.78125 
L 21.578125 24.515625 
Q 13.234375 26.265625 9.515625 29.90625 
Q 5.8125 33.546875 5.8125 39.890625 
Q 5.8125 47.609375 11.28125 51.796875 
Q 16.75 56 26.8125 56 
Q 31.78125 56 36.171875 55.265625 
Q 40.578125 54.546875 44.28125 53.078125 
z
" id="DejaVuSans-73"/>
    </defs>
    <g transform="translate(90.075625 20.877187)scale(0.18 -0.18)">
     <use transform="translate(0 0.015625)" xlink:href="#DejaVuSans-50"/>
     <use transform="translate(60.302734 0.015625)" xlink:href="#DejaVuSans-43"/>
     <use transform="translate(130.126953 0.015625)" xlink:href="#DejaVuSans-41"/>
     <use transform="translate(198.535156 0.015625)" xlink:href="#DejaVuSans-20"/>
     <use transform="translate(230.322266 0.015625)" xlink:href="#DejaVuSans-6f"/>
     <use transform="translate(291.503906 0.015625)" xlink:href="#DejaVuSans-6e"/>
     <use transform="translate(354.882812 0.015625)" xlink:href="#DejaVuSans-20"/>
     <use transform="translate(386.669922 0.015625)" xlink:href="#DejaVuSans-74"/>
     <use transform="translate(425.878906 0.015625)" xlink:href="#DejaVuSans-68"/>
     <use transform="translate(489.257812 0.015625)" xlink:href="#DejaVuSans-65"/>
     <use transform="translate(550.78125 0.015625)" xlink:href="#DejaVuSans-20"/>
     <use transform="translate(582.568359 0.015625)" xlink:href="#STIXGeneral-Regular-32"/>
     <use transform="translate(632.568344 0.015625)" xlink:href="#DejaVuSans-44"/>
     <use transform="translate(709.570297 0.015625)" xlink:href="#DejaVuSans-20"/>
     <use transform="translate(741.357407 0.015625)" xlink:href="#DejaVuSans-64"/>
     <use transform="translate(804.833969 0.015625)" xlink:href="#DejaVuSans-61"/>
     <use transform="translate(866.113266 0.015625)" xlink:href="#DejaVuSans-74"/>
     <use transform="translate(905.32225 0.015625)" xlink:href="#DejaVuSans-61"/>
     <use transform="translate(966.601547 0.015625)" xlink:href="#DejaVuSans-73"/>
     <use transform="translate(1018.701157 0.015625)" xlink:href="#DejaVuSans-65"/>
     <use transform="translate(1080.224594 0.015625)" xlink:href="#DejaVuSans-74"/>
    </g>
   </g>
  </g>
 </g>
 <defs>
  <clipPath id="p42c4f348a0">
   <rect height="271.8" width="279" x="51.375625" y="26.877187"/>
  </clipPath>
 </defs>
</svg>
