<?xml version="1.0" encoding="utf-8" standalone="no"?>
<!DOCTYPE svg PUBLIC "-//W3C//DTD SVG 1.1//EN"
  "http://www.w3.org/Graphics/SVG/1.1/DTD/svg11.dtd">
<!-- Created with matplotlib (http://matplotlib.org/) -->
<svg height="289pt" version="1.1" viewBox="0 0 430 289" width="430pt" xmlns="http://www.w3.org/2000/svg" xmlns:xlink="http://www.w3.org/1999/xlink">
 <defs>
  <style type="text/css">
*{stroke-linecap:butt;stroke-linejoin:round;}
  </style>
 </defs>
 <g id="figure_1">
  <g id="patch_1">
   <path d="M 0 289.800625 
L 430.235 289.800625 
L 430.235 0 
L 0 0 
z
" style="fill:none;"/>
  </g>
  <g id="axes_1">
   <g id="patch_2">
    <path d="M 84.735 244.246875 
L 419.535 244.246875 
L 419.535 26.806875 
L 84.735 26.806875 
z
" style="fill:#ffffff;"/>
   </g>
   <g id="matplotlib.axis_1">
    <g id="xtick_1">
     <g id="line2d_1">
      <defs>
       <path d="M 0 0 
L 0 3.5 
" id="m3945527322" style="stroke:#000000;stroke-width:0.8;"/>
      </defs>
      <g>
       <use style="stroke:#000000;stroke-width:0.8;" x="99.953182" xlink:href="#m3945527322" y="244.246875"/>
      </g>
     </g>
     <g id="text_1">
      <!-- 0 -->
      <defs>
       <path d="M 50.140625 45.609375 
Q 53.265625 41.84375 54.796875 36.78125 
Q 56.34375 31.734375 56.34375 26.21875 
Q 56.34375 19.578125 54.4375 14.328125 
Q 52.546875 9.078125 49.21875 5.609375 
Q 45.796875 2.046875 41.109375 0.234375 
Q 36.421875 -1.5625 30.671875 -1.5625 
Q 24.359375 -1.5625 19.421875 0.53125 
Q 14.5 2.640625 11.421875 6.296875 
Q 8.203125 10.109375 6.609375 15.203125 
Q 5.03125 20.3125 5.03125 26.21875 
Q 5.03125 32.03125 6.5625 36.90625 
Q 8.109375 41.796875 11.375 45.75 
Q 14.5 49.5625 19.421875 51.75 
Q 24.359375 53.953125 30.71875 53.953125 
Q 37.40625 53.953125 42.1875 51.703125 
Q 46.96875 49.46875 50.140625 45.609375 
z
M 45.5625 26.21875 
Q 45.5625 37.84375 41.578125 44.234375 
Q 37.59375 50.640625 30.765625 50.640625 
Q 23.828125 50.640625 19.828125 44.234375 
Q 15.828125 37.84375 15.828125 26.21875 
Q 15.828125 15.1875 19.65625 8.46875 
Q 23.484375 1.765625 30.671875 1.765625 
Q 37.84375 1.765625 41.703125 8.46875 
Q 45.5625 15.1875 45.5625 26.21875 
z
" id="Georgia-30"/>
      </defs>
      <g transform="translate(96.270682 260.318125)scale(0.12 -0.12)">
       <use xlink:href="#Georgia-30"/>
      </g>
     </g>
    </g>
    <g id="xtick_2">
     <g id="line2d_2">
      <g>
       <use style="stroke:#000000;stroke-width:0.8;" x="138.824655" xlink:href="#m3945527322" y="244.246875"/>
      </g>
     </g>
     <g id="text_2">
      <!-- 100 -->
      <defs>
       <path d="M 39.5 0 
L 6.59375 0 
L 6.59375 3.46875 
Q 8.0625 3.5625 11.15625 3.875 
Q 14.265625 4.203125 15.4375 4.546875 
Q 16.9375 5.03125 17.75 6.125 
Q 18.5625 7.234375 18.5625 9.421875 
L 18.5625 43.703125 
L 6.390625 43.703125 
L 6.390625 47.796875 
L 9.078125 47.796875 
Q 14.359375 47.796875 18.53125 49.75 
Q 22.703125 51.703125 24.515625 53.953125 
L 28.5625 53.953125 
Q 28.421875 50.78125 28.265625 46.53125 
Q 28.125 42.28125 28.125 38.921875 
L 28.125 9.96875 
Q 28.125 8.25 28.875 6.90625 
Q 29.640625 5.5625 31.0625 4.9375 
Q 32.328125 4.390625 35.203125 3.953125 
Q 38.09375 3.515625 39.5 3.46875 
z
" id="Georgia-31"/>
      </defs>
      <g transform="translate(128.88153 260.318125)scale(0.12 -0.12)">
       <use xlink:href="#Georgia-31"/>
       <use x="42.96875" xlink:href="#Georgia-30"/>
       <use x="104.345703" xlink:href="#Georgia-30"/>
      </g>
     </g>
    </g>
    <g id="xtick_3">
     <g id="line2d_3">
      <g>
       <use style="stroke:#000000;stroke-width:0.8;" x="177.696129" xlink:href="#m3945527322" y="244.246875"/>
      </g>
     </g>
     <g id="text_3">
      <!-- 200 -->
      <defs>
       <path d="M 51.125 0 
L 5.375 0 
L 5.375 6.640625 
Q 6.6875 8.15625 9.03125 10.03125 
Q 11.375 11.921875 14.59375 14.109375 
Q 16.546875 15.4375 19.28125 17 
Q 22.015625 18.5625 25.484375 20.40625 
Q 29.34375 22.46875 31.421875 24.03125 
Q 33.5 25.59375 35.203125 27.875 
Q 36.328125 29.390625 37.015625 31.65625 
Q 37.703125 33.9375 37.703125 38.140625 
Q 37.703125 44.234375 34.421875 47.09375 
Q 31.15625 49.953125 26.03125 49.953125 
Q 22.859375 49.953125 20.015625 48.703125 
Q 17.1875 47.46875 15.765625 45.265625 
Q 16.109375 43.703125 16.625 41.546875 
Q 17.140625 39.40625 17.140625 37.359375 
Q 17.140625 35.5 15.59375 34.0625 
Q 14.0625 32.625 11.03125 32.625 
Q 8.59375 32.625 7.265625 34.296875 
Q 5.953125 35.984375 5.953125 38.8125 
Q 5.953125 41.453125 7.421875 44.109375 
Q 8.890625 46.78125 11.625 49.03125 
Q 14.3125 51.21875 18.265625 52.578125 
Q 22.21875 53.953125 26.8125 53.953125 
Q 36.8125 53.953125 42.6875 49.484375 
Q 48.578125 45.015625 48.578125 37.546875 
Q 48.578125 33.984375 47.53125 31.046875 
Q 46.484375 28.125 44.140625 25.875 
Q 41.546875 23.390625 38.078125 21.609375 
Q 34.625 19.828125 27.484375 16.65625 
Q 23.25 14.75 19.578125 12.671875 
Q 15.921875 10.59375 13.578125 8.640625 
L 51.125 8.640625 
z
" id="Georgia-32"/>
      </defs>
      <g transform="translate(166.979566 260.318125)scale(0.12 -0.12)">
       <use xlink:href="#Georgia-32"/>
       <use x="55.859375" xlink:href="#Georgia-30"/>
       <use x="117.236328" xlink:href="#Georgia-30"/>
      </g>
     </g>
    </g>
    <g id="xtick_4">
     <g id="line2d_4">
      <g>
       <use style="stroke:#000000;stroke-width:0.8;" x="216.567602" xlink:href="#m3945527322" y="244.246875"/>
      </g>
     </g>
     <g id="text_4">
      <!-- 300 -->
      <defs>
       <path d="M 23.78125 -17.828125 
Q 19.1875 -17.828125 15.375 -16.671875 
Q 11.578125 -15.53125 8.84375 -13.578125 
Q 6.109375 -11.625 4.609375 -9.078125 
Q 3.125 -6.546875 3.125 -3.859375 
Q 3.125 -1.46875 4.296875 0.453125 
Q 5.46875 2.390625 8.0625 2.390625 
Q 10.984375 2.390625 12.515625 0.953125 
Q 14.0625 -0.484375 14.0625 -2.34375 
Q 14.0625 -3.90625 13.546875 -6.296875 
Q 13.03125 -8.6875 12.75 -9.71875 
Q 13.09375 -10.15625 13.984375 -10.890625 
Q 14.890625 -11.625 16.21875 -12.203125 
Q 17.78125 -12.9375 19.484375 -13.375 
Q 21.1875 -13.8125 24.3125 -13.8125 
Q 27.25 -13.8125 29.953125 -12.828125 
Q 32.671875 -11.859375 34.71875 -9.71875 
Q 36.859375 -7.46875 38.0625 -4.46875 
Q 39.265625 -1.46875 39.265625 3.421875 
Q 39.265625 6.0625 38.703125 8.640625 
Q 38.140625 11.234375 36.625 13.140625 
Q 35.109375 15.046875 32.5 16.09375 
Q 29.890625 17.140625 25.875 17.140625 
L 19.484375 17.140625 
L 19.484375 22.75 
L 23.734375 22.75 
Q 30.46875 22.75 33.4375 26.453125 
Q 36.421875 30.171875 36.421875 37.640625 
Q 36.421875 43.75 33.546875 46.84375 
Q 30.671875 49.953125 25.390625 49.953125 
Q 22.859375 49.953125 21.21875 49.34375 
Q 19.578125 48.734375 18.5625 48.140625 
Q 17.328125 47.46875 16.546875 46.625 
Q 15.765625 45.796875 15.375 45.40625 
Q 15.71875 43.84375 16.203125 41.578125 
Q 16.703125 39.3125 16.703125 37.25 
Q 16.703125 35.453125 15.15625 34 
Q 13.625 32.5625 10.640625 32.5625 
Q 8.0625 32.5625 6.859375 34.421875 
Q 5.671875 36.28125 5.671875 38.71875 
Q 5.671875 41.265625 7.078125 43.890625 
Q 8.5 46.53125 11.28125 48.828125 
Q 14.0625 51.125 18.0625 52.53125 
Q 22.078125 53.953125 27.296875 53.953125 
Q 33.296875 53.953125 37.21875 52.171875 
Q 41.15625 50.390625 43.40625 47.859375 
Q 45.609375 45.359375 46.4375 42.625 
Q 47.265625 39.890625 47.265625 37.9375 
Q 47.265625 35.5 46.578125 33.03125 
Q 45.90625 30.5625 44.34375 28.46875 
Q 42.625 26.171875 39.8125 24.28125 
Q 37.015625 22.40625 32.765625 21.234375 
L 32.765625 20.453125 
Q 35.5 20.21875 38.59375 19.234375 
Q 41.703125 18.265625 44.1875 16.359375 
Q 46.78125 14.359375 48.4375 11.203125 
Q 50.09375 8.0625 50.09375 3.21875 
Q 50.09375 -6.15625 42.578125 -11.984375 
Q 35.0625 -17.828125 23.78125 -17.828125 
z
" id="Georgia-33"/>
      </defs>
      <g transform="translate(205.892289 260.318125)scale(0.12 -0.12)">
       <use xlink:href="#Georgia-33"/>
       <use x="55.175781" xlink:href="#Georgia-30"/>
       <use x="116.552734" xlink:href="#Georgia-30"/>
      </g>
     </g>
    </g>
    <g id="xtick_5">
     <g id="line2d_5">
      <g>
       <use style="stroke:#000000;stroke-width:0.8;" x="255.439075" xlink:href="#m3945527322" y="244.246875"/>
      </g>
     </g>
     <g id="text_5">
      <!-- 400 -->
      <defs>
       <path d="M 52.9375 4.390625 
L 43.015625 4.390625 
L 43.015625 -17.828125 
L 33.640625 -17.828125 
L 33.640625 4.390625 
L 2.390625 4.390625 
L 2.390625 11.921875 
L 36.625 53.65625 
L 43.015625 53.65625 
L 43.015625 10.796875 
L 52.9375 10.796875 
z
M 33.640625 10.796875 
L 33.640625 42.78125 
L 7.28125 10.796875 
z
" id="Georgia-34"/>
      </defs>
      <g transform="translate(244.684075 260.318125)scale(0.12 -0.12)">
       <use xlink:href="#Georgia-34"/>
       <use x="56.494141" xlink:href="#Georgia-30"/>
       <use x="117.871094" xlink:href="#Georgia-30"/>
      </g>
     </g>
    </g>
    <g id="xtick_6">
     <g id="line2d_6">
      <g>
       <use style="stroke:#000000;stroke-width:0.8;" x="294.310549" xlink:href="#m3945527322" y="244.246875"/>
      </g>
     </g>
     <g id="text_6">
      <!-- 500 -->
      <defs>
       <path d="M 41.15625 22.90625 
Q 44.390625 20.359375 46.515625 16.359375 
Q 48.640625 12.359375 48.640625 6.34375 
Q 48.640625 -4.15625 41.453125 -10.984375 
Q 34.28125 -17.828125 23.25 -17.828125 
Q 14.703125 -17.828125 8.78125 -13.765625 
Q 2.875 -9.71875 2.875 -4.34375 
Q 2.875 -1.859375 4.09375 0 
Q 5.328125 1.859375 7.859375 1.859375 
Q 10.796875 1.859375 12.328125 0.3125 
Q 13.875 -1.21875 13.875 -3.03125 
Q 13.875 -4.59375 13.328125 -6.9375 
Q 12.796875 -9.28125 12.5 -10.40625 
Q 12.890625 -10.75 13.765625 -11.328125 
Q 14.65625 -11.921875 15.875 -12.453125 
Q 17.140625 -12.984375 18.96875 -13.390625 
Q 20.796875 -13.8125 23.25 -13.8125 
Q 26.375 -13.8125 29.15625 -12.546875 
Q 31.9375 -11.28125 33.84375 -8.796875 
Q 35.9375 -6.0625 36.984375 -2.5625 
Q 38.03125 0.921875 38.03125 6.296875 
Q 38.03125 13.1875 34.203125 17.703125 
Q 30.375 22.21875 24.125 22.21875 
Q 20.21875 22.21875 16.8125 20.75 
Q 13.421875 19.28125 10.75 15.875 
L 7.46875 17.140625 
L 11.625 52.390625 
L 46.578125 52.390625 
L 46.578125 43.703125 
L 15.578125 43.703125 
L 13.03125 23 
Q 15.234375 24.5625 18.8125 26.09375 
Q 22.40625 27.640625 26.703125 27.640625 
Q 30.28125 27.640625 34.109375 26.53125 
Q 37.9375 25.4375 41.15625 22.90625 
z
" id="Georgia-35"/>
      </defs>
      <g transform="translate(283.775861 260.318125)scale(0.12 -0.12)">
       <use xlink:href="#Georgia-35"/>
       <use x="52.832031" xlink:href="#Georgia-30"/>
       <use x="114.208984" xlink:href="#Georgia-30"/>
      </g>
     </g>
    </g>
    <g id="xtick_7">
     <g id="line2d_7">
      <g>
       <use style="stroke:#000000;stroke-width:0.8;" x="333.182022" xlink:href="#m3945527322" y="244.246875"/>
      </g>
     </g>
     <g id="text_7">
      <!-- 600 -->
      <defs>
       <path d="M 52.484375 22.515625 
Q 52.484375 17.4375 50.65625 12.984375 
Q 48.828125 8.546875 45.75 5.421875 
Q 42.1875 1.859375 37.859375 0.140625 
Q 33.546875 -1.5625 28.859375 -1.5625 
Q 23.4375 -1.5625 19.046875 0.4375 
Q 14.65625 2.4375 11.578125 6.109375 
Q 8.453125 9.8125 6.734375 15.1875 
Q 5.03125 20.5625 5.03125 27.25 
Q 5.03125 44.671875 15.40625 56.640625 
Q 25.78125 68.609375 43.21875 71 
L 44.09375 66.609375 
L 39.703125 65.828125 
Q 29.109375 62.40625 23.3125 55.171875 
Q 17.53125 47.953125 15.828125 37.640625 
Q 20.015625 41.3125 24.109375 42.828125 
Q 28.21875 44.34375 32.765625 44.34375 
Q 40.921875 44.34375 46.703125 38.09375 
Q 52.484375 31.84375 52.484375 22.515625 
z
M 41.890625 21.1875 
Q 41.890625 29.109375 38.25 33.890625 
Q 34.625 38.671875 28.515625 38.671875 
Q 24.859375 38.671875 21.703125 37.296875 
Q 18.5625 35.9375 15.625 32.71875 
Q 15.578125 32.125 15.46875 30 
Q 15.375 27.875 15.375 26.65625 
Q 15.375 15.234375 19.109375 8.765625 
Q 22.859375 2.296875 28.953125 2.296875 
Q 34.765625 2.296875 38.328125 7.34375 
Q 41.890625 12.40625 41.890625 21.1875 
z
" id="Georgia-36"/>
      </defs>
      <g transform="translate(322.421397 260.318125)scale(0.12 -0.12)">
       <use xlink:href="#Georgia-36"/>
       <use x="56.591797" xlink:href="#Georgia-30"/>
       <use x="117.96875" xlink:href="#Georgia-30"/>
      </g>
     </g>
    </g>
    <g id="xtick_8">
     <g id="line2d_8">
      <g>
       <use style="stroke:#000000;stroke-width:0.8;" x="372.053495" xlink:href="#m3945527322" y="244.246875"/>
      </g>
     </g>
     <g id="text_8">
      <!-- 700 -->
      <defs>
       <path d="M 50.25 49.21875 
L 15.4375 -17.828125 
L 9.328125 -17.828125 
L 42.09375 44.1875 
L 22.90625 44.1875 
Q 18.65625 44.1875 16.265625 44.09375 
Q 13.875 44 11.859375 43.171875 
Q 10.359375 42.53125 9.15625 39.921875 
Q 7.953125 37.3125 7.328125 33.25 
L 4.34375 33.25 
L 4.34375 52.390625 
L 50.25 52.390625 
z
" id="Georgia-37"/>
      </defs>
      <g transform="translate(361.673495 260.318125)scale(0.12 -0.12)">
       <use xlink:href="#Georgia-37"/>
       <use x="50.244141" xlink:href="#Georgia-30"/>
       <use x="111.621094" xlink:href="#Georgia-30"/>
      </g>
     </g>
    </g>
    <g id="xtick_9">
     <g id="line2d_9">
      <g>
       <use style="stroke:#000000;stroke-width:0.8;" x="410.924969" xlink:href="#m3945527322" y="244.246875"/>
      </g>
     </g>
     <g id="text_9">
      <!-- 800 -->
      <defs>
       <path d="M 54.546875 18.359375 
Q 54.546875 10.15625 47.453125 4.25 
Q 40.375 -1.65625 28.859375 -1.65625 
Q 18.0625 -1.65625 11.5625 3.765625 
Q 5.078125 9.1875 5.078125 17.71875 
Q 5.078125 24.03125 8.90625 28.25 
Q 12.75 32.46875 20.265625 35.40625 
Q 14.0625 38.875 10.984375 43.015625 
Q 7.90625 47.171875 7.90625 52.390625 
Q 7.90625 60.359375 14.671875 65.71875 
Q 21.4375 71.09375 30.859375 71.09375 
Q 40.28125 71.09375 46.109375 66.015625 
Q 51.953125 60.9375 51.953125 53.265625 
Q 51.953125 48.34375 48.734375 43.921875 
Q 45.515625 39.5 39.265625 36.671875 
Q 47.359375 33.203125 50.953125 29 
Q 54.546875 24.8125 54.546875 18.359375 
z
M 42.71875 53.8125 
Q 42.71875 59.765625 39.171875 63.5 
Q 35.640625 67.234375 30.125 67.234375 
Q 24.609375 67.234375 21.09375 63.640625 
Q 17.578125 60.0625 17.578125 54.734375 
Q 17.578125 49.609375 21.578125 46.046875 
Q 25.59375 42.484375 35.84375 38.421875 
Q 39.5 40.765625 41.109375 44.625 
Q 42.71875 48.484375 42.71875 53.8125 
z
M 44.78125 16.0625 
Q 44.78125 19.140625 43.453125 21.453125 
Q 42.140625 23.78125 39.65625 25.6875 
Q 37.25 27.546875 32.984375 29.5625 
Q 28.71875 31.59375 23.734375 33.6875 
Q 19.046875 31.15625 16.84375 27.21875 
Q 14.65625 23.296875 14.65625 18.265625 
Q 14.65625 11.078125 18.875 6.65625 
Q 23.09375 2.25 30.125 2.25 
Q 36.859375 2.25 40.8125 6.15625 
Q 44.78125 10.0625 44.78125 16.0625 
z
" id="Georgia-38"/>
      </defs>
      <g transform="translate(399.982469 260.318125)scale(0.12 -0.12)">
       <use xlink:href="#Georgia-38"/>
       <use x="59.619141" xlink:href="#Georgia-30"/>
       <use x="120.996094" xlink:href="#Georgia-30"/>
      </g>
     </g>
    </g>
    <g id="text_10">
     <!-- Index of lowest discarded component $(M)$ -->
     <defs>
      <path d="M 35.0625 0 
L 3.859375 0 
L 3.859375 3.46875 
Q 5.171875 3.5625 7.65625 3.75 
Q 10.15625 3.953125 11.1875 4.34375 
Q 12.796875 4.984375 13.53125 6.078125 
Q 14.265625 7.171875 14.265625 9.125 
L 14.265625 59.328125 
Q 14.265625 61.03125 13.71875 62.171875 
Q 13.1875 63.328125 11.1875 64.109375 
Q 9.71875 64.703125 7.5 65.203125 
Q 5.28125 65.71875 3.859375 65.828125 
L 3.859375 69.28125 
L 35.0625 69.28125 
L 35.0625 65.828125 
Q 33.546875 65.765625 31.4375 65.453125 
Q 29.34375 65.140625 27.78125 64.65625 
Q 25.921875 64.0625 25.28125 62.734375 
Q 24.65625 61.421875 24.65625 59.8125 
L 24.65625 9.671875 
Q 24.65625 8.0625 25.359375 6.8125 
Q 26.078125 5.5625 27.78125 4.828125 
Q 28.8125 4.4375 31.125 3.96875 
Q 33.453125 3.515625 35.0625 3.46875 
z
" id="Georgia-49"/>
      <path d="M 56.6875 0 
L 33.109375 0 
L 33.109375 3.21875 
Q 34.234375 3.328125 35.578125 3.421875 
Q 36.921875 3.515625 37.796875 3.8125 
Q 39.15625 4.25 39.8125 5.34375 
Q 40.484375 6.453125 40.484375 8.203125 
L 40.484375 32.953125 
Q 40.484375 38.09375 38.0625 40.875 
Q 35.640625 43.65625 32.171875 43.65625 
Q 29.59375 43.65625 27.4375 42.84375 
Q 25.296875 42.046875 23.640625 40.875 
Q 22.015625 39.75 21.0625 38.453125 
Q 20.125 37.15625 19.671875 36.375 
L 19.671875 8.6875 
Q 19.671875 7.03125 20.359375 5.953125 
Q 21.046875 4.890625 22.40625 4.296875 
Q 23.4375 3.8125 24.625 3.5625 
Q 25.828125 3.328125 27.09375 3.21875 
L 27.09375 0 
L 3.515625 0 
L 3.515625 3.21875 
Q 4.640625 3.328125 5.828125 3.421875 
Q 7.03125 3.515625 7.90625 3.8125 
Q 9.28125 4.25 9.9375 5.34375 
Q 10.59375 6.453125 10.59375 8.203125 
L 10.59375 37.9375 
Q 10.59375 39.59375 9.890625 40.984375 
Q 9.1875 42.390625 7.90625 43.265625 
Q 6.984375 43.84375 5.703125 44.109375 
Q 4.4375 44.390625 2.984375 44.484375 
L 2.984375 47.65625 
L 19 48.734375 
L 19.671875 48.046875 
L 19.671875 41.265625 
L 19.921875 41.265625 
Q 21.09375 42.4375 22.84375 44.0625 
Q 24.609375 45.703125 26.171875 46.734375 
Q 27.984375 47.90625 30.46875 48.6875 
Q 32.953125 49.46875 36.078125 49.46875 
Q 43.015625 49.46875 46.359375 45.140625 
Q 49.703125 40.828125 49.703125 33.640625 
L 49.703125 8.59375 
Q 49.703125 6.890625 50.28125 5.828125 
Q 50.875 4.78125 52.296875 4.203125 
Q 53.46875 3.71875 54.3125 3.515625 
Q 55.171875 3.328125 56.6875 3.21875 
z
" id="Georgia-6e"/>
      <path d="M 56.25 0.875 
L 39.453125 -0.203125 
L 38.71875 0.484375 
L 38.71875 4.984375 
L 38.328125 5.078125 
Q 35.796875 2.25 32.0625 0.4375 
Q 28.328125 -1.375 24.359375 -1.375 
Q 20.265625 -1.375 16.421875 0.453125 
Q 12.59375 2.296875 9.765625 5.609375 
Q 6.890625 8.984375 5.203125 13.71875 
Q 3.515625 18.453125 3.515625 24.171875 
Q 3.515625 29.390625 5.3125 34.078125 
Q 7.125 38.765625 10.296875 42.28125 
Q 13.28125 45.5625 17.59375 47.515625 
Q 21.921875 49.46875 26.421875 49.46875 
Q 29.78125 49.46875 33.03125 48.609375 
Q 36.28125 47.75 38.625 46.4375 
L 38.625 63.1875 
Q 38.625 65.234375 37.9375 66.921875 
Q 37.25 68.609375 36.03125 69.484375 
Q 34.671875 70.40625 32.34375 70.8125 
Q 30.03125 71.234375 27.34375 71.4375 
L 27.34375 74.46875 
L 47.015625 75.59375 
L 47.75 74.859375 
L 47.75 9.90625 
Q 47.75 8.203125 48.40625 7 
Q 49.078125 5.8125 50.34375 4.984375 
Q 51.265625 4.390625 53.015625 4.25 
Q 54.78125 4.109375 56.25 4.046875 
z
M 38.625 9.328125 
L 38.625 37.5 
Q 38.234375 38.765625 37.34375 40.234375 
Q 36.46875 41.703125 35.15625 42.921875 
Q 33.734375 44.140625 31.828125 44.9375 
Q 29.9375 45.75 27.390625 45.75 
Q 24.46875 45.75 22 44.234375 
Q 19.53125 42.71875 17.625 39.890625 
Q 15.828125 37.15625 14.765625 32.9375 
Q 13.71875 28.71875 13.71875 23.578125 
Q 13.71875 19.484375 14.5 16.140625 
Q 15.28125 12.796875 17.140625 9.90625 
Q 18.84375 7.171875 21.5 5.515625 
Q 24.171875 3.859375 27.828125 3.859375 
Q 31.734375 3.859375 34.296875 5.5625 
Q 36.859375 7.28125 38.625 9.328125 
z
" id="Georgia-64"/>
      <path d="M 46.296875 11.328125 
Q 43.265625 5.5625 38.1875 2.140625 
Q 33.109375 -1.265625 26.515625 -1.265625 
Q 20.703125 -1.265625 16.328125 0.78125 
Q 11.96875 2.828125 9.125 6.34375 
Q 6.296875 9.859375 4.90625 14.546875 
Q 3.515625 19.234375 3.515625 24.46875 
Q 3.515625 29.15625 5 33.671875 
Q 6.5 38.1875 9.375 41.796875 
Q 12.15625 45.265625 16.28125 47.390625 
Q 20.40625 49.515625 25.53125 49.515625 
Q 30.8125 49.515625 34.5625 47.84375 
Q 38.328125 46.1875 40.671875 43.3125 
Q 42.921875 40.578125 44.015625 36.859375 
Q 45.125 33.15625 45.125 28.8125 
L 45.125 25.59375 
L 13.234375 25.59375 
Q 13.234375 20.84375 14.140625 16.984375 
Q 15.046875 13.140625 17 10.203125 
Q 18.890625 7.375 21.96875 5.734375 
Q 25.046875 4.109375 29.296875 4.109375 
Q 33.640625 4.109375 36.78125 6.125 
Q 39.9375 8.15625 42.875 13.421875 
z
M 35.5 29.6875 
Q 35.5 32.421875 35.03125 35.546875 
Q 34.578125 38.671875 33.546875 40.765625 
Q 32.421875 43.015625 30.46875 44.421875 
Q 28.515625 45.84375 25.4375 45.84375 
Q 20.3125 45.84375 16.921875 41.578125 
Q 13.53125 37.3125 13.234375 29.6875 
z
" id="Georgia-65"/>
      <path d="M 49.90625 0 
L 27.828125 0 
L 27.828125 3.21875 
Q 30.03125 3.46875 31.5625 3.703125 
Q 33.109375 3.953125 33.109375 4.984375 
Q 33.109375 5.421875 32.609375 6.34375 
Q 32.125 7.28125 31.640625 8.0625 
Q 30.421875 9.96875 28.296875 13.15625 
Q 26.171875 16.359375 23.09375 20.796875 
Q 20.5625 17.625 18.40625 14.625 
Q 16.265625 11.625 13.921875 8.25 
Q 13.578125 7.765625 13.203125 7.03125 
Q 12.84375 6.296875 12.84375 5.859375 
Q 12.84375 4.78125 14.234375 4.078125 
Q 15.625 3.375 18.40625 3.125 
L 18.40625 0 
L 0.59375 0 
L 0.59375 3.03125 
Q 3.90625 4 5.921875 5.390625 
Q 7.953125 6.78125 9.671875 8.84375 
Q 11.1875 10.796875 13.890625 14.203125 
Q 16.609375 17.625 20.90625 23.484375 
Q 18.40625 27.046875 14.8125 32.203125 
Q 11.234375 37.359375 8.890625 40.765625 
Q 7.625 42.625 5.984375 43.765625 
Q 4.34375 44.921875 1.375 44.921875 
L 1.375 48.140625 
L 22.3125 48.140625 
L 22.3125 44.921875 
Q 20.75 44.921875 19.234375 44.71875 
Q 17.71875 44.53125 17.71875 43.84375 
Q 17.71875 43.40625 18.015625 42.859375 
Q 18.3125 42.328125 18.75 41.703125 
Q 19.828125 40.046875 22.09375 36.578125 
Q 24.359375 33.109375 27 29.25 
Q 28.71875 31.59375 30.984375 34.71875 
Q 33.25 37.84375 35.15625 40.671875 
Q 35.359375 41.015625 35.546875 41.53125 
Q 35.75 42.046875 35.75 42.53125 
Q 35.75 43.5625 34.0625 44.171875 
Q 32.375 44.78125 30.859375 45.015625 
L 30.859375 48.140625 
L 48.640625 48.140625 
L 48.640625 45.125 
Q 44.875 44.140625 42.765625 42.796875 
Q 40.671875 41.453125 39.203125 39.703125 
Q 37.59375 37.703125 35.375 34.765625 
Q 33.15625 31.84375 29.15625 26.5625 
Q 33.59375 20.3125 36.375 16.3125 
Q 39.15625 12.3125 42 8.0625 
Q 43.40625 5.90625 45.140625 4.65625 
Q 46.875 3.421875 49.90625 3.21875 
z
" id="Georgia-78"/>
      <path id="Georgia-20"/>
      <path d="M 50.4375 24.5625 
Q 50.4375 19.484375 48.828125 14.578125 
Q 47.21875 9.671875 44.234375 6.25 
Q 40.875 2.34375 36.421875 0.4375 
Q 31.984375 -1.46875 26.46875 -1.46875 
Q 21.875 -1.46875 17.71875 0.265625 
Q 13.578125 2 10.359375 5.328125 
Q 7.171875 8.59375 5.296875 13.296875 
Q 3.421875 18.015625 3.421875 23.875 
Q 3.421875 35.15625 9.984375 42.328125 
Q 16.546875 49.515625 27.203125 49.515625 
Q 37.3125 49.515625 43.875 42.703125 
Q 50.4375 35.890625 50.4375 24.5625 
z
M 40.328125 24.46875 
Q 40.328125 28.125 39.59375 32.203125 
Q 38.875 36.28125 37.40625 39.109375 
Q 35.84375 42.140625 33.296875 43.96875 
Q 30.765625 45.796875 27.09375 45.796875 
Q 23.34375 45.796875 20.671875 43.9375 
Q 18.015625 42.09375 16.359375 38.875 
Q 14.796875 35.890625 14.15625 32.078125 
Q 13.53125 28.265625 13.53125 24.703125 
Q 13.53125 20.015625 14.28125 16.03125 
Q 15.046875 12.0625 16.703125 8.9375 
Q 18.359375 5.8125 20.875 4.03125 
Q 23.390625 2.25 27.09375 2.25 
Q 33.203125 2.25 36.765625 8.15625 
Q 40.328125 14.0625 40.328125 24.46875 
z
" id="Georgia-6f"/>
      <path d="M 39.359375 69.78125 
Q 39.359375 67.578125 38.1875 66.0625 
Q 37.015625 64.546875 34.625 64.546875 
Q 33.109375 64.546875 31.953125 65.1875 
Q 30.8125 65.828125 29.828125 66.890625 
Q 28.859375 67.96875 28.03125 69.328125 
Q 27.203125 70.703125 26.609375 71.53125 
Q 23.34375 71.390625 21.5625 66.96875 
Q 19.78125 62.546875 19.78125 52.875 
L 19.78125 47.953125 
L 32.171875 47.953125 
L 32.171875 43.265625 
L 19.78125 43.265625 
L 19.78125 8.6875 
Q 19.78125 6.984375 20.4375 5.90625 
Q 21.09375 4.828125 22.515625 4.296875 
Q 23.6875 3.859375 25.640625 3.59375 
Q 27.59375 3.328125 29 3.21875 
L 29 0 
L 3.609375 0 
L 3.609375 3.21875 
Q 4.734375 3.328125 5.921875 3.421875 
Q 7.125 3.515625 8.015625 3.8125 
Q 9.375 4.25 10.03125 5.34375 
Q 10.6875 6.453125 10.6875 8.203125 
L 10.6875 43.265625 
L 1.171875 43.265625 
L 1.171875 47.953125 
L 10.6875 47.953125 
L 10.6875 51.03125 
Q 10.6875 62.015625 16.375 68.828125 
Q 22.078125 75.640625 30.609375 75.640625 
Q 34.96875 75.640625 37.15625 73.921875 
Q 39.359375 72.21875 39.359375 69.78125 
z
" id="Georgia-66"/>
      <path d="M 26.078125 0 
L 2.59375 0 
L 2.59375 3.21875 
Q 3.71875 3.328125 4.984375 3.4375 
Q 6.25 3.5625 7.078125 3.8125 
Q 8.453125 4.25 9.125 5.34375 
Q 9.8125 6.453125 9.8125 8.203125 
L 9.8125 63.96875 
Q 9.8125 65.71875 9.046875 67.25 
Q 8.296875 68.796875 7.078125 69.671875 
Q 6.203125 70.265625 3.859375 70.75 
Q 1.515625 71.234375 0.09375 71.34375 
L 0.09375 74.46875 
L 18.21875 75.59375 
L 18.890625 74.859375 
L 18.890625 8.796875 
Q 18.890625 7.078125 19.53125 5.984375 
Q 20.171875 4.890625 21.578125 4.296875 
Q 22.65625 3.8125 23.703125 3.5625 
Q 24.75 3.328125 26.078125 3.21875 
z
" id="Georgia-6c"/>
      <path d="M 75.25 45.015625 
Q 73.1875 44.828125 70.8125 43.3125 
Q 68.453125 41.796875 67.390625 38.765625 
Q 64.9375 31.59375 62.765625 25.171875 
Q 60.59375 18.75 57.90625 10.75 
Q 57.03125 8.203125 56.125 5.265625 
Q 55.21875 2.34375 54.5 -0.34375 
L 50.296875 -0.34375 
L 37.359375 35.109375 
L 24.3125 -0.34375 
L 20.3125 -0.34375 
Q 16.65625 10.5 13.15625 21.171875 
Q 9.671875 31.84375 6.984375 39.75 
Q 6.203125 42.046875 4 43.359375 
Q 1.8125 44.671875 -0.25 44.921875 
L -0.25 48.140625 
L 21.234375 48.140625 
L 21.234375 44.734375 
Q 19.625 44.671875 17.75 44.1875 
Q 15.875 43.703125 15.875 42.578125 
Q 15.875 42.390625 16.046875 41.75 
Q 16.21875 41.109375 16.453125 40.375 
Q 18.015625 35.25 19.984375 28.921875 
Q 21.96875 22.609375 25.09375 12.5 
L 37.40625 47.171875 
L 42.09375 47.171875 
L 54.640625 12.984375 
Q 56.734375 19.53125 58.8125 25.65625 
Q 60.890625 31.78125 62.453125 37.15625 
Q 62.796875 38.421875 63.109375 39.46875 
Q 63.421875 40.53125 63.421875 41.546875 
Q 63.421875 42.4375 62.640625 43.109375 
Q 61.859375 43.796875 60.75 44.234375 
Q 59.765625 44.625 58.609375 44.8125 
Q 57.46875 45.015625 56.9375 45.015625 
L 56.9375 48.140625 
L 75.25 48.140625 
z
" id="Georgia-77"/>
      <path d="M 35.296875 23.578125 
Q 37.3125 21.828125 38.375 19.53125 
Q 39.453125 17.234375 39.453125 13.921875 
Q 39.453125 7.234375 34.4375 2.984375 
Q 29.4375 -1.265625 21.484375 -1.265625 
Q 17.28125 -1.265625 13.734375 0.25 
Q 10.203125 1.765625 8.6875 3.03125 
L 7.71875 -0.140625 
L 4.046875 -0.140625 
L 3.5625 16.609375 
L 6.9375 16.609375 
Q 7.328125 14.703125 8.59375 12.15625 
Q 9.859375 9.625 11.671875 7.5625 
Q 13.578125 5.421875 16.234375 3.953125 
Q 18.890625 2.484375 22.21875 2.484375 
Q 26.90625 2.484375 29.4375 4.609375 
Q 31.984375 6.734375 31.984375 10.6875 
Q 31.984375 12.75 31.171875 14.234375 
Q 30.375 15.71875 28.8125 16.84375 
Q 27.203125 17.96875 24.859375 18.875 
Q 22.515625 19.78125 19.625 20.65625 
Q 17.328125 21.34375 14.515625 22.53125 
Q 11.71875 23.734375 9.71875 25.34375 
Q 7.5625 27.046875 6.1875 29.53125 
Q 4.828125 32.03125 4.828125 35.40625 
Q 4.828125 41.3125 9.21875 45.40625 
Q 13.625 49.515625 21 49.515625 
Q 23.828125 49.515625 26.78125 48.78125 
Q 29.734375 48.046875 31.59375 47.015625 
L 32.71875 49.5625 
L 36.234375 49.5625 
L 36.96875 34.078125 
L 33.59375 34.078125 
Q 32.5625 39.265625 29.171875 42.5 
Q 25.78125 45.75 20.90625 45.75 
Q 16.890625 45.75 14.59375 43.75 
Q 12.3125 41.75 12.3125 38.921875 
Q 12.3125 36.71875 13.0625 35.25 
Q 13.8125 33.796875 15.328125 32.765625 
Q 16.796875 31.78125 19.015625 30.921875 
Q 21.234375 30.078125 24.515625 29 
Q 27.734375 27.984375 30.59375 26.609375 
Q 33.453125 25.25 35.296875 23.578125 
z
" id="Georgia-73"/>
      <path d="M 33.25 2.09375 
Q 30.078125 0.78125 27.25 -0.125 
Q 24.421875 -1.03125 20.3125 -1.03125 
Q 14.265625 -1.03125 11.796875 2.015625 
Q 9.328125 5.078125 9.328125 10.640625 
L 9.328125 43.265625 
L 0.640625 43.265625 
L 0.640625 47.953125 
L 9.515625 47.953125 
L 9.515625 62.9375 
L 18.40625 62.9375 
L 18.40625 47.953125 
L 32.234375 47.953125 
L 32.234375 43.265625 
L 18.5 43.265625 
L 18.5 16.359375 
Q 18.5 13.328125 18.71875 11.296875 
Q 18.953125 9.28125 19.78125 7.765625 
Q 20.5625 6.34375 22.125 5.609375 
Q 23.6875 4.890625 26.3125 4.890625 
Q 27.546875 4.890625 29.90625 5.109375 
Q 32.28125 5.328125 33.25 5.671875 
z
" id="Georgia-74"/>
      <path d="M 26.90625 0 
L 3.609375 0 
L 3.609375 3.21875 
Q 4.734375 3.328125 5.921875 3.421875 
Q 7.125 3.515625 8.015625 3.8125 
Q 9.375 4.25 10.03125 5.34375 
Q 10.6875 6.453125 10.6875 8.203125 
L 10.6875 37.9375 
Q 10.6875 39.5 9.984375 40.796875 
Q 9.28125 42.09375 8.015625 42.96875 
Q 7.078125 43.5625 5.3125 43.96875 
Q 3.5625 44.390625 2.09375 44.484375 
L 2.09375 47.65625 
L 19.09375 48.734375 
L 19.78125 48.046875 
L 19.78125 8.796875 
Q 19.78125 7.078125 20.4375 5.953125 
Q 21.09375 4.828125 22.515625 4.296875 
Q 23.578125 3.859375 24.609375 3.59375 
Q 25.640625 3.328125 26.90625 3.21875 
z
M 20.75 67.71875 
Q 20.75 64.9375 18.921875 62.859375 
Q 17.09375 60.796875 14.40625 60.796875 
Q 11.921875 60.796875 10.078125 62.765625 
Q 8.25 64.75 8.25 67.28125 
Q 8.25 69.96875 10.078125 71.96875 
Q 11.921875 73.96875 14.40625 73.96875 
Q 17.1875 73.96875 18.96875 72.09375 
Q 20.75 70.21875 20.75 67.71875 
z
" id="Georgia-69"/>
      <path d="M 25.78125 -1.265625 
Q 15.328125 -1.265625 9.421875 5.65625 
Q 3.515625 12.59375 3.515625 24.265625 
Q 3.515625 29.34375 5.09375 33.765625 
Q 6.6875 38.1875 9.71875 41.796875 
Q 12.59375 45.265625 16.9375 47.390625 
Q 21.296875 49.515625 26.421875 49.515625 
Q 33.5 49.515625 37.9375 46.109375 
Q 42.390625 42.71875 42.390625 36.859375 
Q 42.390625 34.421875 41.21875 32.546875 
Q 40.046875 30.671875 37.359375 30.671875 
Q 34.46875 30.671875 32.875 32.125 
Q 31.296875 33.59375 31.296875 35.40625 
Q 31.296875 37.59375 31.875 39.90625 
Q 32.46875 42.234375 32.5625 43.3125 
Q 31.6875 44.828125 29.953125 45.328125 
Q 28.21875 45.84375 26.21875 45.84375 
Q 23.875 45.84375 21.75 44.84375 
Q 19.625 43.84375 17.625 41.15625 
Q 15.828125 38.71875 14.703125 34.5625 
Q 13.578125 30.421875 13.578125 24.65625 
Q 13.578125 15.578125 17.59375 9.84375 
Q 21.625 4.109375 28.171875 4.109375 
Q 32.90625 4.109375 36.109375 6.390625 
Q 39.3125 8.6875 42.046875 13.28125 
L 45.171875 11.234375 
Q 41.9375 5.46875 36.65625 2.09375 
Q 31.390625 -1.265625 25.78125 -1.265625 
z
" id="Georgia-63"/>
      <path d="M 49.125 0.875 
Q 46.828125 0.046875 45.09375 -0.46875 
Q 43.359375 -0.984375 41.15625 -0.984375 
Q 37.359375 -0.984375 35.078125 0.796875 
Q 32.8125 2.59375 32.171875 6 
L 31.890625 6 
Q 28.71875 2.484375 25.078125 0.625 
Q 21.4375 -1.21875 16.3125 -1.21875 
Q 10.890625 -1.21875 7.390625 2.09375 
Q 3.90625 5.421875 3.90625 10.796875 
Q 3.90625 13.578125 4.6875 15.765625 
Q 5.46875 17.96875 7.03125 19.734375 
Q 8.25 21.1875 10.25 22.328125 
Q 12.25 23.484375 14.015625 24.171875 
Q 16.21875 25 22.921875 27.25 
Q 29.640625 29.5 31.984375 30.765625 
L 31.984375 35.59375 
Q 31.984375 36.234375 31.71875 38.03125 
Q 31.453125 39.84375 30.5625 41.453125 
Q 29.59375 43.265625 27.8125 44.609375 
Q 26.03125 45.953125 22.75 45.953125 
Q 20.515625 45.953125 18.578125 45.1875 
Q 16.65625 44.4375 15.875 43.609375 
Q 15.875 42.625 16.328125 40.71875 
Q 16.796875 38.8125 16.796875 37.203125 
Q 16.796875 35.5 15.25 34.078125 
Q 13.71875 32.671875 10.984375 32.671875 
Q 8.546875 32.671875 7.390625 34.40625 
Q 6.25 36.140625 6.25 38.28125 
Q 6.25 40.53125 7.828125 42.578125 
Q 9.421875 44.625 11.96875 46.234375 
Q 14.15625 47.609375 17.28125 48.5625 
Q 20.40625 49.515625 23.390625 49.515625 
Q 27.484375 49.515625 30.53125 48.953125 
Q 33.59375 48.390625 36.078125 46.53125 
Q 38.578125 44.734375 39.859375 41.625 
Q 41.15625 38.53125 41.15625 33.640625 
Q 41.15625 26.65625 41.015625 21.265625 
Q 40.875 15.875 40.875 9.46875 
Q 40.875 7.5625 41.53125 6.4375 
Q 42.1875 5.328125 43.5625 4.546875 
Q 44.28125 4.109375 45.875 4.046875 
Q 47.46875 4 49.125 4 
z
M 32.078125 26.65625 
Q 27.9375 25.4375 24.8125 24.265625 
Q 21.6875 23.09375 19 21.34375 
Q 16.546875 19.671875 15.125 17.40625 
Q 13.71875 15.140625 13.71875 12.015625 
Q 13.71875 7.953125 15.84375 6.046875 
Q 17.96875 4.15625 21.234375 4.15625 
Q 24.703125 4.15625 27.34375 5.828125 
Q 29.984375 7.515625 31.78125 9.8125 
z
" id="Georgia-61"/>
      <path d="M 40.375 41.9375 
Q 40.375 39.453125 39.15625 37.515625 
Q 37.9375 35.59375 35.40625 35.59375 
Q 32.671875 35.59375 31.21875 37 
Q 29.78125 38.421875 29.78125 40.140625 
Q 29.78125 41.21875 29.953125 42.09375 
Q 30.125 42.96875 30.28125 43.84375 
Q 27.984375 43.84375 24.90625 41.984375 
Q 21.828125 40.140625 19.671875 36.71875 
L 19.671875 8.6875 
Q 19.671875 6.984375 20.328125 5.90625 
Q 21 4.828125 22.40625 4.296875 
Q 23.640625 3.8125 25.5625 3.5625 
Q 27.484375 3.328125 28.90625 3.21875 
L 28.90625 0 
L 3.515625 0 
L 3.515625 3.21875 
Q 4.640625 3.328125 5.828125 3.421875 
Q 7.03125 3.515625 7.90625 3.8125 
Q 9.28125 4.25 9.9375 5.34375 
Q 10.59375 6.453125 10.59375 8.203125 
L 10.59375 37.9375 
Q 10.59375 39.453125 9.890625 40.921875 
Q 9.1875 42.390625 7.90625 43.265625 
Q 6.984375 43.84375 5.703125 44.109375 
Q 4.4375 44.390625 2.984375 44.484375 
L 2.984375 47.65625 
L 19 48.734375 
L 19.671875 48.046875 
L 19.671875 41.265625 
L 19.921875 41.265625 
Q 22.953125 45.21875 26.65625 47.265625 
Q 30.375 49.3125 33.453125 49.3125 
Q 36.53125 49.3125 38.453125 47.3125 
Q 40.375 45.3125 40.375 41.9375 
z
" id="Georgia-72"/>
      <path d="M 85.984375 0 
L 62.5 0 
L 62.5 3.21875 
Q 63.625 3.328125 64.765625 3.421875 
Q 65.921875 3.515625 66.796875 3.8125 
Q 68.171875 4.25 68.828125 5.34375 
Q 69.484375 6.453125 69.484375 8.203125 
L 69.484375 33.0625 
Q 69.484375 38.140625 67.15625 40.890625 
Q 64.84375 43.65625 61.375 43.65625 
Q 58.984375 43.65625 56.875 42.921875 
Q 54.78125 42.1875 53.03125 40.875 
Q 51.609375 39.796875 50.65625 38.546875 
Q 49.703125 37.3125 49.21875 36.46875 
L 49.21875 8.6875 
Q 49.21875 6.984375 49.796875 5.875 
Q 50.390625 4.78125 51.8125 4.203125 
Q 52.9375 3.765625 53.828125 3.546875 
Q 54.734375 3.328125 56.203125 3.21875 
L 56.203125 0 
L 33.203125 0 
L 33.203125 3.21875 
Q 34.328125 3.328125 35.375 3.421875 
Q 36.421875 3.515625 37.3125 3.8125 
Q 38.671875 4.25 39.328125 5.34375 
Q 39.984375 6.453125 39.984375 8.203125 
L 39.984375 33.0625 
Q 39.984375 38.140625 37.671875 40.890625 
Q 35.359375 43.65625 31.890625 43.65625 
Q 29.5 43.65625 27.390625 42.890625 
Q 25.296875 42.140625 23.53125 40.828125 
Q 22.125 39.75 21.140625 38.40625 
Q 20.171875 37.0625 19.671875 36.375 
L 19.671875 8.796875 
Q 19.671875 7.125 20.359375 6 
Q 21.046875 4.890625 22.40625 4.296875 
Q 23.4375 3.8125 24.515625 3.5625 
Q 25.59375 3.328125 26.90625 3.21875 
L 26.90625 0 
L 3.515625 0 
L 3.515625 3.21875 
Q 4.640625 3.328125 5.828125 3.421875 
Q 7.03125 3.515625 7.90625 3.8125 
Q 9.28125 4.25 9.9375 5.34375 
Q 10.59375 6.453125 10.59375 8.203125 
L 10.59375 38.140625 
Q 10.59375 39.703125 9.890625 40.9375 
Q 9.1875 42.1875 7.90625 43.0625 
Q 6.984375 43.65625 5.609375 44.015625 
Q 4.25 44.390625 2.78125 44.484375 
L 2.78125 47.65625 
L 18.890625 48.734375 
L 19.578125 48.046875 
L 19.578125 41.15625 
L 19.921875 41.15625 
Q 21.140625 42.390625 22.890625 44.046875 
Q 24.65625 45.703125 26.171875 46.734375 
Q 27.875 47.90625 30.4375 48.6875 
Q 33.015625 49.46875 35.984375 49.46875 
Q 40.671875 49.46875 44.03125 46.953125 
Q 47.40625 44.4375 48.875 40.875 
Q 50.640625 42.578125 51.984375 43.875 
Q 53.328125 45.171875 55.515625 46.625 
Q 57.375 47.90625 59.890625 48.6875 
Q 62.40625 49.46875 65.484375 49.46875 
Q 71.578125 49.46875 75.140625 45.453125 
Q 78.71875 41.453125 78.71875 33.15625 
L 78.71875 8.6875 
Q 78.71875 6.984375 79.296875 5.875 
Q 79.890625 4.78125 81.296875 4.203125 
Q 82.421875 3.765625 83.515625 3.546875 
Q 84.625 3.328125 85.984375 3.21875 
z
" id="Georgia-6d"/>
      <path d="M 47.515625 42.4375 
Q 50.390625 39.015625 51.96875 34.5 
Q 53.5625 29.984375 53.5625 24.171875 
Q 53.5625 18.453125 51.65625 13.734375 
Q 49.75 9.03125 46.625 5.71875 
Q 43.359375 2.34375 39.359375 0.53125 
Q 35.359375 -1.265625 30.859375 -1.265625 
Q 26.515625 -1.265625 23.734375 -0.28125 
Q 20.953125 0.6875 19.1875 2 
L 18.796875 2 
L 18.796875 -12.453125 
Q 18.796875 -14.203125 19.484375 -15.375 
Q 20.171875 -16.546875 21.578125 -17.09375 
Q 22.75 -17.53125 24.921875 -17.9375 
Q 27.09375 -18.359375 28.515625 -18.40625 
L 28.515625 -21.6875 
L 1.609375 -21.6875 
L 1.609375 -18.40625 
Q 3.125 -18.3125 4.53125 -18.15625 
Q 5.953125 -18.015625 7.078125 -17.671875 
Q 8.546875 -17.1875 9.125 -15.96875 
Q 9.71875 -14.75 9.71875 -13.09375 
L 9.71875 38.140625 
Q 9.71875 39.59375 8.984375 40.953125 
Q 8.25 42.328125 7.078125 43.171875 
Q 6.203125 43.75 4.640625 44.0625 
Q 3.078125 44.390625 1.609375 44.484375 
L 1.609375 47.65625 
L 18.015625 48.734375 
L 18.703125 48.140625 
L 18.703125 42.71875 
L 19.09375 42.625 
Q 21.625 45.5625 25.390625 47.515625 
Q 29.15625 49.46875 32.859375 49.46875 
Q 37.359375 49.46875 41.09375 47.5625 
Q 44.828125 45.65625 47.515625 42.4375 
z
M 39.546875 7.8125 
Q 41.5 10.84375 42.421875 14.84375 
Q 43.359375 18.84375 43.359375 23.78125 
Q 43.359375 27.390625 42.578125 31.140625 
Q 41.796875 34.90625 40.140625 37.703125 
Q 38.484375 40.53125 35.796875 42.28125 
Q 33.109375 44.046875 29.34375 44.046875 
Q 25.734375 44.046875 23.1875 42.453125 
Q 20.65625 40.875 18.796875 38.671875 
L 18.796875 10.203125 
Q 19.234375 8.890625 20.234375 7.46875 
Q 21.234375 6.0625 22.46875 5.03125 
Q 23.96875 3.8125 25.71875 3.046875 
Q 27.484375 2.296875 30.03125 2.296875 
Q 32.765625 2.296875 35.296875 3.734375 
Q 37.84375 5.171875 39.546875 7.8125 
z
" id="Georgia-70"/>
      <path d="M 30.40625 -16.09375 
L 29.203125 -17.703125 
Q 17.59375 -11.09375 11.1875 0.5 
Q 4.796875 12.09375 4.796875 25.203125 
Q 4.796875 52.90625 29.5 67.59375 
L 30.40625 66 
Q 20.203125 57.296875 16.796875 48.84375 
Q 13.40625 40.40625 13.40625 25.5 
Q 13.40625 10.703125 16.90625 1.5 
Q 20.40625 -7.703125 30.40625 -16.09375 
z
" id="STIXGeneral-Regular-28"/>
      <path d="M 87.203125 65.296875 
L 87.203125 63.703125 
Q 83.09375 63 81.640625 61.640625 
Q 80.203125 60.296875 79.09375 56.296875 
L 66.796875 12 
Q 65.40625 7 65.40625 5.796875 
Q 65.40625 3.796875 67.203125 2.75 
Q 69 1.703125 73.5 1.59375 
L 73.40625 0 
L 46.296875 0 
L 46.296875 1.59375 
Q 51.203125 2.09375 53.203125 3.796875 
Q 55.203125 5.5 56.5 10.203125 
L 69.09375 56.09375 
L 31.5 0 
L 29.796875 0 
L 23.59375 54.59375 
L 11.796875 11.796875 
Q 10.90625 8.59375 10.90625 6.40625 
Q 10.90625 2.09375 17.90625 1.59375 
L 17.90625 0 
L -1.796875 0 
L -1.796875 1.59375 
Q 2.203125 2.09375 4.046875 4.4375 
Q 5.90625 6.796875 8.203125 15 
L 19.59375 55.09375 
Q 20.796875 59.203125 20.796875 60.296875 
Q 20.796875 63.296875 13.40625 63.703125 
L 13.40625 65.296875 
L 31.5 65.296875 
L 37.09375 16.09375 
L 70.59375 65.296875 
z
" id="STIXGeneral-Italic-4d"/>
      <path d="M 2.90625 66 
L 4.09375 67.59375 
Q 15.5 60.796875 22 49.1875 
Q 28.5 37.59375 28.5 24.703125 
Q 28.5 -2.59375 3.796875 -17.703125 
L 2.90625 -16.09375 
Q 13.203125 -7.59375 16.546875 0.84375 
Q 19.90625 9.296875 19.90625 24.40625 
Q 19.90625 39.59375 16.546875 48.75 
Q 13.203125 57.90625 2.90625 66 
z
" id="STIXGeneral-Regular-29"/>
     </defs>
     <g transform="translate(106.295 279.080625)scale(0.16 -0.16)">
      <use transform="translate(0 0.359375)" xlink:href="#Georgia-49"/>
      <use transform="translate(38.964844 0.359375)" xlink:href="#Georgia-6e"/>
      <use transform="translate(98.046875 0.359375)" xlink:href="#Georgia-64"/>
      <use transform="translate(155.46875 0.359375)" xlink:href="#Georgia-65"/>
      <use transform="translate(203.808594 0.359375)" xlink:href="#Georgia-78"/>
      <use transform="translate(254.296875 0.359375)" xlink:href="#Georgia-20"/>
      <use transform="translate(278.417969 0.359375)" xlink:href="#Georgia-6f"/>
      <use transform="translate(332.324219 0.359375)" xlink:href="#Georgia-66"/>
      <use transform="translate(364.84375 0.359375)" xlink:href="#Georgia-20"/>
      <use transform="translate(388.964844 0.359375)" xlink:href="#Georgia-6c"/>
      <use transform="translate(417.578125 0.359375)" xlink:href="#Georgia-6f"/>
      <use transform="translate(471.484375 0.359375)" xlink:href="#Georgia-77"/>
      <use transform="translate(545.214844 0.359375)" xlink:href="#Georgia-65"/>
      <use transform="translate(593.554688 0.359375)" xlink:href="#Georgia-73"/>
      <use transform="translate(636.767578 0.359375)" xlink:href="#Georgia-74"/>
      <use transform="translate(671.289062 0.359375)" xlink:href="#Georgia-20"/>
      <use transform="translate(695.410156 0.359375)" xlink:href="#Georgia-64"/>
      <use transform="translate(752.832031 0.359375)" xlink:href="#Georgia-69"/>
      <use transform="translate(782.128906 0.359375)" xlink:href="#Georgia-73"/>
      <use transform="translate(825.341797 0.359375)" xlink:href="#Georgia-63"/>
      <use transform="translate(870.751953 0.359375)" xlink:href="#Georgia-61"/>
      <use transform="translate(921.142578 0.359375)" xlink:href="#Georgia-72"/>
      <use transform="translate(962.109375 0.359375)" xlink:href="#Georgia-64"/>
      <use transform="translate(1019.53125 0.359375)" xlink:href="#Georgia-65"/>
      <use transform="translate(1067.871094 0.359375)" xlink:href="#Georgia-64"/>
      <use transform="translate(1125.292969 0.359375)" xlink:href="#Georgia-20"/>
      <use transform="translate(1149.414062 0.359375)" xlink:href="#Georgia-63"/>
      <use transform="translate(1194.824219 0.359375)" xlink:href="#Georgia-6f"/>
      <use transform="translate(1248.730469 0.359375)" xlink:href="#Georgia-6d"/>
      <use transform="translate(1336.816406 0.359375)" xlink:href="#Georgia-70"/>
      <use transform="translate(1393.945312 0.359375)" xlink:href="#Georgia-6f"/>
      <use transform="translate(1447.851562 0.359375)" xlink:href="#Georgia-6e"/>
      <use transform="translate(1506.933594 0.359375)" xlink:href="#Georgia-65"/>
      <use transform="translate(1555.273438 0.359375)" xlink:href="#Georgia-6e"/>
      <use transform="translate(1614.355469 0.359375)" xlink:href="#Georgia-74"/>
      <use transform="translate(1648.876953 0.359375)" xlink:href="#Georgia-20"/>
      <use transform="translate(1672.998047 0.359375)" xlink:href="#STIXGeneral-Regular-28"/>
      <use transform="translate(1706.298035 0.359375)" xlink:href="#STIXGeneral-Italic-4d"/>
      <use transform="translate(1789.598022 0.359375)" xlink:href="#STIXGeneral-Regular-29"/>
     </g>
    </g>
   </g>
   <g id="matplotlib.axis_2">
    <g id="ytick_1">
     <g id="line2d_10">
      <defs>
       <path d="M 0 0 
L -3.5 0 
" id="md3b4bf7565" style="stroke:#000000;stroke-width:0.8;"/>
      </defs>
      <g>
       <use style="stroke:#000000;stroke-width:0.8;" x="84.735" xlink:href="#md3b4bf7565" y="234.363239"/>
      </g>
     </g>
     <g id="text_11">
      <!-- 0 -->
      <g transform="translate(70.37 238.898864)scale(0.12 -0.12)">
       <use xlink:href="#Georgia-30"/>
      </g>
     </g>
    </g>
    <g id="ytick_2">
     <g id="line2d_11">
      <g>
       <use style="stroke:#000000;stroke-width:0.8;" x="84.735" xlink:href="#md3b4bf7565" y="197.815843"/>
      </g>
     </g>
     <g id="text_12">
      <!-- 1000000 -->
      <g transform="translate(28.38875 202.351468)scale(0.12 -0.12)">
       <use xlink:href="#Georgia-31"/>
       <use x="42.96875" xlink:href="#Georgia-30"/>
       <use x="104.345703" xlink:href="#Georgia-30"/>
       <use x="165.722656" xlink:href="#Georgia-30"/>
       <use x="227.099609" xlink:href="#Georgia-30"/>
       <use x="288.476562" xlink:href="#Georgia-30"/>
       <use x="349.853516" xlink:href="#Georgia-30"/>
      </g>
     </g>
    </g>
    <g id="ytick_3">
     <g id="line2d_12">
      <g>
       <use style="stroke:#000000;stroke-width:0.8;" x="84.735" xlink:href="#md3b4bf7565" y="161.268447"/>
      </g>
     </g>
     <g id="text_13">
      <!-- 2000000 -->
      <g transform="translate(26.841875 165.804072)scale(0.12 -0.12)">
       <use xlink:href="#Georgia-32"/>
       <use x="55.859375" xlink:href="#Georgia-30"/>
       <use x="117.236328" xlink:href="#Georgia-30"/>
       <use x="178.613281" xlink:href="#Georgia-30"/>
       <use x="239.990234" xlink:href="#Georgia-30"/>
       <use x="301.367188" xlink:href="#Georgia-30"/>
       <use x="362.744141" xlink:href="#Georgia-30"/>
      </g>
     </g>
    </g>
    <g id="ytick_4">
     <g id="line2d_13">
      <g>
       <use style="stroke:#000000;stroke-width:0.8;" x="84.735" xlink:href="#md3b4bf7565" y="124.721051"/>
      </g>
     </g>
     <g id="text_14">
      <!-- 3000000 -->
      <g transform="translate(26.924375 129.256676)scale(0.12 -0.12)">
       <use xlink:href="#Georgia-33"/>
       <use x="55.175781" xlink:href="#Georgia-30"/>
       <use x="116.552734" xlink:href="#Georgia-30"/>
       <use x="177.929688" xlink:href="#Georgia-30"/>
       <use x="239.306641" xlink:href="#Georgia-30"/>
       <use x="300.683594" xlink:href="#Georgia-30"/>
       <use x="362.060547" xlink:href="#Georgia-30"/>
      </g>
     </g>
    </g>
    <g id="ytick_5">
     <g id="line2d_14">
      <g>
       <use style="stroke:#000000;stroke-width:0.8;" x="84.735" xlink:href="#md3b4bf7565" y="88.173656"/>
      </g>
     </g>
     <g id="text_15">
      <!-- 4000000 -->
      <g transform="translate(26.765 92.709281)scale(0.12 -0.12)">
       <use xlink:href="#Georgia-34"/>
       <use x="56.494141" xlink:href="#Georgia-30"/>
       <use x="117.871094" xlink:href="#Georgia-30"/>
       <use x="179.248047" xlink:href="#Georgia-30"/>
       <use x="240.625" xlink:href="#Georgia-30"/>
       <use x="302.001953" xlink:href="#Georgia-30"/>
       <use x="363.378906" xlink:href="#Georgia-30"/>
      </g>
     </g>
    </g>
    <g id="ytick_6">
     <g id="line2d_15">
      <g>
       <use style="stroke:#000000;stroke-width:0.8;" x="84.735" xlink:href="#md3b4bf7565" y="51.62626"/>
      </g>
     </g>
     <g id="text_16">
      <!-- 5000000 -->
      <g transform="translate(27.205625 56.161885)scale(0.12 -0.12)">
       <use xlink:href="#Georgia-35"/>
       <use x="52.832031" xlink:href="#Georgia-30"/>
       <use x="114.208984" xlink:href="#Georgia-30"/>
       <use x="175.585938" xlink:href="#Georgia-30"/>
       <use x="236.962891" xlink:href="#Georgia-30"/>
       <use x="298.339844" xlink:href="#Georgia-30"/>
       <use x="359.716797" xlink:href="#Georgia-30"/>
      </g>
     </g>
    </g>
    <g id="text_17">
     <!-- Error -->
     <defs>
      <path d="M 63.03125 20.40625 
L 61.71875 0 
L 4.203125 0 
L 4.203125 3.46875 
Q 5.671875 3.5625 8.109375 3.875 
Q 10.546875 4.203125 11.28125 4.546875 
Q 12.84375 5.28125 13.453125 6.453125 
Q 14.0625 7.625 14.0625 9.421875 
L 14.0625 59.234375 
Q 14.0625 60.84375 13.515625 62.078125 
Q 12.984375 63.328125 11.28125 64.109375 
Q 9.96875 64.75 7.734375 65.234375 
Q 5.515625 65.71875 4.203125 65.828125 
L 4.203125 69.28125 
L 57.8125 69.28125 
L 57.8125 52.59375 
L 54.15625 52.59375 
Q 53.171875 56.296875 49.921875 60.46875 
Q 46.6875 64.65625 43.75 65.046875 
Q 42.234375 65.234375 40.125 65.328125 
Q 38.03125 65.4375 35.359375 65.4375 
L 24.46875 65.4375 
L 24.46875 37.890625 
L 32.28125 37.890625 
Q 36.03125 37.890625 37.765625 38.59375 
Q 39.5 39.3125 40.828125 40.96875 
Q 41.890625 42.390625 42.640625 44.75 
Q 43.40625 47.125 43.65625 49.21875 
L 47.3125 49.21875 
L 47.3125 22.125 
L 43.65625 22.125 
Q 43.453125 24.46875 42.59375 27.078125 
Q 41.75 29.6875 40.828125 30.859375 
Q 39.3125 32.765625 37.375 33.34375 
Q 35.453125 33.9375 32.28125 33.9375 
L 24.46875 33.9375 
L 24.46875 13.140625 
Q 24.46875 10.015625 24.90625 8.203125 
Q 25.34375 6.390625 26.609375 5.46875 
Q 27.875 4.546875 30.078125 4.265625 
Q 32.28125 4 36.328125 4 
Q 37.9375 4 40.578125 4 
Q 43.21875 4 45.015625 4.203125 
Q 46.875 4.390625 48.84375 4.90625 
Q 50.828125 5.421875 51.65625 6.296875 
Q 53.90625 8.640625 56.375 13.40625 
Q 58.84375 18.171875 59.515625 20.40625 
z
" id="Georgia-45"/>
     </defs>
     <g transform="translate(19.295 154.898125)rotate(-90)scale(0.16 -0.16)">
      <use xlink:href="#Georgia-45"/>
      <use x="65.332031" xlink:href="#Georgia-72"/>
      <use x="106.298828" xlink:href="#Georgia-72"/>
      <use x="147.265625" xlink:href="#Georgia-6f"/>
      <use x="201.171875" xlink:href="#Georgia-72"/>
     </g>
    </g>
   </g>
   <g id="line2d_16">
    <path clip-path="url(#p0b4be1a29b)" d="M 99.953182 36.690511 
L 100.341897 131.123494 
L 100.730611 144.427277 
L 101.508041 158.353867 
L 102.28547 166.515756 
L 103.0629 172.715447 
L 104.229044 180.219005 
L 105.395188 186.666928 
L 106.561332 191.682262 
L 107.727476 195.819294 
L 109.282335 200.184086 
L 111.225909 204.621986 
L 112.780768 207.490668 
L 114.724342 210.500464 
L 116.279201 212.550369 
L 118.222774 214.720628 
L 120.166348 216.566132 
L 122.498636 218.422625 
L 124.830925 219.991223 
L 127.551928 221.544681 
L 130.661646 223.026927 
L 134.160078 224.40773 
L 137.658511 225.552654 
L 141.934373 226.700095 
L 146.210235 227.653414 
L 152.040956 228.706452 
L 158.260392 229.622463 
L 166.034687 230.536367 
L 174.975125 231.368816 
L 186.247853 232.186104 
L 199.464154 232.914827 
L 215.012743 233.542435 
L 231.338762 233.970099 
L 249.997069 234.223036 
L 277.595815 234.346027 
L 352.617759 234.363239 
L 404.316818 234.363239 
L 404.316818 234.363239 
" style="fill:none;stroke:#000000;stroke-linecap:square;stroke-width:1.5;"/>
   </g>
   <g id="patch_3">
    <path d="M 84.735 244.246875 
L 84.735 26.806875 
" style="fill:none;stroke:#000000;stroke-linecap:square;stroke-linejoin:miter;stroke-width:0.8;"/>
   </g>
   <g id="patch_4">
    <path d="M 419.535 244.246875 
L 419.535 26.806875 
" style="fill:none;stroke:#000000;stroke-linecap:square;stroke-linejoin:miter;stroke-width:0.8;"/>
   </g>
   <g id="patch_5">
    <path d="M 84.735 244.246875 
L 419.535 244.246875 
" style="fill:none;stroke:#000000;stroke-linecap:square;stroke-linejoin:miter;stroke-width:0.8;"/>
   </g>
   <g id="patch_6">
    <path d="M 84.735 26.806875 
L 419.535 26.806875 
" style="fill:none;stroke:#000000;stroke-linecap:square;stroke-linejoin:miter;stroke-width:0.8;"/>
   </g>
   <g id="text_18">
    <!-- Mean reconstruction error -->
    <defs>
     <path d="M 88.1875 0 
L 57.5625 0 
L 57.5625 3.46875 
Q 59.234375 3.515625 61.84375 3.8125 
Q 64.453125 4.109375 65.4375 4.640625 
Q 66.9375 5.5625 67.640625 6.75 
Q 68.359375 7.953125 68.359375 9.765625 
L 68.359375 60.15625 
L 67.625 60.15625 
L 44 1.125 
L 41.546875 1.125 
L 19.046875 61.375 
L 18.40625 61.375 
L 18.40625 20.015625 
Q 18.40625 14.015625 19.15625 10.890625 
Q 19.921875 7.765625 21.484375 6.390625 
Q 22.5625 5.375 25.921875 4.4375 
Q 29.296875 3.515625 30.328125 3.46875 
L 30.328125 0 
L 2.34375 0 
L 2.34375 3.46875 
Q 4.546875 3.65625 6.953125 4.1875 
Q 9.375 4.734375 10.6875 5.8125 
Q 12.40625 7.171875 13.03125 10 
Q 13.671875 12.84375 13.671875 19.484375 
L 13.671875 54.9375 
Q 13.671875 58.015625 12.9375 59.96875 
Q 12.203125 61.921875 10.84375 63.140625 
Q 9.328125 64.453125 7.125 65.078125 
Q 4.9375 65.71875 2.78125 65.828125 
L 2.78125 69.28125 
L 26.421875 69.28125 
L 46.234375 17.328125 
L 63.1875 60.796875 
Q 64.109375 63.1875 64.765625 65.796875 
Q 65.4375 68.40625 65.484375 69.28125 
L 88.09375 69.28125 
L 88.09375 65.828125 
Q 86.71875 65.765625 84.59375 65.375 
Q 82.46875 64.984375 81.5 64.65625 
Q 79.828125 64.0625 79.234375 62.6875 
Q 78.65625 61.328125 78.65625 59.71875 
L 78.65625 9.765625 
Q 78.65625 8.0625 79.234375 6.890625 
Q 79.828125 5.71875 81.5 4.828125 
Q 82.375 4.34375 84.609375 3.921875 
Q 86.859375 3.515625 88.1875 3.46875 
z
" id="Georgia-4d"/>
     <path d="M 55.125 0.875 
L 39.453125 -0.203125 
L 38.71875 0.484375 
L 38.71875 6.59375 
L 38.421875 6.59375 
Q 37.25 5.375 35.78125 3.984375 
Q 34.328125 2.59375 32.421875 1.46875 
Q 30.21875 0.140625 28.171875 -0.53125 
Q 26.125 -1.21875 22.359375 -1.21875 
Q 15.96875 -1.21875 12.625 2.953125 
Q 9.28125 7.125 9.28125 15.09375 
L 9.28125 38.140625 
Q 9.28125 39.890625 8.609375 41.078125 
Q 7.953125 42.28125 6.6875 43.171875 
Q 5.8125 43.75 4.484375 44.015625 
Q 3.171875 44.28125 1.703125 44.390625 
L 1.703125 47.5625 
L 17.78125 48.734375 
L 18.5 48.046875 
L 18.5 14.59375 
Q 18.5 9.375 20.84375 6.734375 
Q 23.1875 4.109375 26.46875 4.109375 
Q 29.15625 4.109375 31.25 4.9375 
Q 33.34375 5.765625 34.765625 6.890625 
Q 36.078125 7.90625 37.078125 9.046875 
Q 38.09375 10.203125 38.625 11.1875 
L 38.625 38.484375 
Q 38.625 40.09375 37.9375 41.328125 
Q 37.25 42.578125 36.03125 43.453125 
Q 35.15625 44.046875 33.421875 44.15625 
Q 31.6875 44.28125 29.546875 44.390625 
L 29.546875 47.5625 
L 47.015625 48.734375 
L 47.75 48.046875 
L 47.75 9.8125 
Q 47.75 8.15625 48.4375 6.984375 
Q 49.125 5.8125 50.34375 4.984375 
Q 51.21875 4.4375 52.4375 4.265625 
Q 53.65625 4.109375 55.125 4.046875 
z
" id="Georgia-75"/>
    </defs>
    <g transform="translate(146.829375 20.806875)scale(0.18 -0.18)">
     <use xlink:href="#Georgia-4d"/>
     <use x="92.724609" xlink:href="#Georgia-65"/>
     <use x="141.064453" xlink:href="#Georgia-61"/>
     <use x="191.455078" xlink:href="#Georgia-6e"/>
     <use x="250.537109" xlink:href="#Georgia-20"/>
     <use x="274.658203" xlink:href="#Georgia-72"/>
     <use x="315.625" xlink:href="#Georgia-65"/>
     <use x="363.964844" xlink:href="#Georgia-63"/>
     <use x="409.375" xlink:href="#Georgia-6f"/>
     <use x="463.28125" xlink:href="#Georgia-6e"/>
     <use x="522.363281" xlink:href="#Georgia-73"/>
     <use x="565.576172" xlink:href="#Georgia-74"/>
     <use x="600.097656" xlink:href="#Georgia-72"/>
     <use x="641.064453" xlink:href="#Georgia-75"/>
     <use x="698.583984" xlink:href="#Georgia-63"/>
     <use x="743.994141" xlink:href="#Georgia-74"/>
     <use x="778.515625" xlink:href="#Georgia-69"/>
     <use x="807.8125" xlink:href="#Georgia-6f"/>
     <use x="861.71875" xlink:href="#Georgia-6e"/>
     <use x="920.800781" xlink:href="#Georgia-20"/>
     <use x="944.921875" xlink:href="#Georgia-65"/>
     <use x="993.261719" xlink:href="#Georgia-72"/>
     <use x="1034.228516" xlink:href="#Georgia-72"/>
     <use x="1075.195312" xlink:href="#Georgia-6f"/>
     <use x="1129.101562" xlink:href="#Georgia-72"/>
    </g>
   </g>
  </g>
 </g>
 <defs>
  <clipPath id="p0b4be1a29b">
   <rect height="217.44" width="334.8" x="84.735" y="26.806875"/>
  </clipPath>
 </defs>
</svg>
