<?xml version="1.0" encoding="utf-8" standalone="no"?>
<!DOCTYPE svg PUBLIC "-//W3C//DTD SVG 1.1//EN"
  "http://www.w3.org/Graphics/SVG/1.1/DTD/svg11.dtd">
<!-- Created with matplotlib (http://matplotlib.org/) -->
<svg height="344pt" version="1.1" viewBox="0 0 337 344" width="337pt" xmlns="http://www.w3.org/2000/svg" xmlns:xlink="http://www.w3.org/1999/xlink">
 <defs>
  <style type="text/css">
*{stroke-linecap:butt;stroke-linejoin:round;}
  </style>
 </defs>
 <g id="figure_1">
  <g id="patch_1">
   <path d="M 0 344.045625 
L 337.885625 344.045625 
L 337.885625 0 
L 0 0 
z
" style="fill:none;"/>
  </g>
  <g id="axes_1">
   <g id="patch_2">
    <path d="M 48.185625 298.606875 
L 327.185625 298.606875 
L 327.185625 26.806875 
L 48.185625 26.806875 
z
" style="fill:#ffffff;"/>
   </g>
   <g id="PathCollection_1">
    <defs>
     <path d="M -3 3 
L 3 -3 
M -3 -3 
L 3 3 
" id="m4b6e048d90" style="stroke:#ff0000;stroke-width:1.5;"/>
    </defs>
    <g clip-path="url(#pcd8c0644ab)">
     <use style="fill:#ff0000;stroke:#ff0000;stroke-width:1.5;" x="94.386959" xlink:href="#m4b6e048d90" y="255.82524"/>
     <use style="fill:#ff0000;stroke:#ff0000;stroke-width:1.5;" x="129.745587" xlink:href="#m4b6e048d90" y="212.027784"/>
     <use style="fill:#ff0000;stroke:#ff0000;stroke-width:1.5;" x="92.624663" xlink:href="#m4b6e048d90" y="264.433511"/>
     <use style="fill:#ff0000;stroke:#ff0000;stroke-width:1.5;" x="137.316167" xlink:href="#m4b6e048d90" y="216.575544"/>
     <use style="fill:#ff0000;stroke:#ff0000;stroke-width:1.5;" x="189.610928" xlink:href="#m4b6e048d90" y="162.597033"/>
     <use style="fill:#ff0000;stroke:#ff0000;stroke-width:1.5;" x="174.332664" xlink:href="#m4b6e048d90" y="172.330839"/>
     <use style="fill:#ff0000;stroke:#ff0000;stroke-width:1.5;" x="146.262508" xlink:href="#m4b6e048d90" y="206.457101"/>
     <use style="fill:#ff0000;stroke:#ff0000;stroke-width:1.5;" x="161.900383" xlink:href="#m4b6e048d90" y="190.096055"/>
     <use style="fill:#ff0000;stroke:#ff0000;stroke-width:1.5;" x="109.704268" xlink:href="#m4b6e048d90" y="243.862482"/>
     <use style="fill:#ff0000;stroke:#ff0000;stroke-width:1.5;" x="171.605579" xlink:href="#m4b6e048d90" y="186.53559"/>
     <use style="fill:#ff0000;stroke:#ff0000;stroke-width:1.5;" x="313.954619" xlink:href="#m4b6e048d90" y="39.713032"/>
     <use style="fill:#ff0000;stroke:#ff0000;stroke-width:1.5;" x="143.194099" xlink:href="#m4b6e048d90" y="213.776651"/>
     <use style="fill:#ff0000;stroke:#ff0000;stroke-width:1.5;" x="73.326721" xlink:href="#m4b6e048d90" y="285.700718"/>
     <use style="fill:#ff0000;stroke:#ff0000;stroke-width:1.5;" x="183.538073" xlink:href="#m4b6e048d90" y="171.526761"/>
     <use style="fill:#ff0000;stroke:#ff0000;stroke-width:1.5;" x="103.453895" xlink:href="#m4b6e048d90" y="241.609856"/>
     <use style="fill:#ff0000;stroke:#ff0000;stroke-width:1.5;" x="176.524542" xlink:href="#m4b6e048d90" y="175.564077"/>
     <use style="fill:#ff0000;stroke:#ff0000;stroke-width:1.5;" x="235.739123" xlink:href="#m4b6e048d90" y="129.412146"/>
     <use style="fill:#ff0000;stroke:#ff0000;stroke-width:1.5;" x="202.742164" xlink:href="#m4b6e048d90" y="151.018844"/>
     <use style="fill:#ff0000;stroke:#ff0000;stroke-width:1.5;" x="119.565809" xlink:href="#m4b6e048d90" y="227.17871"/>
     <use style="fill:#ff0000;stroke:#ff0000;stroke-width:1.5;" x="205.924" xlink:href="#m4b6e048d90" y="150.197598"/>
     <use style="fill:#ff0000;stroke:#ff0000;stroke-width:1.5;" x="242.507882" xlink:href="#m4b6e048d90" y="119.98641"/>
     <use style="fill:#ff0000;stroke:#ff0000;stroke-width:1.5;" x="267.450358" xlink:href="#m4b6e048d90" y="78.734468"/>
     <use style="fill:#ff0000;stroke:#ff0000;stroke-width:1.5;" x="212.510614" xlink:href="#m4b6e048d90" y="144.431173"/>
     <use style="fill:#ff0000;stroke:#ff0000;stroke-width:1.5;" x="247.314579" xlink:href="#m4b6e048d90" y="104.30081"/>
     <use style="fill:#ff0000;stroke:#ff0000;stroke-width:1.5;" x="268.263412" xlink:href="#m4b6e048d90" y="88.751297"/>
     <use style="fill:#ff0000;stroke:#ff0000;stroke-width:1.5;" x="230.084475" xlink:href="#m4b6e048d90" y="123.112357"/>
     <use style="fill:#ff0000;stroke:#ff0000;stroke-width:1.5;" x="214.465715" xlink:href="#m4b6e048d90" y="146.22913"/>
     <use style="fill:#ff0000;stroke:#ff0000;stroke-width:1.5;" x="185.737978" xlink:href="#m4b6e048d90" y="166.298065"/>
     <use style="fill:#ff0000;stroke:#ff0000;stroke-width:1.5;" x="181.228713" xlink:href="#m4b6e048d90" y="171.339349"/>
     <use style="fill:#ff0000;stroke:#ff0000;stroke-width:1.5;" x="218.677721" xlink:href="#m4b6e048d90" y="138.020213"/>
     <use style="fill:#ff0000;stroke:#ff0000;stroke-width:1.5;" x="220.61504" xlink:href="#m4b6e048d90" y="136.108627"/>
     <use style="fill:#ff0000;stroke:#ff0000;stroke-width:1.5;" x="231.28176" xlink:href="#m4b6e048d90" y="132.501686"/>
     <use style="fill:#ff0000;stroke:#ff0000;stroke-width:1.5;" x="177.36965" xlink:href="#m4b6e048d90" y="178.634994"/>
     <use style="fill:#ff0000;stroke:#ff0000;stroke-width:1.5;" x="267.369812" xlink:href="#m4b6e048d90" y="86.249684"/>
     <use style="fill:#ff0000;stroke:#ff0000;stroke-width:1.5;" x="231.543411" xlink:href="#m4b6e048d90" y="123.358781"/>
     <use style="fill:#ff0000;stroke:#ff0000;stroke-width:1.5;" x="147.87349" xlink:href="#m4b6e048d90" y="204.844244"/>
     <use style="fill:#ff0000;stroke:#ff0000;stroke-width:1.5;" x="130.426114" xlink:href="#m4b6e048d90" y="228.732164"/>
     <use style="fill:#ff0000;stroke:#ff0000;stroke-width:1.5;" x="166.619353" xlink:href="#m4b6e048d90" y="190.568557"/>
     <use style="fill:#ff0000;stroke:#ff0000;stroke-width:1.5;" x="231.292338" xlink:href="#m4b6e048d90" y="126.756919"/>
     <use style="fill:#ff0000;stroke:#ff0000;stroke-width:1.5;" x="201.143279" xlink:href="#m4b6e048d90" y="153.08402"/>
     <use style="fill:#ff0000;stroke:#ff0000;stroke-width:1.5;" x="242.528762" xlink:href="#m4b6e048d90" y="108.367315"/>
     <use style="fill:#ff0000;stroke:#ff0000;stroke-width:1.5;" x="165.563647" xlink:href="#m4b6e048d90" y="195.856687"/>
     <use style="fill:#ff0000;stroke:#ff0000;stroke-width:1.5;" x="104.636005" xlink:href="#m4b6e048d90" y="238.321539"/>
     <use style="fill:#ff0000;stroke:#ff0000;stroke-width:1.5;" x="125.723447" xlink:href="#m4b6e048d90" y="228.061714"/>
     <use style="fill:#ff0000;stroke:#ff0000;stroke-width:1.5;" x="237.321186" xlink:href="#m4b6e048d90" y="112.695136"/>
     <use style="fill:#ff0000;stroke:#ff0000;stroke-width:1.5;" x="202.838739" xlink:href="#m4b6e048d90" y="145.596419"/>
     <use style="fill:#ff0000;stroke:#ff0000;stroke-width:1.5;" x="172.275927" xlink:href="#m4b6e048d90" y="176.73037"/>
     <use style="fill:#ff0000;stroke:#ff0000;stroke-width:1.5;" x="165.411368" xlink:href="#m4b6e048d90" y="184.796978"/>
     <use style="fill:#ff0000;stroke:#ff0000;stroke-width:1.5;" x="180.297993" xlink:href="#m4b6e048d90" y="164.836612"/>
     <use style="fill:#ff0000;stroke:#ff0000;stroke-width:1.5;" x="177.893794" xlink:href="#m4b6e048d90" y="174.105196"/>
     <use style="fill:#ff0000;stroke:#ff0000;stroke-width:1.5;" x="92.775377" xlink:href="#m4b6e048d90" y="266.137558"/>
     <use style="fill:#ff0000;stroke:#ff0000;stroke-width:1.5;" x="247.726863" xlink:href="#m4b6e048d90" y="102.938321"/>
     <use style="fill:#ff0000;stroke:#ff0000;stroke-width:1.5;" x="240.272488" xlink:href="#m4b6e048d90" y="105.363588"/>
     <use style="fill:#ff0000;stroke:#ff0000;stroke-width:1.5;" x="208.401975" xlink:href="#m4b6e048d90" y="149.99761"/>
     <use style="fill:#ff0000;stroke:#ff0000;stroke-width:1.5;" x="83.522965" xlink:href="#m4b6e048d90" y="261.056386"/>
     <use style="fill:#ff0000;stroke:#ff0000;stroke-width:1.5;" x="87.815127" xlink:href="#m4b6e048d90" y="259.727509"/>
     <use style="fill:#ff0000;stroke:#ff0000;stroke-width:1.5;" x="224.44809" xlink:href="#m4b6e048d90" y="121.015358"/>
     <use style="fill:#ff0000;stroke:#ff0000;stroke-width:1.5;" x="197.015988" xlink:href="#m4b6e048d90" y="153.392879"/>
     <use style="fill:#ff0000;stroke:#ff0000;stroke-width:1.5;" x="137.470185" xlink:href="#m4b6e048d90" y="216.443095"/>
     <use style="fill:#ff0000;stroke:#ff0000;stroke-width:1.5;" x="151.714605" xlink:href="#m4b6e048d90" y="197.121519"/>
     <use style="fill:#ff0000;stroke:#ff0000;stroke-width:1.5;" x="169.0001" xlink:href="#m4b6e048d90" y="190.310972"/>
     <use style="fill:#ff0000;stroke:#ff0000;stroke-width:1.5;" x="166.793693" xlink:href="#m4b6e048d90" y="180.346803"/>
     <use style="fill:#ff0000;stroke:#ff0000;stroke-width:1.5;" x="221.206679" xlink:href="#m4b6e048d90" y="134.480623"/>
     <use style="fill:#ff0000;stroke:#ff0000;stroke-width:1.5;" x="202.869163" xlink:href="#m4b6e048d90" y="142.434057"/>
     <use style="fill:#ff0000;stroke:#ff0000;stroke-width:1.5;" x="150.05952" xlink:href="#m4b6e048d90" y="201.313501"/>
     <use style="fill:#ff0000;stroke:#ff0000;stroke-width:1.5;" x="223.291017" xlink:href="#m4b6e048d90" y="128.998342"/>
     <use style="fill:#ff0000;stroke:#ff0000;stroke-width:1.5;" x="219.711057" xlink:href="#m4b6e048d90" y="135.037188"/>
     <use style="fill:#ff0000;stroke:#ff0000;stroke-width:1.5;" x="216.101696" xlink:href="#m4b6e048d90" y="135.347454"/>
     <use style="fill:#ff0000;stroke:#ff0000;stroke-width:1.5;" x="156.513918" xlink:href="#m4b6e048d90" y="198.075243"/>
     <use style="fill:#ff0000;stroke:#ff0000;stroke-width:1.5;" x="167.985063" xlink:href="#m4b6e048d90" y="191.272498"/>
     <use style="fill:#ff0000;stroke:#ff0000;stroke-width:1.5;" x="260.342093" xlink:href="#m4b6e048d90" y="93.243157"/>
     <use style="fill:#ff0000;stroke:#ff0000;stroke-width:1.5;" x="175.270416" xlink:href="#m4b6e048d90" y="175.507502"/>
     <use style="fill:#ff0000;stroke:#ff0000;stroke-width:1.5;" x="61.416631" xlink:href="#m4b6e048d90" y="285.366181"/>
     <use style="fill:#ff0000;stroke:#ff0000;stroke-width:1.5;" x="229.105289" xlink:href="#m4b6e048d90" y="120.421664"/>
     <use style="fill:#ff0000;stroke:#ff0000;stroke-width:1.5;" x="253.698219" xlink:href="#m4b6e048d90" y="104.246867"/>
     <use style="fill:#ff0000;stroke:#ff0000;stroke-width:1.5;" x="184.499867" xlink:href="#m4b6e048d90" y="161.087571"/>
     <use style="fill:#ff0000;stroke:#ff0000;stroke-width:1.5;" x="225.495117" xlink:href="#m4b6e048d90" y="133.666813"/>
     <use style="fill:#ff0000;stroke:#ff0000;stroke-width:1.5;" x="192.11069" xlink:href="#m4b6e048d90" y="165.518843"/>
     <use style="fill:#ff0000;stroke:#ff0000;stroke-width:1.5;" x="130.681695" xlink:href="#m4b6e048d90" y="227.707979"/>
     <use style="fill:#ff0000;stroke:#ff0000;stroke-width:1.5;" x="245.045368" xlink:href="#m4b6e048d90" y="112.594859"/>
     <use style="fill:#ff0000;stroke:#ff0000;stroke-width:1.5;" x="205.87167" xlink:href="#m4b6e048d90" y="139.094974"/>
     <use style="fill:#ff0000;stroke:#ff0000;stroke-width:1.5;" x="136.740116" xlink:href="#m4b6e048d90" y="215.945237"/>
     <use style="fill:#ff0000;stroke:#ff0000;stroke-width:1.5;" x="245.748163" xlink:href="#m4b6e048d90" y="105.499335"/>
     <use style="fill:#ff0000;stroke:#ff0000;stroke-width:1.5;" x="240.360736" xlink:href="#m4b6e048d90" y="122.710845"/>
     <use style="fill:#ff0000;stroke:#ff0000;stroke-width:1.5;" x="123.982725" xlink:href="#m4b6e048d90" y="227.281852"/>
     <use style="fill:#ff0000;stroke:#ff0000;stroke-width:1.5;" x="137.606719" xlink:href="#m4b6e048d90" y="213.941943"/>
     <use style="fill:#ff0000;stroke:#ff0000;stroke-width:1.5;" x="143.349319" xlink:href="#m4b6e048d90" y="213.16929"/>
     <use style="fill:#ff0000;stroke:#ff0000;stroke-width:1.5;" x="236.410975" xlink:href="#m4b6e048d90" y="115.449164"/>
     <use style="fill:#ff0000;stroke:#ff0000;stroke-width:1.5;" x="228.13756" xlink:href="#m4b6e048d90" y="130.397084"/>
     <use style="fill:#ff0000;stroke:#ff0000;stroke-width:1.5;" x="208.586578" xlink:href="#m4b6e048d90" y="145.994139"/>
     <use style="fill:#ff0000;stroke:#ff0000;stroke-width:1.5;" x="206.962917" xlink:href="#m4b6e048d90" y="154.541699"/>
     <use style="fill:#ff0000;stroke:#ff0000;stroke-width:1.5;" x="223.903549" xlink:href="#m4b6e048d90" y="142.205628"/>
     <use style="fill:#ff0000;stroke:#ff0000;stroke-width:1.5;" x="157.592006" xlink:href="#m4b6e048d90" y="203.985797"/>
     <use style="fill:#ff0000;stroke:#ff0000;stroke-width:1.5;" x="241.596273" xlink:href="#m4b6e048d90" y="113.521024"/>
     <use style="fill:#ff0000;stroke:#ff0000;stroke-width:1.5;" x="219.179348" xlink:href="#m4b6e048d90" y="128.00516"/>
     <use style="fill:#ff0000;stroke:#ff0000;stroke-width:1.5;" x="250.661665" xlink:href="#m4b6e048d90" y="103.576683"/>
     <use style="fill:#ff0000;stroke:#ff0000;stroke-width:1.5;" x="190.381056" xlink:href="#m4b6e048d90" y="169.733147"/>
     <use style="fill:#ff0000;stroke:#ff0000;stroke-width:1.5;" x="159.13965" xlink:href="#m4b6e048d90" y="195.322307"/>
     <use style="fill:#ff0000;stroke:#ff0000;stroke-width:1.5;" x="143.921722" xlink:href="#m4b6e048d90" y="205.240081"/>
     <use style="fill:#ff0000;stroke:#ff0000;stroke-width:1.5;" x="71.63313" xlink:href="#m4b6e048d90" y="273.410101"/>
    </g>
   </g>
   <g id="patch_3">
    <path clip-path="url(#pcd8c0644ab)" d="M 141.206222 212.116411 
L 146.610511 201.50855 
L 148.418428 203.273353 
L 184.490268 167.892655 
L 186.298185 169.657458 
L 150.226345 205.038156 
L 152.034262 206.802959 
z
" style="stroke:#000000;stroke-linejoin:miter;"/>
   </g>
   <g id="patch_4">
    <path clip-path="url(#pcd8c0644ab)" d="M 141.10026 125.537385 
L 151.941274 130.825446 
L 150.137682 132.594481 
L 186.296023 167.890539 
L 184.492431 169.659574 
L 148.33409 134.363515 
L 146.530498 136.13255 
z
" style="stroke:#000000;stroke-linejoin:miter;"/>
   </g>
   <g id="matplotlib.axis_1">
    <g id="xtick_1">
     <g id="line2d_1">
      <defs>
       <path d="M 0 0 
L 0 3.5 
" id="m3adf265a22" style="stroke:#000000;stroke-width:0.8;"/>
      </defs>
      <g>
       <use style="stroke:#000000;stroke-width:0.8;" x="83.245252" xlink:href="#m3adf265a22" y="298.606875"/>
      </g>
     </g>
     <g id="text_1">
      <!-- −2 -->
      <defs>
       <path d="M 57.03125 24.265625 
L 7.28125 24.265625 
L 7.28125 30.375 
L 57.03125 30.375 
z
" id="Georgia-2212"/>
       <path d="M 51.125 0 
L 5.375 0 
L 5.375 6.640625 
Q 6.6875 8.15625 9.03125 10.03125 
Q 11.375 11.921875 14.59375 14.109375 
Q 16.546875 15.4375 19.28125 17 
Q 22.015625 18.5625 25.484375 20.40625 
Q 29.34375 22.46875 31.421875 24.03125 
Q 33.5 25.59375 35.203125 27.875 
Q 36.328125 29.390625 37.015625 31.65625 
Q 37.703125 33.9375 37.703125 38.140625 
Q 37.703125 44.234375 34.421875 47.09375 
Q 31.15625 49.953125 26.03125 49.953125 
Q 22.859375 49.953125 20.015625 48.703125 
Q 17.1875 47.46875 15.765625 45.265625 
Q 16.109375 43.703125 16.625 41.546875 
Q 17.140625 39.40625 17.140625 37.359375 
Q 17.140625 35.5 15.59375 34.0625 
Q 14.0625 32.625 11.03125 32.625 
Q 8.59375 32.625 7.265625 34.296875 
Q 5.953125 35.984375 5.953125 38.8125 
Q 5.953125 41.453125 7.421875 44.109375 
Q 8.890625 46.78125 11.625 49.03125 
Q 14.3125 51.21875 18.265625 52.578125 
Q 22.21875 53.953125 26.8125 53.953125 
Q 36.8125 53.953125 42.6875 49.484375 
Q 48.578125 45.015625 48.578125 37.546875 
Q 48.578125 33.984375 47.53125 31.046875 
Q 46.484375 28.125 44.140625 25.875 
Q 41.546875 23.390625 38.078125 21.609375 
Q 34.625 19.828125 27.484375 16.65625 
Q 23.25 14.75 19.578125 12.671875 
Q 15.921875 10.59375 13.578125 8.640625 
L 51.125 8.640625 
z
" id="Georgia-32"/>
      </defs>
      <g transform="translate(76.034939 314.678125)scale(0.12 -0.12)">
       <use xlink:href="#Georgia-2212"/>
       <use x="64.306641" xlink:href="#Georgia-32"/>
      </g>
     </g>
    </g>
    <g id="xtick_2">
     <g id="line2d_2">
      <g>
       <use style="stroke:#000000;stroke-width:0.8;" x="134.319739" xlink:href="#m3adf265a22" y="298.606875"/>
      </g>
     </g>
     <g id="text_2">
      <!-- −1 -->
      <defs>
       <path d="M 39.5 0 
L 6.59375 0 
L 6.59375 3.46875 
Q 8.0625 3.5625 11.15625 3.875 
Q 14.265625 4.203125 15.4375 4.546875 
Q 16.9375 5.03125 17.75 6.125 
Q 18.5625 7.234375 18.5625 9.421875 
L 18.5625 43.703125 
L 6.390625 43.703125 
L 6.390625 47.796875 
L 9.078125 47.796875 
Q 14.359375 47.796875 18.53125 49.75 
Q 22.703125 51.703125 24.515625 53.953125 
L 28.5625 53.953125 
Q 28.421875 50.78125 28.265625 46.53125 
Q 28.125 42.28125 28.125 38.921875 
L 28.125 9.96875 
Q 28.125 8.25 28.875 6.90625 
Q 29.640625 5.5625 31.0625 4.9375 
Q 32.328125 4.390625 35.203125 3.953125 
Q 38.09375 3.515625 39.5 3.46875 
z
" id="Georgia-31"/>
      </defs>
      <g transform="translate(127.882864 314.678125)scale(0.12 -0.12)">
       <use xlink:href="#Georgia-2212"/>
       <use x="64.306641" xlink:href="#Georgia-31"/>
      </g>
     </g>
    </g>
    <g id="xtick_3">
     <g id="line2d_3">
      <g>
       <use style="stroke:#000000;stroke-width:0.8;" x="185.394227" xlink:href="#m3adf265a22" y="298.606875"/>
      </g>
     </g>
     <g id="text_3">
      <!-- 0 -->
      <defs>
       <path d="M 50.140625 45.609375 
Q 53.265625 41.84375 54.796875 36.78125 
Q 56.34375 31.734375 56.34375 26.21875 
Q 56.34375 19.578125 54.4375 14.328125 
Q 52.546875 9.078125 49.21875 5.609375 
Q 45.796875 2.046875 41.109375 0.234375 
Q 36.421875 -1.5625 30.671875 -1.5625 
Q 24.359375 -1.5625 19.421875 0.53125 
Q 14.5 2.640625 11.421875 6.296875 
Q 8.203125 10.109375 6.609375 15.203125 
Q 5.03125 20.3125 5.03125 26.21875 
Q 5.03125 32.03125 6.5625 36.90625 
Q 8.109375 41.796875 11.375 45.75 
Q 14.5 49.5625 19.421875 51.75 
Q 24.359375 53.953125 30.71875 53.953125 
Q 37.40625 53.953125 42.1875 51.703125 
Q 46.96875 49.46875 50.140625 45.609375 
z
M 45.5625 26.21875 
Q 45.5625 37.84375 41.578125 44.234375 
Q 37.59375 50.640625 30.765625 50.640625 
Q 23.828125 50.640625 19.828125 44.234375 
Q 15.828125 37.84375 15.828125 26.21875 
Q 15.828125 15.1875 19.65625 8.46875 
Q 23.484375 1.765625 30.671875 1.765625 
Q 37.84375 1.765625 41.703125 8.46875 
Q 45.5625 15.1875 45.5625 26.21875 
z
" id="Georgia-30"/>
      </defs>
      <g transform="translate(181.711727 314.678125)scale(0.12 -0.12)">
       <use xlink:href="#Georgia-30"/>
      </g>
     </g>
    </g>
    <g id="xtick_4">
     <g id="line2d_4">
      <g>
       <use style="stroke:#000000;stroke-width:0.8;" x="236.468714" xlink:href="#m3adf265a22" y="298.606875"/>
      </g>
     </g>
     <g id="text_4">
      <!-- 1 -->
      <g transform="translate(233.890589 314.678125)scale(0.12 -0.12)">
       <use xlink:href="#Georgia-31"/>
      </g>
     </g>
    </g>
    <g id="xtick_5">
     <g id="line2d_5">
      <g>
       <use style="stroke:#000000;stroke-width:0.8;" x="287.543202" xlink:href="#m3adf265a22" y="298.606875"/>
      </g>
     </g>
     <g id="text_5">
      <!-- 2 -->
      <g transform="translate(284.191639 314.678125)scale(0.12 -0.12)">
       <use xlink:href="#Georgia-32"/>
      </g>
     </g>
    </g>
    <g id="text_6">
     <!-- $x_1$ -->
     <defs>
      <path d="M 24.296875 35.5 
L 25.5 29.796875 
Q 30.796875 37.90625 34.046875 41 
Q 37.296875 44.09375 40.59375 44.09375 
Q 42.40625 44.09375 43.546875 43.046875 
Q 44.703125 42 44.703125 40.390625 
Q 44.703125 38.796875 43.75 37.796875 
Q 42.796875 36.796875 41.296875 36.796875 
Q 40.40625 36.796875 38.90625 37.640625 
Q 37.40625 38.5 36.09375 38.5 
Q 33.203125 38.5 26.296875 26.40625 
Q 26.296875 25.09375 27.09375 21.90625 
L 30.296875 8.5 
Q 31.296875 4.40625 33.296875 4.40625 
Q 34.90625 4.40625 38 8.40625 
Q 38.296875 8.796875 38.6875 9.34375 
Q 39.09375 9.90625 39.390625 10.34375 
Q 39.703125 10.796875 40.09375 11.203125 
L 41.59375 10.296875 
Q 37.296875 3.59375 34.796875 1.25 
Q 32.296875 -1.09375 29.40625 -1.09375 
Q 27 -1.09375 25.703125 0.40625 
Q 24.40625 1.90625 23.5 5.703125 
L 20.59375 17.59375 
L 11.796875 5.703125 
Q 8.703125 1.5 6.75 0.203125 
Q 4.796875 -1.09375 2.296875 -1.09375 
Q 0 -1.09375 -1.34375 0 
Q -2.703125 1.09375 -2.703125 3.09375 
Q -2.703125 4.59375 -1.75 5.640625 
Q -0.796875 6.703125 0.703125 6.703125 
Q 1.90625 6.703125 3.90625 5.59375 
Q 5.40625 4.703125 6.5 4.703125 
Q 8.203125 4.703125 11.59375 9.59375 
L 19.796875 21.203125 
L 17 33.59375 
Q 16 38 15.140625 39.203125 
Q 14.296875 40.40625 12.40625 40.40625 
Q 11.203125 40.40625 8.5 39.703125 
L 6.703125 39.203125 
L 6.40625 40.796875 
L 7.5 41.203125 
Q 15.5 44.09375 19.203125 44.09375 
Q 21.09375 44.09375 22.1875 42.296875 
Q 23.296875 40.5 24.296875 35.5 
z
" id="STIXGeneral-Italic-78"/>
      <path d="M 39.40625 0 
L 11.796875 0 
L 11.796875 1.5 
Q 17.296875 1.796875 19.296875 3.546875 
Q 21.296875 5.296875 21.296875 9.5 
L 21.296875 54.40625 
Q 21.296875 59.296875 18.296875 59.296875 
Q 16.90625 59.296875 13.796875 58.09375 
L 11.09375 57.09375 
L 11.09375 58.5 
L 29 67.59375 
L 29.90625 67.296875 
L 29.90625 7.59375 
Q 29.90625 4.296875 31.90625 2.890625 
Q 33.90625 1.5 39.40625 1.5 
z
" id="STIXGeneral-Regular-31"/>
     </defs>
     <g transform="translate(180.965625 333.375625)scale(0.16 -0.16)">
      <use transform="translate(0 0.90625)" xlink:href="#STIXGeneral-Italic-78"/>
      <use transform="translate(44.399994 -12.321875)scale(0.7)" xlink:href="#STIXGeneral-Regular-31"/>
     </g>
    </g>
   </g>
   <g id="matplotlib.axis_2">
    <g id="ytick_1">
     <g id="line2d_6">
      <defs>
       <path d="M 0 0 
L -3.5 0 
" id="m8bbdd3de97" style="stroke:#000000;stroke-width:0.8;"/>
      </defs>
      <g>
       <use style="stroke:#000000;stroke-width:0.8;" x="48.185625" xlink:href="#m8bbdd3de97" y="268.727155"/>
      </g>
     </g>
     <g id="text_7">
      <!-- −2 -->
      <g transform="translate(26.765 273.26278)scale(0.12 -0.12)">
       <use xlink:href="#Georgia-2212"/>
       <use x="64.306641" xlink:href="#Georgia-32"/>
      </g>
     </g>
    </g>
    <g id="ytick_2">
     <g id="line2d_7">
      <g>
       <use style="stroke:#000000;stroke-width:0.8;" x="48.185625" xlink:href="#m8bbdd3de97" y="218.751106"/>
      </g>
     </g>
     <g id="text_8">
      <!-- −1 -->
      <g transform="translate(28.311875 223.286731)scale(0.12 -0.12)">
       <use xlink:href="#Georgia-2212"/>
       <use x="64.306641" xlink:href="#Georgia-31"/>
      </g>
     </g>
    </g>
    <g id="ytick_3">
     <g id="line2d_8">
      <g>
       <use style="stroke:#000000;stroke-width:0.8;" x="48.185625" xlink:href="#m8bbdd3de97" y="168.775056"/>
      </g>
     </g>
     <g id="text_9">
      <!-- 0 -->
      <g transform="translate(33.820625 173.310681)scale(0.12 -0.12)">
       <use xlink:href="#Georgia-30"/>
      </g>
     </g>
    </g>
    <g id="ytick_4">
     <g id="line2d_9">
      <g>
       <use style="stroke:#000000;stroke-width:0.8;" x="48.185625" xlink:href="#m8bbdd3de97" y="118.799007"/>
      </g>
     </g>
     <g id="text_10">
      <!-- 1 -->
      <g transform="translate(36.029375 123.334632)scale(0.12 -0.12)">
       <use xlink:href="#Georgia-31"/>
      </g>
     </g>
    </g>
    <g id="ytick_5">
     <g id="line2d_10">
      <g>
       <use style="stroke:#000000;stroke-width:0.8;" x="48.185625" xlink:href="#m8bbdd3de97" y="68.822957"/>
      </g>
     </g>
     <g id="text_11">
      <!-- 2 -->
      <g transform="translate(34.4825 73.358582)scale(0.12 -0.12)">
       <use xlink:href="#Georgia-32"/>
      </g>
     </g>
    </g>
    <g id="text_12">
     <!-- $x_2$ -->
     <defs>
      <path d="M 47.40625 13.703125 
L 42 0 
L 2.90625 0 
L 2.90625 1.203125 
L 20.703125 20.09375 
Q 27.703125 27.40625 30.703125 33.5 
Q 33.703125 39.59375 33.703125 46.09375 
Q 33.703125 52.796875 30 56.5 
Q 26.296875 60.203125 19.796875 60.203125 
Q 14.40625 60.203125 11.25 57.390625 
Q 8.09375 54.59375 5.09375 47.203125 
L 3 47.703125 
Q 4.703125 57 9.84375 62.296875 
Q 15 67.59375 23.796875 67.59375 
Q 32.09375 67.59375 37.1875 62.59375 
Q 42.296875 57.59375 42.296875 50 
Q 42.296875 38.703125 29.5 25.203125 
L 13 7.59375 
L 36.40625 7.59375 
Q 39.703125 7.59375 41.640625 8.890625 
Q 43.59375 10.203125 46 14.296875 
z
" id="STIXGeneral-Regular-32"/>
     </defs>
     <g transform="translate(19.295 169.426875)rotate(-90)scale(0.16 -0.16)">
      <use transform="translate(0 0.90625)" xlink:href="#STIXGeneral-Italic-78"/>
      <use transform="translate(44.399994 -12.321875)scale(0.7)" xlink:href="#STIXGeneral-Regular-32"/>
     </g>
    </g>
   </g>
   <g id="patch_5">
    <path d="M 48.185625 298.606875 
L 48.185625 26.806875 
" style="fill:none;stroke:#000000;stroke-linecap:square;stroke-linejoin:miter;stroke-width:0.8;"/>
   </g>
   <g id="patch_6">
    <path d="M 327.185625 298.606875 
L 327.185625 26.806875 
" style="fill:none;stroke:#000000;stroke-linecap:square;stroke-linejoin:miter;stroke-width:0.8;"/>
   </g>
   <g id="patch_7">
    <path d="M 48.185625 298.606875 
L 327.185625 298.606875 
" style="fill:none;stroke:#000000;stroke-linecap:square;stroke-linejoin:miter;stroke-width:0.8;"/>
   </g>
   <g id="patch_8">
    <path d="M 48.185625 26.806875 
L 327.185625 26.806875 
" style="fill:none;stroke:#000000;stroke-linecap:square;stroke-linejoin:miter;stroke-width:0.8;"/>
   </g>
   <g id="text_13">
    <!-- PCA on the $2$D dataset -->
    <defs>
     <path d="M 57.8125 52.203125 
Q 57.8125 46.78125 55.6875 42.59375 
Q 53.5625 38.421875 49.8125 35.6875 
Q 46.09375 32.953125 41.640625 31.6875 
Q 37.203125 30.421875 32.234375 30.421875 
L 24.46875 30.421875 
L 24.46875 9.421875 
Q 24.46875 7.71875 25.03125 6.421875 
Q 25.59375 5.125 27.34375 4.4375 
Q 28.21875 4.109375 30.4375 3.8125 
Q 32.671875 3.515625 34.515625 3.46875 
L 34.515625 0 
L 4.78125 0 
L 4.78125 3.46875 
Q 5.953125 3.5625 8.171875 3.796875 
Q 10.40625 4.046875 11.28125 4.4375 
Q 12.75 5.078125 13.40625 6.296875 
Q 14.0625 7.515625 14.0625 9.421875 
L 14.0625 59.421875 
Q 14.0625 61.140625 13.578125 62.5 
Q 13.09375 63.875 11.28125 64.546875 
Q 9.421875 65.1875 7.59375 65.453125 
Q 5.765625 65.71875 4.4375 65.828125 
L 4.4375 69.28125 
L 36.078125 69.28125 
Q 45.75 69.28125 51.78125 64.625 
Q 57.8125 59.96875 57.8125 52.203125 
z
M 42.96875 40.375 
Q 44.625 42.71875 45.15625 45.234375 
Q 45.703125 47.75 45.703125 49.75 
Q 45.703125 52.546875 45.046875 55.421875 
Q 44.390625 58.296875 42.78125 60.453125 
Q 41.0625 62.75 38.28125 64.015625 
Q 35.5 65.28125 31.34375 65.28125 
L 24.46875 65.28125 
L 24.46875 34.671875 
L 29.4375 34.671875 
Q 34.71875 34.671875 38.015625 36.296875 
Q 41.3125 37.9375 42.96875 40.375 
z
" id="Georgia-50"/>
     <path d="M 35.296875 -1.609375 
Q 29.109375 -1.609375 23.40625 0.828125 
Q 17.71875 3.265625 13.328125 7.859375 
Q 8.984375 12.453125 6.390625 19.0625 
Q 3.8125 25.6875 3.8125 33.984375 
Q 3.8125 42.28125 6.34375 49.046875 
Q 8.890625 55.8125 13.375 60.6875 
Q 17.828125 65.53125 23.875 68.15625 
Q 29.9375 70.796875 36.8125 70.796875 
Q 41.9375 70.796875 46.09375 69.53125 
Q 50.25 68.265625 54 65.96875 
L 56 69.28125 
L 59.90625 69.28125 
L 60.359375 44.578125 
L 56.34375 44.578125 
Q 55.5625 48.1875 54 52.40625 
Q 52.4375 56.640625 50.34375 59.578125 
Q 48 62.890625 44.765625 64.765625 
Q 41.546875 66.65625 37.40625 66.65625 
Q 32.671875 66.65625 28.59375 64.546875 
Q 24.515625 62.453125 21.53125 58.34375 
Q 18.703125 54.390625 17.09375 48.28125 
Q 15.484375 42.1875 15.484375 34.671875 
Q 15.484375 28.03125 17.15625 22.484375 
Q 18.84375 16.9375 21.96875 12.75 
Q 25.09375 8.59375 29.359375 6.25 
Q 33.640625 3.90625 38.921875 3.90625 
Q 42.875 3.90625 46.1875 5.140625 
Q 49.515625 6.390625 51.953125 8.453125 
Q 54.390625 10.59375 56.25 13.328125 
Q 58.109375 16.0625 59.28125 19.28125 
L 62.9375 17.53125 
Q 58.734375 7.234375 51.796875 2.8125 
Q 44.875 -1.609375 35.296875 -1.609375 
z
" id="Georgia-43"/>
     <path d="M 69.390625 0 
L 40.53125 0 
L 40.53125 3.46875 
Q 44.34375 3.71875 46.84375 4.4375 
Q 49.359375 5.171875 49.359375 6.25 
Q 49.359375 6.6875 49.265625 7.3125 
Q 49.171875 7.953125 48.96875 8.453125 
L 43.21875 23.96875 
L 18.953125 23.96875 
Q 17.578125 20.5625 16.71875 18.015625 
Q 15.875 15.484375 15.1875 13.328125 
Q 14.546875 11.234375 14.296875 9.90625 
Q 14.0625 8.59375 14.0625 7.765625 
Q 14.0625 5.8125 17.140625 4.734375 
Q 20.21875 3.65625 24.078125 3.46875 
L 24.078125 0 
L -2 0 
L -2 3.46875 
Q -0.734375 3.5625 1.171875 4.03125 
Q 3.078125 4.5 4.296875 5.28125 
Q 6.25 6.59375 7.328125 8.03125 
Q 8.40625 9.46875 9.421875 12.015625 
Q 14.65625 25.046875 20.953125 41.296875 
Q 27.25 57.5625 32.171875 70.265625 
L 36.078125 70.265625 
L 59.1875 10.5 
Q 59.90625 8.59375 60.828125 7.421875 
Q 61.765625 6.25 63.421875 5.125 
Q 64.546875 4.4375 66.359375 3.96875 
Q 68.171875 3.515625 69.390625 3.46875 
z
M 41.453125 28.328125 
L 30.953125 55.171875 
L 20.65625 28.328125 
z
" id="Georgia-41"/>
     <path id="Georgia-20"/>
     <path d="M 50.4375 24.5625 
Q 50.4375 19.484375 48.828125 14.578125 
Q 47.21875 9.671875 44.234375 6.25 
Q 40.875 2.34375 36.421875 0.4375 
Q 31.984375 -1.46875 26.46875 -1.46875 
Q 21.875 -1.46875 17.71875 0.265625 
Q 13.578125 2 10.359375 5.328125 
Q 7.171875 8.59375 5.296875 13.296875 
Q 3.421875 18.015625 3.421875 23.875 
Q 3.421875 35.15625 9.984375 42.328125 
Q 16.546875 49.515625 27.203125 49.515625 
Q 37.3125 49.515625 43.875 42.703125 
Q 50.4375 35.890625 50.4375 24.5625 
z
M 40.328125 24.46875 
Q 40.328125 28.125 39.59375 32.203125 
Q 38.875 36.28125 37.40625 39.109375 
Q 35.84375 42.140625 33.296875 43.96875 
Q 30.765625 45.796875 27.09375 45.796875 
Q 23.34375 45.796875 20.671875 43.9375 
Q 18.015625 42.09375 16.359375 38.875 
Q 14.796875 35.890625 14.15625 32.078125 
Q 13.53125 28.265625 13.53125 24.703125 
Q 13.53125 20.015625 14.28125 16.03125 
Q 15.046875 12.0625 16.703125 8.9375 
Q 18.359375 5.8125 20.875 4.03125 
Q 23.390625 2.25 27.09375 2.25 
Q 33.203125 2.25 36.765625 8.15625 
Q 40.328125 14.0625 40.328125 24.46875 
z
" id="Georgia-6f"/>
     <path d="M 56.6875 0 
L 33.109375 0 
L 33.109375 3.21875 
Q 34.234375 3.328125 35.578125 3.421875 
Q 36.921875 3.515625 37.796875 3.8125 
Q 39.15625 4.25 39.8125 5.34375 
Q 40.484375 6.453125 40.484375 8.203125 
L 40.484375 32.953125 
Q 40.484375 38.09375 38.0625 40.875 
Q 35.640625 43.65625 32.171875 43.65625 
Q 29.59375 43.65625 27.4375 42.84375 
Q 25.296875 42.046875 23.640625 40.875 
Q 22.015625 39.75 21.0625 38.453125 
Q 20.125 37.15625 19.671875 36.375 
L 19.671875 8.6875 
Q 19.671875 7.03125 20.359375 5.953125 
Q 21.046875 4.890625 22.40625 4.296875 
Q 23.4375 3.8125 24.625 3.5625 
Q 25.828125 3.328125 27.09375 3.21875 
L 27.09375 0 
L 3.515625 0 
L 3.515625 3.21875 
Q 4.640625 3.328125 5.828125 3.421875 
Q 7.03125 3.515625 7.90625 3.8125 
Q 9.28125 4.25 9.9375 5.34375 
Q 10.59375 6.453125 10.59375 8.203125 
L 10.59375 37.9375 
Q 10.59375 39.59375 9.890625 40.984375 
Q 9.1875 42.390625 7.90625 43.265625 
Q 6.984375 43.84375 5.703125 44.109375 
Q 4.4375 44.390625 2.984375 44.484375 
L 2.984375 47.65625 
L 19 48.734375 
L 19.671875 48.046875 
L 19.671875 41.265625 
L 19.921875 41.265625 
Q 21.09375 42.4375 22.84375 44.0625 
Q 24.609375 45.703125 26.171875 46.734375 
Q 27.984375 47.90625 30.46875 48.6875 
Q 32.953125 49.46875 36.078125 49.46875 
Q 43.015625 49.46875 46.359375 45.140625 
Q 49.703125 40.828125 49.703125 33.640625 
L 49.703125 8.59375 
Q 49.703125 6.890625 50.28125 5.828125 
Q 50.875 4.78125 52.296875 4.203125 
Q 53.46875 3.71875 54.3125 3.515625 
Q 55.171875 3.328125 56.6875 3.21875 
z
" id="Georgia-6e"/>
     <path d="M 33.25 2.09375 
Q 30.078125 0.78125 27.25 -0.125 
Q 24.421875 -1.03125 20.3125 -1.03125 
Q 14.265625 -1.03125 11.796875 2.015625 
Q 9.328125 5.078125 9.328125 10.640625 
L 9.328125 43.265625 
L 0.640625 43.265625 
L 0.640625 47.953125 
L 9.515625 47.953125 
L 9.515625 62.9375 
L 18.40625 62.9375 
L 18.40625 47.953125 
L 32.234375 47.953125 
L 32.234375 43.265625 
L 18.5 43.265625 
L 18.5 16.359375 
Q 18.5 13.328125 18.71875 11.296875 
Q 18.953125 9.28125 19.78125 7.765625 
Q 20.5625 6.34375 22.125 5.609375 
Q 23.6875 4.890625 26.3125 4.890625 
Q 27.546875 4.890625 29.90625 5.109375 
Q 32.28125 5.328125 33.25 5.671875 
z
" id="Georgia-74"/>
     <path d="M 55.8125 0 
L 32.171875 0 
L 32.171875 3.21875 
Q 33.296875 3.328125 34.65625 3.421875 
Q 36.03125 3.515625 36.921875 3.8125 
Q 38.28125 4.25 38.9375 5.34375 
Q 39.59375 6.453125 39.59375 8.203125 
L 39.59375 32.953125 
Q 39.59375 38.09375 37.171875 40.875 
Q 34.765625 43.65625 31.296875 43.65625 
Q 28.765625 43.65625 26.59375 42.84375 
Q 24.421875 42.046875 22.703125 40.875 
Q 21.046875 39.65625 20.15625 38.421875 
Q 19.28125 37.203125 18.796875 36.375 
L 18.796875 8.6875 
Q 18.796875 7.03125 19.453125 5.953125 
Q 20.125 4.890625 21.484375 4.296875 
Q 22.5625 3.8125 23.703125 3.5625 
Q 24.859375 3.328125 26.21875 3.21875 
L 26.21875 0 
L 2.59375 0 
L 2.59375 3.21875 
Q 3.71875 3.328125 4.9375 3.4375 
Q 6.15625 3.5625 6.984375 3.8125 
Q 8.34375 4.25 9.03125 5.34375 
Q 9.71875 6.453125 9.71875 8.203125 
L 9.71875 64.265625 
Q 9.71875 65.921875 8.953125 67.578125 
Q 8.203125 69.234375 6.984375 70.0625 
Q 6.109375 70.703125 3.875 70.96875 
Q 1.65625 71.234375 0.296875 71.34375 
L 0.296875 74.46875 
L 18.109375 75.59375 
L 18.796875 74.859375 
L 18.796875 41.265625 
L 19 41.265625 
Q 20.609375 42.875 21.921875 44.109375 
Q 23.25 45.359375 25.390625 46.734375 
Q 27.25 47.90625 29.765625 48.6875 
Q 32.28125 49.46875 35.40625 49.46875 
Q 41.84375 49.46875 45.3125 45.390625 
Q 48.78125 41.3125 48.78125 33.640625 
L 48.78125 8.59375 
Q 48.78125 6.890625 49.390625 5.828125 
Q 50 4.78125 51.421875 4.203125 
Q 52.546875 3.765625 53.4375 3.546875 
Q 54.34375 3.328125 55.8125 3.21875 
z
" id="Georgia-68"/>
     <path d="M 46.296875 11.328125 
Q 43.265625 5.5625 38.1875 2.140625 
Q 33.109375 -1.265625 26.515625 -1.265625 
Q 20.703125 -1.265625 16.328125 0.78125 
Q 11.96875 2.828125 9.125 6.34375 
Q 6.296875 9.859375 4.90625 14.546875 
Q 3.515625 19.234375 3.515625 24.46875 
Q 3.515625 29.15625 5 33.671875 
Q 6.5 38.1875 9.375 41.796875 
Q 12.15625 45.265625 16.28125 47.390625 
Q 20.40625 49.515625 25.53125 49.515625 
Q 30.8125 49.515625 34.5625 47.84375 
Q 38.328125 46.1875 40.671875 43.3125 
Q 42.921875 40.578125 44.015625 36.859375 
Q 45.125 33.15625 45.125 28.8125 
L 45.125 25.59375 
L 13.234375 25.59375 
Q 13.234375 20.84375 14.140625 16.984375 
Q 15.046875 13.140625 17 10.203125 
Q 18.890625 7.375 21.96875 5.734375 
Q 25.046875 4.109375 29.296875 4.109375 
Q 33.640625 4.109375 36.78125 6.125 
Q 39.9375 8.15625 42.875 13.421875 
z
M 35.5 29.6875 
Q 35.5 32.421875 35.03125 35.546875 
Q 34.578125 38.671875 33.546875 40.765625 
Q 32.421875 43.015625 30.46875 44.421875 
Q 28.515625 45.84375 25.4375 45.84375 
Q 20.3125 45.84375 16.921875 41.578125 
Q 13.53125 37.3125 13.234375 29.6875 
z
" id="Georgia-65"/>
     <path d="M 71.140625 34.234375 
Q 71.140625 25.390625 67.8125 18.890625 
Q 64.5 12.40625 59.1875 8.25 
Q 53.8125 4.109375 47.125 2.046875 
Q 40.4375 0 33.296875 0 
L 4.59375 0 
L 4.59375 3.46875 
Q 6 3.46875 8.265625 3.734375 
Q 10.546875 4 11.28125 4.34375 
Q 12.75 4.984375 13.40625 6.21875 
Q 14.0625 7.46875 14.0625 9.234375 
L 14.0625 59.234375 
Q 14.0625 60.890625 13.5 62.203125 
Q 12.9375 63.53125 11.28125 64.3125 
Q 9.765625 65.046875 8 65.375 
Q 6.25 65.71875 4.984375 65.828125 
L 4.984375 69.28125 
L 35.25 69.28125 
Q 41.5 69.28125 47.546875 67.359375 
Q 53.609375 65.4375 58.109375 62.15625 
Q 64.203125 57.8125 67.671875 50.78125 
Q 71.140625 43.75 71.140625 34.234375 
z
M 59.1875 34.28125 
Q 59.1875 41.265625 57.328125 46.90625 
Q 55.46875 52.546875 51.90625 56.734375 
Q 48.53125 60.75 43.625 63.03125 
Q 38.71875 65.328125 32.71875 65.328125 
Q 30.71875 65.328125 28.203125 65.25 
Q 25.6875 65.1875 24.46875 65.140625 
L 24.46875 11.859375 
Q 24.46875 7.421875 27.046875 5.703125 
Q 29.640625 4 35.015625 4 
Q 41.21875 4 45.84375 6.203125 
Q 50.484375 8.40625 53.375 12.3125 
Q 56.390625 16.40625 57.78125 21.796875 
Q 59.1875 27.203125 59.1875 34.28125 
z
" id="Georgia-44"/>
     <path d="M 56.25 0.875 
L 39.453125 -0.203125 
L 38.71875 0.484375 
L 38.71875 4.984375 
L 38.328125 5.078125 
Q 35.796875 2.25 32.0625 0.4375 
Q 28.328125 -1.375 24.359375 -1.375 
Q 20.265625 -1.375 16.421875 0.453125 
Q 12.59375 2.296875 9.765625 5.609375 
Q 6.890625 8.984375 5.203125 13.71875 
Q 3.515625 18.453125 3.515625 24.171875 
Q 3.515625 29.390625 5.3125 34.078125 
Q 7.125 38.765625 10.296875 42.28125 
Q 13.28125 45.5625 17.59375 47.515625 
Q 21.921875 49.46875 26.421875 49.46875 
Q 29.78125 49.46875 33.03125 48.609375 
Q 36.28125 47.75 38.625 46.4375 
L 38.625 63.1875 
Q 38.625 65.234375 37.9375 66.921875 
Q 37.25 68.609375 36.03125 69.484375 
Q 34.671875 70.40625 32.34375 70.8125 
Q 30.03125 71.234375 27.34375 71.4375 
L 27.34375 74.46875 
L 47.015625 75.59375 
L 47.75 74.859375 
L 47.75 9.90625 
Q 47.75 8.203125 48.40625 7 
Q 49.078125 5.8125 50.34375 4.984375 
Q 51.265625 4.390625 53.015625 4.25 
Q 54.78125 4.109375 56.25 4.046875 
z
M 38.625 9.328125 
L 38.625 37.5 
Q 38.234375 38.765625 37.34375 40.234375 
Q 36.46875 41.703125 35.15625 42.921875 
Q 33.734375 44.140625 31.828125 44.9375 
Q 29.9375 45.75 27.390625 45.75 
Q 24.46875 45.75 22 44.234375 
Q 19.53125 42.71875 17.625 39.890625 
Q 15.828125 37.15625 14.765625 32.9375 
Q 13.71875 28.71875 13.71875 23.578125 
Q 13.71875 19.484375 14.5 16.140625 
Q 15.28125 12.796875 17.140625 9.90625 
Q 18.84375 7.171875 21.5 5.515625 
Q 24.171875 3.859375 27.828125 3.859375 
Q 31.734375 3.859375 34.296875 5.5625 
Q 36.859375 7.28125 38.625 9.328125 
z
" id="Georgia-64"/>
     <path d="M 49.125 0.875 
Q 46.828125 0.046875 45.09375 -0.46875 
Q 43.359375 -0.984375 41.15625 -0.984375 
Q 37.359375 -0.984375 35.078125 0.796875 
Q 32.8125 2.59375 32.171875 6 
L 31.890625 6 
Q 28.71875 2.484375 25.078125 0.625 
Q 21.4375 -1.21875 16.3125 -1.21875 
Q 10.890625 -1.21875 7.390625 2.09375 
Q 3.90625 5.421875 3.90625 10.796875 
Q 3.90625 13.578125 4.6875 15.765625 
Q 5.46875 17.96875 7.03125 19.734375 
Q 8.25 21.1875 10.25 22.328125 
Q 12.25 23.484375 14.015625 24.171875 
Q 16.21875 25 22.921875 27.25 
Q 29.640625 29.5 31.984375 30.765625 
L 31.984375 35.59375 
Q 31.984375 36.234375 31.71875 38.03125 
Q 31.453125 39.84375 30.5625 41.453125 
Q 29.59375 43.265625 27.8125 44.609375 
Q 26.03125 45.953125 22.75 45.953125 
Q 20.515625 45.953125 18.578125 45.1875 
Q 16.65625 44.4375 15.875 43.609375 
Q 15.875 42.625 16.328125 40.71875 
Q 16.796875 38.8125 16.796875 37.203125 
Q 16.796875 35.5 15.25 34.078125 
Q 13.71875 32.671875 10.984375 32.671875 
Q 8.546875 32.671875 7.390625 34.40625 
Q 6.25 36.140625 6.25 38.28125 
Q 6.25 40.53125 7.828125 42.578125 
Q 9.421875 44.625 11.96875 46.234375 
Q 14.15625 47.609375 17.28125 48.5625 
Q 20.40625 49.515625 23.390625 49.515625 
Q 27.484375 49.515625 30.53125 48.953125 
Q 33.59375 48.390625 36.078125 46.53125 
Q 38.578125 44.734375 39.859375 41.625 
Q 41.15625 38.53125 41.15625 33.640625 
Q 41.15625 26.65625 41.015625 21.265625 
Q 40.875 15.875 40.875 9.46875 
Q 40.875 7.5625 41.53125 6.4375 
Q 42.1875 5.328125 43.5625 4.546875 
Q 44.28125 4.109375 45.875 4.046875 
Q 47.46875 4 49.125 4 
z
M 32.078125 26.65625 
Q 27.9375 25.4375 24.8125 24.265625 
Q 21.6875 23.09375 19 21.34375 
Q 16.546875 19.671875 15.125 17.40625 
Q 13.71875 15.140625 13.71875 12.015625 
Q 13.71875 7.953125 15.84375 6.046875 
Q 17.96875 4.15625 21.234375 4.15625 
Q 24.703125 4.15625 27.34375 5.828125 
Q 29.984375 7.515625 31.78125 9.8125 
z
" id="Georgia-61"/>
     <path d="M 35.296875 23.578125 
Q 37.3125 21.828125 38.375 19.53125 
Q 39.453125 17.234375 39.453125 13.921875 
Q 39.453125 7.234375 34.4375 2.984375 
Q 29.4375 -1.265625 21.484375 -1.265625 
Q 17.28125 -1.265625 13.734375 0.25 
Q 10.203125 1.765625 8.6875 3.03125 
L 7.71875 -0.140625 
L 4.046875 -0.140625 
L 3.5625 16.609375 
L 6.9375 16.609375 
Q 7.328125 14.703125 8.59375 12.15625 
Q 9.859375 9.625 11.671875 7.5625 
Q 13.578125 5.421875 16.234375 3.953125 
Q 18.890625 2.484375 22.21875 2.484375 
Q 26.90625 2.484375 29.4375 4.609375 
Q 31.984375 6.734375 31.984375 10.6875 
Q 31.984375 12.75 31.171875 14.234375 
Q 30.375 15.71875 28.8125 16.84375 
Q 27.203125 17.96875 24.859375 18.875 
Q 22.515625 19.78125 19.625 20.65625 
Q 17.328125 21.34375 14.515625 22.53125 
Q 11.71875 23.734375 9.71875 25.34375 
Q 7.5625 27.046875 6.1875 29.53125 
Q 4.828125 32.03125 4.828125 35.40625 
Q 4.828125 41.3125 9.21875 45.40625 
Q 13.625 49.515625 21 49.515625 
Q 23.828125 49.515625 26.78125 48.78125 
Q 29.734375 48.046875 31.59375 47.015625 
L 32.71875 49.5625 
L 36.234375 49.5625 
L 36.96875 34.078125 
L 33.59375 34.078125 
Q 32.5625 39.265625 29.171875 42.5 
Q 25.78125 45.75 20.90625 45.75 
Q 16.890625 45.75 14.59375 43.75 
Q 12.3125 41.75 12.3125 38.921875 
Q 12.3125 36.71875 13.0625 35.25 
Q 13.8125 33.796875 15.328125 32.765625 
Q 16.796875 31.78125 19.015625 30.921875 
Q 21.234375 30.078125 24.515625 29 
Q 27.734375 27.984375 30.59375 26.609375 
Q 33.453125 25.25 35.296875 23.578125 
z
" id="Georgia-73"/>
    </defs>
    <g transform="translate(98.855625 20.806875)scale(0.18 -0.18)">
     <use transform="translate(0 0.40625)" xlink:href="#Georgia-50"/>
     <use transform="translate(60.986328 0.40625)" xlink:href="#Georgia-43"/>
     <use transform="translate(125.195312 0.40625)" xlink:href="#Georgia-41"/>
     <use transform="translate(192.285156 0.40625)" xlink:href="#Georgia-20"/>
     <use transform="translate(216.40625 0.40625)" xlink:href="#Georgia-6f"/>
     <use transform="translate(270.3125 0.40625)" xlink:href="#Georgia-6e"/>
     <use transform="translate(329.394531 0.40625)" xlink:href="#Georgia-20"/>
     <use transform="translate(353.515625 0.40625)" xlink:href="#Georgia-74"/>
     <use transform="translate(388.037109 0.40625)" xlink:href="#Georgia-68"/>
     <use transform="translate(446.240234 0.40625)" xlink:href="#Georgia-65"/>
     <use transform="translate(494.580078 0.40625)" xlink:href="#Georgia-20"/>
     <use transform="translate(518.701172 0.40625)" xlink:href="#STIXGeneral-Regular-32"/>
     <use transform="translate(568.701157 0.40625)" xlink:href="#Georgia-44"/>
     <use transform="translate(643.6035 0.40625)" xlink:href="#Georgia-20"/>
     <use transform="translate(667.724594 0.40625)" xlink:href="#Georgia-64"/>
     <use transform="translate(725.146469 0.40625)" xlink:href="#Georgia-61"/>
     <use transform="translate(775.537094 0.40625)" xlink:href="#Georgia-74"/>
     <use transform="translate(810.058578 0.40625)" xlink:href="#Georgia-61"/>
     <use transform="translate(860.449203 0.40625)" xlink:href="#Georgia-73"/>
     <use transform="translate(903.662094 0.40625)" xlink:href="#Georgia-65"/>
     <use transform="translate(952.001938 0.40625)" xlink:href="#Georgia-74"/>
    </g>
   </g>
  </g>
 </g>
 <defs>
  <clipPath id="pcd8c0644ab">
   <rect height="271.8" width="279" x="48.185625" y="26.806875"/>
  </clipPath>
 </defs>
</svg>
