<?xml version="1.0" encoding="utf-8" standalone="no"?>
<!DOCTYPE svg PUBLIC "-//W3C//DTD SVG 1.1//EN"
  "http://www.w3.org/Graphics/SVG/1.1/DTD/svg11.dtd">
<!-- Created with matplotlib (https://matplotlib.org/) -->
<svg height="248.518125pt" version="1.1" viewBox="0 0 197.864631 248.518125" width="197.864631pt" xmlns="http://www.w3.org/2000/svg" xmlns:xlink="http://www.w3.org/1999/xlink">
 <metadata>
  <rdf:RDF xmlns:cc="http://creativecommons.org/ns#" xmlns:dc="http://purl.org/dc/elements/1.1/" xmlns:rdf="http://www.w3.org/1999/02/22-rdf-syntax-ns#">
   <cc:Work>
    <dc:type rdf:resource="http://purl.org/dc/dcmitype/StillImage"/>
    <dc:date>2021-01-31T20:49:00.930241</dc:date>
    <dc:format>image/svg+xml</dc:format>
    <dc:creator>
     <cc:Agent>
      <dc:title>Matplotlib v3.3.3, https://matplotlib.org/</dc:title>
     </cc:Agent>
    </dc:creator>
   </cc:Work>
  </rdf:RDF>
 </metadata>
 <defs>
  <style type="text/css">*{stroke-linecap:butt;stroke-linejoin:round;}</style>
 </defs>
 <g id="figure_1">
  <g id="patch_1">
   <path d="M -0 248.518125 
L 197.864631 248.518125 
L 197.864631 0 
L -0 0 
z
" style="fill:none;"/>
  </g>
  <g id="axes_1">
   <g id="patch_2">
    <path d="M 38.482813 224.64 
L 190.664631 224.64 
L 190.664631 7.2 
L 38.482813 7.2 
z
" style="fill:#ffffff;"/>
   </g>
   <g id="PathCollection_1">
    <defs>
     <path d="M -3 3 
L 3 -3 
M -3 -3 
L 3 3 
" id="m763aa1d4a6" style="stroke:#ff0000;stroke-width:1.5;"/>
    </defs>
    <g clip-path="url(#pe29eadac8d)">
     <use style="fill:#ff0000;stroke:#ff0000;stroke-width:1.5;" x="126.129065" xlink:href="#m763aa1d4a6" y="136.600822"/>
     <use style="fill:#ff0000;stroke:#ff0000;stroke-width:1.5;" x="85.953911" xlink:href="#m763aa1d4a6" y="18.706646"/>
     <use style="fill:#ff0000;stroke:#ff0000;stroke-width:1.5;" x="73.774102" xlink:href="#m763aa1d4a6" y="51.600289"/>
     <use style="fill:#ff0000;stroke:#ff0000;stroke-width:1.5;" x="67.020836" xlink:href="#m763aa1d4a6" y="89.372189"/>
     <use style="fill:#ff0000;stroke:#ff0000;stroke-width:1.5;" x="156.63091" xlink:href="#m763aa1d4a6" y="104.876082"/>
     <use style="fill:#ff0000;stroke:#ff0000;stroke-width:1.5;" x="67.16201" xlink:href="#m763aa1d4a6" y="68.635227"/>
     <use style="fill:#ff0000;stroke:#ff0000;stroke-width:1.5;" x="96.334469" xlink:href="#m763aa1d4a6" y="32.187741"/>
     <use style="fill:#ff0000;stroke:#ff0000;stroke-width:1.5;" x="71.115483" xlink:href="#m763aa1d4a6" y="39.958549"/>
     <use style="fill:#ff0000;stroke:#ff0000;stroke-width:1.5;" x="160.39258" xlink:href="#m763aa1d4a6" y="98.23964"/>
     <use style="fill:#ff0000;stroke:#ff0000;stroke-width:1.5;" x="107.029338" xlink:href="#m763aa1d4a6" y="62.320694"/>
    </g>
   </g>
   <g id="matplotlib.axis_1">
    <g id="xtick_1">
     <g id="line2d_1">
      <defs>
       <path d="M 0 0 
L 0 3.5 
" id="m070ce100e5" style="stroke:#000000;stroke-width:0.8;"/>
      </defs>
      <g>
       <use style="stroke:#000000;stroke-width:0.8;" x="65.16404" xlink:href="#m070ce100e5" y="224.64"/>
      </g>
     </g>
     <g id="text_1">
      <!-- 0.0 -->
      <g transform="translate(57.212478 239.238437)scale(0.1 -0.1)">
       <defs>
        <path d="M 31.78125 66.40625 
Q 24.171875 66.40625 20.328125 58.90625 
Q 16.5 51.421875 16.5 36.375 
Q 16.5 21.390625 20.328125 13.890625 
Q 24.171875 6.390625 31.78125 6.390625 
Q 39.453125 6.390625 43.28125 13.890625 
Q 47.125 21.390625 47.125 36.375 
Q 47.125 51.421875 43.28125 58.90625 
Q 39.453125 66.40625 31.78125 66.40625 
z
M 31.78125 74.21875 
Q 44.046875 74.21875 50.515625 64.515625 
Q 56.984375 54.828125 56.984375 36.375 
Q 56.984375 17.96875 50.515625 8.265625 
Q 44.046875 -1.421875 31.78125 -1.421875 
Q 19.53125 -1.421875 13.0625 8.265625 
Q 6.59375 17.96875 6.59375 36.375 
Q 6.59375 54.828125 13.0625 64.515625 
Q 19.53125 74.21875 31.78125 74.21875 
z
" id="DejaVuSans-48"/>
        <path d="M 10.6875 12.40625 
L 21 12.40625 
L 21 0 
L 10.6875 0 
z
" id="DejaVuSans-46"/>
       </defs>
       <use xlink:href="#DejaVuSans-48"/>
       <use x="63.623047" xlink:href="#DejaVuSans-46"/>
       <use x="95.410156" xlink:href="#DejaVuSans-48"/>
      </g>
     </g>
    </g>
    <g id="xtick_2">
     <g id="line2d_2">
      <g>
       <use style="stroke:#000000;stroke-width:0.8;" x="114.573722" xlink:href="#m070ce100e5" y="224.64"/>
      </g>
     </g>
     <g id="text_2">
      <!-- 0.5 -->
      <g transform="translate(106.622159 239.238437)scale(0.1 -0.1)">
       <defs>
        <path d="M 10.796875 72.90625 
L 49.515625 72.90625 
L 49.515625 64.59375 
L 19.828125 64.59375 
L 19.828125 46.734375 
Q 21.96875 47.46875 24.109375 47.828125 
Q 26.265625 48.1875 28.421875 48.1875 
Q 40.625 48.1875 47.75 41.5 
Q 54.890625 34.8125 54.890625 23.390625 
Q 54.890625 11.625 47.5625 5.09375 
Q 40.234375 -1.421875 26.90625 -1.421875 
Q 22.3125 -1.421875 17.546875 -0.640625 
Q 12.796875 0.140625 7.71875 1.703125 
L 7.71875 11.625 
Q 12.109375 9.234375 16.796875 8.0625 
Q 21.484375 6.890625 26.703125 6.890625 
Q 35.15625 6.890625 40.078125 11.328125 
Q 45.015625 15.765625 45.015625 23.390625 
Q 45.015625 31 40.078125 35.4375 
Q 35.15625 39.890625 26.703125 39.890625 
Q 22.75 39.890625 18.8125 39.015625 
Q 14.890625 38.140625 10.796875 36.28125 
z
" id="DejaVuSans-53"/>
       </defs>
       <use xlink:href="#DejaVuSans-48"/>
       <use x="63.623047" xlink:href="#DejaVuSans-46"/>
       <use x="95.410156" xlink:href="#DejaVuSans-53"/>
      </g>
     </g>
    </g>
    <g id="xtick_3">
     <g id="line2d_3">
      <g>
       <use style="stroke:#000000;stroke-width:0.8;" x="163.983403" xlink:href="#m070ce100e5" y="224.64"/>
      </g>
     </g>
     <g id="text_3">
      <!-- 1.0 -->
      <g transform="translate(156.03184 239.238437)scale(0.1 -0.1)">
       <defs>
        <path d="M 12.40625 8.296875 
L 28.515625 8.296875 
L 28.515625 63.921875 
L 10.984375 60.40625 
L 10.984375 69.390625 
L 28.421875 72.90625 
L 38.28125 72.90625 
L 38.28125 8.296875 
L 54.390625 8.296875 
L 54.390625 0 
L 12.40625 0 
z
" id="DejaVuSans-49"/>
       </defs>
       <use xlink:href="#DejaVuSans-49"/>
       <use x="63.623047" xlink:href="#DejaVuSans-46"/>
       <use x="95.410156" xlink:href="#DejaVuSans-48"/>
      </g>
     </g>
    </g>
   </g>
   <g id="matplotlib.axis_2">
    <g id="ytick_1">
     <g id="line2d_4">
      <defs>
       <path d="M 0 0 
L -3.5 0 
" id="m4e3f6bb5a0" style="stroke:#000000;stroke-width:0.8;"/>
      </defs>
      <g>
       <use style="stroke:#000000;stroke-width:0.8;" x="38.482813" xlink:href="#m4e3f6bb5a0" y="204.289252"/>
      </g>
     </g>
     <g id="text_4">
      <!-- −1.5 -->
      <g transform="translate(7.2 208.088471)scale(0.1 -0.1)">
       <defs>
        <path d="M 10.59375 35.5 
L 73.1875 35.5 
L 73.1875 27.203125 
L 10.59375 27.203125 
z
" id="DejaVuSans-8722"/>
       </defs>
       <use xlink:href="#DejaVuSans-8722"/>
       <use x="83.789062" xlink:href="#DejaVuSans-49"/>
       <use x="147.412109" xlink:href="#DejaVuSans-46"/>
       <use x="179.199219" xlink:href="#DejaVuSans-53"/>
      </g>
     </g>
    </g>
    <g id="ytick_2">
     <g id="line2d_5">
      <g>
       <use style="stroke:#000000;stroke-width:0.8;" x="38.482813" xlink:href="#m4e3f6bb5a0" y="165.653633"/>
      </g>
     </g>
     <g id="text_5">
      <!-- −1.0 -->
      <g transform="translate(7.2 169.452852)scale(0.1 -0.1)">
       <use xlink:href="#DejaVuSans-8722"/>
       <use x="83.789062" xlink:href="#DejaVuSans-49"/>
       <use x="147.412109" xlink:href="#DejaVuSans-46"/>
       <use x="179.199219" xlink:href="#DejaVuSans-48"/>
      </g>
     </g>
    </g>
    <g id="ytick_3">
     <g id="line2d_6">
      <g>
       <use style="stroke:#000000;stroke-width:0.8;" x="38.482813" xlink:href="#m4e3f6bb5a0" y="127.018015"/>
      </g>
     </g>
     <g id="text_6">
      <!-- −0.5 -->
      <g transform="translate(7.2 130.817233)scale(0.1 -0.1)">
       <use xlink:href="#DejaVuSans-8722"/>
       <use x="83.789062" xlink:href="#DejaVuSans-48"/>
       <use x="147.412109" xlink:href="#DejaVuSans-46"/>
       <use x="179.199219" xlink:href="#DejaVuSans-53"/>
      </g>
     </g>
    </g>
    <g id="ytick_4">
     <g id="line2d_7">
      <g>
       <use style="stroke:#000000;stroke-width:0.8;" x="38.482813" xlink:href="#m4e3f6bb5a0" y="88.382396"/>
      </g>
     </g>
     <g id="text_7">
      <!-- 0.0 -->
      <g transform="translate(15.579688 92.181614)scale(0.1 -0.1)">
       <use xlink:href="#DejaVuSans-48"/>
       <use x="63.623047" xlink:href="#DejaVuSans-46"/>
       <use x="95.410156" xlink:href="#DejaVuSans-48"/>
      </g>
     </g>
    </g>
    <g id="ytick_5">
     <g id="line2d_8">
      <g>
       <use style="stroke:#000000;stroke-width:0.8;" x="38.482813" xlink:href="#m4e3f6bb5a0" y="49.746777"/>
      </g>
     </g>
     <g id="text_8">
      <!-- 0.5 -->
      <g transform="translate(15.579688 53.545995)scale(0.1 -0.1)">
       <use xlink:href="#DejaVuSans-48"/>
       <use x="63.623047" xlink:href="#DejaVuSans-46"/>
       <use x="95.410156" xlink:href="#DejaVuSans-53"/>
      </g>
     </g>
    </g>
    <g id="ytick_6">
     <g id="line2d_9">
      <g>
       <use style="stroke:#000000;stroke-width:0.8;" x="38.482813" xlink:href="#m4e3f6bb5a0" y="11.111158"/>
      </g>
     </g>
     <g id="text_9">
      <!-- 1.0 -->
      <g transform="translate(15.579688 14.910376)scale(0.1 -0.1)">
       <use xlink:href="#DejaVuSans-49"/>
       <use x="63.623047" xlink:href="#DejaVuSans-46"/>
       <use x="95.410156" xlink:href="#DejaVuSans-48"/>
      </g>
     </g>
    </g>
   </g>
   <g id="line2d_10">
    <path clip-path="url(#pe29eadac8d)" d="M 45.400168 208.485768 
L 46.797613 203.243182 
L 48.195059 196.96786 
L 49.592504 189.815987 
L 50.98995 181.934645 
L 52.387396 173.462029 
L 53.784841 164.527661 
L 55.182287 155.2526 
L 56.579732 145.749661 
L 57.977178 136.123627 
L 59.374623 126.471461 
L 60.772069 116.882521 
L 62.169514 107.438777 
L 63.56696 98.21502 
L 64.964405 89.27908 
L 66.361851 80.692038 
L 67.759296 72.508438 
L 69.156742 64.776506 
L 70.554187 57.538359 
L 71.951633 50.830223 
L 73.349078 44.682643 
L 74.746524 39.120699 
L 76.14397 34.16422 
L 77.541415 29.828 
L 78.938861 26.122005 
L 80.336306 23.051595 
L 81.733752 20.617734 
L 83.131197 18.817203 
L 84.528643 17.642817 
L 85.926088 17.083636 
L 87.323534 17.125182 
L 88.720979 17.749648 
L 90.118425 18.936117 
L 91.51587 20.660775 
L 92.913316 22.897122 
L 94.310761 25.616189 
L 95.708207 28.78675 
L 97.105652 32.375538 
L 98.503098 36.347455 
L 99.900544 40.665791 
L 101.297989 45.292435 
L 102.695435 50.188089 
L 104.09288 55.312483 
L 105.490326 60.624586 
L 106.887771 66.082826 
L 108.285217 71.645297 
L 109.682662 77.269978 
L 111.080108 82.914943 
L 112.477553 88.538579 
L 113.874999 94.099796 
L 115.272444 99.558246 
L 116.66989 104.874529 
L 118.067335 110.010415 
L 119.464781 114.929053 
L 120.862226 119.595189 
L 122.259672 123.975374 
L 123.657118 128.038184 
L 125.054563 131.754429 
L 126.452009 135.097372 
L 127.849454 138.042938 
L 129.2469 140.569931 
L 130.644345 142.660246 
L 132.041791 144.299086 
L 133.439236 145.475171 
L 134.836682 146.180958 
L 136.234127 146.412849 
L 137.631573 146.171409 
L 139.029018 145.46158 
L 140.426464 144.292889 
L 141.823909 142.679672 
L 143.221355 140.641278 
L 144.6188 138.20229 
L 146.016246 135.392736 
L 147.413692 132.248301 
L 148.811137 128.810545 
L 150.208583 125.127115 
L 151.606028 121.251959 
L 153.003474 117.245539 
L 154.400919 113.175046 
L 155.798365 109.114615 
L 157.19581 105.145536 
L 158.593256 101.35647 
L 159.990701 97.843664 
L 161.388147 94.711162 
L 162.785592 92.071021 
L 164.183038 90.043524 
L 165.580483 88.757394 
L 166.977929 88.350009 
L 168.375374 88.967615 
L 169.77282 90.765539 
L 171.170266 93.908405 
L 172.567711 98.570348 
L 173.965157 104.935223 
L 175.362602 113.196828 
L 176.760048 123.559108 
L 178.157493 136.236376 
L 179.554939 151.453525 
L 180.952384 169.446241 
L 182.34983 190.461215 
L 183.747275 214.756364 
" style="fill:none;stroke:#000000;stroke-linecap:square;stroke-width:1.5;"/>
   </g>
   <g id="patch_3">
    <path d="M 38.482813 224.64 
L 38.482813 7.2 
" style="fill:none;stroke:#000000;stroke-linecap:square;stroke-linejoin:miter;stroke-width:0.8;"/>
   </g>
   <g id="patch_4">
    <path d="M 190.664631 224.64 
L 190.664631 7.2 
" style="fill:none;stroke:#000000;stroke-linecap:square;stroke-linejoin:miter;stroke-width:0.8;"/>
   </g>
   <g id="patch_5">
    <path d="M 38.482812 224.64 
L 190.664631 224.64 
" style="fill:none;stroke:#000000;stroke-linecap:square;stroke-linejoin:miter;stroke-width:0.8;"/>
   </g>
   <g id="patch_6">
    <path d="M 38.482812 7.2 
L 190.664631 7.2 
" style="fill:none;stroke:#000000;stroke-linecap:square;stroke-linejoin:miter;stroke-width:0.8;"/>
   </g>
  </g>
 </g>
 <defs>
  <clipPath id="pe29eadac8d">
   <rect height="217.44" width="152.181818" x="38.482813" y="7.2"/>
  </clipPath>
 </defs>
</svg>
