<?xml version="1.0" encoding="utf-8" standalone="no"?>
<!DOCTYPE svg PUBLIC "-//W3C//DTD SVG 1.1//EN"
  "http://www.w3.org/Graphics/SVG/1.1/DTD/svg11.dtd">
<!-- Created with matplotlib (https://matplotlib.org/) -->
<svg height="568.277344pt" version="1.1" viewBox="0 0 568.792187 568.277344" width="568.792187pt" xmlns="http://www.w3.org/2000/svg" xmlns:xlink="http://www.w3.org/1999/xlink">
 <metadata>
  <rdf:RDF xmlns:cc="http://creativecommons.org/ns#" xmlns:dc="http://purl.org/dc/elements/1.1/" xmlns:rdf="http://www.w3.org/1999/02/22-rdf-syntax-ns#">
   <cc:Work>
    <dc:type rdf:resource="http://purl.org/dc/dcmitype/StillImage"/>
    <dc:date>2021-02-16T00:43:44.406162</dc:date>
    <dc:format>image/svg+xml</dc:format>
    <dc:creator>
     <cc:Agent>
      <dc:title>Matplotlib v3.3.3, https://matplotlib.org/</dc:title>
     </cc:Agent>
    </dc:creator>
   </cc:Work>
  </rdf:RDF>
 </metadata>
 <defs>
  <style type="text/css">*{stroke-linecap:butt;stroke-linejoin:round;}</style>
 </defs>
 <g id="figure_1">
  <g id="patch_1">
   <path d="M 0 568.277344 
L 568.792187 568.277344 
L 568.792187 0 
L 0 0 
z
" style="fill:none;"/>
  </g>
  <g id="axes_1">
   <g id="patch_2">
    <path d="M 28.942188 174.932552 
L 194.881823 174.932552 
L 194.881823 10.999219 
L 28.942188 10.999219 
z
" style="fill:#ffffff;"/>
   </g>
   <g id="PathCollection_1">
    <defs>
     <path d="M -3 3 
L 3 -3 
M -3 -3 
L 3 3 
" id="m78b2691dfc" style="stroke:#ff0000;stroke-width:1.5;"/>
    </defs>
    <g clip-path="url(#p85e430d9a9)">
     <use style="fill:#ff0000;stroke:#ff0000;stroke-width:1.5;" x="125.771995" xlink:href="#m78b2691dfc" y="118.540108"/>
     <use style="fill:#ff0000;stroke:#ff0000;stroke-width:1.5;" x="77.584139" xlink:href="#m78b2691dfc" y="56.011068"/>
     <use style="fill:#ff0000;stroke:#ff0000;stroke-width:1.5;" x="62.975139" xlink:href="#m78b2691dfc" y="73.45729"/>
     <use style="fill:#ff0000;stroke:#ff0000;stroke-width:1.5;" x="54.874973" xlink:href="#m78b2691dfc" y="93.490855"/>
     <use style="fill:#ff0000;stroke:#ff0000;stroke-width:1.5;" x="162.357256" xlink:href="#m78b2691dfc" y="101.713852"/>
     <use style="fill:#ff0000;stroke:#ff0000;stroke-width:1.5;" x="55.044302" xlink:href="#m78b2691dfc" y="82.492327"/>
     <use style="fill:#ff0000;stroke:#ff0000;stroke-width:1.5;" x="90.03504" xlink:href="#m78b2691dfc" y="63.161209"/>
     <use style="fill:#ff0000;stroke:#ff0000;stroke-width:1.5;" x="59.786273" xlink:href="#m78b2691dfc" y="67.282711"/>
     <use style="fill:#ff0000;stroke:#ff0000;stroke-width:1.5;" x="166.869169" xlink:href="#m78b2691dfc" y="98.193998"/>
     <use style="fill:#ff0000;stroke:#ff0000;stroke-width:1.5;" x="102.862938" xlink:href="#m78b2691dfc" y="79.143208"/>
    </g>
   </g>
   <g id="matplotlib.axis_1"/>
   <g id="matplotlib.axis_2">
    <g id="ytick_1">
     <g id="line2d_1">
      <defs>
       <path d="M 0 0 
L -3.5 0 
" id="meeade15c75" style="stroke:#000000;stroke-width:0.8;"/>
      </defs>
      <g>
       <use style="stroke:#000000;stroke-width:0.8;" x="28.942188" xlink:href="#meeade15c75" y="174.932552"/>
      </g>
     </g>
     <g id="text_1">
      <!-- −2 -->
      <g transform="translate(7.2 178.731771)scale(0.1 -0.1)">
       <defs>
        <path d="M 10.59375 35.5 
L 73.1875 35.5 
L 73.1875 27.203125 
L 10.59375 27.203125 
z
" id="DejaVuSans-8722"/>
        <path d="M 19.1875 8.296875 
L 53.609375 8.296875 
L 53.609375 0 
L 7.328125 0 
L 7.328125 8.296875 
Q 12.9375 14.109375 22.625 23.890625 
Q 32.328125 33.6875 34.8125 36.53125 
Q 39.546875 41.84375 41.421875 45.53125 
Q 43.3125 49.21875 43.3125 52.78125 
Q 43.3125 58.59375 39.234375 62.25 
Q 35.15625 65.921875 28.609375 65.921875 
Q 23.96875 65.921875 18.8125 64.3125 
Q 13.671875 62.703125 7.8125 59.421875 
L 7.8125 69.390625 
Q 13.765625 71.78125 18.9375 73 
Q 24.125 74.21875 28.421875 74.21875 
Q 39.75 74.21875 46.484375 68.546875 
Q 53.21875 62.890625 53.21875 53.421875 
Q 53.21875 48.921875 51.53125 44.890625 
Q 49.859375 40.875 45.40625 35.40625 
Q 44.1875 33.984375 37.640625 27.21875 
Q 31.109375 20.453125 19.1875 8.296875 
z
" id="DejaVuSans-50"/>
       </defs>
       <use xlink:href="#DejaVuSans-8722"/>
       <use x="83.789062" xlink:href="#DejaVuSans-50"/>
      </g>
     </g>
    </g>
    <g id="ytick_2">
     <g id="line2d_2">
      <g>
       <use style="stroke:#000000;stroke-width:0.8;" x="28.942188" xlink:href="#meeade15c75" y="133.949219"/>
      </g>
     </g>
     <g id="text_2">
      <!-- −1 -->
      <g transform="translate(7.2 137.748438)scale(0.1 -0.1)">
       <defs>
        <path d="M 12.40625 8.296875 
L 28.515625 8.296875 
L 28.515625 63.921875 
L 10.984375 60.40625 
L 10.984375 69.390625 
L 28.421875 72.90625 
L 38.28125 72.90625 
L 38.28125 8.296875 
L 54.390625 8.296875 
L 54.390625 0 
L 12.40625 0 
z
" id="DejaVuSans-49"/>
       </defs>
       <use xlink:href="#DejaVuSans-8722"/>
       <use x="83.789062" xlink:href="#DejaVuSans-49"/>
      </g>
     </g>
    </g>
    <g id="ytick_3">
     <g id="line2d_3">
      <g>
       <use style="stroke:#000000;stroke-width:0.8;" x="28.942188" xlink:href="#meeade15c75" y="92.965885"/>
      </g>
     </g>
     <g id="text_3">
      <!-- 0 -->
      <g transform="translate(15.579688 96.765104)scale(0.1 -0.1)">
       <defs>
        <path d="M 31.78125 66.40625 
Q 24.171875 66.40625 20.328125 58.90625 
Q 16.5 51.421875 16.5 36.375 
Q 16.5 21.390625 20.328125 13.890625 
Q 24.171875 6.390625 31.78125 6.390625 
Q 39.453125 6.390625 43.28125 13.890625 
Q 47.125 21.390625 47.125 36.375 
Q 47.125 51.421875 43.28125 58.90625 
Q 39.453125 66.40625 31.78125 66.40625 
z
M 31.78125 74.21875 
Q 44.046875 74.21875 50.515625 64.515625 
Q 56.984375 54.828125 56.984375 36.375 
Q 56.984375 17.96875 50.515625 8.265625 
Q 44.046875 -1.421875 31.78125 -1.421875 
Q 19.53125 -1.421875 13.0625 8.265625 
Q 6.59375 17.96875 6.59375 36.375 
Q 6.59375 54.828125 13.0625 64.515625 
Q 19.53125 74.21875 31.78125 74.21875 
z
" id="DejaVuSans-48"/>
       </defs>
       <use xlink:href="#DejaVuSans-48"/>
      </g>
     </g>
    </g>
    <g id="ytick_4">
     <g id="line2d_4">
      <g>
       <use style="stroke:#000000;stroke-width:0.8;" x="28.942188" xlink:href="#meeade15c75" y="51.982552"/>
      </g>
     </g>
     <g id="text_4">
      <!-- 1 -->
      <g transform="translate(15.579688 55.781771)scale(0.1 -0.1)">
       <use xlink:href="#DejaVuSans-49"/>
      </g>
     </g>
    </g>
    <g id="ytick_5">
     <g id="line2d_5">
      <g>
       <use style="stroke:#000000;stroke-width:0.8;" x="28.942188" xlink:href="#meeade15c75" y="10.999219"/>
      </g>
     </g>
     <g id="text_5">
      <!-- 2 -->
      <g transform="translate(15.579688 14.798438)scale(0.1 -0.1)">
       <use xlink:href="#DejaVuSans-50"/>
      </g>
     </g>
    </g>
   </g>
   <g id="line2d_6">
    <path clip-path="url(#p85e430d9a9)" d="M 28.942188 65.360683 
L 30.618345 65.811547 
L 32.294503 66.262411 
L 33.970661 66.713275 
L 35.646819 67.164139 
L 37.322977 67.615003 
L 38.999135 68.065867 
L 40.675293 68.516731 
L 42.351451 68.967595 
L 44.027609 69.418459 
L 45.703767 69.869323 
L 47.379925 70.320187 
L 49.056083 70.771051 
L 50.732241 71.221915 
L 52.408399 71.672779 
L 54.084557 72.123643 
L 55.760715 72.574507 
L 57.436872 73.025371 
L 59.11303 73.476235 
L 60.789188 73.927099 
L 62.465346 74.377963 
L 64.141504 74.828827 
L 65.817662 75.279691 
L 67.49382 75.730555 
L 69.169978 76.181419 
L 70.846136 76.632283 
L 72.522294 77.083147 
L 74.198452 77.534011 
L 75.87461 77.984875 
L 77.550768 78.435739 
L 79.226926 78.886603 
L 80.903084 79.337467 
L 82.579242 79.788331 
L 84.255399 80.239195 
L 85.931557 80.690059 
L 87.607715 81.140924 
L 89.283873 81.591788 
L 90.960031 82.042652 
L 92.636189 82.493516 
L 94.312347 82.94438 
L 95.988505 83.395244 
L 97.664663 83.846108 
L 99.340821 84.296972 
L 101.016979 84.747836 
L 102.693137 85.1987 
L 104.369295 85.649564 
L 106.045453 86.100428 
L 107.721611 86.551292 
L 109.397769 87.002156 
L 111.073926 87.45302 
L 112.750084 87.903884 
L 114.426242 88.354748 
L 116.1024 88.805612 
L 117.778558 89.256476 
L 119.454716 89.70734 
L 121.130874 90.158204 
L 122.807032 90.609068 
L 124.48319 91.059932 
L 126.159348 91.510796 
L 127.835506 91.96166 
L 129.511664 92.412524 
L 131.187822 92.863388 
L 132.86398 93.314252 
L 134.540138 93.765116 
L 136.216296 94.21598 
L 137.892453 94.666844 
L 139.568611 95.117708 
L 141.244769 95.568572 
L 142.920927 96.019436 
L 144.597085 96.4703 
L 146.273243 96.921164 
L 147.949401 97.372028 
L 149.625559 97.822892 
L 151.301717 98.273756 
L 152.977875 98.72462 
L 154.654033 99.175484 
L 156.330191 99.626348 
L 158.006349 100.077212 
L 159.682507 100.528076 
L 161.358665 100.97894 
L 163.034823 101.429804 
L 164.71098 101.880668 
L 166.387138 102.331532 
L 168.063296 102.782396 
L 169.739454 103.23326 
L 171.415612 103.684124 
L 173.09177 104.134988 
L 174.767928 104.585852 
L 176.444086 105.036716 
L 178.120244 105.48758 
L 179.796402 105.938444 
L 181.47256 106.389308 
L 183.148718 106.840172 
L 184.824876 107.291036 
L 186.501034 107.7419 
L 188.177192 108.192764 
L 189.85335 108.643628 
L 191.529507 109.094493 
L 193.205665 109.545357 
L 194.881823 109.996221 
" style="fill:none;stroke:#000000;stroke-linecap:square;stroke-width:1.5;"/>
   </g>
   <g id="patch_3">
    <path d="M 28.942188 174.932552 
L 28.942188 10.999219 
" style="fill:none;stroke:#000000;stroke-linecap:square;stroke-linejoin:miter;stroke-width:0.8;"/>
   </g>
   <g id="patch_4">
    <path d="M 194.881823 174.932552 
L 194.881823 10.999219 
" style="fill:none;stroke:#000000;stroke-linecap:square;stroke-linejoin:miter;stroke-width:0.8;"/>
   </g>
   <g id="patch_5">
    <path d="M 28.942188 174.932552 
L 194.881823 174.932552 
" style="fill:none;stroke:#000000;stroke-linecap:square;stroke-linejoin:miter;stroke-width:0.8;"/>
   </g>
   <g id="patch_6">
    <path d="M 28.942188 10.999219 
L 194.881823 10.999219 
" style="fill:none;stroke:#000000;stroke-linecap:square;stroke-linejoin:miter;stroke-width:0.8;"/>
   </g>
   <g id="text_6">
    <!-- D = 1 -->
    <g transform="translate(29.942556 164.24026)scale(0.12 -0.12)">
     <defs>
      <path d="M 19.671875 64.796875 
L 19.671875 8.109375 
L 31.59375 8.109375 
Q 46.6875 8.109375 53.6875 14.9375 
Q 60.6875 21.78125 60.6875 36.53125 
Q 60.6875 51.171875 53.6875 57.984375 
Q 46.6875 64.796875 31.59375 64.796875 
z
M 9.8125 72.90625 
L 30.078125 72.90625 
Q 51.265625 72.90625 61.171875 64.09375 
Q 71.09375 55.28125 71.09375 36.53125 
Q 71.09375 17.671875 61.125 8.828125 
Q 51.171875 0 30.078125 0 
L 9.8125 0 
z
" id="DejaVuSans-68"/>
      <path id="DejaVuSans-32"/>
      <path d="M 10.59375 45.40625 
L 73.1875 45.40625 
L 73.1875 37.203125 
L 10.59375 37.203125 
z
M 10.59375 25.484375 
L 73.1875 25.484375 
L 73.1875 17.1875 
L 10.59375 17.1875 
z
" id="DejaVuSans-61"/>
     </defs>
     <use xlink:href="#DejaVuSans-68"/>
     <use x="77.001953" xlink:href="#DejaVuSans-32"/>
     <use x="108.789062" xlink:href="#DejaVuSans-61"/>
     <use x="192.578125" xlink:href="#DejaVuSans-32"/>
     <use x="224.365234" xlink:href="#DejaVuSans-49"/>
    </g>
   </g>
  </g>
  <g id="axes_2">
   <g id="patch_7">
    <path d="M 212.29737 174.932552 
L 378.237005 174.932552 
L 378.237005 10.999219 
L 212.29737 10.999219 
z
" style="fill:#ffffff;"/>
   </g>
   <g id="PathCollection_2">
    <g clip-path="url(#p0cc2b6503f)">
     <use style="fill:#ff0000;stroke:#ff0000;stroke-width:1.5;" x="309.127177" xlink:href="#m78b2691dfc" y="118.540108"/>
     <use style="fill:#ff0000;stroke:#ff0000;stroke-width:1.5;" x="260.939322" xlink:href="#m78b2691dfc" y="56.011068"/>
     <use style="fill:#ff0000;stroke:#ff0000;stroke-width:1.5;" x="246.330321" xlink:href="#m78b2691dfc" y="73.45729"/>
     <use style="fill:#ff0000;stroke:#ff0000;stroke-width:1.5;" x="238.230155" xlink:href="#m78b2691dfc" y="93.490855"/>
     <use style="fill:#ff0000;stroke:#ff0000;stroke-width:1.5;" x="345.712438" xlink:href="#m78b2691dfc" y="101.713852"/>
     <use style="fill:#ff0000;stroke:#ff0000;stroke-width:1.5;" x="238.399484" xlink:href="#m78b2691dfc" y="82.492327"/>
     <use style="fill:#ff0000;stroke:#ff0000;stroke-width:1.5;" x="273.390222" xlink:href="#m78b2691dfc" y="63.161209"/>
     <use style="fill:#ff0000;stroke:#ff0000;stroke-width:1.5;" x="243.141455" xlink:href="#m78b2691dfc" y="67.282711"/>
     <use style="fill:#ff0000;stroke:#ff0000;stroke-width:1.5;" x="350.224352" xlink:href="#m78b2691dfc" y="98.193998"/>
     <use style="fill:#ff0000;stroke:#ff0000;stroke-width:1.5;" x="286.21812" xlink:href="#m78b2691dfc" y="79.143208"/>
    </g>
   </g>
   <g id="matplotlib.axis_3"/>
   <g id="matplotlib.axis_4"/>
   <g id="line2d_7">
    <path clip-path="url(#p0cc2b6503f)" d="M 212.29737 77.906609 
L 213.973528 77.638086 
L 215.649685 77.384667 
L 217.325843 77.146351 
L 219.002001 76.923138 
L 220.678159 76.715029 
L 222.354317 76.522023 
L 224.030475 76.344121 
L 225.706633 76.181321 
L 227.382791 76.033625 
L 229.058949 75.901033 
L 230.735107 75.783543 
L 232.411265 75.681157 
L 234.087423 75.593875 
L 235.763581 75.521696 
L 237.439739 75.46462 
L 239.115897 75.422647 
L 240.792055 75.395778 
L 242.468212 75.384012 
L 244.14437 75.387349 
L 245.820528 75.40579 
L 247.496686 75.439334 
L 249.172844 75.487982 
L 250.849002 75.551733 
L 252.52516 75.630587 
L 254.201318 75.724544 
L 255.877476 75.833605 
L 257.553634 75.957769 
L 259.229792 76.097037 
L 260.90595 76.251407 
L 262.582108 76.420882 
L 264.258266 76.605459 
L 265.934424 76.80514 
L 267.610582 77.019924 
L 269.286739 77.249812 
L 270.962897 77.494802 
L 272.639055 77.754897 
L 274.315213 78.030094 
L 275.991371 78.320395 
L 277.667529 78.625799 
L 279.343687 78.946307 
L 281.019845 79.281918 
L 282.696003 79.632632 
L 284.372161 79.99845 
L 286.048319 80.37937 
L 287.724477 80.775395 
L 289.400635 81.186522 
L 291.076793 81.612753 
L 292.752951 82.054087 
L 294.429109 82.510525 
L 296.105266 82.982066 
L 297.781424 83.46871 
L 299.457582 83.970458 
L 301.13374 84.487309 
L 302.809898 85.019263 
L 304.486056 85.566321 
L 306.162214 86.128482 
L 307.838372 86.705746 
L 309.51453 87.298114 
L 311.190688 87.905585 
L 312.866846 88.528159 
L 314.543004 89.165837 
L 316.219162 89.818618 
L 317.89532 90.486502 
L 319.571478 91.16949 
L 321.247636 91.867581 
L 322.923793 92.580775 
L 324.599951 93.309073 
L 326.276109 94.052474 
L 327.952267 94.810978 
L 329.628425 95.584586 
L 331.304583 96.373297 
L 332.980741 97.177111 
L 334.656899 97.996029 
L 336.333057 98.83005 
L 338.009215 99.679175 
L 339.685373 100.543402 
L 341.361531 101.422734 
L 343.037689 102.317168 
L 344.713847 103.226706 
L 346.390005 104.151347 
L 348.066163 105.091091 
L 349.74232 106.045939 
L 351.418478 107.01589 
L 353.094636 108.000945 
L 354.770794 109.001102 
L 356.446952 110.016364 
L 358.12311 111.046728 
L 359.799268 112.092196 
L 361.475426 113.152767 
L 363.151584 114.228442 
L 364.827742 115.319219 
L 366.5039 116.425101 
L 368.180058 117.546085 
L 369.856216 118.682173 
L 371.532374 119.833364 
L 373.208532 120.999659 
L 374.88469 122.181057 
L 376.560847 123.377558 
L 378.237005 124.589162 
" style="fill:none;stroke:#000000;stroke-linecap:square;stroke-width:1.5;"/>
   </g>
   <g id="patch_8">
    <path d="M 212.29737 174.932552 
L 212.29737 10.999219 
" style="fill:none;stroke:#000000;stroke-linecap:square;stroke-linejoin:miter;stroke-width:0.8;"/>
   </g>
   <g id="patch_9">
    <path d="M 378.237005 174.932552 
L 378.237005 10.999219 
" style="fill:none;stroke:#000000;stroke-linecap:square;stroke-linejoin:miter;stroke-width:0.8;"/>
   </g>
   <g id="patch_10">
    <path d="M 212.29737 174.932552 
L 378.237005 174.932552 
" style="fill:none;stroke:#000000;stroke-linecap:square;stroke-linejoin:miter;stroke-width:0.8;"/>
   </g>
   <g id="patch_11">
    <path d="M 212.29737 10.999219 
L 378.237005 10.999219 
" style="fill:none;stroke:#000000;stroke-linecap:square;stroke-linejoin:miter;stroke-width:0.8;"/>
   </g>
   <g id="text_7">
    <!-- D = 2 -->
    <g transform="translate(213.297738 164.24026)scale(0.12 -0.12)">
     <use xlink:href="#DejaVuSans-68"/>
     <use x="77.001953" xlink:href="#DejaVuSans-32"/>
     <use x="108.789062" xlink:href="#DejaVuSans-61"/>
     <use x="192.578125" xlink:href="#DejaVuSans-32"/>
     <use x="224.365234" xlink:href="#DejaVuSans-50"/>
    </g>
   </g>
  </g>
  <g id="axes_3">
   <g id="patch_12">
    <path d="M 395.652552 174.932552 
L 561.592187 174.932552 
L 561.592187 10.999219 
L 395.652552 10.999219 
z
" style="fill:#ffffff;"/>
   </g>
   <g id="PathCollection_3">
    <g clip-path="url(#p42383c0612)">
     <use style="fill:#ff0000;stroke:#ff0000;stroke-width:1.5;" x="492.482359" xlink:href="#m78b2691dfc" y="118.540108"/>
     <use style="fill:#ff0000;stroke:#ff0000;stroke-width:1.5;" x="444.294504" xlink:href="#m78b2691dfc" y="56.011068"/>
     <use style="fill:#ff0000;stroke:#ff0000;stroke-width:1.5;" x="429.685503" xlink:href="#m78b2691dfc" y="73.45729"/>
     <use style="fill:#ff0000;stroke:#ff0000;stroke-width:1.5;" x="421.585337" xlink:href="#m78b2691dfc" y="93.490855"/>
     <use style="fill:#ff0000;stroke:#ff0000;stroke-width:1.5;" x="529.06762" xlink:href="#m78b2691dfc" y="101.713852"/>
     <use style="fill:#ff0000;stroke:#ff0000;stroke-width:1.5;" x="421.754666" xlink:href="#m78b2691dfc" y="82.492327"/>
     <use style="fill:#ff0000;stroke:#ff0000;stroke-width:1.5;" x="456.745404" xlink:href="#m78b2691dfc" y="63.161209"/>
     <use style="fill:#ff0000;stroke:#ff0000;stroke-width:1.5;" x="426.496637" xlink:href="#m78b2691dfc" y="67.282711"/>
     <use style="fill:#ff0000;stroke:#ff0000;stroke-width:1.5;" x="533.579534" xlink:href="#m78b2691dfc" y="98.193998"/>
     <use style="fill:#ff0000;stroke:#ff0000;stroke-width:1.5;" x="469.573302" xlink:href="#m78b2691dfc" y="79.143208"/>
    </g>
   </g>
   <g id="matplotlib.axis_5"/>
   <g id="matplotlib.axis_6"/>
   <g id="line2d_8">
    <path clip-path="url(#p42383c0612)" d="M 395.652552 213.751722 
L 397.32871 201.49229 
L 399.004868 189.841172 
L 400.681025 178.785585 
L 402.357183 168.312744 
L 404.033341 158.409866 
L 405.709499 149.064168 
L 407.385657 140.262864 
L 409.061815 131.993173 
L 410.737973 124.24231 
L 412.414131 116.997491 
L 414.090289 110.245932 
L 415.766447 103.97485 
L 417.442605 98.171461 
L 419.118763 92.822981 
L 420.794921 87.916627 
L 422.471079 83.439614 
L 424.147237 79.379159 
L 425.823395 75.722478 
L 427.499552 72.456788 
L 429.17571 69.569305 
L 430.851868 67.047244 
L 432.528026 64.877823 
L 434.204184 63.048257 
L 435.880342 61.545762 
L 437.5565 60.357556 
L 439.232658 59.470854 
L 440.908816 58.872872 
L 442.584974 58.550827 
L 444.261132 58.491934 
L 445.93729 58.683411 
L 447.613448 59.112474 
L 449.289606 59.766337 
L 450.965764 60.632219 
L 452.641922 61.697335 
L 454.318079 62.948902 
L 455.994237 64.374134 
L 457.670395 65.96025 
L 459.346553 67.694465 
L 461.022711 69.563996 
L 462.698869 71.556058 
L 464.375027 73.657867 
L 466.051185 75.856641 
L 467.727343 78.139596 
L 469.403501 80.493946 
L 471.079659 82.90691 
L 472.755817 85.365703 
L 474.431975 87.857541 
L 476.108133 90.369641 
L 477.784291 92.889219 
L 479.460449 95.40349 
L 481.136606 97.899672 
L 482.812764 100.364981 
L 484.488922 102.786633 
L 486.16508 105.151843 
L 487.841238 107.447829 
L 489.517396 109.661806 
L 491.193554 111.780992 
L 492.869712 113.792601 
L 494.54587 115.683851 
L 496.222028 117.441957 
L 497.898186 119.054136 
L 499.574344 120.507604 
L 501.250502 121.789577 
L 502.92666 122.887272 
L 504.602818 123.787905 
L 506.278976 124.478692 
L 507.955133 124.946849 
L 509.631291 125.179593 
L 511.307449 125.164139 
L 512.983607 124.887704 
L 514.659765 124.337505 
L 516.335923 123.500757 
L 518.012081 122.364677 
L 519.688239 120.916481 
L 521.364397 119.143385 
L 523.040555 117.032606 
L 524.716713 114.57136 
L 526.392871 111.746862 
L 528.069029 108.54633 
L 529.745187 104.956979 
L 531.421345 100.966027 
L 533.097503 96.560688 
L 534.77366 91.728179 
L 536.449818 86.455717 
L 538.125976 80.730517 
L 539.802134 74.539797 
L 541.478292 67.870771 
L 543.15445 60.710658 
L 544.830608 53.046672 
L 546.506766 44.866029 
L 548.182924 36.155948 
L 549.859082 26.903642 
L 551.53524 17.096329 
L 553.211398 6.721226 
L 554.392702 -1 
" style="fill:none;stroke:#000000;stroke-linecap:square;stroke-width:1.5;"/>
   </g>
   <g id="patch_13">
    <path d="M 395.652552 174.932552 
L 395.652552 10.999219 
" style="fill:none;stroke:#000000;stroke-linecap:square;stroke-linejoin:miter;stroke-width:0.8;"/>
   </g>
   <g id="patch_14">
    <path d="M 561.592187 174.932552 
L 561.592187 10.999219 
" style="fill:none;stroke:#000000;stroke-linecap:square;stroke-linejoin:miter;stroke-width:0.8;"/>
   </g>
   <g id="patch_15">
    <path d="M 395.652552 174.932552 
L 561.592187 174.932552 
" style="fill:none;stroke:#000000;stroke-linecap:square;stroke-linejoin:miter;stroke-width:0.8;"/>
   </g>
   <g id="patch_16">
    <path d="M 395.652552 10.999219 
L 561.592187 10.999219 
" style="fill:none;stroke:#000000;stroke-linecap:square;stroke-linejoin:miter;stroke-width:0.8;"/>
   </g>
   <g id="text_8">
    <!-- D = 3 -->
    <g transform="translate(396.65292 164.24026)scale(0.12 -0.12)">
     <defs>
      <path d="M 40.578125 39.3125 
Q 47.65625 37.796875 51.625 33 
Q 55.609375 28.21875 55.609375 21.1875 
Q 55.609375 10.40625 48.1875 4.484375 
Q 40.765625 -1.421875 27.09375 -1.421875 
Q 22.515625 -1.421875 17.65625 -0.515625 
Q 12.796875 0.390625 7.625 2.203125 
L 7.625 11.71875 
Q 11.71875 9.328125 16.59375 8.109375 
Q 21.484375 6.890625 26.8125 6.890625 
Q 36.078125 6.890625 40.9375 10.546875 
Q 45.796875 14.203125 45.796875 21.1875 
Q 45.796875 27.640625 41.28125 31.265625 
Q 36.765625 34.90625 28.71875 34.90625 
L 20.21875 34.90625 
L 20.21875 43.015625 
L 29.109375 43.015625 
Q 36.375 43.015625 40.234375 45.921875 
Q 44.09375 48.828125 44.09375 54.296875 
Q 44.09375 59.90625 40.109375 62.90625 
Q 36.140625 65.921875 28.71875 65.921875 
Q 24.65625 65.921875 20.015625 65.03125 
Q 15.375 64.15625 9.8125 62.3125 
L 9.8125 71.09375 
Q 15.4375 72.65625 20.34375 73.4375 
Q 25.25 74.21875 29.59375 74.21875 
Q 40.828125 74.21875 47.359375 69.109375 
Q 53.90625 64.015625 53.90625 55.328125 
Q 53.90625 49.265625 50.4375 45.09375 
Q 46.96875 40.921875 40.578125 39.3125 
z
" id="DejaVuSans-51"/>
     </defs>
     <use xlink:href="#DejaVuSans-68"/>
     <use x="77.001953" xlink:href="#DejaVuSans-32"/>
     <use x="108.789062" xlink:href="#DejaVuSans-61"/>
     <use x="192.578125" xlink:href="#DejaVuSans-32"/>
     <use x="224.365234" xlink:href="#DejaVuSans-51"/>
    </g>
   </g>
  </g>
  <g id="axes_4">
   <g id="patch_17">
    <path d="M 28.942188 359.665885 
L 194.881823 359.665885 
L 194.881823 195.732552 
L 28.942188 195.732552 
z
" style="fill:#ffffff;"/>
   </g>
   <g id="PathCollection_4">
    <g clip-path="url(#p96f5e53470)">
     <use style="fill:#ff0000;stroke:#ff0000;stroke-width:1.5;" x="125.771995" xlink:href="#m78b2691dfc" y="303.273441"/>
     <use style="fill:#ff0000;stroke:#ff0000;stroke-width:1.5;" x="77.584139" xlink:href="#m78b2691dfc" y="240.744402"/>
     <use style="fill:#ff0000;stroke:#ff0000;stroke-width:1.5;" x="62.975139" xlink:href="#m78b2691dfc" y="258.190623"/>
     <use style="fill:#ff0000;stroke:#ff0000;stroke-width:1.5;" x="54.874973" xlink:href="#m78b2691dfc" y="278.224188"/>
     <use style="fill:#ff0000;stroke:#ff0000;stroke-width:1.5;" x="162.357256" xlink:href="#m78b2691dfc" y="286.447186"/>
     <use style="fill:#ff0000;stroke:#ff0000;stroke-width:1.5;" x="55.044302" xlink:href="#m78b2691dfc" y="267.225661"/>
     <use style="fill:#ff0000;stroke:#ff0000;stroke-width:1.5;" x="90.03504" xlink:href="#m78b2691dfc" y="247.894542"/>
     <use style="fill:#ff0000;stroke:#ff0000;stroke-width:1.5;" x="59.786273" xlink:href="#m78b2691dfc" y="252.016045"/>
     <use style="fill:#ff0000;stroke:#ff0000;stroke-width:1.5;" x="166.869169" xlink:href="#m78b2691dfc" y="282.927332"/>
     <use style="fill:#ff0000;stroke:#ff0000;stroke-width:1.5;" x="102.862938" xlink:href="#m78b2691dfc" y="263.876541"/>
    </g>
   </g>
   <g id="matplotlib.axis_7"/>
   <g id="matplotlib.axis_8">
    <g id="ytick_6">
     <g id="line2d_9">
      <g>
       <use style="stroke:#000000;stroke-width:0.8;" x="28.942188" xlink:href="#meeade15c75" y="359.665885"/>
      </g>
     </g>
     <g id="text_9">
      <!-- −2 -->
      <g transform="translate(7.2 363.465104)scale(0.1 -0.1)">
       <use xlink:href="#DejaVuSans-8722"/>
       <use x="83.789062" xlink:href="#DejaVuSans-50"/>
      </g>
     </g>
    </g>
    <g id="ytick_7">
     <g id="line2d_10">
      <g>
       <use style="stroke:#000000;stroke-width:0.8;" x="28.942188" xlink:href="#meeade15c75" y="318.682552"/>
      </g>
     </g>
     <g id="text_10">
      <!-- −1 -->
      <g transform="translate(7.2 322.481771)scale(0.1 -0.1)">
       <use xlink:href="#DejaVuSans-8722"/>
       <use x="83.789062" xlink:href="#DejaVuSans-49"/>
      </g>
     </g>
    </g>
    <g id="ytick_8">
     <g id="line2d_11">
      <g>
       <use style="stroke:#000000;stroke-width:0.8;" x="28.942188" xlink:href="#meeade15c75" y="277.699219"/>
      </g>
     </g>
     <g id="text_11">
      <!-- 0 -->
      <g transform="translate(15.579688 281.498438)scale(0.1 -0.1)">
       <use xlink:href="#DejaVuSans-48"/>
      </g>
     </g>
    </g>
    <g id="ytick_9">
     <g id="line2d_12">
      <g>
       <use style="stroke:#000000;stroke-width:0.8;" x="28.942188" xlink:href="#meeade15c75" y="236.715885"/>
      </g>
     </g>
     <g id="text_12">
      <!-- 1 -->
      <g transform="translate(15.579688 240.515104)scale(0.1 -0.1)">
       <use xlink:href="#DejaVuSans-49"/>
      </g>
     </g>
    </g>
    <g id="ytick_10">
     <g id="line2d_13">
      <g>
       <use style="stroke:#000000;stroke-width:0.8;" x="28.942188" xlink:href="#meeade15c75" y="195.732552"/>
      </g>
     </g>
     <g id="text_13">
      <!-- 2 -->
      <g transform="translate(15.579688 199.531771)scale(0.1 -0.1)">
       <use xlink:href="#DejaVuSans-50"/>
      </g>
     </g>
    </g>
   </g>
   <g id="line2d_14">
    <path clip-path="url(#p96f5e53470)" d="M 28.942188 368.022186 
L 30.618345 359.466799 
L 32.294503 351.211715 
L 33.970661 343.259686 
L 35.646819 335.613108 
L 37.322977 328.274014 
L 38.999135 321.244081 
L 40.675293 314.524625 
L 42.351451 308.116605 
L 44.027609 302.020619 
L 45.703767 296.236908 
L 47.379925 290.765353 
L 49.056083 285.605475 
L 50.732241 280.756439 
L 52.408399 276.217048 
L 54.084557 271.985748 
L 55.760715 268.060624 
L 57.436872 264.439405 
L 59.11303 261.119458 
L 60.789188 258.097794 
L 62.465346 255.371062 
L 64.141504 252.935555 
L 65.817662 250.787204 
L 67.49382 248.921583 
L 69.169978 247.333908 
L 70.846136 246.019032 
L 72.522294 244.971455 
L 74.198452 244.185312 
L 75.87461 243.654384 
L 77.550768 243.372089 
L 79.226926 243.331489 
L 80.903084 243.525285 
L 82.579242 243.945822 
L 84.255399 244.585081 
L 85.931557 245.43469 
L 87.607715 246.485913 
L 89.283873 247.729658 
L 90.960031 249.156473 
L 92.636189 250.756547 
L 94.312347 252.519711 
L 95.988505 254.435436 
L 97.664663 256.492834 
L 99.340821 258.680658 
L 101.016979 260.987304 
L 102.693137 263.400805 
L 104.369295 265.90884 
L 106.045453 268.498725 
L 107.721611 271.15742 
L 109.397769 273.871523 
L 111.073926 276.627275 
L 112.750084 279.410559 
L 114.426242 282.206896 
L 116.1024 285.001451 
L 117.778558 287.779028 
L 119.454716 290.524073 
L 121.130874 293.220674 
L 122.807032 295.852558 
L 124.48319 298.403094 
L 126.159348 300.855292 
L 127.835506 303.191803 
L 129.511664 305.39492 
L 131.187822 307.446576 
L 132.86398 309.328344 
L 134.540138 311.02144 
L 136.216296 312.50672 
L 137.892453 313.764681 
L 139.568611 314.775463 
L 141.244769 315.518844 
L 142.920927 315.974244 
L 144.597085 316.120726 
L 146.273243 315.936992 
L 147.949401 315.401385 
L 149.625559 314.49189 
L 151.301717 313.186132 
L 152.977875 311.461378 
L 154.654033 309.294537 
L 156.330191 306.662156 
L 158.006349 303.540426 
L 159.682507 299.905177 
L 161.358665 295.731881 
L 163.034823 290.995652 
L 164.71098 285.671243 
L 166.387138 279.733048 
L 168.063296 273.155106 
L 169.739454 265.911091 
L 171.415612 257.974323 
L 173.09177 249.31776 
L 174.767928 239.914004 
L 176.444086 229.735294 
L 178.120244 218.753514 
L 179.796402 206.940186 
L 181.47256 194.266476 
L 183.148718 180.703188 
L 184.824876 166.220769 
L 186.501034 150.789307 
L 188.177192 134.378529 
L 189.85335 116.957806 
L 191.529507 98.496149 
L 193.205665 78.962208 
L 194.881823 58.324277 
" style="fill:none;stroke:#000000;stroke-linecap:square;stroke-width:1.5;"/>
   </g>
   <g id="patch_18">
    <path d="M 28.942188 359.665885 
L 28.942188 195.732552 
" style="fill:none;stroke:#000000;stroke-linecap:square;stroke-linejoin:miter;stroke-width:0.8;"/>
   </g>
   <g id="patch_19">
    <path d="M 194.881823 359.665885 
L 194.881823 195.732552 
" style="fill:none;stroke:#000000;stroke-linecap:square;stroke-linejoin:miter;stroke-width:0.8;"/>
   </g>
   <g id="patch_20">
    <path d="M 28.942188 359.665885 
L 194.881823 359.665885 
" style="fill:none;stroke:#000000;stroke-linecap:square;stroke-linejoin:miter;stroke-width:0.8;"/>
   </g>
   <g id="patch_21">
    <path d="M 28.942188 195.732552 
L 194.881823 195.732552 
" style="fill:none;stroke:#000000;stroke-linecap:square;stroke-linejoin:miter;stroke-width:0.8;"/>
   </g>
   <g id="text_14">
    <!-- D = 4 -->
    <g transform="translate(29.942556 348.973594)scale(0.12 -0.12)">
     <defs>
      <path d="M 37.796875 64.3125 
L 12.890625 25.390625 
L 37.796875 25.390625 
z
M 35.203125 72.90625 
L 47.609375 72.90625 
L 47.609375 25.390625 
L 58.015625 25.390625 
L 58.015625 17.1875 
L 47.609375 17.1875 
L 47.609375 0 
L 37.796875 0 
L 37.796875 17.1875 
L 4.890625 17.1875 
L 4.890625 26.703125 
z
" id="DejaVuSans-52"/>
     </defs>
     <use xlink:href="#DejaVuSans-68"/>
     <use x="77.001953" xlink:href="#DejaVuSans-32"/>
     <use x="108.789062" xlink:href="#DejaVuSans-61"/>
     <use x="192.578125" xlink:href="#DejaVuSans-32"/>
     <use x="224.365234" xlink:href="#DejaVuSans-52"/>
    </g>
   </g>
  </g>
  <g id="axes_5">
   <g id="patch_22">
    <path d="M 212.29737 359.665885 
L 378.237005 359.665885 
L 378.237005 195.732552 
L 212.29737 195.732552 
z
" style="fill:#ffffff;"/>
   </g>
   <g id="PathCollection_5">
    <g clip-path="url(#pd1cccd5d7e)">
     <use style="fill:#ff0000;stroke:#ff0000;stroke-width:1.5;" x="309.127177" xlink:href="#m78b2691dfc" y="303.273441"/>
     <use style="fill:#ff0000;stroke:#ff0000;stroke-width:1.5;" x="260.939322" xlink:href="#m78b2691dfc" y="240.744402"/>
     <use style="fill:#ff0000;stroke:#ff0000;stroke-width:1.5;" x="246.330321" xlink:href="#m78b2691dfc" y="258.190623"/>
     <use style="fill:#ff0000;stroke:#ff0000;stroke-width:1.5;" x="238.230155" xlink:href="#m78b2691dfc" y="278.224188"/>
     <use style="fill:#ff0000;stroke:#ff0000;stroke-width:1.5;" x="345.712438" xlink:href="#m78b2691dfc" y="286.447186"/>
     <use style="fill:#ff0000;stroke:#ff0000;stroke-width:1.5;" x="238.399484" xlink:href="#m78b2691dfc" y="267.225661"/>
     <use style="fill:#ff0000;stroke:#ff0000;stroke-width:1.5;" x="273.390222" xlink:href="#m78b2691dfc" y="247.894542"/>
     <use style="fill:#ff0000;stroke:#ff0000;stroke-width:1.5;" x="243.141455" xlink:href="#m78b2691dfc" y="252.016045"/>
     <use style="fill:#ff0000;stroke:#ff0000;stroke-width:1.5;" x="350.224352" xlink:href="#m78b2691dfc" y="282.927332"/>
     <use style="fill:#ff0000;stroke:#ff0000;stroke-width:1.5;" x="286.21812" xlink:href="#m78b2691dfc" y="263.876541"/>
    </g>
   </g>
   <g id="matplotlib.axis_9"/>
   <g id="matplotlib.axis_10"/>
   <g id="line2d_15">
    <path clip-path="url(#pd1cccd5d7e)" d="M 212.29737 368.004369 
L 213.973528 359.450344 
L 215.649685 351.196624 
L 217.325843 343.245948 
L 219.002001 335.600702 
L 220.678159 328.26291 
L 222.354317 321.23424 
L 224.030475 314.516001 
L 225.706633 308.109146 
L 227.382791 302.014267 
L 229.058949 296.231601 
L 230.735107 290.761023 
L 232.411265 285.602054 
L 234.087423 280.753853 
L 235.763581 276.215224 
L 237.439739 271.984611 
L 239.115897 268.0601 
L 240.792055 264.439417 
L 242.468212 261.119934 
L 244.14437 258.098659 
L 245.820528 255.372246 
L 247.496686 252.936988 
L 249.172844 250.78882 
L 250.849002 248.92332 
L 252.52516 247.335706 
L 254.201318 246.020837 
L 255.877476 244.973213 
L 257.553634 244.186977 
L 259.229792 243.655914 
L 260.90595 243.373446 
L 262.582108 243.33264 
L 264.258266 243.526204 
L 265.934424 243.946485 
L 267.610582 244.585473 
L 269.286739 245.434798 
L 270.962897 246.485732 
L 272.639055 247.729186 
L 274.315213 249.155715 
L 275.991371 250.755513 
L 277.667529 252.518415 
L 279.343687 254.433898 
L 281.019845 256.491077 
L 282.696003 258.678711 
L 284.372161 260.985199 
L 286.048319 263.398579 
L 287.724477 265.906532 
L 289.400635 268.496379 
L 291.076793 271.15508 
L 292.752951 273.869237 
L 294.429109 276.625094 
L 296.105266 279.408532 
L 297.781424 282.205076 
L 299.457582 284.999889 
L 301.13374 287.777776 
L 302.809898 290.523181 
L 304.486056 293.220189 
L 306.162214 295.852527 
L 307.838372 298.403559 
L 309.51453 300.856292 
L 311.190688 303.193373 
L 312.866846 305.397086 
L 314.543004 307.44936 
L 316.219162 309.331761 
L 317.89532 311.025495 
L 319.571478 312.51141 
L 321.247636 313.769992 
L 322.923793 314.781368 
L 324.599951 315.525306 
L 326.276109 315.981212 
L 327.952267 316.128132 
L 329.628425 315.944754 
L 331.304583 315.409403 
L 332.980741 314.500046 
L 334.656899 313.194288 
L 336.333057 311.469376 
L 338.009215 309.302195 
L 339.685373 306.669269 
L 341.361531 303.546763 
L 343.037689 299.910481 
L 344.713847 295.735868 
L 346.390005 290.998006 
L 348.066163 285.671618 
L 349.74232 279.731066 
L 351.418478 273.150352 
L 353.094636 265.903117 
L 354.770794 257.962642 
L 356.446952 249.301845 
L 358.12311 239.893287 
L 359.799268 229.709164 
L 361.475426 218.721315 
L 363.151584 206.901216 
L 364.827742 194.219983 
L 366.5039 180.64837 
L 368.180058 166.156773 
L 369.856216 150.715223 
L 371.532374 134.293393 
L 373.208532 116.860593 
L 374.88469 98.385774 
L 376.560847 78.837525 
L 378.237005 58.184073 
" style="fill:none;stroke:#000000;stroke-linecap:square;stroke-width:1.5;"/>
   </g>
   <g id="patch_23">
    <path d="M 212.29737 359.665885 
L 212.29737 195.732552 
" style="fill:none;stroke:#000000;stroke-linecap:square;stroke-linejoin:miter;stroke-width:0.8;"/>
   </g>
   <g id="patch_24">
    <path d="M 378.237005 359.665885 
L 378.237005 195.732552 
" style="fill:none;stroke:#000000;stroke-linecap:square;stroke-linejoin:miter;stroke-width:0.8;"/>
   </g>
   <g id="patch_25">
    <path d="M 212.29737 359.665885 
L 378.237005 359.665885 
" style="fill:none;stroke:#000000;stroke-linecap:square;stroke-linejoin:miter;stroke-width:0.8;"/>
   </g>
   <g id="patch_26">
    <path d="M 212.29737 195.732552 
L 378.237005 195.732552 
" style="fill:none;stroke:#000000;stroke-linecap:square;stroke-linejoin:miter;stroke-width:0.8;"/>
   </g>
   <g id="text_15">
    <!-- D = 5 -->
    <g transform="translate(213.297738 348.973594)scale(0.12 -0.12)">
     <defs>
      <path d="M 10.796875 72.90625 
L 49.515625 72.90625 
L 49.515625 64.59375 
L 19.828125 64.59375 
L 19.828125 46.734375 
Q 21.96875 47.46875 24.109375 47.828125 
Q 26.265625 48.1875 28.421875 48.1875 
Q 40.625 48.1875 47.75 41.5 
Q 54.890625 34.8125 54.890625 23.390625 
Q 54.890625 11.625 47.5625 5.09375 
Q 40.234375 -1.421875 26.90625 -1.421875 
Q 22.3125 -1.421875 17.546875 -0.640625 
Q 12.796875 0.140625 7.71875 1.703125 
L 7.71875 11.625 
Q 12.109375 9.234375 16.796875 8.0625 
Q 21.484375 6.890625 26.703125 6.890625 
Q 35.15625 6.890625 40.078125 11.328125 
Q 45.015625 15.765625 45.015625 23.390625 
Q 45.015625 31 40.078125 35.4375 
Q 35.15625 39.890625 26.703125 39.890625 
Q 22.75 39.890625 18.8125 39.015625 
Q 14.890625 38.140625 10.796875 36.28125 
z
" id="DejaVuSans-53"/>
     </defs>
     <use xlink:href="#DejaVuSans-68"/>
     <use x="77.001953" xlink:href="#DejaVuSans-32"/>
     <use x="108.789062" xlink:href="#DejaVuSans-61"/>
     <use x="192.578125" xlink:href="#DejaVuSans-32"/>
     <use x="224.365234" xlink:href="#DejaVuSans-53"/>
    </g>
   </g>
  </g>
  <g id="axes_6">
   <g id="patch_27">
    <path d="M 395.652552 359.665885 
L 561.592187 359.665885 
L 561.592187 195.732552 
L 395.652552 195.732552 
z
" style="fill:#ffffff;"/>
   </g>
   <g id="PathCollection_6">
    <g clip-path="url(#p3d04a7b135)">
     <use style="fill:#ff0000;stroke:#ff0000;stroke-width:1.5;" x="492.482359" xlink:href="#m78b2691dfc" y="303.273441"/>
     <use style="fill:#ff0000;stroke:#ff0000;stroke-width:1.5;" x="444.294504" xlink:href="#m78b2691dfc" y="240.744402"/>
     <use style="fill:#ff0000;stroke:#ff0000;stroke-width:1.5;" x="429.685503" xlink:href="#m78b2691dfc" y="258.190623"/>
     <use style="fill:#ff0000;stroke:#ff0000;stroke-width:1.5;" x="421.585337" xlink:href="#m78b2691dfc" y="278.224188"/>
     <use style="fill:#ff0000;stroke:#ff0000;stroke-width:1.5;" x="529.06762" xlink:href="#m78b2691dfc" y="286.447186"/>
     <use style="fill:#ff0000;stroke:#ff0000;stroke-width:1.5;" x="421.754666" xlink:href="#m78b2691dfc" y="267.225661"/>
     <use style="fill:#ff0000;stroke:#ff0000;stroke-width:1.5;" x="456.745404" xlink:href="#m78b2691dfc" y="247.894542"/>
     <use style="fill:#ff0000;stroke:#ff0000;stroke-width:1.5;" x="426.496637" xlink:href="#m78b2691dfc" y="252.016045"/>
     <use style="fill:#ff0000;stroke:#ff0000;stroke-width:1.5;" x="533.579534" xlink:href="#m78b2691dfc" y="282.927332"/>
     <use style="fill:#ff0000;stroke:#ff0000;stroke-width:1.5;" x="469.573302" xlink:href="#m78b2691dfc" y="263.876541"/>
    </g>
   </g>
   <g id="matplotlib.axis_11"/>
   <g id="matplotlib.axis_12"/>
   <g id="line2d_16">
    <path clip-path="url(#p3d04a7b135)" d="M 395.652552 369.864101 
L 397.32871 361.25543 
L 399.004868 352.937649 
L 400.681025 344.9134 
L 402.357183 337.185252 
L 404.033341 329.755664 
L 405.709499 322.626952 
L 407.385657 315.801262 
L 409.061815 309.280537 
L 410.737973 303.06649 
L 412.414131 297.160579 
L 414.090289 291.563979 
L 415.766447 286.277558 
L 417.442605 281.301856 
L 419.118763 276.637062 
L 420.794921 272.282995 
L 422.471079 268.239084 
L 424.147237 264.50435 
L 425.823395 261.077389 
L 427.499552 257.956362 
L 429.17571 255.138975 
L 430.851868 252.62247 
L 432.528026 250.403614 
L 434.204184 248.478686 
L 435.880342 246.843474 
L 437.5565 245.493265 
L 439.232658 244.422837 
L 440.908816 243.626459 
L 442.584974 243.097885 
L 444.261132 242.830351 
L 445.93729 242.816579 
L 447.613448 243.048773 
L 449.289606 243.518624 
L 450.965764 244.217313 
L 452.641922 245.135513 
L 454.318079 246.2634 
L 455.994237 247.590656 
L 457.670395 249.106479 
L 459.346553 250.799594 
L 461.022711 252.658264 
L 462.698869 254.670299 
L 464.375027 256.823078 
L 466.051185 259.103554 
L 467.727343 261.498279 
L 469.403501 263.993418 
L 471.079659 266.574769 
L 472.755817 269.22778 
L 474.431975 271.937579 
L 476.108133 274.688989 
L 477.784291 277.466555 
L 479.460449 280.254573 
L 481.136606 283.037111 
L 482.812764 285.798042 
L 484.488922 288.521074 
L 486.16508 291.189776 
L 487.841238 293.787616 
L 489.517396 296.297991 
L 491.193554 298.704263 
L 492.869712 300.989796 
L 494.54587 303.137991 
L 496.222028 305.132329 
L 497.898186 306.956408 
L 499.574344 308.593984 
L 501.250502 310.029016 
L 502.92666 311.245711 
L 504.602818 312.228565 
L 506.278976 312.962412 
L 507.955133 313.432476 
L 509.631291 313.624413 
L 511.307449 313.524366 
L 512.983607 313.119019 
L 514.659765 312.395646 
L 516.335923 311.342165 
L 518.012081 309.947201 
L 519.688239 308.200134 
L 521.364397 306.091166 
L 523.040555 303.611372 
L 524.716713 300.752772 
L 526.392871 297.508382 
L 528.069029 293.872287 
L 529.745187 289.839701 
L 531.421345 285.407036 
L 533.097503 280.571966 
L 534.77366 275.333501 
L 536.449818 269.692056 
L 538.125976 263.649518 
L 539.802134 257.209327 
L 541.478292 250.376543 
L 543.15445 243.157925 
L 544.830608 235.562009 
L 546.506766 227.599185 
L 548.182924 219.281773 
L 549.859082 210.624112 
L 551.53524 201.642634 
L 553.211398 192.355953 
L 554.887556 182.784945 
L 556.563714 172.952841 
L 558.239872 162.885306 
L 559.91603 152.610535 
L 561.592187 142.159339 
" style="fill:none;stroke:#000000;stroke-linecap:square;stroke-width:1.5;"/>
   </g>
   <g id="patch_28">
    <path d="M 395.652552 359.665885 
L 395.652552 195.732552 
" style="fill:none;stroke:#000000;stroke-linecap:square;stroke-linejoin:miter;stroke-width:0.8;"/>
   </g>
   <g id="patch_29">
    <path d="M 561.592187 359.665885 
L 561.592187 195.732552 
" style="fill:none;stroke:#000000;stroke-linecap:square;stroke-linejoin:miter;stroke-width:0.8;"/>
   </g>
   <g id="patch_30">
    <path d="M 395.652552 359.665885 
L 561.592187 359.665885 
" style="fill:none;stroke:#000000;stroke-linecap:square;stroke-linejoin:miter;stroke-width:0.8;"/>
   </g>
   <g id="patch_31">
    <path d="M 395.652552 195.732552 
L 561.592187 195.732552 
" style="fill:none;stroke:#000000;stroke-linecap:square;stroke-linejoin:miter;stroke-width:0.8;"/>
   </g>
   <g id="text_16">
    <!-- D = 6 -->
    <g transform="translate(396.65292 348.973594)scale(0.12 -0.12)">
     <defs>
      <path d="M 33.015625 40.375 
Q 26.375 40.375 22.484375 35.828125 
Q 18.609375 31.296875 18.609375 23.390625 
Q 18.609375 15.53125 22.484375 10.953125 
Q 26.375 6.390625 33.015625 6.390625 
Q 39.65625 6.390625 43.53125 10.953125 
Q 47.40625 15.53125 47.40625 23.390625 
Q 47.40625 31.296875 43.53125 35.828125 
Q 39.65625 40.375 33.015625 40.375 
z
M 52.59375 71.296875 
L 52.59375 62.3125 
Q 48.875 64.0625 45.09375 64.984375 
Q 41.3125 65.921875 37.59375 65.921875 
Q 27.828125 65.921875 22.671875 59.328125 
Q 17.53125 52.734375 16.796875 39.40625 
Q 19.671875 43.65625 24.015625 45.921875 
Q 28.375 48.1875 33.59375 48.1875 
Q 44.578125 48.1875 50.953125 41.515625 
Q 57.328125 34.859375 57.328125 23.390625 
Q 57.328125 12.15625 50.6875 5.359375 
Q 44.046875 -1.421875 33.015625 -1.421875 
Q 20.359375 -1.421875 13.671875 8.265625 
Q 6.984375 17.96875 6.984375 36.375 
Q 6.984375 53.65625 15.1875 63.9375 
Q 23.390625 74.21875 37.203125 74.21875 
Q 40.921875 74.21875 44.703125 73.484375 
Q 48.484375 72.75 52.59375 71.296875 
z
" id="DejaVuSans-54"/>
     </defs>
     <use xlink:href="#DejaVuSans-68"/>
     <use x="77.001953" xlink:href="#DejaVuSans-32"/>
     <use x="108.789062" xlink:href="#DejaVuSans-61"/>
     <use x="192.578125" xlink:href="#DejaVuSans-32"/>
     <use x="224.365234" xlink:href="#DejaVuSans-54"/>
    </g>
   </g>
  </g>
  <g id="axes_7">
   <g id="patch_32">
    <path d="M 28.942188 544.399219 
L 194.881823 544.399219 
L 194.881823 380.465885 
L 28.942188 380.465885 
z
" style="fill:#ffffff;"/>
   </g>
   <g id="PathCollection_7">
    <g clip-path="url(#p834988980d)">
     <use style="fill:#ff0000;stroke:#ff0000;stroke-width:1.5;" x="125.771995" xlink:href="#m78b2691dfc" y="488.006775"/>
     <use style="fill:#ff0000;stroke:#ff0000;stroke-width:1.5;" x="77.584139" xlink:href="#m78b2691dfc" y="425.477735"/>
     <use style="fill:#ff0000;stroke:#ff0000;stroke-width:1.5;" x="62.975139" xlink:href="#m78b2691dfc" y="442.923956"/>
     <use style="fill:#ff0000;stroke:#ff0000;stroke-width:1.5;" x="54.874973" xlink:href="#m78b2691dfc" y="462.957521"/>
     <use style="fill:#ff0000;stroke:#ff0000;stroke-width:1.5;" x="162.357256" xlink:href="#m78b2691dfc" y="471.180519"/>
     <use style="fill:#ff0000;stroke:#ff0000;stroke-width:1.5;" x="55.044302" xlink:href="#m78b2691dfc" y="451.958994"/>
     <use style="fill:#ff0000;stroke:#ff0000;stroke-width:1.5;" x="90.03504" xlink:href="#m78b2691dfc" y="432.627875"/>
     <use style="fill:#ff0000;stroke:#ff0000;stroke-width:1.5;" x="59.786273" xlink:href="#m78b2691dfc" y="436.749378"/>
     <use style="fill:#ff0000;stroke:#ff0000;stroke-width:1.5;" x="166.869169" xlink:href="#m78b2691dfc" y="467.660665"/>
     <use style="fill:#ff0000;stroke:#ff0000;stroke-width:1.5;" x="102.862938" xlink:href="#m78b2691dfc" y="448.609875"/>
    </g>
   </g>
   <g id="matplotlib.axis_13">
    <g id="xtick_1">
     <g id="line2d_17">
      <defs>
       <path d="M 0 0 
L 0 3.5 
" id="mb121a663f1" style="stroke:#000000;stroke-width:0.8;"/>
      </defs>
      <g>
       <use style="stroke:#000000;stroke-width:0.8;" x="52.64785" xlink:href="#mb121a663f1" y="544.399219"/>
      </g>
     </g>
     <g id="text_17">
      <!-- 0.0 -->
      <g transform="translate(44.696287 558.997656)scale(0.1 -0.1)">
       <defs>
        <path d="M 10.6875 12.40625 
L 21 12.40625 
L 21 0 
L 10.6875 0 
z
" id="DejaVuSans-46"/>
       </defs>
       <use xlink:href="#DejaVuSans-48"/>
       <use x="63.623047" xlink:href="#DejaVuSans-46"/>
       <use x="95.410156" xlink:href="#DejaVuSans-48"/>
      </g>
     </g>
    </g>
    <g id="xtick_2">
     <g id="line2d_18">
      <g>
       <use style="stroke:#000000;stroke-width:0.8;" x="111.912005" xlink:href="#mb121a663f1" y="544.399219"/>
      </g>
     </g>
     <g id="text_18">
      <!-- 0.5 -->
      <g transform="translate(103.960443 558.997656)scale(0.1 -0.1)">
       <use xlink:href="#DejaVuSans-48"/>
       <use x="63.623047" xlink:href="#DejaVuSans-46"/>
       <use x="95.410156" xlink:href="#DejaVuSans-53"/>
      </g>
     </g>
    </g>
    <g id="xtick_3">
     <g id="line2d_19">
      <g>
       <use style="stroke:#000000;stroke-width:0.8;" x="171.176161" xlink:href="#mb121a663f1" y="544.399219"/>
      </g>
     </g>
     <g id="text_19">
      <!-- 1.0 -->
      <g transform="translate(163.224599 558.997656)scale(0.1 -0.1)">
       <use xlink:href="#DejaVuSans-49"/>
       <use x="63.623047" xlink:href="#DejaVuSans-46"/>
       <use x="95.410156" xlink:href="#DejaVuSans-48"/>
      </g>
     </g>
    </g>
   </g>
   <g id="matplotlib.axis_14">
    <g id="ytick_11">
     <g id="line2d_20">
      <g>
       <use style="stroke:#000000;stroke-width:0.8;" x="28.942188" xlink:href="#meeade15c75" y="544.399219"/>
      </g>
     </g>
     <g id="text_20">
      <!-- −2 -->
      <g transform="translate(7.2 548.198437)scale(0.1 -0.1)">
       <use xlink:href="#DejaVuSans-8722"/>
       <use x="83.789062" xlink:href="#DejaVuSans-50"/>
      </g>
     </g>
    </g>
    <g id="ytick_12">
     <g id="line2d_21">
      <g>
       <use style="stroke:#000000;stroke-width:0.8;" x="28.942188" xlink:href="#meeade15c75" y="503.415885"/>
      </g>
     </g>
     <g id="text_21">
      <!-- −1 -->
      <g transform="translate(7.2 507.215104)scale(0.1 -0.1)">
       <use xlink:href="#DejaVuSans-8722"/>
       <use x="83.789062" xlink:href="#DejaVuSans-49"/>
      </g>
     </g>
    </g>
    <g id="ytick_13">
     <g id="line2d_22">
      <g>
       <use style="stroke:#000000;stroke-width:0.8;" x="28.942188" xlink:href="#meeade15c75" y="462.432552"/>
      </g>
     </g>
     <g id="text_22">
      <!-- 0 -->
      <g transform="translate(15.579688 466.231771)scale(0.1 -0.1)">
       <use xlink:href="#DejaVuSans-48"/>
      </g>
     </g>
    </g>
    <g id="ytick_14">
     <g id="line2d_23">
      <g>
       <use style="stroke:#000000;stroke-width:0.8;" x="28.942188" xlink:href="#meeade15c75" y="421.449219"/>
      </g>
     </g>
     <g id="text_23">
      <!-- 1 -->
      <g transform="translate(15.579688 425.248438)scale(0.1 -0.1)">
       <use xlink:href="#DejaVuSans-49"/>
      </g>
     </g>
    </g>
    <g id="ytick_15">
     <g id="line2d_24">
      <g>
       <use style="stroke:#000000;stroke-width:0.8;" x="28.942188" xlink:href="#meeade15c75" y="380.465885"/>
      </g>
     </g>
     <g id="text_24">
      <!-- 2 -->
      <g transform="translate(15.579688 384.265104)scale(0.1 -0.1)">
       <use xlink:href="#DejaVuSans-50"/>
      </g>
     </g>
    </g>
   </g>
   <g id="line2d_25">
    <path clip-path="url(#p834988980d)" d="M 28.942188 552.110646 
L 30.618345 543.854168 
L 32.294503 535.858682 
L 33.970661 528.127805 
L 35.646819 520.665026 
L 37.322977 513.473697 
L 38.999135 506.557027 
L 40.675293 499.918069 
L 42.351451 493.559712 
L 44.027609 487.484663 
L 45.703767 481.695431 
L 47.379925 476.194311 
L 49.056083 470.983361 
L 50.732241 466.064384 
L 52.408399 461.438907 
L 54.084557 457.108154 
L 55.760715 453.073028 
L 57.436872 449.334081 
L 59.11303 445.891493 
L 60.789188 442.745046 
L 62.465346 439.8941 
L 64.141504 437.337566 
L 65.817662 435.073883 
L 67.49382 433.100994 
L 69.169978 431.416321 
L 70.846136 430.016743 
L 72.522294 428.898577 
L 74.198452 428.057552 
L 75.87461 427.488793 
L 77.550768 427.186804 
L 79.226926 427.145449 
L 80.903084 427.35794 
L 82.579242 427.816826 
L 84.255399 428.513977 
L 85.931557 429.440584 
L 87.607715 430.58715 
L 89.283873 431.943485 
L 90.960031 433.498714 
L 92.636189 435.241272 
L 94.312347 437.158918 
L 95.988505 439.23874 
L 97.664663 441.467173 
L 99.340821 443.830014 
L 101.016979 446.312444 
L 102.693137 448.899055 
L 104.369295 451.573879 
L 106.045453 454.320423 
L 107.721611 457.121709 
L 109.397769 459.960314 
L 111.073926 462.818425 
L 112.750084 465.67789 
L 114.426242 468.520276 
L 116.1024 471.326939 
L 117.778558 474.079089 
L 119.454716 476.75787 
L 121.130874 479.344445 
L 122.807032 481.820078 
L 124.48319 484.166237 
L 126.159348 486.364691 
L 127.835506 488.397621 
L 129.511664 490.247734 
L 131.187822 491.898387 
L 132.86398 493.333719 
L 134.540138 494.538783 
L 136.216296 495.499697 
L 137.892453 496.203793 
L 139.568611 496.639781 
L 141.244769 496.797914 
L 142.920927 496.67017 
L 144.597085 496.250436 
L 146.273243 495.534701 
L 147.949401 494.521262 
L 149.625559 493.210935 
L 151.301717 491.607279 
L 152.977875 489.716823 
L 154.654033 487.54931 
L 156.330191 485.117949 
L 158.006349 482.439668 
L 159.682507 479.535394 
L 161.358665 476.430327 
L 163.034823 473.154232 
L 164.71098 469.741744 
L 166.387138 466.232678 
L 168.063296 462.672352 
L 169.739454 459.111924 
L 171.415612 455.608735 
L 173.09177 452.226668 
L 174.767928 449.036519 
L 176.444086 446.116374 
L 178.120244 443.552004 
L 179.796402 441.437272 
L 181.47256 439.874547 
L 183.148718 438.975137 
L 184.824876 438.859727 
L 186.501034 439.658844 
L 188.177192 441.513314 
L 189.85335 444.574753 
L 191.529507 449.006059 
L 193.205665 454.981921 
L 194.881823 462.689342 
" style="fill:none;stroke:#000000;stroke-linecap:square;stroke-width:1.5;"/>
   </g>
   <g id="patch_33">
    <path d="M 28.942188 544.399219 
L 28.942188 380.465885 
" style="fill:none;stroke:#000000;stroke-linecap:square;stroke-linejoin:miter;stroke-width:0.8;"/>
   </g>
   <g id="patch_34">
    <path d="M 194.881823 544.399219 
L 194.881823 380.465885 
" style="fill:none;stroke:#000000;stroke-linecap:square;stroke-linejoin:miter;stroke-width:0.8;"/>
   </g>
   <g id="patch_35">
    <path d="M 28.942188 544.399219 
L 194.881823 544.399219 
" style="fill:none;stroke:#000000;stroke-linecap:square;stroke-linejoin:miter;stroke-width:0.8;"/>
   </g>
   <g id="patch_36">
    <path d="M 28.942188 380.465885 
L 194.881823 380.465885 
" style="fill:none;stroke:#000000;stroke-linecap:square;stroke-linejoin:miter;stroke-width:0.8;"/>
   </g>
   <g id="text_25">
    <!-- D = 7 -->
    <g transform="translate(29.942556 533.706927)scale(0.12 -0.12)">
     <defs>
      <path d="M 8.203125 72.90625 
L 55.078125 72.90625 
L 55.078125 68.703125 
L 28.609375 0 
L 18.3125 0 
L 43.21875 64.59375 
L 8.203125 64.59375 
z
" id="DejaVuSans-55"/>
     </defs>
     <use xlink:href="#DejaVuSans-68"/>
     <use x="77.001953" xlink:href="#DejaVuSans-32"/>
     <use x="108.789062" xlink:href="#DejaVuSans-61"/>
     <use x="192.578125" xlink:href="#DejaVuSans-32"/>
     <use x="224.365234" xlink:href="#DejaVuSans-55"/>
    </g>
   </g>
  </g>
  <g id="axes_8">
   <g id="patch_37">
    <path d="M 212.29737 544.399219 
L 378.237005 544.399219 
L 378.237005 380.465885 
L 212.29737 380.465885 
z
" style="fill:#ffffff;"/>
   </g>
   <g id="PathCollection_8">
    <g clip-path="url(#p67b0e75d31)">
     <use style="fill:#ff0000;stroke:#ff0000;stroke-width:1.5;" x="309.127177" xlink:href="#m78b2691dfc" y="488.006775"/>
     <use style="fill:#ff0000;stroke:#ff0000;stroke-width:1.5;" x="260.939322" xlink:href="#m78b2691dfc" y="425.477735"/>
     <use style="fill:#ff0000;stroke:#ff0000;stroke-width:1.5;" x="246.330321" xlink:href="#m78b2691dfc" y="442.923956"/>
     <use style="fill:#ff0000;stroke:#ff0000;stroke-width:1.5;" x="238.230155" xlink:href="#m78b2691dfc" y="462.957521"/>
     <use style="fill:#ff0000;stroke:#ff0000;stroke-width:1.5;" x="345.712438" xlink:href="#m78b2691dfc" y="471.180519"/>
     <use style="fill:#ff0000;stroke:#ff0000;stroke-width:1.5;" x="238.399484" xlink:href="#m78b2691dfc" y="451.958994"/>
     <use style="fill:#ff0000;stroke:#ff0000;stroke-width:1.5;" x="273.390222" xlink:href="#m78b2691dfc" y="432.627875"/>
     <use style="fill:#ff0000;stroke:#ff0000;stroke-width:1.5;" x="243.141455" xlink:href="#m78b2691dfc" y="436.749378"/>
     <use style="fill:#ff0000;stroke:#ff0000;stroke-width:1.5;" x="350.224352" xlink:href="#m78b2691dfc" y="467.660665"/>
     <use style="fill:#ff0000;stroke:#ff0000;stroke-width:1.5;" x="286.21812" xlink:href="#m78b2691dfc" y="448.609875"/>
    </g>
   </g>
   <g id="matplotlib.axis_15">
    <g id="xtick_4">
     <g id="line2d_26">
      <g>
       <use style="stroke:#000000;stroke-width:0.8;" x="236.003032" xlink:href="#mb121a663f1" y="544.399219"/>
      </g>
     </g>
     <g id="text_26">
      <!-- 0.0 -->
      <g transform="translate(228.051469 558.997656)scale(0.1 -0.1)">
       <use xlink:href="#DejaVuSans-48"/>
       <use x="63.623047" xlink:href="#DejaVuSans-46"/>
       <use x="95.410156" xlink:href="#DejaVuSans-48"/>
      </g>
     </g>
    </g>
    <g id="xtick_5">
     <g id="line2d_27">
      <g>
       <use style="stroke:#000000;stroke-width:0.8;" x="295.267187" xlink:href="#mb121a663f1" y="544.399219"/>
      </g>
     </g>
     <g id="text_27">
      <!-- 0.5 -->
      <g transform="translate(287.315625 558.997656)scale(0.1 -0.1)">
       <use xlink:href="#DejaVuSans-48"/>
       <use x="63.623047" xlink:href="#DejaVuSans-46"/>
       <use x="95.410156" xlink:href="#DejaVuSans-53"/>
      </g>
     </g>
    </g>
    <g id="xtick_6">
     <g id="line2d_28">
      <g>
       <use style="stroke:#000000;stroke-width:0.8;" x="354.531343" xlink:href="#mb121a663f1" y="544.399219"/>
      </g>
     </g>
     <g id="text_28">
      <!-- 1.0 -->
      <g transform="translate(346.579781 558.997656)scale(0.1 -0.1)">
       <use xlink:href="#DejaVuSans-49"/>
       <use x="63.623047" xlink:href="#DejaVuSans-46"/>
       <use x="95.410156" xlink:href="#DejaVuSans-48"/>
      </g>
     </g>
    </g>
   </g>
   <g id="matplotlib.axis_16"/>
   <g id="line2d_29">
    <path clip-path="url(#p67b0e75d31)" d="M 212.29737 548.044952 
L 213.973528 540.213671 
L 215.649685 532.620171 
L 217.325843 525.267914 
L 219.002001 518.160315 
L 220.678159 511.300721 
L 222.354317 504.692405 
L 224.030475 498.33855 
L 225.706633 492.242237 
L 227.382791 486.406429 
L 229.058949 480.833954 
L 230.735107 475.527495 
L 232.411265 470.489567 
L 234.087423 465.722503 
L 235.763581 461.228431 
L 237.439739 457.009256 
L 239.115897 453.066641 
L 240.792055 449.401976 
L 242.468212 446.016363 
L 244.14437 442.910587 
L 245.820528 440.085086 
L 247.496686 437.539931 
L 249.172844 435.274792 
L 250.849002 433.288912 
L 252.52516 431.581077 
L 254.201318 430.149582 
L 255.877476 428.992207 
L 257.553634 428.10618 
L 259.229792 427.48815 
L 260.90595 427.134154 
L 262.582108 427.039588 
L 264.258266 427.199181 
L 265.934424 427.606958 
L 267.610582 428.256225 
L 269.286739 429.139532 
L 270.962897 430.24866 
L 272.639055 431.574592 
L 274.315213 433.107502 
L 275.991371 434.836733 
L 277.667529 436.750793 
L 279.343687 438.837342 
L 281.019845 441.083193 
L 282.696003 443.474311 
L 284.372161 445.995825 
L 286.048319 448.632036 
L 287.724477 451.366443 
L 289.400635 454.181763 
L 291.076793 457.059975 
L 292.752951 459.982353 
L 294.429109 462.929526 
L 296.105266 465.881536 
L 297.781424 468.817906 
L 299.457582 471.717728 
L 301.13374 474.559754 
L 302.809898 477.322501 
L 304.486056 479.984369 
L 306.162214 482.523776 
L 307.838372 484.919303 
L 309.51453 487.149854 
L 311.190688 489.194837 
L 312.866846 491.034357 
L 314.543004 492.649428 
L 316.219162 494.022203 
L 317.89532 495.136226 
L 319.571478 495.976702 
L 321.247636 496.530784 
L 322.923793 496.787895 
L 324.599951 496.740056 
L 326.276109 496.382252 
L 327.952267 495.712818 
L 329.628425 494.733846 
L 331.304583 493.451628 
L 332.980741 491.877124 
L 334.656899 490.026453 
L 336.333057 487.921426 
L 338.009215 485.590096 
L 339.685373 483.067358 
L 341.361531 480.395564 
L 343.037689 477.625187 
L 344.713847 474.815515 
L 346.390005 472.035384 
L 348.066163 469.363945 
L 349.74232 466.891478 
L 351.418478 464.720242 
L 353.094636 462.965366 
L 354.770794 461.755792 
L 356.446952 461.23525 
L 358.12311 461.563289 
L 359.799268 462.916354 
L 361.475426 465.488906 
L 363.151584 469.494602 
L 364.827742 475.167517 
L 366.5039 482.763425 
L 368.180058 492.561135 
L 369.856216 504.863879 
L 371.532374 520.000759 
L 373.208532 538.328256 
L 374.88469 560.231796 
L 375.470186 569.277344 
" style="fill:none;stroke:#000000;stroke-linecap:square;stroke-width:1.5;"/>
   </g>
   <g id="patch_38">
    <path d="M 212.29737 544.399219 
L 212.29737 380.465885 
" style="fill:none;stroke:#000000;stroke-linecap:square;stroke-linejoin:miter;stroke-width:0.8;"/>
   </g>
   <g id="patch_39">
    <path d="M 378.237005 544.399219 
L 378.237005 380.465885 
" style="fill:none;stroke:#000000;stroke-linecap:square;stroke-linejoin:miter;stroke-width:0.8;"/>
   </g>
   <g id="patch_40">
    <path d="M 212.29737 544.399219 
L 378.237005 544.399219 
" style="fill:none;stroke:#000000;stroke-linecap:square;stroke-linejoin:miter;stroke-width:0.8;"/>
   </g>
   <g id="patch_41">
    <path d="M 212.29737 380.465885 
L 378.237005 380.465885 
" style="fill:none;stroke:#000000;stroke-linecap:square;stroke-linejoin:miter;stroke-width:0.8;"/>
   </g>
   <g id="text_29">
    <!-- D = 8 -->
    <g transform="translate(213.297738 533.706927)scale(0.12 -0.12)">
     <defs>
      <path d="M 31.78125 34.625 
Q 24.75 34.625 20.71875 30.859375 
Q 16.703125 27.09375 16.703125 20.515625 
Q 16.703125 13.921875 20.71875 10.15625 
Q 24.75 6.390625 31.78125 6.390625 
Q 38.8125 6.390625 42.859375 10.171875 
Q 46.921875 13.96875 46.921875 20.515625 
Q 46.921875 27.09375 42.890625 30.859375 
Q 38.875 34.625 31.78125 34.625 
z
M 21.921875 38.8125 
Q 15.578125 40.375 12.03125 44.71875 
Q 8.5 49.078125 8.5 55.328125 
Q 8.5 64.0625 14.71875 69.140625 
Q 20.953125 74.21875 31.78125 74.21875 
Q 42.671875 74.21875 48.875 69.140625 
Q 55.078125 64.0625 55.078125 55.328125 
Q 55.078125 49.078125 51.53125 44.71875 
Q 48 40.375 41.703125 38.8125 
Q 48.828125 37.15625 52.796875 32.3125 
Q 56.78125 27.484375 56.78125 20.515625 
Q 56.78125 9.90625 50.3125 4.234375 
Q 43.84375 -1.421875 31.78125 -1.421875 
Q 19.734375 -1.421875 13.25 4.234375 
Q 6.78125 9.90625 6.78125 20.515625 
Q 6.78125 27.484375 10.78125 32.3125 
Q 14.796875 37.15625 21.921875 38.8125 
z
M 18.3125 54.390625 
Q 18.3125 48.734375 21.84375 45.5625 
Q 25.390625 42.390625 31.78125 42.390625 
Q 38.140625 42.390625 41.71875 45.5625 
Q 45.3125 48.734375 45.3125 54.390625 
Q 45.3125 60.0625 41.71875 63.234375 
Q 38.140625 66.40625 31.78125 66.40625 
Q 25.390625 66.40625 21.84375 63.234375 
Q 18.3125 60.0625 18.3125 54.390625 
z
" id="DejaVuSans-56"/>
     </defs>
     <use xlink:href="#DejaVuSans-68"/>
     <use x="77.001953" xlink:href="#DejaVuSans-32"/>
     <use x="108.789062" xlink:href="#DejaVuSans-61"/>
     <use x="192.578125" xlink:href="#DejaVuSans-32"/>
     <use x="224.365234" xlink:href="#DejaVuSans-56"/>
    </g>
   </g>
  </g>
  <g id="axes_9">
   <g id="patch_42">
    <path d="M 395.652552 544.399219 
L 561.592187 544.399219 
L 561.592187 380.465885 
L 395.652552 380.465885 
z
" style="fill:#ffffff;"/>
   </g>
   <g id="PathCollection_9">
    <g clip-path="url(#paf364dcbac)">
     <use style="fill:#ff0000;stroke:#ff0000;stroke-width:1.5;" x="492.482359" xlink:href="#m78b2691dfc" y="488.006775"/>
     <use style="fill:#ff0000;stroke:#ff0000;stroke-width:1.5;" x="444.294504" xlink:href="#m78b2691dfc" y="425.477735"/>
     <use style="fill:#ff0000;stroke:#ff0000;stroke-width:1.5;" x="429.685503" xlink:href="#m78b2691dfc" y="442.923956"/>
     <use style="fill:#ff0000;stroke:#ff0000;stroke-width:1.5;" x="421.585337" xlink:href="#m78b2691dfc" y="462.957521"/>
     <use style="fill:#ff0000;stroke:#ff0000;stroke-width:1.5;" x="529.06762" xlink:href="#m78b2691dfc" y="471.180519"/>
     <use style="fill:#ff0000;stroke:#ff0000;stroke-width:1.5;" x="421.754666" xlink:href="#m78b2691dfc" y="451.958994"/>
     <use style="fill:#ff0000;stroke:#ff0000;stroke-width:1.5;" x="456.745404" xlink:href="#m78b2691dfc" y="432.627875"/>
     <use style="fill:#ff0000;stroke:#ff0000;stroke-width:1.5;" x="426.496637" xlink:href="#m78b2691dfc" y="436.749378"/>
     <use style="fill:#ff0000;stroke:#ff0000;stroke-width:1.5;" x="533.579534" xlink:href="#m78b2691dfc" y="467.660665"/>
     <use style="fill:#ff0000;stroke:#ff0000;stroke-width:1.5;" x="469.573302" xlink:href="#m78b2691dfc" y="448.609875"/>
    </g>
   </g>
   <g id="matplotlib.axis_17">
    <g id="xtick_7">
     <g id="line2d_30">
      <g>
       <use style="stroke:#000000;stroke-width:0.8;" x="419.358214" xlink:href="#mb121a663f1" y="544.399219"/>
      </g>
     </g>
     <g id="text_30">
      <!-- 0.0 -->
      <g transform="translate(411.406651 558.997656)scale(0.1 -0.1)">
       <use xlink:href="#DejaVuSans-48"/>
       <use x="63.623047" xlink:href="#DejaVuSans-46"/>
       <use x="95.410156" xlink:href="#DejaVuSans-48"/>
      </g>
     </g>
    </g>
    <g id="xtick_8">
     <g id="line2d_31">
      <g>
       <use style="stroke:#000000;stroke-width:0.8;" x="478.62237" xlink:href="#mb121a663f1" y="544.399219"/>
      </g>
     </g>
     <g id="text_31">
      <!-- 0.5 -->
      <g transform="translate(470.670807 558.997656)scale(0.1 -0.1)">
       <use xlink:href="#DejaVuSans-48"/>
       <use x="63.623047" xlink:href="#DejaVuSans-46"/>
       <use x="95.410156" xlink:href="#DejaVuSans-53"/>
      </g>
     </g>
    </g>
    <g id="xtick_9">
     <g id="line2d_32">
      <g>
       <use style="stroke:#000000;stroke-width:0.8;" x="537.886525" xlink:href="#mb121a663f1" y="544.399219"/>
      </g>
     </g>
     <g id="text_32">
      <!-- 1.0 -->
      <g transform="translate(529.934963 558.997656)scale(0.1 -0.1)">
       <use xlink:href="#DejaVuSans-49"/>
       <use x="63.623047" xlink:href="#DejaVuSans-46"/>
       <use x="95.410156" xlink:href="#DejaVuSans-48"/>
      </g>
     </g>
    </g>
   </g>
   <g id="matplotlib.axis_18"/>
   <g id="line2d_33">
    <path clip-path="url(#paf364dcbac)" d="M 395.652552 544.609362 
L 397.32871 537.098389 
L 399.004868 529.81148 
L 400.681025 522.75186 
L 402.357183 515.922715 
L 404.033341 509.327178 
L 405.709499 502.968331 
L 407.385657 496.849185 
L 409.061815 490.97268 
L 410.737973 485.341665 
L 412.414131 479.958895 
L 414.090289 474.827012 
L 415.766447 469.948531 
L 417.442605 465.325832 
L 419.118763 460.961137 
L 420.794921 456.856494 
L 422.471079 453.013764 
L 424.147237 449.434596 
L 425.823395 446.120408 
L 427.499552 443.072366 
L 429.17571 440.291358 
L 430.851868 437.777972 
L 432.528026 435.532468 
L 434.204184 433.554752 
L 435.880342 431.844342 
L 437.5565 430.400345 
L 439.232658 429.22142 
L 440.908816 428.305746 
L 442.584974 427.65099 
L 444.261132 427.254269 
L 445.93729 427.112119 
L 447.613448 427.220453 
L 449.289606 427.574528 
L 450.965764 428.168911 
L 452.641922 428.997435 
L 454.318079 430.053171 
L 455.994237 431.328388 
L 457.670395 432.814522 
L 459.346553 434.502144 
L 461.022711 436.380932 
L 462.698869 438.43964 
L 464.375027 440.666084 
L 466.051185 443.047114 
L 467.727343 445.568611 
L 469.403501 448.215468 
L 471.079659 450.971601 
L 472.755817 453.819946 
L 474.431975 456.742481 
L 476.108133 459.720247 
L 477.784291 462.733386 
L 479.460449 465.761188 
L 481.136606 468.782149 
L 482.812764 471.774052 
L 484.488922 474.714053 
L 486.16508 477.578791 
L 487.841238 480.344517 
L 489.517396 482.987239 
L 491.193554 485.482896 
L 492.869712 487.807549 
L 494.54587 489.937605 
L 496.222028 491.850062 
L 497.898186 493.522792 
L 499.574344 494.934847 
L 501.250502 496.06681 
L 502.92666 496.901176 
L 504.602818 497.422771 
L 506.278976 497.619221 
L 507.955133 497.481461 
L 509.631291 497.004287 
L 511.307449 496.186967 
L 512.983607 495.033903 
L 514.659765 493.555345 
L 516.335923 491.768171 
L 518.012081 489.696724 
L 519.688239 487.373724 
L 521.364397 484.841244 
L 523.040555 482.151758 
L 524.716713 479.369277 
L 526.392871 476.570557 
L 528.069029 473.846396 
L 529.745187 471.303025 
L 531.421345 469.063588 
L 533.097503 467.269727 
L 534.77366 466.083264 
L 536.449818 465.687997 
L 538.125976 466.29161 
L 539.802134 468.127697 
L 541.478292 471.457915 
L 543.15445 476.574262 
L 544.830608 483.801492 
L 546.506766 493.499672 
L 548.182924 506.066879 
L 549.859082 521.942062 
L 551.53524 541.608045 
L 553.211398 565.59471 
L 553.425077 569.277344 
" style="fill:none;stroke:#000000;stroke-linecap:square;stroke-width:1.5;"/>
   </g>
   <g id="patch_43">
    <path d="M 395.652552 544.399219 
L 395.652552 380.465885 
" style="fill:none;stroke:#000000;stroke-linecap:square;stroke-linejoin:miter;stroke-width:0.8;"/>
   </g>
   <g id="patch_44">
    <path d="M 561.592187 544.399219 
L 561.592187 380.465885 
" style="fill:none;stroke:#000000;stroke-linecap:square;stroke-linejoin:miter;stroke-width:0.8;"/>
   </g>
   <g id="patch_45">
    <path d="M 395.652552 544.399219 
L 561.592187 544.399219 
" style="fill:none;stroke:#000000;stroke-linecap:square;stroke-linejoin:miter;stroke-width:0.8;"/>
   </g>
   <g id="patch_46">
    <path d="M 395.652552 380.465885 
L 561.592187 380.465885 
" style="fill:none;stroke:#000000;stroke-linecap:square;stroke-linejoin:miter;stroke-width:0.8;"/>
   </g>
   <g id="text_33">
    <!-- D = 9 -->
    <g transform="translate(396.65292 533.706927)scale(0.12 -0.12)">
     <defs>
      <path d="M 10.984375 1.515625 
L 10.984375 10.5 
Q 14.703125 8.734375 18.5 7.8125 
Q 22.3125 6.890625 25.984375 6.890625 
Q 35.75 6.890625 40.890625 13.453125 
Q 46.046875 20.015625 46.78125 33.40625 
Q 43.953125 29.203125 39.59375 26.953125 
Q 35.25 24.703125 29.984375 24.703125 
Q 19.046875 24.703125 12.671875 31.3125 
Q 6.296875 37.9375 6.296875 49.421875 
Q 6.296875 60.640625 12.9375 67.421875 
Q 19.578125 74.21875 30.609375 74.21875 
Q 43.265625 74.21875 49.921875 64.515625 
Q 56.59375 54.828125 56.59375 36.375 
Q 56.59375 19.140625 48.40625 8.859375 
Q 40.234375 -1.421875 26.421875 -1.421875 
Q 22.703125 -1.421875 18.890625 -0.6875 
Q 15.09375 0.046875 10.984375 1.515625 
z
M 30.609375 32.421875 
Q 37.25 32.421875 41.125 36.953125 
Q 45.015625 41.5 45.015625 49.421875 
Q 45.015625 57.28125 41.125 61.84375 
Q 37.25 66.40625 30.609375 66.40625 
Q 23.96875 66.40625 20.09375 61.84375 
Q 16.21875 57.28125 16.21875 49.421875 
Q 16.21875 41.5 20.09375 36.953125 
Q 23.96875 32.421875 30.609375 32.421875 
z
" id="DejaVuSans-57"/>
     </defs>
     <use xlink:href="#DejaVuSans-68"/>
     <use x="77.001953" xlink:href="#DejaVuSans-32"/>
     <use x="108.789062" xlink:href="#DejaVuSans-61"/>
     <use x="192.578125" xlink:href="#DejaVuSans-32"/>
     <use x="224.365234" xlink:href="#DejaVuSans-57"/>
    </g>
   </g>
  </g>
 </g>
 <defs>
  <clipPath id="p85e430d9a9">
   <rect height="163.933333" width="165.939636" x="28.942188" y="10.999219"/>
  </clipPath>
  <clipPath id="p0cc2b6503f">
   <rect height="163.933333" width="165.939636" x="212.29737" y="10.999219"/>
  </clipPath>
  <clipPath id="p42383c0612">
   <rect height="163.933333" width="165.939636" x="395.652552" y="10.999219"/>
  </clipPath>
  <clipPath id="p96f5e53470">
   <rect height="163.933333" width="165.939636" x="28.942188" y="195.732552"/>
  </clipPath>
  <clipPath id="pd1cccd5d7e">
   <rect height="163.933333" width="165.939636" x="212.29737" y="195.732552"/>
  </clipPath>
  <clipPath id="p3d04a7b135">
   <rect height="163.933333" width="165.939636" x="395.652552" y="195.732552"/>
  </clipPath>
  <clipPath id="p834988980d">
   <rect height="163.933333" width="165.939636" x="28.942188" y="380.465885"/>
  </clipPath>
  <clipPath id="p67b0e75d31">
   <rect height="163.933333" width="165.939636" x="212.29737" y="380.465885"/>
  </clipPath>
  <clipPath id="paf364dcbac">
   <rect height="163.933333" width="165.939636" x="395.652552" y="380.465885"/>
  </clipPath>
 </defs>
</svg>
