<?xml version="1.0" encoding="utf-8" standalone="no"?>
<!DOCTYPE svg PUBLIC "-//W3C//DTD SVG 1.1//EN"
  "http://www.w3.org/Graphics/SVG/1.1/DTD/svg11.dtd">
<!-- Created with matplotlib (http://matplotlib.org/) -->
<svg height="278.600938pt" version="1.1" viewBox="0 0 424.61375 278.600938" width="424.61375pt" xmlns="http://www.w3.org/2000/svg" xmlns:xlink="http://www.w3.org/1999/xlink">
 <defs>
  <style type="text/css">
*{stroke-linecap:butt;stroke-linejoin:round;}
  </style>
 </defs>
 <g id="figure_1">
  <g id="patch_1">
   <path d="M -0 278.600938 
L 424.61375 278.600938 
L 424.61375 0 
L -0 0 
z
" style="fill:none;"/>
  </g>
  <g id="axes_1">
   <g id="patch_2">
    <path d="M 60.88875 235.237813 
L 199.43875 235.237813 
L 199.43875 23.837812 
L 60.88875 23.837812 
z
" style="fill:#ffffff;"/>
   </g>
   <g id="PathCollection_1">
    <defs>
     <path d="M -3 3 
L 3 -3 
M -3 -3 
L 3 3 
" id="mdd6b3a1473" style="stroke:#ff0000;stroke-width:1.5;"/>
    </defs>
    <g clip-path="url(#p5c414fc227)">
     <use style="fill:#ff0000;stroke:#ff0000;stroke-width:1.5;" x="140.684013" xlink:href="#mdd6b3a1473" y="149.644167"/>
     <use style="fill:#ff0000;stroke:#ff0000;stroke-width:1.5;" x="104.107584" xlink:href="#mdd6b3a1473" y="35.02483"/>
     <use style="fill:#ff0000;stroke:#ff0000;stroke-width:1.5;" x="93.018792" xlink:href="#mdd6b3a1473" y="67.00476"/>
     <use style="fill:#ff0000;stroke:#ff0000;stroke-width:1.5;" x="86.870456" xlink:href="#mdd6b3a1473" y="103.727441"/>
     <use style="fill:#ff0000;stroke:#ff0000;stroke-width:1.5;" x="168.453629" xlink:href="#mdd6b3a1473" y="118.80067"/>
     <use style="fill:#ff0000;stroke:#ff0000;stroke-width:1.5;" x="86.998983" xlink:href="#mdd6b3a1473" y="83.566505"/>
     <use style="fill:#ff0000;stroke:#ff0000;stroke-width:1.5;" x="113.558294" xlink:href="#mdd6b3a1473" y="48.131449"/>
     <use style="fill:#ff0000;stroke:#ff0000;stroke-width:1.5;" x="90.598321" xlink:href="#mdd6b3a1473" y="55.686402"/>
     <use style="fill:#ff0000;stroke:#ff0000;stroke-width:1.5;" x="171.878344" xlink:href="#mdd6b3a1473" y="112.348574"/>
     <use style="fill:#ff0000;stroke:#ff0000;stroke-width:1.5;" x="123.295161" xlink:href="#mdd6b3a1473" y="77.427376"/>
    </g>
   </g>
   <g id="matplotlib.axis_1">
    <g id="xtick_1">
     <g id="line2d_1">
      <defs>
       <path d="M 0 0 
L 0 3.5 
" id="m1f064b878c" style="stroke:#000000;stroke-width:0.8;"/>
      </defs>
      <g>
       <use style="stroke:#000000;stroke-width:0.8;" x="85.179984" xlink:href="#m1f064b878c" y="235.237813"/>
      </g>
     </g>
     <g id="text_1">
      <!-- 0 -->
      <defs>
       <path d="M 31.78125 66.40625 
Q 24.171875 66.40625 20.328125 58.90625 
Q 16.5 51.421875 16.5 36.375 
Q 16.5 21.390625 20.328125 13.890625 
Q 24.171875 6.390625 31.78125 6.390625 
Q 39.453125 6.390625 43.28125 13.890625 
Q 47.125 21.390625 47.125 36.375 
Q 47.125 51.421875 43.28125 58.90625 
Q 39.453125 66.40625 31.78125 66.40625 
z
M 31.78125 74.21875 
Q 44.046875 74.21875 50.515625 64.515625 
Q 56.984375 54.828125 56.984375 36.375 
Q 56.984375 17.96875 50.515625 8.265625 
Q 44.046875 -1.421875 31.78125 -1.421875 
Q 19.53125 -1.421875 13.0625 8.265625 
Q 6.59375 17.96875 6.59375 36.375 
Q 6.59375 54.828125 13.0625 64.515625 
Q 19.53125 74.21875 31.78125 74.21875 
z
" id="DejaVuSans-30"/>
      </defs>
      <g transform="translate(81.362484 251.355938)scale(0.12 -0.12)">
       <use xlink:href="#DejaVuSans-30"/>
      </g>
     </g>
    </g>
    <g id="xtick_2">
     <g id="line2d_2">
      <g>
       <use style="stroke:#000000;stroke-width:0.8;" x="175.147516" xlink:href="#m1f064b878c" y="235.237813"/>
      </g>
     </g>
     <g id="text_2">
      <!-- 1 -->
      <defs>
       <path d="M 12.40625 8.296875 
L 28.515625 8.296875 
L 28.515625 63.921875 
L 10.984375 60.40625 
L 10.984375 69.390625 
L 28.421875 72.90625 
L 38.28125 72.90625 
L 38.28125 8.296875 
L 54.390625 8.296875 
L 54.390625 0 
L 12.40625 0 
z
" id="DejaVuSans-31"/>
      </defs>
      <g transform="translate(171.330016 251.355938)scale(0.12 -0.12)">
       <use xlink:href="#DejaVuSans-31"/>
      </g>
     </g>
    </g>
    <g id="text_3">
     <!-- x -->
     <defs>
      <path d="M 54.890625 54.6875 
L 35.109375 28.078125 
L 55.90625 0 
L 45.3125 0 
L 29.390625 21.484375 
L 13.484375 0 
L 2.875 0 
L 24.125 28.609375 
L 4.6875 54.6875 
L 15.28125 54.6875 
L 29.78125 35.203125 
L 44.28125 54.6875 
z
" id="DejaVuSans-78"/>
     </defs>
     <g transform="translate(126.020625 268.489375)scale(0.14 -0.14)">
      <use xlink:href="#DejaVuSans-78"/>
     </g>
    </g>
   </g>
   <g id="matplotlib.axis_2">
    <g id="ytick_1">
     <g id="line2d_3">
      <defs>
       <path d="M 0 0 
L -3.5 0 
" id="ma2240cde42" style="stroke:#000000;stroke-width:0.8;"/>
      </defs>
      <g>
       <use style="stroke:#000000;stroke-width:0.8;" x="60.88875" xlink:href="#ma2240cde42" y="215.452363"/>
      </g>
     </g>
     <g id="text_4">
      <!-- −1.5 -->
      <defs>
       <path d="M 10.59375 35.5 
L 73.1875 35.5 
L 73.1875 27.203125 
L 10.59375 27.203125 
z
" id="DejaVuSans-2212"/>
       <path d="M 10.6875 12.40625 
L 21 12.40625 
L 21 0 
L 10.6875 0 
z
" id="DejaVuSans-2e"/>
       <path d="M 10.796875 72.90625 
L 49.515625 72.90625 
L 49.515625 64.59375 
L 19.828125 64.59375 
L 19.828125 46.734375 
Q 21.96875 47.46875 24.109375 47.828125 
Q 26.265625 48.1875 28.421875 48.1875 
Q 40.625 48.1875 47.75 41.5 
Q 54.890625 34.8125 54.890625 23.390625 
Q 54.890625 11.625 47.5625 5.09375 
Q 40.234375 -1.421875 26.90625 -1.421875 
Q 22.3125 -1.421875 17.546875 -0.640625 
Q 12.796875 0.140625 7.71875 1.703125 
L 7.71875 11.625 
Q 12.109375 9.234375 16.796875 8.0625 
Q 21.484375 6.890625 26.703125 6.890625 
Q 35.15625 6.890625 40.078125 11.328125 
Q 45.015625 15.765625 45.015625 23.390625 
Q 45.015625 31 40.078125 35.4375 
Q 35.15625 39.890625 26.703125 39.890625 
Q 22.75 39.890625 18.8125 39.015625 
Q 14.890625 38.140625 10.796875 36.28125 
z
" id="DejaVuSans-35"/>
      </defs>
      <g transform="translate(24.749375 220.011426)scale(0.12 -0.12)">
       <use xlink:href="#DejaVuSans-2212"/>
       <use x="83.789062" xlink:href="#DejaVuSans-31"/>
       <use x="147.412109" xlink:href="#DejaVuSans-2e"/>
       <use x="179.199219" xlink:href="#DejaVuSans-35"/>
      </g>
     </g>
    </g>
    <g id="ytick_2">
     <g id="line2d_4">
      <g>
       <use style="stroke:#000000;stroke-width:0.8;" x="60.88875" xlink:href="#ma2240cde42" y="177.889956"/>
      </g>
     </g>
     <g id="text_5">
      <!-- −1.0 -->
      <g transform="translate(24.749375 182.449019)scale(0.12 -0.12)">
       <use xlink:href="#DejaVuSans-2212"/>
       <use x="83.789062" xlink:href="#DejaVuSans-31"/>
       <use x="147.412109" xlink:href="#DejaVuSans-2e"/>
       <use x="179.199219" xlink:href="#DejaVuSans-30"/>
      </g>
     </g>
    </g>
    <g id="ytick_3">
     <g id="line2d_5">
      <g>
       <use style="stroke:#000000;stroke-width:0.8;" x="60.88875" xlink:href="#ma2240cde42" y="140.327549"/>
      </g>
     </g>
     <g id="text_6">
      <!-- −0.5 -->
      <g transform="translate(24.749375 144.886611)scale(0.12 -0.12)">
       <use xlink:href="#DejaVuSans-2212"/>
       <use x="83.789062" xlink:href="#DejaVuSans-30"/>
       <use x="147.412109" xlink:href="#DejaVuSans-2e"/>
       <use x="179.199219" xlink:href="#DejaVuSans-35"/>
      </g>
     </g>
    </g>
    <g id="ytick_4">
     <g id="line2d_6">
      <g>
       <use style="stroke:#000000;stroke-width:0.8;" x="60.88875" xlink:href="#ma2240cde42" y="102.765142"/>
      </g>
     </g>
     <g id="text_7">
      <!-- 0.0 -->
      <g transform="translate(34.805 107.324204)scale(0.12 -0.12)">
       <use xlink:href="#DejaVuSans-30"/>
       <use x="63.623047" xlink:href="#DejaVuSans-2e"/>
       <use x="95.410156" xlink:href="#DejaVuSans-30"/>
      </g>
     </g>
    </g>
    <g id="ytick_5">
     <g id="line2d_7">
      <g>
       <use style="stroke:#000000;stroke-width:0.8;" x="60.88875" xlink:href="#ma2240cde42" y="65.202734"/>
      </g>
     </g>
     <g id="text_8">
      <!-- 0.5 -->
      <g transform="translate(34.805 69.761797)scale(0.12 -0.12)">
       <use xlink:href="#DejaVuSans-30"/>
       <use x="63.623047" xlink:href="#DejaVuSans-2e"/>
       <use x="95.410156" xlink:href="#DejaVuSans-35"/>
      </g>
     </g>
    </g>
    <g id="ytick_6">
     <g id="line2d_8">
      <g>
       <use style="stroke:#000000;stroke-width:0.8;" x="60.88875" xlink:href="#ma2240cde42" y="27.640327"/>
      </g>
     </g>
     <g id="text_9">
      <!-- 1.0 -->
      <g transform="translate(34.805 32.199389)scale(0.12 -0.12)">
       <use xlink:href="#DejaVuSans-31"/>
       <use x="63.623047" xlink:href="#DejaVuSans-2e"/>
       <use x="95.410156" xlink:href="#DejaVuSans-30"/>
      </g>
     </g>
    </g>
    <g id="text_10">
     <!-- y -->
     <defs>
      <path d="M 32.171875 -5.078125 
Q 28.375 -14.84375 24.75 -17.8125 
Q 21.140625 -20.796875 15.09375 -20.796875 
L 7.90625 -20.796875 
L 7.90625 -13.28125 
L 13.1875 -13.28125 
Q 16.890625 -13.28125 18.9375 -11.515625 
Q 21 -9.765625 23.484375 -3.21875 
L 25.09375 0.875 
L 2.984375 54.6875 
L 12.5 54.6875 
L 29.59375 11.921875 
L 46.6875 54.6875 
L 56.203125 54.6875 
z
" id="DejaVuSans-79"/>
     </defs>
     <g transform="translate(17.837813 133.680937)rotate(-90)scale(0.14 -0.14)">
      <use xlink:href="#DejaVuSans-79"/>
     </g>
    </g>
   </g>
   <g id="line2d_9">
    <path clip-path="url(#p5c414fc227)" d="M 67.186477 219.532309 
L 68.458745 214.435351 
L 69.731014 208.334343 
L 71.003282 201.381133 
L 72.27555 193.718717 
L 73.547818 185.481452 
L 74.820086 176.79526 
L 76.092354 167.77784 
L 77.364622 158.538872 
L 78.63689 149.180228 
L 79.909159 139.796177 
L 81.181427 130.473597 
L 82.453695 121.292179 
L 83.725963 112.324638 
L 84.998231 103.636918 
L 86.270499 95.288405 
L 87.542767 87.332127 
L 88.815036 79.814971 
L 90.087304 72.777884 
L 91.359572 66.256085 
L 92.63184 60.279271 
L 93.904108 54.871825 
L 95.176376 50.053027 
L 96.448644 45.837257 
L 97.720913 42.234206 
L 98.993181 39.249085 
L 100.265449 36.882831 
L 101.537717 35.132315 
L 102.809985 33.990551 
L 104.082253 33.446903 
L 105.354521 33.487295 
L 106.626789 34.094414 
L 107.899058 35.247926 
L 109.171326 36.924677 
L 110.443594 39.098904 
L 111.715862 41.742441 
L 112.98813 44.824931 
L 114.260398 48.31403 
L 115.532666 52.175616 
L 116.804935 56.373998 
L 118.077203 60.872124 
L 119.349471 65.631788 
L 120.621739 70.613837 
L 121.894007 75.778382 
L 123.166275 81.085004 
L 124.438543 86.492962 
L 125.710812 91.961402 
L 126.98308 97.449563 
L 128.255348 102.916986 
L 129.527616 108.323726 
L 130.799884 113.630551 
L 132.072152 118.79916 
L 133.34442 123.792382 
L 134.616688 128.574392 
L 135.888957 133.110913 
L 137.161225 137.369426 
L 138.433493 141.31938 
L 139.705761 144.932397 
L 140.978029 148.18248 
L 142.250297 151.046225 
L 143.522565 153.503023 
L 144.794834 155.535274 
L 146.067102 157.12859 
L 147.33937 158.272007 
L 148.611638 158.958188 
L 149.883906 159.183638 
L 151.156174 158.948905 
L 152.428442 158.258793 
L 153.700711 157.122566 
L 154.972979 155.55416 
L 156.245247 153.572389 
L 157.517515 151.20115 
L 158.789783 148.469639 
L 160.062051 145.412549 
L 161.334319 142.070287 
L 162.606587 138.489175 
L 163.878856 134.721662 
L 165.151124 130.826531 
L 166.423392 126.869107 
L 167.69566 122.921466 
L 168.967928 119.062639 
L 170.240196 115.378825 
L 171.512464 111.963597 
L 172.784733 108.918109 
L 174.057001 106.351305 
L 175.329269 104.380127 
L 176.601537 103.129723 
L 177.873805 102.733655 
L 179.146073 103.334105 
L 180.418341 105.082087 
L 181.69061 108.137651 
L 182.962878 112.670095 
L 184.235146 118.858168 
L 185.507414 126.890284 
L 186.779682 136.964723 
L 188.05195 149.289845 
L 189.324218 164.084295 
L 190.596486 181.577213 
L 191.868755 202.008438 
L 193.141023 225.628722 
" style="fill:none;stroke:#000000;stroke-linecap:square;stroke-width:1.5;"/>
   </g>
   <g id="patch_3">
    <path d="M 60.88875 235.237813 
L 60.88875 23.837812 
" style="fill:none;stroke:#000000;stroke-linecap:square;stroke-linejoin:miter;stroke-width:0.8;"/>
   </g>
   <g id="patch_4">
    <path d="M 199.43875 235.237813 
L 199.43875 23.837812 
" style="fill:none;stroke:#000000;stroke-linecap:square;stroke-linejoin:miter;stroke-width:0.8;"/>
   </g>
   <g id="patch_5">
    <path d="M 60.88875 235.237813 
L 199.43875 235.237813 
" style="fill:none;stroke:#000000;stroke-linecap:square;stroke-linejoin:miter;stroke-width:0.8;"/>
   </g>
   <g id="patch_6">
    <path d="M 60.88875 23.837812 
L 199.43875 23.837812 
" style="fill:none;stroke:#000000;stroke-linecap:square;stroke-linejoin:miter;stroke-width:0.8;"/>
   </g>
   <g id="text_11">
    <!-- Polynomial fit (D = 5) -->
    <defs>
     <path d="M 19.671875 64.796875 
L 19.671875 37.40625 
L 32.078125 37.40625 
Q 38.96875 37.40625 42.71875 40.96875 
Q 46.484375 44.53125 46.484375 51.125 
Q 46.484375 57.671875 42.71875 61.234375 
Q 38.96875 64.796875 32.078125 64.796875 
z
M 9.8125 72.90625 
L 32.078125 72.90625 
Q 44.34375 72.90625 50.609375 67.359375 
Q 56.890625 61.8125 56.890625 51.125 
Q 56.890625 40.328125 50.609375 34.8125 
Q 44.34375 29.296875 32.078125 29.296875 
L 19.671875 29.296875 
L 19.671875 0 
L 9.8125 0 
z
" id="DejaVuSans-50"/>
     <path d="M 30.609375 48.390625 
Q 23.390625 48.390625 19.1875 42.75 
Q 14.984375 37.109375 14.984375 27.296875 
Q 14.984375 17.484375 19.15625 11.84375 
Q 23.34375 6.203125 30.609375 6.203125 
Q 37.796875 6.203125 41.984375 11.859375 
Q 46.1875 17.53125 46.1875 27.296875 
Q 46.1875 37.015625 41.984375 42.703125 
Q 37.796875 48.390625 30.609375 48.390625 
z
M 30.609375 56 
Q 42.328125 56 49.015625 48.375 
Q 55.71875 40.765625 55.71875 27.296875 
Q 55.71875 13.875 49.015625 6.21875 
Q 42.328125 -1.421875 30.609375 -1.421875 
Q 18.84375 -1.421875 12.171875 6.21875 
Q 5.515625 13.875 5.515625 27.296875 
Q 5.515625 40.765625 12.171875 48.375 
Q 18.84375 56 30.609375 56 
z
" id="DejaVuSans-6f"/>
     <path d="M 9.421875 75.984375 
L 18.40625 75.984375 
L 18.40625 0 
L 9.421875 0 
z
" id="DejaVuSans-6c"/>
     <path d="M 54.890625 33.015625 
L 54.890625 0 
L 45.90625 0 
L 45.90625 32.71875 
Q 45.90625 40.484375 42.875 44.328125 
Q 39.84375 48.1875 33.796875 48.1875 
Q 26.515625 48.1875 22.3125 43.546875 
Q 18.109375 38.921875 18.109375 30.90625 
L 18.109375 0 
L 9.078125 0 
L 9.078125 54.6875 
L 18.109375 54.6875 
L 18.109375 46.1875 
Q 21.34375 51.125 25.703125 53.5625 
Q 30.078125 56 35.796875 56 
Q 45.21875 56 50.046875 50.171875 
Q 54.890625 44.34375 54.890625 33.015625 
z
" id="DejaVuSans-6e"/>
     <path d="M 52 44.1875 
Q 55.375 50.25 60.0625 53.125 
Q 64.75 56 71.09375 56 
Q 79.640625 56 84.28125 50.015625 
Q 88.921875 44.046875 88.921875 33.015625 
L 88.921875 0 
L 79.890625 0 
L 79.890625 32.71875 
Q 79.890625 40.578125 77.09375 44.375 
Q 74.3125 48.1875 68.609375 48.1875 
Q 61.625 48.1875 57.5625 43.546875 
Q 53.515625 38.921875 53.515625 30.90625 
L 53.515625 0 
L 44.484375 0 
L 44.484375 32.71875 
Q 44.484375 40.625 41.703125 44.40625 
Q 38.921875 48.1875 33.109375 48.1875 
Q 26.21875 48.1875 22.15625 43.53125 
Q 18.109375 38.875 18.109375 30.90625 
L 18.109375 0 
L 9.078125 0 
L 9.078125 54.6875 
L 18.109375 54.6875 
L 18.109375 46.1875 
Q 21.1875 51.21875 25.484375 53.609375 
Q 29.78125 56 35.6875 56 
Q 41.65625 56 45.828125 52.96875 
Q 50 49.953125 52 44.1875 
z
" id="DejaVuSans-6d"/>
     <path d="M 9.421875 54.6875 
L 18.40625 54.6875 
L 18.40625 0 
L 9.421875 0 
z
M 9.421875 75.984375 
L 18.40625 75.984375 
L 18.40625 64.59375 
L 9.421875 64.59375 
z
" id="DejaVuSans-69"/>
     <path d="M 34.28125 27.484375 
Q 23.390625 27.484375 19.1875 25 
Q 14.984375 22.515625 14.984375 16.5 
Q 14.984375 11.71875 18.140625 8.90625 
Q 21.296875 6.109375 26.703125 6.109375 
Q 34.1875 6.109375 38.703125 11.40625 
Q 43.21875 16.703125 43.21875 25.484375 
L 43.21875 27.484375 
z
M 52.203125 31.203125 
L 52.203125 0 
L 43.21875 0 
L 43.21875 8.296875 
Q 40.140625 3.328125 35.546875 0.953125 
Q 30.953125 -1.421875 24.3125 -1.421875 
Q 15.921875 -1.421875 10.953125 3.296875 
Q 6 8.015625 6 15.921875 
Q 6 25.140625 12.171875 29.828125 
Q 18.359375 34.515625 30.609375 34.515625 
L 43.21875 34.515625 
L 43.21875 35.40625 
Q 43.21875 41.609375 39.140625 45 
Q 35.0625 48.390625 27.6875 48.390625 
Q 23 48.390625 18.546875 47.265625 
Q 14.109375 46.140625 10.015625 43.890625 
L 10.015625 52.203125 
Q 14.9375 54.109375 19.578125 55.046875 
Q 24.21875 56 28.609375 56 
Q 40.484375 56 46.34375 49.84375 
Q 52.203125 43.703125 52.203125 31.203125 
z
" id="DejaVuSans-61"/>
     <path id="DejaVuSans-20"/>
     <path d="M 37.109375 75.984375 
L 37.109375 68.5 
L 28.515625 68.5 
Q 23.6875 68.5 21.796875 66.546875 
Q 19.921875 64.59375 19.921875 59.515625 
L 19.921875 54.6875 
L 34.71875 54.6875 
L 34.71875 47.703125 
L 19.921875 47.703125 
L 19.921875 0 
L 10.890625 0 
L 10.890625 47.703125 
L 2.296875 47.703125 
L 2.296875 54.6875 
L 10.890625 54.6875 
L 10.890625 58.5 
Q 10.890625 67.625 15.140625 71.796875 
Q 19.390625 75.984375 28.609375 75.984375 
z
" id="DejaVuSans-66"/>
     <path d="M 18.3125 70.21875 
L 18.3125 54.6875 
L 36.8125 54.6875 
L 36.8125 47.703125 
L 18.3125 47.703125 
L 18.3125 18.015625 
Q 18.3125 11.328125 20.140625 9.421875 
Q 21.96875 7.515625 27.59375 7.515625 
L 36.8125 7.515625 
L 36.8125 0 
L 27.59375 0 
Q 17.1875 0 13.234375 3.875 
Q 9.28125 7.765625 9.28125 18.015625 
L 9.28125 47.703125 
L 2.6875 47.703125 
L 2.6875 54.6875 
L 9.28125 54.6875 
L 9.28125 70.21875 
z
" id="DejaVuSans-74"/>
     <path d="M 31 75.875 
Q 24.46875 64.65625 21.28125 53.65625 
Q 18.109375 42.671875 18.109375 31.390625 
Q 18.109375 20.125 21.3125 9.0625 
Q 24.515625 -2 31 -13.1875 
L 23.1875 -13.1875 
Q 15.875 -1.703125 12.234375 9.375 
Q 8.59375 20.453125 8.59375 31.390625 
Q 8.59375 42.28125 12.203125 53.3125 
Q 15.828125 64.359375 23.1875 75.875 
z
" id="DejaVuSans-28"/>
     <path d="M 19.671875 64.796875 
L 19.671875 8.109375 
L 31.59375 8.109375 
Q 46.6875 8.109375 53.6875 14.9375 
Q 60.6875 21.78125 60.6875 36.53125 
Q 60.6875 51.171875 53.6875 57.984375 
Q 46.6875 64.796875 31.59375 64.796875 
z
M 9.8125 72.90625 
L 30.078125 72.90625 
Q 51.265625 72.90625 61.171875 64.09375 
Q 71.09375 55.28125 71.09375 36.53125 
Q 71.09375 17.671875 61.125 8.828125 
Q 51.171875 0 30.078125 0 
L 9.8125 0 
z
" id="DejaVuSans-44"/>
     <path d="M 10.59375 45.40625 
L 73.1875 45.40625 
L 73.1875 37.203125 
L 10.59375 37.203125 
z
M 10.59375 25.484375 
L 73.1875 25.484375 
L 73.1875 17.1875 
L 10.59375 17.1875 
z
" id="DejaVuSans-3d"/>
     <path d="M 8.015625 75.875 
L 15.828125 75.875 
Q 23.140625 64.359375 26.78125 53.3125 
Q 30.421875 42.28125 30.421875 31.390625 
Q 30.421875 20.453125 26.78125 9.375 
Q 23.140625 -1.703125 15.828125 -13.1875 
L 8.015625 -13.1875 
Q 14.5 -2 17.703125 9.0625 
Q 20.90625 20.125 20.90625 31.390625 
Q 20.90625 42.671875 17.703125 53.65625 
Q 14.5 64.65625 8.015625 75.875 
z
" id="DejaVuSans-29"/>
    </defs>
    <g transform="translate(54.634844 17.837812)scale(0.14 -0.14)">
     <use xlink:href="#DejaVuSans-50"/>
     <use x="60.255859" xlink:href="#DejaVuSans-6f"/>
     <use x="121.4375" xlink:href="#DejaVuSans-6c"/>
     <use x="149.220703" xlink:href="#DejaVuSans-79"/>
     <use x="208.400391" xlink:href="#DejaVuSans-6e"/>
     <use x="271.779297" xlink:href="#DejaVuSans-6f"/>
     <use x="332.960938" xlink:href="#DejaVuSans-6d"/>
     <use x="430.373047" xlink:href="#DejaVuSans-69"/>
     <use x="458.15625" xlink:href="#DejaVuSans-61"/>
     <use x="519.435547" xlink:href="#DejaVuSans-6c"/>
     <use x="547.21875" xlink:href="#DejaVuSans-20"/>
     <use x="579.005859" xlink:href="#DejaVuSans-66"/>
     <use x="614.210938" xlink:href="#DejaVuSans-69"/>
     <use x="641.994141" xlink:href="#DejaVuSans-74"/>
     <use x="681.203125" xlink:href="#DejaVuSans-20"/>
     <use x="712.990234" xlink:href="#DejaVuSans-28"/>
     <use x="752.003906" xlink:href="#DejaVuSans-44"/>
     <use x="829.005859" xlink:href="#DejaVuSans-20"/>
     <use x="860.792969" xlink:href="#DejaVuSans-3d"/>
     <use x="944.582031" xlink:href="#DejaVuSans-20"/>
     <use x="976.369141" xlink:href="#DejaVuSans-35"/>
     <use x="1039.992188" xlink:href="#DejaVuSans-29"/>
    </g>
   </g>
  </g>
  <g id="axes_2">
   <g id="patch_7">
    <path d="M 275.36375 235.237813 
L 413.91375 235.237813 
L 413.91375 23.837812 
L 275.36375 23.837812 
z
" style="fill:#ffffff;"/>
   </g>
   <g id="matplotlib.axis_3">
    <g id="xtick_3">
     <g id="line2d_10">
      <g>
       <use style="stroke:#000000;stroke-width:0.8;" x="299.654984" xlink:href="#m1f064b878c" y="235.237813"/>
      </g>
     </g>
     <g id="text_12">
      <!-- 0 -->
      <g transform="translate(295.837484 251.355938)scale(0.12 -0.12)">
       <use xlink:href="#DejaVuSans-30"/>
      </g>
     </g>
    </g>
    <g id="xtick_4">
     <g id="line2d_11">
      <g>
       <use style="stroke:#000000;stroke-width:0.8;" x="389.622516" xlink:href="#m1f064b878c" y="235.237813"/>
      </g>
     </g>
     <g id="text_13">
      <!-- 1 -->
      <g transform="translate(385.805016 251.355938)scale(0.12 -0.12)">
       <use xlink:href="#DejaVuSans-31"/>
      </g>
     </g>
    </g>
    <g id="text_14">
     <!-- x -->
     <g transform="translate(340.495625 268.489375)scale(0.14 -0.14)">
      <use xlink:href="#DejaVuSans-78"/>
     </g>
    </g>
   </g>
   <g id="matplotlib.axis_4">
    <g id="ytick_7">
     <g id="line2d_12">
      <g>
       <use style="stroke:#000000;stroke-width:0.8;" x="275.36375" xlink:href="#ma2240cde42" y="224.60373"/>
      </g>
     </g>
     <g id="text_15">
      <!-- −100 -->
      <g transform="translate(235.403125 229.162793)scale(0.12 -0.12)">
       <use xlink:href="#DejaVuSans-2212"/>
       <use x="83.789062" xlink:href="#DejaVuSans-31"/>
       <use x="147.412109" xlink:href="#DejaVuSans-30"/>
       <use x="211.035156" xlink:href="#DejaVuSans-30"/>
      </g>
     </g>
    </g>
    <g id="ytick_8">
     <g id="line2d_13">
      <g>
       <use style="stroke:#000000;stroke-width:0.8;" x="275.36375" xlink:href="#ma2240cde42" y="190.693127"/>
      </g>
     </g>
     <g id="text_16">
      <!-- −50 -->
      <g transform="translate(243.038125 195.252189)scale(0.12 -0.12)">
       <use xlink:href="#DejaVuSans-2212"/>
       <use x="83.789062" xlink:href="#DejaVuSans-35"/>
       <use x="147.412109" xlink:href="#DejaVuSans-30"/>
      </g>
     </g>
    </g>
    <g id="ytick_9">
     <g id="line2d_14">
      <g>
       <use style="stroke:#000000;stroke-width:0.8;" x="275.36375" xlink:href="#ma2240cde42" y="156.782523"/>
      </g>
     </g>
     <g id="text_17">
      <!-- 0 -->
      <g transform="translate(260.72875 161.341586)scale(0.12 -0.12)">
       <use xlink:href="#DejaVuSans-30"/>
      </g>
     </g>
    </g>
    <g id="ytick_10">
     <g id="line2d_15">
      <g>
       <use style="stroke:#000000;stroke-width:0.8;" x="275.36375" xlink:href="#ma2240cde42" y="122.871919"/>
      </g>
     </g>
     <g id="text_18">
      <!-- 50 -->
      <g transform="translate(253.09375 127.430982)scale(0.12 -0.12)">
       <use xlink:href="#DejaVuSans-35"/>
       <use x="63.623047" xlink:href="#DejaVuSans-30"/>
      </g>
     </g>
    </g>
    <g id="ytick_11">
     <g id="line2d_16">
      <g>
       <use style="stroke:#000000;stroke-width:0.8;" x="275.36375" xlink:href="#ma2240cde42" y="88.961316"/>
      </g>
     </g>
     <g id="text_19">
      <!-- 100 -->
      <g transform="translate(245.45875 93.520378)scale(0.12 -0.12)">
       <use xlink:href="#DejaVuSans-31"/>
       <use x="63.623047" xlink:href="#DejaVuSans-30"/>
       <use x="127.246094" xlink:href="#DejaVuSans-30"/>
      </g>
     </g>
    </g>
    <g id="ytick_12">
     <g id="line2d_17">
      <g>
       <use style="stroke:#000000;stroke-width:0.8;" x="275.36375" xlink:href="#ma2240cde42" y="55.050712"/>
      </g>
     </g>
     <g id="text_20">
      <!-- 150 -->
      <g transform="translate(245.45875 59.609775)scale(0.12 -0.12)">
       <use xlink:href="#DejaVuSans-31"/>
       <use x="63.623047" xlink:href="#DejaVuSans-35"/>
       <use x="127.246094" xlink:href="#DejaVuSans-30"/>
      </g>
     </g>
    </g>
    <g id="text_21">
     <!-- $w_d  \phi_d(x)$ -->
     <defs>
      <path d="M 40.296875 42.59375 
L 43.5 7.40625 
Q 53.40625 19.703125 56.703125 24.953125 
Q 60 30.203125 60 33.40625 
Q 60 34.796875 57.796875 36.90625 
Q 55.703125 38.90625 55.703125 41 
Q 55.703125 42.203125 56.84375 43.140625 
Q 58 44.09375 59.59375 44.09375 
Q 61.796875 44.09375 63.296875 42.5 
Q 64.796875 40.90625 64.796875 38.5 
Q 64.796875 29.40625 43.59375 3.59375 
L 42.703125 2.5 
Q 39.203125 -1.796875 38.203125 -1.796875 
Q 37.40625 -1.796875 37.09375 1.703125 
L 34.203125 32.703125 
L 25.296875 17.5 
Q 23 13.703125 19.796875 7.59375 
Q 14.90625 -1.796875 13.40625 -1.796875 
Q 12.703125 -1.796875 12.5 -0.890625 
Q 12.296875 0 12.09375 2.90625 
L 11.703125 12 
Q 10.90625 28.40625 9 36.203125 
Q 8.296875 38.90625 7.4375 39.65625 
Q 6.59375 40.40625 4.296875 40.40625 
L 1.5 40.40625 
L 1.5 41.703125 
Q 9.40625 43 11 43.40625 
Q 11.5 43.5 12.140625 43.703125 
Q 12.796875 43.90625 13.1875 44 
Q 13.59375 44.09375 13.90625 44.09375 
Q 14.703125 44.09375 15 43.59375 
Q 15.296875 43.09375 15.796875 40.703125 
Q 18.296875 28.703125 19 12.59375 
L 38.203125 43 
Q 38.796875 44 39.5 44 
Q 40.296875 44 40.296875 42.59375 
z
" id="STIXGeneral-Italic-77"/>
      <path d="M 52.09375 68.296875 
L 52.703125 67.703125 
L 48.796875 52.5 
L 42.796875 30.59375 
Q 36.296875 6.703125 36.296875 6 
Q 36.296875 4 38.09375 4 
Q 39.40625 4 40.84375 5.25 
Q 42.296875 6.5 46.296875 11.09375 
L 47.5 10.09375 
Q 39.796875 -1.296875 32.796875 -1.296875 
Q 30.90625 -1.296875 29.796875 -0.09375 
Q 28.703125 1.09375 28.703125 3.203125 
Q 28.703125 6.203125 30 12.09375 
Q 25.703125 4.796875 21.546875 1.84375 
Q 17.40625 -1.09375 12.203125 -1.09375 
Q 7.203125 -1.09375 4.34375 1.953125 
Q 1.5 5 1.5 10.59375 
Q 1.5 22.5 11.140625 33.296875 
Q 20.796875 44.09375 30.703125 44.09375 
Q 33.796875 44.09375 35.25 42.6875 
Q 36.703125 41.296875 37.203125 38.296875 
L 37.296875 38.296875 
L 41.796875 54.59375 
Q 43.203125 59.5 43.203125 61.703125 
Q 43.203125 63.296875 42.09375 63.6875 
Q 41 64.09375 36.796875 64.296875 
L 36.796875 66 
Q 44.5 66.703125 52.09375 68.296875 
z
M 35.59375 36.09375 
Q 35.59375 38.703125 34.140625 40.25 
Q 32.703125 41.796875 30.90625 41.796875 
Q 26.203125 41.796875 21.796875 37.203125 
Q 16.796875 31.90625 13.5 24.546875 
Q 10.203125 17.203125 10.203125 11 
Q 10.203125 7.59375 11.75 5.640625 
Q 13.296875 3.703125 16 3.703125 
Q 20.5 3.703125 25.09375 8.59375 
Q 29.703125 13.5 32.640625 21.09375 
Q 35.59375 28.703125 35.59375 36.09375 
z
" id="STIXGeneral-Italic-64"/>
      <path d="M 48.09375 68.296875 
L 41.40625 44.09375 
Q 48.40625 44.09375 51.5 42.90625 
Q 59.5 39.796875 59.5 30.296875 
Q 59.5 26.703125 58.25 22.59375 
Q 57 18.5 54.390625 14.296875 
Q 51.796875 10.09375 48.25 6.640625 
Q 44.703125 3.203125 39.640625 1.046875 
Q 34.59375 -1.09375 28.90625 -1.09375 
L 23.5 -20.5 
L 15.703125 -20.5 
L 21.09375 -1.09375 
Q 13.796875 -1.09375 10.40625 0 
Q 2.703125 2.5 2.703125 12.796875 
Q 2.703125 15.90625 4 19.90625 
Q 5.296875 23.90625 7.84375 28.15625 
Q 10.40625 32.40625 13.84375 35.953125 
Q 17.296875 39.5 22.140625 41.796875 
Q 27 44.09375 32.203125 44.09375 
L 33.703125 44.09375 
L 40.40625 68.296875 
z
M 40.796875 42 
L 29.5 1 
Q 33.203125 1 36.40625 2.59375 
Q 42.09375 5.5 46.59375 15.59375 
Q 51.09375 25.703125 51.09375 32.703125 
Q 51.09375 38.5 46.59375 41.296875 
Q 45.40625 42 40.796875 42 
z
M 21.703125 1 
L 33.09375 42 
Q 27.5 42 22.296875 36.953125 
Q 17.09375 31.90625 14.09375 24.5 
Q 11.09375 17.09375 11.09375 10.09375 
Q 11.09375 3.703125 15.90625 1.796875 
Q 18 1 21.703125 1 
z
" id="STIXGeneral-Italic-3d5"/>
      <path d="M 30.40625 -16.09375 
L 29.203125 -17.703125 
Q 17.59375 -11.09375 11.1875 0.5 
Q 4.796875 12.09375 4.796875 25.203125 
Q 4.796875 52.90625 29.5 67.59375 
L 30.40625 66 
Q 20.203125 57.296875 16.796875 48.84375 
Q 13.40625 40.40625 13.40625 25.5 
Q 13.40625 10.703125 16.90625 1.5 
Q 20.40625 -7.703125 30.40625 -16.09375 
z
" id="STIXGeneral-Regular-28"/>
      <path d="M 24.296875 35.5 
L 25.5 29.796875 
Q 30.796875 37.90625 34.046875 41 
Q 37.296875 44.09375 40.59375 44.09375 
Q 42.40625 44.09375 43.546875 43.046875 
Q 44.703125 42 44.703125 40.390625 
Q 44.703125 38.796875 43.75 37.796875 
Q 42.796875 36.796875 41.296875 36.796875 
Q 40.40625 36.796875 38.90625 37.640625 
Q 37.40625 38.5 36.09375 38.5 
Q 33.203125 38.5 26.296875 26.40625 
Q 26.296875 25.09375 27.09375 21.90625 
L 30.296875 8.5 
Q 31.296875 4.40625 33.296875 4.40625 
Q 34.90625 4.40625 38 8.40625 
Q 38.296875 8.796875 38.6875 9.34375 
Q 39.09375 9.90625 39.390625 10.34375 
Q 39.703125 10.796875 40.09375 11.203125 
L 41.59375 10.296875 
Q 37.296875 3.59375 34.796875 1.25 
Q 32.296875 -1.09375 29.40625 -1.09375 
Q 27 -1.09375 25.703125 0.40625 
Q 24.40625 1.90625 23.5 5.703125 
L 20.59375 17.59375 
L 11.796875 5.703125 
Q 8.703125 1.5 6.75 0.203125 
Q 4.796875 -1.09375 2.296875 -1.09375 
Q 0 -1.09375 -1.34375 0 
Q -2.703125 1.09375 -2.703125 3.09375 
Q -2.703125 4.59375 -1.75 5.640625 
Q -0.796875 6.703125 0.703125 6.703125 
Q 1.90625 6.703125 3.90625 5.59375 
Q 5.40625 4.703125 6.5 4.703125 
Q 8.203125 4.703125 11.59375 9.59375 
L 19.796875 21.203125 
L 17 33.59375 
Q 16 38 15.140625 39.203125 
Q 14.296875 40.40625 12.40625 40.40625 
Q 11.203125 40.40625 8.5 39.703125 
L 6.703125 39.203125 
L 6.40625 40.796875 
L 7.5 41.203125 
Q 15.5 44.09375 19.203125 44.09375 
Q 21.09375 44.09375 22.1875 42.296875 
Q 23.296875 40.5 24.296875 35.5 
z
" id="STIXGeneral-Italic-78"/>
      <path d="M 2.90625 66 
L 4.09375 67.59375 
Q 15.5 60.796875 22 49.1875 
Q 28.5 37.59375 28.5 24.703125 
Q 28.5 -2.59375 3.796875 -17.703125 
L 2.90625 -16.09375 
Q 13.203125 -7.59375 16.546875 0.84375 
Q 19.90625 9.296875 19.90625 24.40625 
Q 19.90625 39.59375 16.546875 48.75 
Q 13.203125 57.90625 2.90625 66 
z
" id="STIXGeneral-Regular-29"/>
     </defs>
     <g transform="translate(228.463125 151.937813)rotate(-90)scale(0.14 -0.14)">
      <use transform="translate(0 0.703125)" xlink:href="#STIXGeneral-Italic-77"/>
      <use transform="translate(66.699997 -12.525)scale(0.7)" xlink:href="#STIXGeneral-Italic-64"/>
      <use transform="translate(106.109361 0.703125)" xlink:href="#STIXGeneral-Italic-3d5"/>
      <use transform="translate(168.809358 -12.525)scale(0.7)" xlink:href="#STIXGeneral-Italic-64"/>
      <use transform="translate(208.218723 0.703125)" xlink:href="#STIXGeneral-Regular-28"/>
      <use transform="translate(241.51871 0.703125)" xlink:href="#STIXGeneral-Italic-78"/>
      <use transform="translate(285.918704 0.703125)" xlink:href="#STIXGeneral-Regular-29"/>
     </g>
    </g>
   </g>
   <g id="line2d_18">
    <path clip-path="url(#p8f38e9359d)" d="M 281.661477 156.779427 
L 282.933745 156.779427 
L 284.206014 156.779427 
L 285.478282 156.779427 
L 286.75055 156.779427 
L 288.022818 156.779427 
L 289.295086 156.779427 
L 290.567354 156.779427 
L 291.839622 156.779427 
L 293.11189 156.779427 
L 294.384159 156.779427 
L 295.656427 156.779427 
L 296.928695 156.779427 
L 298.200963 156.779427 
L 299.473231 156.779427 
L 300.745499 156.779427 
L 302.017767 156.779427 
L 303.290036 156.779427 
L 304.562304 156.779427 
L 305.834572 156.779427 
L 307.10684 156.779427 
L 308.379108 156.779427 
L 309.651376 156.779427 
L 310.923644 156.779427 
L 312.195913 156.779427 
L 313.468181 156.779427 
L 314.740449 156.779427 
L 316.012717 156.779427 
L 317.284985 156.779427 
L 318.557253 156.779427 
L 319.829521 156.779427 
L 321.101789 156.779427 
L 322.374058 156.779427 
L 323.646326 156.779427 
L 324.918594 156.779427 
L 326.190862 156.779427 
L 327.46313 156.779427 
L 328.735398 156.779427 
L 330.007666 156.779427 
L 331.279935 156.779427 
L 332.552203 156.779427 
L 333.824471 156.779427 
L 335.096739 156.779427 
L 336.369007 156.779427 
L 337.641275 156.779427 
L 338.913543 156.779427 
L 340.185812 156.779427 
L 341.45808 156.779427 
L 342.730348 156.779427 
L 344.002616 156.779427 
L 345.274884 156.779427 
L 346.547152 156.779427 
L 347.81942 156.779427 
L 349.091688 156.779427 
L 350.363957 156.779427 
L 351.636225 156.779427 
L 352.908493 156.779427 
L 354.180761 156.779427 
L 355.453029 156.779427 
L 356.725297 156.779427 
L 357.997565 156.779427 
L 359.269834 156.779427 
L 360.542102 156.779427 
L 361.81437 156.779427 
L 363.086638 156.779427 
L 364.358906 156.779427 
L 365.631174 156.779427 
L 366.903442 156.779427 
L 368.175711 156.779427 
L 369.447979 156.779427 
L 370.720247 156.779427 
L 371.992515 156.779427 
L 373.264783 156.779427 
L 374.537051 156.779427 
L 375.809319 156.779427 
L 377.081587 156.779427 
L 378.353856 156.779427 
L 379.626124 156.779427 
L 380.898392 156.779427 
L 382.17066 156.779427 
L 383.442928 156.779427 
L 384.715196 156.779427 
L 385.987464 156.779427 
L 387.259733 156.779427 
L 388.532001 156.779427 
L 389.804269 156.779427 
L 391.076537 156.779427 
L 392.348805 156.779427 
L 393.621073 156.779427 
L 394.893341 156.779427 
L 396.16561 156.779427 
L 397.437878 156.779427 
L 398.710146 156.779427 
L 399.982414 156.779427 
L 401.254682 156.779427 
L 402.52695 156.779427 
L 403.799218 156.779427 
L 405.071486 156.779427 
L 406.343755 156.779427 
L 407.616023 156.779427 
" style="fill:none;stroke:#1f77b4;stroke-linecap:square;stroke-width:1.5;"/>
   </g>
   <g id="line2d_19">
    <path clip-path="url(#p8f38e9359d)" d="M 281.661477 157.865033 
L 282.933745 157.788492 
L 284.206014 157.711951 
L 285.478282 157.63541 
L 286.75055 157.558868 
L 288.022818 157.482327 
L 289.295086 157.405786 
L 290.567354 157.329245 
L 291.839622 157.252704 
L 293.11189 157.176163 
L 294.384159 157.099622 
L 295.656427 157.023081 
L 296.928695 156.94654 
L 298.200963 156.869999 
L 299.473231 156.793458 
L 300.745499 156.716916 
L 302.017767 156.640375 
L 303.290036 156.563834 
L 304.562304 156.487293 
L 305.834572 156.410752 
L 307.10684 156.334211 
L 308.379108 156.25767 
L 309.651376 156.181129 
L 310.923644 156.104588 
L 312.195913 156.028047 
L 313.468181 155.951505 
L 314.740449 155.874964 
L 316.012717 155.798423 
L 317.284985 155.721882 
L 318.557253 155.645341 
L 319.829521 155.5688 
L 321.101789 155.492259 
L 322.374058 155.415718 
L 323.646326 155.339177 
L 324.918594 155.262636 
L 326.190862 155.186095 
L 327.46313 155.109553 
L 328.735398 155.033012 
L 330.007666 154.956471 
L 331.279935 154.87993 
L 332.552203 154.803389 
L 333.824471 154.726848 
L 335.096739 154.650307 
L 336.369007 154.573766 
L 337.641275 154.497225 
L 338.913543 154.420684 
L 340.185812 154.344142 
L 341.45808 154.267601 
L 342.730348 154.19106 
L 344.002616 154.114519 
L 345.274884 154.037978 
L 346.547152 153.961437 
L 347.81942 153.884896 
L 349.091688 153.808355 
L 350.363957 153.731814 
L 351.636225 153.655273 
L 352.908493 153.578732 
L 354.180761 153.50219 
L 355.453029 153.425649 
L 356.725297 153.349108 
L 357.997565 153.272567 
L 359.269834 153.196026 
L 360.542102 153.119485 
L 361.81437 153.042944 
L 363.086638 152.966403 
L 364.358906 152.889862 
L 365.631174 152.813321 
L 366.903442 152.736779 
L 368.175711 152.660238 
L 369.447979 152.583697 
L 370.720247 152.507156 
L 371.992515 152.430615 
L 373.264783 152.354074 
L 374.537051 152.277533 
L 375.809319 152.200992 
L 377.081587 152.124451 
L 378.353856 152.04791 
L 379.626124 151.971369 
L 380.898392 151.894827 
L 382.17066 151.818286 
L 383.442928 151.741745 
L 384.715196 151.665204 
L 385.987464 151.588663 
L 387.259733 151.512122 
L 388.532001 151.435581 
L 389.804269 151.35904 
L 391.076537 151.282499 
L 392.348805 151.205958 
L 393.621073 151.129417 
L 394.893341 151.052875 
L 396.16561 150.976334 
L 397.437878 150.899793 
L 398.710146 150.823252 
L 399.982414 150.746711 
L 401.254682 150.67017 
L 402.52695 150.593629 
L 403.799218 150.517088 
L 405.071486 150.440547 
L 406.343755 150.364006 
L 407.616023 150.287464 
" style="fill:none;stroke:#ff7f0e;stroke-linecap:square;stroke-width:1.5;"/>
   </g>
   <g id="line2d_20">
    <path clip-path="url(#p8f38e9359d)" d="M 281.661477 157.096445 
L 282.933745 157.053622 
L 284.206014 157.013937 
L 285.478282 156.977391 
L 286.75055 156.943984 
L 288.022818 156.913716 
L 289.295086 156.886587 
L 290.567354 156.862597 
L 291.839622 156.841746 
L 293.11189 156.824033 
L 294.384159 156.80946 
L 295.656427 156.798025 
L 296.928695 156.78973 
L 298.200963 156.784573 
L 299.473231 156.782555 
L 300.745499 156.783676 
L 302.017767 156.787936 
L 303.290036 156.795335 
L 304.562304 156.805873 
L 305.834572 156.819549 
L 307.10684 156.836365 
L 308.379108 156.856319 
L 309.651376 156.879413 
L 310.923644 156.905645 
L 312.195913 156.935016 
L 313.468181 156.967526 
L 314.740449 157.003175 
L 316.012717 157.041963 
L 317.284985 157.083889 
L 318.557253 157.128955 
L 319.829521 157.17716 
L 321.101789 157.228503 
L 322.374058 157.282985 
L 323.646326 157.340607 
L 324.918594 157.401367 
L 326.190862 157.465266 
L 327.46313 157.532304 
L 328.735398 157.602481 
L 330.007666 157.675796 
L 331.279935 157.752251 
L 332.552203 157.831844 
L 333.824471 157.914577 
L 335.096739 158.000448 
L 336.369007 158.089458 
L 337.641275 158.181608 
L 338.913543 158.276896 
L 340.185812 158.375323 
L 341.45808 158.476888 
L 342.730348 158.581593 
L 344.002616 158.689437 
L 345.274884 158.800419 
L 346.547152 158.914541 
L 347.81942 159.031801 
L 349.091688 159.1522 
L 350.363957 159.275738 
L 351.636225 159.402415 
L 352.908493 159.532231 
L 354.180761 159.665186 
L 355.453029 159.80128 
L 356.725297 159.940513 
L 357.997565 160.082884 
L 359.269834 160.228395 
L 360.542102 160.377044 
L 361.81437 160.528832 
L 363.086638 160.683759 
L 364.358906 160.841825 
L 365.631174 161.00303 
L 366.903442 161.167374 
L 368.175711 161.334857 
L 369.447979 161.505478 
L 370.720247 161.679239 
L 371.992515 161.856138 
L 373.264783 162.036177 
L 374.537051 162.219354 
L 375.809319 162.40567 
L 377.081587 162.595125 
L 378.353856 162.787719 
L 379.626124 162.983452 
L 380.898392 163.182324 
L 382.17066 163.384334 
L 383.442928 163.589484 
L 384.715196 163.797772 
L 385.987464 164.009199 
L 387.259733 164.223766 
L 388.532001 164.441471 
L 389.804269 164.662315 
L 391.076537 164.886298 
L 392.348805 165.11342 
L 393.621073 165.34368 
L 394.893341 165.57708 
L 396.16561 165.813618 
L 397.437878 166.053296 
L 398.710146 166.296112 
L 399.982414 166.542067 
L 401.254682 166.791162 
L 402.52695 167.043395 
L 403.799218 167.298767 
L 405.071486 167.557277 
L 406.343755 167.818927 
L 407.616023 168.083716 
" style="fill:none;stroke:#2ca02c;stroke-linecap:square;stroke-width:1.5;"/>
   </g>
   <g id="line2d_21">
    <path clip-path="url(#p8f38e9359d)" d="M 281.661477 156.547358 
L 282.933745 156.593798 
L 284.206014 156.633682 
L 285.478282 156.667509 
L 286.75055 156.695779 
L 288.022818 156.718989 
L 289.295086 156.737639 
L 290.567354 156.752228 
L 291.839622 156.763254 
L 293.11189 156.771215 
L 294.384159 156.776612 
L 295.656427 156.779942 
L 296.928695 156.781705 
L 298.200963 156.782399 
L 299.473231 156.782523 
L 300.745499 156.782575 
L 302.017767 156.783056 
L 303.290036 156.784462 
L 304.562304 156.787294 
L 305.834572 156.792049 
L 307.10684 156.799227 
L 308.379108 156.809326 
L 309.651376 156.822846 
L 310.923644 156.840285 
L 312.195913 156.862142 
L 313.468181 156.888915 
L 314.740449 156.921103 
L 316.012717 156.959206 
L 317.284985 157.003721 
L 318.557253 157.055149 
L 319.829521 157.113986 
L 321.101789 157.180733 
L 322.374058 157.255889 
L 323.646326 157.33995 
L 324.918594 157.433418 
L 326.190862 157.53679 
L 327.46313 157.650565 
L 328.735398 157.775242 
L 330.007666 157.91132 
L 331.279935 158.059298 
L 332.552203 158.219674 
L 333.824471 158.392946 
L 335.096739 158.579615 
L 336.369007 158.780179 
L 337.641275 158.995136 
L 338.913543 159.224985 
L 340.185812 159.470225 
L 341.45808 159.731355 
L 342.730348 160.008874 
L 344.002616 160.30328 
L 345.274884 160.615072 
L 346.547152 160.944749 
L 347.81942 161.29281 
L 349.091688 161.659753 
L 350.363957 162.046078 
L 351.636225 162.452282 
L 352.908493 162.878866 
L 354.180761 163.326327 
L 355.453029 163.795165 
L 356.725297 164.285877 
L 357.997565 164.798964 
L 359.269834 165.334924 
L 360.542102 165.894255 
L 361.81437 166.477457 
L 363.086638 167.085027 
L 364.358906 167.717466 
L 365.631174 168.375271 
L 366.903442 169.058942 
L 368.175711 169.768977 
L 369.447979 170.505875 
L 370.720247 171.270134 
L 371.992515 172.062255 
L 373.264783 172.882735 
L 374.537051 173.732073 
L 375.809319 174.610768 
L 377.081587 175.519318 
L 378.353856 176.458224 
L 379.626124 177.427982 
L 380.898392 178.429093 
L 382.17066 179.462054 
L 383.442928 180.527365 
L 384.715196 181.625525 
L 385.987464 182.757032 
L 387.259733 183.922385 
L 388.532001 185.122082 
L 389.804269 186.356624 
L 391.076537 187.626507 
L 392.348805 188.932232 
L 393.621073 190.274296 
L 394.893341 191.6532 
L 396.16561 193.069441 
L 397.437878 194.523518 
L 398.710146 196.01593 
L 399.982414 197.547176 
L 401.254682 199.117755 
L 402.52695 200.728165 
L 403.799218 202.378905 
L 405.071486 204.070474 
L 406.343755 205.803371 
L 407.616023 207.578094 
" style="fill:none;stroke:#d62728;stroke-linecap:square;stroke-width:1.5;"/>
   </g>
   <g id="line2d_22">
    <path clip-path="url(#p8f38e9359d)" d="M 281.661477 156.687357 
L 282.933745 156.71155 
L 284.206014 156.730808 
L 285.478282 156.745852 
L 286.75055 156.757348 
L 288.022818 156.765902 
L 289.295086 156.772065 
L 290.567354 156.776331 
L 291.839622 156.779136 
L 293.11189 156.780859 
L 294.384159 156.781822 
L 295.656427 156.782291 
L 296.928695 156.782473 
L 298.200963 156.782519 
L 299.473231 156.782523 
L 300.745499 156.782522 
L 302.017767 156.782495 
L 303.290036 156.782365 
L 304.562304 156.781997 
L 305.834572 156.781199 
L 307.10684 156.779724 
L 308.379108 156.777264 
L 309.651376 156.773458 
L 310.923644 156.767884 
L 312.195913 156.760067 
L 313.468181 156.749471 
L 314.740449 156.735506 
L 316.012717 156.717523 
L 317.284985 156.694817 
L 318.557253 156.666625 
L 319.829521 156.632128 
L 321.101789 156.590448 
L 322.374058 156.540653 
L 323.646326 156.48175 
L 324.918594 156.412693 
L 326.190862 156.332376 
L 327.46313 156.239637 
L 328.735398 156.133257 
L 330.007666 156.011959 
L 331.279935 155.87441 
L 332.552203 155.71922 
L 333.824471 155.544941 
L 335.096739 155.350067 
L 336.369007 155.133039 
L 337.641275 154.892235 
L 338.913543 154.625982 
L 340.185812 154.332545 
L 341.45808 154.010135 
L 342.730348 153.656903 
L 344.002616 153.270947 
L 345.274884 152.850305 
L 346.547152 152.392957 
L 347.81942 151.896829 
L 349.091688 151.359788 
L 350.363957 150.779645 
L 351.636225 150.154151 
L 352.908493 149.481004 
L 354.180761 148.757842 
L 355.453029 147.982248 
L 356.725297 147.151746 
L 357.997565 146.263804 
L 359.269834 145.315832 
L 360.542102 144.305184 
L 361.81437 143.229157 
L 363.086638 142.08499 
L 364.358906 140.869865 
L 365.631174 139.580907 
L 366.903442 138.215185 
L 368.175711 136.76971 
L 369.447979 135.241435 
L 370.720247 133.627257 
L 371.992515 131.924017 
L 373.264783 130.128496 
L 374.537051 128.237421 
L 375.809319 126.247459 
L 377.081587 124.155223 
L 378.353856 121.957266 
L 379.626124 119.650087 
L 380.898392 117.230124 
L 382.17066 114.693761 
L 383.442928 112.037324 
L 384.715196 109.257082 
L 385.987464 106.349247 
L 387.259733 103.309973 
L 388.532001 100.135358 
L 389.804269 96.821443 
L 391.076537 93.364211 
L 392.348805 89.759588 
L 393.621073 86.003443 
L 394.893341 82.091589 
L 396.16561 78.019782 
L 397.437878 73.783717 
L 398.710146 69.379038 
L 399.982414 64.801327 
L 401.254682 60.046112 
L 402.52695 55.108861 
L 403.799218 49.984988 
L 405.071486 44.669848 
L 406.343755 39.158739 
L 407.616023 33.446903 
" style="fill:none;stroke:#9467bd;stroke-linecap:square;stroke-width:1.5;"/>
   </g>
   <g id="line2d_23">
    <path clip-path="url(#p8f38e9359d)" d="M 281.661477 156.773669 
L 282.933745 156.776387 
L 284.206014 156.778392 
L 285.478282 156.779835 
L 286.75055 156.780843 
L 288.022818 156.781523 
L 289.295086 156.781963 
L 290.567354 156.782232 
L 291.839622 156.782386 
L 293.11189 156.782467 
L 294.384159 156.782504 
L 295.656427 156.782518 
L 296.928695 156.782522 
L 298.200963 156.782523 
L 299.473231 156.782523 
L 300.745499 156.782523 
L 302.017767 156.782523 
L 303.290036 156.782526 
L 304.562304 156.782536 
L 305.834572 156.782565 
L 307.10684 156.782631 
L 308.379108 156.78276 
L 309.651376 156.782992 
L 310.923644 156.783376 
L 312.195913 156.783979 
L 313.468181 156.784884 
L 314.740449 156.78619 
L 316.012717 156.788021 
L 317.284985 156.790518 
L 318.557253 156.79385 
L 319.829521 156.798211 
L 321.101789 156.803822 
L 322.374058 156.810935 
L 323.646326 156.819832 
L 324.918594 156.830831 
L 326.190862 156.844284 
L 327.46313 156.860579 
L 328.735398 156.880145 
L 330.007666 156.903452 
L 331.279935 156.931012 
L 332.552203 156.963382 
L 333.824471 157.001167 
L 335.096739 157.045018 
L 336.369007 157.095639 
L 337.641275 157.153784 
L 338.913543 157.220263 
L 340.185812 157.295942 
L 341.45808 157.381744 
L 342.730348 157.478652 
L 344.002616 157.58771 
L 345.274884 157.710028 
L 346.547152 157.846779 
L 347.81942 157.999205 
L 349.091688 158.168616 
L 350.363957 158.356393 
L 351.636225 158.563991 
L 352.908493 158.792939 
L 354.180761 159.044843 
L 355.453029 159.321388 
L 356.725297 159.624339 
L 357.997565 159.955544 
L 359.269834 160.316933 
L 360.542102 160.710526 
L 361.81437 161.138427 
L 363.086638 161.602832 
L 364.358906 162.106029 
L 365.631174 162.650398 
L 366.903442 163.238417 
L 368.175711 163.872658 
L 369.447979 164.555795 
L 370.720247 165.290602 
L 371.992515 166.079957 
L 373.264783 166.926841 
L 374.537051 167.834344 
L 375.809319 168.805662 
L 377.081587 169.844104 
L 378.353856 170.95309 
L 379.626124 172.136155 
L 380.898392 173.39695 
L 382.17066 174.739243 
L 383.442928 176.166923 
L 384.715196 177.684001 
L 385.987464 179.294612 
L 387.259733 181.003013 
L 388.532001 182.813594 
L 389.804269 184.73087 
L 391.076537 186.759488 
L 392.348805 188.90423 
L 393.621073 191.170011 
L 394.893341 193.561884 
L 396.16561 196.085038 
L 397.437878 198.744807 
L 398.710146 201.546664 
L 399.982414 204.496227 
L 401.254682 207.599261 
L 402.52695 210.861678 
L 403.799218 214.289541 
L 405.071486 217.889065 
L 406.343755 221.666617 
L 407.616023 225.628722 
" style="fill:none;stroke:#8c564b;stroke-linecap:square;stroke-width:1.5;"/>
   </g>
   <g id="patch_8">
    <path d="M 275.36375 235.237813 
L 275.36375 23.837812 
" style="fill:none;stroke:#000000;stroke-linecap:square;stroke-linejoin:miter;stroke-width:0.8;"/>
   </g>
   <g id="patch_9">
    <path d="M 413.91375 235.237813 
L 413.91375 23.837812 
" style="fill:none;stroke:#000000;stroke-linecap:square;stroke-linejoin:miter;stroke-width:0.8;"/>
   </g>
   <g id="patch_10">
    <path d="M 275.36375 235.237813 
L 413.91375 235.237813 
" style="fill:none;stroke:#000000;stroke-linecap:square;stroke-linejoin:miter;stroke-width:0.8;"/>
   </g>
   <g id="patch_11">
    <path d="M 275.36375 23.837812 
L 413.91375 23.837812 
" style="fill:none;stroke:#000000;stroke-linecap:square;stroke-linejoin:miter;stroke-width:0.8;"/>
   </g>
   <g id="text_22">
    <!-- Components -->
    <defs>
     <path d="M 64.40625 67.28125 
L 64.40625 56.890625 
Q 59.421875 61.53125 53.78125 63.8125 
Q 48.140625 66.109375 41.796875 66.109375 
Q 29.296875 66.109375 22.65625 58.46875 
Q 16.015625 50.828125 16.015625 36.375 
Q 16.015625 21.96875 22.65625 14.328125 
Q 29.296875 6.6875 41.796875 6.6875 
Q 48.140625 6.6875 53.78125 8.984375 
Q 59.421875 11.28125 64.40625 15.921875 
L 64.40625 5.609375 
Q 59.234375 2.09375 53.4375 0.328125 
Q 47.65625 -1.421875 41.21875 -1.421875 
Q 24.65625 -1.421875 15.125 8.703125 
Q 5.609375 18.84375 5.609375 36.375 
Q 5.609375 53.953125 15.125 64.078125 
Q 24.65625 74.21875 41.21875 74.21875 
Q 47.75 74.21875 53.53125 72.484375 
Q 59.328125 70.75 64.40625 67.28125 
z
" id="DejaVuSans-43"/>
     <path d="M 18.109375 8.203125 
L 18.109375 -20.796875 
L 9.078125 -20.796875 
L 9.078125 54.6875 
L 18.109375 54.6875 
L 18.109375 46.390625 
Q 20.953125 51.265625 25.265625 53.625 
Q 29.59375 56 35.59375 56 
Q 45.5625 56 51.78125 48.09375 
Q 58.015625 40.1875 58.015625 27.296875 
Q 58.015625 14.40625 51.78125 6.484375 
Q 45.5625 -1.421875 35.59375 -1.421875 
Q 29.59375 -1.421875 25.265625 0.953125 
Q 20.953125 3.328125 18.109375 8.203125 
z
M 48.6875 27.296875 
Q 48.6875 37.203125 44.609375 42.84375 
Q 40.53125 48.484375 33.40625 48.484375 
Q 26.265625 48.484375 22.1875 42.84375 
Q 18.109375 37.203125 18.109375 27.296875 
Q 18.109375 17.390625 22.1875 11.75 
Q 26.265625 6.109375 33.40625 6.109375 
Q 40.53125 6.109375 44.609375 11.75 
Q 48.6875 17.390625 48.6875 27.296875 
z
" id="DejaVuSans-70"/>
     <path d="M 56.203125 29.59375 
L 56.203125 25.203125 
L 14.890625 25.203125 
Q 15.484375 15.921875 20.484375 11.0625 
Q 25.484375 6.203125 34.421875 6.203125 
Q 39.59375 6.203125 44.453125 7.46875 
Q 49.3125 8.734375 54.109375 11.28125 
L 54.109375 2.78125 
Q 49.265625 0.734375 44.1875 -0.34375 
Q 39.109375 -1.421875 33.890625 -1.421875 
Q 20.796875 -1.421875 13.15625 6.1875 
Q 5.515625 13.8125 5.515625 26.8125 
Q 5.515625 40.234375 12.765625 48.109375 
Q 20.015625 56 32.328125 56 
Q 43.359375 56 49.78125 48.890625 
Q 56.203125 41.796875 56.203125 29.59375 
z
M 47.21875 32.234375 
Q 47.125 39.59375 43.09375 43.984375 
Q 39.0625 48.390625 32.421875 48.390625 
Q 24.90625 48.390625 20.390625 44.140625 
Q 15.875 39.890625 15.1875 32.171875 
z
" id="DejaVuSans-65"/>
     <path d="M 44.28125 53.078125 
L 44.28125 44.578125 
Q 40.484375 46.53125 36.375 47.5 
Q 32.28125 48.484375 27.875 48.484375 
Q 21.1875 48.484375 17.84375 46.4375 
Q 14.5 44.390625 14.5 40.28125 
Q 14.5 37.15625 16.890625 35.375 
Q 19.28125 33.59375 26.515625 31.984375 
L 29.59375 31.296875 
Q 39.15625 29.25 43.1875 25.515625 
Q 47.21875 21.78125 47.21875 15.09375 
Q 47.21875 7.46875 41.1875 3.015625 
Q 35.15625 -1.421875 24.609375 -1.421875 
Q 20.21875 -1.421875 15.453125 -0.5625 
Q 10.6875 0.296875 5.421875 2 
L 5.421875 11.28125 
Q 10.40625 8.6875 15.234375 7.390625 
Q 20.0625 6.109375 24.8125 6.109375 
Q 31.15625 6.109375 34.5625 8.28125 
Q 37.984375 10.453125 37.984375 14.40625 
Q 37.984375 18.0625 35.515625 20.015625 
Q 33.0625 21.96875 24.703125 23.78125 
L 21.578125 24.515625 
Q 13.234375 26.265625 9.515625 29.90625 
Q 5.8125 33.546875 5.8125 39.890625 
Q 5.8125 47.609375 11.28125 51.796875 
Q 16.75 56 26.8125 56 
Q 31.78125 56 36.171875 55.265625 
Q 40.578125 54.546875 44.28125 53.078125 
z
" id="DejaVuSans-73"/>
    </defs>
    <g transform="translate(300.351719 17.837812)scale(0.14 -0.14)">
     <use xlink:href="#DejaVuSans-43"/>
     <use x="69.824219" xlink:href="#DejaVuSans-6f"/>
     <use x="131.005859" xlink:href="#DejaVuSans-6d"/>
     <use x="228.417969" xlink:href="#DejaVuSans-70"/>
     <use x="291.894531" xlink:href="#DejaVuSans-6f"/>
     <use x="353.076172" xlink:href="#DejaVuSans-6e"/>
     <use x="416.455078" xlink:href="#DejaVuSans-65"/>
     <use x="477.978516" xlink:href="#DejaVuSans-6e"/>
     <use x="541.357422" xlink:href="#DejaVuSans-74"/>
     <use x="580.566406" xlink:href="#DejaVuSans-73"/>
    </g>
   </g>
   <g id="legend_1">
    <g id="patch_12">
     <path d="M 282.36375 119.906562 
L 335.454375 119.906562 
Q 337.454375 119.906562 337.454375 117.906562 
L 337.454375 30.837812 
Q 337.454375 28.837812 335.454375 28.837812 
L 282.36375 28.837812 
Q 280.36375 28.837812 280.36375 30.837812 
L 280.36375 117.906562 
Q 280.36375 119.906562 282.36375 119.906562 
z
" style="fill:#ffffff;opacity:0.8;stroke:#cccccc;stroke-linejoin:miter;"/>
    </g>
    <g id="line2d_24">
     <path d="M 284.36375 36.93625 
L 304.36375 36.93625 
" style="fill:none;stroke:#1f77b4;stroke-linecap:square;stroke-width:1.5;"/>
    </g>
    <g id="line2d_25"/>
    <g id="text_23">
     <!-- d=0 -->
     <defs>
      <path d="M 45.40625 46.390625 
L 45.40625 75.984375 
L 54.390625 75.984375 
L 54.390625 0 
L 45.40625 0 
L 45.40625 8.203125 
Q 42.578125 3.328125 38.25 0.953125 
Q 33.9375 -1.421875 27.875 -1.421875 
Q 17.96875 -1.421875 11.734375 6.484375 
Q 5.515625 14.40625 5.515625 27.296875 
Q 5.515625 40.1875 11.734375 48.09375 
Q 17.96875 56 27.875 56 
Q 33.9375 56 38.25 53.625 
Q 42.578125 51.265625 45.40625 46.390625 
z
M 14.796875 27.296875 
Q 14.796875 17.390625 18.875 11.75 
Q 22.953125 6.109375 30.078125 6.109375 
Q 37.203125 6.109375 41.296875 11.75 
Q 45.40625 17.390625 45.40625 27.296875 
Q 45.40625 37.203125 41.296875 42.84375 
Q 37.203125 48.484375 30.078125 48.484375 
Q 22.953125 48.484375 18.875 42.84375 
Q 14.796875 37.203125 14.796875 27.296875 
z
" id="DejaVuSans-64"/>
     </defs>
     <g transform="translate(312.36375 40.43625)scale(0.1 -0.1)">
      <use xlink:href="#DejaVuSans-64"/>
      <use x="63.476562" xlink:href="#DejaVuSans-3d"/>
      <use x="147.265625" xlink:href="#DejaVuSans-30"/>
     </g>
    </g>
    <g id="line2d_26">
     <path d="M 284.36375 51.614375 
L 304.36375 51.614375 
" style="fill:none;stroke:#ff7f0e;stroke-linecap:square;stroke-width:1.5;"/>
    </g>
    <g id="line2d_27"/>
    <g id="text_24">
     <!-- d=1 -->
     <g transform="translate(312.36375 55.114375)scale(0.1 -0.1)">
      <use xlink:href="#DejaVuSans-64"/>
      <use x="63.476562" xlink:href="#DejaVuSans-3d"/>
      <use x="147.265625" xlink:href="#DejaVuSans-31"/>
     </g>
    </g>
    <g id="line2d_28">
     <path d="M 284.36375 66.2925 
L 304.36375 66.2925 
" style="fill:none;stroke:#2ca02c;stroke-linecap:square;stroke-width:1.5;"/>
    </g>
    <g id="line2d_29"/>
    <g id="text_25">
     <!-- d=2 -->
     <defs>
      <path d="M 19.1875 8.296875 
L 53.609375 8.296875 
L 53.609375 0 
L 7.328125 0 
L 7.328125 8.296875 
Q 12.9375 14.109375 22.625 23.890625 
Q 32.328125 33.6875 34.8125 36.53125 
Q 39.546875 41.84375 41.421875 45.53125 
Q 43.3125 49.21875 43.3125 52.78125 
Q 43.3125 58.59375 39.234375 62.25 
Q 35.15625 65.921875 28.609375 65.921875 
Q 23.96875 65.921875 18.8125 64.3125 
Q 13.671875 62.703125 7.8125 59.421875 
L 7.8125 69.390625 
Q 13.765625 71.78125 18.9375 73 
Q 24.125 74.21875 28.421875 74.21875 
Q 39.75 74.21875 46.484375 68.546875 
Q 53.21875 62.890625 53.21875 53.421875 
Q 53.21875 48.921875 51.53125 44.890625 
Q 49.859375 40.875 45.40625 35.40625 
Q 44.1875 33.984375 37.640625 27.21875 
Q 31.109375 20.453125 19.1875 8.296875 
z
" id="DejaVuSans-32"/>
     </defs>
     <g transform="translate(312.36375 69.7925)scale(0.1 -0.1)">
      <use xlink:href="#DejaVuSans-64"/>
      <use x="63.476562" xlink:href="#DejaVuSans-3d"/>
      <use x="147.265625" xlink:href="#DejaVuSans-32"/>
     </g>
    </g>
    <g id="line2d_30">
     <path d="M 284.36375 80.970625 
L 304.36375 80.970625 
" style="fill:none;stroke:#d62728;stroke-linecap:square;stroke-width:1.5;"/>
    </g>
    <g id="line2d_31"/>
    <g id="text_26">
     <!-- d=3 -->
     <defs>
      <path d="M 40.578125 39.3125 
Q 47.65625 37.796875 51.625 33 
Q 55.609375 28.21875 55.609375 21.1875 
Q 55.609375 10.40625 48.1875 4.484375 
Q 40.765625 -1.421875 27.09375 -1.421875 
Q 22.515625 -1.421875 17.65625 -0.515625 
Q 12.796875 0.390625 7.625 2.203125 
L 7.625 11.71875 
Q 11.71875 9.328125 16.59375 8.109375 
Q 21.484375 6.890625 26.8125 6.890625 
Q 36.078125 6.890625 40.9375 10.546875 
Q 45.796875 14.203125 45.796875 21.1875 
Q 45.796875 27.640625 41.28125 31.265625 
Q 36.765625 34.90625 28.71875 34.90625 
L 20.21875 34.90625 
L 20.21875 43.015625 
L 29.109375 43.015625 
Q 36.375 43.015625 40.234375 45.921875 
Q 44.09375 48.828125 44.09375 54.296875 
Q 44.09375 59.90625 40.109375 62.90625 
Q 36.140625 65.921875 28.71875 65.921875 
Q 24.65625 65.921875 20.015625 65.03125 
Q 15.375 64.15625 9.8125 62.3125 
L 9.8125 71.09375 
Q 15.4375 72.65625 20.34375 73.4375 
Q 25.25 74.21875 29.59375 74.21875 
Q 40.828125 74.21875 47.359375 69.109375 
Q 53.90625 64.015625 53.90625 55.328125 
Q 53.90625 49.265625 50.4375 45.09375 
Q 46.96875 40.921875 40.578125 39.3125 
z
" id="DejaVuSans-33"/>
     </defs>
     <g transform="translate(312.36375 84.470625)scale(0.1 -0.1)">
      <use xlink:href="#DejaVuSans-64"/>
      <use x="63.476562" xlink:href="#DejaVuSans-3d"/>
      <use x="147.265625" xlink:href="#DejaVuSans-33"/>
     </g>
    </g>
    <g id="line2d_32">
     <path d="M 284.36375 95.64875 
L 304.36375 95.64875 
" style="fill:none;stroke:#9467bd;stroke-linecap:square;stroke-width:1.5;"/>
    </g>
    <g id="line2d_33"/>
    <g id="text_27">
     <!-- d=4 -->
     <defs>
      <path d="M 37.796875 64.3125 
L 12.890625 25.390625 
L 37.796875 25.390625 
z
M 35.203125 72.90625 
L 47.609375 72.90625 
L 47.609375 25.390625 
L 58.015625 25.390625 
L 58.015625 17.1875 
L 47.609375 17.1875 
L 47.609375 0 
L 37.796875 0 
L 37.796875 17.1875 
L 4.890625 17.1875 
L 4.890625 26.703125 
z
" id="DejaVuSans-34"/>
     </defs>
     <g transform="translate(312.36375 99.14875)scale(0.1 -0.1)">
      <use xlink:href="#DejaVuSans-64"/>
      <use x="63.476562" xlink:href="#DejaVuSans-3d"/>
      <use x="147.265625" xlink:href="#DejaVuSans-34"/>
     </g>
    </g>
    <g id="line2d_34">
     <path d="M 284.36375 110.326875 
L 304.36375 110.326875 
" style="fill:none;stroke:#8c564b;stroke-linecap:square;stroke-width:1.5;"/>
    </g>
    <g id="line2d_35"/>
    <g id="text_28">
     <!-- d=5 -->
     <g transform="translate(312.36375 113.826875)scale(0.1 -0.1)">
      <use xlink:href="#DejaVuSans-64"/>
      <use x="63.476562" xlink:href="#DejaVuSans-3d"/>
      <use x="147.265625" xlink:href="#DejaVuSans-35"/>
     </g>
    </g>
   </g>
  </g>
 </g>
 <defs>
  <clipPath id="p5c414fc227">
   <rect height="211.4" width="138.55" x="60.88875" y="23.837812"/>
  </clipPath>
  <clipPath id="p8f38e9359d">
   <rect height="211.4" width="138.55" x="275.36375" y="23.837812"/>
  </clipPath>
 </defs>
</svg>
