<?xml version="1.0" encoding="utf-8" standalone="no"?>
<!DOCTYPE svg PUBLIC "-//W3C//DTD SVG 1.1//EN"
  "http://www.w3.org/Graphics/SVG/1.1/DTD/svg11.dtd">
<!-- Created with matplotlib (https://matplotlib.org/) -->
<svg height="208.05625pt" version="1.1" viewBox="0 0 656.725937 208.05625" width="656.725937pt" xmlns="http://www.w3.org/2000/svg" xmlns:xlink="http://www.w3.org/1999/xlink">
 <metadata>
  <rdf:RDF xmlns:cc="http://creativecommons.org/ns#" xmlns:dc="http://purl.org/dc/elements/1.1/" xmlns:rdf="http://www.w3.org/1999/02/22-rdf-syntax-ns#">
   <cc:Work>
    <dc:type rdf:resource="http://purl.org/dc/dcmitype/StillImage"/>
    <dc:date>2021-02-10T00:19:28.873322</dc:date>
    <dc:format>image/svg+xml</dc:format>
    <dc:creator>
     <cc:Agent>
      <dc:title>Matplotlib v3.3.3, https://matplotlib.org/</dc:title>
     </cc:Agent>
    </dc:creator>
   </cc:Work>
  </rdf:RDF>
 </metadata>
 <defs>
  <style type="text/css">*{stroke-linecap:butt;stroke-linejoin:round;}</style>
 </defs>
 <g id="figure_1">
  <g id="patch_1">
   <path d="M 0 208.05625 
L 656.725937 208.05625 
L 656.725937 0 
L 0 0 
z
" style="fill:none;"/>
  </g>
  <g id="axes_1">
   <g id="patch_2">
    <path d="M 59.903438 162.7575 
L 315.328437 162.7575 
L 315.328437 25.3575 
L 59.903438 25.3575 
z
" style="fill:#ffffff;"/>
   </g>
   <g id="PathCollection_1">
    <defs>
     <path d="M -3 3 
L 3 -3 
M -3 -3 
L 3 3 
" id="m7f9b4ca349" style="stroke:#ff0000;stroke-width:1.5;"/>
    </defs>
    <g clip-path="url(#p79316f2857)">
     <use style="fill:#ff0000;stroke:#ff0000;stroke-width:1.5;" x="207.010656" xlink:href="#m7f9b4ca349" y="114.836918"/>
     <use style="fill:#ff0000;stroke:#ff0000;stroke-width:1.5;" x="139.579876" xlink:href="#m7f9b4ca349" y="31.372764"/>
     <use style="fill:#ff0000;stroke:#ff0000;stroke-width:1.5;" x="119.137042" xlink:href="#m7f9b4ca349" y="54.660089"/>
     <use style="fill:#ff0000;stroke:#ff0000;stroke-width:1.5;" x="107.802226" xlink:href="#m7f9b4ca349" y="81.401017"/>
     <use style="fill:#ff0000;stroke:#ff0000;stroke-width:1.5;" x="258.205562" xlink:href="#m7f9b4ca349" y="92.377126"/>
     <use style="fill:#ff0000;stroke:#ff0000;stroke-width:1.5;" x="108.039174" xlink:href="#m7f9b4ca349" y="66.720114"/>
     <use style="fill:#ff0000;stroke:#ff0000;stroke-width:1.5;" x="157.002812" xlink:href="#m7f9b4ca349" y="40.916816"/>
     <use style="fill:#ff0000;stroke:#ff0000;stroke-width:1.5;" x="114.674763" xlink:href="#m7f9b4ca349" y="46.418223"/>
     <use style="fill:#ff0000;stroke:#ff0000;stroke-width:1.5;" x="264.519224" xlink:href="#m7f9b4ca349" y="87.678803"/>
     <use style="fill:#ff0000;stroke:#ff0000;stroke-width:1.5;" x="174.953293" xlink:href="#m7f9b4ca349" y="62.249689"/>
    </g>
   </g>
   <g id="matplotlib.axis_1">
    <g id="xtick_1">
     <g id="line2d_1">
      <defs>
       <path d="M 0 0 
L 0 3.5 
" id="m88cf3b7ddd" style="stroke:#000000;stroke-width:0.8;"/>
      </defs>
      <g>
       <use style="stroke:#000000;stroke-width:0.8;" x="104.685743" xlink:href="#m88cf3b7ddd" y="162.7575"/>
      </g>
     </g>
     <g id="text_1">
      <!-- 0.00 -->
      <g transform="translate(93.55293 177.355938)scale(0.1 -0.1)">
       <defs>
        <path d="M 31.78125 66.40625 
Q 24.171875 66.40625 20.328125 58.90625 
Q 16.5 51.421875 16.5 36.375 
Q 16.5 21.390625 20.328125 13.890625 
Q 24.171875 6.390625 31.78125 6.390625 
Q 39.453125 6.390625 43.28125 13.890625 
Q 47.125 21.390625 47.125 36.375 
Q 47.125 51.421875 43.28125 58.90625 
Q 39.453125 66.40625 31.78125 66.40625 
z
M 31.78125 74.21875 
Q 44.046875 74.21875 50.515625 64.515625 
Q 56.984375 54.828125 56.984375 36.375 
Q 56.984375 17.96875 50.515625 8.265625 
Q 44.046875 -1.421875 31.78125 -1.421875 
Q 19.53125 -1.421875 13.0625 8.265625 
Q 6.59375 17.96875 6.59375 36.375 
Q 6.59375 54.828125 13.0625 64.515625 
Q 19.53125 74.21875 31.78125 74.21875 
z
" id="DejaVuSans-48"/>
        <path d="M 10.6875 12.40625 
L 21 12.40625 
L 21 0 
L 10.6875 0 
z
" id="DejaVuSans-46"/>
       </defs>
       <use xlink:href="#DejaVuSans-48"/>
       <use x="63.623047" xlink:href="#DejaVuSans-46"/>
       <use x="95.410156" xlink:href="#DejaVuSans-48"/>
       <use x="159.033203" xlink:href="#DejaVuSans-48"/>
      </g>
     </g>
    </g>
    <g id="xtick_2">
     <g id="line2d_2">
      <g>
       <use style="stroke:#000000;stroke-width:0.8;" x="146.15084" xlink:href="#m88cf3b7ddd" y="162.7575"/>
      </g>
     </g>
     <g id="text_2">
      <!-- 0.25 -->
      <g transform="translate(135.018028 177.355938)scale(0.1 -0.1)">
       <defs>
        <path d="M 19.1875 8.296875 
L 53.609375 8.296875 
L 53.609375 0 
L 7.328125 0 
L 7.328125 8.296875 
Q 12.9375 14.109375 22.625 23.890625 
Q 32.328125 33.6875 34.8125 36.53125 
Q 39.546875 41.84375 41.421875 45.53125 
Q 43.3125 49.21875 43.3125 52.78125 
Q 43.3125 58.59375 39.234375 62.25 
Q 35.15625 65.921875 28.609375 65.921875 
Q 23.96875 65.921875 18.8125 64.3125 
Q 13.671875 62.703125 7.8125 59.421875 
L 7.8125 69.390625 
Q 13.765625 71.78125 18.9375 73 
Q 24.125 74.21875 28.421875 74.21875 
Q 39.75 74.21875 46.484375 68.546875 
Q 53.21875 62.890625 53.21875 53.421875 
Q 53.21875 48.921875 51.53125 44.890625 
Q 49.859375 40.875 45.40625 35.40625 
Q 44.1875 33.984375 37.640625 27.21875 
Q 31.109375 20.453125 19.1875 8.296875 
z
" id="DejaVuSans-50"/>
        <path d="M 10.796875 72.90625 
L 49.515625 72.90625 
L 49.515625 64.59375 
L 19.828125 64.59375 
L 19.828125 46.734375 
Q 21.96875 47.46875 24.109375 47.828125 
Q 26.265625 48.1875 28.421875 48.1875 
Q 40.625 48.1875 47.75 41.5 
Q 54.890625 34.8125 54.890625 23.390625 
Q 54.890625 11.625 47.5625 5.09375 
Q 40.234375 -1.421875 26.90625 -1.421875 
Q 22.3125 -1.421875 17.546875 -0.640625 
Q 12.796875 0.140625 7.71875 1.703125 
L 7.71875 11.625 
Q 12.109375 9.234375 16.796875 8.0625 
Q 21.484375 6.890625 26.703125 6.890625 
Q 35.15625 6.890625 40.078125 11.328125 
Q 45.015625 15.765625 45.015625 23.390625 
Q 45.015625 31 40.078125 35.4375 
Q 35.15625 39.890625 26.703125 39.890625 
Q 22.75 39.890625 18.8125 39.015625 
Q 14.890625 38.140625 10.796875 36.28125 
z
" id="DejaVuSans-53"/>
       </defs>
       <use xlink:href="#DejaVuSans-48"/>
       <use x="63.623047" xlink:href="#DejaVuSans-46"/>
       <use x="95.410156" xlink:href="#DejaVuSans-50"/>
       <use x="159.033203" xlink:href="#DejaVuSans-53"/>
      </g>
     </g>
    </g>
    <g id="xtick_3">
     <g id="line2d_3">
      <g>
       <use style="stroke:#000000;stroke-width:0.8;" x="187.615937" xlink:href="#m88cf3b7ddd" y="162.7575"/>
      </g>
     </g>
     <g id="text_3">
      <!-- 0.50 -->
      <g transform="translate(176.483125 177.355938)scale(0.1 -0.1)">
       <use xlink:href="#DejaVuSans-48"/>
       <use x="63.623047" xlink:href="#DejaVuSans-46"/>
       <use x="95.410156" xlink:href="#DejaVuSans-53"/>
       <use x="159.033203" xlink:href="#DejaVuSans-48"/>
      </g>
     </g>
    </g>
    <g id="xtick_4">
     <g id="line2d_4">
      <g>
       <use style="stroke:#000000;stroke-width:0.8;" x="229.081035" xlink:href="#m88cf3b7ddd" y="162.7575"/>
      </g>
     </g>
     <g id="text_4">
      <!-- 0.75 -->
      <g transform="translate(217.948222 177.355938)scale(0.1 -0.1)">
       <defs>
        <path d="M 8.203125 72.90625 
L 55.078125 72.90625 
L 55.078125 68.703125 
L 28.609375 0 
L 18.3125 0 
L 43.21875 64.59375 
L 8.203125 64.59375 
z
" id="DejaVuSans-55"/>
       </defs>
       <use xlink:href="#DejaVuSans-48"/>
       <use x="63.623047" xlink:href="#DejaVuSans-46"/>
       <use x="95.410156" xlink:href="#DejaVuSans-55"/>
       <use x="159.033203" xlink:href="#DejaVuSans-53"/>
      </g>
     </g>
    </g>
    <g id="xtick_5">
     <g id="line2d_5">
      <g>
       <use style="stroke:#000000;stroke-width:0.8;" x="270.546132" xlink:href="#m88cf3b7ddd" y="162.7575"/>
      </g>
     </g>
     <g id="text_5">
      <!-- 1.00 -->
      <g transform="translate(259.41332 177.355938)scale(0.1 -0.1)">
       <defs>
        <path d="M 12.40625 8.296875 
L 28.515625 8.296875 
L 28.515625 63.921875 
L 10.984375 60.40625 
L 10.984375 69.390625 
L 28.421875 72.90625 
L 38.28125 72.90625 
L 38.28125 8.296875 
L 54.390625 8.296875 
L 54.390625 0 
L 12.40625 0 
z
" id="DejaVuSans-49"/>
       </defs>
       <use xlink:href="#DejaVuSans-49"/>
       <use x="63.623047" xlink:href="#DejaVuSans-46"/>
       <use x="95.410156" xlink:href="#DejaVuSans-48"/>
       <use x="159.033203" xlink:href="#DejaVuSans-48"/>
      </g>
     </g>
    </g>
    <g id="text_6">
     <!-- $x$ -->
     <g transform="translate(182.215937 197.112813)scale(0.18 -0.18)">
      <defs>
       <path d="M 60.015625 54.6875 
L 34.90625 27.875 
L 50.296875 0 
L 39.984375 0 
L 28.421875 21.6875 
L 8.296875 0 
L -2.59375 0 
L 24.3125 28.8125 
L 10.015625 54.6875 
L 20.3125 54.6875 
L 30.8125 34.90625 
L 49.125 54.6875 
z
" id="DejaVuSans-Oblique-120"/>
      </defs>
      <use transform="translate(0 0.3125)" xlink:href="#DejaVuSans-Oblique-120"/>
     </g>
    </g>
   </g>
   <g id="matplotlib.axis_2">
    <g id="ytick_1">
     <g id="line2d_6">
      <defs>
       <path d="M 0 0 
L -3.5 0 
" id="m215c558ae2" style="stroke:#000000;stroke-width:0.8;"/>
      </defs>
      <g>
       <use style="stroke:#000000;stroke-width:0.8;" x="59.903438" xlink:href="#m215c558ae2" y="162.7575"/>
      </g>
     </g>
     <g id="text_7">
      <!-- −1.5 -->
      <g transform="translate(28.620625 166.556719)scale(0.1 -0.1)">
       <defs>
        <path d="M 10.59375 35.5 
L 73.1875 35.5 
L 73.1875 27.203125 
L 10.59375 27.203125 
z
" id="DejaVuSans-8722"/>
       </defs>
       <use xlink:href="#DejaVuSans-8722"/>
       <use x="83.789062" xlink:href="#DejaVuSans-49"/>
       <use x="147.412109" xlink:href="#DejaVuSans-46"/>
       <use x="179.199219" xlink:href="#DejaVuSans-53"/>
      </g>
     </g>
    </g>
    <g id="ytick_2">
     <g id="line2d_7">
      <g>
       <use style="stroke:#000000;stroke-width:0.8;" x="59.903438" xlink:href="#m215c558ae2" y="135.405095"/>
      </g>
     </g>
     <g id="text_8">
      <!-- −1.0 -->
      <g transform="translate(28.620625 139.204314)scale(0.1 -0.1)">
       <use xlink:href="#DejaVuSans-8722"/>
       <use x="83.789062" xlink:href="#DejaVuSans-49"/>
       <use x="147.412109" xlink:href="#DejaVuSans-46"/>
       <use x="179.199219" xlink:href="#DejaVuSans-48"/>
      </g>
     </g>
    </g>
    <g id="ytick_3">
     <g id="line2d_8">
      <g>
       <use style="stroke:#000000;stroke-width:0.8;" x="59.903438" xlink:href="#m215c558ae2" y="108.05269"/>
      </g>
     </g>
     <g id="text_9">
      <!-- −0.5 -->
      <g transform="translate(28.620625 111.851909)scale(0.1 -0.1)">
       <use xlink:href="#DejaVuSans-8722"/>
       <use x="83.789062" xlink:href="#DejaVuSans-48"/>
       <use x="147.412109" xlink:href="#DejaVuSans-46"/>
       <use x="179.199219" xlink:href="#DejaVuSans-53"/>
      </g>
     </g>
    </g>
    <g id="ytick_4">
     <g id="line2d_9">
      <g>
       <use style="stroke:#000000;stroke-width:0.8;" x="59.903438" xlink:href="#m215c558ae2" y="80.700285"/>
      </g>
     </g>
     <g id="text_10">
      <!-- 0.0 -->
      <g transform="translate(37.000312 84.499504)scale(0.1 -0.1)">
       <use xlink:href="#DejaVuSans-48"/>
       <use x="63.623047" xlink:href="#DejaVuSans-46"/>
       <use x="95.410156" xlink:href="#DejaVuSans-48"/>
      </g>
     </g>
    </g>
    <g id="ytick_5">
     <g id="line2d_10">
      <g>
       <use style="stroke:#000000;stroke-width:0.8;" x="59.903438" xlink:href="#m215c558ae2" y="53.34788"/>
      </g>
     </g>
     <g id="text_11">
      <!-- 0.5 -->
      <g transform="translate(37.000312 57.147099)scale(0.1 -0.1)">
       <use xlink:href="#DejaVuSans-48"/>
       <use x="63.623047" xlink:href="#DejaVuSans-46"/>
       <use x="95.410156" xlink:href="#DejaVuSans-53"/>
      </g>
     </g>
    </g>
    <g id="ytick_6">
     <g id="line2d_11">
      <g>
       <use style="stroke:#000000;stroke-width:0.8;" x="59.903438" xlink:href="#m215c558ae2" y="25.995475"/>
      </g>
     </g>
     <g id="text_12">
      <!-- 1.0 -->
      <g transform="translate(37.000312 29.794694)scale(0.1 -0.1)">
       <use xlink:href="#DejaVuSans-49"/>
       <use x="63.623047" xlink:href="#DejaVuSans-46"/>
       <use x="95.410156" xlink:href="#DejaVuSans-48"/>
      </g>
     </g>
    </g>
    <g id="text_13">
     <!-- $y$ -->
     <g transform="translate(20.840625 99.4575)rotate(-90)scale(0.18 -0.18)">
      <defs>
       <path d="M 24.8125 -5.078125 
Q 18.5625 -15.578125 14.625 -18.1875 
Q 10.6875 -20.796875 4.59375 -20.796875 
L -2.484375 -20.796875 
L -0.984375 -13.28125 
L 4.203125 -13.28125 
Q 7.953125 -13.28125 10.59375 -11.234375 
Q 13.234375 -9.1875 16.5 -3.21875 
L 19.28125 2 
L 7.171875 54.6875 
L 16.703125 54.6875 
L 25.78125 12.796875 
L 50.875 54.6875 
L 60.296875 54.6875 
z
" id="DejaVuSans-Oblique-121"/>
      </defs>
      <use transform="translate(0 0.3125)" xlink:href="#DejaVuSans-Oblique-121"/>
     </g>
    </g>
   </g>
   <g id="line2d_12">
    <path clip-path="url(#p79316f2857)" d="M 71.513665 99.445721 
L 73.859165 99.346847 
L 76.204666 99.033647 
L 78.550166 98.488178 
L 80.895667 97.694683 
L 83.241167 96.640104 
L 85.586668 95.31459 
L 87.932168 93.711967 
L 90.277668 91.830164 
L 92.623169 89.67158 
L 94.968669 87.243371 
L 97.31417 84.557657 
L 99.65967 81.631623 
L 102.005171 78.487523 
L 104.350671 75.152563 
L 106.696172 71.658674 
L 109.041672 68.04217 
L 111.387173 64.343291 
L 113.732673 60.60564 
L 116.078173 56.875532 
L 118.423674 53.201249 
L 120.769174 49.632236 
L 123.114675 46.21824 
L 125.460175 43.00842 
L 127.805676 40.050448 
L 130.151176 37.389612 
L 132.496677 35.067959 
L 134.842177 33.123478 
L 137.187678 31.589359 
L 139.533178 30.493336 
L 141.878679 29.857133 
L 144.224179 29.696017 
L 146.569679 30.018485 
L 148.91518 30.826075 
L 151.26068 32.11331 
L 153.606181 33.867775 
L 155.951681 36.070335 
L 158.297182 38.695461 
L 160.642682 41.711688 
L 162.988183 45.082174 
L 165.333683 48.765348 
L 167.679184 52.715639 
L 170.024684 56.884273 
L 172.370185 61.220104 
L 174.715685 65.670485 
L 177.061185 70.182141 
L 179.406686 74.702035 
L 181.752186 79.17822 
L 184.097687 83.56064 
L 186.443187 87.801885 
L 188.788688 91.857874 
L 191.134188 95.688462 
L 193.479689 99.257959 
L 195.825189 102.535556 
L 198.17069 105.49564 
L 200.51619 108.118021 
L 202.86169 110.388037 
L 205.207191 112.296569 
L 207.552691 113.839946 
L 209.898192 115.019759 
L 212.243692 115.842588 
L 214.589193 116.319644 
L 216.934693 116.466352 
L 219.280194 116.301863 
L 221.625694 115.848538 
L 223.971195 115.131381 
L 226.316695 114.177469 
L 228.662196 113.015369 
L 231.007696 111.674556 
L 233.353196 110.184864 
L 235.698697 108.57595 
L 238.044197 106.876812 
L 240.389698 105.11534 
L 242.735198 103.317932 
L 245.080699 101.509165 
L 247.426199 99.711521 
L 249.7717 97.945193 
L 252.1172 96.227931 
L 254.462701 94.574971 
L 256.808201 92.999009 
L 259.153702 91.51023 
L 261.499202 90.116389 
L 263.844702 88.822931 
L 266.190203 87.633147 
L 268.535703 86.548356 
L 270.881204 85.568112 
L 273.226704 84.690419 
L 275.572205 83.911959 
L 277.917705 83.228316 
L 280.263206 82.634202 
L 282.608706 82.123665 
L 284.954207 81.690292 
L 287.299707 81.327391 
L 289.645207 81.028156 
L 291.990708 80.785812 
L 294.336208 80.593736 
L 296.681709 80.445563 
L 299.027209 80.335264 
L 301.37271 80.257209 
L 303.71821 80.206213 
" style="fill:none;stroke:#000000;stroke-linecap:square;stroke-width:1.5;"/>
   </g>
   <g id="patch_3">
    <path d="M 59.903438 162.7575 
L 59.903438 25.3575 
" style="fill:none;stroke:#000000;stroke-linecap:square;stroke-linejoin:miter;stroke-width:0.8;"/>
   </g>
   <g id="patch_4">
    <path d="M 315.328437 162.7575 
L 315.328437 25.3575 
" style="fill:none;stroke:#000000;stroke-linecap:square;stroke-linejoin:miter;stroke-width:0.8;"/>
   </g>
   <g id="patch_5">
    <path d="M 59.903437 162.7575 
L 315.328437 162.7575 
" style="fill:none;stroke:#000000;stroke-linecap:square;stroke-linejoin:miter;stroke-width:0.8;"/>
   </g>
   <g id="patch_6">
    <path d="M 59.903437 25.3575 
L 315.328437 25.3575 
" style="fill:none;stroke:#000000;stroke-linecap:square;stroke-linejoin:miter;stroke-width:0.8;"/>
   </g>
   <g id="text_14">
    <!-- Training data and predictions -->
    <g transform="translate(71.054687 19.3575)scale(0.16 -0.16)">
     <defs>
      <path d="M -0.296875 72.90625 
L 61.375 72.90625 
L 61.375 64.59375 
L 35.5 64.59375 
L 35.5 0 
L 25.59375 0 
L 25.59375 64.59375 
L -0.296875 64.59375 
z
" id="DejaVuSans-84"/>
      <path d="M 41.109375 46.296875 
Q 39.59375 47.171875 37.8125 47.578125 
Q 36.03125 48 33.890625 48 
Q 26.265625 48 22.1875 43.046875 
Q 18.109375 38.09375 18.109375 28.8125 
L 18.109375 0 
L 9.078125 0 
L 9.078125 54.6875 
L 18.109375 54.6875 
L 18.109375 46.1875 
Q 20.953125 51.171875 25.484375 53.578125 
Q 30.03125 56 36.53125 56 
Q 37.453125 56 38.578125 55.875 
Q 39.703125 55.765625 41.0625 55.515625 
z
" id="DejaVuSans-114"/>
      <path d="M 34.28125 27.484375 
Q 23.390625 27.484375 19.1875 25 
Q 14.984375 22.515625 14.984375 16.5 
Q 14.984375 11.71875 18.140625 8.90625 
Q 21.296875 6.109375 26.703125 6.109375 
Q 34.1875 6.109375 38.703125 11.40625 
Q 43.21875 16.703125 43.21875 25.484375 
L 43.21875 27.484375 
z
M 52.203125 31.203125 
L 52.203125 0 
L 43.21875 0 
L 43.21875 8.296875 
Q 40.140625 3.328125 35.546875 0.953125 
Q 30.953125 -1.421875 24.3125 -1.421875 
Q 15.921875 -1.421875 10.953125 3.296875 
Q 6 8.015625 6 15.921875 
Q 6 25.140625 12.171875 29.828125 
Q 18.359375 34.515625 30.609375 34.515625 
L 43.21875 34.515625 
L 43.21875 35.40625 
Q 43.21875 41.609375 39.140625 45 
Q 35.0625 48.390625 27.6875 48.390625 
Q 23 48.390625 18.546875 47.265625 
Q 14.109375 46.140625 10.015625 43.890625 
L 10.015625 52.203125 
Q 14.9375 54.109375 19.578125 55.046875 
Q 24.21875 56 28.609375 56 
Q 40.484375 56 46.34375 49.84375 
Q 52.203125 43.703125 52.203125 31.203125 
z
" id="DejaVuSans-97"/>
      <path d="M 9.421875 54.6875 
L 18.40625 54.6875 
L 18.40625 0 
L 9.421875 0 
z
M 9.421875 75.984375 
L 18.40625 75.984375 
L 18.40625 64.59375 
L 9.421875 64.59375 
z
" id="DejaVuSans-105"/>
      <path d="M 54.890625 33.015625 
L 54.890625 0 
L 45.90625 0 
L 45.90625 32.71875 
Q 45.90625 40.484375 42.875 44.328125 
Q 39.84375 48.1875 33.796875 48.1875 
Q 26.515625 48.1875 22.3125 43.546875 
Q 18.109375 38.921875 18.109375 30.90625 
L 18.109375 0 
L 9.078125 0 
L 9.078125 54.6875 
L 18.109375 54.6875 
L 18.109375 46.1875 
Q 21.34375 51.125 25.703125 53.5625 
Q 30.078125 56 35.796875 56 
Q 45.21875 56 50.046875 50.171875 
Q 54.890625 44.34375 54.890625 33.015625 
z
" id="DejaVuSans-110"/>
      <path d="M 45.40625 27.984375 
Q 45.40625 37.75 41.375 43.109375 
Q 37.359375 48.484375 30.078125 48.484375 
Q 22.859375 48.484375 18.828125 43.109375 
Q 14.796875 37.75 14.796875 27.984375 
Q 14.796875 18.265625 18.828125 12.890625 
Q 22.859375 7.515625 30.078125 7.515625 
Q 37.359375 7.515625 41.375 12.890625 
Q 45.40625 18.265625 45.40625 27.984375 
z
M 54.390625 6.78125 
Q 54.390625 -7.171875 48.1875 -13.984375 
Q 42 -20.796875 29.203125 -20.796875 
Q 24.46875 -20.796875 20.265625 -20.09375 
Q 16.0625 -19.390625 12.109375 -17.921875 
L 12.109375 -9.1875 
Q 16.0625 -11.328125 19.921875 -12.34375 
Q 23.78125 -13.375 27.78125 -13.375 
Q 36.625 -13.375 41.015625 -8.765625 
Q 45.40625 -4.15625 45.40625 5.171875 
L 45.40625 9.625 
Q 42.625 4.78125 38.28125 2.390625 
Q 33.9375 0 27.875 0 
Q 17.828125 0 11.671875 7.65625 
Q 5.515625 15.328125 5.515625 27.984375 
Q 5.515625 40.671875 11.671875 48.328125 
Q 17.828125 56 27.875 56 
Q 33.9375 56 38.28125 53.609375 
Q 42.625 51.21875 45.40625 46.390625 
L 45.40625 54.6875 
L 54.390625 54.6875 
z
" id="DejaVuSans-103"/>
      <path id="DejaVuSans-32"/>
      <path d="M 45.40625 46.390625 
L 45.40625 75.984375 
L 54.390625 75.984375 
L 54.390625 0 
L 45.40625 0 
L 45.40625 8.203125 
Q 42.578125 3.328125 38.25 0.953125 
Q 33.9375 -1.421875 27.875 -1.421875 
Q 17.96875 -1.421875 11.734375 6.484375 
Q 5.515625 14.40625 5.515625 27.296875 
Q 5.515625 40.1875 11.734375 48.09375 
Q 17.96875 56 27.875 56 
Q 33.9375 56 38.25 53.625 
Q 42.578125 51.265625 45.40625 46.390625 
z
M 14.796875 27.296875 
Q 14.796875 17.390625 18.875 11.75 
Q 22.953125 6.109375 30.078125 6.109375 
Q 37.203125 6.109375 41.296875 11.75 
Q 45.40625 17.390625 45.40625 27.296875 
Q 45.40625 37.203125 41.296875 42.84375 
Q 37.203125 48.484375 30.078125 48.484375 
Q 22.953125 48.484375 18.875 42.84375 
Q 14.796875 37.203125 14.796875 27.296875 
z
" id="DejaVuSans-100"/>
      <path d="M 18.3125 70.21875 
L 18.3125 54.6875 
L 36.8125 54.6875 
L 36.8125 47.703125 
L 18.3125 47.703125 
L 18.3125 18.015625 
Q 18.3125 11.328125 20.140625 9.421875 
Q 21.96875 7.515625 27.59375 7.515625 
L 36.8125 7.515625 
L 36.8125 0 
L 27.59375 0 
Q 17.1875 0 13.234375 3.875 
Q 9.28125 7.765625 9.28125 18.015625 
L 9.28125 47.703125 
L 2.6875 47.703125 
L 2.6875 54.6875 
L 9.28125 54.6875 
L 9.28125 70.21875 
z
" id="DejaVuSans-116"/>
      <path d="M 18.109375 8.203125 
L 18.109375 -20.796875 
L 9.078125 -20.796875 
L 9.078125 54.6875 
L 18.109375 54.6875 
L 18.109375 46.390625 
Q 20.953125 51.265625 25.265625 53.625 
Q 29.59375 56 35.59375 56 
Q 45.5625 56 51.78125 48.09375 
Q 58.015625 40.1875 58.015625 27.296875 
Q 58.015625 14.40625 51.78125 6.484375 
Q 45.5625 -1.421875 35.59375 -1.421875 
Q 29.59375 -1.421875 25.265625 0.953125 
Q 20.953125 3.328125 18.109375 8.203125 
z
M 48.6875 27.296875 
Q 48.6875 37.203125 44.609375 42.84375 
Q 40.53125 48.484375 33.40625 48.484375 
Q 26.265625 48.484375 22.1875 42.84375 
Q 18.109375 37.203125 18.109375 27.296875 
Q 18.109375 17.390625 22.1875 11.75 
Q 26.265625 6.109375 33.40625 6.109375 
Q 40.53125 6.109375 44.609375 11.75 
Q 48.6875 17.390625 48.6875 27.296875 
z
" id="DejaVuSans-112"/>
      <path d="M 56.203125 29.59375 
L 56.203125 25.203125 
L 14.890625 25.203125 
Q 15.484375 15.921875 20.484375 11.0625 
Q 25.484375 6.203125 34.421875 6.203125 
Q 39.59375 6.203125 44.453125 7.46875 
Q 49.3125 8.734375 54.109375 11.28125 
L 54.109375 2.78125 
Q 49.265625 0.734375 44.1875 -0.34375 
Q 39.109375 -1.421875 33.890625 -1.421875 
Q 20.796875 -1.421875 13.15625 6.1875 
Q 5.515625 13.8125 5.515625 26.8125 
Q 5.515625 40.234375 12.765625 48.109375 
Q 20.015625 56 32.328125 56 
Q 43.359375 56 49.78125 48.890625 
Q 56.203125 41.796875 56.203125 29.59375 
z
M 47.21875 32.234375 
Q 47.125 39.59375 43.09375 43.984375 
Q 39.0625 48.390625 32.421875 48.390625 
Q 24.90625 48.390625 20.390625 44.140625 
Q 15.875 39.890625 15.1875 32.171875 
z
" id="DejaVuSans-101"/>
      <path d="M 48.78125 52.59375 
L 48.78125 44.1875 
Q 44.96875 46.296875 41.140625 47.34375 
Q 37.3125 48.390625 33.40625 48.390625 
Q 24.65625 48.390625 19.8125 42.84375 
Q 14.984375 37.3125 14.984375 27.296875 
Q 14.984375 17.28125 19.8125 11.734375 
Q 24.65625 6.203125 33.40625 6.203125 
Q 37.3125 6.203125 41.140625 7.25 
Q 44.96875 8.296875 48.78125 10.40625 
L 48.78125 2.09375 
Q 45.015625 0.34375 40.984375 -0.53125 
Q 36.96875 -1.421875 32.421875 -1.421875 
Q 20.0625 -1.421875 12.78125 6.34375 
Q 5.515625 14.109375 5.515625 27.296875 
Q 5.515625 40.671875 12.859375 48.328125 
Q 20.21875 56 33.015625 56 
Q 37.15625 56 41.109375 55.140625 
Q 45.0625 54.296875 48.78125 52.59375 
z
" id="DejaVuSans-99"/>
      <path d="M 30.609375 48.390625 
Q 23.390625 48.390625 19.1875 42.75 
Q 14.984375 37.109375 14.984375 27.296875 
Q 14.984375 17.484375 19.15625 11.84375 
Q 23.34375 6.203125 30.609375 6.203125 
Q 37.796875 6.203125 41.984375 11.859375 
Q 46.1875 17.53125 46.1875 27.296875 
Q 46.1875 37.015625 41.984375 42.703125 
Q 37.796875 48.390625 30.609375 48.390625 
z
M 30.609375 56 
Q 42.328125 56 49.015625 48.375 
Q 55.71875 40.765625 55.71875 27.296875 
Q 55.71875 13.875 49.015625 6.21875 
Q 42.328125 -1.421875 30.609375 -1.421875 
Q 18.84375 -1.421875 12.171875 6.21875 
Q 5.515625 13.875 5.515625 27.296875 
Q 5.515625 40.765625 12.171875 48.375 
Q 18.84375 56 30.609375 56 
z
" id="DejaVuSans-111"/>
      <path d="M 44.28125 53.078125 
L 44.28125 44.578125 
Q 40.484375 46.53125 36.375 47.5 
Q 32.28125 48.484375 27.875 48.484375 
Q 21.1875 48.484375 17.84375 46.4375 
Q 14.5 44.390625 14.5 40.28125 
Q 14.5 37.15625 16.890625 35.375 
Q 19.28125 33.59375 26.515625 31.984375 
L 29.59375 31.296875 
Q 39.15625 29.25 43.1875 25.515625 
Q 47.21875 21.78125 47.21875 15.09375 
Q 47.21875 7.46875 41.1875 3.015625 
Q 35.15625 -1.421875 24.609375 -1.421875 
Q 20.21875 -1.421875 15.453125 -0.5625 
Q 10.6875 0.296875 5.421875 2 
L 5.421875 11.28125 
Q 10.40625 8.6875 15.234375 7.390625 
Q 20.0625 6.109375 24.8125 6.109375 
Q 31.15625 6.109375 34.5625 8.28125 
Q 37.984375 10.453125 37.984375 14.40625 
Q 37.984375 18.0625 35.515625 20.015625 
Q 33.0625 21.96875 24.703125 23.78125 
L 21.578125 24.515625 
Q 13.234375 26.265625 9.515625 29.90625 
Q 5.8125 33.546875 5.8125 39.890625 
Q 5.8125 47.609375 11.28125 51.796875 
Q 16.75 56 26.8125 56 
Q 31.78125 56 36.171875 55.265625 
Q 40.578125 54.546875 44.28125 53.078125 
z
" id="DejaVuSans-115"/>
     </defs>
     <use xlink:href="#DejaVuSans-84"/>
     <use x="46.333984" xlink:href="#DejaVuSans-114"/>
     <use x="87.447266" xlink:href="#DejaVuSans-97"/>
     <use x="148.726562" xlink:href="#DejaVuSans-105"/>
     <use x="176.509766" xlink:href="#DejaVuSans-110"/>
     <use x="239.888672" xlink:href="#DejaVuSans-105"/>
     <use x="267.671875" xlink:href="#DejaVuSans-110"/>
     <use x="331.050781" xlink:href="#DejaVuSans-103"/>
     <use x="394.527344" xlink:href="#DejaVuSans-32"/>
     <use x="426.314453" xlink:href="#DejaVuSans-100"/>
     <use x="489.791016" xlink:href="#DejaVuSans-97"/>
     <use x="551.070312" xlink:href="#DejaVuSans-116"/>
     <use x="590.279297" xlink:href="#DejaVuSans-97"/>
     <use x="651.558594" xlink:href="#DejaVuSans-32"/>
     <use x="683.345703" xlink:href="#DejaVuSans-97"/>
     <use x="744.625" xlink:href="#DejaVuSans-110"/>
     <use x="808.003906" xlink:href="#DejaVuSans-100"/>
     <use x="871.480469" xlink:href="#DejaVuSans-32"/>
     <use x="903.267578" xlink:href="#DejaVuSans-112"/>
     <use x="966.744141" xlink:href="#DejaVuSans-114"/>
     <use x="1005.607422" xlink:href="#DejaVuSans-101"/>
     <use x="1067.130859" xlink:href="#DejaVuSans-100"/>
     <use x="1130.607422" xlink:href="#DejaVuSans-105"/>
     <use x="1158.390625" xlink:href="#DejaVuSans-99"/>
     <use x="1213.371094" xlink:href="#DejaVuSans-116"/>
     <use x="1252.580078" xlink:href="#DejaVuSans-105"/>
     <use x="1280.363281" xlink:href="#DejaVuSans-111"/>
     <use x="1341.544922" xlink:href="#DejaVuSans-110"/>
     <use x="1404.923828" xlink:href="#DejaVuSans-115"/>
    </g>
   </g>
  </g>
  <g id="axes_2">
   <g id="patch_7">
    <path d="M 377.503437 162.7575 
L 632.928437 162.7575 
L 632.928437 25.3575 
L 377.503437 25.3575 
z
" style="fill:#ffffff;"/>
   </g>
   <g id="matplotlib.axis_3">
    <g id="xtick_6">
     <g id="line2d_13">
      <g>
       <use style="stroke:#000000;stroke-width:0.8;" x="422.285743" xlink:href="#m88cf3b7ddd" y="162.7575"/>
      </g>
     </g>
     <g id="text_15">
      <!-- 0.00 -->
      <g transform="translate(411.15293 177.355938)scale(0.1 -0.1)">
       <use xlink:href="#DejaVuSans-48"/>
       <use x="63.623047" xlink:href="#DejaVuSans-46"/>
       <use x="95.410156" xlink:href="#DejaVuSans-48"/>
       <use x="159.033203" xlink:href="#DejaVuSans-48"/>
      </g>
     </g>
    </g>
    <g id="xtick_7">
     <g id="line2d_14">
      <g>
       <use style="stroke:#000000;stroke-width:0.8;" x="463.75084" xlink:href="#m88cf3b7ddd" y="162.7575"/>
      </g>
     </g>
     <g id="text_16">
      <!-- 0.25 -->
      <g transform="translate(452.618028 177.355938)scale(0.1 -0.1)">
       <use xlink:href="#DejaVuSans-48"/>
       <use x="63.623047" xlink:href="#DejaVuSans-46"/>
       <use x="95.410156" xlink:href="#DejaVuSans-50"/>
       <use x="159.033203" xlink:href="#DejaVuSans-53"/>
      </g>
     </g>
    </g>
    <g id="xtick_8">
     <g id="line2d_15">
      <g>
       <use style="stroke:#000000;stroke-width:0.8;" x="505.215937" xlink:href="#m88cf3b7ddd" y="162.7575"/>
      </g>
     </g>
     <g id="text_17">
      <!-- 0.50 -->
      <g transform="translate(494.083125 177.355938)scale(0.1 -0.1)">
       <use xlink:href="#DejaVuSans-48"/>
       <use x="63.623047" xlink:href="#DejaVuSans-46"/>
       <use x="95.410156" xlink:href="#DejaVuSans-53"/>
       <use x="159.033203" xlink:href="#DejaVuSans-48"/>
      </g>
     </g>
    </g>
    <g id="xtick_9">
     <g id="line2d_16">
      <g>
       <use style="stroke:#000000;stroke-width:0.8;" x="546.681035" xlink:href="#m88cf3b7ddd" y="162.7575"/>
      </g>
     </g>
     <g id="text_18">
      <!-- 0.75 -->
      <g transform="translate(535.548222 177.355938)scale(0.1 -0.1)">
       <use xlink:href="#DejaVuSans-48"/>
       <use x="63.623047" xlink:href="#DejaVuSans-46"/>
       <use x="95.410156" xlink:href="#DejaVuSans-55"/>
       <use x="159.033203" xlink:href="#DejaVuSans-53"/>
      </g>
     </g>
    </g>
    <g id="xtick_10">
     <g id="line2d_17">
      <g>
       <use style="stroke:#000000;stroke-width:0.8;" x="588.146132" xlink:href="#m88cf3b7ddd" y="162.7575"/>
      </g>
     </g>
     <g id="text_19">
      <!-- 1.00 -->
      <g transform="translate(577.01332 177.355938)scale(0.1 -0.1)">
       <use xlink:href="#DejaVuSans-49"/>
       <use x="63.623047" xlink:href="#DejaVuSans-46"/>
       <use x="95.410156" xlink:href="#DejaVuSans-48"/>
       <use x="159.033203" xlink:href="#DejaVuSans-48"/>
      </g>
     </g>
    </g>
    <g id="text_20">
     <!-- $x$ -->
     <g transform="translate(500.415937 195.593125)scale(0.16 -0.16)">
      <use transform="translate(0 0.3125)" xlink:href="#DejaVuSans-Oblique-120"/>
     </g>
    </g>
   </g>
   <g id="matplotlib.axis_4">
    <g id="ytick_7">
     <g id="line2d_18">
      <g>
       <use style="stroke:#000000;stroke-width:0.8;" x="377.503437" xlink:href="#m215c558ae2" y="162.7575"/>
      </g>
     </g>
     <g id="text_21">
      <!-- −5.0 -->
      <g transform="translate(346.220625 166.556719)scale(0.1 -0.1)">
       <use xlink:href="#DejaVuSans-8722"/>
       <use x="83.789062" xlink:href="#DejaVuSans-53"/>
       <use x="147.412109" xlink:href="#DejaVuSans-46"/>
       <use x="179.199219" xlink:href="#DejaVuSans-48"/>
      </g>
     </g>
    </g>
    <g id="ytick_8">
     <g id="line2d_19">
      <g>
       <use style="stroke:#000000;stroke-width:0.8;" x="377.503437" xlink:href="#m215c558ae2" y="128.4075"/>
      </g>
     </g>
     <g id="text_22">
      <!-- −2.5 -->
      <g transform="translate(346.220625 132.206719)scale(0.1 -0.1)">
       <use xlink:href="#DejaVuSans-8722"/>
       <use x="83.789062" xlink:href="#DejaVuSans-50"/>
       <use x="147.412109" xlink:href="#DejaVuSans-46"/>
       <use x="179.199219" xlink:href="#DejaVuSans-53"/>
      </g>
     </g>
    </g>
    <g id="ytick_9">
     <g id="line2d_20">
      <g>
       <use style="stroke:#000000;stroke-width:0.8;" x="377.503437" xlink:href="#m215c558ae2" y="94.0575"/>
      </g>
     </g>
     <g id="text_23">
      <!-- 0.0 -->
      <g transform="translate(354.600312 97.856719)scale(0.1 -0.1)">
       <use xlink:href="#DejaVuSans-48"/>
       <use x="63.623047" xlink:href="#DejaVuSans-46"/>
       <use x="95.410156" xlink:href="#DejaVuSans-48"/>
      </g>
     </g>
    </g>
    <g id="ytick_10">
     <g id="line2d_21">
      <g>
       <use style="stroke:#000000;stroke-width:0.8;" x="377.503437" xlink:href="#m215c558ae2" y="59.7075"/>
      </g>
     </g>
     <g id="text_24">
      <!-- 2.5 -->
      <g transform="translate(354.600312 63.506719)scale(0.1 -0.1)">
       <use xlink:href="#DejaVuSans-50"/>
       <use x="63.623047" xlink:href="#DejaVuSans-46"/>
       <use x="95.410156" xlink:href="#DejaVuSans-53"/>
      </g>
     </g>
    </g>
    <g id="ytick_11">
     <g id="line2d_22">
      <g>
       <use style="stroke:#000000;stroke-width:0.8;" x="377.503437" xlink:href="#m215c558ae2" y="25.3575"/>
      </g>
     </g>
     <g id="text_25">
      <!-- 5.0 -->
      <g transform="translate(354.600312 29.156719)scale(0.1 -0.1)">
       <use xlink:href="#DejaVuSans-53"/>
       <use x="63.623047" xlink:href="#DejaVuSans-46"/>
       <use x="95.410156" xlink:href="#DejaVuSans-48"/>
      </g>
     </g>
    </g>
    <g id="text_26">
     <!-- $y$ -->
     <g transform="translate(338.860625 98.8575)rotate(-90)scale(0.16 -0.16)">
      <use transform="translate(0 0.3125)" xlink:href="#DejaVuSans-Oblique-121"/>
     </g>
    </g>
   </g>
   <g id="line2d_23">
    <path clip-path="url(#p01df31282d)" d="M 389.113665 103.431299 
L 391.459165 103.957001 
L 393.804666 104.470454 
L 396.150166 104.966818 
L 398.495667 105.441221 
L 400.841167 105.888839 
L 403.186668 106.304975 
L 405.532168 106.68514 
L 407.877668 107.025137 
L 410.223169 107.321133 
L 412.568669 107.569733 
L 414.91417 107.768047 
L 417.25967 107.913741 
L 419.605171 108.005087 
L 421.950671 108.040995 
L 424.296172 108.021034 
L 426.641672 107.945445 
L 428.987173 107.815131 
L 431.332673 107.631639 
L 433.678173 107.397134 
L 436.023674 107.114354 
L 438.369174 106.786556 
L 440.714675 106.417454 
L 443.060175 106.011148 
L 445.405676 105.572054 
L 447.751176 105.104815 
L 450.096677 104.614229 
L 452.442177 104.105162 
L 454.787678 103.582471 
L 457.133178 103.050928 
L 459.478679 102.515154 
L 461.824179 101.979549 
L 464.169679 101.448244 
L 466.51518 100.92505 
L 468.86068 100.41342 
L 471.206181 99.916427 
L 473.551681 99.436737 
L 475.897182 98.976608 
L 478.242682 98.537881 
L 480.588183 98.121995 
L 482.933683 97.729995 
L 485.279184 97.362556 
L 487.624684 97.020007 
L 489.970185 96.702362 
L 492.315685 96.40935 
L 494.661185 96.140452 
L 497.006686 95.894935 
L 499.352186 95.671887 
L 501.697687 95.470253 
L 504.043187 95.288868 
L 506.388688 95.126487 
L 508.734188 94.981815 
L 511.079689 94.853532 
L 513.425189 94.740317 
L 515.77069 94.640866 
L 518.11619 94.55391 
L 520.46169 94.47823 
L 522.807191 94.412664 
L 525.152691 94.356119 
L 527.498192 94.307574 
L 529.843692 94.266085 
L 532.189193 94.230785 
L 534.534693 94.200884 
L 536.880194 94.17567 
L 539.225694 94.1545 
L 541.571195 94.136805 
L 543.916695 94.122079 
L 546.262196 94.109878 
L 548.607696 94.099812 
L 550.953196 94.091545 
L 553.298697 94.084783 
L 555.644197 94.079277 
L 557.989698 94.074813 
L 560.335198 94.071209 
L 562.680699 94.068312 
L 565.026199 94.065993 
L 567.3717 94.064145 
L 569.7172 94.062678 
L 572.062701 94.061519 
L 574.408201 94.060607 
L 576.753702 94.059892 
L 579.099202 94.059335 
L 581.444702 94.058901 
L 583.790203 94.058566 
L 586.135703 94.058308 
L 588.481204 94.05811 
L 590.826704 94.057958 
L 593.172205 94.057843 
L 595.517705 94.057756 
L 597.863206 94.05769 
L 600.208706 94.057641 
L 602.554207 94.057604 
L 604.899707 94.057576 
L 607.245207 94.057556 
L 609.590708 94.05754 
L 611.936208 94.057529 
L 614.281709 94.057521 
L 616.627209 94.057515 
L 618.97271 94.057511 
L 621.31821 94.057508 
" style="fill:none;stroke:#1f77b4;stroke-linecap:square;stroke-width:1.5;"/>
   </g>
   <g id="line2d_24">
    <path clip-path="url(#p01df31282d)" d="M 389.113665 89.452483 
L 391.459165 88.911201 
L 393.804666 88.329251 
L 396.150166 87.706945 
L 398.495667 87.045136 
L 400.841167 86.345265 
L 403.186668 85.6094 
L 405.532168 84.840261 
L 407.877668 84.041238 
L 410.223169 83.216397 
L 412.568669 82.370467 
L 414.91417 81.508819 
L 417.25967 80.637427 
L 419.605171 79.762813 
L 421.950671 78.891975 
L 424.296172 78.032308 
L 426.641672 77.191502 
L 428.987173 76.377436 
L 431.332673 75.598055 
L 433.678173 74.861249 
L 436.023674 74.174715 
L 438.369174 73.545831 
L 440.714675 72.981519 
L 443.060175 72.488124 
L 445.405676 72.07129 
L 447.751176 71.735857 
L 450.096677 71.485765 
L 452.442177 71.323977 
L 454.787678 71.252424 
L 457.133178 71.271961 
L 459.478679 71.382354 
L 461.824179 71.582284 
L 464.169679 71.869372 
L 466.51518 72.240228 
L 468.86068 72.690516 
L 471.206181 73.215038 
L 473.551681 73.807837 
L 475.897182 74.462306 
L 478.242682 75.17131 
L 480.588183 75.927319 
L 482.933683 76.722537 
L 485.279184 77.549035 
L 487.624684 78.398881 
L 489.970185 79.264262 
L 492.315685 80.137603 
L 494.661185 81.011668 
L 497.006686 81.879652 
L 499.352186 82.735261 
L 501.697687 83.572773 
L 504.043187 84.38709 
L 506.388688 85.173764 
L 508.734188 85.929019 
L 511.079689 86.649752 
L 513.425189 87.333527 
L 515.77069 87.978548 
L 518.11619 88.58363 
L 520.46169 89.148158 
L 522.807191 89.672041 
L 525.152691 90.155657 
L 527.498192 90.599798 
L 529.843692 91.005614 
L 532.189193 91.374553 
L 534.534693 91.708306 
L 536.880194 92.008752 
L 539.225694 92.277904 
L 541.571195 92.517867 
L 543.916695 92.73079 
L 546.262196 92.918831 
L 548.607696 93.08412 
L 550.953196 93.228737 
L 553.298697 93.354685 
L 555.644197 93.463872 
L 557.989698 93.558097 
L 560.335198 93.639043 
L 562.680699 93.708268 
L 565.026199 93.767205 
L 567.3717 93.817159 
L 569.7172 93.859311 
L 572.062701 93.894722 
L 574.408201 93.92434 
L 576.753702 93.949004 
L 579.099202 93.969452 
L 581.444702 93.986332 
L 583.790203 94.000205 
L 586.135703 94.011558 
L 588.481204 94.020809 
L 590.826704 94.028314 
L 593.172205 94.034376 
L 595.517705 94.039252 
L 597.863206 94.043158 
L 600.208706 94.046272 
L 602.554207 94.048746 
L 604.899707 94.050701 
L 607.245207 94.052241 
L 609.590708 94.053449 
L 611.936208 94.054391 
L 614.281709 94.055124 
L 616.627209 94.055691 
L 618.97271 94.056129 
L 621.31821 94.056464 
" style="fill:none;stroke:#ff7f0e;stroke-linecap:square;stroke-width:1.5;"/>
   </g>
   <g id="line2d_25">
    <path clip-path="url(#p01df31282d)" d="M 389.113665 93.970588 
L 391.459165 93.95472 
L 393.804666 93.93644 
L 396.150166 93.915478 
L 398.495667 93.891551 
L 400.841167 93.864366 
L 403.186668 93.833626 
L 405.532168 93.79903 
L 407.877668 93.760278 
L 410.223169 93.71708 
L 412.568669 93.66916 
L 414.91417 93.616262 
L 417.25967 93.558161 
L 419.605171 93.494665 
L 421.950671 93.425626 
L 424.296172 93.350951 
L 426.641672 93.270604 
L 428.987173 93.184619 
L 431.332673 93.093102 
L 433.678173 92.996244 
L 436.023674 92.89432 
L 438.369174 92.787695 
L 440.714675 92.67683 
L 443.060175 92.562278 
L 445.405676 92.444684 
L 447.751176 92.324787 
L 450.096677 92.203406 
L 452.442177 92.081442 
L 454.787678 91.959862 
L 457.133178 91.839689 
L 459.478679 91.721992 
L 461.824179 91.607865 
L 464.169679 91.498418 
L 466.51518 91.394751 
L 468.86068 91.297944 
L 471.206181 91.209034 
L 473.551681 91.128995 
L 475.897182 91.058725 
L 478.242682 90.999025 
L 480.588183 90.950589 
L 482.933683 90.913984 
L 485.279184 90.889642 
L 487.624684 90.877855 
L 489.970185 90.878764 
L 492.315685 90.892356 
L 494.661185 90.918471 
L 497.006686 90.956796 
L 499.352186 91.006879 
L 501.697687 91.068134 
L 504.043187 91.139851 
L 506.388688 91.221214 
L 508.734188 91.311314 
L 511.079689 91.409165 
L 513.425189 91.513725 
L 515.77069 91.623908 
L 518.11619 91.738613 
L 520.46169 91.856731 
L 522.807191 91.977169 
L 525.152691 92.098866 
L 527.498192 92.220804 
L 529.843692 92.342026 
L 532.189193 92.461642 
L 534.534693 92.578844 
L 536.880194 92.692908 
L 539.225694 92.803199 
L 541.571195 92.909178 
L 543.916695 93.010399 
L 546.262196 93.106509 
L 548.607696 93.197244 
L 550.953196 93.282429 
L 553.298697 93.361966 
L 555.644197 93.435832 
L 557.989698 93.504072 
L 560.335198 93.566788 
L 562.680699 93.624133 
L 565.026199 93.676304 
L 567.3717 93.723534 
L 569.7172 93.766079 
L 572.062701 93.80422 
L 574.408201 93.838247 
L 576.753702 93.868461 
L 579.099202 93.895161 
L 581.444702 93.918647 
L 583.790203 93.939209 
L 586.135703 93.957129 
L 588.481204 93.972673 
L 590.826704 93.986097 
L 593.172205 93.997636 
L 595.517705 94.007511 
L 597.863206 94.015923 
L 600.208706 94.023058 
L 602.554207 94.029082 
L 604.899707 94.034147 
L 607.245207 94.038385 
L 609.590708 94.041917 
L 611.936208 94.044846 
L 614.281709 94.047266 
L 616.627209 94.049257 
L 618.97271 94.050886 
L 621.31821 94.052215 
" style="fill:none;stroke:#2ca02c;stroke-linecap:square;stroke-width:1.5;"/>
   </g>
   <g id="line2d_26">
    <path clip-path="url(#p01df31282d)" d="M 389.113665 94.083974 
L 391.459165 94.09063 
L 393.804666 94.098793 
L 396.150166 94.108762 
L 398.495667 94.120884 
L 400.841167 94.13556 
L 403.186668 94.153251 
L 405.532168 94.174481 
L 407.877668 94.199848 
L 410.223169 94.230025 
L 412.568669 94.265765 
L 414.91417 94.307904 
L 417.25967 94.357369 
L 419.605171 94.41517 
L 421.950671 94.482411 
L 424.296172 94.560278 
L 426.641672 94.65004 
L 428.987173 94.753039 
L 431.332673 94.870683 
L 433.678173 95.004432 
L 436.023674 95.155777 
L 438.369174 95.326226 
L 440.714675 95.517278 
L 443.060175 95.730396 
L 445.405676 95.966976 
L 447.751176 96.228312 
L 450.096677 96.515565 
L 452.442177 96.829718 
L 454.787678 97.171542 
L 457.133178 97.541552 
L 459.478679 97.939966 
L 461.824179 98.366671 
L 464.169679 98.821183 
L 466.51518 99.302614 
L 468.86068 99.809648 
L 471.206181 100.340515 
L 473.551681 100.892983 
L 475.897182 101.464345 
L 478.242682 102.05143 
L 480.588183 102.650612 
L 482.933683 103.257833 
L 485.279184 103.868643 
L 487.624684 104.478243 
L 489.970185 105.08154 
L 492.315685 105.673213 
L 494.661185 106.247787 
L 497.006686 106.799718 
L 499.352186 107.323473 
L 501.697687 107.813627 
L 504.043187 108.264954 
L 506.388688 108.672517 
L 508.734188 109.031761 
L 511.079689 109.338595 
L 513.425189 109.58947 
L 515.77069 109.781449 
L 518.11619 109.912261 
L 520.46169 109.980349 
L 522.807191 109.984898 
L 525.152691 109.925855 
L 527.498192 109.803925 
L 529.843692 109.620562 
L 532.189193 109.377936 
L 534.534693 109.078892 
L 536.880194 108.726897 
L 539.225694 108.325967 
L 541.571195 107.880598 
L 543.916695 107.395676 
L 546.262196 106.876393 
L 548.607696 106.32815 
L 550.953196 105.75647 
L 553.298697 105.166903 
L 555.644197 104.564936 
L 557.989698 103.955919 
L 560.335198 103.34498 
L 562.680699 102.736965 
L 565.026199 102.136377 
L 567.3717 101.547332 
L 569.7172 100.973518 
L 572.062701 100.418175 
L 574.408201 99.884074 
L 576.753702 99.373516 
L 579.099202 98.888337 
L 581.444702 98.429915 
L 583.790203 97.999199 
L 586.135703 97.596728 
L 588.481204 97.222667 
L 590.826704 96.876841 
L 593.172205 96.558776 
L 595.517705 96.267736 
L 597.863206 96.002765 
L 600.208706 95.762725 
L 602.554207 95.546339 
L 604.899707 95.352223 
L 607.245207 95.178922 
L 609.590708 95.02494 
L 611.936208 94.88877 
L 614.281709 94.768915 
L 616.627209 94.663911 
L 618.97271 94.572342 
L 621.31821 94.492856 
" style="fill:none;stroke:#d62728;stroke-linecap:square;stroke-width:1.5;"/>
   </g>
   <g id="line2d_27">
    <path clip-path="url(#p01df31282d)" d="M 389.113665 94.057376 
L 391.459165 94.057335 
L 393.804666 94.057283 
L 396.150166 94.057215 
L 398.495667 94.057127 
L 400.841167 94.057013 
L 403.186668 94.056868 
L 405.532168 94.056683 
L 407.877668 94.056448 
L 410.223169 94.056151 
L 412.568669 94.055777 
L 414.91417 94.055308 
L 417.25967 94.054722 
L 419.605171 94.053994 
L 421.950671 94.053093 
L 424.296172 94.051982 
L 426.641672 94.050618 
L 428.987173 94.048952 
L 431.332673 94.046924 
L 433.678173 94.044468 
L 436.023674 94.041505 
L 438.369174 94.037948 
L 440.714675 94.033694 
L 443.060175 94.028631 
L 445.405676 94.022631 
L 447.751176 94.015552 
L 450.096677 94.007237 
L 452.442177 93.997514 
L 454.787678 93.986196 
L 457.133178 93.973081 
L 459.478679 93.957952 
L 461.824179 93.940581 
L 464.169679 93.920727 
L 466.51518 93.898141 
L 468.86068 93.872565 
L 471.206181 93.843742 
L 473.551681 93.811412 
L 475.897182 93.775324 
L 478.242682 93.735235 
L 480.588183 93.690919 
L 482.933683 93.642174 
L 485.279184 93.588826 
L 487.624684 93.530736 
L 489.970185 93.467809 
L 492.315685 93.4 
L 494.661185 93.32732 
L 497.006686 93.249842 
L 499.352186 93.16771 
L 501.697687 93.081138 
L 504.043187 92.99042 
L 506.388688 92.895927 
L 508.734188 92.798115 
L 511.079689 92.697516 
L 513.425189 92.594744 
L 515.77069 92.490485 
L 518.11619 92.385495 
L 520.46169 92.280593 
L 522.807191 92.176647 
L 525.152691 92.074567 
L 527.498192 91.975291 
L 529.843692 91.879772 
L 532.189193 91.788963 
L 534.534693 91.7038 
L 536.880194 91.625188 
L 539.225694 91.553983 
L 541.571195 91.49098 
L 543.916695 91.436893 
L 546.262196 91.392347 
L 548.607696 91.357863 
L 550.953196 91.333848 
L 553.298697 91.320588 
L 555.644197 91.318242 
L 557.989698 91.326836 
L 560.335198 91.34627 
L 562.680699 91.37631 
L 565.026199 91.416601 
L 567.3717 91.466669 
L 569.7172 91.525934 
L 572.062701 91.593717 
L 574.408201 91.669256 
L 576.753702 91.75172 
L 579.099202 91.840222 
L 581.444702 91.933838 
L 583.790203 92.031621 
L 586.135703 92.132615 
L 588.481204 92.235875 
L 590.826704 92.340477 
L 593.172205 92.445532 
L 595.517705 92.550201 
L 597.863206 92.653698 
L 600.208706 92.755308 
L 602.554207 92.854385 
L 604.899707 92.950361 
L 607.245207 93.042747 
L 609.590708 93.131136 
L 611.936208 93.215202 
L 614.281709 93.294696 
L 616.627209 93.369445 
L 618.97271 93.439346 
L 621.31821 93.504363 
" style="fill:none;stroke:#9467bd;stroke-linecap:square;stroke-width:1.5;"/>
   </g>
   <g id="patch_8">
    <path d="M 377.503437 162.7575 
L 377.503437 25.3575 
" style="fill:none;stroke:#000000;stroke-linecap:square;stroke-linejoin:miter;stroke-width:0.8;"/>
   </g>
   <g id="patch_9">
    <path d="M 632.928437 162.7575 
L 632.928437 25.3575 
" style="fill:none;stroke:#000000;stroke-linecap:square;stroke-linejoin:miter;stroke-width:0.8;"/>
   </g>
   <g id="patch_10">
    <path d="M 377.503437 162.7575 
L 632.928437 162.7575 
" style="fill:none;stroke:#000000;stroke-linecap:square;stroke-linejoin:miter;stroke-width:0.8;"/>
   </g>
   <g id="patch_11">
    <path d="M 377.503437 25.3575 
L 632.928437 25.3575 
" style="fill:none;stroke:#000000;stroke-linecap:square;stroke-linejoin:miter;stroke-width:0.8;"/>
   </g>
   <g id="text_27">
    <!-- Individual components of the model -->
    <g transform="translate(360.905937 19.3575)scale(0.16 -0.16)">
     <defs>
      <path d="M 9.8125 72.90625 
L 19.671875 72.90625 
L 19.671875 0 
L 9.8125 0 
z
" id="DejaVuSans-73"/>
      <path d="M 2.984375 54.6875 
L 12.5 54.6875 
L 29.59375 8.796875 
L 46.6875 54.6875 
L 56.203125 54.6875 
L 35.6875 0 
L 23.484375 0 
z
" id="DejaVuSans-118"/>
      <path d="M 8.5 21.578125 
L 8.5 54.6875 
L 17.484375 54.6875 
L 17.484375 21.921875 
Q 17.484375 14.15625 20.5 10.265625 
Q 23.53125 6.390625 29.59375 6.390625 
Q 36.859375 6.390625 41.078125 11.03125 
Q 45.3125 15.671875 45.3125 23.6875 
L 45.3125 54.6875 
L 54.296875 54.6875 
L 54.296875 0 
L 45.3125 0 
L 45.3125 8.40625 
Q 42.046875 3.421875 37.71875 1 
Q 33.40625 -1.421875 27.6875 -1.421875 
Q 18.265625 -1.421875 13.375 4.4375 
Q 8.5 10.296875 8.5 21.578125 
z
M 31.109375 56 
z
" id="DejaVuSans-117"/>
      <path d="M 9.421875 75.984375 
L 18.40625 75.984375 
L 18.40625 0 
L 9.421875 0 
z
" id="DejaVuSans-108"/>
      <path d="M 52 44.1875 
Q 55.375 50.25 60.0625 53.125 
Q 64.75 56 71.09375 56 
Q 79.640625 56 84.28125 50.015625 
Q 88.921875 44.046875 88.921875 33.015625 
L 88.921875 0 
L 79.890625 0 
L 79.890625 32.71875 
Q 79.890625 40.578125 77.09375 44.375 
Q 74.3125 48.1875 68.609375 48.1875 
Q 61.625 48.1875 57.5625 43.546875 
Q 53.515625 38.921875 53.515625 30.90625 
L 53.515625 0 
L 44.484375 0 
L 44.484375 32.71875 
Q 44.484375 40.625 41.703125 44.40625 
Q 38.921875 48.1875 33.109375 48.1875 
Q 26.21875 48.1875 22.15625 43.53125 
Q 18.109375 38.875 18.109375 30.90625 
L 18.109375 0 
L 9.078125 0 
L 9.078125 54.6875 
L 18.109375 54.6875 
L 18.109375 46.1875 
Q 21.1875 51.21875 25.484375 53.609375 
Q 29.78125 56 35.6875 56 
Q 41.65625 56 45.828125 52.96875 
Q 50 49.953125 52 44.1875 
z
" id="DejaVuSans-109"/>
      <path d="M 37.109375 75.984375 
L 37.109375 68.5 
L 28.515625 68.5 
Q 23.6875 68.5 21.796875 66.546875 
Q 19.921875 64.59375 19.921875 59.515625 
L 19.921875 54.6875 
L 34.71875 54.6875 
L 34.71875 47.703125 
L 19.921875 47.703125 
L 19.921875 0 
L 10.890625 0 
L 10.890625 47.703125 
L 2.296875 47.703125 
L 2.296875 54.6875 
L 10.890625 54.6875 
L 10.890625 58.5 
Q 10.890625 67.625 15.140625 71.796875 
Q 19.390625 75.984375 28.609375 75.984375 
z
" id="DejaVuSans-102"/>
      <path d="M 54.890625 33.015625 
L 54.890625 0 
L 45.90625 0 
L 45.90625 32.71875 
Q 45.90625 40.484375 42.875 44.328125 
Q 39.84375 48.1875 33.796875 48.1875 
Q 26.515625 48.1875 22.3125 43.546875 
Q 18.109375 38.921875 18.109375 30.90625 
L 18.109375 0 
L 9.078125 0 
L 9.078125 75.984375 
L 18.109375 75.984375 
L 18.109375 46.1875 
Q 21.34375 51.125 25.703125 53.5625 
Q 30.078125 56 35.796875 56 
Q 45.21875 56 50.046875 50.171875 
Q 54.890625 44.34375 54.890625 33.015625 
z
" id="DejaVuSans-104"/>
     </defs>
     <use xlink:href="#DejaVuSans-73"/>
     <use x="29.492188" xlink:href="#DejaVuSans-110"/>
     <use x="92.871094" xlink:href="#DejaVuSans-100"/>
     <use x="156.347656" xlink:href="#DejaVuSans-105"/>
     <use x="184.130859" xlink:href="#DejaVuSans-118"/>
     <use x="243.310547" xlink:href="#DejaVuSans-105"/>
     <use x="271.09375" xlink:href="#DejaVuSans-100"/>
     <use x="334.570312" xlink:href="#DejaVuSans-117"/>
     <use x="397.949219" xlink:href="#DejaVuSans-97"/>
     <use x="459.228516" xlink:href="#DejaVuSans-108"/>
     <use x="487.011719" xlink:href="#DejaVuSans-32"/>
     <use x="518.798828" xlink:href="#DejaVuSans-99"/>
     <use x="573.779297" xlink:href="#DejaVuSans-111"/>
     <use x="634.960938" xlink:href="#DejaVuSans-109"/>
     <use x="732.373047" xlink:href="#DejaVuSans-112"/>
     <use x="795.849609" xlink:href="#DejaVuSans-111"/>
     <use x="857.03125" xlink:href="#DejaVuSans-110"/>
     <use x="920.410156" xlink:href="#DejaVuSans-101"/>
     <use x="981.933594" xlink:href="#DejaVuSans-110"/>
     <use x="1045.3125" xlink:href="#DejaVuSans-116"/>
     <use x="1084.521484" xlink:href="#DejaVuSans-115"/>
     <use x="1136.621094" xlink:href="#DejaVuSans-32"/>
     <use x="1168.408203" xlink:href="#DejaVuSans-111"/>
     <use x="1229.589844" xlink:href="#DejaVuSans-102"/>
     <use x="1264.794922" xlink:href="#DejaVuSans-32"/>
     <use x="1296.582031" xlink:href="#DejaVuSans-116"/>
     <use x="1335.791016" xlink:href="#DejaVuSans-104"/>
     <use x="1399.169922" xlink:href="#DejaVuSans-101"/>
     <use x="1460.693359" xlink:href="#DejaVuSans-32"/>
     <use x="1492.480469" xlink:href="#DejaVuSans-109"/>
     <use x="1589.892578" xlink:href="#DejaVuSans-111"/>
     <use x="1651.074219" xlink:href="#DejaVuSans-100"/>
     <use x="1714.550781" xlink:href="#DejaVuSans-101"/>
     <use x="1776.074219" xlink:href="#DejaVuSans-108"/>
    </g>
   </g>
   <g id="legend_1">
    <g id="patch_12">
     <path d="M 384.503437 106.748125 
L 437.594062 106.748125 
Q 439.594062 106.748125 439.594062 104.748125 
L 439.594062 32.3575 
Q 439.594062 30.3575 437.594062 30.3575 
L 384.503437 30.3575 
Q 382.503437 30.3575 382.503437 32.3575 
L 382.503437 104.748125 
Q 382.503437 106.748125 384.503437 106.748125 
z
" style="fill:#ffffff;opacity:0.8;stroke:#cccccc;stroke-linejoin:miter;"/>
    </g>
    <g id="line2d_28">
     <path d="M 386.503437 38.455938 
L 406.503437 38.455938 
" style="fill:none;stroke:#1f77b4;stroke-linecap:square;stroke-width:1.5;"/>
    </g>
    <g id="line2d_29"/>
    <g id="text_28">
     <!-- d=0 -->
     <g transform="translate(414.503437 41.955938)scale(0.1 -0.1)">
      <defs>
       <path d="M 10.59375 45.40625 
L 73.1875 45.40625 
L 73.1875 37.203125 
L 10.59375 37.203125 
z
M 10.59375 25.484375 
L 73.1875 25.484375 
L 73.1875 17.1875 
L 10.59375 17.1875 
z
" id="DejaVuSans-61"/>
      </defs>
      <use xlink:href="#DejaVuSans-100"/>
      <use x="63.476562" xlink:href="#DejaVuSans-61"/>
      <use x="147.265625" xlink:href="#DejaVuSans-48"/>
     </g>
    </g>
    <g id="line2d_30">
     <path d="M 386.503437 53.134063 
L 406.503437 53.134063 
" style="fill:none;stroke:#ff7f0e;stroke-linecap:square;stroke-width:1.5;"/>
    </g>
    <g id="line2d_31"/>
    <g id="text_29">
     <!-- d=1 -->
     <g transform="translate(414.503437 56.634063)scale(0.1 -0.1)">
      <use xlink:href="#DejaVuSans-100"/>
      <use x="63.476562" xlink:href="#DejaVuSans-61"/>
      <use x="147.265625" xlink:href="#DejaVuSans-49"/>
     </g>
    </g>
    <g id="line2d_32">
     <path d="M 386.503437 67.812188 
L 406.503437 67.812188 
" style="fill:none;stroke:#2ca02c;stroke-linecap:square;stroke-width:1.5;"/>
    </g>
    <g id="line2d_33"/>
    <g id="text_30">
     <!-- d=2 -->
     <g transform="translate(414.503437 71.312188)scale(0.1 -0.1)">
      <use xlink:href="#DejaVuSans-100"/>
      <use x="63.476562" xlink:href="#DejaVuSans-61"/>
      <use x="147.265625" xlink:href="#DejaVuSans-50"/>
     </g>
    </g>
    <g id="line2d_34">
     <path d="M 386.503437 82.490313 
L 406.503437 82.490313 
" style="fill:none;stroke:#d62728;stroke-linecap:square;stroke-width:1.5;"/>
    </g>
    <g id="line2d_35"/>
    <g id="text_31">
     <!-- d=3 -->
     <g transform="translate(414.503437 85.990313)scale(0.1 -0.1)">
      <defs>
       <path d="M 40.578125 39.3125 
Q 47.65625 37.796875 51.625 33 
Q 55.609375 28.21875 55.609375 21.1875 
Q 55.609375 10.40625 48.1875 4.484375 
Q 40.765625 -1.421875 27.09375 -1.421875 
Q 22.515625 -1.421875 17.65625 -0.515625 
Q 12.796875 0.390625 7.625 2.203125 
L 7.625 11.71875 
Q 11.71875 9.328125 16.59375 8.109375 
Q 21.484375 6.890625 26.8125 6.890625 
Q 36.078125 6.890625 40.9375 10.546875 
Q 45.796875 14.203125 45.796875 21.1875 
Q 45.796875 27.640625 41.28125 31.265625 
Q 36.765625 34.90625 28.71875 34.90625 
L 20.21875 34.90625 
L 20.21875 43.015625 
L 29.109375 43.015625 
Q 36.375 43.015625 40.234375 45.921875 
Q 44.09375 48.828125 44.09375 54.296875 
Q 44.09375 59.90625 40.109375 62.90625 
Q 36.140625 65.921875 28.71875 65.921875 
Q 24.65625 65.921875 20.015625 65.03125 
Q 15.375 64.15625 9.8125 62.3125 
L 9.8125 71.09375 
Q 15.4375 72.65625 20.34375 73.4375 
Q 25.25 74.21875 29.59375 74.21875 
Q 40.828125 74.21875 47.359375 69.109375 
Q 53.90625 64.015625 53.90625 55.328125 
Q 53.90625 49.265625 50.4375 45.09375 
Q 46.96875 40.921875 40.578125 39.3125 
z
" id="DejaVuSans-51"/>
      </defs>
      <use xlink:href="#DejaVuSans-100"/>
      <use x="63.476562" xlink:href="#DejaVuSans-61"/>
      <use x="147.265625" xlink:href="#DejaVuSans-51"/>
     </g>
    </g>
    <g id="line2d_36">
     <path d="M 386.503437 97.168438 
L 406.503437 97.168438 
" style="fill:none;stroke:#9467bd;stroke-linecap:square;stroke-width:1.5;"/>
    </g>
    <g id="line2d_37"/>
    <g id="text_32">
     <!-- d=4 -->
     <g transform="translate(414.503437 100.668438)scale(0.1 -0.1)">
      <defs>
       <path d="M 37.796875 64.3125 
L 12.890625 25.390625 
L 37.796875 25.390625 
z
M 35.203125 72.90625 
L 47.609375 72.90625 
L 47.609375 25.390625 
L 58.015625 25.390625 
L 58.015625 17.1875 
L 47.609375 17.1875 
L 47.609375 0 
L 37.796875 0 
L 37.796875 17.1875 
L 4.890625 17.1875 
L 4.890625 26.703125 
z
" id="DejaVuSans-52"/>
      </defs>
      <use xlink:href="#DejaVuSans-100"/>
      <use x="63.476562" xlink:href="#DejaVuSans-61"/>
      <use x="147.265625" xlink:href="#DejaVuSans-52"/>
     </g>
    </g>
   </g>
  </g>
 </g>
 <defs>
  <clipPath id="p79316f2857">
   <rect height="137.4" width="255.425" x="59.903438" y="25.3575"/>
  </clipPath>
  <clipPath id="p01df31282d">
   <rect height="137.4" width="255.425" x="377.503437" y="25.3575"/>
  </clipPath>
 </defs>
</svg>
