<?xml version="1.0" encoding="utf-8" standalone="no"?>
<!DOCTYPE svg PUBLIC "-//W3C//DTD SVG 1.1//EN"
  "http://www.w3.org/Graphics/SVG/1.1/DTD/svg11.dtd">
<!-- Created with matplotlib (https://matplotlib.org/) -->
<svg height="214.958125pt" version="1.1" viewBox="0 0 712.93125 214.958125" width="712.93125pt" xmlns="http://www.w3.org/2000/svg" xmlns:xlink="http://www.w3.org/1999/xlink">
 <metadata>
  <rdf:RDF xmlns:cc="http://creativecommons.org/ns#" xmlns:dc="http://purl.org/dc/elements/1.1/" xmlns:rdf="http://www.w3.org/1999/02/22-rdf-syntax-ns#">
   <cc:Work>
    <dc:type rdf:resource="http://purl.org/dc/dcmitype/StillImage"/>
    <dc:date>2021-03-01T23:22:51.915338</dc:date>
    <dc:format>image/svg+xml</dc:format>
    <dc:creator>
     <cc:Agent>
      <dc:title>Matplotlib v3.3.3, https://matplotlib.org/</dc:title>
     </cc:Agent>
    </dc:creator>
   </cc:Work>
  </rdf:RDF>
 </metadata>
 <defs>
  <style type="text/css">*{stroke-linecap:butt;stroke-linejoin:round;}</style>
 </defs>
 <g id="figure_1">
  <g id="patch_1">
   <path d="M 0 214.958125 
L 712.93125 214.958125 
L 712.93125 -0 
L 0 -0 
z
" style="fill:none;"/>
  </g>
  <g id="axes_1">
   <g id="patch_2">
    <path d="M 28.942187 191.08 
L 176.192187 191.08 
L 176.192187 43.849677 
L 28.942187 43.849677 
z
" style="fill:#ffffff;"/>
   </g>
   <g id="line2d_1">
    <path clip-path="url(#p3dce92cbe5)" d="M 28.942187 63.777501 
L 30.429561 63.859179 
L 31.916935 63.940857 
L 33.404309 64.022535 
L 34.891682 64.104213 
L 36.379056 64.185892 
L 37.86643 64.26757 
L 39.353804 64.349248 
L 40.841177 64.430926 
L 42.328551 64.512604 
L 43.815925 64.594282 
L 45.303299 64.675961 
L 46.790672 64.757639 
L 48.278046 64.839317 
L 49.76542 64.920995 
L 51.252794 65.002673 
L 52.740167 65.084351 
L 54.227541 65.166029 
L 55.714915 65.247708 
L 57.202289 65.329386 
L 58.689662 65.411064 
L 60.177036 65.492742 
L 61.66441 65.57442 
L 63.151783 65.656098 
L 64.639157 65.737777 
L 66.126531 65.819455 
L 67.613905 65.901133 
L 69.101278 65.982811 
L 70.588652 66.064489 
L 72.076026 66.146167 
L 73.5634 66.227845 
L 75.050773 66.309524 
L 76.538147 66.391202 
L 78.025521 66.47288 
L 79.512895 66.554558 
L 81.000268 66.636236 
L 82.487642 66.717914 
L 83.975016 66.799593 
L 85.46239 66.881271 
L 86.949763 66.962949 
L 88.437137 67.044627 
L 89.924511 67.126305 
L 91.411884 67.207983 
L 92.899258 67.289661 
L 94.386632 67.37134 
L 95.874006 67.453018 
L 97.361379 67.534696 
L 98.848753 67.616374 
L 100.336127 67.698052 
L 101.823501 67.77973 
L 103.310874 67.861408 
L 104.798248 67.943087 
L 106.285622 68.024765 
L 107.772996 68.106443 
L 109.260369 68.188121 
L 110.747743 68.269799 
L 112.235117 68.351477 
L 113.722491 68.433156 
L 115.209864 68.514834 
L 116.697238 68.596512 
L 118.184612 68.67819 
L 119.671985 68.759868 
L 121.159359 68.841546 
L 122.646733 68.923224 
L 124.134107 69.004903 
L 125.62148 69.086581 
L 127.108854 69.168259 
L 128.596228 69.249937 
L 130.083602 69.331615 
L 131.570975 69.413293 
L 133.058349 69.494972 
L 134.545723 69.57665 
L 136.033097 69.658328 
L 137.52047 69.740006 
L 139.007844 69.821684 
L 140.495218 69.903362 
L 141.982592 69.98504 
L 143.469965 70.066719 
L 144.957339 70.148397 
L 146.444713 70.230075 
L 147.932086 70.311753 
L 149.41946 70.393431 
L 150.906834 70.475109 
L 152.394208 70.556788 
L 153.881581 70.638466 
L 155.368955 70.720144 
L 156.856329 70.801822 
L 158.343703 70.8835 
L 159.831076 70.965178 
L 161.31845 71.046856 
L 162.805824 71.128535 
L 164.293198 71.210213 
L 165.780571 71.291891 
L 167.267945 71.373569 
L 168.755319 71.455247 
L 170.242693 71.536925 
L 171.730066 71.618604 
L 173.21744 71.700282 
L 174.704814 71.78196 
L 176.192187 71.863638 
" style="fill:none;stroke:#000000;stroke-linecap:square;stroke-width:1.5;"/>
   </g>
   <g id="matplotlib.axis_1">
    <g id="xtick_1">
     <g id="line2d_2">
      <defs>
       <path d="M 0 0 
L 0 3.5 
" id="m2821bee00d" style="stroke:#000000;stroke-width:0.8;"/>
      </defs>
      <g>
       <use style="stroke:#000000;stroke-width:0.8;" x="28.942187" xlink:href="#m2821bee00d" y="191.08"/>
      </g>
     </g>
     <g id="text_1">
      <!-- 0.0 -->
      <g transform="translate(20.990625 205.678438)scale(0.1 -0.1)">
       <defs>
        <path d="M 31.78125 66.40625 
Q 24.171875 66.40625 20.328125 58.90625 
Q 16.5 51.421875 16.5 36.375 
Q 16.5 21.390625 20.328125 13.890625 
Q 24.171875 6.390625 31.78125 6.390625 
Q 39.453125 6.390625 43.28125 13.890625 
Q 47.125 21.390625 47.125 36.375 
Q 47.125 51.421875 43.28125 58.90625 
Q 39.453125 66.40625 31.78125 66.40625 
z
M 31.78125 74.21875 
Q 44.046875 74.21875 50.515625 64.515625 
Q 56.984375 54.828125 56.984375 36.375 
Q 56.984375 17.96875 50.515625 8.265625 
Q 44.046875 -1.421875 31.78125 -1.421875 
Q 19.53125 -1.421875 13.0625 8.265625 
Q 6.59375 17.96875 6.59375 36.375 
Q 6.59375 54.828125 13.0625 64.515625 
Q 19.53125 74.21875 31.78125 74.21875 
z
" id="DejaVuSans-48"/>
        <path d="M 10.6875 12.40625 
L 21 12.40625 
L 21 0 
L 10.6875 0 
z
" id="DejaVuSans-46"/>
       </defs>
       <use xlink:href="#DejaVuSans-48"/>
       <use x="63.623047" xlink:href="#DejaVuSans-46"/>
       <use x="95.410156" xlink:href="#DejaVuSans-48"/>
      </g>
     </g>
    </g>
    <g id="xtick_2">
     <g id="line2d_3">
      <g>
       <use style="stroke:#000000;stroke-width:0.8;" x="102.567188" xlink:href="#m2821bee00d" y="191.08"/>
      </g>
     </g>
     <g id="text_2">
      <!-- 0.5 -->
      <g transform="translate(94.615625 205.678438)scale(0.1 -0.1)">
       <defs>
        <path d="M 10.796875 72.90625 
L 49.515625 72.90625 
L 49.515625 64.59375 
L 19.828125 64.59375 
L 19.828125 46.734375 
Q 21.96875 47.46875 24.109375 47.828125 
Q 26.265625 48.1875 28.421875 48.1875 
Q 40.625 48.1875 47.75 41.5 
Q 54.890625 34.8125 54.890625 23.390625 
Q 54.890625 11.625 47.5625 5.09375 
Q 40.234375 -1.421875 26.90625 -1.421875 
Q 22.3125 -1.421875 17.546875 -0.640625 
Q 12.796875 0.140625 7.71875 1.703125 
L 7.71875 11.625 
Q 12.109375 9.234375 16.796875 8.0625 
Q 21.484375 6.890625 26.703125 6.890625 
Q 35.15625 6.890625 40.078125 11.328125 
Q 45.015625 15.765625 45.015625 23.390625 
Q 45.015625 31 40.078125 35.4375 
Q 35.15625 39.890625 26.703125 39.890625 
Q 22.75 39.890625 18.8125 39.015625 
Q 14.890625 38.140625 10.796875 36.28125 
z
" id="DejaVuSans-53"/>
       </defs>
       <use xlink:href="#DejaVuSans-48"/>
       <use x="63.623047" xlink:href="#DejaVuSans-46"/>
       <use x="95.410156" xlink:href="#DejaVuSans-53"/>
      </g>
     </g>
    </g>
    <g id="xtick_3">
     <g id="line2d_4">
      <g>
       <use style="stroke:#000000;stroke-width:0.8;" x="176.192187" xlink:href="#m2821bee00d" y="191.08"/>
      </g>
     </g>
     <g id="text_3">
      <!-- 1.0 -->
      <g transform="translate(168.240625 205.678438)scale(0.1 -0.1)">
       <defs>
        <path d="M 12.40625 8.296875 
L 28.515625 8.296875 
L 28.515625 63.921875 
L 10.984375 60.40625 
L 10.984375 69.390625 
L 28.421875 72.90625 
L 38.28125 72.90625 
L 38.28125 8.296875 
L 54.390625 8.296875 
L 54.390625 0 
L 12.40625 0 
z
" id="DejaVuSans-49"/>
       </defs>
       <use xlink:href="#DejaVuSans-49"/>
       <use x="63.623047" xlink:href="#DejaVuSans-46"/>
       <use x="95.410156" xlink:href="#DejaVuSans-48"/>
      </g>
     </g>
    </g>
   </g>
   <g id="matplotlib.axis_2">
    <g id="ytick_1">
     <g id="line2d_5">
      <defs>
       <path d="M 0 0 
L -3.5 0 
" id="m5debaa79bd" style="stroke:#000000;stroke-width:0.8;"/>
      </defs>
      <g>
       <use style="stroke:#000000;stroke-width:0.8;" x="28.942187" xlink:href="#m5debaa79bd" y="188.705317"/>
      </g>
     </g>
     <g id="text_4">
      <!-- −3 -->
      <g transform="translate(7.2 192.504536)scale(0.1 -0.1)">
       <defs>
        <path d="M 10.59375 35.5 
L 73.1875 35.5 
L 73.1875 27.203125 
L 10.59375 27.203125 
z
" id="DejaVuSans-8722"/>
        <path d="M 40.578125 39.3125 
Q 47.65625 37.796875 51.625 33 
Q 55.609375 28.21875 55.609375 21.1875 
Q 55.609375 10.40625 48.1875 4.484375 
Q 40.765625 -1.421875 27.09375 -1.421875 
Q 22.515625 -1.421875 17.65625 -0.515625 
Q 12.796875 0.390625 7.625 2.203125 
L 7.625 11.71875 
Q 11.71875 9.328125 16.59375 8.109375 
Q 21.484375 6.890625 26.8125 6.890625 
Q 36.078125 6.890625 40.9375 10.546875 
Q 45.796875 14.203125 45.796875 21.1875 
Q 45.796875 27.640625 41.28125 31.265625 
Q 36.765625 34.90625 28.71875 34.90625 
L 20.21875 34.90625 
L 20.21875 43.015625 
L 29.109375 43.015625 
Q 36.375 43.015625 40.234375 45.921875 
Q 44.09375 48.828125 44.09375 54.296875 
Q 44.09375 59.90625 40.109375 62.90625 
Q 36.140625 65.921875 28.71875 65.921875 
Q 24.65625 65.921875 20.015625 65.03125 
Q 15.375 64.15625 9.8125 62.3125 
L 9.8125 71.09375 
Q 15.4375 72.65625 20.34375 73.4375 
Q 25.25 74.21875 29.59375 74.21875 
Q 40.828125 74.21875 47.359375 69.109375 
Q 53.90625 64.015625 53.90625 55.328125 
Q 53.90625 49.265625 50.4375 45.09375 
Q 46.96875 40.921875 40.578125 39.3125 
z
" id="DejaVuSans-51"/>
       </defs>
       <use xlink:href="#DejaVuSans-8722"/>
       <use x="83.789062" xlink:href="#DejaVuSans-51"/>
      </g>
     </g>
    </g>
    <g id="ytick_2">
     <g id="line2d_6">
      <g>
       <use style="stroke:#000000;stroke-width:0.8;" x="28.942187" xlink:href="#m5debaa79bd" y="117.464839"/>
      </g>
     </g>
     <g id="text_5">
      <!-- 0 -->
      <g transform="translate(15.579687 121.264057)scale(0.1 -0.1)">
       <use xlink:href="#DejaVuSans-48"/>
      </g>
     </g>
    </g>
    <g id="ytick_3">
     <g id="line2d_7">
      <g>
       <use style="stroke:#000000;stroke-width:0.8;" x="28.942187" xlink:href="#m5debaa79bd" y="46.22436"/>
      </g>
     </g>
     <g id="text_6">
      <!-- 3 -->
      <g transform="translate(15.579687 50.023579)scale(0.1 -0.1)">
       <use xlink:href="#DejaVuSans-51"/>
      </g>
     </g>
    </g>
   </g>
   <g id="PathCollection_1">
    <defs>
     <path d="M -3 3 
L 3 -3 
M -3 -3 
L 3 3 
" id="m48b1c55c23" style="stroke:#ff0000;stroke-width:1.5;"/>
    </defs>
    <g clip-path="url(#p3dce92cbe5)">
     <use style="fill:#ff0000;stroke:#ff0000;stroke-width:1.5;" x="70.397529" xlink:href="#m48b1c55c23" y="68.114869"/>
     <use style="fill:#ff0000;stroke:#ff0000;stroke-width:1.5;" x="104.968052" xlink:href="#m48b1c55c23" y="71.686288"/>
     <use style="fill:#ff0000;stroke:#ff0000;stroke-width:1.5;" x="175.561695" xlink:href="#m48b1c55c23" y="73.499192"/>
     <use style="fill:#ff0000;stroke:#ff0000;stroke-width:1.5;" x="51.119226" xlink:href="#m48b1c55c23" y="64.990817"/>
     <use style="fill:#ff0000;stroke:#ff0000;stroke-width:1.5;" x="96.423732" xlink:href="#m48b1c55c23" y="65.902603"/>
     <use style="fill:#ff0000;stroke:#ff0000;stroke-width:1.5;" x="85.746137" xlink:href="#m48b1c55c23" y="67.206942"/>
     <use style="fill:#ff0000;stroke:#ff0000;stroke-width:1.5;" x="151.040828" xlink:href="#m48b1c55c23" y="74.855332"/>
    </g>
   </g>
   <g id="patch_3">
    <path d="M 28.942187 191.08 
L 28.942187 43.849677 
" style="fill:none;stroke:#000000;stroke-linecap:square;stroke-linejoin:miter;stroke-width:0.8;"/>
   </g>
   <g id="patch_4">
    <path d="M 176.192187 191.08 
L 176.192187 43.849677 
" style="fill:none;stroke:#000000;stroke-linecap:square;stroke-linejoin:miter;stroke-width:0.8;"/>
   </g>
   <g id="patch_5">
    <path d="M 28.942187 191.08 
L 176.192187 191.08 
" style="fill:none;stroke:#000000;stroke-linecap:square;stroke-linejoin:miter;stroke-width:0.8;"/>
   </g>
   <g id="patch_6">
    <path d="M 28.942187 43.849677 
L 176.192187 43.849677 
" style="fill:none;stroke:#000000;stroke-linecap:square;stroke-linejoin:miter;stroke-width:0.8;"/>
   </g>
  </g>
  <g id="axes_2">
   <g id="patch_7">
    <path d="M 202.804688 191.08 
L 350.054688 191.08 
L 350.054688 43.849677 
L 202.804688 43.849677 
z
" style="fill:#ffffff;"/>
   </g>
   <g id="line2d_8">
    <path clip-path="url(#pda66c8c3e3)" d="M 202.804688 120.727395 
L 204.292061 120.634553 
L 205.779435 120.541712 
L 207.266809 120.44887 
L 208.754182 120.356029 
L 210.241556 120.263187 
L 211.72893 120.170346 
L 213.216304 120.077504 
L 214.703677 119.984663 
L 216.191051 119.891822 
L 217.678425 119.79898 
L 219.165799 119.706139 
L 220.653172 119.613297 
L 222.140546 119.520456 
L 223.62792 119.427614 
L 225.115294 119.334773 
L 226.602667 119.241931 
L 228.090041 119.14909 
L 229.577415 119.056248 
L 231.064789 118.963407 
L 232.552162 118.870566 
L 234.039536 118.777724 
L 235.52691 118.684883 
L 237.014283 118.592041 
L 238.501657 118.4992 
L 239.989031 118.406358 
L 241.476405 118.313517 
L 242.963778 118.220675 
L 244.451152 118.127834 
L 245.938526 118.034993 
L 247.4259 117.942151 
L 248.913273 117.84931 
L 250.400647 117.756468 
L 251.888021 117.663627 
L 253.375395 117.570785 
L 254.862768 117.477944 
L 256.350142 117.385102 
L 257.837516 117.292261 
L 259.32489 117.199419 
L 260.812263 117.106578 
L 262.299637 117.013737 
L 263.787011 116.920895 
L 265.274384 116.828054 
L 266.761758 116.735212 
L 268.249132 116.642371 
L 269.736506 116.549529 
L 271.223879 116.456688 
L 272.711253 116.363846 
L 274.198627 116.271005 
L 275.686001 116.178163 
L 277.173374 116.085322 
L 278.660748 115.992481 
L 280.148122 115.899639 
L 281.635496 115.806798 
L 283.122869 115.713956 
L 284.610243 115.621115 
L 286.097617 115.528273 
L 287.584991 115.435432 
L 289.072364 115.34259 
L 290.559738 115.249749 
L 292.047112 115.156907 
L 293.534485 115.064066 
L 295.021859 114.971225 
L 296.509233 114.878383 
L 297.996607 114.785542 
L 299.48398 114.6927 
L 300.971354 114.599859 
L 302.458728 114.507017 
L 303.946102 114.414176 
L 305.433475 114.321334 
L 306.920849 114.228493 
L 308.408223 114.135651 
L 309.895597 114.04281 
L 311.38297 113.949969 
L 312.870344 113.857127 
L 314.357718 113.764286 
L 315.845092 113.671444 
L 317.332465 113.578603 
L 318.819839 113.485761 
L 320.307213 113.39292 
L 321.794586 113.300078 
L 323.28196 113.207237 
L 324.769334 113.114395 
L 326.256708 113.021554 
L 327.744081 112.928713 
L 329.231455 112.835871 
L 330.718829 112.74303 
L 332.206203 112.650188 
L 333.693576 112.557347 
L 335.18095 112.464505 
L 336.668324 112.371664 
L 338.155698 112.278822 
L 339.643071 112.185981 
L 341.130445 112.093139 
L 342.617819 112.000298 
L 344.105193 111.907457 
L 345.592566 111.814615 
L 347.07994 111.721774 
L 348.567314 111.628932 
L 350.054688 111.536091 
" style="fill:none;stroke:#000000;stroke-linecap:square;stroke-width:1.5;"/>
   </g>
   <g id="matplotlib.axis_3">
    <g id="xtick_4">
     <g id="line2d_9">
      <g>
       <use style="stroke:#000000;stroke-width:0.8;" x="202.804688" xlink:href="#m2821bee00d" y="191.08"/>
      </g>
     </g>
     <g id="text_7">
      <!-- 0.0 -->
      <g transform="translate(194.853125 205.678438)scale(0.1 -0.1)">
       <use xlink:href="#DejaVuSans-48"/>
       <use x="63.623047" xlink:href="#DejaVuSans-46"/>
       <use x="95.410156" xlink:href="#DejaVuSans-48"/>
      </g>
     </g>
    </g>
    <g id="xtick_5">
     <g id="line2d_10">
      <g>
       <use style="stroke:#000000;stroke-width:0.8;" x="276.429688" xlink:href="#m2821bee00d" y="191.08"/>
      </g>
     </g>
     <g id="text_8">
      <!-- 0.5 -->
      <g transform="translate(268.478125 205.678438)scale(0.1 -0.1)">
       <use xlink:href="#DejaVuSans-48"/>
       <use x="63.623047" xlink:href="#DejaVuSans-46"/>
       <use x="95.410156" xlink:href="#DejaVuSans-53"/>
      </g>
     </g>
    </g>
    <g id="xtick_6">
     <g id="line2d_11">
      <g>
       <use style="stroke:#000000;stroke-width:0.8;" x="350.054688" xlink:href="#m2821bee00d" y="191.08"/>
      </g>
     </g>
     <g id="text_9">
      <!-- 1.0 -->
      <g transform="translate(342.103125 205.678438)scale(0.1 -0.1)">
       <use xlink:href="#DejaVuSans-49"/>
       <use x="63.623047" xlink:href="#DejaVuSans-46"/>
       <use x="95.410156" xlink:href="#DejaVuSans-48"/>
      </g>
     </g>
    </g>
   </g>
   <g id="matplotlib.axis_4"/>
   <g id="PathCollection_2">
    <g clip-path="url(#pda66c8c3e3)">
     <use style="fill:#ff0000;stroke:#ff0000;stroke-width:1.5;" x="228.115289" xlink:href="#m48b1c55c23" y="119.240559"/>
     <use style="fill:#ff0000;stroke:#ff0000;stroke-width:1.5;" x="348.99357" xlink:href="#m48b1c55c23" y="110.181547"/>
     <use style="fill:#ff0000;stroke:#ff0000;stroke-width:1.5;" x="240.731551" xlink:href="#m48b1c55c23" y="119.3922"/>
     <use style="fill:#ff0000;stroke:#ff0000;stroke-width:1.5;" x="348.924249" xlink:href="#m48b1c55c23" y="110.237354"/>
     <use style="fill:#ff0000;stroke:#ff0000;stroke-width:1.5;" x="307.654929" xlink:href="#m48b1c55c23" y="114.823547"/>
     <use style="fill:#ff0000;stroke:#ff0000;stroke-width:1.5;" x="328.587733" xlink:href="#m48b1c55c23" y="112.379307"/>
     <use style="fill:#ff0000;stroke:#ff0000;stroke-width:1.5;" x="349.526423" xlink:href="#m48b1c55c23" y="111.035955"/>
    </g>
   </g>
   <g id="patch_8">
    <path d="M 202.804688 191.08 
L 202.804688 43.849677 
" style="fill:none;stroke:#000000;stroke-linecap:square;stroke-linejoin:miter;stroke-width:0.8;"/>
   </g>
   <g id="patch_9">
    <path d="M 350.054688 191.08 
L 350.054688 43.849677 
" style="fill:none;stroke:#000000;stroke-linecap:square;stroke-linejoin:miter;stroke-width:0.8;"/>
   </g>
   <g id="patch_10">
    <path d="M 202.804688 191.08 
L 350.054688 191.08 
" style="fill:none;stroke:#000000;stroke-linecap:square;stroke-linejoin:miter;stroke-width:0.8;"/>
   </g>
   <g id="patch_11">
    <path d="M 202.804688 43.849677 
L 350.054688 43.849677 
" style="fill:none;stroke:#000000;stroke-linecap:square;stroke-linejoin:miter;stroke-width:0.8;"/>
   </g>
  </g>
  <g id="axes_3">
   <g id="patch_12">
    <path d="M 376.667188 191.08 
L 523.917187 191.08 
L 523.917187 43.849677 
L 376.667188 43.849677 
z
" style="fill:#ffffff;"/>
   </g>
   <g id="line2d_12">
    <path clip-path="url(#p84f3def834)" d="M 376.667188 122.269921 
L 378.154561 121.957105 
L 379.641935 121.644288 
L 381.129309 121.331471 
L 382.616682 121.018654 
L 384.104056 120.705837 
L 385.59143 120.39302 
L 387.078804 120.080204 
L 388.566177 119.767387 
L 390.053551 119.45457 
L 391.540925 119.141753 
L 393.028299 118.828936 
L 394.515672 118.516119 
L 396.003046 118.203302 
L 397.49042 117.890486 
L 398.977794 117.577669 
L 400.465167 117.264852 
L 401.952541 116.952035 
L 403.439915 116.639218 
L 404.927289 116.326401 
L 406.414662 116.013584 
L 407.902036 115.700768 
L 409.38941 115.387951 
L 410.876783 115.075134 
L 412.364157 114.762317 
L 413.851531 114.4495 
L 415.338905 114.136683 
L 416.826278 113.823866 
L 418.313652 113.51105 
L 419.801026 113.198233 
L 421.2884 112.885416 
L 422.775773 112.572599 
L 424.263147 112.259782 
L 425.750521 111.946965 
L 427.237895 111.634149 
L 428.725268 111.321332 
L 430.212642 111.008515 
L 431.700016 110.695698 
L 433.18739 110.382881 
L 434.674763 110.070064 
L 436.162137 109.757247 
L 437.649511 109.444431 
L 439.136884 109.131614 
L 440.624258 108.818797 
L 442.111632 108.50598 
L 443.599006 108.193163 
L 445.086379 107.880346 
L 446.573753 107.567529 
L 448.061127 107.254713 
L 449.548501 106.941896 
L 451.035874 106.629079 
L 452.523248 106.316262 
L 454.010622 106.003445 
L 455.497996 105.690628 
L 456.985369 105.377811 
L 458.472743 105.064995 
L 459.960117 104.752178 
L 461.447491 104.439361 
L 462.934864 104.126544 
L 464.422238 103.813727 
L 465.909612 103.50091 
L 467.396985 103.188094 
L 468.884359 102.875277 
L 470.371733 102.56246 
L 471.859107 102.249643 
L 473.34648 101.936826 
L 474.833854 101.624009 
L 476.321228 101.311192 
L 477.808602 100.998376 
L 479.295975 100.685559 
L 480.783349 100.372742 
L 482.270723 100.059925 
L 483.758097 99.747108 
L 485.24547 99.434291 
L 486.732844 99.121474 
L 488.220218 98.808658 
L 489.707592 98.495841 
L 491.194965 98.183024 
L 492.682339 97.870207 
L 494.169713 97.55739 
L 495.657086 97.244573 
L 497.14446 96.931756 
L 498.631834 96.61894 
L 500.119208 96.306123 
L 501.606581 95.993306 
L 503.093955 95.680489 
L 504.581329 95.367672 
L 506.068703 95.054855 
L 507.556076 94.742039 
L 509.04345 94.429222 
L 510.530824 94.116405 
L 512.018198 93.803588 
L 513.505571 93.490771 
L 514.992945 93.177954 
L 516.480319 92.865137 
L 517.967693 92.552321 
L 519.455066 92.239504 
L 520.94244 91.926687 
L 522.429814 91.61387 
L 523.917187 91.301053 
" style="fill:none;stroke:#000000;stroke-linecap:square;stroke-width:1.5;"/>
   </g>
   <g id="matplotlib.axis_5">
    <g id="xtick_7">
     <g id="line2d_13">
      <g>
       <use style="stroke:#000000;stroke-width:0.8;" x="376.667188" xlink:href="#m2821bee00d" y="191.08"/>
      </g>
     </g>
     <g id="text_10">
      <!-- 0.0 -->
      <g transform="translate(368.715625 205.678438)scale(0.1 -0.1)">
       <use xlink:href="#DejaVuSans-48"/>
       <use x="63.623047" xlink:href="#DejaVuSans-46"/>
       <use x="95.410156" xlink:href="#DejaVuSans-48"/>
      </g>
     </g>
    </g>
    <g id="xtick_8">
     <g id="line2d_14">
      <g>
       <use style="stroke:#000000;stroke-width:0.8;" x="450.292188" xlink:href="#m2821bee00d" y="191.08"/>
      </g>
     </g>
     <g id="text_11">
      <!-- 0.5 -->
      <g transform="translate(442.340625 205.678438)scale(0.1 -0.1)">
       <use xlink:href="#DejaVuSans-48"/>
       <use x="63.623047" xlink:href="#DejaVuSans-46"/>
       <use x="95.410156" xlink:href="#DejaVuSans-53"/>
      </g>
     </g>
    </g>
    <g id="xtick_9">
     <g id="line2d_15">
      <g>
       <use style="stroke:#000000;stroke-width:0.8;" x="523.917187" xlink:href="#m2821bee00d" y="191.08"/>
      </g>
     </g>
     <g id="text_12">
      <!-- 1.0 -->
      <g transform="translate(515.965625 205.678438)scale(0.1 -0.1)">
       <use xlink:href="#DejaVuSans-49"/>
       <use x="63.623047" xlink:href="#DejaVuSans-46"/>
       <use x="95.410156" xlink:href="#DejaVuSans-48"/>
      </g>
     </g>
    </g>
   </g>
   <g id="matplotlib.axis_6"/>
   <g id="PathCollection_3">
    <g clip-path="url(#p84f3def834)">
     <use style="fill:#ff0000;stroke:#ff0000;stroke-width:1.5;" x="384.384942" xlink:href="#m48b1c55c23" y="124.802817"/>
     <use style="fill:#ff0000;stroke:#ff0000;stroke-width:1.5;" x="476.669229" xlink:href="#m48b1c55c23" y="95.189587"/>
     <use style="fill:#ff0000;stroke:#ff0000;stroke-width:1.5;" x="420.121875" xlink:href="#m48b1c55c23" y="110.281044"/>
     <use style="fill:#ff0000;stroke:#ff0000;stroke-width:1.5;" x="396.573555" xlink:href="#m48b1c55c23" y="115.181334"/>
     <use style="fill:#ff0000;stroke:#ff0000;stroke-width:1.5;" x="449.928704" xlink:href="#m48b1c55c23" y="107.656897"/>
     <use style="fill:#ff0000;stroke:#ff0000;stroke-width:1.5;" x="422.490273" xlink:href="#m48b1c55c23" y="114.484646"/>
     <use style="fill:#ff0000;stroke:#ff0000;stroke-width:1.5;" x="460.705476" xlink:href="#m48b1c55c23" y="108.241443"/>
    </g>
   </g>
   <g id="patch_13">
    <path d="M 376.667188 191.08 
L 376.667188 43.849677 
" style="fill:none;stroke:#000000;stroke-linecap:square;stroke-linejoin:miter;stroke-width:0.8;"/>
   </g>
   <g id="patch_14">
    <path d="M 523.917187 191.08 
L 523.917187 43.849677 
" style="fill:none;stroke:#000000;stroke-linecap:square;stroke-linejoin:miter;stroke-width:0.8;"/>
   </g>
   <g id="patch_15">
    <path d="M 376.667188 191.08 
L 523.917187 191.08 
" style="fill:none;stroke:#000000;stroke-linecap:square;stroke-linejoin:miter;stroke-width:0.8;"/>
   </g>
   <g id="patch_16">
    <path d="M 376.667188 43.849677 
L 523.917187 43.849677 
" style="fill:none;stroke:#000000;stroke-linecap:square;stroke-linejoin:miter;stroke-width:0.8;"/>
   </g>
  </g>
  <g id="axes_4">
   <g id="patch_17">
    <path d="M 550.529688 191.08 
L 697.779688 191.08 
L 697.779688 43.849677 
L 550.529688 43.849677 
z
" style="fill:#ffffff;"/>
   </g>
   <g id="line2d_16">
    <path clip-path="url(#pee09b11c85)" d="M 550.529688 152.10232 
L 552.017061 152.481908 
L 553.504435 152.861496 
L 554.991809 153.241085 
L 556.479182 153.620673 
L 557.966556 154.000261 
L 559.45393 154.379849 
L 560.941304 154.759437 
L 562.428677 155.139026 
L 563.916051 155.518614 
L 565.403425 155.898202 
L 566.890799 156.27779 
L 568.378172 156.657379 
L 569.865546 157.036967 
L 571.35292 157.416555 
L 572.840294 157.796143 
L 574.327667 158.175732 
L 575.815041 158.55532 
L 577.302415 158.934908 
L 578.789789 159.314496 
L 580.277162 159.694084 
L 581.764536 160.073673 
L 583.25191 160.453261 
L 584.739283 160.832849 
L 586.226657 161.212437 
L 587.714031 161.592026 
L 589.201405 161.971614 
L 590.688778 162.351202 
L 592.176152 162.73079 
L 593.663526 163.110379 
L 595.1509 163.489967 
L 596.638273 163.869555 
L 598.125647 164.249143 
L 599.613021 164.628731 
L 601.100395 165.00832 
L 602.587768 165.387908 
L 604.075142 165.767496 
L 605.562516 166.147084 
L 607.04989 166.526673 
L 608.537263 166.906261 
L 610.024637 167.285849 
L 611.512011 167.665437 
L 612.999384 168.045026 
L 614.486758 168.424614 
L 615.974132 168.804202 
L 617.461506 169.18379 
L 618.948879 169.563378 
L 620.436253 169.942967 
L 621.923627 170.322555 
L 623.411001 170.702143 
L 624.898374 171.081731 
L 626.385748 171.46132 
L 627.873122 171.840908 
L 629.360496 172.220496 
L 630.847869 172.600084 
L 632.335243 172.979673 
L 633.822617 173.359261 
L 635.309991 173.738849 
L 636.797364 174.118437 
L 638.284738 174.498025 
L 639.772112 174.877614 
L 641.259485 175.257202 
L 642.746859 175.63679 
L 644.234233 176.016378 
L 645.721607 176.395967 
L 647.20898 176.775555 
L 648.696354 177.155143 
L 650.183728 177.534731 
L 651.671102 177.914319 
L 653.158475 178.293908 
L 654.645849 178.673496 
L 656.133223 179.053084 
L 657.620597 179.432672 
L 659.10797 179.812261 
L 660.595344 180.191849 
L 662.082718 180.571437 
L 663.570092 180.951025 
L 665.057465 181.330614 
L 666.544839 181.710202 
L 668.032213 182.08979 
L 669.519586 182.469378 
L 671.00696 182.848966 
L 672.494334 183.228555 
L 673.981708 183.608143 
L 675.469081 183.987731 
L 676.956455 184.367319 
L 678.443829 184.746908 
L 679.931203 185.126496 
L 681.418576 185.506084 
L 682.90595 185.885672 
L 684.393324 186.265261 
L 685.880698 186.644849 
L 687.368071 187.024437 
L 688.855445 187.404025 
L 690.342819 187.783613 
L 691.830193 188.163202 
L 693.317566 188.54279 
L 694.80494 188.922378 
L 696.292314 189.301966 
L 697.779688 189.681555 
" style="fill:none;stroke:#000000;stroke-linecap:square;stroke-width:1.5;"/>
   </g>
   <g id="matplotlib.axis_7">
    <g id="xtick_10">
     <g id="line2d_17">
      <g>
       <use style="stroke:#000000;stroke-width:0.8;" x="550.529688" xlink:href="#m2821bee00d" y="191.08"/>
      </g>
     </g>
     <g id="text_13">
      <!-- 0.0 -->
      <g transform="translate(542.578125 205.678438)scale(0.1 -0.1)">
       <use xlink:href="#DejaVuSans-48"/>
       <use x="63.623047" xlink:href="#DejaVuSans-46"/>
       <use x="95.410156" xlink:href="#DejaVuSans-48"/>
      </g>
     </g>
    </g>
    <g id="xtick_11">
     <g id="line2d_18">
      <g>
       <use style="stroke:#000000;stroke-width:0.8;" x="624.154688" xlink:href="#m2821bee00d" y="191.08"/>
      </g>
     </g>
     <g id="text_14">
      <!-- 0.5 -->
      <g transform="translate(616.203125 205.678438)scale(0.1 -0.1)">
       <use xlink:href="#DejaVuSans-48"/>
       <use x="63.623047" xlink:href="#DejaVuSans-46"/>
       <use x="95.410156" xlink:href="#DejaVuSans-53"/>
      </g>
     </g>
    </g>
    <g id="xtick_12">
     <g id="line2d_19">
      <g>
       <use style="stroke:#000000;stroke-width:0.8;" x="697.779688" xlink:href="#m2821bee00d" y="191.08"/>
      </g>
     </g>
     <g id="text_15">
      <!-- 1.0 -->
      <g transform="translate(689.828125 205.678438)scale(0.1 -0.1)">
       <use xlink:href="#DejaVuSans-49"/>
       <use x="63.623047" xlink:href="#DejaVuSans-46"/>
       <use x="95.410156" xlink:href="#DejaVuSans-48"/>
      </g>
     </g>
    </g>
   </g>
   <g id="matplotlib.axis_8"/>
   <g id="PathCollection_4">
    <g clip-path="url(#pee09b11c85)">
     <use style="fill:#ff0000;stroke:#ff0000;stroke-width:1.5;" x="610.068042" xlink:href="#m48b1c55c23" y="168.33291"/>
     <use style="fill:#ff0000;stroke:#ff0000;stroke-width:1.5;" x="658.462785" xlink:href="#m48b1c55c23" y="179.477483"/>
     <use style="fill:#ff0000;stroke:#ff0000;stroke-width:1.5;" x="654.379101" xlink:href="#m48b1c55c23" y="178.53782"/>
     <use style="fill:#ff0000;stroke:#ff0000;stroke-width:1.5;" x="602.43993" xlink:href="#m48b1c55c23" y="165.508394"/>
     <use style="fill:#ff0000;stroke:#ff0000;stroke-width:1.5;" x="659.707574" xlink:href="#m48b1c55c23" y="178.798735"/>
     <use style="fill:#ff0000;stroke:#ff0000;stroke-width:1.5;" x="575.22656" xlink:href="#m48b1c55c23" y="156.253292"/>
     <use style="fill:#ff0000;stroke:#ff0000;stroke-width:1.5;" x="598.729972" xlink:href="#m48b1c55c23" y="167.844107"/>
    </g>
   </g>
   <g id="patch_18">
    <path d="M 550.529688 191.08 
L 550.529688 43.849677 
" style="fill:none;stroke:#000000;stroke-linecap:square;stroke-linejoin:miter;stroke-width:0.8;"/>
   </g>
   <g id="patch_19">
    <path d="M 697.779688 191.08 
L 697.779688 43.849677 
" style="fill:none;stroke:#000000;stroke-linecap:square;stroke-linejoin:miter;stroke-width:0.8;"/>
   </g>
   <g id="patch_20">
    <path d="M 550.529688 191.08 
L 697.779688 191.08 
" style="fill:none;stroke:#000000;stroke-linecap:square;stroke-linejoin:miter;stroke-width:0.8;"/>
   </g>
   <g id="patch_21">
    <path d="M 550.529688 43.849677 
L 697.779688 43.849677 
" style="fill:none;stroke:#000000;stroke-linecap:square;stroke-linejoin:miter;stroke-width:0.8;"/>
   </g>
  </g>
  <g id="text_16">
   <!-- Functions and observed data sampled from prior -->
   <g transform="translate(136.965 20.877187)scale(0.18 -0.18)">
    <defs>
     <path d="M 9.8125 72.90625 
L 51.703125 72.90625 
L 51.703125 64.59375 
L 19.671875 64.59375 
L 19.671875 43.109375 
L 48.578125 43.109375 
L 48.578125 34.8125 
L 19.671875 34.8125 
L 19.671875 0 
L 9.8125 0 
z
" id="DejaVuSans-70"/>
     <path d="M 8.5 21.578125 
L 8.5 54.6875 
L 17.484375 54.6875 
L 17.484375 21.921875 
Q 17.484375 14.15625 20.5 10.265625 
Q 23.53125 6.390625 29.59375 6.390625 
Q 36.859375 6.390625 41.078125 11.03125 
Q 45.3125 15.671875 45.3125 23.6875 
L 45.3125 54.6875 
L 54.296875 54.6875 
L 54.296875 0 
L 45.3125 0 
L 45.3125 8.40625 
Q 42.046875 3.421875 37.71875 1 
Q 33.40625 -1.421875 27.6875 -1.421875 
Q 18.265625 -1.421875 13.375 4.4375 
Q 8.5 10.296875 8.5 21.578125 
z
M 31.109375 56 
z
" id="DejaVuSans-117"/>
     <path d="M 54.890625 33.015625 
L 54.890625 0 
L 45.90625 0 
L 45.90625 32.71875 
Q 45.90625 40.484375 42.875 44.328125 
Q 39.84375 48.1875 33.796875 48.1875 
Q 26.515625 48.1875 22.3125 43.546875 
Q 18.109375 38.921875 18.109375 30.90625 
L 18.109375 0 
L 9.078125 0 
L 9.078125 54.6875 
L 18.109375 54.6875 
L 18.109375 46.1875 
Q 21.34375 51.125 25.703125 53.5625 
Q 30.078125 56 35.796875 56 
Q 45.21875 56 50.046875 50.171875 
Q 54.890625 44.34375 54.890625 33.015625 
z
" id="DejaVuSans-110"/>
     <path d="M 48.78125 52.59375 
L 48.78125 44.1875 
Q 44.96875 46.296875 41.140625 47.34375 
Q 37.3125 48.390625 33.40625 48.390625 
Q 24.65625 48.390625 19.8125 42.84375 
Q 14.984375 37.3125 14.984375 27.296875 
Q 14.984375 17.28125 19.8125 11.734375 
Q 24.65625 6.203125 33.40625 6.203125 
Q 37.3125 6.203125 41.140625 7.25 
Q 44.96875 8.296875 48.78125 10.40625 
L 48.78125 2.09375 
Q 45.015625 0.34375 40.984375 -0.53125 
Q 36.96875 -1.421875 32.421875 -1.421875 
Q 20.0625 -1.421875 12.78125 6.34375 
Q 5.515625 14.109375 5.515625 27.296875 
Q 5.515625 40.671875 12.859375 48.328125 
Q 20.21875 56 33.015625 56 
Q 37.15625 56 41.109375 55.140625 
Q 45.0625 54.296875 48.78125 52.59375 
z
" id="DejaVuSans-99"/>
     <path d="M 18.3125 70.21875 
L 18.3125 54.6875 
L 36.8125 54.6875 
L 36.8125 47.703125 
L 18.3125 47.703125 
L 18.3125 18.015625 
Q 18.3125 11.328125 20.140625 9.421875 
Q 21.96875 7.515625 27.59375 7.515625 
L 36.8125 7.515625 
L 36.8125 0 
L 27.59375 0 
Q 17.1875 0 13.234375 3.875 
Q 9.28125 7.765625 9.28125 18.015625 
L 9.28125 47.703125 
L 2.6875 47.703125 
L 2.6875 54.6875 
L 9.28125 54.6875 
L 9.28125 70.21875 
z
" id="DejaVuSans-116"/>
     <path d="M 9.421875 54.6875 
L 18.40625 54.6875 
L 18.40625 0 
L 9.421875 0 
z
M 9.421875 75.984375 
L 18.40625 75.984375 
L 18.40625 64.59375 
L 9.421875 64.59375 
z
" id="DejaVuSans-105"/>
     <path d="M 30.609375 48.390625 
Q 23.390625 48.390625 19.1875 42.75 
Q 14.984375 37.109375 14.984375 27.296875 
Q 14.984375 17.484375 19.15625 11.84375 
Q 23.34375 6.203125 30.609375 6.203125 
Q 37.796875 6.203125 41.984375 11.859375 
Q 46.1875 17.53125 46.1875 27.296875 
Q 46.1875 37.015625 41.984375 42.703125 
Q 37.796875 48.390625 30.609375 48.390625 
z
M 30.609375 56 
Q 42.328125 56 49.015625 48.375 
Q 55.71875 40.765625 55.71875 27.296875 
Q 55.71875 13.875 49.015625 6.21875 
Q 42.328125 -1.421875 30.609375 -1.421875 
Q 18.84375 -1.421875 12.171875 6.21875 
Q 5.515625 13.875 5.515625 27.296875 
Q 5.515625 40.765625 12.171875 48.375 
Q 18.84375 56 30.609375 56 
z
" id="DejaVuSans-111"/>
     <path d="M 44.28125 53.078125 
L 44.28125 44.578125 
Q 40.484375 46.53125 36.375 47.5 
Q 32.28125 48.484375 27.875 48.484375 
Q 21.1875 48.484375 17.84375 46.4375 
Q 14.5 44.390625 14.5 40.28125 
Q 14.5 37.15625 16.890625 35.375 
Q 19.28125 33.59375 26.515625 31.984375 
L 29.59375 31.296875 
Q 39.15625 29.25 43.1875 25.515625 
Q 47.21875 21.78125 47.21875 15.09375 
Q 47.21875 7.46875 41.1875 3.015625 
Q 35.15625 -1.421875 24.609375 -1.421875 
Q 20.21875 -1.421875 15.453125 -0.5625 
Q 10.6875 0.296875 5.421875 2 
L 5.421875 11.28125 
Q 10.40625 8.6875 15.234375 7.390625 
Q 20.0625 6.109375 24.8125 6.109375 
Q 31.15625 6.109375 34.5625 8.28125 
Q 37.984375 10.453125 37.984375 14.40625 
Q 37.984375 18.0625 35.515625 20.015625 
Q 33.0625 21.96875 24.703125 23.78125 
L 21.578125 24.515625 
Q 13.234375 26.265625 9.515625 29.90625 
Q 5.8125 33.546875 5.8125 39.890625 
Q 5.8125 47.609375 11.28125 51.796875 
Q 16.75 56 26.8125 56 
Q 31.78125 56 36.171875 55.265625 
Q 40.578125 54.546875 44.28125 53.078125 
z
" id="DejaVuSans-115"/>
     <path id="DejaVuSans-32"/>
     <path d="M 34.28125 27.484375 
Q 23.390625 27.484375 19.1875 25 
Q 14.984375 22.515625 14.984375 16.5 
Q 14.984375 11.71875 18.140625 8.90625 
Q 21.296875 6.109375 26.703125 6.109375 
Q 34.1875 6.109375 38.703125 11.40625 
Q 43.21875 16.703125 43.21875 25.484375 
L 43.21875 27.484375 
z
M 52.203125 31.203125 
L 52.203125 0 
L 43.21875 0 
L 43.21875 8.296875 
Q 40.140625 3.328125 35.546875 0.953125 
Q 30.953125 -1.421875 24.3125 -1.421875 
Q 15.921875 -1.421875 10.953125 3.296875 
Q 6 8.015625 6 15.921875 
Q 6 25.140625 12.171875 29.828125 
Q 18.359375 34.515625 30.609375 34.515625 
L 43.21875 34.515625 
L 43.21875 35.40625 
Q 43.21875 41.609375 39.140625 45 
Q 35.0625 48.390625 27.6875 48.390625 
Q 23 48.390625 18.546875 47.265625 
Q 14.109375 46.140625 10.015625 43.890625 
L 10.015625 52.203125 
Q 14.9375 54.109375 19.578125 55.046875 
Q 24.21875 56 28.609375 56 
Q 40.484375 56 46.34375 49.84375 
Q 52.203125 43.703125 52.203125 31.203125 
z
" id="DejaVuSans-97"/>
     <path d="M 45.40625 46.390625 
L 45.40625 75.984375 
L 54.390625 75.984375 
L 54.390625 0 
L 45.40625 0 
L 45.40625 8.203125 
Q 42.578125 3.328125 38.25 0.953125 
Q 33.9375 -1.421875 27.875 -1.421875 
Q 17.96875 -1.421875 11.734375 6.484375 
Q 5.515625 14.40625 5.515625 27.296875 
Q 5.515625 40.1875 11.734375 48.09375 
Q 17.96875 56 27.875 56 
Q 33.9375 56 38.25 53.625 
Q 42.578125 51.265625 45.40625 46.390625 
z
M 14.796875 27.296875 
Q 14.796875 17.390625 18.875 11.75 
Q 22.953125 6.109375 30.078125 6.109375 
Q 37.203125 6.109375 41.296875 11.75 
Q 45.40625 17.390625 45.40625 27.296875 
Q 45.40625 37.203125 41.296875 42.84375 
Q 37.203125 48.484375 30.078125 48.484375 
Q 22.953125 48.484375 18.875 42.84375 
Q 14.796875 37.203125 14.796875 27.296875 
z
" id="DejaVuSans-100"/>
     <path d="M 48.6875 27.296875 
Q 48.6875 37.203125 44.609375 42.84375 
Q 40.53125 48.484375 33.40625 48.484375 
Q 26.265625 48.484375 22.1875 42.84375 
Q 18.109375 37.203125 18.109375 27.296875 
Q 18.109375 17.390625 22.1875 11.75 
Q 26.265625 6.109375 33.40625 6.109375 
Q 40.53125 6.109375 44.609375 11.75 
Q 48.6875 17.390625 48.6875 27.296875 
z
M 18.109375 46.390625 
Q 20.953125 51.265625 25.265625 53.625 
Q 29.59375 56 35.59375 56 
Q 45.5625 56 51.78125 48.09375 
Q 58.015625 40.1875 58.015625 27.296875 
Q 58.015625 14.40625 51.78125 6.484375 
Q 45.5625 -1.421875 35.59375 -1.421875 
Q 29.59375 -1.421875 25.265625 0.953125 
Q 20.953125 3.328125 18.109375 8.203125 
L 18.109375 0 
L 9.078125 0 
L 9.078125 75.984375 
L 18.109375 75.984375 
z
" id="DejaVuSans-98"/>
     <path d="M 56.203125 29.59375 
L 56.203125 25.203125 
L 14.890625 25.203125 
Q 15.484375 15.921875 20.484375 11.0625 
Q 25.484375 6.203125 34.421875 6.203125 
Q 39.59375 6.203125 44.453125 7.46875 
Q 49.3125 8.734375 54.109375 11.28125 
L 54.109375 2.78125 
Q 49.265625 0.734375 44.1875 -0.34375 
Q 39.109375 -1.421875 33.890625 -1.421875 
Q 20.796875 -1.421875 13.15625 6.1875 
Q 5.515625 13.8125 5.515625 26.8125 
Q 5.515625 40.234375 12.765625 48.109375 
Q 20.015625 56 32.328125 56 
Q 43.359375 56 49.78125 48.890625 
Q 56.203125 41.796875 56.203125 29.59375 
z
M 47.21875 32.234375 
Q 47.125 39.59375 43.09375 43.984375 
Q 39.0625 48.390625 32.421875 48.390625 
Q 24.90625 48.390625 20.390625 44.140625 
Q 15.875 39.890625 15.1875 32.171875 
z
" id="DejaVuSans-101"/>
     <path d="M 41.109375 46.296875 
Q 39.59375 47.171875 37.8125 47.578125 
Q 36.03125 48 33.890625 48 
Q 26.265625 48 22.1875 43.046875 
Q 18.109375 38.09375 18.109375 28.8125 
L 18.109375 0 
L 9.078125 0 
L 9.078125 54.6875 
L 18.109375 54.6875 
L 18.109375 46.1875 
Q 20.953125 51.171875 25.484375 53.578125 
Q 30.03125 56 36.53125 56 
Q 37.453125 56 38.578125 55.875 
Q 39.703125 55.765625 41.0625 55.515625 
z
" id="DejaVuSans-114"/>
     <path d="M 2.984375 54.6875 
L 12.5 54.6875 
L 29.59375 8.796875 
L 46.6875 54.6875 
L 56.203125 54.6875 
L 35.6875 0 
L 23.484375 0 
z
" id="DejaVuSans-118"/>
     <path d="M 52 44.1875 
Q 55.375 50.25 60.0625 53.125 
Q 64.75 56 71.09375 56 
Q 79.640625 56 84.28125 50.015625 
Q 88.921875 44.046875 88.921875 33.015625 
L 88.921875 0 
L 79.890625 0 
L 79.890625 32.71875 
Q 79.890625 40.578125 77.09375 44.375 
Q 74.3125 48.1875 68.609375 48.1875 
Q 61.625 48.1875 57.5625 43.546875 
Q 53.515625 38.921875 53.515625 30.90625 
L 53.515625 0 
L 44.484375 0 
L 44.484375 32.71875 
Q 44.484375 40.625 41.703125 44.40625 
Q 38.921875 48.1875 33.109375 48.1875 
Q 26.21875 48.1875 22.15625 43.53125 
Q 18.109375 38.875 18.109375 30.90625 
L 18.109375 0 
L 9.078125 0 
L 9.078125 54.6875 
L 18.109375 54.6875 
L 18.109375 46.1875 
Q 21.1875 51.21875 25.484375 53.609375 
Q 29.78125 56 35.6875 56 
Q 41.65625 56 45.828125 52.96875 
Q 50 49.953125 52 44.1875 
z
" id="DejaVuSans-109"/>
     <path d="M 18.109375 8.203125 
L 18.109375 -20.796875 
L 9.078125 -20.796875 
L 9.078125 54.6875 
L 18.109375 54.6875 
L 18.109375 46.390625 
Q 20.953125 51.265625 25.265625 53.625 
Q 29.59375 56 35.59375 56 
Q 45.5625 56 51.78125 48.09375 
Q 58.015625 40.1875 58.015625 27.296875 
Q 58.015625 14.40625 51.78125 6.484375 
Q 45.5625 -1.421875 35.59375 -1.421875 
Q 29.59375 -1.421875 25.265625 0.953125 
Q 20.953125 3.328125 18.109375 8.203125 
z
M 48.6875 27.296875 
Q 48.6875 37.203125 44.609375 42.84375 
Q 40.53125 48.484375 33.40625 48.484375 
Q 26.265625 48.484375 22.1875 42.84375 
Q 18.109375 37.203125 18.109375 27.296875 
Q 18.109375 17.390625 22.1875 11.75 
Q 26.265625 6.109375 33.40625 6.109375 
Q 40.53125 6.109375 44.609375 11.75 
Q 48.6875 17.390625 48.6875 27.296875 
z
" id="DejaVuSans-112"/>
     <path d="M 9.421875 75.984375 
L 18.40625 75.984375 
L 18.40625 0 
L 9.421875 0 
z
" id="DejaVuSans-108"/>
     <path d="M 37.109375 75.984375 
L 37.109375 68.5 
L 28.515625 68.5 
Q 23.6875 68.5 21.796875 66.546875 
Q 19.921875 64.59375 19.921875 59.515625 
L 19.921875 54.6875 
L 34.71875 54.6875 
L 34.71875 47.703125 
L 19.921875 47.703125 
L 19.921875 0 
L 10.890625 0 
L 10.890625 47.703125 
L 2.296875 47.703125 
L 2.296875 54.6875 
L 10.890625 54.6875 
L 10.890625 58.5 
Q 10.890625 67.625 15.140625 71.796875 
Q 19.390625 75.984375 28.609375 75.984375 
z
" id="DejaVuSans-102"/>
    </defs>
    <use xlink:href="#DejaVuSans-70"/>
    <use x="52.019531" xlink:href="#DejaVuSans-117"/>
    <use x="115.398438" xlink:href="#DejaVuSans-110"/>
    <use x="178.777344" xlink:href="#DejaVuSans-99"/>
    <use x="233.757812" xlink:href="#DejaVuSans-116"/>
    <use x="272.966797" xlink:href="#DejaVuSans-105"/>
    <use x="300.75" xlink:href="#DejaVuSans-111"/>
    <use x="361.931641" xlink:href="#DejaVuSans-110"/>
    <use x="425.310547" xlink:href="#DejaVuSans-115"/>
    <use x="477.410156" xlink:href="#DejaVuSans-32"/>
    <use x="509.197266" xlink:href="#DejaVuSans-97"/>
    <use x="570.476562" xlink:href="#DejaVuSans-110"/>
    <use x="633.855469" xlink:href="#DejaVuSans-100"/>
    <use x="697.332031" xlink:href="#DejaVuSans-32"/>
    <use x="729.119141" xlink:href="#DejaVuSans-111"/>
    <use x="790.300781" xlink:href="#DejaVuSans-98"/>
    <use x="853.777344" xlink:href="#DejaVuSans-115"/>
    <use x="905.876953" xlink:href="#DejaVuSans-101"/>
    <use x="967.400391" xlink:href="#DejaVuSans-114"/>
    <use x="1008.513672" xlink:href="#DejaVuSans-118"/>
    <use x="1067.693359" xlink:href="#DejaVuSans-101"/>
    <use x="1129.216797" xlink:href="#DejaVuSans-100"/>
    <use x="1192.693359" xlink:href="#DejaVuSans-32"/>
    <use x="1224.480469" xlink:href="#DejaVuSans-100"/>
    <use x="1287.957031" xlink:href="#DejaVuSans-97"/>
    <use x="1349.236328" xlink:href="#DejaVuSans-116"/>
    <use x="1388.445312" xlink:href="#DejaVuSans-97"/>
    <use x="1449.724609" xlink:href="#DejaVuSans-32"/>
    <use x="1481.511719" xlink:href="#DejaVuSans-115"/>
    <use x="1533.611328" xlink:href="#DejaVuSans-97"/>
    <use x="1594.890625" xlink:href="#DejaVuSans-109"/>
    <use x="1692.302734" xlink:href="#DejaVuSans-112"/>
    <use x="1755.779297" xlink:href="#DejaVuSans-108"/>
    <use x="1783.5625" xlink:href="#DejaVuSans-101"/>
    <use x="1845.085938" xlink:href="#DejaVuSans-100"/>
    <use x="1908.5625" xlink:href="#DejaVuSans-32"/>
    <use x="1940.349609" xlink:href="#DejaVuSans-102"/>
    <use x="1975.554688" xlink:href="#DejaVuSans-114"/>
    <use x="2014.417969" xlink:href="#DejaVuSans-111"/>
    <use x="2075.599609" xlink:href="#DejaVuSans-109"/>
    <use x="2173.011719" xlink:href="#DejaVuSans-32"/>
    <use x="2204.798828" xlink:href="#DejaVuSans-112"/>
    <use x="2268.275391" xlink:href="#DejaVuSans-114"/>
    <use x="2309.388672" xlink:href="#DejaVuSans-105"/>
    <use x="2337.171875" xlink:href="#DejaVuSans-111"/>
    <use x="2398.353516" xlink:href="#DejaVuSans-114"/>
   </g>
  </g>
 </g>
 <defs>
  <clipPath id="p3dce92cbe5">
   <rect height="147.230323" width="147.25" x="28.942187" y="43.849677"/>
  </clipPath>
  <clipPath id="pda66c8c3e3">
   <rect height="147.230323" width="147.25" x="202.804688" y="43.849677"/>
  </clipPath>
  <clipPath id="p84f3def834">
   <rect height="147.230323" width="147.25" x="376.667188" y="43.849677"/>
  </clipPath>
  <clipPath id="pee09b11c85">
   <rect height="147.230323" width="147.25" x="550.529688" y="43.849677"/>
  </clipPath>
 </defs>
</svg>
