<?xml version="1.0" encoding="utf-8" standalone="no"?>
<!DOCTYPE svg PUBLIC "-//W3C//DTD SVG 1.1//EN"
  "http://www.w3.org/Graphics/SVG/1.1/DTD/svg11.dtd">
<!-- Created with matplotlib (https://matplotlib.org/) -->
<svg height="238.71125pt" version="1.1" viewBox="0 0 506.91125 238.71125" width="506.91125pt" xmlns="http://www.w3.org/2000/svg" xmlns:xlink="http://www.w3.org/1999/xlink">
 <metadata>
  <rdf:RDF xmlns:cc="http://creativecommons.org/ns#" xmlns:dc="http://purl.org/dc/elements/1.1/" xmlns:rdf="http://www.w3.org/1999/02/22-rdf-syntax-ns#">
   <cc:Work>
    <dc:type rdf:resource="http://purl.org/dc/dcmitype/StillImage"/>
    <dc:date>2021-03-06T21:30:53.149919</dc:date>
    <dc:format>image/svg+xml</dc:format>
    <dc:creator>
     <cc:Agent>
      <dc:title>Matplotlib v3.3.3, https://matplotlib.org/</dc:title>
     </cc:Agent>
    </dc:creator>
   </cc:Work>
  </rdf:RDF>
 </metadata>
 <defs>
  <style type="text/css">*{stroke-linecap:butt;stroke-linejoin:round;}</style>
 </defs>
 <g id="figure_1">
  <g id="patch_1">
   <path d="M 0 238.71125 
L 506.91125 238.71125 
L 506.91125 0 
L 0 0 
z
" style="fill:none;"/>
  </g>
  <g id="axes_1">
   <g id="patch_2">
    <path d="M 53.31125 191.476875 
L 499.71125 191.476875 
L 499.71125 28.396875 
L 53.31125 28.396875 
z
" style="fill:#ffffff;"/>
   </g>
   <g id="PolyCollection_1">
    <path clip-path="url(#p52cfd31b39)" d="M 53.31125 143.341685 
L 53.31125 118.9747 
L 58.167194 118.245131 
L 63.023138 117.513422 
L 67.879082 116.779511 
L 72.735026 116.043337 
L 77.59097 115.304836 
L 82.446914 114.563945 
L 87.302858 113.820601 
L 92.158802 113.074736 
L 97.014747 112.326287 
L 101.870691 111.575186 
L 106.726635 110.821367 
L 111.582579 110.064764 
L 116.438523 109.305308 
L 121.294467 108.542935 
L 126.150411 107.777577 
L 131.006355 107.009169 
L 135.862299 106.237645 
L 140.718243 105.462942 
L 145.574187 104.684997 
L 150.430131 103.903747 
L 155.286075 103.119133 
L 160.142019 102.331097 
L 164.997963 101.539584 
L 169.853907 100.744539 
L 174.709851 99.945912 
L 179.565795 99.143655 
L 184.42174 98.337722 
L 189.277684 97.528073 
L 194.133628 96.714669 
L 198.989572 95.897477 
L 203.845516 95.076465 
L 208.70146 94.251608 
L 213.557404 93.422884 
L 218.413348 92.590276 
L 223.269292 91.753769 
L 228.125236 90.913357 
L 232.98118 90.069034 
L 237.837124 89.220803 
L 242.693068 88.368667 
L 247.549012 87.512638 
L 252.404956 86.65273 
L 257.2609 85.788962 
L 262.116844 84.921358 
L 266.972788 84.049944 
L 271.828733 83.174753 
L 276.684677 82.295821 
L 281.540621 81.413186 
L 286.396565 80.526891 
L 291.252509 79.636982 
L 296.108453 78.743509 
L 300.964397 77.846523 
L 305.820341 76.946078 
L 310.676285 76.042231 
L 315.532229 75.135041 
L 320.388173 74.224568 
L 325.244117 73.310875 
L 330.100061 72.394024 
L 334.956005 71.474081 
L 339.811949 70.55111 
L 344.667893 69.625178 
L 349.523837 68.696351 
L 354.379781 67.764696 
L 359.235726 66.830279 
L 364.09167 65.893168 
L 368.947614 64.953429 
L 373.803558 64.011127 
L 378.659502 63.066329 
L 383.515446 62.119099 
L 388.37139 61.169502 
L 393.227334 60.2176 
L 398.083278 59.263457 
L 402.939222 58.307133 
L 407.795166 57.34869 
L 412.65111 56.388185 
L 417.507054 55.425677 
L 422.362998 54.461224 
L 427.218942 53.494879 
L 432.074886 52.526698 
L 436.93083 51.556734 
L 441.786774 50.585038 
L 446.642719 49.61166 
L 451.498663 48.63665 
L 456.354607 47.660056 
L 461.210551 46.681923 
L 466.066495 45.702298 
L 470.922439 44.721223 
L 475.778383 43.738741 
L 480.634327 42.754895 
L 485.490271 41.769723 
L 490.346215 40.783265 
L 495.202159 39.795559 
L 500.058103 38.806641 
L 504.914047 37.816547 
L 509.769991 36.825311 
L 514.625935 35.832967 
L 519.481879 34.839546 
L 524.337823 33.84508 
L 529.193767 32.8496 
L 534.049712 31.853134 
L 534.049712 63.422822 
L 534.049712 63.422822 
L 529.193767 64.113632 
L 524.337823 64.805429 
L 519.481879 65.49824 
L 514.625935 66.192096 
L 509.769991 66.887029 
L 504.914047 67.58307 
L 500.058103 68.280253 
L 495.202159 68.978612 
L 490.346215 69.678183 
L 485.490271 70.379003 
L 480.634327 71.081108 
L 475.778383 71.784539 
L 470.922439 72.489334 
L 466.066495 73.195536 
L 461.210551 73.903188 
L 456.354607 74.612332 
L 451.498663 75.323015 
L 446.642719 76.035282 
L 441.786774 76.749182 
L 436.93083 77.464763 
L 432.074886 78.182075 
L 427.218942 78.901172 
L 422.362998 79.622104 
L 417.507054 80.344927 
L 412.65111 81.069697 
L 407.795166 81.796469 
L 402.939222 82.525302 
L 398.083278 83.256256 
L 393.227334 83.98939 
L 388.37139 84.724765 
L 383.515446 85.462445 
L 378.659502 86.202492 
L 373.803558 86.944971 
L 368.947614 87.689947 
L 364.09167 88.437484 
L 359.235726 89.18765 
L 354.379781 89.940511 
L 349.523837 90.696133 
L 344.667893 91.454583 
L 339.811949 92.215928 
L 334.956005 92.980234 
L 330.100061 93.747568 
L 325.244117 94.517994 
L 320.388173 95.291578 
L 315.532229 96.068382 
L 310.676285 96.848469 
L 305.820341 97.6319 
L 300.964397 98.418732 
L 296.108453 99.209023 
L 291.252509 100.002826 
L 286.396565 100.800195 
L 281.540621 101.601177 
L 276.684677 102.405819 
L 271.828733 103.214163 
L 266.972788 104.02625 
L 262.116844 104.842113 
L 257.2609 105.661786 
L 252.404956 106.485295 
L 247.549012 107.312664 
L 242.693068 108.143912 
L 237.837124 108.979054 
L 232.98118 109.818099 
L 228.125236 110.661054 
L 223.269292 111.507918 
L 218.413348 112.358689 
L 213.557404 113.213357 
L 208.70146 114.07191 
L 203.845516 114.93433 
L 198.989572 115.800596 
L 194.133628 116.67068 
L 189.277684 117.544554 
L 184.42174 118.422182 
L 179.565795 119.303526 
L 174.709851 120.188546 
L 169.853907 121.077196 
L 164.997963 121.969428 
L 160.142019 122.865192 
L 155.286075 123.764433 
L 150.430131 124.667097 
L 145.574187 125.573124 
L 140.718243 126.482455 
L 135.862299 127.395029 
L 131.006355 128.310783 
L 126.150411 129.229652 
L 121.294467 130.151571 
L 116.438523 131.076474 
L 111.582579 132.004296 
L 106.726635 132.93497 
L 101.870691 133.868428 
L 97.014747 134.804604 
L 92.158802 135.743432 
L 87.302858 136.684845 
L 82.446914 137.628777 
L 77.59097 138.575163 
L 72.735026 139.52394 
L 67.879082 140.475042 
L 63.023138 141.428408 
L 58.167194 142.383976 
L 53.31125 143.341685 
z
" style="fill:#808080;fill-opacity:0.5;"/>
   </g>
   <g id="matplotlib.axis_1">
    <g id="xtick_1">
     <g id="line2d_1">
      <defs>
       <path d="M 0 0 
L 0 3.5 
" id="m0e6c23ff45" style="stroke:#000000;stroke-width:0.8;"/>
      </defs>
      <g>
       <use style="stroke:#000000;stroke-width:0.8;" x="53.31125" xlink:href="#m0e6c23ff45" y="191.476875"/>
      </g>
     </g>
     <g id="text_1">
      <!-- −0.2 -->
      <g transform="translate(38.741563 207.595)scale(0.12 -0.12)">
       <defs>
        <path d="M 10.59375 35.5 
L 73.1875 35.5 
L 73.1875 27.203125 
L 10.59375 27.203125 
z
" id="DejaVuSans-8722"/>
        <path d="M 31.78125 66.40625 
Q 24.171875 66.40625 20.328125 58.90625 
Q 16.5 51.421875 16.5 36.375 
Q 16.5 21.390625 20.328125 13.890625 
Q 24.171875 6.390625 31.78125 6.390625 
Q 39.453125 6.390625 43.28125 13.890625 
Q 47.125 21.390625 47.125 36.375 
Q 47.125 51.421875 43.28125 58.90625 
Q 39.453125 66.40625 31.78125 66.40625 
z
M 31.78125 74.21875 
Q 44.046875 74.21875 50.515625 64.515625 
Q 56.984375 54.828125 56.984375 36.375 
Q 56.984375 17.96875 50.515625 8.265625 
Q 44.046875 -1.421875 31.78125 -1.421875 
Q 19.53125 -1.421875 13.0625 8.265625 
Q 6.59375 17.96875 6.59375 36.375 
Q 6.59375 54.828125 13.0625 64.515625 
Q 19.53125 74.21875 31.78125 74.21875 
z
" id="DejaVuSans-48"/>
        <path d="M 10.6875 12.40625 
L 21 12.40625 
L 21 0 
L 10.6875 0 
z
" id="DejaVuSans-46"/>
        <path d="M 19.1875 8.296875 
L 53.609375 8.296875 
L 53.609375 0 
L 7.328125 0 
L 7.328125 8.296875 
Q 12.9375 14.109375 22.625 23.890625 
Q 32.328125 33.6875 34.8125 36.53125 
Q 39.546875 41.84375 41.421875 45.53125 
Q 43.3125 49.21875 43.3125 52.78125 
Q 43.3125 58.59375 39.234375 62.25 
Q 35.15625 65.921875 28.609375 65.921875 
Q 23.96875 65.921875 18.8125 64.3125 
Q 13.671875 62.703125 7.8125 59.421875 
L 7.8125 69.390625 
Q 13.765625 71.78125 18.9375 73 
Q 24.125 74.21875 28.421875 74.21875 
Q 39.75 74.21875 46.484375 68.546875 
Q 53.21875 62.890625 53.21875 53.421875 
Q 53.21875 48.921875 51.53125 44.890625 
Q 49.859375 40.875 45.40625 35.40625 
Q 44.1875 33.984375 37.640625 27.21875 
Q 31.109375 20.453125 19.1875 8.296875 
z
" id="DejaVuSans-50"/>
       </defs>
       <use xlink:href="#DejaVuSans-8722"/>
       <use x="83.789062" xlink:href="#DejaVuSans-48"/>
       <use x="147.412109" xlink:href="#DejaVuSans-46"/>
       <use x="179.199219" xlink:href="#DejaVuSans-50"/>
      </g>
     </g>
    </g>
    <g id="xtick_2">
     <g id="line2d_2">
      <g>
       <use style="stroke:#000000;stroke-width:0.8;" x="121.988173" xlink:href="#m0e6c23ff45" y="191.476875"/>
      </g>
     </g>
     <g id="text_2">
      <!-- 0.0 -->
      <g transform="translate(112.446298 207.595)scale(0.12 -0.12)">
       <use xlink:href="#DejaVuSans-48"/>
       <use x="63.623047" xlink:href="#DejaVuSans-46"/>
       <use x="95.410156" xlink:href="#DejaVuSans-48"/>
      </g>
     </g>
    </g>
    <g id="xtick_3">
     <g id="line2d_3">
      <g>
       <use style="stroke:#000000;stroke-width:0.8;" x="190.665096" xlink:href="#m0e6c23ff45" y="191.476875"/>
      </g>
     </g>
     <g id="text_3">
      <!-- 0.2 -->
      <g transform="translate(181.123221 207.595)scale(0.12 -0.12)">
       <use xlink:href="#DejaVuSans-48"/>
       <use x="63.623047" xlink:href="#DejaVuSans-46"/>
       <use x="95.410156" xlink:href="#DejaVuSans-50"/>
      </g>
     </g>
    </g>
    <g id="xtick_4">
     <g id="line2d_4">
      <g>
       <use style="stroke:#000000;stroke-width:0.8;" x="259.342019" xlink:href="#m0e6c23ff45" y="191.476875"/>
      </g>
     </g>
     <g id="text_4">
      <!-- 0.4 -->
      <g transform="translate(249.800144 207.595)scale(0.12 -0.12)">
       <defs>
        <path d="M 37.796875 64.3125 
L 12.890625 25.390625 
L 37.796875 25.390625 
z
M 35.203125 72.90625 
L 47.609375 72.90625 
L 47.609375 25.390625 
L 58.015625 25.390625 
L 58.015625 17.1875 
L 47.609375 17.1875 
L 47.609375 0 
L 37.796875 0 
L 37.796875 17.1875 
L 4.890625 17.1875 
L 4.890625 26.703125 
z
" id="DejaVuSans-52"/>
       </defs>
       <use xlink:href="#DejaVuSans-48"/>
       <use x="63.623047" xlink:href="#DejaVuSans-46"/>
       <use x="95.410156" xlink:href="#DejaVuSans-52"/>
      </g>
     </g>
    </g>
    <g id="xtick_5">
     <g id="line2d_5">
      <g>
       <use style="stroke:#000000;stroke-width:0.8;" x="328.018942" xlink:href="#m0e6c23ff45" y="191.476875"/>
      </g>
     </g>
     <g id="text_5">
      <!-- 0.6 -->
      <g transform="translate(318.477067 207.595)scale(0.12 -0.12)">
       <defs>
        <path d="M 33.015625 40.375 
Q 26.375 40.375 22.484375 35.828125 
Q 18.609375 31.296875 18.609375 23.390625 
Q 18.609375 15.53125 22.484375 10.953125 
Q 26.375 6.390625 33.015625 6.390625 
Q 39.65625 6.390625 43.53125 10.953125 
Q 47.40625 15.53125 47.40625 23.390625 
Q 47.40625 31.296875 43.53125 35.828125 
Q 39.65625 40.375 33.015625 40.375 
z
M 52.59375 71.296875 
L 52.59375 62.3125 
Q 48.875 64.0625 45.09375 64.984375 
Q 41.3125 65.921875 37.59375 65.921875 
Q 27.828125 65.921875 22.671875 59.328125 
Q 17.53125 52.734375 16.796875 39.40625 
Q 19.671875 43.65625 24.015625 45.921875 
Q 28.375 48.1875 33.59375 48.1875 
Q 44.578125 48.1875 50.953125 41.515625 
Q 57.328125 34.859375 57.328125 23.390625 
Q 57.328125 12.15625 50.6875 5.359375 
Q 44.046875 -1.421875 33.015625 -1.421875 
Q 20.359375 -1.421875 13.671875 8.265625 
Q 6.984375 17.96875 6.984375 36.375 
Q 6.984375 53.65625 15.1875 63.9375 
Q 23.390625 74.21875 37.203125 74.21875 
Q 40.921875 74.21875 44.703125 73.484375 
Q 48.484375 72.75 52.59375 71.296875 
z
" id="DejaVuSans-54"/>
       </defs>
       <use xlink:href="#DejaVuSans-48"/>
       <use x="63.623047" xlink:href="#DejaVuSans-46"/>
       <use x="95.410156" xlink:href="#DejaVuSans-54"/>
      </g>
     </g>
    </g>
    <g id="xtick_6">
     <g id="line2d_6">
      <g>
       <use style="stroke:#000000;stroke-width:0.8;" x="396.695865" xlink:href="#m0e6c23ff45" y="191.476875"/>
      </g>
     </g>
     <g id="text_6">
      <!-- 0.8 -->
      <g transform="translate(387.15399 207.595)scale(0.12 -0.12)">
       <defs>
        <path d="M 31.78125 34.625 
Q 24.75 34.625 20.71875 30.859375 
Q 16.703125 27.09375 16.703125 20.515625 
Q 16.703125 13.921875 20.71875 10.15625 
Q 24.75 6.390625 31.78125 6.390625 
Q 38.8125 6.390625 42.859375 10.171875 
Q 46.921875 13.96875 46.921875 20.515625 
Q 46.921875 27.09375 42.890625 30.859375 
Q 38.875 34.625 31.78125 34.625 
z
M 21.921875 38.8125 
Q 15.578125 40.375 12.03125 44.71875 
Q 8.5 49.078125 8.5 55.328125 
Q 8.5 64.0625 14.71875 69.140625 
Q 20.953125 74.21875 31.78125 74.21875 
Q 42.671875 74.21875 48.875 69.140625 
Q 55.078125 64.0625 55.078125 55.328125 
Q 55.078125 49.078125 51.53125 44.71875 
Q 48 40.375 41.703125 38.8125 
Q 48.828125 37.15625 52.796875 32.3125 
Q 56.78125 27.484375 56.78125 20.515625 
Q 56.78125 9.90625 50.3125 4.234375 
Q 43.84375 -1.421875 31.78125 -1.421875 
Q 19.734375 -1.421875 13.25 4.234375 
Q 6.78125 9.90625 6.78125 20.515625 
Q 6.78125 27.484375 10.78125 32.3125 
Q 14.796875 37.15625 21.921875 38.8125 
z
M 18.3125 54.390625 
Q 18.3125 48.734375 21.84375 45.5625 
Q 25.390625 42.390625 31.78125 42.390625 
Q 38.140625 42.390625 41.71875 45.5625 
Q 45.3125 48.734375 45.3125 54.390625 
Q 45.3125 60.0625 41.71875 63.234375 
Q 38.140625 66.40625 31.78125 66.40625 
Q 25.390625 66.40625 21.84375 63.234375 
Q 18.3125 60.0625 18.3125 54.390625 
z
" id="DejaVuSans-56"/>
       </defs>
       <use xlink:href="#DejaVuSans-48"/>
       <use x="63.623047" xlink:href="#DejaVuSans-46"/>
       <use x="95.410156" xlink:href="#DejaVuSans-56"/>
      </g>
     </g>
    </g>
    <g id="xtick_7">
     <g id="line2d_7">
      <g>
       <use style="stroke:#000000;stroke-width:0.8;" x="465.372788" xlink:href="#m0e6c23ff45" y="191.476875"/>
      </g>
     </g>
     <g id="text_7">
      <!-- 1.0 -->
      <g transform="translate(455.830913 207.595)scale(0.12 -0.12)">
       <defs>
        <path d="M 12.40625 8.296875 
L 28.515625 8.296875 
L 28.515625 63.921875 
L 10.984375 60.40625 
L 10.984375 69.390625 
L 28.421875 72.90625 
L 38.28125 72.90625 
L 38.28125 8.296875 
L 54.390625 8.296875 
L 54.390625 0 
L 12.40625 0 
z
" id="DejaVuSans-49"/>
       </defs>
       <use xlink:href="#DejaVuSans-49"/>
       <use x="63.623047" xlink:href="#DejaVuSans-46"/>
       <use x="95.410156" xlink:href="#DejaVuSans-48"/>
      </g>
     </g>
    </g>
    <g id="text_8">
     <!-- x -->
     <g transform="translate(271.184375 227.767812)scale(0.18 -0.18)">
      <defs>
       <path d="M 54.890625 54.6875 
L 35.109375 28.078125 
L 55.90625 0 
L 45.3125 0 
L 29.390625 21.484375 
L 13.484375 0 
L 2.875 0 
L 24.125 28.609375 
L 4.6875 54.6875 
L 15.28125 54.6875 
L 29.78125 35.203125 
L 44.28125 54.6875 
z
" id="DejaVuSans-120"/>
      </defs>
      <use xlink:href="#DejaVuSans-120"/>
     </g>
    </g>
   </g>
   <g id="matplotlib.axis_2">
    <g id="ytick_1">
     <g id="line2d_8">
      <defs>
       <path d="M 0 0 
L -3.5 0 
" id="m9e40e05e5f" style="stroke:#000000;stroke-width:0.8;"/>
      </defs>
      <g>
       <use style="stroke:#000000;stroke-width:0.8;" x="53.31125" xlink:href="#m9e40e05e5f" y="191.476875"/>
      </g>
     </g>
     <g id="text_9">
      <!-- −1 -->
      <g transform="translate(28.620625 196.035937)scale(0.12 -0.12)">
       <use xlink:href="#DejaVuSans-8722"/>
       <use x="83.789062" xlink:href="#DejaVuSans-49"/>
      </g>
     </g>
    </g>
    <g id="ytick_2">
     <g id="line2d_9">
      <g>
       <use style="stroke:#000000;stroke-width:0.8;" x="53.31125" xlink:href="#m9e40e05e5f" y="137.116875"/>
      </g>
     </g>
     <g id="text_10">
      <!-- 0 -->
      <g transform="translate(38.67625 141.675938)scale(0.12 -0.12)">
       <use xlink:href="#DejaVuSans-48"/>
      </g>
     </g>
    </g>
    <g id="ytick_3">
     <g id="line2d_10">
      <g>
       <use style="stroke:#000000;stroke-width:0.8;" x="53.31125" xlink:href="#m9e40e05e5f" y="82.756875"/>
      </g>
     </g>
     <g id="text_11">
      <!-- 1 -->
      <g transform="translate(38.67625 87.315938)scale(0.12 -0.12)">
       <use xlink:href="#DejaVuSans-49"/>
      </g>
     </g>
    </g>
    <g id="ytick_4">
     <g id="line2d_11">
      <g>
       <use style="stroke:#000000;stroke-width:0.8;" x="53.31125" xlink:href="#m9e40e05e5f" y="28.396875"/>
      </g>
     </g>
     <g id="text_12">
      <!-- 2 -->
      <g transform="translate(38.67625 32.955938)scale(0.12 -0.12)">
       <use xlink:href="#DejaVuSans-50"/>
      </g>
     </g>
    </g>
    <g id="text_13">
     <!-- y -->
     <g transform="translate(20.877188 115.26375)rotate(-90)scale(0.18 -0.18)">
      <defs>
       <path d="M 32.171875 -5.078125 
Q 28.375 -14.84375 24.75 -17.8125 
Q 21.140625 -20.796875 15.09375 -20.796875 
L 7.90625 -20.796875 
L 7.90625 -13.28125 
L 13.1875 -13.28125 
Q 16.890625 -13.28125 18.9375 -11.515625 
Q 21 -9.765625 23.484375 -3.21875 
L 25.09375 0.875 
L 2.984375 54.6875 
L 12.5 54.6875 
L 29.59375 11.921875 
L 46.6875 54.6875 
L 56.203125 54.6875 
z
" id="DejaVuSans-121"/>
      </defs>
      <use xlink:href="#DejaVuSans-121"/>
     </g>
    </g>
   </g>
   <g id="line2d_12">
    <path clip-path="url(#p52cfd31b39)" d="M 53.31125 131.158192 
L 58.167194 130.314554 
L 63.023138 129.470915 
L 67.879082 128.627277 
L 72.735026 127.783638 
L 77.59097 126.94 
L 82.446914 126.096361 
L 87.302858 125.252723 
L 92.158802 124.409084 
L 97.014747 123.565446 
L 101.870691 122.721807 
L 106.726635 121.878169 
L 111.582579 121.03453 
L 116.438523 120.190891 
L 121.294467 119.347253 
L 126.150411 118.503614 
L 131.006355 117.659976 
L 135.862299 116.816337 
L 140.718243 115.972699 
L 145.574187 115.12906 
L 150.430131 114.285422 
L 155.286075 113.441783 
L 160.142019 112.598145 
L 164.997963 111.754506 
L 169.853907 110.910868 
L 174.709851 110.067229 
L 179.565795 109.223591 
L 184.42174 108.379952 
L 189.277684 107.536313 
L 194.133628 106.692675 
L 198.989572 105.849036 
L 203.845516 105.005398 
L 208.70146 104.161759 
L 213.557404 103.318121 
L 218.413348 102.474482 
L 223.269292 101.630844 
L 228.125236 100.787205 
L 232.98118 99.943567 
L 237.837124 99.099928 
L 242.693068 98.25629 
L 247.549012 97.412651 
L 252.404956 96.569013 
L 257.2609 95.725374 
L 262.116844 94.881735 
L 266.972788 94.038097 
L 271.828733 93.194458 
L 276.684677 92.35082 
L 281.540621 91.507181 
L 286.396565 90.663543 
L 291.252509 89.819904 
L 296.108453 88.976266 
L 300.964397 88.132627 
L 305.820341 87.288989 
L 310.676285 86.44535 
L 315.532229 85.601712 
L 320.388173 84.758073 
L 325.244117 83.914435 
L 330.100061 83.070796 
L 334.956005 82.227157 
L 339.811949 81.383519 
L 344.667893 80.53988 
L 349.523837 79.696242 
L 354.379781 78.852603 
L 359.235726 78.008965 
L 364.09167 77.165326 
L 368.947614 76.321688 
L 373.803558 75.478049 
L 378.659502 74.634411 
L 383.515446 73.790772 
L 388.37139 72.947134 
L 393.227334 72.103495 
L 398.083278 71.259856 
L 402.939222 70.416218 
L 407.795166 69.572579 
L 412.65111 68.728941 
L 417.507054 67.885302 
L 422.362998 67.041664 
L 427.218942 66.198025 
L 432.074886 65.354387 
L 436.93083 64.510748 
L 441.786774 63.66711 
L 446.642719 62.823471 
L 451.498663 61.979833 
L 456.354607 61.136194 
L 461.210551 60.292556 
L 466.066495 59.448917 
L 470.922439 58.605278 
L 475.778383 57.76164 
L 480.634327 56.918001 
L 485.490271 56.074363 
L 490.346215 55.230724 
L 495.202159 54.387086 
L 500.058103 53.543447 
L 504.914047 52.699809 
L 507.91125 52.179095 
" style="fill:none;stroke:#000000;stroke-linecap:square;stroke-width:1.5;"/>
   </g>
   <g id="patch_3">
    <path d="M 53.31125 191.476875 
L 53.31125 28.396875 
" style="fill:none;stroke:#000000;stroke-linecap:square;stroke-linejoin:miter;stroke-width:0.8;"/>
   </g>
   <g id="patch_4">
    <path d="M 499.71125 191.476875 
L 499.71125 28.396875 
" style="fill:none;stroke:#000000;stroke-linecap:square;stroke-linejoin:miter;stroke-width:0.8;"/>
   </g>
   <g id="patch_5">
    <path d="M 53.31125 191.476875 
L 499.71125 191.476875 
" style="fill:none;stroke:#000000;stroke-linecap:square;stroke-linejoin:miter;stroke-width:0.8;"/>
   </g>
   <g id="patch_6">
    <path d="M 53.31125 28.396875 
L 499.71125 28.396875 
" style="fill:none;stroke:#000000;stroke-linecap:square;stroke-linejoin:miter;stroke-width:0.8;"/>
   </g>
   <g id="PathCollection_1">
    <defs>
     <path d="M -3 3 
L 3 -3 
M -3 -3 
L 3 3 
" id="m07dbaf67c4" style="stroke:#ff0000;stroke-width:1.5;"/>
    </defs>
    <g clip-path="url(#p52cfd31b39)">
     <use style="fill:#ff0000;stroke:#ff0000;stroke-width:1.5;" x="240.64841" xlink:href="#m07dbaf67c4" y="100.354977"/>
     <use style="fill:#ff0000;stroke:#ff0000;stroke-width:1.5;" x="225.804527" xlink:href="#m07dbaf67c4" y="102.442694"/>
     <use style="fill:#ff0000;stroke:#ff0000;stroke-width:1.5;" x="122.027448" xlink:href="#m07dbaf67c4" y="119.067118"/>
     <use style="fill:#ff0000;stroke:#ff0000;stroke-width:1.5;" x="185.947064" xlink:href="#m07dbaf67c4" y="110.411409"/>
     <use style="fill:#ff0000;stroke:#ff0000;stroke-width:1.5;" x="153.695826" xlink:href="#m07dbaf67c4" y="125.984369"/>
     <use style="fill:#ff0000;stroke:#ff0000;stroke-width:1.5;" x="258.23202" xlink:href="#m07dbaf67c4" y="88.763768"/>
     <use style="fill:#ff0000;stroke:#ff0000;stroke-width:1.5;" x="307.00955" xlink:href="#m07dbaf67c4" y="91.639791"/>
     <use style="fill:#ff0000;stroke:#ff0000;stroke-width:1.5;" x="172.381888" xlink:href="#m07dbaf67c4" y="103.287676"/>
     <use style="fill:#ff0000;stroke:#ff0000;stroke-width:1.5;" x="265.187114" xlink:href="#m07dbaf67c4" y="84.120899"/>
     <use style="fill:#ff0000;stroke:#ff0000;stroke-width:1.5;" x="369.336522" xlink:href="#m07dbaf67c4" y="77.958588"/>
    </g>
   </g>
   <g id="text_14">
    <!-- Bayesian regression predictive -->
    <g transform="translate(122.778437 22.396875)scale(0.2 -0.2)">
     <defs>
      <path d="M 19.671875 34.8125 
L 19.671875 8.109375 
L 35.5 8.109375 
Q 43.453125 8.109375 47.28125 11.40625 
Q 51.125 14.703125 51.125 21.484375 
Q 51.125 28.328125 47.28125 31.5625 
Q 43.453125 34.8125 35.5 34.8125 
z
M 19.671875 64.796875 
L 19.671875 42.828125 
L 34.28125 42.828125 
Q 41.5 42.828125 45.03125 45.53125 
Q 48.578125 48.25 48.578125 53.8125 
Q 48.578125 59.328125 45.03125 62.0625 
Q 41.5 64.796875 34.28125 64.796875 
z
M 9.8125 72.90625 
L 35.015625 72.90625 
Q 46.296875 72.90625 52.390625 68.21875 
Q 58.5 63.53125 58.5 54.890625 
Q 58.5 48.1875 55.375 44.234375 
Q 52.25 40.28125 46.1875 39.3125 
Q 53.46875 37.75 57.5 32.78125 
Q 61.53125 27.828125 61.53125 20.40625 
Q 61.53125 10.640625 54.890625 5.3125 
Q 48.25 0 35.984375 0 
L 9.8125 0 
z
" id="DejaVuSans-66"/>
      <path d="M 34.28125 27.484375 
Q 23.390625 27.484375 19.1875 25 
Q 14.984375 22.515625 14.984375 16.5 
Q 14.984375 11.71875 18.140625 8.90625 
Q 21.296875 6.109375 26.703125 6.109375 
Q 34.1875 6.109375 38.703125 11.40625 
Q 43.21875 16.703125 43.21875 25.484375 
L 43.21875 27.484375 
z
M 52.203125 31.203125 
L 52.203125 0 
L 43.21875 0 
L 43.21875 8.296875 
Q 40.140625 3.328125 35.546875 0.953125 
Q 30.953125 -1.421875 24.3125 -1.421875 
Q 15.921875 -1.421875 10.953125 3.296875 
Q 6 8.015625 6 15.921875 
Q 6 25.140625 12.171875 29.828125 
Q 18.359375 34.515625 30.609375 34.515625 
L 43.21875 34.515625 
L 43.21875 35.40625 
Q 43.21875 41.609375 39.140625 45 
Q 35.0625 48.390625 27.6875 48.390625 
Q 23 48.390625 18.546875 47.265625 
Q 14.109375 46.140625 10.015625 43.890625 
L 10.015625 52.203125 
Q 14.9375 54.109375 19.578125 55.046875 
Q 24.21875 56 28.609375 56 
Q 40.484375 56 46.34375 49.84375 
Q 52.203125 43.703125 52.203125 31.203125 
z
" id="DejaVuSans-97"/>
      <path d="M 56.203125 29.59375 
L 56.203125 25.203125 
L 14.890625 25.203125 
Q 15.484375 15.921875 20.484375 11.0625 
Q 25.484375 6.203125 34.421875 6.203125 
Q 39.59375 6.203125 44.453125 7.46875 
Q 49.3125 8.734375 54.109375 11.28125 
L 54.109375 2.78125 
Q 49.265625 0.734375 44.1875 -0.34375 
Q 39.109375 -1.421875 33.890625 -1.421875 
Q 20.796875 -1.421875 13.15625 6.1875 
Q 5.515625 13.8125 5.515625 26.8125 
Q 5.515625 40.234375 12.765625 48.109375 
Q 20.015625 56 32.328125 56 
Q 43.359375 56 49.78125 48.890625 
Q 56.203125 41.796875 56.203125 29.59375 
z
M 47.21875 32.234375 
Q 47.125 39.59375 43.09375 43.984375 
Q 39.0625 48.390625 32.421875 48.390625 
Q 24.90625 48.390625 20.390625 44.140625 
Q 15.875 39.890625 15.1875 32.171875 
z
" id="DejaVuSans-101"/>
      <path d="M 44.28125 53.078125 
L 44.28125 44.578125 
Q 40.484375 46.53125 36.375 47.5 
Q 32.28125 48.484375 27.875 48.484375 
Q 21.1875 48.484375 17.84375 46.4375 
Q 14.5 44.390625 14.5 40.28125 
Q 14.5 37.15625 16.890625 35.375 
Q 19.28125 33.59375 26.515625 31.984375 
L 29.59375 31.296875 
Q 39.15625 29.25 43.1875 25.515625 
Q 47.21875 21.78125 47.21875 15.09375 
Q 47.21875 7.46875 41.1875 3.015625 
Q 35.15625 -1.421875 24.609375 -1.421875 
Q 20.21875 -1.421875 15.453125 -0.5625 
Q 10.6875 0.296875 5.421875 2 
L 5.421875 11.28125 
Q 10.40625 8.6875 15.234375 7.390625 
Q 20.0625 6.109375 24.8125 6.109375 
Q 31.15625 6.109375 34.5625 8.28125 
Q 37.984375 10.453125 37.984375 14.40625 
Q 37.984375 18.0625 35.515625 20.015625 
Q 33.0625 21.96875 24.703125 23.78125 
L 21.578125 24.515625 
Q 13.234375 26.265625 9.515625 29.90625 
Q 5.8125 33.546875 5.8125 39.890625 
Q 5.8125 47.609375 11.28125 51.796875 
Q 16.75 56 26.8125 56 
Q 31.78125 56 36.171875 55.265625 
Q 40.578125 54.546875 44.28125 53.078125 
z
" id="DejaVuSans-115"/>
      <path d="M 9.421875 54.6875 
L 18.40625 54.6875 
L 18.40625 0 
L 9.421875 0 
z
M 9.421875 75.984375 
L 18.40625 75.984375 
L 18.40625 64.59375 
L 9.421875 64.59375 
z
" id="DejaVuSans-105"/>
      <path d="M 54.890625 33.015625 
L 54.890625 0 
L 45.90625 0 
L 45.90625 32.71875 
Q 45.90625 40.484375 42.875 44.328125 
Q 39.84375 48.1875 33.796875 48.1875 
Q 26.515625 48.1875 22.3125 43.546875 
Q 18.109375 38.921875 18.109375 30.90625 
L 18.109375 0 
L 9.078125 0 
L 9.078125 54.6875 
L 18.109375 54.6875 
L 18.109375 46.1875 
Q 21.34375 51.125 25.703125 53.5625 
Q 30.078125 56 35.796875 56 
Q 45.21875 56 50.046875 50.171875 
Q 54.890625 44.34375 54.890625 33.015625 
z
" id="DejaVuSans-110"/>
      <path id="DejaVuSans-32"/>
      <path d="M 41.109375 46.296875 
Q 39.59375 47.171875 37.8125 47.578125 
Q 36.03125 48 33.890625 48 
Q 26.265625 48 22.1875 43.046875 
Q 18.109375 38.09375 18.109375 28.8125 
L 18.109375 0 
L 9.078125 0 
L 9.078125 54.6875 
L 18.109375 54.6875 
L 18.109375 46.1875 
Q 20.953125 51.171875 25.484375 53.578125 
Q 30.03125 56 36.53125 56 
Q 37.453125 56 38.578125 55.875 
Q 39.703125 55.765625 41.0625 55.515625 
z
" id="DejaVuSans-114"/>
      <path d="M 45.40625 27.984375 
Q 45.40625 37.75 41.375 43.109375 
Q 37.359375 48.484375 30.078125 48.484375 
Q 22.859375 48.484375 18.828125 43.109375 
Q 14.796875 37.75 14.796875 27.984375 
Q 14.796875 18.265625 18.828125 12.890625 
Q 22.859375 7.515625 30.078125 7.515625 
Q 37.359375 7.515625 41.375 12.890625 
Q 45.40625 18.265625 45.40625 27.984375 
z
M 54.390625 6.78125 
Q 54.390625 -7.171875 48.1875 -13.984375 
Q 42 -20.796875 29.203125 -20.796875 
Q 24.46875 -20.796875 20.265625 -20.09375 
Q 16.0625 -19.390625 12.109375 -17.921875 
L 12.109375 -9.1875 
Q 16.0625 -11.328125 19.921875 -12.34375 
Q 23.78125 -13.375 27.78125 -13.375 
Q 36.625 -13.375 41.015625 -8.765625 
Q 45.40625 -4.15625 45.40625 5.171875 
L 45.40625 9.625 
Q 42.625 4.78125 38.28125 2.390625 
Q 33.9375 0 27.875 0 
Q 17.828125 0 11.671875 7.65625 
Q 5.515625 15.328125 5.515625 27.984375 
Q 5.515625 40.671875 11.671875 48.328125 
Q 17.828125 56 27.875 56 
Q 33.9375 56 38.28125 53.609375 
Q 42.625 51.21875 45.40625 46.390625 
L 45.40625 54.6875 
L 54.390625 54.6875 
z
" id="DejaVuSans-103"/>
      <path d="M 30.609375 48.390625 
Q 23.390625 48.390625 19.1875 42.75 
Q 14.984375 37.109375 14.984375 27.296875 
Q 14.984375 17.484375 19.15625 11.84375 
Q 23.34375 6.203125 30.609375 6.203125 
Q 37.796875 6.203125 41.984375 11.859375 
Q 46.1875 17.53125 46.1875 27.296875 
Q 46.1875 37.015625 41.984375 42.703125 
Q 37.796875 48.390625 30.609375 48.390625 
z
M 30.609375 56 
Q 42.328125 56 49.015625 48.375 
Q 55.71875 40.765625 55.71875 27.296875 
Q 55.71875 13.875 49.015625 6.21875 
Q 42.328125 -1.421875 30.609375 -1.421875 
Q 18.84375 -1.421875 12.171875 6.21875 
Q 5.515625 13.875 5.515625 27.296875 
Q 5.515625 40.765625 12.171875 48.375 
Q 18.84375 56 30.609375 56 
z
" id="DejaVuSans-111"/>
      <path d="M 18.109375 8.203125 
L 18.109375 -20.796875 
L 9.078125 -20.796875 
L 9.078125 54.6875 
L 18.109375 54.6875 
L 18.109375 46.390625 
Q 20.953125 51.265625 25.265625 53.625 
Q 29.59375 56 35.59375 56 
Q 45.5625 56 51.78125 48.09375 
Q 58.015625 40.1875 58.015625 27.296875 
Q 58.015625 14.40625 51.78125 6.484375 
Q 45.5625 -1.421875 35.59375 -1.421875 
Q 29.59375 -1.421875 25.265625 0.953125 
Q 20.953125 3.328125 18.109375 8.203125 
z
M 48.6875 27.296875 
Q 48.6875 37.203125 44.609375 42.84375 
Q 40.53125 48.484375 33.40625 48.484375 
Q 26.265625 48.484375 22.1875 42.84375 
Q 18.109375 37.203125 18.109375 27.296875 
Q 18.109375 17.390625 22.1875 11.75 
Q 26.265625 6.109375 33.40625 6.109375 
Q 40.53125 6.109375 44.609375 11.75 
Q 48.6875 17.390625 48.6875 27.296875 
z
" id="DejaVuSans-112"/>
      <path d="M 45.40625 46.390625 
L 45.40625 75.984375 
L 54.390625 75.984375 
L 54.390625 0 
L 45.40625 0 
L 45.40625 8.203125 
Q 42.578125 3.328125 38.25 0.953125 
Q 33.9375 -1.421875 27.875 -1.421875 
Q 17.96875 -1.421875 11.734375 6.484375 
Q 5.515625 14.40625 5.515625 27.296875 
Q 5.515625 40.1875 11.734375 48.09375 
Q 17.96875 56 27.875 56 
Q 33.9375 56 38.25 53.625 
Q 42.578125 51.265625 45.40625 46.390625 
z
M 14.796875 27.296875 
Q 14.796875 17.390625 18.875 11.75 
Q 22.953125 6.109375 30.078125 6.109375 
Q 37.203125 6.109375 41.296875 11.75 
Q 45.40625 17.390625 45.40625 27.296875 
Q 45.40625 37.203125 41.296875 42.84375 
Q 37.203125 48.484375 30.078125 48.484375 
Q 22.953125 48.484375 18.875 42.84375 
Q 14.796875 37.203125 14.796875 27.296875 
z
" id="DejaVuSans-100"/>
      <path d="M 48.78125 52.59375 
L 48.78125 44.1875 
Q 44.96875 46.296875 41.140625 47.34375 
Q 37.3125 48.390625 33.40625 48.390625 
Q 24.65625 48.390625 19.8125 42.84375 
Q 14.984375 37.3125 14.984375 27.296875 
Q 14.984375 17.28125 19.8125 11.734375 
Q 24.65625 6.203125 33.40625 6.203125 
Q 37.3125 6.203125 41.140625 7.25 
Q 44.96875 8.296875 48.78125 10.40625 
L 48.78125 2.09375 
Q 45.015625 0.34375 40.984375 -0.53125 
Q 36.96875 -1.421875 32.421875 -1.421875 
Q 20.0625 -1.421875 12.78125 6.34375 
Q 5.515625 14.109375 5.515625 27.296875 
Q 5.515625 40.671875 12.859375 48.328125 
Q 20.21875 56 33.015625 56 
Q 37.15625 56 41.109375 55.140625 
Q 45.0625 54.296875 48.78125 52.59375 
z
" id="DejaVuSans-99"/>
      <path d="M 18.3125 70.21875 
L 18.3125 54.6875 
L 36.8125 54.6875 
L 36.8125 47.703125 
L 18.3125 47.703125 
L 18.3125 18.015625 
Q 18.3125 11.328125 20.140625 9.421875 
Q 21.96875 7.515625 27.59375 7.515625 
L 36.8125 7.515625 
L 36.8125 0 
L 27.59375 0 
Q 17.1875 0 13.234375 3.875 
Q 9.28125 7.765625 9.28125 18.015625 
L 9.28125 47.703125 
L 2.6875 47.703125 
L 2.6875 54.6875 
L 9.28125 54.6875 
L 9.28125 70.21875 
z
" id="DejaVuSans-116"/>
      <path d="M 2.984375 54.6875 
L 12.5 54.6875 
L 29.59375 8.796875 
L 46.6875 54.6875 
L 56.203125 54.6875 
L 35.6875 0 
L 23.484375 0 
z
" id="DejaVuSans-118"/>
     </defs>
     <use xlink:href="#DejaVuSans-66"/>
     <use x="68.603516" xlink:href="#DejaVuSans-97"/>
     <use x="129.882812" xlink:href="#DejaVuSans-121"/>
     <use x="189.0625" xlink:href="#DejaVuSans-101"/>
     <use x="250.585938" xlink:href="#DejaVuSans-115"/>
     <use x="302.685547" xlink:href="#DejaVuSans-105"/>
     <use x="330.46875" xlink:href="#DejaVuSans-97"/>
     <use x="391.748047" xlink:href="#DejaVuSans-110"/>
     <use x="455.126953" xlink:href="#DejaVuSans-32"/>
     <use x="486.914062" xlink:href="#DejaVuSans-114"/>
     <use x="525.777344" xlink:href="#DejaVuSans-101"/>
     <use x="587.300781" xlink:href="#DejaVuSans-103"/>
     <use x="650.777344" xlink:href="#DejaVuSans-114"/>
     <use x="689.640625" xlink:href="#DejaVuSans-101"/>
     <use x="751.164062" xlink:href="#DejaVuSans-115"/>
     <use x="803.263672" xlink:href="#DejaVuSans-115"/>
     <use x="855.363281" xlink:href="#DejaVuSans-105"/>
     <use x="883.146484" xlink:href="#DejaVuSans-111"/>
     <use x="944.328125" xlink:href="#DejaVuSans-110"/>
     <use x="1007.707031" xlink:href="#DejaVuSans-32"/>
     <use x="1039.494141" xlink:href="#DejaVuSans-112"/>
     <use x="1102.970703" xlink:href="#DejaVuSans-114"/>
     <use x="1141.833984" xlink:href="#DejaVuSans-101"/>
     <use x="1203.357422" xlink:href="#DejaVuSans-100"/>
     <use x="1266.833984" xlink:href="#DejaVuSans-105"/>
     <use x="1294.617188" xlink:href="#DejaVuSans-99"/>
     <use x="1349.597656" xlink:href="#DejaVuSans-116"/>
     <use x="1388.806641" xlink:href="#DejaVuSans-105"/>
     <use x="1416.589844" xlink:href="#DejaVuSans-118"/>
     <use x="1475.769531" xlink:href="#DejaVuSans-101"/>
    </g>
   </g>
  </g>
 </g>
 <defs>
  <clipPath id="p52cfd31b39">
   <rect height="163.08" width="446.4" x="53.31125" y="28.396875"/>
  </clipPath>
 </defs>
</svg>
