<?xml version="1.0" encoding="utf-8" standalone="no"?>
<!DOCTYPE svg PUBLIC "-//W3C//DTD SVG 1.1//EN"
  "http://www.w3.org/Graphics/SVG/1.1/DTD/svg11.dtd">
<!-- Created with matplotlib (http://matplotlib.org/) -->
<svg height="278.949818pt" version="1.1" viewBox="0 0 425.08 278.949818" width="425.08pt" xmlns="http://www.w3.org/2000/svg" xmlns:xlink="http://www.w3.org/1999/xlink">
 <defs>
  <style type="text/css">
*{stroke-linecap:butt;stroke-linejoin:round;}
  </style>
 </defs>
 <g id="figure_1">
  <g id="patch_1">
   <path d="M 0 278.949818 
L 425.08 278.949818 
L 425.08 0 
L 0 0 
z
" style="fill:none;"/>
  </g>
  <g id="axes_1">
   <g id="patch_2">
    <path d="M 37.105 253.136068 
L 414.38 253.136068 
L 414.38 11.52918 
L 37.105 11.52918 
z
" style="fill:#ffffff;"/>
   </g>
   <g id="PathCollection_1">
    <defs>
     <path d="M -3 3 
L 3 -3 
M -3 -3 
L 3 3 
" id="m3744905c08" style="stroke:#ff0000;stroke-width:1.5;"/>
    </defs>
    <g clip-path="url(#pe7402a4e0d)">
     <use style="fill:#ff0000;stroke:#ff0000;stroke-width:1.5;" x="199.654564" xlink:href="#m3744905c08" y="88.989464"/>
     <use style="fill:#ff0000;stroke:#ff0000;stroke-width:1.5;" x="295.011603" xlink:href="#m3744905c08" y="154.826846"/>
     <use style="fill:#ff0000;stroke:#ff0000;stroke-width:1.5;" x="68.580542" xlink:href="#m3744905c08" y="114.865507"/>
     <use style="fill:#ff0000;stroke:#ff0000;stroke-width:1.5;" x="163.596684" xlink:href="#m3744905c08" y="131.981539"/>
     <use style="fill:#ff0000;stroke:#ff0000;stroke-width:1.5;" x="114.684024" xlink:href="#m3744905c08" y="122.937018"/>
     <use style="fill:#ff0000;stroke:#ff0000;stroke-width:1.5;" x="97.575453" xlink:href="#m3744905c08" y="120.122687"/>
     <use style="fill:#ff0000;stroke:#ff0000;stroke-width:1.5;" x="109.307495" xlink:href="#m3744905c08" y="-1"/>
     <use style="fill:#ff0000;stroke:#ff0000;stroke-width:1.5;" x="156.048067" xlink:href="#m3744905c08" y="-1"/>
     <use style="fill:#ff0000;stroke:#ff0000;stroke-width:1.5;" x="177.187436" xlink:href="#m3744905c08" y="133.189879"/>
     <use style="fill:#ff0000;stroke:#ff0000;stroke-width:1.5;" x="193.286624" xlink:href="#m3744905c08" y="136.771919"/>
     <use style="fill:#ff0000;stroke:#ff0000;stroke-width:1.5;" x="237.946319" xlink:href="#m3744905c08" y="145.917091"/>
    </g>
   </g>
   <g id="matplotlib.axis_1">
    <g id="xtick_1">
     <g id="line2d_1">
      <defs>
       <path d="M 0 0 
L 0 3.5 
" id="madd9d69cf3" style="stroke:#000000;stroke-width:0.8;"/>
      </defs>
      <g>
       <use style="stroke:#000000;stroke-width:0.8;" x="68.544583" xlink:href="#madd9d69cf3" y="253.136068"/>
      </g>
     </g>
     <g id="text_1">
      <!-- 0.0 -->
      <defs>
       <path d="M 31.78125 66.40625 
Q 24.171875 66.40625 20.328125 58.90625 
Q 16.5 51.421875 16.5 36.375 
Q 16.5 21.390625 20.328125 13.890625 
Q 24.171875 6.390625 31.78125 6.390625 
Q 39.453125 6.390625 43.28125 13.890625 
Q 47.125 21.390625 47.125 36.375 
Q 47.125 51.421875 43.28125 58.90625 
Q 39.453125 66.40625 31.78125 66.40625 
z
M 31.78125 74.21875 
Q 44.046875 74.21875 50.515625 64.515625 
Q 56.984375 54.828125 56.984375 36.375 
Q 56.984375 17.96875 50.515625 8.265625 
Q 44.046875 -1.421875 31.78125 -1.421875 
Q 19.53125 -1.421875 13.0625 8.265625 
Q 6.59375 17.96875 6.59375 36.375 
Q 6.59375 54.828125 13.0625 64.515625 
Q 19.53125 74.21875 31.78125 74.21875 
z
" id="DejaVuSans-30"/>
       <path d="M 10.6875 12.40625 
L 21 12.40625 
L 21 0 
L 10.6875 0 
z
" id="DejaVuSans-2e"/>
      </defs>
      <g transform="translate(59.002708 269.254193)scale(0.12 -0.12)">
       <use xlink:href="#DejaVuSans-30"/>
       <use x="63.623047" xlink:href="#DejaVuSans-2e"/>
       <use x="95.410156" xlink:href="#DejaVuSans-30"/>
      </g>
     </g>
    </g>
    <g id="xtick_2">
     <g id="line2d_2">
      <g>
       <use style="stroke:#000000;stroke-width:0.8;" x="131.42375" xlink:href="#madd9d69cf3" y="253.136068"/>
      </g>
     </g>
     <g id="text_2">
      <!-- 0.2 -->
      <defs>
       <path d="M 19.1875 8.296875 
L 53.609375 8.296875 
L 53.609375 0 
L 7.328125 0 
L 7.328125 8.296875 
Q 12.9375 14.109375 22.625 23.890625 
Q 32.328125 33.6875 34.8125 36.53125 
Q 39.546875 41.84375 41.421875 45.53125 
Q 43.3125 49.21875 43.3125 52.78125 
Q 43.3125 58.59375 39.234375 62.25 
Q 35.15625 65.921875 28.609375 65.921875 
Q 23.96875 65.921875 18.8125 64.3125 
Q 13.671875 62.703125 7.8125 59.421875 
L 7.8125 69.390625 
Q 13.765625 71.78125 18.9375 73 
Q 24.125 74.21875 28.421875 74.21875 
Q 39.75 74.21875 46.484375 68.546875 
Q 53.21875 62.890625 53.21875 53.421875 
Q 53.21875 48.921875 51.53125 44.890625 
Q 49.859375 40.875 45.40625 35.40625 
Q 44.1875 33.984375 37.640625 27.21875 
Q 31.109375 20.453125 19.1875 8.296875 
z
" id="DejaVuSans-32"/>
      </defs>
      <g transform="translate(121.881875 269.254193)scale(0.12 -0.12)">
       <use xlink:href="#DejaVuSans-30"/>
       <use x="63.623047" xlink:href="#DejaVuSans-2e"/>
       <use x="95.410156" xlink:href="#DejaVuSans-32"/>
      </g>
     </g>
    </g>
    <g id="xtick_3">
     <g id="line2d_3">
      <g>
       <use style="stroke:#000000;stroke-width:0.8;" x="194.302917" xlink:href="#madd9d69cf3" y="253.136068"/>
      </g>
     </g>
     <g id="text_3">
      <!-- 0.4 -->
      <defs>
       <path d="M 37.796875 64.3125 
L 12.890625 25.390625 
L 37.796875 25.390625 
z
M 35.203125 72.90625 
L 47.609375 72.90625 
L 47.609375 25.390625 
L 58.015625 25.390625 
L 58.015625 17.1875 
L 47.609375 17.1875 
L 47.609375 0 
L 37.796875 0 
L 37.796875 17.1875 
L 4.890625 17.1875 
L 4.890625 26.703125 
z
" id="DejaVuSans-34"/>
      </defs>
      <g transform="translate(184.761042 269.254193)scale(0.12 -0.12)">
       <use xlink:href="#DejaVuSans-30"/>
       <use x="63.623047" xlink:href="#DejaVuSans-2e"/>
       <use x="95.410156" xlink:href="#DejaVuSans-34"/>
      </g>
     </g>
    </g>
    <g id="xtick_4">
     <g id="line2d_4">
      <g>
       <use style="stroke:#000000;stroke-width:0.8;" x="257.182083" xlink:href="#madd9d69cf3" y="253.136068"/>
      </g>
     </g>
     <g id="text_4">
      <!-- 0.6 -->
      <defs>
       <path d="M 33.015625 40.375 
Q 26.375 40.375 22.484375 35.828125 
Q 18.609375 31.296875 18.609375 23.390625 
Q 18.609375 15.53125 22.484375 10.953125 
Q 26.375 6.390625 33.015625 6.390625 
Q 39.65625 6.390625 43.53125 10.953125 
Q 47.40625 15.53125 47.40625 23.390625 
Q 47.40625 31.296875 43.53125 35.828125 
Q 39.65625 40.375 33.015625 40.375 
z
M 52.59375 71.296875 
L 52.59375 62.3125 
Q 48.875 64.0625 45.09375 64.984375 
Q 41.3125 65.921875 37.59375 65.921875 
Q 27.828125 65.921875 22.671875 59.328125 
Q 17.53125 52.734375 16.796875 39.40625 
Q 19.671875 43.65625 24.015625 45.921875 
Q 28.375 48.1875 33.59375 48.1875 
Q 44.578125 48.1875 50.953125 41.515625 
Q 57.328125 34.859375 57.328125 23.390625 
Q 57.328125 12.15625 50.6875 5.359375 
Q 44.046875 -1.421875 33.015625 -1.421875 
Q 20.359375 -1.421875 13.671875 8.265625 
Q 6.984375 17.96875 6.984375 36.375 
Q 6.984375 53.65625 15.1875 63.9375 
Q 23.390625 74.21875 37.203125 74.21875 
Q 40.921875 74.21875 44.703125 73.484375 
Q 48.484375 72.75 52.59375 71.296875 
z
" id="DejaVuSans-36"/>
      </defs>
      <g transform="translate(247.640208 269.254193)scale(0.12 -0.12)">
       <use xlink:href="#DejaVuSans-30"/>
       <use x="63.623047" xlink:href="#DejaVuSans-2e"/>
       <use x="95.410156" xlink:href="#DejaVuSans-36"/>
      </g>
     </g>
    </g>
    <g id="xtick_5">
     <g id="line2d_5">
      <g>
       <use style="stroke:#000000;stroke-width:0.8;" x="320.06125" xlink:href="#madd9d69cf3" y="253.136068"/>
      </g>
     </g>
     <g id="text_5">
      <!-- 0.8 -->
      <defs>
       <path d="M 31.78125 34.625 
Q 24.75 34.625 20.71875 30.859375 
Q 16.703125 27.09375 16.703125 20.515625 
Q 16.703125 13.921875 20.71875 10.15625 
Q 24.75 6.390625 31.78125 6.390625 
Q 38.8125 6.390625 42.859375 10.171875 
Q 46.921875 13.96875 46.921875 20.515625 
Q 46.921875 27.09375 42.890625 30.859375 
Q 38.875 34.625 31.78125 34.625 
z
M 21.921875 38.8125 
Q 15.578125 40.375 12.03125 44.71875 
Q 8.5 49.078125 8.5 55.328125 
Q 8.5 64.0625 14.71875 69.140625 
Q 20.953125 74.21875 31.78125 74.21875 
Q 42.671875 74.21875 48.875 69.140625 
Q 55.078125 64.0625 55.078125 55.328125 
Q 55.078125 49.078125 51.53125 44.71875 
Q 48 40.375 41.703125 38.8125 
Q 48.828125 37.15625 52.796875 32.3125 
Q 56.78125 27.484375 56.78125 20.515625 
Q 56.78125 9.90625 50.3125 4.234375 
Q 43.84375 -1.421875 31.78125 -1.421875 
Q 19.734375 -1.421875 13.25 4.234375 
Q 6.78125 9.90625 6.78125 20.515625 
Q 6.78125 27.484375 10.78125 32.3125 
Q 14.796875 37.15625 21.921875 38.8125 
z
M 18.3125 54.390625 
Q 18.3125 48.734375 21.84375 45.5625 
Q 25.390625 42.390625 31.78125 42.390625 
Q 38.140625 42.390625 41.71875 45.5625 
Q 45.3125 48.734375 45.3125 54.390625 
Q 45.3125 60.0625 41.71875 63.234375 
Q 38.140625 66.40625 31.78125 66.40625 
Q 25.390625 66.40625 21.84375 63.234375 
Q 18.3125 60.0625 18.3125 54.390625 
z
" id="DejaVuSans-38"/>
      </defs>
      <g transform="translate(310.519375 269.254193)scale(0.12 -0.12)">
       <use xlink:href="#DejaVuSans-30"/>
       <use x="63.623047" xlink:href="#DejaVuSans-2e"/>
       <use x="95.410156" xlink:href="#DejaVuSans-38"/>
      </g>
     </g>
    </g>
    <g id="xtick_6">
     <g id="line2d_6">
      <g>
       <use style="stroke:#000000;stroke-width:0.8;" x="382.940417" xlink:href="#madd9d69cf3" y="253.136068"/>
      </g>
     </g>
     <g id="text_6">
      <!-- 1.0 -->
      <defs>
       <path d="M 12.40625 8.296875 
L 28.515625 8.296875 
L 28.515625 63.921875 
L 10.984375 60.40625 
L 10.984375 69.390625 
L 28.421875 72.90625 
L 38.28125 72.90625 
L 38.28125 8.296875 
L 54.390625 8.296875 
L 54.390625 0 
L 12.40625 0 
z
" id="DejaVuSans-31"/>
      </defs>
      <g transform="translate(373.398542 269.254193)scale(0.12 -0.12)">
       <use xlink:href="#DejaVuSans-31"/>
       <use x="63.623047" xlink:href="#DejaVuSans-2e"/>
       <use x="95.410156" xlink:href="#DejaVuSans-30"/>
      </g>
     </g>
    </g>
   </g>
   <g id="matplotlib.axis_2">
    <g id="ytick_1">
     <g id="line2d_7">
      <defs>
       <path d="M 0 0 
L -3.5 0 
" id="m0d4e5d2ad5" style="stroke:#000000;stroke-width:0.8;"/>
      </defs>
      <g>
       <use style="stroke:#000000;stroke-width:0.8;" x="37.105" xlink:href="#m0d4e5d2ad5" y="241.641925"/>
      </g>
     </g>
     <g id="text_7">
      <!-- 0 -->
      <g transform="translate(22.47 246.200988)scale(0.12 -0.12)">
       <use xlink:href="#DejaVuSans-30"/>
      </g>
     </g>
    </g>
    <g id="ytick_2">
     <g id="line2d_8">
      <g>
       <use style="stroke:#000000;stroke-width:0.8;" x="37.105" xlink:href="#m0d4e5d2ad5" y="195.665353"/>
      </g>
     </g>
     <g id="text_8">
      <!-- 20 -->
      <g transform="translate(14.835 200.224415)scale(0.12 -0.12)">
       <use xlink:href="#DejaVuSans-32"/>
       <use x="63.623047" xlink:href="#DejaVuSans-30"/>
      </g>
     </g>
    </g>
    <g id="ytick_3">
     <g id="line2d_9">
      <g>
       <use style="stroke:#000000;stroke-width:0.8;" x="37.105" xlink:href="#m0d4e5d2ad5" y="149.68878"/>
      </g>
     </g>
     <g id="text_9">
      <!-- 40 -->
      <g transform="translate(14.835 154.247843)scale(0.12 -0.12)">
       <use xlink:href="#DejaVuSans-34"/>
       <use x="63.623047" xlink:href="#DejaVuSans-30"/>
      </g>
     </g>
    </g>
    <g id="ytick_4">
     <g id="line2d_10">
      <g>
       <use style="stroke:#000000;stroke-width:0.8;" x="37.105" xlink:href="#m0d4e5d2ad5" y="103.712208"/>
      </g>
     </g>
     <g id="text_10">
      <!-- 60 -->
      <g transform="translate(14.835 108.27127)scale(0.12 -0.12)">
       <use xlink:href="#DejaVuSans-36"/>
       <use x="63.623047" xlink:href="#DejaVuSans-30"/>
      </g>
     </g>
    </g>
    <g id="ytick_5">
     <g id="line2d_11">
      <g>
       <use style="stroke:#000000;stroke-width:0.8;" x="37.105" xlink:href="#m0d4e5d2ad5" y="57.735635"/>
      </g>
     </g>
     <g id="text_11">
      <!-- 80 -->
      <g transform="translate(14.835 62.294698)scale(0.12 -0.12)">
       <use xlink:href="#DejaVuSans-38"/>
       <use x="63.623047" xlink:href="#DejaVuSans-30"/>
      </g>
     </g>
    </g>
    <g id="ytick_6">
     <g id="line2d_12">
      <g>
       <use style="stroke:#000000;stroke-width:0.8;" x="37.105" xlink:href="#m0d4e5d2ad5" y="11.759062"/>
      </g>
     </g>
     <g id="text_12">
      <!-- 100 -->
      <g transform="translate(7.2 16.318125)scale(0.12 -0.12)">
       <use xlink:href="#DejaVuSans-31"/>
       <use x="63.623047" xlink:href="#DejaVuSans-30"/>
       <use x="127.246094" xlink:href="#DejaVuSans-30"/>
      </g>
     </g>
    </g>
   </g>
   <g id="line2d_13">
    <path clip-path="url(#pe7402a4e0d)" d="M 68.544583 53.230397 
L 71.720299 54.619185 
L 74.896014 56.007973 
L 78.07173 57.396761 
L 81.247445 58.785549 
L 84.423161 60.174337 
L 87.598876 61.563125 
L 90.774592 62.951913 
L 93.950307 64.340701 
L 97.126023 65.729489 
L 100.301738 67.118277 
L 103.477454 68.507065 
L 106.653169 69.895853 
L 109.828885 71.284641 
L 113.0046 72.673429 
L 116.180316 74.062217 
L 119.356031 75.451005 
L 122.531747 76.839793 
L 125.707462 78.228581 
L 128.883178 79.617369 
L 132.058893 81.006157 
L 135.234609 82.394945 
L 138.410324 83.783733 
L 141.58604 85.172522 
L 144.761755 86.56131 
L 147.937471 87.950098 
L 151.113186 89.338886 
L 154.288902 90.727674 
L 157.464617 92.116462 
L 160.640332 93.50525 
L 163.816048 94.894038 
L 166.991763 96.282826 
L 170.167479 97.671614 
L 173.343194 99.060402 
L 176.51891 100.44919 
L 179.694625 101.837978 
L 182.870341 103.226766 
L 186.046056 104.615554 
L 189.221772 106.004342 
L 192.397487 107.39313 
L 195.573203 108.781918 
L 198.748918 110.170706 
L 201.924634 111.559494 
L 205.100349 112.948282 
L 208.276065 114.33707 
L 211.45178 115.725858 
L 214.627496 117.114646 
L 217.803211 118.503434 
L 220.978927 119.892222 
L 224.154642 121.28101 
L 227.330358 122.669798 
L 230.506073 124.058586 
L 233.681789 125.447375 
L 236.857504 126.836163 
L 240.03322 128.224951 
L 243.208935 129.613739 
L 246.384651 131.002527 
L 249.560366 132.391315 
L 252.736082 133.780103 
L 255.911797 135.168891 
L 259.087513 136.557679 
L 262.263228 137.946467 
L 265.438944 139.335255 
L 268.614659 140.724043 
L 271.790375 142.112831 
L 274.96609 143.501619 
L 278.141806 144.890407 
L 281.317521 146.279195 
L 284.493237 147.667983 
L 287.668952 149.056771 
L 290.844668 150.445559 
L 294.020383 151.834347 
L 297.196098 153.223135 
L 300.371814 154.611923 
L 303.547529 156.000711 
L 306.723245 157.389499 
L 309.89896 158.778287 
L 313.074676 160.167075 
L 316.250391 161.555863 
L 319.426107 162.944651 
L 322.601822 164.333439 
L 325.777538 165.722228 
L 328.953253 167.111016 
L 332.128969 168.499804 
L 335.304684 169.888592 
L 338.4804 171.27738 
L 341.656115 172.666168 
L 344.831831 174.054956 
L 348.007546 175.443744 
L 351.183262 176.832532 
L 354.358977 178.22132 
L 357.534693 179.610108 
L 360.710408 180.998896 
L 363.886124 182.387684 
L 367.061839 183.776472 
L 370.237555 185.16526 
L 373.41327 186.554048 
L 376.588986 187.942836 
L 379.764701 189.331624 
L 382.940417 190.720412 
" style="fill:none;stroke:#1f77b4;stroke-linecap:square;stroke-width:1.5;"/>
   </g>
   <g id="patch_3">
    <path d="M 37.105 253.136068 
L 37.105 11.52918 
" style="fill:none;stroke:#000000;stroke-linecap:square;stroke-linejoin:miter;stroke-width:0.8;"/>
   </g>
   <g id="patch_4">
    <path d="M 414.38 253.136068 
L 414.38 11.52918 
" style="fill:none;stroke:#000000;stroke-linecap:square;stroke-linejoin:miter;stroke-width:0.8;"/>
   </g>
   <g id="patch_5">
    <path d="M 37.105 253.136068 
L 414.38 253.136068 
" style="fill:none;stroke:#000000;stroke-linecap:square;stroke-linejoin:miter;stroke-width:0.8;"/>
   </g>
   <g id="patch_6">
    <path d="M 37.105 11.52918 
L 414.38 11.52918 
" style="fill:none;stroke:#000000;stroke-linecap:square;stroke-linejoin:miter;stroke-width:0.8;"/>
   </g>
  </g>
 </g>
 <defs>
  <clipPath id="pe7402a4e0d">
   <rect height="241.606889" width="377.275" x="37.105" y="11.52918"/>
  </clipPath>
 </defs>
</svg>
