<?xml version="1.0" encoding="utf-8" standalone="no"?>
<!DOCTYPE svg PUBLIC "-//W3C//DTD SVG 1.1//EN"
  "http://www.w3.org/Graphics/SVG/1.1/DTD/svg11.dtd">
<!-- Created with matplotlib (https://matplotlib.org/) -->
<svg height="214.958125pt" version="1.1" viewBox="0 0 712.93125 214.958125" width="712.93125pt" xmlns="http://www.w3.org/2000/svg" xmlns:xlink="http://www.w3.org/1999/xlink">
 <metadata>
  <rdf:RDF xmlns:cc="http://creativecommons.org/ns#" xmlns:dc="http://purl.org/dc/elements/1.1/" xmlns:rdf="http://www.w3.org/1999/02/22-rdf-syntax-ns#">
   <cc:Work>
    <dc:type rdf:resource="http://purl.org/dc/dcmitype/StillImage"/>
    <dc:date>2021-03-06T21:30:12.135333</dc:date>
    <dc:format>image/svg+xml</dc:format>
    <dc:creator>
     <cc:Agent>
      <dc:title>Matplotlib v3.3.3, https://matplotlib.org/</dc:title>
     </cc:Agent>
    </dc:creator>
   </cc:Work>
  </rdf:RDF>
 </metadata>
 <defs>
  <style type="text/css">*{stroke-linecap:butt;stroke-linejoin:round;}</style>
 </defs>
 <g id="figure_1">
  <g id="patch_1">
   <path d="M 0 214.958125 
L 712.93125 214.958125 
L 712.93125 -0 
L 0 -0 
z
" style="fill:none;"/>
  </g>
  <g id="axes_1">
   <g id="patch_2">
    <path d="M 28.942187 191.08 
L 176.192187 191.08 
L 176.192187 43.849677 
L 28.942187 43.849677 
z
" style="fill:#ffffff;"/>
   </g>
   <g id="line2d_1">
    <path clip-path="url(#p190dbe35b3)" d="M 28.942187 74.5605 
L 30.429561 74.855721 
L 31.916935 75.150943 
L 33.404309 75.446164 
L 34.891682 75.741386 
L 36.379056 76.036607 
L 37.86643 76.331829 
L 39.353804 76.62705 
L 40.841177 76.922272 
L 42.328551 77.217493 
L 43.815925 77.512714 
L 45.303299 77.807936 
L 46.790672 78.103157 
L 48.278046 78.398379 
L 49.76542 78.6936 
L 51.252794 78.988822 
L 52.740167 79.284043 
L 54.227541 79.579265 
L 55.714915 79.874486 
L 57.202289 80.169708 
L 58.689662 80.464929 
L 60.177036 80.76015 
L 61.66441 81.055372 
L 63.151783 81.350593 
L 64.639157 81.645815 
L 66.126531 81.941036 
L 67.613905 82.236258 
L 69.101278 82.531479 
L 70.588652 82.826701 
L 72.076026 83.121922 
L 73.5634 83.417144 
L 75.050773 83.712365 
L 76.538147 84.007587 
L 78.025521 84.302808 
L 79.512895 84.598029 
L 81.000268 84.893251 
L 82.487642 85.188472 
L 83.975016 85.483694 
L 85.46239 85.778915 
L 86.949763 86.074137 
L 88.437137 86.369358 
L 89.924511 86.66458 
L 91.411884 86.959801 
L 92.899258 87.255023 
L 94.386632 87.550244 
L 95.874006 87.845465 
L 97.361379 88.140687 
L 98.848753 88.435908 
L 100.336127 88.73113 
L 101.823501 89.026351 
L 103.310874 89.321573 
L 104.798248 89.616794 
L 106.285622 89.912016 
L 107.772996 90.207237 
L 109.260369 90.502459 
L 110.747743 90.79768 
L 112.235117 91.092902 
L 113.722491 91.388123 
L 115.209864 91.683344 
L 116.697238 91.978566 
L 118.184612 92.273787 
L 119.671985 92.569009 
L 121.159359 92.86423 
L 122.646733 93.159452 
L 124.134107 93.454673 
L 125.62148 93.749895 
L 127.108854 94.045116 
L 128.596228 94.340338 
L 130.083602 94.635559 
L 131.570975 94.93078 
L 133.058349 95.226002 
L 134.545723 95.521223 
L 136.033097 95.816445 
L 137.52047 96.111666 
L 139.007844 96.406888 
L 140.495218 96.702109 
L 141.982592 96.997331 
L 143.469965 97.292552 
L 144.957339 97.587774 
L 146.444713 97.882995 
L 147.932086 98.178217 
L 149.41946 98.473438 
L 150.906834 98.768659 
L 152.394208 99.063881 
L 153.881581 99.359102 
L 155.368955 99.654324 
L 156.856329 99.949545 
L 158.343703 100.244767 
L 159.831076 100.539988 
L 161.31845 100.83521 
L 162.805824 101.130431 
L 164.293198 101.425653 
L 165.780571 101.720874 
L 167.267945 102.016096 
L 168.755319 102.311317 
L 170.242693 102.606538 
L 171.730066 102.90176 
L 173.21744 103.196981 
L 174.704814 103.492203 
L 176.192187 103.787424 
" style="fill:none;stroke:#000000;stroke-linecap:square;stroke-width:1.5;"/>
   </g>
   <g id="matplotlib.axis_1">
    <g id="xtick_1">
     <g id="line2d_2">
      <defs>
       <path d="M 0 0 
L 0 3.5 
" id="m318481efe6" style="stroke:#000000;stroke-width:0.8;"/>
      </defs>
      <g>
       <use style="stroke:#000000;stroke-width:0.8;" x="28.942187" xlink:href="#m318481efe6" y="191.08"/>
      </g>
     </g>
     <g id="text_1">
      <!-- 0.0 -->
      <g transform="translate(20.990625 205.678438)scale(0.1 -0.1)">
       <defs>
        <path d="M 31.78125 66.40625 
Q 24.171875 66.40625 20.328125 58.90625 
Q 16.5 51.421875 16.5 36.375 
Q 16.5 21.390625 20.328125 13.890625 
Q 24.171875 6.390625 31.78125 6.390625 
Q 39.453125 6.390625 43.28125 13.890625 
Q 47.125 21.390625 47.125 36.375 
Q 47.125 51.421875 43.28125 58.90625 
Q 39.453125 66.40625 31.78125 66.40625 
z
M 31.78125 74.21875 
Q 44.046875 74.21875 50.515625 64.515625 
Q 56.984375 54.828125 56.984375 36.375 
Q 56.984375 17.96875 50.515625 8.265625 
Q 44.046875 -1.421875 31.78125 -1.421875 
Q 19.53125 -1.421875 13.0625 8.265625 
Q 6.59375 17.96875 6.59375 36.375 
Q 6.59375 54.828125 13.0625 64.515625 
Q 19.53125 74.21875 31.78125 74.21875 
z
" id="DejaVuSans-48"/>
        <path d="M 10.6875 12.40625 
L 21 12.40625 
L 21 0 
L 10.6875 0 
z
" id="DejaVuSans-46"/>
       </defs>
       <use xlink:href="#DejaVuSans-48"/>
       <use x="63.623047" xlink:href="#DejaVuSans-46"/>
       <use x="95.410156" xlink:href="#DejaVuSans-48"/>
      </g>
     </g>
    </g>
    <g id="xtick_2">
     <g id="line2d_3">
      <g>
       <use style="stroke:#000000;stroke-width:0.8;" x="102.567188" xlink:href="#m318481efe6" y="191.08"/>
      </g>
     </g>
     <g id="text_2">
      <!-- 0.5 -->
      <g transform="translate(94.615625 205.678438)scale(0.1 -0.1)">
       <defs>
        <path d="M 10.796875 72.90625 
L 49.515625 72.90625 
L 49.515625 64.59375 
L 19.828125 64.59375 
L 19.828125 46.734375 
Q 21.96875 47.46875 24.109375 47.828125 
Q 26.265625 48.1875 28.421875 48.1875 
Q 40.625 48.1875 47.75 41.5 
Q 54.890625 34.8125 54.890625 23.390625 
Q 54.890625 11.625 47.5625 5.09375 
Q 40.234375 -1.421875 26.90625 -1.421875 
Q 22.3125 -1.421875 17.546875 -0.640625 
Q 12.796875 0.140625 7.71875 1.703125 
L 7.71875 11.625 
Q 12.109375 9.234375 16.796875 8.0625 
Q 21.484375 6.890625 26.703125 6.890625 
Q 35.15625 6.890625 40.078125 11.328125 
Q 45.015625 15.765625 45.015625 23.390625 
Q 45.015625 31 40.078125 35.4375 
Q 35.15625 39.890625 26.703125 39.890625 
Q 22.75 39.890625 18.8125 39.015625 
Q 14.890625 38.140625 10.796875 36.28125 
z
" id="DejaVuSans-53"/>
       </defs>
       <use xlink:href="#DejaVuSans-48"/>
       <use x="63.623047" xlink:href="#DejaVuSans-46"/>
       <use x="95.410156" xlink:href="#DejaVuSans-53"/>
      </g>
     </g>
    </g>
    <g id="xtick_3">
     <g id="line2d_4">
      <g>
       <use style="stroke:#000000;stroke-width:0.8;" x="176.192187" xlink:href="#m318481efe6" y="191.08"/>
      </g>
     </g>
     <g id="text_3">
      <!-- 1.0 -->
      <g transform="translate(168.240625 205.678438)scale(0.1 -0.1)">
       <defs>
        <path d="M 12.40625 8.296875 
L 28.515625 8.296875 
L 28.515625 63.921875 
L 10.984375 60.40625 
L 10.984375 69.390625 
L 28.421875 72.90625 
L 38.28125 72.90625 
L 38.28125 8.296875 
L 54.390625 8.296875 
L 54.390625 0 
L 12.40625 0 
z
" id="DejaVuSans-49"/>
       </defs>
       <use xlink:href="#DejaVuSans-49"/>
       <use x="63.623047" xlink:href="#DejaVuSans-46"/>
       <use x="95.410156" xlink:href="#DejaVuSans-48"/>
      </g>
     </g>
    </g>
   </g>
   <g id="matplotlib.axis_2">
    <g id="ytick_1">
     <g id="line2d_5">
      <defs>
       <path d="M 0 0 
L -3.5 0 
" id="mc64f50868d" style="stroke:#000000;stroke-width:0.8;"/>
      </defs>
      <g>
       <use style="stroke:#000000;stroke-width:0.8;" x="28.942187" xlink:href="#mc64f50868d" y="188.705317"/>
      </g>
     </g>
     <g id="text_4">
      <!-- −3 -->
      <g transform="translate(7.2 192.504536)scale(0.1 -0.1)">
       <defs>
        <path d="M 10.59375 35.5 
L 73.1875 35.5 
L 73.1875 27.203125 
L 10.59375 27.203125 
z
" id="DejaVuSans-8722"/>
        <path d="M 40.578125 39.3125 
Q 47.65625 37.796875 51.625 33 
Q 55.609375 28.21875 55.609375 21.1875 
Q 55.609375 10.40625 48.1875 4.484375 
Q 40.765625 -1.421875 27.09375 -1.421875 
Q 22.515625 -1.421875 17.65625 -0.515625 
Q 12.796875 0.390625 7.625 2.203125 
L 7.625 11.71875 
Q 11.71875 9.328125 16.59375 8.109375 
Q 21.484375 6.890625 26.8125 6.890625 
Q 36.078125 6.890625 40.9375 10.546875 
Q 45.796875 14.203125 45.796875 21.1875 
Q 45.796875 27.640625 41.28125 31.265625 
Q 36.765625 34.90625 28.71875 34.90625 
L 20.21875 34.90625 
L 20.21875 43.015625 
L 29.109375 43.015625 
Q 36.375 43.015625 40.234375 45.921875 
Q 44.09375 48.828125 44.09375 54.296875 
Q 44.09375 59.90625 40.109375 62.90625 
Q 36.140625 65.921875 28.71875 65.921875 
Q 24.65625 65.921875 20.015625 65.03125 
Q 15.375 64.15625 9.8125 62.3125 
L 9.8125 71.09375 
Q 15.4375 72.65625 20.34375 73.4375 
Q 25.25 74.21875 29.59375 74.21875 
Q 40.828125 74.21875 47.359375 69.109375 
Q 53.90625 64.015625 53.90625 55.328125 
Q 53.90625 49.265625 50.4375 45.09375 
Q 46.96875 40.921875 40.578125 39.3125 
z
" id="DejaVuSans-51"/>
       </defs>
       <use xlink:href="#DejaVuSans-8722"/>
       <use x="83.789062" xlink:href="#DejaVuSans-51"/>
      </g>
     </g>
    </g>
    <g id="ytick_2">
     <g id="line2d_6">
      <g>
       <use style="stroke:#000000;stroke-width:0.8;" x="28.942187" xlink:href="#mc64f50868d" y="117.464839"/>
      </g>
     </g>
     <g id="text_5">
      <!-- 0 -->
      <g transform="translate(15.579687 121.264057)scale(0.1 -0.1)">
       <use xlink:href="#DejaVuSans-48"/>
      </g>
     </g>
    </g>
    <g id="ytick_3">
     <g id="line2d_7">
      <g>
       <use style="stroke:#000000;stroke-width:0.8;" x="28.942187" xlink:href="#mc64f50868d" y="46.22436"/>
      </g>
     </g>
     <g id="text_6">
      <!-- 3 -->
      <g transform="translate(15.579687 50.023579)scale(0.1 -0.1)">
       <use xlink:href="#DejaVuSans-51"/>
      </g>
     </g>
    </g>
   </g>
   <g id="PathCollection_1">
    <defs>
     <path d="M -3 3 
L 3 -3 
M -3 -3 
L 3 3 
" id="mea6bf437be" style="stroke:#ff0000;stroke-width:1.5;"/>
    </defs>
    <g clip-path="url(#p190dbe35b3)">
     <use style="fill:#ff0000;stroke:#ff0000;stroke-width:1.5;" x="137.128709" xlink:href="#mea6bf437be" y="94.820586"/>
     <use style="fill:#ff0000;stroke:#ff0000;stroke-width:1.5;" x="71.041153" xlink:href="#mea6bf437be" y="83.013519"/>
     <use style="fill:#ff0000;stroke:#ff0000;stroke-width:1.5;" x="139.237901" xlink:href="#mea6bf437be" y="97.036957"/>
     <use style="fill:#ff0000;stroke:#ff0000;stroke-width:1.5;" x="153.573177" xlink:href="#mea6bf437be" y="98.098266"/>
     <use style="fill:#ff0000;stroke:#ff0000;stroke-width:1.5;" x="133.692753" xlink:href="#mea6bf437be" y="96.889762"/>
     <use style="fill:#ff0000;stroke:#ff0000;stroke-width:1.5;" x="120.662814" xlink:href="#mea6bf437be" y="97.326984"/>
     <use style="fill:#ff0000;stroke:#ff0000;stroke-width:1.5;" x="69.018869" xlink:href="#mea6bf437be" y="82.178579"/>
    </g>
   </g>
   <g id="patch_3">
    <path d="M 28.942187 191.08 
L 28.942187 43.849677 
" style="fill:none;stroke:#000000;stroke-linecap:square;stroke-linejoin:miter;stroke-width:0.8;"/>
   </g>
   <g id="patch_4">
    <path d="M 176.192187 191.08 
L 176.192187 43.849677 
" style="fill:none;stroke:#000000;stroke-linecap:square;stroke-linejoin:miter;stroke-width:0.8;"/>
   </g>
   <g id="patch_5">
    <path d="M 28.942187 191.08 
L 176.192187 191.08 
" style="fill:none;stroke:#000000;stroke-linecap:square;stroke-linejoin:miter;stroke-width:0.8;"/>
   </g>
   <g id="patch_6">
    <path d="M 28.942187 43.849677 
L 176.192187 43.849677 
" style="fill:none;stroke:#000000;stroke-linecap:square;stroke-linejoin:miter;stroke-width:0.8;"/>
   </g>
  </g>
  <g id="axes_2">
   <g id="patch_7">
    <path d="M 202.804688 191.08 
L 350.054688 191.08 
L 350.054688 43.849677 
L 202.804688 43.849677 
z
" style="fill:#ffffff;"/>
   </g>
   <g id="line2d_8">
    <path clip-path="url(#pf1721d8f9f)" d="M 202.804688 135.171274 
L 204.292061 135.741539 
L 205.779435 136.311805 
L 207.266809 136.88207 
L 208.754182 137.452336 
L 210.241556 138.022601 
L 211.72893 138.592867 
L 213.216304 139.163132 
L 214.703677 139.733398 
L 216.191051 140.303663 
L 217.678425 140.873929 
L 219.165799 141.444195 
L 220.653172 142.01446 
L 222.140546 142.584726 
L 223.62792 143.154991 
L 225.115294 143.725257 
L 226.602667 144.295522 
L 228.090041 144.865788 
L 229.577415 145.436053 
L 231.064789 146.006319 
L 232.552162 146.576584 
L 234.039536 147.14685 
L 235.52691 147.717115 
L 237.014283 148.287381 
L 238.501657 148.857646 
L 239.989031 149.427912 
L 241.476405 149.998177 
L 242.963778 150.568443 
L 244.451152 151.138708 
L 245.938526 151.708974 
L 247.4259 152.279239 
L 248.913273 152.849505 
L 250.400647 153.41977 
L 251.888021 153.990036 
L 253.375395 154.560301 
L 254.862768 155.130567 
L 256.350142 155.700832 
L 257.837516 156.271098 
L 259.32489 156.841363 
L 260.812263 157.411629 
L 262.299637 157.981894 
L 263.787011 158.55216 
L 265.274384 159.122425 
L 266.761758 159.692691 
L 268.249132 160.262956 
L 269.736506 160.833222 
L 271.223879 161.403487 
L 272.711253 161.973753 
L 274.198627 162.544018 
L 275.686001 163.114284 
L 277.173374 163.684549 
L 278.660748 164.254815 
L 280.148122 164.82508 
L 281.635496 165.395346 
L 283.122869 165.965611 
L 284.610243 166.535877 
L 286.097617 167.106142 
L 287.584991 167.676408 
L 289.072364 168.246673 
L 290.559738 168.816939 
L 292.047112 169.387204 
L 293.534485 169.95747 
L 295.021859 170.527735 
L 296.509233 171.098001 
L 297.996607 171.668266 
L 299.48398 172.238532 
L 300.971354 172.808797 
L 302.458728 173.379063 
L 303.946102 173.949328 
L 305.433475 174.519594 
L 306.920849 175.089859 
L 308.408223 175.660125 
L 309.895597 176.23039 
L 311.38297 176.800656 
L 312.870344 177.370921 
L 314.357718 177.941187 
L 315.845092 178.511452 
L 317.332465 179.081718 
L 318.819839 179.651983 
L 320.307213 180.222249 
L 321.794586 180.792514 
L 323.28196 181.36278 
L 324.769334 181.933045 
L 326.256708 182.503311 
L 327.744081 183.073577 
L 329.231455 183.643842 
L 330.718829 184.214108 
L 332.206203 184.784373 
L 333.693576 185.354639 
L 335.18095 185.924904 
L 336.668324 186.49517 
L 338.155698 187.065435 
L 339.643071 187.635701 
L 341.130445 188.205966 
L 342.617819 188.776232 
L 344.105193 189.346497 
L 345.592566 189.916763 
L 347.07994 190.487028 
L 348.567314 191.057294 
L 350.054688 191.627559 
" style="fill:none;stroke:#000000;stroke-linecap:square;stroke-width:1.5;"/>
   </g>
   <g id="matplotlib.axis_3">
    <g id="xtick_4">
     <g id="line2d_9">
      <g>
       <use style="stroke:#000000;stroke-width:0.8;" x="202.804688" xlink:href="#m318481efe6" y="191.08"/>
      </g>
     </g>
     <g id="text_7">
      <!-- 0.0 -->
      <g transform="translate(194.853125 205.678438)scale(0.1 -0.1)">
       <use xlink:href="#DejaVuSans-48"/>
       <use x="63.623047" xlink:href="#DejaVuSans-46"/>
       <use x="95.410156" xlink:href="#DejaVuSans-48"/>
      </g>
     </g>
    </g>
    <g id="xtick_5">
     <g id="line2d_10">
      <g>
       <use style="stroke:#000000;stroke-width:0.8;" x="276.429688" xlink:href="#m318481efe6" y="191.08"/>
      </g>
     </g>
     <g id="text_8">
      <!-- 0.5 -->
      <g transform="translate(268.478125 205.678438)scale(0.1 -0.1)">
       <use xlink:href="#DejaVuSans-48"/>
       <use x="63.623047" xlink:href="#DejaVuSans-46"/>
       <use x="95.410156" xlink:href="#DejaVuSans-53"/>
      </g>
     </g>
    </g>
    <g id="xtick_6">
     <g id="line2d_11">
      <g>
       <use style="stroke:#000000;stroke-width:0.8;" x="350.054688" xlink:href="#m318481efe6" y="191.08"/>
      </g>
     </g>
     <g id="text_9">
      <!-- 1.0 -->
      <g transform="translate(342.103125 205.678438)scale(0.1 -0.1)">
       <use xlink:href="#DejaVuSans-49"/>
       <use x="63.623047" xlink:href="#DejaVuSans-46"/>
       <use x="95.410156" xlink:href="#DejaVuSans-48"/>
      </g>
     </g>
    </g>
   </g>
   <g id="matplotlib.axis_4"/>
   <g id="PathCollection_2">
    <g clip-path="url(#pf1721d8f9f)">
     <use style="fill:#ff0000;stroke:#ff0000;stroke-width:1.5;" x="309.750193" xlink:href="#mea6bf437be" y="175.337128"/>
     <use style="fill:#ff0000;stroke:#ff0000;stroke-width:1.5;" x="348.065302" xlink:href="#mea6bf437be" y="189.903049"/>
     <use style="fill:#ff0000;stroke:#ff0000;stroke-width:1.5;" x="295.781456" xlink:href="#mea6bf437be" y="174.81204"/>
     <use style="fill:#ff0000;stroke:#ff0000;stroke-width:1.5;" x="240.521821" xlink:href="#mea6bf437be" y="147.773423"/>
     <use style="fill:#ff0000;stroke:#ff0000;stroke-width:1.5;" x="260.314836" xlink:href="#mea6bf437be" y="155.576341"/>
     <use style="fill:#ff0000;stroke:#ff0000;stroke-width:1.5;" x="293.321874" xlink:href="#mea6bf437be" y="171.352129"/>
     <use style="fill:#ff0000;stroke:#ff0000;stroke-width:1.5;" x="270.404982" xlink:href="#mea6bf437be" y="162.26304"/>
    </g>
   </g>
   <g id="patch_8">
    <path d="M 202.804688 191.08 
L 202.804688 43.849677 
" style="fill:none;stroke:#000000;stroke-linecap:square;stroke-linejoin:miter;stroke-width:0.8;"/>
   </g>
   <g id="patch_9">
    <path d="M 350.054688 191.08 
L 350.054688 43.849677 
" style="fill:none;stroke:#000000;stroke-linecap:square;stroke-linejoin:miter;stroke-width:0.8;"/>
   </g>
   <g id="patch_10">
    <path d="M 202.804688 191.08 
L 350.054688 191.08 
" style="fill:none;stroke:#000000;stroke-linecap:square;stroke-linejoin:miter;stroke-width:0.8;"/>
   </g>
   <g id="patch_11">
    <path d="M 202.804688 43.849677 
L 350.054688 43.849677 
" style="fill:none;stroke:#000000;stroke-linecap:square;stroke-linejoin:miter;stroke-width:0.8;"/>
   </g>
  </g>
  <g id="axes_3">
   <g id="patch_12">
    <path d="M 376.667188 191.08 
L 523.917187 191.08 
L 523.917187 43.849677 
L 376.667188 43.849677 
z
" style="fill:#ffffff;"/>
   </g>
   <g id="line2d_12">
    <path clip-path="url(#p7445672bc3)" d="M 376.667188 106.099645 
L 378.154561 106.115587 
L 379.641935 106.13153 
L 381.129309 106.147473 
L 382.616682 106.163416 
L 384.104056 106.179358 
L 385.59143 106.195301 
L 387.078804 106.211244 
L 388.566177 106.227187 
L 390.053551 106.243129 
L 391.540925 106.259072 
L 393.028299 106.275015 
L 394.515672 106.290958 
L 396.003046 106.306901 
L 397.49042 106.322843 
L 398.977794 106.338786 
L 400.465167 106.354729 
L 401.952541 106.370672 
L 403.439915 106.386614 
L 404.927289 106.402557 
L 406.414662 106.4185 
L 407.902036 106.434443 
L 409.38941 106.450385 
L 410.876783 106.466328 
L 412.364157 106.482271 
L 413.851531 106.498214 
L 415.338905 106.514156 
L 416.826278 106.530099 
L 418.313652 106.546042 
L 419.801026 106.561985 
L 421.2884 106.577928 
L 422.775773 106.59387 
L 424.263147 106.609813 
L 425.750521 106.625756 
L 427.237895 106.641699 
L 428.725268 106.657641 
L 430.212642 106.673584 
L 431.700016 106.689527 
L 433.18739 106.70547 
L 434.674763 106.721412 
L 436.162137 106.737355 
L 437.649511 106.753298 
L 439.136884 106.769241 
L 440.624258 106.785184 
L 442.111632 106.801126 
L 443.599006 106.817069 
L 445.086379 106.833012 
L 446.573753 106.848955 
L 448.061127 106.864897 
L 449.548501 106.88084 
L 451.035874 106.896783 
L 452.523248 106.912726 
L 454.010622 106.928668 
L 455.497996 106.944611 
L 456.985369 106.960554 
L 458.472743 106.976497 
L 459.960117 106.992439 
L 461.447491 107.008382 
L 462.934864 107.024325 
L 464.422238 107.040268 
L 465.909612 107.056211 
L 467.396985 107.072153 
L 468.884359 107.088096 
L 470.371733 107.104039 
L 471.859107 107.119982 
L 473.34648 107.135924 
L 474.833854 107.151867 
L 476.321228 107.16781 
L 477.808602 107.183753 
L 479.295975 107.199695 
L 480.783349 107.215638 
L 482.270723 107.231581 
L 483.758097 107.247524 
L 485.24547 107.263467 
L 486.732844 107.279409 
L 488.220218 107.295352 
L 489.707592 107.311295 
L 491.194965 107.327238 
L 492.682339 107.34318 
L 494.169713 107.359123 
L 495.657086 107.375066 
L 497.14446 107.391009 
L 498.631834 107.406951 
L 500.119208 107.422894 
L 501.606581 107.438837 
L 503.093955 107.45478 
L 504.581329 107.470722 
L 506.068703 107.486665 
L 507.556076 107.502608 
L 509.04345 107.518551 
L 510.530824 107.534494 
L 512.018198 107.550436 
L 513.505571 107.566379 
L 514.992945 107.582322 
L 516.480319 107.598265 
L 517.967693 107.614207 
L 519.455066 107.63015 
L 520.94244 107.646093 
L 522.429814 107.662036 
L 523.917187 107.677978 
" style="fill:none;stroke:#000000;stroke-linecap:square;stroke-width:1.5;"/>
   </g>
   <g id="matplotlib.axis_5">
    <g id="xtick_7">
     <g id="line2d_13">
      <g>
       <use style="stroke:#000000;stroke-width:0.8;" x="376.667188" xlink:href="#m318481efe6" y="191.08"/>
      </g>
     </g>
     <g id="text_10">
      <!-- 0.0 -->
      <g transform="translate(368.715625 205.678438)scale(0.1 -0.1)">
       <use xlink:href="#DejaVuSans-48"/>
       <use x="63.623047" xlink:href="#DejaVuSans-46"/>
       <use x="95.410156" xlink:href="#DejaVuSans-48"/>
      </g>
     </g>
    </g>
    <g id="xtick_8">
     <g id="line2d_14">
      <g>
       <use style="stroke:#000000;stroke-width:0.8;" x="450.292188" xlink:href="#m318481efe6" y="191.08"/>
      </g>
     </g>
     <g id="text_11">
      <!-- 0.5 -->
      <g transform="translate(442.340625 205.678438)scale(0.1 -0.1)">
       <use xlink:href="#DejaVuSans-48"/>
       <use x="63.623047" xlink:href="#DejaVuSans-46"/>
       <use x="95.410156" xlink:href="#DejaVuSans-53"/>
      </g>
     </g>
    </g>
    <g id="xtick_9">
     <g id="line2d_15">
      <g>
       <use style="stroke:#000000;stroke-width:0.8;" x="523.917187" xlink:href="#m318481efe6" y="191.08"/>
      </g>
     </g>
     <g id="text_12">
      <!-- 1.0 -->
      <g transform="translate(515.965625 205.678438)scale(0.1 -0.1)">
       <use xlink:href="#DejaVuSans-49"/>
       <use x="63.623047" xlink:href="#DejaVuSans-46"/>
       <use x="95.410156" xlink:href="#DejaVuSans-48"/>
      </g>
     </g>
    </g>
   </g>
   <g id="matplotlib.axis_6"/>
   <g id="PathCollection_3">
    <g clip-path="url(#p7445672bc3)">
     <use style="fill:#ff0000;stroke:#ff0000;stroke-width:1.5;" x="410.160516" xlink:href="#mea6bf437be" y="108.132629"/>
     <use style="fill:#ff0000;stroke:#ff0000;stroke-width:1.5;" x="437.00703" xlink:href="#mea6bf437be" y="109.475041"/>
     <use style="fill:#ff0000;stroke:#ff0000;stroke-width:1.5;" x="381.03892" xlink:href="#mea6bf437be" y="109.048335"/>
     <use style="fill:#ff0000;stroke:#ff0000;stroke-width:1.5;" x="449.684908" xlink:href="#mea6bf437be" y="105.320191"/>
     <use style="fill:#ff0000;stroke:#ff0000;stroke-width:1.5;" x="382.929049" xlink:href="#mea6bf437be" y="104.281571"/>
     <use style="fill:#ff0000;stroke:#ff0000;stroke-width:1.5;" x="391.03679" xlink:href="#mea6bf437be" y="107.019301"/>
     <use style="fill:#ff0000;stroke:#ff0000;stroke-width:1.5;" x="503.622237" xlink:href="#mea6bf437be" y="107.448913"/>
    </g>
   </g>
   <g id="patch_13">
    <path d="M 376.667188 191.08 
L 376.667188 43.849677 
" style="fill:none;stroke:#000000;stroke-linecap:square;stroke-linejoin:miter;stroke-width:0.8;"/>
   </g>
   <g id="patch_14">
    <path d="M 523.917187 191.08 
L 523.917187 43.849677 
" style="fill:none;stroke:#000000;stroke-linecap:square;stroke-linejoin:miter;stroke-width:0.8;"/>
   </g>
   <g id="patch_15">
    <path d="M 376.667188 191.08 
L 523.917187 191.08 
" style="fill:none;stroke:#000000;stroke-linecap:square;stroke-linejoin:miter;stroke-width:0.8;"/>
   </g>
   <g id="patch_16">
    <path d="M 376.667188 43.849677 
L 523.917187 43.849677 
" style="fill:none;stroke:#000000;stroke-linecap:square;stroke-linejoin:miter;stroke-width:0.8;"/>
   </g>
  </g>
  <g id="axes_4">
   <g id="patch_17">
    <path d="M 550.529688 191.08 
L 697.779688 191.08 
L 697.779688 43.849677 
L 550.529688 43.849677 
z
" style="fill:#ffffff;"/>
   </g>
   <g id="line2d_16">
    <path clip-path="url(#p37cf21fe4b)" d="M 550.529688 113.141234 
L 552.017061 113.110264 
L 553.504435 113.079295 
L 554.991809 113.048325 
L 556.479182 113.017356 
L 557.966556 112.986386 
L 559.45393 112.955417 
L 560.941304 112.924447 
L 562.428677 112.893477 
L 563.916051 112.862508 
L 565.403425 112.831538 
L 566.890799 112.800569 
L 568.378172 112.769599 
L 569.865546 112.73863 
L 571.35292 112.70766 
L 572.840294 112.67669 
L 574.327667 112.645721 
L 575.815041 112.614751 
L 577.302415 112.583782 
L 578.789789 112.552812 
L 580.277162 112.521843 
L 581.764536 112.490873 
L 583.25191 112.459903 
L 584.739283 112.428934 
L 586.226657 112.397964 
L 587.714031 112.366995 
L 589.201405 112.336025 
L 590.688778 112.305056 
L 592.176152 112.274086 
L 593.663526 112.243116 
L 595.1509 112.212147 
L 596.638273 112.181177 
L 598.125647 112.150208 
L 599.613021 112.119238 
L 601.100395 112.088268 
L 602.587768 112.057299 
L 604.075142 112.026329 
L 605.562516 111.99536 
L 607.04989 111.96439 
L 608.537263 111.933421 
L 610.024637 111.902451 
L 611.512011 111.871481 
L 612.999384 111.840512 
L 614.486758 111.809542 
L 615.974132 111.778573 
L 617.461506 111.747603 
L 618.948879 111.716634 
L 620.436253 111.685664 
L 621.923627 111.654694 
L 623.411001 111.623725 
L 624.898374 111.592755 
L 626.385748 111.561786 
L 627.873122 111.530816 
L 629.360496 111.499847 
L 630.847869 111.468877 
L 632.335243 111.437907 
L 633.822617 111.406938 
L 635.309991 111.375968 
L 636.797364 111.344999 
L 638.284738 111.314029 
L 639.772112 111.28306 
L 641.259485 111.25209 
L 642.746859 111.22112 
L 644.234233 111.190151 
L 645.721607 111.159181 
L 647.20898 111.128212 
L 648.696354 111.097242 
L 650.183728 111.066273 
L 651.671102 111.035303 
L 653.158475 111.004333 
L 654.645849 110.973364 
L 656.133223 110.942394 
L 657.620597 110.911425 
L 659.10797 110.880455 
L 660.595344 110.849486 
L 662.082718 110.818516 
L 663.570092 110.787546 
L 665.057465 110.756577 
L 666.544839 110.725607 
L 668.032213 110.694638 
L 669.519586 110.663668 
L 671.00696 110.632699 
L 672.494334 110.601729 
L 673.981708 110.570759 
L 675.469081 110.53979 
L 676.956455 110.50882 
L 678.443829 110.477851 
L 679.931203 110.446881 
L 681.418576 110.415911 
L 682.90595 110.384942 
L 684.393324 110.353972 
L 685.880698 110.323003 
L 687.368071 110.292033 
L 688.855445 110.261064 
L 690.342819 110.230094 
L 691.830193 110.199124 
L 693.317566 110.168155 
L 694.80494 110.137185 
L 696.292314 110.106216 
L 697.779688 110.075246 
" style="fill:none;stroke:#000000;stroke-linecap:square;stroke-width:1.5;"/>
   </g>
   <g id="matplotlib.axis_7">
    <g id="xtick_10">
     <g id="line2d_17">
      <g>
       <use style="stroke:#000000;stroke-width:0.8;" x="550.529688" xlink:href="#m318481efe6" y="191.08"/>
      </g>
     </g>
     <g id="text_13">
      <!-- 0.0 -->
      <g transform="translate(542.578125 205.678438)scale(0.1 -0.1)">
       <use xlink:href="#DejaVuSans-48"/>
       <use x="63.623047" xlink:href="#DejaVuSans-46"/>
       <use x="95.410156" xlink:href="#DejaVuSans-48"/>
      </g>
     </g>
    </g>
    <g id="xtick_11">
     <g id="line2d_18">
      <g>
       <use style="stroke:#000000;stroke-width:0.8;" x="624.154688" xlink:href="#m318481efe6" y="191.08"/>
      </g>
     </g>
     <g id="text_14">
      <!-- 0.5 -->
      <g transform="translate(616.203125 205.678438)scale(0.1 -0.1)">
       <use xlink:href="#DejaVuSans-48"/>
       <use x="63.623047" xlink:href="#DejaVuSans-46"/>
       <use x="95.410156" xlink:href="#DejaVuSans-53"/>
      </g>
     </g>
    </g>
    <g id="xtick_12">
     <g id="line2d_19">
      <g>
       <use style="stroke:#000000;stroke-width:0.8;" x="697.779688" xlink:href="#m318481efe6" y="191.08"/>
      </g>
     </g>
     <g id="text_15">
      <!-- 1.0 -->
      <g transform="translate(689.828125 205.678438)scale(0.1 -0.1)">
       <use xlink:href="#DejaVuSans-49"/>
       <use x="63.623047" xlink:href="#DejaVuSans-46"/>
       <use x="95.410156" xlink:href="#DejaVuSans-48"/>
      </g>
     </g>
    </g>
   </g>
   <g id="matplotlib.axis_8"/>
   <g id="PathCollection_4">
    <g clip-path="url(#p37cf21fe4b)">
     <use style="fill:#ff0000;stroke:#ff0000;stroke-width:1.5;" x="577.385205" xlink:href="#mea6bf437be" y="113.140357"/>
     <use style="fill:#ff0000;stroke:#ff0000;stroke-width:1.5;" x="626.114386" xlink:href="#mea6bf437be" y="109.403807"/>
     <use style="fill:#ff0000;stroke:#ff0000;stroke-width:1.5;" x="616.911431" xlink:href="#mea6bf437be" y="109.331202"/>
     <use style="fill:#ff0000;stroke:#ff0000;stroke-width:1.5;" x="689.252781" xlink:href="#mea6bf437be" y="111.398273"/>
     <use style="fill:#ff0000;stroke:#ff0000;stroke-width:1.5;" x="626.35454" xlink:href="#mea6bf437be" y="114.3905"/>
     <use style="fill:#ff0000;stroke:#ff0000;stroke-width:1.5;" x="550.990145" xlink:href="#mea6bf437be" y="115.640727"/>
     <use style="fill:#ff0000;stroke:#ff0000;stroke-width:1.5;" x="644.146539" xlink:href="#mea6bf437be" y="107.463166"/>
    </g>
   </g>
   <g id="patch_18">
    <path d="M 550.529688 191.08 
L 550.529688 43.849677 
" style="fill:none;stroke:#000000;stroke-linecap:square;stroke-linejoin:miter;stroke-width:0.8;"/>
   </g>
   <g id="patch_19">
    <path d="M 697.779688 191.08 
L 697.779688 43.849677 
" style="fill:none;stroke:#000000;stroke-linecap:square;stroke-linejoin:miter;stroke-width:0.8;"/>
   </g>
   <g id="patch_20">
    <path d="M 550.529688 191.08 
L 697.779688 191.08 
" style="fill:none;stroke:#000000;stroke-linecap:square;stroke-linejoin:miter;stroke-width:0.8;"/>
   </g>
   <g id="patch_21">
    <path d="M 550.529688 43.849677 
L 697.779688 43.849677 
" style="fill:none;stroke:#000000;stroke-linecap:square;stroke-linejoin:miter;stroke-width:0.8;"/>
   </g>
  </g>
  <g id="text_16">
   <!-- Functions and observed data sampled from prior -->
   <g transform="translate(136.965 20.877187)scale(0.18 -0.18)">
    <defs>
     <path d="M 9.8125 72.90625 
L 51.703125 72.90625 
L 51.703125 64.59375 
L 19.671875 64.59375 
L 19.671875 43.109375 
L 48.578125 43.109375 
L 48.578125 34.8125 
L 19.671875 34.8125 
L 19.671875 0 
L 9.8125 0 
z
" id="DejaVuSans-70"/>
     <path d="M 8.5 21.578125 
L 8.5 54.6875 
L 17.484375 54.6875 
L 17.484375 21.921875 
Q 17.484375 14.15625 20.5 10.265625 
Q 23.53125 6.390625 29.59375 6.390625 
Q 36.859375 6.390625 41.078125 11.03125 
Q 45.3125 15.671875 45.3125 23.6875 
L 45.3125 54.6875 
L 54.296875 54.6875 
L 54.296875 0 
L 45.3125 0 
L 45.3125 8.40625 
Q 42.046875 3.421875 37.71875 1 
Q 33.40625 -1.421875 27.6875 -1.421875 
Q 18.265625 -1.421875 13.375 4.4375 
Q 8.5 10.296875 8.5 21.578125 
z
M 31.109375 56 
z
" id="DejaVuSans-117"/>
     <path d="M 54.890625 33.015625 
L 54.890625 0 
L 45.90625 0 
L 45.90625 32.71875 
Q 45.90625 40.484375 42.875 44.328125 
Q 39.84375 48.1875 33.796875 48.1875 
Q 26.515625 48.1875 22.3125 43.546875 
Q 18.109375 38.921875 18.109375 30.90625 
L 18.109375 0 
L 9.078125 0 
L 9.078125 54.6875 
L 18.109375 54.6875 
L 18.109375 46.1875 
Q 21.34375 51.125 25.703125 53.5625 
Q 30.078125 56 35.796875 56 
Q 45.21875 56 50.046875 50.171875 
Q 54.890625 44.34375 54.890625 33.015625 
z
" id="DejaVuSans-110"/>
     <path d="M 48.78125 52.59375 
L 48.78125 44.1875 
Q 44.96875 46.296875 41.140625 47.34375 
Q 37.3125 48.390625 33.40625 48.390625 
Q 24.65625 48.390625 19.8125 42.84375 
Q 14.984375 37.3125 14.984375 27.296875 
Q 14.984375 17.28125 19.8125 11.734375 
Q 24.65625 6.203125 33.40625 6.203125 
Q 37.3125 6.203125 41.140625 7.25 
Q 44.96875 8.296875 48.78125 10.40625 
L 48.78125 2.09375 
Q 45.015625 0.34375 40.984375 -0.53125 
Q 36.96875 -1.421875 32.421875 -1.421875 
Q 20.0625 -1.421875 12.78125 6.34375 
Q 5.515625 14.109375 5.515625 27.296875 
Q 5.515625 40.671875 12.859375 48.328125 
Q 20.21875 56 33.015625 56 
Q 37.15625 56 41.109375 55.140625 
Q 45.0625 54.296875 48.78125 52.59375 
z
" id="DejaVuSans-99"/>
     <path d="M 18.3125 70.21875 
L 18.3125 54.6875 
L 36.8125 54.6875 
L 36.8125 47.703125 
L 18.3125 47.703125 
L 18.3125 18.015625 
Q 18.3125 11.328125 20.140625 9.421875 
Q 21.96875 7.515625 27.59375 7.515625 
L 36.8125 7.515625 
L 36.8125 0 
L 27.59375 0 
Q 17.1875 0 13.234375 3.875 
Q 9.28125 7.765625 9.28125 18.015625 
L 9.28125 47.703125 
L 2.6875 47.703125 
L 2.6875 54.6875 
L 9.28125 54.6875 
L 9.28125 70.21875 
z
" id="DejaVuSans-116"/>
     <path d="M 9.421875 54.6875 
L 18.40625 54.6875 
L 18.40625 0 
L 9.421875 0 
z
M 9.421875 75.984375 
L 18.40625 75.984375 
L 18.40625 64.59375 
L 9.421875 64.59375 
z
" id="DejaVuSans-105"/>
     <path d="M 30.609375 48.390625 
Q 23.390625 48.390625 19.1875 42.75 
Q 14.984375 37.109375 14.984375 27.296875 
Q 14.984375 17.484375 19.15625 11.84375 
Q 23.34375 6.203125 30.609375 6.203125 
Q 37.796875 6.203125 41.984375 11.859375 
Q 46.1875 17.53125 46.1875 27.296875 
Q 46.1875 37.015625 41.984375 42.703125 
Q 37.796875 48.390625 30.609375 48.390625 
z
M 30.609375 56 
Q 42.328125 56 49.015625 48.375 
Q 55.71875 40.765625 55.71875 27.296875 
Q 55.71875 13.875 49.015625 6.21875 
Q 42.328125 -1.421875 30.609375 -1.421875 
Q 18.84375 -1.421875 12.171875 6.21875 
Q 5.515625 13.875 5.515625 27.296875 
Q 5.515625 40.765625 12.171875 48.375 
Q 18.84375 56 30.609375 56 
z
" id="DejaVuSans-111"/>
     <path d="M 44.28125 53.078125 
L 44.28125 44.578125 
Q 40.484375 46.53125 36.375 47.5 
Q 32.28125 48.484375 27.875 48.484375 
Q 21.1875 48.484375 17.84375 46.4375 
Q 14.5 44.390625 14.5 40.28125 
Q 14.5 37.15625 16.890625 35.375 
Q 19.28125 33.59375 26.515625 31.984375 
L 29.59375 31.296875 
Q 39.15625 29.25 43.1875 25.515625 
Q 47.21875 21.78125 47.21875 15.09375 
Q 47.21875 7.46875 41.1875 3.015625 
Q 35.15625 -1.421875 24.609375 -1.421875 
Q 20.21875 -1.421875 15.453125 -0.5625 
Q 10.6875 0.296875 5.421875 2 
L 5.421875 11.28125 
Q 10.40625 8.6875 15.234375 7.390625 
Q 20.0625 6.109375 24.8125 6.109375 
Q 31.15625 6.109375 34.5625 8.28125 
Q 37.984375 10.453125 37.984375 14.40625 
Q 37.984375 18.0625 35.515625 20.015625 
Q 33.0625 21.96875 24.703125 23.78125 
L 21.578125 24.515625 
Q 13.234375 26.265625 9.515625 29.90625 
Q 5.8125 33.546875 5.8125 39.890625 
Q 5.8125 47.609375 11.28125 51.796875 
Q 16.75 56 26.8125 56 
Q 31.78125 56 36.171875 55.265625 
Q 40.578125 54.546875 44.28125 53.078125 
z
" id="DejaVuSans-115"/>
     <path id="DejaVuSans-32"/>
     <path d="M 34.28125 27.484375 
Q 23.390625 27.484375 19.1875 25 
Q 14.984375 22.515625 14.984375 16.5 
Q 14.984375 11.71875 18.140625 8.90625 
Q 21.296875 6.109375 26.703125 6.109375 
Q 34.1875 6.109375 38.703125 11.40625 
Q 43.21875 16.703125 43.21875 25.484375 
L 43.21875 27.484375 
z
M 52.203125 31.203125 
L 52.203125 0 
L 43.21875 0 
L 43.21875 8.296875 
Q 40.140625 3.328125 35.546875 0.953125 
Q 30.953125 -1.421875 24.3125 -1.421875 
Q 15.921875 -1.421875 10.953125 3.296875 
Q 6 8.015625 6 15.921875 
Q 6 25.140625 12.171875 29.828125 
Q 18.359375 34.515625 30.609375 34.515625 
L 43.21875 34.515625 
L 43.21875 35.40625 
Q 43.21875 41.609375 39.140625 45 
Q 35.0625 48.390625 27.6875 48.390625 
Q 23 48.390625 18.546875 47.265625 
Q 14.109375 46.140625 10.015625 43.890625 
L 10.015625 52.203125 
Q 14.9375 54.109375 19.578125 55.046875 
Q 24.21875 56 28.609375 56 
Q 40.484375 56 46.34375 49.84375 
Q 52.203125 43.703125 52.203125 31.203125 
z
" id="DejaVuSans-97"/>
     <path d="M 45.40625 46.390625 
L 45.40625 75.984375 
L 54.390625 75.984375 
L 54.390625 0 
L 45.40625 0 
L 45.40625 8.203125 
Q 42.578125 3.328125 38.25 0.953125 
Q 33.9375 -1.421875 27.875 -1.421875 
Q 17.96875 -1.421875 11.734375 6.484375 
Q 5.515625 14.40625 5.515625 27.296875 
Q 5.515625 40.1875 11.734375 48.09375 
Q 17.96875 56 27.875 56 
Q 33.9375 56 38.25 53.625 
Q 42.578125 51.265625 45.40625 46.390625 
z
M 14.796875 27.296875 
Q 14.796875 17.390625 18.875 11.75 
Q 22.953125 6.109375 30.078125 6.109375 
Q 37.203125 6.109375 41.296875 11.75 
Q 45.40625 17.390625 45.40625 27.296875 
Q 45.40625 37.203125 41.296875 42.84375 
Q 37.203125 48.484375 30.078125 48.484375 
Q 22.953125 48.484375 18.875 42.84375 
Q 14.796875 37.203125 14.796875 27.296875 
z
" id="DejaVuSans-100"/>
     <path d="M 48.6875 27.296875 
Q 48.6875 37.203125 44.609375 42.84375 
Q 40.53125 48.484375 33.40625 48.484375 
Q 26.265625 48.484375 22.1875 42.84375 
Q 18.109375 37.203125 18.109375 27.296875 
Q 18.109375 17.390625 22.1875 11.75 
Q 26.265625 6.109375 33.40625 6.109375 
Q 40.53125 6.109375 44.609375 11.75 
Q 48.6875 17.390625 48.6875 27.296875 
z
M 18.109375 46.390625 
Q 20.953125 51.265625 25.265625 53.625 
Q 29.59375 56 35.59375 56 
Q 45.5625 56 51.78125 48.09375 
Q 58.015625 40.1875 58.015625 27.296875 
Q 58.015625 14.40625 51.78125 6.484375 
Q 45.5625 -1.421875 35.59375 -1.421875 
Q 29.59375 -1.421875 25.265625 0.953125 
Q 20.953125 3.328125 18.109375 8.203125 
L 18.109375 0 
L 9.078125 0 
L 9.078125 75.984375 
L 18.109375 75.984375 
z
" id="DejaVuSans-98"/>
     <path d="M 56.203125 29.59375 
L 56.203125 25.203125 
L 14.890625 25.203125 
Q 15.484375 15.921875 20.484375 11.0625 
Q 25.484375 6.203125 34.421875 6.203125 
Q 39.59375 6.203125 44.453125 7.46875 
Q 49.3125 8.734375 54.109375 11.28125 
L 54.109375 2.78125 
Q 49.265625 0.734375 44.1875 -0.34375 
Q 39.109375 -1.421875 33.890625 -1.421875 
Q 20.796875 -1.421875 13.15625 6.1875 
Q 5.515625 13.8125 5.515625 26.8125 
Q 5.515625 40.234375 12.765625 48.109375 
Q 20.015625 56 32.328125 56 
Q 43.359375 56 49.78125 48.890625 
Q 56.203125 41.796875 56.203125 29.59375 
z
M 47.21875 32.234375 
Q 47.125 39.59375 43.09375 43.984375 
Q 39.0625 48.390625 32.421875 48.390625 
Q 24.90625 48.390625 20.390625 44.140625 
Q 15.875 39.890625 15.1875 32.171875 
z
" id="DejaVuSans-101"/>
     <path d="M 41.109375 46.296875 
Q 39.59375 47.171875 37.8125 47.578125 
Q 36.03125 48 33.890625 48 
Q 26.265625 48 22.1875 43.046875 
Q 18.109375 38.09375 18.109375 28.8125 
L 18.109375 0 
L 9.078125 0 
L 9.078125 54.6875 
L 18.109375 54.6875 
L 18.109375 46.1875 
Q 20.953125 51.171875 25.484375 53.578125 
Q 30.03125 56 36.53125 56 
Q 37.453125 56 38.578125 55.875 
Q 39.703125 55.765625 41.0625 55.515625 
z
" id="DejaVuSans-114"/>
     <path d="M 2.984375 54.6875 
L 12.5 54.6875 
L 29.59375 8.796875 
L 46.6875 54.6875 
L 56.203125 54.6875 
L 35.6875 0 
L 23.484375 0 
z
" id="DejaVuSans-118"/>
     <path d="M 52 44.1875 
Q 55.375 50.25 60.0625 53.125 
Q 64.75 56 71.09375 56 
Q 79.640625 56 84.28125 50.015625 
Q 88.921875 44.046875 88.921875 33.015625 
L 88.921875 0 
L 79.890625 0 
L 79.890625 32.71875 
Q 79.890625 40.578125 77.09375 44.375 
Q 74.3125 48.1875 68.609375 48.1875 
Q 61.625 48.1875 57.5625 43.546875 
Q 53.515625 38.921875 53.515625 30.90625 
L 53.515625 0 
L 44.484375 0 
L 44.484375 32.71875 
Q 44.484375 40.625 41.703125 44.40625 
Q 38.921875 48.1875 33.109375 48.1875 
Q 26.21875 48.1875 22.15625 43.53125 
Q 18.109375 38.875 18.109375 30.90625 
L 18.109375 0 
L 9.078125 0 
L 9.078125 54.6875 
L 18.109375 54.6875 
L 18.109375 46.1875 
Q 21.1875 51.21875 25.484375 53.609375 
Q 29.78125 56 35.6875 56 
Q 41.65625 56 45.828125 52.96875 
Q 50 49.953125 52 44.1875 
z
" id="DejaVuSans-109"/>
     <path d="M 18.109375 8.203125 
L 18.109375 -20.796875 
L 9.078125 -20.796875 
L 9.078125 54.6875 
L 18.109375 54.6875 
L 18.109375 46.390625 
Q 20.953125 51.265625 25.265625 53.625 
Q 29.59375 56 35.59375 56 
Q 45.5625 56 51.78125 48.09375 
Q 58.015625 40.1875 58.015625 27.296875 
Q 58.015625 14.40625 51.78125 6.484375 
Q 45.5625 -1.421875 35.59375 -1.421875 
Q 29.59375 -1.421875 25.265625 0.953125 
Q 20.953125 3.328125 18.109375 8.203125 
z
M 48.6875 27.296875 
Q 48.6875 37.203125 44.609375 42.84375 
Q 40.53125 48.484375 33.40625 48.484375 
Q 26.265625 48.484375 22.1875 42.84375 
Q 18.109375 37.203125 18.109375 27.296875 
Q 18.109375 17.390625 22.1875 11.75 
Q 26.265625 6.109375 33.40625 6.109375 
Q 40.53125 6.109375 44.609375 11.75 
Q 48.6875 17.390625 48.6875 27.296875 
z
" id="DejaVuSans-112"/>
     <path d="M 9.421875 75.984375 
L 18.40625 75.984375 
L 18.40625 0 
L 9.421875 0 
z
" id="DejaVuSans-108"/>
     <path d="M 37.109375 75.984375 
L 37.109375 68.5 
L 28.515625 68.5 
Q 23.6875 68.5 21.796875 66.546875 
Q 19.921875 64.59375 19.921875 59.515625 
L 19.921875 54.6875 
L 34.71875 54.6875 
L 34.71875 47.703125 
L 19.921875 47.703125 
L 19.921875 0 
L 10.890625 0 
L 10.890625 47.703125 
L 2.296875 47.703125 
L 2.296875 54.6875 
L 10.890625 54.6875 
L 10.890625 58.5 
Q 10.890625 67.625 15.140625 71.796875 
Q 19.390625 75.984375 28.609375 75.984375 
z
" id="DejaVuSans-102"/>
    </defs>
    <use xlink:href="#DejaVuSans-70"/>
    <use x="52.019531" xlink:href="#DejaVuSans-117"/>
    <use x="115.398438" xlink:href="#DejaVuSans-110"/>
    <use x="178.777344" xlink:href="#DejaVuSans-99"/>
    <use x="233.757812" xlink:href="#DejaVuSans-116"/>
    <use x="272.966797" xlink:href="#DejaVuSans-105"/>
    <use x="300.75" xlink:href="#DejaVuSans-111"/>
    <use x="361.931641" xlink:href="#DejaVuSans-110"/>
    <use x="425.310547" xlink:href="#DejaVuSans-115"/>
    <use x="477.410156" xlink:href="#DejaVuSans-32"/>
    <use x="509.197266" xlink:href="#DejaVuSans-97"/>
    <use x="570.476562" xlink:href="#DejaVuSans-110"/>
    <use x="633.855469" xlink:href="#DejaVuSans-100"/>
    <use x="697.332031" xlink:href="#DejaVuSans-32"/>
    <use x="729.119141" xlink:href="#DejaVuSans-111"/>
    <use x="790.300781" xlink:href="#DejaVuSans-98"/>
    <use x="853.777344" xlink:href="#DejaVuSans-115"/>
    <use x="905.876953" xlink:href="#DejaVuSans-101"/>
    <use x="967.400391" xlink:href="#DejaVuSans-114"/>
    <use x="1008.513672" xlink:href="#DejaVuSans-118"/>
    <use x="1067.693359" xlink:href="#DejaVuSans-101"/>
    <use x="1129.216797" xlink:href="#DejaVuSans-100"/>
    <use x="1192.693359" xlink:href="#DejaVuSans-32"/>
    <use x="1224.480469" xlink:href="#DejaVuSans-100"/>
    <use x="1287.957031" xlink:href="#DejaVuSans-97"/>
    <use x="1349.236328" xlink:href="#DejaVuSans-116"/>
    <use x="1388.445312" xlink:href="#DejaVuSans-97"/>
    <use x="1449.724609" xlink:href="#DejaVuSans-32"/>
    <use x="1481.511719" xlink:href="#DejaVuSans-115"/>
    <use x="1533.611328" xlink:href="#DejaVuSans-97"/>
    <use x="1594.890625" xlink:href="#DejaVuSans-109"/>
    <use x="1692.302734" xlink:href="#DejaVuSans-112"/>
    <use x="1755.779297" xlink:href="#DejaVuSans-108"/>
    <use x="1783.5625" xlink:href="#DejaVuSans-101"/>
    <use x="1845.085938" xlink:href="#DejaVuSans-100"/>
    <use x="1908.5625" xlink:href="#DejaVuSans-32"/>
    <use x="1940.349609" xlink:href="#DejaVuSans-102"/>
    <use x="1975.554688" xlink:href="#DejaVuSans-114"/>
    <use x="2014.417969" xlink:href="#DejaVuSans-111"/>
    <use x="2075.599609" xlink:href="#DejaVuSans-109"/>
    <use x="2173.011719" xlink:href="#DejaVuSans-32"/>
    <use x="2204.798828" xlink:href="#DejaVuSans-112"/>
    <use x="2268.275391" xlink:href="#DejaVuSans-114"/>
    <use x="2309.388672" xlink:href="#DejaVuSans-105"/>
    <use x="2337.171875" xlink:href="#DejaVuSans-111"/>
    <use x="2398.353516" xlink:href="#DejaVuSans-114"/>
   </g>
  </g>
 </g>
 <defs>
  <clipPath id="p190dbe35b3">
   <rect height="147.230323" width="147.25" x="28.942187" y="43.849677"/>
  </clipPath>
  <clipPath id="pf1721d8f9f">
   <rect height="147.230323" width="147.25" x="202.804688" y="43.849677"/>
  </clipPath>
  <clipPath id="p7445672bc3">
   <rect height="147.230323" width="147.25" x="376.667188" y="43.849677"/>
  </clipPath>
  <clipPath id="p37cf21fe4b">
   <rect height="147.230323" width="147.25" x="550.529688" y="43.849677"/>
  </clipPath>
 </defs>
</svg>
