<?xml version="1.0" encoding="utf-8" standalone="no"?>
<!DOCTYPE svg PUBLIC "-//W3C//DTD SVG 1.1//EN"
  "http://www.w3.org/Graphics/SVG/1.1/DTD/svg11.dtd">
<!-- Created with matplotlib (http://matplotlib.org/) -->
<svg height="278.600938pt" version="1.1" viewBox="0 0 424.74875 278.600938" width="424.74875pt" xmlns="http://www.w3.org/2000/svg" xmlns:xlink="http://www.w3.org/1999/xlink">
 <defs>
  <style type="text/css">
*{stroke-linecap:butt;stroke-linejoin:round;}
  </style>
 </defs>
 <g id="figure_1">
  <g id="patch_1">
   <path d="M 0 278.600938 
L 424.74875 278.600938 
L 424.74875 0 
L 0 0 
z
" style="fill:none;"/>
  </g>
  <g id="axes_1">
   <g id="patch_2">
    <path d="M 68.52375 235.237813 
L 210.82375 235.237813 
L 210.82375 23.837812 
L 68.52375 23.837812 
z
" style="fill:#ffffff;"/>
   </g>
   <g id="PathCollection_1">
    <defs>
     <path d="M -3 3 
L 3 -3 
M -3 -3 
L 3 3 
" id="mbb89043ba9" style="stroke:#ff0000;stroke-width:1.5;"/>
    </defs>
    <g clip-path="url(#p3cd0a23a49)">
     <use style="fill:#ff0000;stroke:#ff0000;stroke-width:1.5;" x="150.478755" xlink:href="#mbb89043ba9" y="207.365391"/>
     <use style="fill:#ff0000;stroke:#ff0000;stroke-width:1.5;" x="112.912346" xlink:href="#mbb89043ba9" y="36.292419"/>
     <use style="fill:#ff0000;stroke:#ff0000;stroke-width:1.5;" x="101.523425" xlink:href="#mbb89043ba9" y="84.023473"/>
     <use style="fill:#ff0000;stroke:#ff0000;stroke-width:1.5;" x="95.208678" xlink:href="#mbb89043ba9" y="138.83323"/>
     <use style="fill:#ff0000;stroke:#ff0000;stroke-width:1.5;" x="178.999985" xlink:href="#mbb89043ba9" y="161.330499"/>
     <use style="fill:#ff0000;stroke:#ff0000;stroke-width:1.5;" x="95.340684" xlink:href="#mbb89043ba9" y="108.742399"/>
     <use style="fill:#ff0000;stroke:#ff0000;stroke-width:1.5;" x="122.61885" xlink:href="#mbb89043ba9" y="55.854462"/>
     <use style="fill:#ff0000;stroke:#ff0000;stroke-width:1.5;" x="99.037441" xlink:href="#mbb89043ba9" y="67.130466"/>
     <use style="fill:#ff0000;stroke:#ff0000;stroke-width:1.5;" x="182.517393" xlink:href="#mbb89043ba9" y="151.700543"/>
     <use style="fill:#ff0000;stroke:#ff0000;stroke-width:1.5;" x="132.619255" xlink:href="#mbb89043ba9" y="99.579556"/>
    </g>
   </g>
   <g id="matplotlib.axis_1">
    <g id="xtick_1">
     <g id="line2d_1">
      <defs>
       <path d="M 0 0 
L 0 3.5 
" id="mae71d0e727" style="stroke:#000000;stroke-width:0.8;"/>
      </defs>
      <g>
       <use style="stroke:#000000;stroke-width:0.8;" x="93.472451" xlink:href="#mae71d0e727" y="235.237813"/>
      </g>
     </g>
     <g id="text_1">
      <!-- 0 -->
      <defs>
       <path d="M 31.78125 66.40625 
Q 24.171875 66.40625 20.328125 58.90625 
Q 16.5 51.421875 16.5 36.375 
Q 16.5 21.390625 20.328125 13.890625 
Q 24.171875 6.390625 31.78125 6.390625 
Q 39.453125 6.390625 43.28125 13.890625 
Q 47.125 21.390625 47.125 36.375 
Q 47.125 51.421875 43.28125 58.90625 
Q 39.453125 66.40625 31.78125 66.40625 
z
M 31.78125 74.21875 
Q 44.046875 74.21875 50.515625 64.515625 
Q 56.984375 54.828125 56.984375 36.375 
Q 56.984375 17.96875 50.515625 8.265625 
Q 44.046875 -1.421875 31.78125 -1.421875 
Q 19.53125 -1.421875 13.0625 8.265625 
Q 6.59375 17.96875 6.59375 36.375 
Q 6.59375 54.828125 13.0625 64.515625 
Q 19.53125 74.21875 31.78125 74.21875 
z
" id="DejaVuSans-30"/>
      </defs>
      <g transform="translate(89.654951 251.355938)scale(0.12 -0.12)">
       <use xlink:href="#DejaVuSans-30"/>
      </g>
     </g>
    </g>
    <g id="xtick_2">
     <g id="line2d_2">
      <g>
       <use style="stroke:#000000;stroke-width:0.8;" x="185.875049" xlink:href="#mae71d0e727" y="235.237813"/>
      </g>
     </g>
     <g id="text_2">
      <!-- 1 -->
      <defs>
       <path d="M 12.40625 8.296875 
L 28.515625 8.296875 
L 28.515625 63.921875 
L 10.984375 60.40625 
L 10.984375 69.390625 
L 28.421875 72.90625 
L 38.28125 72.90625 
L 38.28125 8.296875 
L 54.390625 8.296875 
L 54.390625 0 
L 12.40625 0 
z
" id="DejaVuSans-31"/>
      </defs>
      <g transform="translate(182.057549 251.355938)scale(0.12 -0.12)">
       <use xlink:href="#DejaVuSans-31"/>
      </g>
     </g>
    </g>
    <g id="text_3">
     <!-- x -->
     <defs>
      <path d="M 54.890625 54.6875 
L 35.109375 28.078125 
L 55.90625 0 
L 45.3125 0 
L 29.390625 21.484375 
L 13.484375 0 
L 2.875 0 
L 24.125 28.609375 
L 4.6875 54.6875 
L 15.28125 54.6875 
L 29.78125 35.203125 
L 44.28125 54.6875 
z
" id="DejaVuSans-78"/>
     </defs>
     <g transform="translate(135.530625 268.489375)scale(0.14 -0.14)">
      <use xlink:href="#DejaVuSans-78"/>
     </g>
    </g>
   </g>
   <g id="matplotlib.axis_2">
    <g id="ytick_1">
     <g id="line2d_3">
      <defs>
       <path d="M 0 0 
L -3.5 0 
" id="m16ed17766c" style="stroke:#000000;stroke-width:0.8;"/>
      </defs>
      <g>
       <use style="stroke:#000000;stroke-width:0.8;" x="68.52375" xlink:href="#m16ed17766c" y="221.491582"/>
      </g>
     </g>
     <g id="text_4">
      <!-- −0.75 -->
      <defs>
       <path d="M 10.59375 35.5 
L 73.1875 35.5 
L 73.1875 27.203125 
L 10.59375 27.203125 
z
" id="DejaVuSans-2212"/>
       <path d="M 10.6875 12.40625 
L 21 12.40625 
L 21 0 
L 10.6875 0 
z
" id="DejaVuSans-2e"/>
       <path d="M 8.203125 72.90625 
L 55.078125 72.90625 
L 55.078125 68.703125 
L 28.609375 0 
L 18.3125 0 
L 43.21875 64.59375 
L 8.203125 64.59375 
z
" id="DejaVuSans-37"/>
       <path d="M 10.796875 72.90625 
L 49.515625 72.90625 
L 49.515625 64.59375 
L 19.828125 64.59375 
L 19.828125 46.734375 
Q 21.96875 47.46875 24.109375 47.828125 
Q 26.265625 48.1875 28.421875 48.1875 
Q 40.625 48.1875 47.75 41.5 
Q 54.890625 34.8125 54.890625 23.390625 
Q 54.890625 11.625 47.5625 5.09375 
Q 40.234375 -1.421875 26.90625 -1.421875 
Q 22.3125 -1.421875 17.546875 -0.640625 
Q 12.796875 0.140625 7.71875 1.703125 
L 7.71875 11.625 
Q 12.109375 9.234375 16.796875 8.0625 
Q 21.484375 6.890625 26.703125 6.890625 
Q 35.15625 6.890625 40.078125 11.328125 
Q 45.015625 15.765625 45.015625 23.390625 
Q 45.015625 31 40.078125 35.4375 
Q 35.15625 39.890625 26.703125 39.890625 
Q 22.75 39.890625 18.8125 39.015625 
Q 14.890625 38.140625 10.796875 36.28125 
z
" id="DejaVuSans-35"/>
      </defs>
      <g transform="translate(24.749375 226.050645)scale(0.12 -0.12)">
       <use xlink:href="#DejaVuSans-2212"/>
       <use x="83.789062" xlink:href="#DejaVuSans-30"/>
       <use x="147.412109" xlink:href="#DejaVuSans-2e"/>
       <use x="179.199219" xlink:href="#DejaVuSans-37"/>
       <use x="242.822266" xlink:href="#DejaVuSans-35"/>
      </g>
     </g>
    </g>
    <g id="ytick_2">
     <g id="line2d_4">
      <g>
       <use style="stroke:#000000;stroke-width:0.8;" x="68.52375" xlink:href="#m16ed17766c" y="193.460044"/>
      </g>
     </g>
     <g id="text_5">
      <!-- −0.50 -->
      <g transform="translate(24.749375 198.019107)scale(0.12 -0.12)">
       <use xlink:href="#DejaVuSans-2212"/>
       <use x="83.789062" xlink:href="#DejaVuSans-30"/>
       <use x="147.412109" xlink:href="#DejaVuSans-2e"/>
       <use x="179.199219" xlink:href="#DejaVuSans-35"/>
       <use x="242.822266" xlink:href="#DejaVuSans-30"/>
      </g>
     </g>
    </g>
    <g id="ytick_3">
     <g id="line2d_5">
      <g>
       <use style="stroke:#000000;stroke-width:0.8;" x="68.52375" xlink:href="#m16ed17766c" y="165.428506"/>
      </g>
     </g>
     <g id="text_6">
      <!-- −0.25 -->
      <defs>
       <path d="M 19.1875 8.296875 
L 53.609375 8.296875 
L 53.609375 0 
L 7.328125 0 
L 7.328125 8.296875 
Q 12.9375 14.109375 22.625 23.890625 
Q 32.328125 33.6875 34.8125 36.53125 
Q 39.546875 41.84375 41.421875 45.53125 
Q 43.3125 49.21875 43.3125 52.78125 
Q 43.3125 58.59375 39.234375 62.25 
Q 35.15625 65.921875 28.609375 65.921875 
Q 23.96875 65.921875 18.8125 64.3125 
Q 13.671875 62.703125 7.8125 59.421875 
L 7.8125 69.390625 
Q 13.765625 71.78125 18.9375 73 
Q 24.125 74.21875 28.421875 74.21875 
Q 39.75 74.21875 46.484375 68.546875 
Q 53.21875 62.890625 53.21875 53.421875 
Q 53.21875 48.921875 51.53125 44.890625 
Q 49.859375 40.875 45.40625 35.40625 
Q 44.1875 33.984375 37.640625 27.21875 
Q 31.109375 20.453125 19.1875 8.296875 
z
" id="DejaVuSans-32"/>
      </defs>
      <g transform="translate(24.749375 169.987569)scale(0.12 -0.12)">
       <use xlink:href="#DejaVuSans-2212"/>
       <use x="83.789062" xlink:href="#DejaVuSans-30"/>
       <use x="147.412109" xlink:href="#DejaVuSans-2e"/>
       <use x="179.199219" xlink:href="#DejaVuSans-32"/>
       <use x="242.822266" xlink:href="#DejaVuSans-35"/>
      </g>
     </g>
    </g>
    <g id="ytick_4">
     <g id="line2d_6">
      <g>
       <use style="stroke:#000000;stroke-width:0.8;" x="68.52375" xlink:href="#m16ed17766c" y="137.396968"/>
      </g>
     </g>
     <g id="text_7">
      <!-- 0.00 -->
      <g transform="translate(34.805 141.956031)scale(0.12 -0.12)">
       <use xlink:href="#DejaVuSans-30"/>
       <use x="63.623047" xlink:href="#DejaVuSans-2e"/>
       <use x="95.410156" xlink:href="#DejaVuSans-30"/>
       <use x="159.033203" xlink:href="#DejaVuSans-30"/>
      </g>
     </g>
    </g>
    <g id="ytick_5">
     <g id="line2d_7">
      <g>
       <use style="stroke:#000000;stroke-width:0.8;" x="68.52375" xlink:href="#m16ed17766c" y="109.36543"/>
      </g>
     </g>
     <g id="text_8">
      <!-- 0.25 -->
      <g transform="translate(34.805 113.924493)scale(0.12 -0.12)">
       <use xlink:href="#DejaVuSans-30"/>
       <use x="63.623047" xlink:href="#DejaVuSans-2e"/>
       <use x="95.410156" xlink:href="#DejaVuSans-32"/>
       <use x="159.033203" xlink:href="#DejaVuSans-35"/>
      </g>
     </g>
    </g>
    <g id="ytick_6">
     <g id="line2d_8">
      <g>
       <use style="stroke:#000000;stroke-width:0.8;" x="68.52375" xlink:href="#m16ed17766c" y="81.333892"/>
      </g>
     </g>
     <g id="text_9">
      <!-- 0.50 -->
      <g transform="translate(34.805 85.892955)scale(0.12 -0.12)">
       <use xlink:href="#DejaVuSans-30"/>
       <use x="63.623047" xlink:href="#DejaVuSans-2e"/>
       <use x="95.410156" xlink:href="#DejaVuSans-35"/>
       <use x="159.033203" xlink:href="#DejaVuSans-30"/>
      </g>
     </g>
    </g>
    <g id="ytick_7">
     <g id="line2d_9">
      <g>
       <use style="stroke:#000000;stroke-width:0.8;" x="68.52375" xlink:href="#m16ed17766c" y="53.302355"/>
      </g>
     </g>
     <g id="text_10">
      <!-- 0.75 -->
      <g transform="translate(34.805 57.861417)scale(0.12 -0.12)">
       <use xlink:href="#DejaVuSans-30"/>
       <use x="63.623047" xlink:href="#DejaVuSans-2e"/>
       <use x="95.410156" xlink:href="#DejaVuSans-37"/>
       <use x="159.033203" xlink:href="#DejaVuSans-35"/>
      </g>
     </g>
    </g>
    <g id="ytick_8">
     <g id="line2d_10">
      <g>
       <use style="stroke:#000000;stroke-width:0.8;" x="68.52375" xlink:href="#m16ed17766c" y="25.270817"/>
      </g>
     </g>
     <g id="text_11">
      <!-- 1.00 -->
      <g transform="translate(34.805 29.829879)scale(0.12 -0.12)">
       <use xlink:href="#DejaVuSans-31"/>
       <use x="63.623047" xlink:href="#DejaVuSans-2e"/>
       <use x="95.410156" xlink:href="#DejaVuSans-30"/>
       <use x="159.033203" xlink:href="#DejaVuSans-30"/>
      </g>
     </g>
    </g>
    <g id="text_12">
     <!-- y -->
     <defs>
      <path d="M 32.171875 -5.078125 
Q 28.375 -14.84375 24.75 -17.8125 
Q 21.140625 -20.796875 15.09375 -20.796875 
L 7.90625 -20.796875 
L 7.90625 -13.28125 
L 13.1875 -13.28125 
Q 16.890625 -13.28125 18.9375 -11.515625 
Q 21 -9.765625 23.484375 -3.21875 
L 25.09375 0.875 
L 2.984375 54.6875 
L 12.5 54.6875 
L 29.59375 11.921875 
L 46.6875 54.6875 
L 56.203125 54.6875 
z
" id="DejaVuSans-79"/>
     </defs>
     <g transform="translate(17.837813 133.680937)rotate(-90)scale(0.14 -0.14)">
      <use xlink:href="#DejaVuSans-79"/>
     </g>
    </g>
   </g>
   <g id="line2d_11">
    <path clip-path="url(#p3cd0a23a49)" d="M 74.991932 188.126152 
L 76.298635 187.86517 
L 77.605339 187.053011 
L 78.912042 185.649623 
L 80.218745 183.621761 
L 81.525449 180.944292 
L 82.832152 177.601396 
L 84.138856 173.587635 
L 85.445559 168.908849 
L 86.752262 163.582825 
L 88.058966 157.639727 
L 89.365669 151.122233 
L 90.672373 144.085385 
L 91.979076 136.596114 
L 93.285779 128.732451 
L 94.592483 120.582428 
L 95.899186 112.242684 
L 97.20589 103.816809 
L 98.512593 95.413451 
L 99.819296 87.144254 
L 101.126 79.121659 
L 102.432703 71.456642 
L 103.739407 64.256449 
L 105.04611 57.622395 
L 106.352813 51.647788 
L 107.659517 46.416046 
L 108.96622 41.999054 
L 110.272924 38.455822 
L 111.579627 35.83147 
L 112.88633 34.156577 
L 114.193034 33.446903 
L 115.499737 33.703485 
L 116.806441 34.9131 
L 118.113144 37.049074 
L 119.419847 40.072387 
L 120.726551 43.933041 
L 122.033254 48.571637 
L 123.339958 53.921087 
L 124.646661 59.908408 
L 125.953364 66.456538 
L 127.260068 73.486093 
L 128.566771 80.91702 
L 129.873475 88.670095 
L 131.180178 96.668209 
L 132.486881 104.837426 
L 133.793585 113.107783 
L 135.100288 121.413822 
L 136.406992 129.694862 
L 137.713695 137.895025 
L 139.020398 145.963043 
L 140.327102 153.851878 
L 141.633805 161.518204 
L 142.940508 168.92179 
L 144.247212 176.024849 
L 145.553915 182.791386 
L 146.860619 189.186613 
L 148.167322 195.176451 
L 149.474025 200.727191 
L 150.780729 205.805301 
L 152.087432 210.377437 
L 153.394136 214.410639 
L 154.700839 217.872724 
L 156.007542 220.732862 
L 157.314246 222.962303 
L 158.620949 224.535236 
L 159.927653 225.42973 
L 161.234356 225.628722 
L 162.541059 225.120993 
L 163.847763 223.902101 
L 165.154466 221.9752 
L 166.46117 219.351724 
L 167.767873 216.051881 
L 169.074576 212.104936 
L 170.38128 207.549254 
L 171.687983 202.432092 
L 172.994687 196.809136 
L 174.30139 190.743785 
L 175.608093 184.306215 
L 176.914797 177.57222 
L 178.2215 170.62189 
L 179.528204 163.538154 
L 180.834907 156.405228 
L 182.14161 149.307019 
L 183.448314 142.325543 
L 184.755017 135.539385 
L 186.061721 129.022261 
L 187.368424 122.841712 
L 188.675127 117.057976 
L 189.981831 111.723056 
L 191.288534 106.880005 
L 192.595238 102.562449 
L 193.901941 98.794344 
L 195.208644 95.589967 
L 196.515348 92.954134 
L 197.822051 90.882617 
L 199.128755 89.362755 
L 200.435458 88.374216 
L 201.742161 87.889883 
L 203.048865 87.876849 
L 204.355568 88.297454 
" style="fill:none;stroke:#000000;stroke-linecap:square;stroke-width:1.5;"/>
   </g>
   <g id="patch_3">
    <path d="M 68.52375 235.237813 
L 68.52375 23.837812 
" style="fill:none;stroke:#000000;stroke-linecap:square;stroke-linejoin:miter;stroke-width:0.8;"/>
   </g>
   <g id="patch_4">
    <path d="M 210.82375 235.237813 
L 210.82375 23.837812 
" style="fill:none;stroke:#000000;stroke-linecap:square;stroke-linejoin:miter;stroke-width:0.8;"/>
   </g>
   <g id="patch_5">
    <path d="M 68.52375 235.237813 
L 210.82375 235.237813 
" style="fill:none;stroke:#000000;stroke-linecap:square;stroke-linejoin:miter;stroke-width:0.8;"/>
   </g>
   <g id="patch_6">
    <path d="M 68.52375 23.837812 
L 210.82375 23.837812 
" style="fill:none;stroke:#000000;stroke-linecap:square;stroke-linejoin:miter;stroke-width:0.8;"/>
   </g>
   <g id="text_13">
    <!-- Gaussain fit (D = 5) -->
    <defs>
     <path d="M 59.515625 10.40625 
L 59.515625 29.984375 
L 43.40625 29.984375 
L 43.40625 38.09375 
L 69.28125 38.09375 
L 69.28125 6.78125 
Q 63.578125 2.734375 56.6875 0.65625 
Q 49.8125 -1.421875 42 -1.421875 
Q 24.90625 -1.421875 15.25 8.5625 
Q 5.609375 18.5625 5.609375 36.375 
Q 5.609375 54.25 15.25 64.234375 
Q 24.90625 74.21875 42 74.21875 
Q 49.125 74.21875 55.546875 72.453125 
Q 61.96875 70.703125 67.390625 67.28125 
L 67.390625 56.78125 
Q 61.921875 61.421875 55.765625 63.765625 
Q 49.609375 66.109375 42.828125 66.109375 
Q 29.4375 66.109375 22.71875 58.640625 
Q 16.015625 51.171875 16.015625 36.375 
Q 16.015625 21.625 22.71875 14.15625 
Q 29.4375 6.6875 42.828125 6.6875 
Q 48.046875 6.6875 52.140625 7.59375 
Q 56.25 8.5 59.515625 10.40625 
z
" id="DejaVuSans-47"/>
     <path d="M 34.28125 27.484375 
Q 23.390625 27.484375 19.1875 25 
Q 14.984375 22.515625 14.984375 16.5 
Q 14.984375 11.71875 18.140625 8.90625 
Q 21.296875 6.109375 26.703125 6.109375 
Q 34.1875 6.109375 38.703125 11.40625 
Q 43.21875 16.703125 43.21875 25.484375 
L 43.21875 27.484375 
z
M 52.203125 31.203125 
L 52.203125 0 
L 43.21875 0 
L 43.21875 8.296875 
Q 40.140625 3.328125 35.546875 0.953125 
Q 30.953125 -1.421875 24.3125 -1.421875 
Q 15.921875 -1.421875 10.953125 3.296875 
Q 6 8.015625 6 15.921875 
Q 6 25.140625 12.171875 29.828125 
Q 18.359375 34.515625 30.609375 34.515625 
L 43.21875 34.515625 
L 43.21875 35.40625 
Q 43.21875 41.609375 39.140625 45 
Q 35.0625 48.390625 27.6875 48.390625 
Q 23 48.390625 18.546875 47.265625 
Q 14.109375 46.140625 10.015625 43.890625 
L 10.015625 52.203125 
Q 14.9375 54.109375 19.578125 55.046875 
Q 24.21875 56 28.609375 56 
Q 40.484375 56 46.34375 49.84375 
Q 52.203125 43.703125 52.203125 31.203125 
z
" id="DejaVuSans-61"/>
     <path d="M 8.5 21.578125 
L 8.5 54.6875 
L 17.484375 54.6875 
L 17.484375 21.921875 
Q 17.484375 14.15625 20.5 10.265625 
Q 23.53125 6.390625 29.59375 6.390625 
Q 36.859375 6.390625 41.078125 11.03125 
Q 45.3125 15.671875 45.3125 23.6875 
L 45.3125 54.6875 
L 54.296875 54.6875 
L 54.296875 0 
L 45.3125 0 
L 45.3125 8.40625 
Q 42.046875 3.421875 37.71875 1 
Q 33.40625 -1.421875 27.6875 -1.421875 
Q 18.265625 -1.421875 13.375 4.4375 
Q 8.5 10.296875 8.5 21.578125 
z
M 31.109375 56 
z
" id="DejaVuSans-75"/>
     <path d="M 44.28125 53.078125 
L 44.28125 44.578125 
Q 40.484375 46.53125 36.375 47.5 
Q 32.28125 48.484375 27.875 48.484375 
Q 21.1875 48.484375 17.84375 46.4375 
Q 14.5 44.390625 14.5 40.28125 
Q 14.5 37.15625 16.890625 35.375 
Q 19.28125 33.59375 26.515625 31.984375 
L 29.59375 31.296875 
Q 39.15625 29.25 43.1875 25.515625 
Q 47.21875 21.78125 47.21875 15.09375 
Q 47.21875 7.46875 41.1875 3.015625 
Q 35.15625 -1.421875 24.609375 -1.421875 
Q 20.21875 -1.421875 15.453125 -0.5625 
Q 10.6875 0.296875 5.421875 2 
L 5.421875 11.28125 
Q 10.40625 8.6875 15.234375 7.390625 
Q 20.0625 6.109375 24.8125 6.109375 
Q 31.15625 6.109375 34.5625 8.28125 
Q 37.984375 10.453125 37.984375 14.40625 
Q 37.984375 18.0625 35.515625 20.015625 
Q 33.0625 21.96875 24.703125 23.78125 
L 21.578125 24.515625 
Q 13.234375 26.265625 9.515625 29.90625 
Q 5.8125 33.546875 5.8125 39.890625 
Q 5.8125 47.609375 11.28125 51.796875 
Q 16.75 56 26.8125 56 
Q 31.78125 56 36.171875 55.265625 
Q 40.578125 54.546875 44.28125 53.078125 
z
" id="DejaVuSans-73"/>
     <path d="M 9.421875 54.6875 
L 18.40625 54.6875 
L 18.40625 0 
L 9.421875 0 
z
M 9.421875 75.984375 
L 18.40625 75.984375 
L 18.40625 64.59375 
L 9.421875 64.59375 
z
" id="DejaVuSans-69"/>
     <path d="M 54.890625 33.015625 
L 54.890625 0 
L 45.90625 0 
L 45.90625 32.71875 
Q 45.90625 40.484375 42.875 44.328125 
Q 39.84375 48.1875 33.796875 48.1875 
Q 26.515625 48.1875 22.3125 43.546875 
Q 18.109375 38.921875 18.109375 30.90625 
L 18.109375 0 
L 9.078125 0 
L 9.078125 54.6875 
L 18.109375 54.6875 
L 18.109375 46.1875 
Q 21.34375 51.125 25.703125 53.5625 
Q 30.078125 56 35.796875 56 
Q 45.21875 56 50.046875 50.171875 
Q 54.890625 44.34375 54.890625 33.015625 
z
" id="DejaVuSans-6e"/>
     <path id="DejaVuSans-20"/>
     <path d="M 37.109375 75.984375 
L 37.109375 68.5 
L 28.515625 68.5 
Q 23.6875 68.5 21.796875 66.546875 
Q 19.921875 64.59375 19.921875 59.515625 
L 19.921875 54.6875 
L 34.71875 54.6875 
L 34.71875 47.703125 
L 19.921875 47.703125 
L 19.921875 0 
L 10.890625 0 
L 10.890625 47.703125 
L 2.296875 47.703125 
L 2.296875 54.6875 
L 10.890625 54.6875 
L 10.890625 58.5 
Q 10.890625 67.625 15.140625 71.796875 
Q 19.390625 75.984375 28.609375 75.984375 
z
" id="DejaVuSans-66"/>
     <path d="M 18.3125 70.21875 
L 18.3125 54.6875 
L 36.8125 54.6875 
L 36.8125 47.703125 
L 18.3125 47.703125 
L 18.3125 18.015625 
Q 18.3125 11.328125 20.140625 9.421875 
Q 21.96875 7.515625 27.59375 7.515625 
L 36.8125 7.515625 
L 36.8125 0 
L 27.59375 0 
Q 17.1875 0 13.234375 3.875 
Q 9.28125 7.765625 9.28125 18.015625 
L 9.28125 47.703125 
L 2.6875 47.703125 
L 2.6875 54.6875 
L 9.28125 54.6875 
L 9.28125 70.21875 
z
" id="DejaVuSans-74"/>
     <path d="M 31 75.875 
Q 24.46875 64.65625 21.28125 53.65625 
Q 18.109375 42.671875 18.109375 31.390625 
Q 18.109375 20.125 21.3125 9.0625 
Q 24.515625 -2 31 -13.1875 
L 23.1875 -13.1875 
Q 15.875 -1.703125 12.234375 9.375 
Q 8.59375 20.453125 8.59375 31.390625 
Q 8.59375 42.28125 12.203125 53.3125 
Q 15.828125 64.359375 23.1875 75.875 
z
" id="DejaVuSans-28"/>
     <path d="M 19.671875 64.796875 
L 19.671875 8.109375 
L 31.59375 8.109375 
Q 46.6875 8.109375 53.6875 14.9375 
Q 60.6875 21.78125 60.6875 36.53125 
Q 60.6875 51.171875 53.6875 57.984375 
Q 46.6875 64.796875 31.59375 64.796875 
z
M 9.8125 72.90625 
L 30.078125 72.90625 
Q 51.265625 72.90625 61.171875 64.09375 
Q 71.09375 55.28125 71.09375 36.53125 
Q 71.09375 17.671875 61.125 8.828125 
Q 51.171875 0 30.078125 0 
L 9.8125 0 
z
" id="DejaVuSans-44"/>
     <path d="M 10.59375 45.40625 
L 73.1875 45.40625 
L 73.1875 37.203125 
L 10.59375 37.203125 
z
M 10.59375 25.484375 
L 73.1875 25.484375 
L 73.1875 17.1875 
L 10.59375 17.1875 
z
" id="DejaVuSans-3d"/>
     <path d="M 8.015625 75.875 
L 15.828125 75.875 
Q 23.140625 64.359375 26.78125 53.3125 
Q 30.421875 42.28125 30.421875 31.390625 
Q 30.421875 20.453125 26.78125 9.375 
Q 23.140625 -1.703125 15.828125 -13.1875 
L 8.015625 -13.1875 
Q 14.5 -2 17.703125 9.0625 
Q 20.90625 20.125 20.90625 31.390625 
Q 20.90625 42.671875 17.703125 53.65625 
Q 14.5 64.65625 8.015625 75.875 
z
" id="DejaVuSans-29"/>
    </defs>
    <g transform="translate(70.336562 17.837812)scale(0.14 -0.14)">
     <use xlink:href="#DejaVuSans-47"/>
     <use x="77.490234" xlink:href="#DejaVuSans-61"/>
     <use x="138.769531" xlink:href="#DejaVuSans-75"/>
     <use x="202.148438" xlink:href="#DejaVuSans-73"/>
     <use x="254.248047" xlink:href="#DejaVuSans-73"/>
     <use x="306.347656" xlink:href="#DejaVuSans-61"/>
     <use x="367.626953" xlink:href="#DejaVuSans-69"/>
     <use x="395.410156" xlink:href="#DejaVuSans-6e"/>
     <use x="458.789062" xlink:href="#DejaVuSans-20"/>
     <use x="490.576172" xlink:href="#DejaVuSans-66"/>
     <use x="525.78125" xlink:href="#DejaVuSans-69"/>
     <use x="553.564453" xlink:href="#DejaVuSans-74"/>
     <use x="592.773438" xlink:href="#DejaVuSans-20"/>
     <use x="624.560547" xlink:href="#DejaVuSans-28"/>
     <use x="663.574219" xlink:href="#DejaVuSans-44"/>
     <use x="740.576172" xlink:href="#DejaVuSans-20"/>
     <use x="772.363281" xlink:href="#DejaVuSans-3d"/>
     <use x="856.152344" xlink:href="#DejaVuSans-20"/>
     <use x="887.939453" xlink:href="#DejaVuSans-35"/>
     <use x="951.5625" xlink:href="#DejaVuSans-29"/>
    </g>
   </g>
  </g>
  <g id="axes_2">
   <g id="patch_7">
    <path d="M 271.74875 235.237813 
L 414.04875 235.237813 
L 414.04875 23.837812 
L 271.74875 23.837812 
z
" style="fill:#ffffff;"/>
   </g>
   <g id="matplotlib.axis_3">
    <g id="xtick_3">
     <g id="line2d_12">
      <g>
       <use style="stroke:#000000;stroke-width:0.8;" x="296.697451" xlink:href="#mae71d0e727" y="235.237813"/>
      </g>
     </g>
     <g id="text_14">
      <!-- 0 -->
      <g transform="translate(292.879951 251.355938)scale(0.12 -0.12)">
       <use xlink:href="#DejaVuSans-30"/>
      </g>
     </g>
    </g>
    <g id="xtick_4">
     <g id="line2d_13">
      <g>
       <use style="stroke:#000000;stroke-width:0.8;" x="389.100049" xlink:href="#mae71d0e727" y="235.237813"/>
      </g>
     </g>
     <g id="text_15">
      <!-- 1 -->
      <g transform="translate(385.282549 251.355938)scale(0.12 -0.12)">
       <use xlink:href="#DejaVuSans-31"/>
      </g>
     </g>
    </g>
    <g id="text_16">
     <!-- x -->
     <g transform="translate(338.755625 268.489375)scale(0.14 -0.14)">
      <use xlink:href="#DejaVuSans-78"/>
     </g>
    </g>
   </g>
   <g id="matplotlib.axis_4">
    <g id="ytick_9">
     <g id="line2d_14">
      <g>
       <use style="stroke:#000000;stroke-width:0.8;" x="271.74875" xlink:href="#m16ed17766c" y="231.033927"/>
      </g>
     </g>
     <g id="text_17">
      <!-- −2 -->
      <g transform="translate(247.058125 235.59299)scale(0.12 -0.12)">
       <use xlink:href="#DejaVuSans-2212"/>
       <use x="83.789062" xlink:href="#DejaVuSans-32"/>
      </g>
     </g>
    </g>
    <g id="ytick_10">
     <g id="line2d_15">
      <g>
       <use style="stroke:#000000;stroke-width:0.8;" x="271.74875" xlink:href="#m16ed17766c" y="187.65729"/>
      </g>
     </g>
     <g id="text_18">
      <!-- −1 -->
      <g transform="translate(247.058125 192.216352)scale(0.12 -0.12)">
       <use xlink:href="#DejaVuSans-2212"/>
       <use x="83.789062" xlink:href="#DejaVuSans-31"/>
      </g>
     </g>
    </g>
    <g id="ytick_11">
     <g id="line2d_16">
      <g>
       <use style="stroke:#000000;stroke-width:0.8;" x="271.74875" xlink:href="#m16ed17766c" y="144.280652"/>
      </g>
     </g>
     <g id="text_19">
      <!-- 0 -->
      <g transform="translate(257.11375 148.839715)scale(0.12 -0.12)">
       <use xlink:href="#DejaVuSans-30"/>
      </g>
     </g>
    </g>
    <g id="ytick_12">
     <g id="line2d_17">
      <g>
       <use style="stroke:#000000;stroke-width:0.8;" x="271.74875" xlink:href="#m16ed17766c" y="100.904015"/>
      </g>
     </g>
     <g id="text_20">
      <!-- 1 -->
      <g transform="translate(257.11375 105.463078)scale(0.12 -0.12)">
       <use xlink:href="#DejaVuSans-31"/>
      </g>
     </g>
    </g>
    <g id="ytick_13">
     <g id="line2d_18">
      <g>
       <use style="stroke:#000000;stroke-width:0.8;" x="271.74875" xlink:href="#m16ed17766c" y="57.527378"/>
      </g>
     </g>
     <g id="text_21">
      <!-- 2 -->
      <g transform="translate(257.11375 62.08644)scale(0.12 -0.12)">
       <use xlink:href="#DejaVuSans-32"/>
      </g>
     </g>
    </g>
    <g id="text_22">
     <!-- $w_d  \phi_d(x)$ -->
     <defs>
      <path d="M 40.296875 42.59375 
L 43.5 7.40625 
Q 53.40625 19.703125 56.703125 24.953125 
Q 60 30.203125 60 33.40625 
Q 60 34.796875 57.796875 36.90625 
Q 55.703125 38.90625 55.703125 41 
Q 55.703125 42.203125 56.84375 43.140625 
Q 58 44.09375 59.59375 44.09375 
Q 61.796875 44.09375 63.296875 42.5 
Q 64.796875 40.90625 64.796875 38.5 
Q 64.796875 29.40625 43.59375 3.59375 
L 42.703125 2.5 
Q 39.203125 -1.796875 38.203125 -1.796875 
Q 37.40625 -1.796875 37.09375 1.703125 
L 34.203125 32.703125 
L 25.296875 17.5 
Q 23 13.703125 19.796875 7.59375 
Q 14.90625 -1.796875 13.40625 -1.796875 
Q 12.703125 -1.796875 12.5 -0.890625 
Q 12.296875 0 12.09375 2.90625 
L 11.703125 12 
Q 10.90625 28.40625 9 36.203125 
Q 8.296875 38.90625 7.4375 39.65625 
Q 6.59375 40.40625 4.296875 40.40625 
L 1.5 40.40625 
L 1.5 41.703125 
Q 9.40625 43 11 43.40625 
Q 11.5 43.5 12.140625 43.703125 
Q 12.796875 43.90625 13.1875 44 
Q 13.59375 44.09375 13.90625 44.09375 
Q 14.703125 44.09375 15 43.59375 
Q 15.296875 43.09375 15.796875 40.703125 
Q 18.296875 28.703125 19 12.59375 
L 38.203125 43 
Q 38.796875 44 39.5 44 
Q 40.296875 44 40.296875 42.59375 
z
" id="STIXGeneral-Italic-77"/>
      <path d="M 52.09375 68.296875 
L 52.703125 67.703125 
L 48.796875 52.5 
L 42.796875 30.59375 
Q 36.296875 6.703125 36.296875 6 
Q 36.296875 4 38.09375 4 
Q 39.40625 4 40.84375 5.25 
Q 42.296875 6.5 46.296875 11.09375 
L 47.5 10.09375 
Q 39.796875 -1.296875 32.796875 -1.296875 
Q 30.90625 -1.296875 29.796875 -0.09375 
Q 28.703125 1.09375 28.703125 3.203125 
Q 28.703125 6.203125 30 12.09375 
Q 25.703125 4.796875 21.546875 1.84375 
Q 17.40625 -1.09375 12.203125 -1.09375 
Q 7.203125 -1.09375 4.34375 1.953125 
Q 1.5 5 1.5 10.59375 
Q 1.5 22.5 11.140625 33.296875 
Q 20.796875 44.09375 30.703125 44.09375 
Q 33.796875 44.09375 35.25 42.6875 
Q 36.703125 41.296875 37.203125 38.296875 
L 37.296875 38.296875 
L 41.796875 54.59375 
Q 43.203125 59.5 43.203125 61.703125 
Q 43.203125 63.296875 42.09375 63.6875 
Q 41 64.09375 36.796875 64.296875 
L 36.796875 66 
Q 44.5 66.703125 52.09375 68.296875 
z
M 35.59375 36.09375 
Q 35.59375 38.703125 34.140625 40.25 
Q 32.703125 41.796875 30.90625 41.796875 
Q 26.203125 41.796875 21.796875 37.203125 
Q 16.796875 31.90625 13.5 24.546875 
Q 10.203125 17.203125 10.203125 11 
Q 10.203125 7.59375 11.75 5.640625 
Q 13.296875 3.703125 16 3.703125 
Q 20.5 3.703125 25.09375 8.59375 
Q 29.703125 13.5 32.640625 21.09375 
Q 35.59375 28.703125 35.59375 36.09375 
z
" id="STIXGeneral-Italic-64"/>
      <path d="M 48.09375 68.296875 
L 41.40625 44.09375 
Q 48.40625 44.09375 51.5 42.90625 
Q 59.5 39.796875 59.5 30.296875 
Q 59.5 26.703125 58.25 22.59375 
Q 57 18.5 54.390625 14.296875 
Q 51.796875 10.09375 48.25 6.640625 
Q 44.703125 3.203125 39.640625 1.046875 
Q 34.59375 -1.09375 28.90625 -1.09375 
L 23.5 -20.5 
L 15.703125 -20.5 
L 21.09375 -1.09375 
Q 13.796875 -1.09375 10.40625 0 
Q 2.703125 2.5 2.703125 12.796875 
Q 2.703125 15.90625 4 19.90625 
Q 5.296875 23.90625 7.84375 28.15625 
Q 10.40625 32.40625 13.84375 35.953125 
Q 17.296875 39.5 22.140625 41.796875 
Q 27 44.09375 32.203125 44.09375 
L 33.703125 44.09375 
L 40.40625 68.296875 
z
M 40.796875 42 
L 29.5 1 
Q 33.203125 1 36.40625 2.59375 
Q 42.09375 5.5 46.59375 15.59375 
Q 51.09375 25.703125 51.09375 32.703125 
Q 51.09375 38.5 46.59375 41.296875 
Q 45.40625 42 40.796875 42 
z
M 21.703125 1 
L 33.09375 42 
Q 27.5 42 22.296875 36.953125 
Q 17.09375 31.90625 14.09375 24.5 
Q 11.09375 17.09375 11.09375 10.09375 
Q 11.09375 3.703125 15.90625 1.796875 
Q 18 1 21.703125 1 
z
" id="STIXGeneral-Italic-3d5"/>
      <path d="M 30.40625 -16.09375 
L 29.203125 -17.703125 
Q 17.59375 -11.09375 11.1875 0.5 
Q 4.796875 12.09375 4.796875 25.203125 
Q 4.796875 52.90625 29.5 67.59375 
L 30.40625 66 
Q 20.203125 57.296875 16.796875 48.84375 
Q 13.40625 40.40625 13.40625 25.5 
Q 13.40625 10.703125 16.90625 1.5 
Q 20.40625 -7.703125 30.40625 -16.09375 
z
" id="STIXGeneral-Regular-28"/>
      <path d="M 24.296875 35.5 
L 25.5 29.796875 
Q 30.796875 37.90625 34.046875 41 
Q 37.296875 44.09375 40.59375 44.09375 
Q 42.40625 44.09375 43.546875 43.046875 
Q 44.703125 42 44.703125 40.390625 
Q 44.703125 38.796875 43.75 37.796875 
Q 42.796875 36.796875 41.296875 36.796875 
Q 40.40625 36.796875 38.90625 37.640625 
Q 37.40625 38.5 36.09375 38.5 
Q 33.203125 38.5 26.296875 26.40625 
Q 26.296875 25.09375 27.09375 21.90625 
L 30.296875 8.5 
Q 31.296875 4.40625 33.296875 4.40625 
Q 34.90625 4.40625 38 8.40625 
Q 38.296875 8.796875 38.6875 9.34375 
Q 39.09375 9.90625 39.390625 10.34375 
Q 39.703125 10.796875 40.09375 11.203125 
L 41.59375 10.296875 
Q 37.296875 3.59375 34.796875 1.25 
Q 32.296875 -1.09375 29.40625 -1.09375 
Q 27 -1.09375 25.703125 0.40625 
Q 24.40625 1.90625 23.5 5.703125 
L 20.59375 17.59375 
L 11.796875 5.703125 
Q 8.703125 1.5 6.75 0.203125 
Q 4.796875 -1.09375 2.296875 -1.09375 
Q 0 -1.09375 -1.34375 0 
Q -2.703125 1.09375 -2.703125 3.09375 
Q -2.703125 4.59375 -1.75 5.640625 
Q -0.796875 6.703125 0.703125 6.703125 
Q 1.90625 6.703125 3.90625 5.59375 
Q 5.40625 4.703125 6.5 4.703125 
Q 8.203125 4.703125 11.59375 9.59375 
L 19.796875 21.203125 
L 17 33.59375 
Q 16 38 15.140625 39.203125 
Q 14.296875 40.40625 12.40625 40.40625 
Q 11.203125 40.40625 8.5 39.703125 
L 6.703125 39.203125 
L 6.40625 40.796875 
L 7.5 41.203125 
Q 15.5 44.09375 19.203125 44.09375 
Q 21.09375 44.09375 22.1875 42.296875 
Q 23.296875 40.5 24.296875 35.5 
z
" id="STIXGeneral-Italic-78"/>
      <path d="M 2.90625 66 
L 4.09375 67.59375 
Q 15.5 60.796875 22 49.1875 
Q 28.5 37.59375 28.5 24.703125 
Q 28.5 -2.59375 3.796875 -17.703125 
L 2.90625 -16.09375 
Q 13.203125 -7.59375 16.546875 0.84375 
Q 19.90625 9.296875 19.90625 24.40625 
Q 19.90625 39.59375 16.546875 48.75 
Q 13.203125 57.90625 2.90625 66 
z
" id="STIXGeneral-Regular-29"/>
     </defs>
     <g transform="translate(240.118125 151.937813)rotate(-90)scale(0.14 -0.14)">
      <use transform="translate(0 0.703125)" xlink:href="#STIXGeneral-Italic-77"/>
      <use transform="translate(66.699997 -12.525)scale(0.7)" xlink:href="#STIXGeneral-Italic-64"/>
      <use transform="translate(106.109361 0.703125)" xlink:href="#STIXGeneral-Italic-3d5"/>
      <use transform="translate(168.809358 -12.525)scale(0.7)" xlink:href="#STIXGeneral-Italic-64"/>
      <use transform="translate(208.218723 0.703125)" xlink:href="#STIXGeneral-Regular-28"/>
      <use transform="translate(241.51871 0.703125)" xlink:href="#STIXGeneral-Italic-78"/>
      <use transform="translate(285.918704 0.703125)" xlink:href="#STIXGeneral-Regular-29"/>
     </g>
    </g>
   </g>
   <g id="line2d_19">
    <path clip-path="url(#pecd626edc6)" d="M 278.216932 184.882953 
L 279.523635 187.160013 
L 280.830339 189.384018 
L 282.137042 191.534002 
L 283.443745 193.588864 
L 284.750449 195.527706 
L 286.057152 197.330183 
L 287.363856 198.976857 
L 288.670559 200.449542 
L 289.977262 201.731639 
L 291.283966 202.808444 
L 292.590669 203.667433 
L 293.897373 204.298501 
L 295.204076 204.694162 
L 296.510779 204.849695 
L 297.817483 204.763239 
L 299.124186 204.435828 
L 300.43089 203.871373 
L 301.737593 203.076584 
L 303.044296 202.060836 
L 304.351 200.835985 
L 305.657703 199.416137 
L 306.964407 197.817382 
L 308.27111 196.057484 
L 309.577813 194.15556 
L 310.884517 192.131732 
L 312.19122 190.006775 
L 313.497924 187.801767 
L 314.804627 185.537748 
L 316.11133 183.23539 
L 317.418034 180.914701 
L 318.724737 178.594747 
L 320.031441 176.293417 
L 321.338144 174.027216 
L 322.644847 171.81111 
L 323.951551 169.658399 
L 325.258254 167.58064 
L 326.564958 165.587604 
L 327.871661 163.687274 
L 329.178364 161.885877 
L 330.485068 160.187942 
L 331.791771 158.596393 
L 333.098475 157.112655 
L 334.405178 155.736786 
L 335.711881 154.467615 
L 337.018585 153.302891 
L 338.325288 152.23944 
L 339.631992 151.273315 
L 340.938695 150.399944 
L 342.245398 149.614281 
L 343.552102 148.910934 
L 344.858805 148.284293 
L 346.165508 147.72864 
L 347.472212 147.238251 
L 348.778915 146.807482 
L 350.085619 146.430836 
L 351.392322 146.103029 
L 352.699025 145.819033 
L 354.005729 145.574111 
L 355.312432 145.363841 
L 356.619136 145.184133 
L 357.925839 145.031231 
L 359.232542 144.901717 
L 360.539246 144.7925 
L 361.845949 144.700805 
L 363.152653 144.62416 
L 364.459356 144.560376 
L 365.766059 144.507527 
L 367.072763 144.463928 
L 368.379466 144.428116 
L 369.68617 144.398829 
L 370.992873 144.37498 
L 372.299576 144.355643 
L 373.60628 144.340033 
L 374.912983 144.327484 
L 376.219687 144.31744 
L 377.52639 144.309434 
L 378.833093 144.303081 
L 380.139797 144.298061 
L 381.4465 144.29411 
L 382.753204 144.291014 
L 384.059907 144.288599 
L 385.36661 144.286722 
L 386.673314 144.28527 
L 387.980017 144.284152 
L 389.286721 144.283293 
L 390.593424 144.282638 
L 391.900127 144.282139 
L 393.206831 144.281761 
L 394.513534 144.281476 
L 395.820238 144.281262 
L 397.126941 144.281101 
L 398.433644 144.280982 
L 399.740348 144.280893 
L 401.047051 144.280828 
L 402.353755 144.28078 
L 403.660458 144.280744 
L 404.967161 144.280719 
L 406.273865 144.2807 
L 407.580568 144.280686 
" style="fill:none;stroke:#1f77b4;stroke-linecap:square;stroke-width:1.5;"/>
   </g>
   <g id="line2d_20">
    <path clip-path="url(#pecd626edc6)" d="M 278.216932 121.900051 
L 279.523635 119.269393 
L 280.830339 116.441093 
L 282.137042 113.416656 
L 283.443745 110.20023 
L 284.750449 106.798824 
L 286.057152 103.222484 
L 287.363856 99.484432 
L 288.670559 95.601146 
L 289.977262 91.592379 
L 291.283966 87.481119 
L 292.590669 83.293471 
L 293.897373 79.058465 
L 295.204076 74.807796 
L 296.510779 70.575482 
L 297.817483 66.397459 
L 299.124186 62.311104 
L 300.43089 58.354703 
L 301.737593 54.566878 
L 303.044296 50.985963 
L 304.351 47.649376 
L 305.657703 44.592969 
L 306.964407 41.850387 
L 308.27111 39.452463 
L 309.577813 37.42663 
L 310.884517 35.796409 
L 312.19122 34.58095 
L 313.497924 33.794656 
L 314.804627 33.446903 
L 316.11133 33.541853 
L 317.418034 34.078369 
L 318.724737 35.050038 
L 320.031441 36.4453 
L 321.338144 38.247678 
L 322.644847 40.436098 
L 323.951551 42.985303 
L 325.258254 45.866334 
L 326.564958 49.047081 
L 327.871661 52.492876 
L 329.178364 56.167117 
L 330.485068 60.031914 
L 331.791771 64.048733 
L 333.098475 68.179022 
L 334.405178 72.384817 
L 335.711881 76.629296 
L 337.018585 80.877291 
L 338.325288 85.095733 
L 339.631992 89.254033 
L 340.938695 93.324385 
L 342.245398 97.282003 
L 343.552102 101.105274 
L 344.858805 104.775848 
L 346.165508 108.278647 
L 347.472212 111.601826 
L 348.778915 114.736657 
L 350.085619 117.677384 
L 351.392322 120.421019 
L 352.699025 122.967115 
L 354.005729 125.317511 
L 355.312432 127.476057 
L 356.619136 129.448341 
L 357.925839 131.241403 
L 359.232542 132.863459 
L 360.539246 134.323639 
L 361.845949 135.631733 
L 363.152653 136.797965 
L 364.459356 137.832781 
L 365.766059 138.746665 
L 367.072763 139.54998 
L 368.379466 140.252827 
L 369.68617 140.864939 
L 370.992873 141.39559 
L 372.299576 141.853529 
L 373.60628 142.24693 
L 374.912983 142.583369 
L 376.219687 142.869805 
L 377.52639 143.112582 
L 378.833093 143.317443 
L 380.139797 143.489545 
L 381.4465 143.63349 
L 382.753204 143.753357 
L 384.059907 143.852737 
L 385.36661 143.934773 
L 386.673314 144.002198 
L 387.980017 144.057374 
L 389.286721 144.102331 
L 390.593424 144.138805 
L 391.900127 144.168269 
L 393.206831 144.191968 
L 394.513534 144.210949 
L 395.820238 144.226086 
L 397.126941 144.238106 
L 398.433644 144.247611 
L 399.740348 144.255095 
L 401.047051 144.260963 
L 402.353755 144.265544 
L 403.660458 144.269105 
L 404.967161 144.271863 
L 406.273865 144.273988 
L 407.580568 144.27562 
" style="fill:none;stroke:#ff7f0e;stroke-linecap:square;stroke-width:1.5;"/>
   </g>
   <g id="line2d_21">
    <path clip-path="url(#pecd626edc6)" d="M 278.216932 145.739304 
L 279.523635 146.005622 
L 280.830339 146.312422 
L 282.137042 146.664236 
L 283.443745 147.065807 
L 284.750449 147.522042 
L 286.057152 148.037955 
L 287.363856 148.618599 
L 288.670559 149.268982 
L 289.977262 149.993979 
L 291.283966 150.798227 
L 292.590669 151.686009 
L 293.897373 152.661133 
L 295.204076 153.726803 
L 296.510779 154.885485 
L 297.817483 156.13877 
L 299.124186 157.487242 
L 300.43089 158.930349 
L 301.737593 160.466282 
L 303.044296 162.091867 
L 304.351 163.80248 
L 305.657703 165.591976 
L 306.964407 167.452644 
L 308.27111 169.375196 
L 309.577813 171.348782 
L 310.884517 173.36104 
L 312.19122 175.398183 
L 313.497924 177.445123 
L 314.804627 179.485624 
L 316.11133 181.502501 
L 317.418034 183.477837 
L 318.724737 185.39324 
L 320.031441 187.230117 
L 321.338144 188.969966 
L 322.644847 190.594688 
L 323.951551 192.086889 
L 325.258254 193.430196 
L 326.564958 194.609551 
L 327.871661 195.61149 
L 329.178364 196.424405 
L 330.485068 197.038761 
L 331.791771 197.447284 
L 333.098475 197.645107 
L 334.405178 197.629864 
L 335.711881 197.401737 
L 337.018585 196.963454 
L 338.325288 196.320233 
L 339.631992 195.47968 
L 340.938695 194.451638 
L 342.245398 193.247998 
L 343.552102 191.882464 
L 344.858805 190.370302 
L 346.165508 188.728049 
L 347.472212 186.973218 
L 348.778915 185.123985 
L 350.085619 183.198884 
L 351.392322 181.216495 
L 352.699025 179.195161 
L 354.005729 177.152707 
L 355.312432 175.106198 
L 356.619136 173.071714 
L 357.925839 171.064169 
L 359.232542 169.097152 
L 360.539246 167.182812 
L 361.845949 165.331779 
L 363.152653 163.553117 
L 364.459356 161.85431 
L 365.766059 160.241284 
L 367.072763 158.718452 
L 368.379466 157.288784 
L 369.68617 155.953903 
L 370.992873 154.714193 
L 372.299576 153.568918 
L 373.60628 152.516353 
L 374.912983 151.553918 
L 376.219687 150.678315 
L 377.52639 149.885661 
L 378.833093 149.171613 
L 380.139797 148.531496 
L 381.4465 147.960408 
L 382.753204 147.45333 
L 384.059907 147.005209 
L 385.36661 146.611043 
L 386.673314 146.265945 
L 387.980017 145.965201 
L 389.286721 145.70431 
L 390.593424 145.479021 
L 391.900127 145.285357 
L 393.206831 145.119628 
L 394.513534 144.97844 
L 395.820238 144.858695 
L 397.126941 144.757588 
L 398.433644 144.672595 
L 399.740348 144.601463 
L 401.047051 144.542192 
L 402.353755 144.493021 
L 403.660458 144.452405 
L 404.967161 144.419003 
L 406.273865 144.391652 
L 407.580568 144.369353 
" style="fill:none;stroke:#2ca02c;stroke-linecap:square;stroke-width:1.5;"/>
   </g>
   <g id="line2d_22">
    <path clip-path="url(#pecd626edc6)" d="M 278.216932 144.221509 
L 279.523635 144.206641 
L 280.830339 144.188404 
L 282.137042 144.166132 
L 283.443745 144.139051 
L 284.750449 144.106265 
L 286.057152 144.066744 
L 287.363856 144.019315 
L 288.670559 143.962644 
L 289.977262 143.895229 
L 291.283966 143.815386 
L 292.590669 143.721246 
L 293.897373 143.610742 
L 295.204076 143.481611 
L 296.510779 143.331395 
L 297.817483 143.157439 
L 299.124186 142.95691 
L 300.43089 142.726808 
L 301.737593 142.463989 
L 303.044296 142.165193 
L 304.351 141.827086 
L 305.657703 141.4463 
L 306.964407 141.019486 
L 308.27111 140.543378 
L 309.577813 140.014856 
L 310.884517 139.431027 
L 312.19122 138.7893 
L 313.497924 138.087477 
L 314.804627 137.323837 
L 316.11133 136.49723 
L 317.418034 135.607166 
L 318.724737 134.653901 
L 320.031441 133.638515 
L 321.338144 132.562991 
L 322.644847 131.43027 
L 323.951551 130.244305 
L 325.258254 129.010084 
L 326.564958 127.733651 
L 327.871661 126.422095 
L 329.178364 125.083515 
L 330.485068 123.726974 
L 331.791771 122.362415 
L 333.098475 121.000559 
L 334.405178 119.652786 
L 335.711881 118.33098 
L 337.018585 117.047372 
L 338.325288 115.814352 
L 339.631992 114.644275 
L 340.938695 113.549264 
L 342.245398 112.540993 
L 343.552102 111.63049 
L 344.858805 110.827934 
L 346.165508 110.142462 
L 347.472212 109.582003 
L 348.778915 109.15312 
L 350.085619 108.860884 
L 351.392322 108.708775 
L 352.699025 108.698611 
L 354.005729 108.830515 
L 355.312432 109.102907 
L 356.619136 109.512544 
L 357.925839 110.054574 
L 359.232542 110.722642 
L 360.539246 111.509005 
L 361.845949 112.404688 
L 363.152653 113.399649 
L 364.459356 114.482971 
L 365.766059 115.643058 
L 367.072763 116.86784 
L 368.379466 118.144981 
L 369.68617 119.462084 
L 370.992873 120.806886 
L 372.299576 122.16744 
L 373.60628 123.532286 
L 374.912983 124.890601 
L 376.219687 126.232322 
L 377.52639 127.548258 
L 378.833093 128.830167 
L 380.139797 130.070812 
L 381.4465 131.264002 
L 382.753204 132.404594 
L 384.059907 133.488493 
L 385.36661 134.512613 
L 386.673314 135.474839 
L 387.980017 136.373966 
L 389.286721 137.209624 
L 390.593424 137.982203 
L 391.900127 138.692765 
L 393.206831 139.342952 
L 394.513534 139.934902 
L 395.820238 140.471154 
L 397.126941 140.954563 
L 398.433644 141.388222 
L 399.740348 141.77538 
L 401.047051 142.119378 
L 402.353755 142.423583 
L 403.660458 142.691341 
L 404.967161 142.925921 
L 406.273865 143.130487 
L 407.580568 143.308061 
" style="fill:none;stroke:#d62728;stroke-linecap:square;stroke-width:1.5;"/>
   </g>
   <g id="line2d_23">
    <path clip-path="url(#pecd626edc6)" d="M 278.216932 144.284346 
L 279.523635 144.285544 
L 280.830339 144.287104 
L 282.137042 144.289128 
L 283.443745 144.291742 
L 284.750449 144.295104 
L 286.057152 144.299411 
L 287.363856 144.304904 
L 288.670559 144.31188 
L 289.977262 144.320702 
L 291.283966 144.331813 
L 292.590669 144.345744 
L 293.897373 144.363138 
L 295.204076 144.384763 
L 296.510779 144.411534 
L 297.817483 144.444531 
L 299.124186 144.485028 
L 300.43089 144.534516 
L 301.737593 144.594727 
L 303.044296 144.667669 
L 304.351 144.755647 
L 305.657703 144.861297 
L 306.964407 144.987614 
L 308.27111 145.137975 
L 309.577813 145.316165 
L 310.884517 145.526399 
L 312.19122 145.773333 
L 313.497924 146.062076 
L 314.804627 146.398187 
L 316.11133 146.787666 
L 317.418034 147.236935 
L 318.724737 147.7528 
L 320.031441 148.342404 
L 321.338144 149.013163 
L 322.644847 149.772682 
L 323.951551 150.628655 
L 325.258254 151.58875 
L 326.564958 152.66047 
L 327.871661 153.851002 
L 329.178364 155.167046 
L 330.485068 156.614634 
L 331.791771 158.198931 
L 333.098475 159.924038 
L 334.405178 161.792783 
L 335.711881 163.806515 
L 337.018585 165.964905 
L 338.325288 168.265761 
L 339.631992 170.704857 
L 340.938695 173.275788 
L 342.245398 175.96986 
L 343.552102 178.776006 
L 344.858805 181.680758 
L 346.165508 184.668254 
L 347.472212 187.720299 
L 348.778915 190.816487 
L 350.085619 193.934366 
L 351.392322 197.049664 
L 352.699025 200.136569 
L 354.005729 203.168056 
L 355.312432 206.11626 
L 356.619136 208.952885 
L 357.925839 211.649648 
L 359.232542 214.17874 
L 360.539246 216.513297 
L 361.845949 218.627872 
L 363.152653 220.498899 
L 364.459356 222.105122 
L 365.766059 223.428004 
L 367.072763 224.452078 
L 368.379466 225.165248 
L 369.68617 225.559032 
L 370.992873 225.628722 
L 372.299576 225.373484 
L 373.60628 224.796372 
L 374.912983 223.904267 
L 376.219687 222.707742 
L 377.52639 221.220852 
L 378.833093 219.46086 
L 380.139797 217.447902 
L 381.4465 215.204607 
L 382.753204 212.755669 
L 384.059907 210.127404 
L 385.36661 207.347273 
L 386.673314 204.443415 
L 387.980017 201.444174 
L 389.286721 198.377652 
L 390.593424 195.271283 
L 391.900127 192.151442 
L 393.206831 189.043096 
L 394.513534 185.96951 
L 395.820238 182.95199 
L 397.126941 180.009696 
L 398.433644 177.159501 
L 399.740348 174.415902 
L 401.047051 171.790995 
L 402.353755 169.294482 
L 403.660458 166.933739 
L 404.967161 164.713909 
L 406.273865 162.638036 
L 407.580568 160.707226 
" style="fill:none;stroke:#9467bd;stroke-linecap:square;stroke-width:1.5;"/>
   </g>
   <g id="line2d_24">
    <path clip-path="url(#pecd626edc6)" d="M 278.216932 144.280624 
L 279.523635 144.280612 
L 280.830339 144.280596 
L 282.137042 144.280574 
L 283.443745 144.280544 
L 284.750449 144.280503 
L 286.057152 144.280448 
L 287.363856 144.280372 
L 288.670559 144.280271 
L 289.977262 144.280134 
L 291.283966 144.279952 
L 292.590669 144.27971 
L 293.897373 144.279388 
L 295.204076 144.278964 
L 296.510779 144.278406 
L 297.817483 144.277676 
L 299.124186 144.276725 
L 300.43089 144.27549 
L 301.737593 144.273894 
L 303.044296 144.27184 
L 304.351 144.269207 
L 305.657703 144.265847 
L 306.964407 144.261577 
L 308.27111 144.256174 
L 309.577813 144.249365 
L 310.884517 144.240822 
L 312.19122 144.23015 
L 313.497924 144.216873 
L 314.804627 144.200427 
L 316.11133 144.180144 
L 317.418034 144.155235 
L 318.724737 144.124778 
L 320.031441 144.087697 
L 321.338144 144.042749 
L 322.644847 143.9885 
L 323.951551 143.923314 
L 325.258254 143.845328 
L 326.564958 143.752439 
L 327.871661 143.642288 
L 329.178364 143.512246 
L 330.485068 143.359405 
L 331.791771 143.180571 
L 333.098475 142.972266 
L 334.405178 142.730728 
L 335.711881 142.451929 
L 337.018585 142.131593 
L 338.325288 141.765225 
L 339.631992 141.348152 
L 340.938695 140.875571 
L 342.245398 140.342615 
L 343.552102 139.74442 
L 344.858805 139.076217 
L 346.165508 138.333419 
L 347.472212 137.511732 
L 348.778915 136.607271 
L 350.085619 135.616678 
L 351.392322 134.537252 
L 352.699025 133.367081 
L 354.005729 132.105167 
L 355.312432 130.75156 
L 356.619136 129.307473 
L 357.925839 127.775391 
L 359.232542 126.159167 
L 360.539246 124.464097 
L 361.845949 122.696971 
L 363.152653 120.866098 
L 364.459356 118.981308 
L 365.766059 117.053913 
L 367.072763 115.09664 
L 368.379466 113.123527 
L 369.68617 111.14979 
L 370.992873 109.191643 
L 372.299576 107.266102 
L 373.60628 105.390751 
L 374.912983 103.583483 
L 376.219687 101.862224 
L 377.52639 100.244645 
L 378.833093 98.747859 
L 380.139797 97.388123 
L 381.4465 96.180548 
L 382.753204 95.138816 
L 384.059907 94.274926 
L 385.36661 93.598961 
L 386.673314 93.118894 
L 387.980017 92.840432 
L 389.286721 92.766901 
L 390.593424 92.899181 
L 391.900127 93.23569 
L 393.206831 93.772411 
L 394.513534 94.502978 
L 395.820238 95.418797 
L 397.126941 96.509215 
L 398.433644 97.761729 
L 399.740348 99.162219 
L 401.047051 100.69522 
L 402.353755 102.344198 
L 403.660458 104.09185 
L 404.967161 105.920404 
L 406.273865 107.811912 
L 407.580568 109.748543 
" style="fill:none;stroke:#8c564b;stroke-linecap:square;stroke-width:1.5;"/>
   </g>
   <g id="patch_8">
    <path d="M 271.74875 235.237813 
L 271.74875 23.837813 
" style="fill:none;stroke:#000000;stroke-linecap:square;stroke-linejoin:miter;stroke-width:0.8;"/>
   </g>
   <g id="patch_9">
    <path d="M 414.04875 235.237813 
L 414.04875 23.837813 
" style="fill:none;stroke:#000000;stroke-linecap:square;stroke-linejoin:miter;stroke-width:0.8;"/>
   </g>
   <g id="patch_10">
    <path d="M 271.74875 235.237813 
L 414.04875 235.237813 
" style="fill:none;stroke:#000000;stroke-linecap:square;stroke-linejoin:miter;stroke-width:0.8;"/>
   </g>
   <g id="patch_11">
    <path d="M 271.74875 23.837812 
L 414.04875 23.837812 
" style="fill:none;stroke:#000000;stroke-linecap:square;stroke-linejoin:miter;stroke-width:0.8;"/>
   </g>
   <g id="text_23">
    <!-- Components -->
    <defs>
     <path d="M 64.40625 67.28125 
L 64.40625 56.890625 
Q 59.421875 61.53125 53.78125 63.8125 
Q 48.140625 66.109375 41.796875 66.109375 
Q 29.296875 66.109375 22.65625 58.46875 
Q 16.015625 50.828125 16.015625 36.375 
Q 16.015625 21.96875 22.65625 14.328125 
Q 29.296875 6.6875 41.796875 6.6875 
Q 48.140625 6.6875 53.78125 8.984375 
Q 59.421875 11.28125 64.40625 15.921875 
L 64.40625 5.609375 
Q 59.234375 2.09375 53.4375 0.328125 
Q 47.65625 -1.421875 41.21875 -1.421875 
Q 24.65625 -1.421875 15.125 8.703125 
Q 5.609375 18.84375 5.609375 36.375 
Q 5.609375 53.953125 15.125 64.078125 
Q 24.65625 74.21875 41.21875 74.21875 
Q 47.75 74.21875 53.53125 72.484375 
Q 59.328125 70.75 64.40625 67.28125 
z
" id="DejaVuSans-43"/>
     <path d="M 30.609375 48.390625 
Q 23.390625 48.390625 19.1875 42.75 
Q 14.984375 37.109375 14.984375 27.296875 
Q 14.984375 17.484375 19.15625 11.84375 
Q 23.34375 6.203125 30.609375 6.203125 
Q 37.796875 6.203125 41.984375 11.859375 
Q 46.1875 17.53125 46.1875 27.296875 
Q 46.1875 37.015625 41.984375 42.703125 
Q 37.796875 48.390625 30.609375 48.390625 
z
M 30.609375 56 
Q 42.328125 56 49.015625 48.375 
Q 55.71875 40.765625 55.71875 27.296875 
Q 55.71875 13.875 49.015625 6.21875 
Q 42.328125 -1.421875 30.609375 -1.421875 
Q 18.84375 -1.421875 12.171875 6.21875 
Q 5.515625 13.875 5.515625 27.296875 
Q 5.515625 40.765625 12.171875 48.375 
Q 18.84375 56 30.609375 56 
z
" id="DejaVuSans-6f"/>
     <path d="M 52 44.1875 
Q 55.375 50.25 60.0625 53.125 
Q 64.75 56 71.09375 56 
Q 79.640625 56 84.28125 50.015625 
Q 88.921875 44.046875 88.921875 33.015625 
L 88.921875 0 
L 79.890625 0 
L 79.890625 32.71875 
Q 79.890625 40.578125 77.09375 44.375 
Q 74.3125 48.1875 68.609375 48.1875 
Q 61.625 48.1875 57.5625 43.546875 
Q 53.515625 38.921875 53.515625 30.90625 
L 53.515625 0 
L 44.484375 0 
L 44.484375 32.71875 
Q 44.484375 40.625 41.703125 44.40625 
Q 38.921875 48.1875 33.109375 48.1875 
Q 26.21875 48.1875 22.15625 43.53125 
Q 18.109375 38.875 18.109375 30.90625 
L 18.109375 0 
L 9.078125 0 
L 9.078125 54.6875 
L 18.109375 54.6875 
L 18.109375 46.1875 
Q 21.1875 51.21875 25.484375 53.609375 
Q 29.78125 56 35.6875 56 
Q 41.65625 56 45.828125 52.96875 
Q 50 49.953125 52 44.1875 
z
" id="DejaVuSans-6d"/>
     <path d="M 18.109375 8.203125 
L 18.109375 -20.796875 
L 9.078125 -20.796875 
L 9.078125 54.6875 
L 18.109375 54.6875 
L 18.109375 46.390625 
Q 20.953125 51.265625 25.265625 53.625 
Q 29.59375 56 35.59375 56 
Q 45.5625 56 51.78125 48.09375 
Q 58.015625 40.1875 58.015625 27.296875 
Q 58.015625 14.40625 51.78125 6.484375 
Q 45.5625 -1.421875 35.59375 -1.421875 
Q 29.59375 -1.421875 25.265625 0.953125 
Q 20.953125 3.328125 18.109375 8.203125 
z
M 48.6875 27.296875 
Q 48.6875 37.203125 44.609375 42.84375 
Q 40.53125 48.484375 33.40625 48.484375 
Q 26.265625 48.484375 22.1875 42.84375 
Q 18.109375 37.203125 18.109375 27.296875 
Q 18.109375 17.390625 22.1875 11.75 
Q 26.265625 6.109375 33.40625 6.109375 
Q 40.53125 6.109375 44.609375 11.75 
Q 48.6875 17.390625 48.6875 27.296875 
z
" id="DejaVuSans-70"/>
     <path d="M 56.203125 29.59375 
L 56.203125 25.203125 
L 14.890625 25.203125 
Q 15.484375 15.921875 20.484375 11.0625 
Q 25.484375 6.203125 34.421875 6.203125 
Q 39.59375 6.203125 44.453125 7.46875 
Q 49.3125 8.734375 54.109375 11.28125 
L 54.109375 2.78125 
Q 49.265625 0.734375 44.1875 -0.34375 
Q 39.109375 -1.421875 33.890625 -1.421875 
Q 20.796875 -1.421875 13.15625 6.1875 
Q 5.515625 13.8125 5.515625 26.8125 
Q 5.515625 40.234375 12.765625 48.109375 
Q 20.015625 56 32.328125 56 
Q 43.359375 56 49.78125 48.890625 
Q 56.203125 41.796875 56.203125 29.59375 
z
M 47.21875 32.234375 
Q 47.125 39.59375 43.09375 43.984375 
Q 39.0625 48.390625 32.421875 48.390625 
Q 24.90625 48.390625 20.390625 44.140625 
Q 15.875 39.890625 15.1875 32.171875 
z
" id="DejaVuSans-65"/>
    </defs>
    <g transform="translate(298.611719 17.837812)scale(0.14 -0.14)">
     <use xlink:href="#DejaVuSans-43"/>
     <use x="69.824219" xlink:href="#DejaVuSans-6f"/>
     <use x="131.005859" xlink:href="#DejaVuSans-6d"/>
     <use x="228.417969" xlink:href="#DejaVuSans-70"/>
     <use x="291.894531" xlink:href="#DejaVuSans-6f"/>
     <use x="353.076172" xlink:href="#DejaVuSans-6e"/>
     <use x="416.455078" xlink:href="#DejaVuSans-65"/>
     <use x="477.978516" xlink:href="#DejaVuSans-6e"/>
     <use x="541.357422" xlink:href="#DejaVuSans-74"/>
     <use x="580.566406" xlink:href="#DejaVuSans-73"/>
    </g>
   </g>
   <g id="legend_1">
    <g id="patch_12">
     <path d="M 278.74875 119.906562 
L 331.839375 119.906562 
Q 333.839375 119.906562 333.839375 117.906562 
L 333.839375 30.837812 
Q 333.839375 28.837812 331.839375 28.837812 
L 278.74875 28.837812 
Q 276.74875 28.837812 276.74875 30.837812 
L 276.74875 117.906562 
Q 276.74875 119.906562 278.74875 119.906562 
z
" style="fill:#ffffff;opacity:0.8;stroke:#cccccc;stroke-linejoin:miter;"/>
    </g>
    <g id="line2d_25">
     <path d="M 280.74875 36.93625 
L 300.74875 36.93625 
" style="fill:none;stroke:#1f77b4;stroke-linecap:square;stroke-width:1.5;"/>
    </g>
    <g id="line2d_26"/>
    <g id="text_24">
     <!-- d=0 -->
     <defs>
      <path d="M 45.40625 46.390625 
L 45.40625 75.984375 
L 54.390625 75.984375 
L 54.390625 0 
L 45.40625 0 
L 45.40625 8.203125 
Q 42.578125 3.328125 38.25 0.953125 
Q 33.9375 -1.421875 27.875 -1.421875 
Q 17.96875 -1.421875 11.734375 6.484375 
Q 5.515625 14.40625 5.515625 27.296875 
Q 5.515625 40.1875 11.734375 48.09375 
Q 17.96875 56 27.875 56 
Q 33.9375 56 38.25 53.625 
Q 42.578125 51.265625 45.40625 46.390625 
z
M 14.796875 27.296875 
Q 14.796875 17.390625 18.875 11.75 
Q 22.953125 6.109375 30.078125 6.109375 
Q 37.203125 6.109375 41.296875 11.75 
Q 45.40625 17.390625 45.40625 27.296875 
Q 45.40625 37.203125 41.296875 42.84375 
Q 37.203125 48.484375 30.078125 48.484375 
Q 22.953125 48.484375 18.875 42.84375 
Q 14.796875 37.203125 14.796875 27.296875 
z
" id="DejaVuSans-64"/>
     </defs>
     <g transform="translate(308.74875 40.43625)scale(0.1 -0.1)">
      <use xlink:href="#DejaVuSans-64"/>
      <use x="63.476562" xlink:href="#DejaVuSans-3d"/>
      <use x="147.265625" xlink:href="#DejaVuSans-30"/>
     </g>
    </g>
    <g id="line2d_27">
     <path d="M 280.74875 51.614375 
L 300.74875 51.614375 
" style="fill:none;stroke:#ff7f0e;stroke-linecap:square;stroke-width:1.5;"/>
    </g>
    <g id="line2d_28"/>
    <g id="text_25">
     <!-- d=1 -->
     <g transform="translate(308.74875 55.114375)scale(0.1 -0.1)">
      <use xlink:href="#DejaVuSans-64"/>
      <use x="63.476562" xlink:href="#DejaVuSans-3d"/>
      <use x="147.265625" xlink:href="#DejaVuSans-31"/>
     </g>
    </g>
    <g id="line2d_29">
     <path d="M 280.74875 66.2925 
L 300.74875 66.2925 
" style="fill:none;stroke:#2ca02c;stroke-linecap:square;stroke-width:1.5;"/>
    </g>
    <g id="line2d_30"/>
    <g id="text_26">
     <!-- d=2 -->
     <g transform="translate(308.74875 69.7925)scale(0.1 -0.1)">
      <use xlink:href="#DejaVuSans-64"/>
      <use x="63.476562" xlink:href="#DejaVuSans-3d"/>
      <use x="147.265625" xlink:href="#DejaVuSans-32"/>
     </g>
    </g>
    <g id="line2d_31">
     <path d="M 280.74875 80.970625 
L 300.74875 80.970625 
" style="fill:none;stroke:#d62728;stroke-linecap:square;stroke-width:1.5;"/>
    </g>
    <g id="line2d_32"/>
    <g id="text_27">
     <!-- d=3 -->
     <defs>
      <path d="M 40.578125 39.3125 
Q 47.65625 37.796875 51.625 33 
Q 55.609375 28.21875 55.609375 21.1875 
Q 55.609375 10.40625 48.1875 4.484375 
Q 40.765625 -1.421875 27.09375 -1.421875 
Q 22.515625 -1.421875 17.65625 -0.515625 
Q 12.796875 0.390625 7.625 2.203125 
L 7.625 11.71875 
Q 11.71875 9.328125 16.59375 8.109375 
Q 21.484375 6.890625 26.8125 6.890625 
Q 36.078125 6.890625 40.9375 10.546875 
Q 45.796875 14.203125 45.796875 21.1875 
Q 45.796875 27.640625 41.28125 31.265625 
Q 36.765625 34.90625 28.71875 34.90625 
L 20.21875 34.90625 
L 20.21875 43.015625 
L 29.109375 43.015625 
Q 36.375 43.015625 40.234375 45.921875 
Q 44.09375 48.828125 44.09375 54.296875 
Q 44.09375 59.90625 40.109375 62.90625 
Q 36.140625 65.921875 28.71875 65.921875 
Q 24.65625 65.921875 20.015625 65.03125 
Q 15.375 64.15625 9.8125 62.3125 
L 9.8125 71.09375 
Q 15.4375 72.65625 20.34375 73.4375 
Q 25.25 74.21875 29.59375 74.21875 
Q 40.828125 74.21875 47.359375 69.109375 
Q 53.90625 64.015625 53.90625 55.328125 
Q 53.90625 49.265625 50.4375 45.09375 
Q 46.96875 40.921875 40.578125 39.3125 
z
" id="DejaVuSans-33"/>
     </defs>
     <g transform="translate(308.74875 84.470625)scale(0.1 -0.1)">
      <use xlink:href="#DejaVuSans-64"/>
      <use x="63.476562" xlink:href="#DejaVuSans-3d"/>
      <use x="147.265625" xlink:href="#DejaVuSans-33"/>
     </g>
    </g>
    <g id="line2d_33">
     <path d="M 280.74875 95.64875 
L 300.74875 95.64875 
" style="fill:none;stroke:#9467bd;stroke-linecap:square;stroke-width:1.5;"/>
    </g>
    <g id="line2d_34"/>
    <g id="text_28">
     <!-- d=4 -->
     <defs>
      <path d="M 37.796875 64.3125 
L 12.890625 25.390625 
L 37.796875 25.390625 
z
M 35.203125 72.90625 
L 47.609375 72.90625 
L 47.609375 25.390625 
L 58.015625 25.390625 
L 58.015625 17.1875 
L 47.609375 17.1875 
L 47.609375 0 
L 37.796875 0 
L 37.796875 17.1875 
L 4.890625 17.1875 
L 4.890625 26.703125 
z
" id="DejaVuSans-34"/>
     </defs>
     <g transform="translate(308.74875 99.14875)scale(0.1 -0.1)">
      <use xlink:href="#DejaVuSans-64"/>
      <use x="63.476562" xlink:href="#DejaVuSans-3d"/>
      <use x="147.265625" xlink:href="#DejaVuSans-34"/>
     </g>
    </g>
    <g id="line2d_35">
     <path d="M 280.74875 110.326875 
L 300.74875 110.326875 
" style="fill:none;stroke:#8c564b;stroke-linecap:square;stroke-width:1.5;"/>
    </g>
    <g id="line2d_36"/>
    <g id="text_29">
     <!-- d=5 -->
     <g transform="translate(308.74875 113.826875)scale(0.1 -0.1)">
      <use xlink:href="#DejaVuSans-64"/>
      <use x="63.476562" xlink:href="#DejaVuSans-3d"/>
      <use x="147.265625" xlink:href="#DejaVuSans-35"/>
     </g>
    </g>
   </g>
  </g>
 </g>
 <defs>
  <clipPath id="p3cd0a23a49">
   <rect height="211.4" width="142.3" x="68.52375" y="23.837812"/>
  </clipPath>
  <clipPath id="pecd626edc6">
   <rect height="211.4" width="142.3" x="271.74875" y="23.837812"/>
  </clipPath>
 </defs>
</svg>
