<?xml version="1.0" encoding="utf-8" standalone="no"?>
<!DOCTYPE svg PUBLIC "-//W3C//DTD SVG 1.1//EN"
  "http://www.w3.org/Graphics/SVG/1.1/DTD/svg11.dtd">
<!-- Created with matplotlib (https://matplotlib.org/) -->
<svg height="208.05625pt" version="1.1" viewBox="0 0 657.444687 208.05625" width="657.444687pt" xmlns="http://www.w3.org/2000/svg" xmlns:xlink="http://www.w3.org/1999/xlink">
 <metadata>
  <rdf:RDF xmlns:cc="http://creativecommons.org/ns#" xmlns:dc="http://purl.org/dc/elements/1.1/" xmlns:rdf="http://www.w3.org/1999/02/22-rdf-syntax-ns#">
   <cc:Work>
    <dc:type rdf:resource="http://purl.org/dc/dcmitype/StillImage"/>
    <dc:date>2021-03-06T21:24:40.546700</dc:date>
    <dc:format>image/svg+xml</dc:format>
    <dc:creator>
     <cc:Agent>
      <dc:title>Matplotlib v3.3.3, https://matplotlib.org/</dc:title>
     </cc:Agent>
    </dc:creator>
   </cc:Work>
  </rdf:RDF>
 </metadata>
 <defs>
  <style type="text/css">*{stroke-linecap:butt;stroke-linejoin:round;}</style>
 </defs>
 <g id="figure_1">
  <g id="patch_1">
   <path d="M 0 208.05625 
L 657.444688 208.05625 
L 657.444688 0 
L 0 0 
z
" style="fill:none;"/>
  </g>
  <g id="axes_1">
   <g id="patch_2">
    <path d="M 59.903438 162.7575 
L 313.890938 162.7575 
L 313.890938 25.3575 
L 59.903438 25.3575 
z
" style="fill:#ffffff;"/>
   </g>
   <g id="PathCollection_1">
    <defs>
     <path d="M -3 3 
L 3 -3 
M -3 -3 
L 3 3 
" id="m42f97a7cde" style="stroke:#ff0000;stroke-width:1.5;"/>
    </defs>
    <g clip-path="url(#pb3d4963666)">
     <use style="fill:#ff0000;stroke:#ff0000;stroke-width:1.5;" x="206.182755" xlink:href="#m42f97a7cde" y="107.125679"/>
     <use style="fill:#ff0000;stroke:#ff0000;stroke-width:1.5;" x="139.131467" xlink:href="#m42f97a7cde" y="32.628532"/>
     <use style="fill:#ff0000;stroke:#ff0000;stroke-width:1.5;" x="118.803683" xlink:href="#m42f97a7cde" y="53.413974"/>
     <use style="fill:#ff0000;stroke:#ff0000;stroke-width:1.5;" x="107.532658" xlink:href="#m42f97a7cde" y="77.281979"/>
     <use style="fill:#ff0000;stroke:#ff0000;stroke-width:1.5;" x="257.089542" xlink:href="#m42f97a7cde" y="87.078865"/>
     <use style="fill:#ff0000;stroke:#ff0000;stroke-width:1.5;" x="107.768272" xlink:href="#m42f97a7cde" y="64.178325"/>
     <use style="fill:#ff0000;stroke:#ff0000;stroke-width:1.5;" x="156.456349" xlink:href="#m42f97a7cde" y="41.147215"/>
     <use style="fill:#ff0000;stroke:#ff0000;stroke-width:1.5;" x="114.366517" xlink:href="#m42f97a7cde" y="46.057576"/>
     <use style="fill:#ff0000;stroke:#ff0000;stroke-width:1.5;" x="263.367672" xlink:href="#m42f97a7cde" y="82.885308"/>
     <use style="fill:#ff0000;stroke:#ff0000;stroke-width:1.5;" x="174.305807" xlink:href="#m42f97a7cde" y="60.188182"/>
    </g>
   </g>
   <g id="matplotlib.axis_1">
    <g id="xtick_1">
     <g id="line2d_1">
      <defs>
       <path d="M 0 0 
L 0 3.5 
" id="me3da195332" style="stroke:#000000;stroke-width:0.8;"/>
      </defs>
      <g>
       <use style="stroke:#000000;stroke-width:0.8;" x="104.433713" xlink:href="#me3da195332" y="162.7575"/>
      </g>
     </g>
     <g id="text_1">
      <!-- 0.00 -->
      <g transform="translate(93.300901 177.355938)scale(0.1 -0.1)">
       <defs>
        <path d="M 31.78125 66.40625 
Q 24.171875 66.40625 20.328125 58.90625 
Q 16.5 51.421875 16.5 36.375 
Q 16.5 21.390625 20.328125 13.890625 
Q 24.171875 6.390625 31.78125 6.390625 
Q 39.453125 6.390625 43.28125 13.890625 
Q 47.125 21.390625 47.125 36.375 
Q 47.125 51.421875 43.28125 58.90625 
Q 39.453125 66.40625 31.78125 66.40625 
z
M 31.78125 74.21875 
Q 44.046875 74.21875 50.515625 64.515625 
Q 56.984375 54.828125 56.984375 36.375 
Q 56.984375 17.96875 50.515625 8.265625 
Q 44.046875 -1.421875 31.78125 -1.421875 
Q 19.53125 -1.421875 13.0625 8.265625 
Q 6.59375 17.96875 6.59375 36.375 
Q 6.59375 54.828125 13.0625 64.515625 
Q 19.53125 74.21875 31.78125 74.21875 
z
" id="DejaVuSans-48"/>
        <path d="M 10.6875 12.40625 
L 21 12.40625 
L 21 0 
L 10.6875 0 
z
" id="DejaVuSans-46"/>
       </defs>
       <use xlink:href="#DejaVuSans-48"/>
       <use x="63.623047" xlink:href="#DejaVuSans-46"/>
       <use x="95.410156" xlink:href="#DejaVuSans-48"/>
       <use x="159.033203" xlink:href="#DejaVuSans-48"/>
      </g>
     </g>
    </g>
    <g id="xtick_2">
     <g id="line2d_2">
      <g>
       <use style="stroke:#000000;stroke-width:0.8;" x="145.66545" xlink:href="#me3da195332" y="162.7575"/>
      </g>
     </g>
     <g id="text_2">
      <!-- 0.25 -->
      <g transform="translate(134.532638 177.355938)scale(0.1 -0.1)">
       <defs>
        <path d="M 19.1875 8.296875 
L 53.609375 8.296875 
L 53.609375 0 
L 7.328125 0 
L 7.328125 8.296875 
Q 12.9375 14.109375 22.625 23.890625 
Q 32.328125 33.6875 34.8125 36.53125 
Q 39.546875 41.84375 41.421875 45.53125 
Q 43.3125 49.21875 43.3125 52.78125 
Q 43.3125 58.59375 39.234375 62.25 
Q 35.15625 65.921875 28.609375 65.921875 
Q 23.96875 65.921875 18.8125 64.3125 
Q 13.671875 62.703125 7.8125 59.421875 
L 7.8125 69.390625 
Q 13.765625 71.78125 18.9375 73 
Q 24.125 74.21875 28.421875 74.21875 
Q 39.75 74.21875 46.484375 68.546875 
Q 53.21875 62.890625 53.21875 53.421875 
Q 53.21875 48.921875 51.53125 44.890625 
Q 49.859375 40.875 45.40625 35.40625 
Q 44.1875 33.984375 37.640625 27.21875 
Q 31.109375 20.453125 19.1875 8.296875 
z
" id="DejaVuSans-50"/>
        <path d="M 10.796875 72.90625 
L 49.515625 72.90625 
L 49.515625 64.59375 
L 19.828125 64.59375 
L 19.828125 46.734375 
Q 21.96875 47.46875 24.109375 47.828125 
Q 26.265625 48.1875 28.421875 48.1875 
Q 40.625 48.1875 47.75 41.5 
Q 54.890625 34.8125 54.890625 23.390625 
Q 54.890625 11.625 47.5625 5.09375 
Q 40.234375 -1.421875 26.90625 -1.421875 
Q 22.3125 -1.421875 17.546875 -0.640625 
Q 12.796875 0.140625 7.71875 1.703125 
L 7.71875 11.625 
Q 12.109375 9.234375 16.796875 8.0625 
Q 21.484375 6.890625 26.703125 6.890625 
Q 35.15625 6.890625 40.078125 11.328125 
Q 45.015625 15.765625 45.015625 23.390625 
Q 45.015625 31 40.078125 35.4375 
Q 35.15625 39.890625 26.703125 39.890625 
Q 22.75 39.890625 18.8125 39.015625 
Q 14.890625 38.140625 10.796875 36.28125 
z
" id="DejaVuSans-53"/>
       </defs>
       <use xlink:href="#DejaVuSans-48"/>
       <use x="63.623047" xlink:href="#DejaVuSans-46"/>
       <use x="95.410156" xlink:href="#DejaVuSans-50"/>
       <use x="159.033203" xlink:href="#DejaVuSans-53"/>
      </g>
     </g>
    </g>
    <g id="xtick_3">
     <g id="line2d_3">
      <g>
       <use style="stroke:#000000;stroke-width:0.8;" x="186.897188" xlink:href="#me3da195332" y="162.7575"/>
      </g>
     </g>
     <g id="text_3">
      <!-- 0.50 -->
      <g transform="translate(175.764375 177.355938)scale(0.1 -0.1)">
       <use xlink:href="#DejaVuSans-48"/>
       <use x="63.623047" xlink:href="#DejaVuSans-46"/>
       <use x="95.410156" xlink:href="#DejaVuSans-53"/>
       <use x="159.033203" xlink:href="#DejaVuSans-48"/>
      </g>
     </g>
    </g>
    <g id="xtick_4">
     <g id="line2d_4">
      <g>
       <use style="stroke:#000000;stroke-width:0.8;" x="228.128925" xlink:href="#me3da195332" y="162.7575"/>
      </g>
     </g>
     <g id="text_4">
      <!-- 0.75 -->
      <g transform="translate(216.996112 177.355938)scale(0.1 -0.1)">
       <defs>
        <path d="M 8.203125 72.90625 
L 55.078125 72.90625 
L 55.078125 68.703125 
L 28.609375 0 
L 18.3125 0 
L 43.21875 64.59375 
L 8.203125 64.59375 
z
" id="DejaVuSans-55"/>
       </defs>
       <use xlink:href="#DejaVuSans-48"/>
       <use x="63.623047" xlink:href="#DejaVuSans-46"/>
       <use x="95.410156" xlink:href="#DejaVuSans-55"/>
       <use x="159.033203" xlink:href="#DejaVuSans-53"/>
      </g>
     </g>
    </g>
    <g id="xtick_5">
     <g id="line2d_5">
      <g>
       <use style="stroke:#000000;stroke-width:0.8;" x="269.360662" xlink:href="#me3da195332" y="162.7575"/>
      </g>
     </g>
     <g id="text_5">
      <!-- 1.00 -->
      <g transform="translate(258.227849 177.355938)scale(0.1 -0.1)">
       <defs>
        <path d="M 12.40625 8.296875 
L 28.515625 8.296875 
L 28.515625 63.921875 
L 10.984375 60.40625 
L 10.984375 69.390625 
L 28.421875 72.90625 
L 38.28125 72.90625 
L 38.28125 8.296875 
L 54.390625 8.296875 
L 54.390625 0 
L 12.40625 0 
z
" id="DejaVuSans-49"/>
       </defs>
       <use xlink:href="#DejaVuSans-49"/>
       <use x="63.623047" xlink:href="#DejaVuSans-46"/>
       <use x="95.410156" xlink:href="#DejaVuSans-48"/>
       <use x="159.033203" xlink:href="#DejaVuSans-48"/>
      </g>
     </g>
    </g>
    <g id="text_6">
     <!-- $x$ -->
     <g transform="translate(181.497187 197.112813)scale(0.18 -0.18)">
      <defs>
       <path d="M 60.015625 54.6875 
L 34.90625 27.875 
L 50.296875 0 
L 39.984375 0 
L 28.421875 21.6875 
L 8.296875 0 
L -2.59375 0 
L 24.3125 28.8125 
L 10.015625 54.6875 
L 20.3125 54.6875 
L 30.8125 34.90625 
L 49.125 54.6875 
z
" id="DejaVuSans-Oblique-120"/>
      </defs>
      <use transform="translate(0 0.3125)" xlink:href="#DejaVuSans-Oblique-120"/>
     </g>
    </g>
   </g>
   <g id="matplotlib.axis_2">
    <g id="ytick_1">
     <g id="line2d_6">
      <defs>
       <path d="M 0 0 
L -3.5 0 
" id="m34e7e2cdc3" style="stroke:#000000;stroke-width:0.8;"/>
      </defs>
      <g>
       <use style="stroke:#000000;stroke-width:0.8;" x="59.903438" xlink:href="#m34e7e2cdc3" y="149.897894"/>
      </g>
     </g>
     <g id="text_7">
      <!-- −1.5 -->
      <g transform="translate(28.620625 153.697113)scale(0.1 -0.1)">
       <defs>
        <path d="M 10.59375 35.5 
L 73.1875 35.5 
L 73.1875 27.203125 
L 10.59375 27.203125 
z
" id="DejaVuSans-8722"/>
       </defs>
       <use xlink:href="#DejaVuSans-8722"/>
       <use x="83.789062" xlink:href="#DejaVuSans-49"/>
       <use x="147.412109" xlink:href="#DejaVuSans-46"/>
       <use x="179.199219" xlink:href="#DejaVuSans-53"/>
      </g>
     </g>
    </g>
    <g id="ytick_2">
     <g id="line2d_7">
      <g>
       <use style="stroke:#000000;stroke-width:0.8;" x="59.903438" xlink:href="#m34e7e2cdc3" y="125.484106"/>
      </g>
     </g>
     <g id="text_8">
      <!-- −1.0 -->
      <g transform="translate(28.620625 129.283325)scale(0.1 -0.1)">
       <use xlink:href="#DejaVuSans-8722"/>
       <use x="83.789062" xlink:href="#DejaVuSans-49"/>
       <use x="147.412109" xlink:href="#DejaVuSans-46"/>
       <use x="179.199219" xlink:href="#DejaVuSans-48"/>
      </g>
     </g>
    </g>
    <g id="ytick_3">
     <g id="line2d_8">
      <g>
       <use style="stroke:#000000;stroke-width:0.8;" x="59.903438" xlink:href="#m34e7e2cdc3" y="101.070318"/>
      </g>
     </g>
     <g id="text_9">
      <!-- −0.5 -->
      <g transform="translate(28.620625 104.869537)scale(0.1 -0.1)">
       <use xlink:href="#DejaVuSans-8722"/>
       <use x="83.789062" xlink:href="#DejaVuSans-48"/>
       <use x="147.412109" xlink:href="#DejaVuSans-46"/>
       <use x="179.199219" xlink:href="#DejaVuSans-53"/>
      </g>
     </g>
    </g>
    <g id="ytick_4">
     <g id="line2d_9">
      <g>
       <use style="stroke:#000000;stroke-width:0.8;" x="59.903438" xlink:href="#m34e7e2cdc3" y="76.65653"/>
      </g>
     </g>
     <g id="text_10">
      <!-- 0.0 -->
      <g transform="translate(37.000312 80.455749)scale(0.1 -0.1)">
       <use xlink:href="#DejaVuSans-48"/>
       <use x="63.623047" xlink:href="#DejaVuSans-46"/>
       <use x="95.410156" xlink:href="#DejaVuSans-48"/>
      </g>
     </g>
    </g>
    <g id="ytick_5">
     <g id="line2d_10">
      <g>
       <use style="stroke:#000000;stroke-width:0.8;" x="59.903438" xlink:href="#m34e7e2cdc3" y="52.242742"/>
      </g>
     </g>
     <g id="text_11">
      <!-- 0.5 -->
      <g transform="translate(37.000312 56.041961)scale(0.1 -0.1)">
       <use xlink:href="#DejaVuSans-48"/>
       <use x="63.623047" xlink:href="#DejaVuSans-46"/>
       <use x="95.410156" xlink:href="#DejaVuSans-53"/>
      </g>
     </g>
    </g>
    <g id="ytick_6">
     <g id="line2d_11">
      <g>
       <use style="stroke:#000000;stroke-width:0.8;" x="59.903438" xlink:href="#m34e7e2cdc3" y="27.828954"/>
      </g>
     </g>
     <g id="text_12">
      <!-- 1.0 -->
      <g transform="translate(37.000312 31.628173)scale(0.1 -0.1)">
       <use xlink:href="#DejaVuSans-49"/>
       <use x="63.623047" xlink:href="#DejaVuSans-46"/>
       <use x="95.410156" xlink:href="#DejaVuSans-48"/>
      </g>
     </g>
    </g>
    <g id="text_13">
     <!-- $y$ -->
     <g transform="translate(20.840625 99.4575)rotate(-90)scale(0.18 -0.18)">
      <defs>
       <path d="M 24.8125 -5.078125 
Q 18.5625 -15.578125 14.625 -18.1875 
Q 10.6875 -20.796875 4.59375 -20.796875 
L -2.484375 -20.796875 
L -0.984375 -13.28125 
L 4.203125 -13.28125 
Q 7.953125 -13.28125 10.59375 -11.234375 
Q 13.234375 -9.1875 16.5 -3.21875 
L 19.28125 2 
L 7.171875 54.6875 
L 16.703125 54.6875 
L 25.78125 12.796875 
L 50.875 54.6875 
L 60.296875 54.6875 
z
" id="DejaVuSans-Oblique-121"/>
      </defs>
      <use transform="translate(0 0.3125)" xlink:href="#DejaVuSans-Oblique-121"/>
     </g>
    </g>
   </g>
   <g id="line2d_12">
    <path clip-path="url(#pb3d4963666)" d="M 71.448324 152.549666 
L 73.780624 149.236884 
L 76.112924 145.271518 
L 78.445225 140.75226 
L 80.777525 135.772052 
L 83.109825 130.418219 
L 85.442126 124.772606 
L 87.774426 118.911709 
L 90.106726 112.906817 
L 92.439026 106.824141 
L 94.771327 100.724952 
L 97.103627 94.665715 
L 99.435927 88.698228 
L 101.768227 82.869751 
L 104.100528 77.223144 
L 106.432828 71.797005 
L 108.765128 66.625801 
L 111.097429 61.740005 
L 113.429729 57.166232 
L 115.762029 52.927371 
L 118.094329 49.042724 
L 120.42663 45.52814 
L 122.75893 42.396149 
L 125.09123 39.656098 
L 127.42353 37.314286 
L 129.755831 35.374098 
L 132.088131 33.836145 
L 134.420431 32.698393 
L 136.752732 31.9563 
L 139.085032 31.602955 
L 141.417332 31.629207 
L 143.749632 32.023806 
L 146.081933 32.773534 
L 148.414233 33.863343 
L 150.746533 35.276487 
L 153.078834 36.994662 
L 155.411134 38.998134 
L 157.743434 41.265883 
L 160.075734 43.775732 
L 162.408035 46.504482 
L 164.740335 49.428051 
L 167.072635 52.521607 
L 169.404935 55.759703 
L 171.737236 59.116413 
L 174.069536 62.565467 
L 176.401836 66.080384 
L 178.734137 69.634611 
L 181.066437 73.201655 
L 183.398737 76.755222 
L 185.731037 80.269347 
L 188.063338 83.718533 
L 190.395638 87.077884 
L 192.727938 90.323242 
L 195.060238 93.431322 
L 197.392539 96.379846 
L 199.724839 99.147678 
L 202.057139 101.714962 
L 204.38944 104.063251 
L 206.72174 106.175652 
L 209.05404 108.03695 
L 211.38634 109.633753 
L 213.718641 110.95462 
L 216.050941 111.9902 
L 218.383241 112.733367 
L 220.715541 113.179353 
L 223.047842 113.325884 
L 225.380142 113.173319 
L 227.712442 112.724778 
L 230.044743 111.986285 
L 232.377043 110.966895 
L 234.709343 109.678837 
L 237.041643 108.137645 
L 239.373944 106.362292 
L 241.706244 104.375328 
L 244.038544 102.203015 
L 246.370845 99.875462 
L 248.703145 97.426757 
L 251.035445 94.895106 
L 253.367745 92.322968 
L 255.700046 89.757188 
L 258.032346 87.249133 
L 260.364646 84.854828 
L 262.696946 82.635091 
L 265.029247 80.655668 
L 267.361547 78.987367 
L 269.693847 77.706195 
L 272.026148 76.893491 
L 274.358448 76.636065 
L 276.690748 77.026329 
L 279.023048 78.162435 
L 281.355349 80.148407 
L 283.687649 83.094281 
L 286.019949 87.116237 
L 288.352249 92.336732 
L 290.68455 98.88464 
L 293.01685 106.895387 
L 295.34915 116.51108 
L 297.681451 127.880649 
L 300.013751 141.159979 
L 302.346051 156.512045 
" style="fill:none;stroke:#000000;stroke-linecap:square;stroke-width:1.5;"/>
   </g>
   <g id="patch_3">
    <path d="M 59.903438 162.7575 
L 59.903438 25.3575 
" style="fill:none;stroke:#000000;stroke-linecap:square;stroke-linejoin:miter;stroke-width:0.8;"/>
   </g>
   <g id="patch_4">
    <path d="M 313.890938 162.7575 
L 313.890938 25.3575 
" style="fill:none;stroke:#000000;stroke-linecap:square;stroke-linejoin:miter;stroke-width:0.8;"/>
   </g>
   <g id="patch_5">
    <path d="M 59.903438 162.7575 
L 313.890938 162.7575 
" style="fill:none;stroke:#000000;stroke-linecap:square;stroke-linejoin:miter;stroke-width:0.8;"/>
   </g>
   <g id="patch_6">
    <path d="M 59.903438 25.3575 
L 313.890938 25.3575 
" style="fill:none;stroke:#000000;stroke-linecap:square;stroke-linejoin:miter;stroke-width:0.8;"/>
   </g>
   <g id="text_14">
    <!-- Training data and predictions -->
    <g transform="translate(70.335938 19.3575)scale(0.16 -0.16)">
     <defs>
      <path d="M -0.296875 72.90625 
L 61.375 72.90625 
L 61.375 64.59375 
L 35.5 64.59375 
L 35.5 0 
L 25.59375 0 
L 25.59375 64.59375 
L -0.296875 64.59375 
z
" id="DejaVuSans-84"/>
      <path d="M 41.109375 46.296875 
Q 39.59375 47.171875 37.8125 47.578125 
Q 36.03125 48 33.890625 48 
Q 26.265625 48 22.1875 43.046875 
Q 18.109375 38.09375 18.109375 28.8125 
L 18.109375 0 
L 9.078125 0 
L 9.078125 54.6875 
L 18.109375 54.6875 
L 18.109375 46.1875 
Q 20.953125 51.171875 25.484375 53.578125 
Q 30.03125 56 36.53125 56 
Q 37.453125 56 38.578125 55.875 
Q 39.703125 55.765625 41.0625 55.515625 
z
" id="DejaVuSans-114"/>
      <path d="M 34.28125 27.484375 
Q 23.390625 27.484375 19.1875 25 
Q 14.984375 22.515625 14.984375 16.5 
Q 14.984375 11.71875 18.140625 8.90625 
Q 21.296875 6.109375 26.703125 6.109375 
Q 34.1875 6.109375 38.703125 11.40625 
Q 43.21875 16.703125 43.21875 25.484375 
L 43.21875 27.484375 
z
M 52.203125 31.203125 
L 52.203125 0 
L 43.21875 0 
L 43.21875 8.296875 
Q 40.140625 3.328125 35.546875 0.953125 
Q 30.953125 -1.421875 24.3125 -1.421875 
Q 15.921875 -1.421875 10.953125 3.296875 
Q 6 8.015625 6 15.921875 
Q 6 25.140625 12.171875 29.828125 
Q 18.359375 34.515625 30.609375 34.515625 
L 43.21875 34.515625 
L 43.21875 35.40625 
Q 43.21875 41.609375 39.140625 45 
Q 35.0625 48.390625 27.6875 48.390625 
Q 23 48.390625 18.546875 47.265625 
Q 14.109375 46.140625 10.015625 43.890625 
L 10.015625 52.203125 
Q 14.9375 54.109375 19.578125 55.046875 
Q 24.21875 56 28.609375 56 
Q 40.484375 56 46.34375 49.84375 
Q 52.203125 43.703125 52.203125 31.203125 
z
" id="DejaVuSans-97"/>
      <path d="M 9.421875 54.6875 
L 18.40625 54.6875 
L 18.40625 0 
L 9.421875 0 
z
M 9.421875 75.984375 
L 18.40625 75.984375 
L 18.40625 64.59375 
L 9.421875 64.59375 
z
" id="DejaVuSans-105"/>
      <path d="M 54.890625 33.015625 
L 54.890625 0 
L 45.90625 0 
L 45.90625 32.71875 
Q 45.90625 40.484375 42.875 44.328125 
Q 39.84375 48.1875 33.796875 48.1875 
Q 26.515625 48.1875 22.3125 43.546875 
Q 18.109375 38.921875 18.109375 30.90625 
L 18.109375 0 
L 9.078125 0 
L 9.078125 54.6875 
L 18.109375 54.6875 
L 18.109375 46.1875 
Q 21.34375 51.125 25.703125 53.5625 
Q 30.078125 56 35.796875 56 
Q 45.21875 56 50.046875 50.171875 
Q 54.890625 44.34375 54.890625 33.015625 
z
" id="DejaVuSans-110"/>
      <path d="M 45.40625 27.984375 
Q 45.40625 37.75 41.375 43.109375 
Q 37.359375 48.484375 30.078125 48.484375 
Q 22.859375 48.484375 18.828125 43.109375 
Q 14.796875 37.75 14.796875 27.984375 
Q 14.796875 18.265625 18.828125 12.890625 
Q 22.859375 7.515625 30.078125 7.515625 
Q 37.359375 7.515625 41.375 12.890625 
Q 45.40625 18.265625 45.40625 27.984375 
z
M 54.390625 6.78125 
Q 54.390625 -7.171875 48.1875 -13.984375 
Q 42 -20.796875 29.203125 -20.796875 
Q 24.46875 -20.796875 20.265625 -20.09375 
Q 16.0625 -19.390625 12.109375 -17.921875 
L 12.109375 -9.1875 
Q 16.0625 -11.328125 19.921875 -12.34375 
Q 23.78125 -13.375 27.78125 -13.375 
Q 36.625 -13.375 41.015625 -8.765625 
Q 45.40625 -4.15625 45.40625 5.171875 
L 45.40625 9.625 
Q 42.625 4.78125 38.28125 2.390625 
Q 33.9375 0 27.875 0 
Q 17.828125 0 11.671875 7.65625 
Q 5.515625 15.328125 5.515625 27.984375 
Q 5.515625 40.671875 11.671875 48.328125 
Q 17.828125 56 27.875 56 
Q 33.9375 56 38.28125 53.609375 
Q 42.625 51.21875 45.40625 46.390625 
L 45.40625 54.6875 
L 54.390625 54.6875 
z
" id="DejaVuSans-103"/>
      <path id="DejaVuSans-32"/>
      <path d="M 45.40625 46.390625 
L 45.40625 75.984375 
L 54.390625 75.984375 
L 54.390625 0 
L 45.40625 0 
L 45.40625 8.203125 
Q 42.578125 3.328125 38.25 0.953125 
Q 33.9375 -1.421875 27.875 -1.421875 
Q 17.96875 -1.421875 11.734375 6.484375 
Q 5.515625 14.40625 5.515625 27.296875 
Q 5.515625 40.1875 11.734375 48.09375 
Q 17.96875 56 27.875 56 
Q 33.9375 56 38.25 53.625 
Q 42.578125 51.265625 45.40625 46.390625 
z
M 14.796875 27.296875 
Q 14.796875 17.390625 18.875 11.75 
Q 22.953125 6.109375 30.078125 6.109375 
Q 37.203125 6.109375 41.296875 11.75 
Q 45.40625 17.390625 45.40625 27.296875 
Q 45.40625 37.203125 41.296875 42.84375 
Q 37.203125 48.484375 30.078125 48.484375 
Q 22.953125 48.484375 18.875 42.84375 
Q 14.796875 37.203125 14.796875 27.296875 
z
" id="DejaVuSans-100"/>
      <path d="M 18.3125 70.21875 
L 18.3125 54.6875 
L 36.8125 54.6875 
L 36.8125 47.703125 
L 18.3125 47.703125 
L 18.3125 18.015625 
Q 18.3125 11.328125 20.140625 9.421875 
Q 21.96875 7.515625 27.59375 7.515625 
L 36.8125 7.515625 
L 36.8125 0 
L 27.59375 0 
Q 17.1875 0 13.234375 3.875 
Q 9.28125 7.765625 9.28125 18.015625 
L 9.28125 47.703125 
L 2.6875 47.703125 
L 2.6875 54.6875 
L 9.28125 54.6875 
L 9.28125 70.21875 
z
" id="DejaVuSans-116"/>
      <path d="M 18.109375 8.203125 
L 18.109375 -20.796875 
L 9.078125 -20.796875 
L 9.078125 54.6875 
L 18.109375 54.6875 
L 18.109375 46.390625 
Q 20.953125 51.265625 25.265625 53.625 
Q 29.59375 56 35.59375 56 
Q 45.5625 56 51.78125 48.09375 
Q 58.015625 40.1875 58.015625 27.296875 
Q 58.015625 14.40625 51.78125 6.484375 
Q 45.5625 -1.421875 35.59375 -1.421875 
Q 29.59375 -1.421875 25.265625 0.953125 
Q 20.953125 3.328125 18.109375 8.203125 
z
M 48.6875 27.296875 
Q 48.6875 37.203125 44.609375 42.84375 
Q 40.53125 48.484375 33.40625 48.484375 
Q 26.265625 48.484375 22.1875 42.84375 
Q 18.109375 37.203125 18.109375 27.296875 
Q 18.109375 17.390625 22.1875 11.75 
Q 26.265625 6.109375 33.40625 6.109375 
Q 40.53125 6.109375 44.609375 11.75 
Q 48.6875 17.390625 48.6875 27.296875 
z
" id="DejaVuSans-112"/>
      <path d="M 56.203125 29.59375 
L 56.203125 25.203125 
L 14.890625 25.203125 
Q 15.484375 15.921875 20.484375 11.0625 
Q 25.484375 6.203125 34.421875 6.203125 
Q 39.59375 6.203125 44.453125 7.46875 
Q 49.3125 8.734375 54.109375 11.28125 
L 54.109375 2.78125 
Q 49.265625 0.734375 44.1875 -0.34375 
Q 39.109375 -1.421875 33.890625 -1.421875 
Q 20.796875 -1.421875 13.15625 6.1875 
Q 5.515625 13.8125 5.515625 26.8125 
Q 5.515625 40.234375 12.765625 48.109375 
Q 20.015625 56 32.328125 56 
Q 43.359375 56 49.78125 48.890625 
Q 56.203125 41.796875 56.203125 29.59375 
z
M 47.21875 32.234375 
Q 47.125 39.59375 43.09375 43.984375 
Q 39.0625 48.390625 32.421875 48.390625 
Q 24.90625 48.390625 20.390625 44.140625 
Q 15.875 39.890625 15.1875 32.171875 
z
" id="DejaVuSans-101"/>
      <path d="M 48.78125 52.59375 
L 48.78125 44.1875 
Q 44.96875 46.296875 41.140625 47.34375 
Q 37.3125 48.390625 33.40625 48.390625 
Q 24.65625 48.390625 19.8125 42.84375 
Q 14.984375 37.3125 14.984375 27.296875 
Q 14.984375 17.28125 19.8125 11.734375 
Q 24.65625 6.203125 33.40625 6.203125 
Q 37.3125 6.203125 41.140625 7.25 
Q 44.96875 8.296875 48.78125 10.40625 
L 48.78125 2.09375 
Q 45.015625 0.34375 40.984375 -0.53125 
Q 36.96875 -1.421875 32.421875 -1.421875 
Q 20.0625 -1.421875 12.78125 6.34375 
Q 5.515625 14.109375 5.515625 27.296875 
Q 5.515625 40.671875 12.859375 48.328125 
Q 20.21875 56 33.015625 56 
Q 37.15625 56 41.109375 55.140625 
Q 45.0625 54.296875 48.78125 52.59375 
z
" id="DejaVuSans-99"/>
      <path d="M 30.609375 48.390625 
Q 23.390625 48.390625 19.1875 42.75 
Q 14.984375 37.109375 14.984375 27.296875 
Q 14.984375 17.484375 19.15625 11.84375 
Q 23.34375 6.203125 30.609375 6.203125 
Q 37.796875 6.203125 41.984375 11.859375 
Q 46.1875 17.53125 46.1875 27.296875 
Q 46.1875 37.015625 41.984375 42.703125 
Q 37.796875 48.390625 30.609375 48.390625 
z
M 30.609375 56 
Q 42.328125 56 49.015625 48.375 
Q 55.71875 40.765625 55.71875 27.296875 
Q 55.71875 13.875 49.015625 6.21875 
Q 42.328125 -1.421875 30.609375 -1.421875 
Q 18.84375 -1.421875 12.171875 6.21875 
Q 5.515625 13.875 5.515625 27.296875 
Q 5.515625 40.765625 12.171875 48.375 
Q 18.84375 56 30.609375 56 
z
" id="DejaVuSans-111"/>
      <path d="M 44.28125 53.078125 
L 44.28125 44.578125 
Q 40.484375 46.53125 36.375 47.5 
Q 32.28125 48.484375 27.875 48.484375 
Q 21.1875 48.484375 17.84375 46.4375 
Q 14.5 44.390625 14.5 40.28125 
Q 14.5 37.15625 16.890625 35.375 
Q 19.28125 33.59375 26.515625 31.984375 
L 29.59375 31.296875 
Q 39.15625 29.25 43.1875 25.515625 
Q 47.21875 21.78125 47.21875 15.09375 
Q 47.21875 7.46875 41.1875 3.015625 
Q 35.15625 -1.421875 24.609375 -1.421875 
Q 20.21875 -1.421875 15.453125 -0.5625 
Q 10.6875 0.296875 5.421875 2 
L 5.421875 11.28125 
Q 10.40625 8.6875 15.234375 7.390625 
Q 20.0625 6.109375 24.8125 6.109375 
Q 31.15625 6.109375 34.5625 8.28125 
Q 37.984375 10.453125 37.984375 14.40625 
Q 37.984375 18.0625 35.515625 20.015625 
Q 33.0625 21.96875 24.703125 23.78125 
L 21.578125 24.515625 
Q 13.234375 26.265625 9.515625 29.90625 
Q 5.8125 33.546875 5.8125 39.890625 
Q 5.8125 47.609375 11.28125 51.796875 
Q 16.75 56 26.8125 56 
Q 31.78125 56 36.171875 55.265625 
Q 40.578125 54.546875 44.28125 53.078125 
z
" id="DejaVuSans-115"/>
     </defs>
     <use xlink:href="#DejaVuSans-84"/>
     <use x="46.333984" xlink:href="#DejaVuSans-114"/>
     <use x="87.447266" xlink:href="#DejaVuSans-97"/>
     <use x="148.726562" xlink:href="#DejaVuSans-105"/>
     <use x="176.509766" xlink:href="#DejaVuSans-110"/>
     <use x="239.888672" xlink:href="#DejaVuSans-105"/>
     <use x="267.671875" xlink:href="#DejaVuSans-110"/>
     <use x="331.050781" xlink:href="#DejaVuSans-103"/>
     <use x="394.527344" xlink:href="#DejaVuSans-32"/>
     <use x="426.314453" xlink:href="#DejaVuSans-100"/>
     <use x="489.791016" xlink:href="#DejaVuSans-97"/>
     <use x="551.070312" xlink:href="#DejaVuSans-116"/>
     <use x="590.279297" xlink:href="#DejaVuSans-97"/>
     <use x="651.558594" xlink:href="#DejaVuSans-32"/>
     <use x="683.345703" xlink:href="#DejaVuSans-97"/>
     <use x="744.625" xlink:href="#DejaVuSans-110"/>
     <use x="808.003906" xlink:href="#DejaVuSans-100"/>
     <use x="871.480469" xlink:href="#DejaVuSans-32"/>
     <use x="903.267578" xlink:href="#DejaVuSans-112"/>
     <use x="966.744141" xlink:href="#DejaVuSans-114"/>
     <use x="1005.607422" xlink:href="#DejaVuSans-101"/>
     <use x="1067.130859" xlink:href="#DejaVuSans-100"/>
     <use x="1130.607422" xlink:href="#DejaVuSans-105"/>
     <use x="1158.390625" xlink:href="#DejaVuSans-99"/>
     <use x="1213.371094" xlink:href="#DejaVuSans-116"/>
     <use x="1252.580078" xlink:href="#DejaVuSans-105"/>
     <use x="1280.363281" xlink:href="#DejaVuSans-111"/>
     <use x="1341.544922" xlink:href="#DejaVuSans-110"/>
     <use x="1404.923828" xlink:href="#DejaVuSans-115"/>
    </g>
   </g>
  </g>
  <g id="axes_2">
   <g id="patch_7">
    <path d="M 378.940937 162.7575 
L 632.928438 162.7575 
L 632.928438 25.3575 
L 378.940937 25.3575 
z
" style="fill:#ffffff;"/>
   </g>
   <g id="matplotlib.axis_3">
    <g id="xtick_6">
     <g id="line2d_13">
      <g>
       <use style="stroke:#000000;stroke-width:0.8;" x="423.471213" xlink:href="#me3da195332" y="162.7575"/>
      </g>
     </g>
     <g id="text_15">
      <!-- 0.00 -->
      <g transform="translate(412.338401 177.355938)scale(0.1 -0.1)">
       <use xlink:href="#DejaVuSans-48"/>
       <use x="63.623047" xlink:href="#DejaVuSans-46"/>
       <use x="95.410156" xlink:href="#DejaVuSans-48"/>
       <use x="159.033203" xlink:href="#DejaVuSans-48"/>
      </g>
     </g>
    </g>
    <g id="xtick_7">
     <g id="line2d_14">
      <g>
       <use style="stroke:#000000;stroke-width:0.8;" x="464.70295" xlink:href="#me3da195332" y="162.7575"/>
      </g>
     </g>
     <g id="text_16">
      <!-- 0.25 -->
      <g transform="translate(453.570138 177.355938)scale(0.1 -0.1)">
       <use xlink:href="#DejaVuSans-48"/>
       <use x="63.623047" xlink:href="#DejaVuSans-46"/>
       <use x="95.410156" xlink:href="#DejaVuSans-50"/>
       <use x="159.033203" xlink:href="#DejaVuSans-53"/>
      </g>
     </g>
    </g>
    <g id="xtick_8">
     <g id="line2d_15">
      <g>
       <use style="stroke:#000000;stroke-width:0.8;" x="505.934687" xlink:href="#me3da195332" y="162.7575"/>
      </g>
     </g>
     <g id="text_17">
      <!-- 0.50 -->
      <g transform="translate(494.801875 177.355938)scale(0.1 -0.1)">
       <use xlink:href="#DejaVuSans-48"/>
       <use x="63.623047" xlink:href="#DejaVuSans-46"/>
       <use x="95.410156" xlink:href="#DejaVuSans-53"/>
       <use x="159.033203" xlink:href="#DejaVuSans-48"/>
      </g>
     </g>
    </g>
    <g id="xtick_9">
     <g id="line2d_16">
      <g>
       <use style="stroke:#000000;stroke-width:0.8;" x="547.166425" xlink:href="#me3da195332" y="162.7575"/>
      </g>
     </g>
     <g id="text_18">
      <!-- 0.75 -->
      <g transform="translate(536.033612 177.355938)scale(0.1 -0.1)">
       <use xlink:href="#DejaVuSans-48"/>
       <use x="63.623047" xlink:href="#DejaVuSans-46"/>
       <use x="95.410156" xlink:href="#DejaVuSans-55"/>
       <use x="159.033203" xlink:href="#DejaVuSans-53"/>
      </g>
     </g>
    </g>
    <g id="xtick_10">
     <g id="line2d_17">
      <g>
       <use style="stroke:#000000;stroke-width:0.8;" x="588.398162" xlink:href="#me3da195332" y="162.7575"/>
      </g>
     </g>
     <g id="text_19">
      <!-- 1.00 -->
      <g transform="translate(577.265349 177.355938)scale(0.1 -0.1)">
       <use xlink:href="#DejaVuSans-49"/>
       <use x="63.623047" xlink:href="#DejaVuSans-46"/>
       <use x="95.410156" xlink:href="#DejaVuSans-48"/>
       <use x="159.033203" xlink:href="#DejaVuSans-48"/>
      </g>
     </g>
    </g>
    <g id="text_20">
     <!-- $x$ -->
     <g transform="translate(501.134687 195.593125)scale(0.16 -0.16)">
      <use transform="translate(0 0.3125)" xlink:href="#DejaVuSans-Oblique-120"/>
     </g>
    </g>
   </g>
   <g id="matplotlib.axis_4">
    <g id="ytick_7">
     <g id="line2d_18">
      <g>
       <use style="stroke:#000000;stroke-width:0.8;" x="378.940937" xlink:href="#m34e7e2cdc3" y="155.84585"/>
      </g>
     </g>
     <g id="text_21">
      <!-- −100 -->
      <g transform="translate(344.47375 159.645068)scale(0.1 -0.1)">
       <use xlink:href="#DejaVuSans-8722"/>
       <use x="83.789062" xlink:href="#DejaVuSans-49"/>
       <use x="147.412109" xlink:href="#DejaVuSans-48"/>
       <use x="211.035156" xlink:href="#DejaVuSans-48"/>
      </g>
     </g>
    </g>
    <g id="ytick_8">
     <g id="line2d_19">
      <g>
       <use style="stroke:#000000;stroke-width:0.8;" x="378.940937" xlink:href="#m34e7e2cdc3" y="133.805561"/>
      </g>
     </g>
     <g id="text_22">
      <!-- −50 -->
      <g transform="translate(350.83625 137.60478)scale(0.1 -0.1)">
       <use xlink:href="#DejaVuSans-8722"/>
       <use x="83.789062" xlink:href="#DejaVuSans-53"/>
       <use x="147.412109" xlink:href="#DejaVuSans-48"/>
      </g>
     </g>
    </g>
    <g id="ytick_9">
     <g id="line2d_20">
      <g>
       <use style="stroke:#000000;stroke-width:0.8;" x="378.940937" xlink:href="#m34e7e2cdc3" y="111.765273"/>
      </g>
     </g>
     <g id="text_23">
      <!-- 0 -->
      <g transform="translate(365.578437 115.564492)scale(0.1 -0.1)">
       <use xlink:href="#DejaVuSans-48"/>
      </g>
     </g>
    </g>
    <g id="ytick_10">
     <g id="line2d_21">
      <g>
       <use style="stroke:#000000;stroke-width:0.8;" x="378.940937" xlink:href="#m34e7e2cdc3" y="89.724985"/>
      </g>
     </g>
     <g id="text_24">
      <!-- 50 -->
      <g transform="translate(359.215937 93.524204)scale(0.1 -0.1)">
       <use xlink:href="#DejaVuSans-53"/>
       <use x="63.623047" xlink:href="#DejaVuSans-48"/>
      </g>
     </g>
    </g>
    <g id="ytick_11">
     <g id="line2d_22">
      <g>
       <use style="stroke:#000000;stroke-width:0.8;" x="378.940937" xlink:href="#m34e7e2cdc3" y="67.684697"/>
      </g>
     </g>
     <g id="text_25">
      <!-- 100 -->
      <g transform="translate(352.853437 71.483915)scale(0.1 -0.1)">
       <use xlink:href="#DejaVuSans-49"/>
       <use x="63.623047" xlink:href="#DejaVuSans-48"/>
       <use x="127.246094" xlink:href="#DejaVuSans-48"/>
      </g>
     </g>
    </g>
    <g id="ytick_12">
     <g id="line2d_23">
      <g>
       <use style="stroke:#000000;stroke-width:0.8;" x="378.940937" xlink:href="#m34e7e2cdc3" y="45.644408"/>
      </g>
     </g>
     <g id="text_26">
      <!-- 150 -->
      <g transform="translate(352.853437 49.443627)scale(0.1 -0.1)">
       <use xlink:href="#DejaVuSans-49"/>
       <use x="63.623047" xlink:href="#DejaVuSans-53"/>
       <use x="127.246094" xlink:href="#DejaVuSans-48"/>
      </g>
     </g>
    </g>
    <g id="text_27">
     <!-- $y$ -->
     <g transform="translate(337.11375 98.8575)rotate(-90)scale(0.16 -0.16)">
      <use transform="translate(0 0.3125)" xlink:href="#DejaVuSans-Oblique-121"/>
     </g>
    </g>
   </g>
   <g id="line2d_24">
    <path clip-path="url(#p7ba6093b27)" d="M 390.485824 111.763261 
L 392.818124 111.763261 
L 395.150424 111.763261 
L 397.482725 111.763261 
L 399.815025 111.763261 
L 402.147325 111.763261 
L 404.479626 111.763261 
L 406.811926 111.763261 
L 409.144226 111.763261 
L 411.476526 111.763261 
L 413.808827 111.763261 
L 416.141127 111.763261 
L 418.473427 111.763261 
L 420.805727 111.763261 
L 423.138028 111.763261 
L 425.470328 111.763261 
L 427.802628 111.763261 
L 430.134929 111.763261 
L 432.467229 111.763261 
L 434.799529 111.763261 
L 437.131829 111.763261 
L 439.46413 111.763261 
L 441.79643 111.763261 
L 444.12873 111.763261 
L 446.46103 111.763261 
L 448.793331 111.763261 
L 451.125631 111.763261 
L 453.457931 111.763261 
L 455.790232 111.763261 
L 458.122532 111.763261 
L 460.454832 111.763261 
L 462.787132 111.763261 
L 465.119433 111.763261 
L 467.451733 111.763261 
L 469.784033 111.763261 
L 472.116334 111.763261 
L 474.448634 111.763261 
L 476.780934 111.763261 
L 479.113234 111.763261 
L 481.445535 111.763261 
L 483.777835 111.763261 
L 486.110135 111.763261 
L 488.442435 111.763261 
L 490.774736 111.763261 
L 493.107036 111.763261 
L 495.439336 111.763261 
L 497.771637 111.763261 
L 500.103937 111.763261 
L 502.436237 111.763261 
L 504.768537 111.763261 
L 507.100838 111.763261 
L 509.433138 111.763261 
L 511.765438 111.763261 
L 514.097738 111.763261 
L 516.430039 111.763261 
L 518.762339 111.763261 
L 521.094639 111.763261 
L 523.42694 111.763261 
L 525.75924 111.763261 
L 528.09154 111.763261 
L 530.42384 111.763261 
L 532.756141 111.763261 
L 535.088441 111.763261 
L 537.420741 111.763261 
L 539.753041 111.763261 
L 542.085342 111.763261 
L 544.417642 111.763261 
L 546.749942 111.763261 
L 549.082243 111.763261 
L 551.414543 111.763261 
L 553.746843 111.763261 
L 556.079143 111.763261 
L 558.411444 111.763261 
L 560.743744 111.763261 
L 563.076044 111.763261 
L 565.408345 111.763261 
L 567.740645 111.763261 
L 570.072945 111.763261 
L 572.405245 111.763261 
L 574.737546 111.763261 
L 577.069846 111.763261 
L 579.402146 111.763261 
L 581.734446 111.763261 
L 584.066747 111.763261 
L 586.399047 111.763261 
L 588.731347 111.763261 
L 591.063648 111.763261 
L 593.395948 111.763261 
L 595.728248 111.763261 
L 598.060548 111.763261 
L 600.392849 111.763261 
L 602.725149 111.763261 
L 605.057449 111.763261 
L 607.389749 111.763261 
L 609.72205 111.763261 
L 612.05435 111.763261 
L 614.38665 111.763261 
L 616.718951 111.763261 
L 619.051251 111.763261 
L 621.383551 111.763261 
" style="fill:none;stroke:#1f77b4;stroke-linecap:square;stroke-width:1.5;"/>
   </g>
   <g id="line2d_25">
    <path clip-path="url(#p7ba6093b27)" d="M 390.485824 112.468853 
L 392.818124 112.419105 
L 395.150424 112.369357 
L 397.482725 112.319609 
L 399.815025 112.269861 
L 402.147325 112.220113 
L 404.479626 112.170365 
L 406.811926 112.120617 
L 409.144226 112.070869 
L 411.476526 112.02112 
L 413.808827 111.971372 
L 416.141127 111.921624 
L 418.473427 111.871876 
L 420.805727 111.822128 
L 423.138028 111.77238 
L 425.470328 111.722632 
L 427.802628 111.672884 
L 430.134929 111.623136 
L 432.467229 111.573388 
L 434.799529 111.52364 
L 437.131829 111.473891 
L 439.46413 111.424143 
L 441.79643 111.374395 
L 444.12873 111.324647 
L 446.46103 111.274899 
L 448.793331 111.225151 
L 451.125631 111.175403 
L 453.457931 111.125655 
L 455.790232 111.075907 
L 458.122532 111.026159 
L 460.454832 110.976411 
L 462.787132 110.926662 
L 465.119433 110.876914 
L 467.451733 110.827166 
L 469.784033 110.777418 
L 472.116334 110.72767 
L 474.448634 110.677922 
L 476.780934 110.628174 
L 479.113234 110.578426 
L 481.445535 110.528678 
L 483.777835 110.47893 
L 486.110135 110.429182 
L 488.442435 110.379433 
L 490.774736 110.329685 
L 493.107036 110.279937 
L 495.439336 110.230189 
L 497.771637 110.180441 
L 500.103937 110.130693 
L 502.436237 110.080945 
L 504.768537 110.031197 
L 507.100838 109.981449 
L 509.433138 109.931701 
L 511.765438 109.881953 
L 514.097738 109.832204 
L 516.430039 109.782456 
L 518.762339 109.732708 
L 521.094639 109.68296 
L 523.42694 109.633212 
L 525.75924 109.583464 
L 528.09154 109.533716 
L 530.42384 109.483968 
L 532.756141 109.43422 
L 535.088441 109.384472 
L 537.420741 109.334724 
L 539.753041 109.284975 
L 542.085342 109.235227 
L 544.417642 109.185479 
L 546.749942 109.135731 
L 549.082243 109.085983 
L 551.414543 109.036235 
L 553.746843 108.986487 
L 556.079143 108.936739 
L 558.411444 108.886991 
L 560.743744 108.837243 
L 563.076044 108.787495 
L 565.408345 108.737746 
L 567.740645 108.687998 
L 570.072945 108.63825 
L 572.405245 108.588502 
L 574.737546 108.538754 
L 577.069846 108.489006 
L 579.402146 108.439258 
L 581.734446 108.38951 
L 584.066747 108.339762 
L 586.399047 108.290014 
L 588.731347 108.240266 
L 591.063648 108.190517 
L 593.395948 108.140769 
L 595.728248 108.091021 
L 598.060548 108.041273 
L 600.392849 107.991525 
L 602.725149 107.941777 
L 605.057449 107.892029 
L 607.389749 107.842281 
L 609.72205 107.792533 
L 612.05435 107.742785 
L 614.38665 107.693037 
L 616.718951 107.643288 
L 619.051251 107.59354 
L 621.383551 107.543792 
" style="fill:none;stroke:#ff7f0e;stroke-linecap:square;stroke-width:1.5;"/>
   </g>
   <g id="line2d_26">
    <path clip-path="url(#p7ba6093b27)" d="M 390.485824 111.969308 
L 392.818124 111.941474 
L 395.150424 111.915681 
L 397.482725 111.891928 
L 399.815025 111.870215 
L 402.147325 111.850542 
L 404.479626 111.83291 
L 406.811926 111.817317 
L 409.144226 111.803765 
L 411.476526 111.792253 
L 413.808827 111.782781 
L 416.141127 111.775349 
L 418.473427 111.769957 
L 420.805727 111.766605 
L 423.138028 111.765294 
L 425.470328 111.766023 
L 427.802628 111.768791 
L 430.134929 111.7736 
L 432.467229 111.780449 
L 434.799529 111.789338 
L 437.131829 111.800268 
L 439.46413 111.813237 
L 441.79643 111.828247 
L 444.12873 111.845296 
L 446.46103 111.864386 
L 448.793331 111.885516 
L 451.125631 111.908686 
L 453.457931 111.933897 
L 455.790232 111.961147 
L 458.122532 111.990438 
L 460.454832 112.021768 
L 462.787132 112.055139 
L 465.119433 112.09055 
L 467.451733 112.128001 
L 469.784033 112.167492 
L 472.116334 112.209024 
L 474.448634 112.252595 
L 476.780934 112.298207 
L 479.113234 112.345858 
L 481.445535 112.39555 
L 483.777835 112.447282 
L 486.110135 112.501055 
L 488.442435 112.556867 
L 490.774736 112.614719 
L 493.107036 112.674612 
L 495.439336 112.736545 
L 497.771637 112.800517 
L 500.103937 112.86653 
L 502.436237 112.934584 
L 504.768537 113.004677 
L 507.100838 113.07681 
L 509.433138 113.150984 
L 511.765438 113.227197 
L 514.097738 113.305451 
L 516.430039 113.385745 
L 518.762339 113.468079 
L 521.094639 113.552453 
L 523.42694 113.638868 
L 525.75924 113.727322 
L 528.09154 113.817817 
L 530.42384 113.910352 
L 532.756141 114.004927 
L 535.088441 114.101542 
L 537.420741 114.200197 
L 539.753041 114.300892 
L 542.085342 114.403628 
L 544.417642 114.508403 
L 546.749942 114.615219 
L 549.082243 114.724075 
L 551.414543 114.834971 
L 553.746843 114.947907 
L 556.079143 115.062883 
L 558.411444 115.179899 
L 560.743744 115.298956 
L 563.076044 115.420053 
L 565.408345 115.543189 
L 567.740645 115.668366 
L 570.072945 115.795583 
L 572.405245 115.924841 
L 574.737546 116.056138 
L 577.069846 116.189476 
L 579.402146 116.324853 
L 581.734446 116.462271 
L 584.066747 116.601729 
L 586.399047 116.743227 
L 588.731347 116.886765 
L 591.063648 117.032343 
L 593.395948 117.179962 
L 595.728248 117.32962 
L 598.060548 117.481319 
L 600.392849 117.635058 
L 602.725149 117.790837 
L 605.057449 117.948656 
L 607.389749 118.108515 
L 609.72205 118.270415 
L 612.05435 118.434354 
L 614.38665 118.600334 
L 616.718951 118.768354 
L 619.051251 118.938414 
L 621.383551 119.110514 
" style="fill:none;stroke:#2ca02c;stroke-linecap:square;stroke-width:1.5;"/>
   </g>
   <g id="line2d_27">
    <path clip-path="url(#p7ba6093b27)" d="M 390.485824 111.612427 
L 392.818124 111.642611 
L 395.150424 111.668533 
L 397.482725 111.69052 
L 399.815025 111.708893 
L 402.147325 111.723979 
L 404.479626 111.736101 
L 406.811926 111.745583 
L 409.144226 111.752749 
L 411.476526 111.757924 
L 413.808827 111.761431 
L 416.141127 111.763596 
L 418.473427 111.764741 
L 420.805727 111.765192 
L 423.138028 111.765273 
L 425.470328 111.765307 
L 427.802628 111.765619 
L 430.134929 111.766533 
L 432.467229 111.768374 
L 434.799529 111.771464 
L 437.131829 111.77613 
L 439.46413 111.782694 
L 441.79643 111.791481 
L 444.12873 111.802816 
L 446.46103 111.817021 
L 448.793331 111.834423 
L 451.125631 111.855344 
L 453.457931 111.880108 
L 455.790232 111.909042 
L 458.122532 111.942467 
L 460.454832 111.980709 
L 462.787132 112.024091 
L 465.119433 112.072938 
L 467.451733 112.127575 
L 469.784033 112.188324 
L 472.116334 112.255511 
L 474.448634 112.329459 
L 476.780934 112.410494 
L 479.113234 112.498938 
L 481.445535 112.595116 
L 483.777835 112.699353 
L 486.110135 112.811972 
L 488.442435 112.933298 
L 490.774736 113.063655 
L 493.107036 113.203367 
L 495.439336 113.352758 
L 497.771637 113.512152 
L 500.103937 113.681874 
L 502.436237 113.862248 
L 504.768537 114.053598 
L 507.100838 114.256248 
L 509.433138 114.470523 
L 511.765438 114.696746 
L 514.097738 114.935242 
L 516.430039 115.186335 
L 518.762339 115.450348 
L 521.094639 115.727607 
L 523.42694 116.018436 
L 525.75924 116.323158 
L 528.09154 116.642099 
L 530.42384 116.975581 
L 532.756141 117.323929 
L 535.088441 117.687468 
L 537.420741 118.066521 
L 539.753041 118.461413 
L 542.085342 118.872469 
L 544.417642 119.300011 
L 546.749942 119.744364 
L 549.082243 120.205854 
L 551.414543 120.684802 
L 553.746843 121.181535 
L 556.079143 121.696376 
L 558.411444 122.229649 
L 560.743744 122.781679 
L 563.076044 123.352789 
L 565.408345 123.943304 
L 567.740645 124.553548 
L 570.072945 125.183845 
L 572.405245 125.834519 
L 574.737546 126.505896 
L 577.069846 127.198297 
L 579.402146 127.912049 
L 581.734446 128.647475 
L 584.066747 129.404899 
L 586.399047 130.184646 
L 588.731347 130.987039 
L 591.063648 131.812404 
L 593.395948 132.661063 
L 595.728248 133.533342 
L 598.060548 134.429563 
L 600.392849 135.350053 
L 602.725149 136.295134 
L 605.057449 137.265132 
L 607.389749 138.260369 
L 609.72205 139.281171 
L 612.05435 140.327861 
L 614.38665 141.400764 
L 616.718951 142.500204 
L 619.051251 143.626505 
L 621.383551 144.779992 
" style="fill:none;stroke:#d62728;stroke-linecap:square;stroke-width:1.5;"/>
   </g>
   <g id="line2d_28">
    <path clip-path="url(#p7ba6093b27)" d="M 390.485824 111.703419 
L 392.818124 111.719144 
L 395.150424 111.731661 
L 397.482725 111.741439 
L 399.815025 111.74891 
L 402.147325 111.75447 
L 404.479626 111.758476 
L 406.811926 111.761249 
L 409.144226 111.763072 
L 411.476526 111.764192 
L 413.808827 111.764818 
L 416.141127 111.765122 
L 418.473427 111.76524 
L 420.805727 111.76527 
L 423.138028 111.765273 
L 425.470328 111.765272 
L 427.802628 111.765255 
L 430.134929 111.76517 
L 432.467229 111.764931 
L 434.799529 111.764413 
L 437.131829 111.763454 
L 439.46413 111.761855 
L 441.79643 111.759381 
L 444.12873 111.755758 
L 446.46103 111.750678 
L 448.793331 111.743791 
L 451.125631 111.734714 
L 453.457931 111.723026 
L 455.790232 111.708268 
L 458.122532 111.689945 
L 460.454832 111.667523 
L 462.787132 111.640433 
L 465.119433 111.608069 
L 467.451733 111.569785 
L 469.784033 111.524901 
L 472.116334 111.472699 
L 474.448634 111.412423 
L 476.780934 111.343281 
L 479.113234 111.264443 
L 481.445535 111.175043 
L 483.777835 111.074176 
L 486.110135 110.960903 
L 488.442435 110.834245 
L 490.774736 110.693186 
L 493.107036 110.536676 
L 495.439336 110.363623 
L 497.771637 110.172903 
L 500.103937 109.963352 
L 502.436237 109.733768 
L 504.768537 109.482915 
L 507.100838 109.209517 
L 509.433138 108.912263 
L 511.765438 108.589803 
L 514.097738 108.240752 
L 516.430039 107.863686 
L 518.762339 107.457145 
L 521.094639 107.019631 
L 523.42694 106.54961 
L 525.75924 106.045511 
L 528.09154 105.505724 
L 530.42384 104.928603 
L 532.756141 104.312466 
L 535.088441 103.655593 
L 537.420741 102.956226 
L 539.753041 102.212572 
L 542.085342 101.422798 
L 544.417642 100.585037 
L 546.749942 99.697382 
L 549.082243 98.757891 
L 551.414543 97.764585 
L 553.746843 96.715446 
L 556.079143 95.60842 
L 558.411444 94.441416 
L 560.743744 93.212307 
L 563.076044 91.918926 
L 565.408345 90.559071 
L 567.740645 89.130504 
L 570.072945 87.630946 
L 572.405245 86.058085 
L 574.737546 84.409569 
L 577.069846 82.683011 
L 579.402146 80.875985 
L 581.734446 78.986029 
L 584.066747 77.010645 
L 586.399047 74.947296 
L 588.731347 72.793408 
L 591.063648 70.54637 
L 593.395948 68.203536 
L 595.728248 65.762219 
L 598.060548 63.219699 
L 600.392849 60.573217 
L 602.725149 57.819976 
L 605.057449 54.957142 
L 607.389749 51.981847 
L 609.72205 48.891182 
L 612.05435 45.682202 
L 614.38665 42.351927 
L 616.718951 38.897338 
L 619.051251 35.315378 
L 621.383551 31.602955 
" style="fill:none;stroke:#9467bd;stroke-linecap:square;stroke-width:1.5;"/>
   </g>
   <g id="line2d_29">
    <path clip-path="url(#p7ba6093b27)" d="M 390.485824 111.759519 
L 392.818124 111.761285 
L 395.150424 111.762588 
L 397.482725 111.763526 
L 399.815025 111.764181 
L 402.147325 111.764623 
L 404.479626 111.764909 
L 406.811926 111.765084 
L 409.144226 111.765184 
L 411.476526 111.765237 
L 413.808827 111.765261 
L 416.141127 111.76527 
L 418.473427 111.765273 
L 420.805727 111.765273 
L 423.138028 111.765273 
L 425.470328 111.765273 
L 427.802628 111.765273 
L 430.134929 111.765275 
L 432.467229 111.765282 
L 434.799529 111.765301 
L 437.131829 111.765343 
L 439.46413 111.765427 
L 441.79643 111.765578 
L 444.12873 111.765827 
L 446.46103 111.766219 
L 448.793331 111.766807 
L 451.125631 111.767657 
L 453.457931 111.768846 
L 455.790232 111.770469 
L 458.122532 111.772635 
L 460.454832 111.775469 
L 462.787132 111.779116 
L 465.119433 111.783739 
L 467.451733 111.789522 
L 469.784033 111.796671 
L 472.116334 111.805415 
L 474.448634 111.816006 
L 476.780934 111.828723 
L 479.113234 111.843871 
L 481.445535 111.861784 
L 483.777835 111.882823 
L 486.110135 111.907381 
L 488.442435 111.935882 
L 490.774736 111.968783 
L 493.107036 112.006575 
L 495.439336 112.049784 
L 497.771637 112.098971 
L 500.103937 112.154738 
L 502.436237 112.217724 
L 504.768537 112.288607 
L 507.100838 112.368108 
L 509.433138 112.456989 
L 511.765438 112.556059 
L 514.097738 112.666168 
L 516.430039 112.788214 
L 518.762339 112.923143 
L 521.094639 113.071948 
L 523.42694 113.235674 
L 525.75924 113.415415 
L 528.09154 113.612319 
L 530.42384 113.827586 
L 532.756141 114.062473 
L 535.088441 114.318289 
L 537.420741 114.596404 
L 539.753041 114.898246 
L 542.085342 115.2253 
L 544.417642 115.579114 
L 546.749942 115.961299 
L 549.082243 116.373525 
L 551.414543 116.817532 
L 553.746843 117.295122 
L 556.079143 117.808165 
L 558.411444 118.3586 
L 560.743744 118.948434 
L 563.076044 119.579744 
L 565.408345 120.254683 
L 567.740645 120.975471 
L 570.072945 121.744408 
L 572.405245 122.563864 
L 574.737546 123.436291 
L 577.069846 124.364216 
L 579.402146 125.350245 
L 581.734446 126.397066 
L 584.066747 127.507446 
L 586.399047 128.684238 
L 588.731347 129.930376 
L 591.063648 131.248883 
L 593.395948 132.642863 
L 595.728248 134.115514 
L 598.060548 135.670118 
L 600.392849 137.310049 
L 602.725149 139.038773 
L 605.057449 140.859847 
L 607.389749 142.776923 
L 609.72205 144.793749 
L 612.05435 146.914166 
L 614.38665 149.142115 
L 616.718951 151.481635 
L 619.051251 153.936865 
L 621.383551 156.512045 
" style="fill:none;stroke:#8c564b;stroke-linecap:square;stroke-width:1.5;"/>
   </g>
   <g id="patch_8">
    <path d="M 378.940937 162.7575 
L 378.940937 25.3575 
" style="fill:none;stroke:#000000;stroke-linecap:square;stroke-linejoin:miter;stroke-width:0.8;"/>
   </g>
   <g id="patch_9">
    <path d="M 632.928438 162.7575 
L 632.928438 25.3575 
" style="fill:none;stroke:#000000;stroke-linecap:square;stroke-linejoin:miter;stroke-width:0.8;"/>
   </g>
   <g id="patch_10">
    <path d="M 378.940937 162.7575 
L 632.928438 162.7575 
" style="fill:none;stroke:#000000;stroke-linecap:square;stroke-linejoin:miter;stroke-width:0.8;"/>
   </g>
   <g id="patch_11">
    <path d="M 378.940937 25.3575 
L 632.928438 25.3575 
" style="fill:none;stroke:#000000;stroke-linecap:square;stroke-linejoin:miter;stroke-width:0.8;"/>
   </g>
   <g id="text_28">
    <!-- Individual components of the model -->
    <g transform="translate(361.624687 19.3575)scale(0.16 -0.16)">
     <defs>
      <path d="M 9.8125 72.90625 
L 19.671875 72.90625 
L 19.671875 0 
L 9.8125 0 
z
" id="DejaVuSans-73"/>
      <path d="M 2.984375 54.6875 
L 12.5 54.6875 
L 29.59375 8.796875 
L 46.6875 54.6875 
L 56.203125 54.6875 
L 35.6875 0 
L 23.484375 0 
z
" id="DejaVuSans-118"/>
      <path d="M 8.5 21.578125 
L 8.5 54.6875 
L 17.484375 54.6875 
L 17.484375 21.921875 
Q 17.484375 14.15625 20.5 10.265625 
Q 23.53125 6.390625 29.59375 6.390625 
Q 36.859375 6.390625 41.078125 11.03125 
Q 45.3125 15.671875 45.3125 23.6875 
L 45.3125 54.6875 
L 54.296875 54.6875 
L 54.296875 0 
L 45.3125 0 
L 45.3125 8.40625 
Q 42.046875 3.421875 37.71875 1 
Q 33.40625 -1.421875 27.6875 -1.421875 
Q 18.265625 -1.421875 13.375 4.4375 
Q 8.5 10.296875 8.5 21.578125 
z
M 31.109375 56 
z
" id="DejaVuSans-117"/>
      <path d="M 9.421875 75.984375 
L 18.40625 75.984375 
L 18.40625 0 
L 9.421875 0 
z
" id="DejaVuSans-108"/>
      <path d="M 52 44.1875 
Q 55.375 50.25 60.0625 53.125 
Q 64.75 56 71.09375 56 
Q 79.640625 56 84.28125 50.015625 
Q 88.921875 44.046875 88.921875 33.015625 
L 88.921875 0 
L 79.890625 0 
L 79.890625 32.71875 
Q 79.890625 40.578125 77.09375 44.375 
Q 74.3125 48.1875 68.609375 48.1875 
Q 61.625 48.1875 57.5625 43.546875 
Q 53.515625 38.921875 53.515625 30.90625 
L 53.515625 0 
L 44.484375 0 
L 44.484375 32.71875 
Q 44.484375 40.625 41.703125 44.40625 
Q 38.921875 48.1875 33.109375 48.1875 
Q 26.21875 48.1875 22.15625 43.53125 
Q 18.109375 38.875 18.109375 30.90625 
L 18.109375 0 
L 9.078125 0 
L 9.078125 54.6875 
L 18.109375 54.6875 
L 18.109375 46.1875 
Q 21.1875 51.21875 25.484375 53.609375 
Q 29.78125 56 35.6875 56 
Q 41.65625 56 45.828125 52.96875 
Q 50 49.953125 52 44.1875 
z
" id="DejaVuSans-109"/>
      <path d="M 37.109375 75.984375 
L 37.109375 68.5 
L 28.515625 68.5 
Q 23.6875 68.5 21.796875 66.546875 
Q 19.921875 64.59375 19.921875 59.515625 
L 19.921875 54.6875 
L 34.71875 54.6875 
L 34.71875 47.703125 
L 19.921875 47.703125 
L 19.921875 0 
L 10.890625 0 
L 10.890625 47.703125 
L 2.296875 47.703125 
L 2.296875 54.6875 
L 10.890625 54.6875 
L 10.890625 58.5 
Q 10.890625 67.625 15.140625 71.796875 
Q 19.390625 75.984375 28.609375 75.984375 
z
" id="DejaVuSans-102"/>
      <path d="M 54.890625 33.015625 
L 54.890625 0 
L 45.90625 0 
L 45.90625 32.71875 
Q 45.90625 40.484375 42.875 44.328125 
Q 39.84375 48.1875 33.796875 48.1875 
Q 26.515625 48.1875 22.3125 43.546875 
Q 18.109375 38.921875 18.109375 30.90625 
L 18.109375 0 
L 9.078125 0 
L 9.078125 75.984375 
L 18.109375 75.984375 
L 18.109375 46.1875 
Q 21.34375 51.125 25.703125 53.5625 
Q 30.078125 56 35.796875 56 
Q 45.21875 56 50.046875 50.171875 
Q 54.890625 44.34375 54.890625 33.015625 
z
" id="DejaVuSans-104"/>
     </defs>
     <use xlink:href="#DejaVuSans-73"/>
     <use x="29.492188" xlink:href="#DejaVuSans-110"/>
     <use x="92.871094" xlink:href="#DejaVuSans-100"/>
     <use x="156.347656" xlink:href="#DejaVuSans-105"/>
     <use x="184.130859" xlink:href="#DejaVuSans-118"/>
     <use x="243.310547" xlink:href="#DejaVuSans-105"/>
     <use x="271.09375" xlink:href="#DejaVuSans-100"/>
     <use x="334.570312" xlink:href="#DejaVuSans-117"/>
     <use x="397.949219" xlink:href="#DejaVuSans-97"/>
     <use x="459.228516" xlink:href="#DejaVuSans-108"/>
     <use x="487.011719" xlink:href="#DejaVuSans-32"/>
     <use x="518.798828" xlink:href="#DejaVuSans-99"/>
     <use x="573.779297" xlink:href="#DejaVuSans-111"/>
     <use x="634.960938" xlink:href="#DejaVuSans-109"/>
     <use x="732.373047" xlink:href="#DejaVuSans-112"/>
     <use x="795.849609" xlink:href="#DejaVuSans-111"/>
     <use x="857.03125" xlink:href="#DejaVuSans-110"/>
     <use x="920.410156" xlink:href="#DejaVuSans-101"/>
     <use x="981.933594" xlink:href="#DejaVuSans-110"/>
     <use x="1045.3125" xlink:href="#DejaVuSans-116"/>
     <use x="1084.521484" xlink:href="#DejaVuSans-115"/>
     <use x="1136.621094" xlink:href="#DejaVuSans-32"/>
     <use x="1168.408203" xlink:href="#DejaVuSans-111"/>
     <use x="1229.589844" xlink:href="#DejaVuSans-102"/>
     <use x="1264.794922" xlink:href="#DejaVuSans-32"/>
     <use x="1296.582031" xlink:href="#DejaVuSans-116"/>
     <use x="1335.791016" xlink:href="#DejaVuSans-104"/>
     <use x="1399.169922" xlink:href="#DejaVuSans-101"/>
     <use x="1460.693359" xlink:href="#DejaVuSans-32"/>
     <use x="1492.480469" xlink:href="#DejaVuSans-109"/>
     <use x="1589.892578" xlink:href="#DejaVuSans-111"/>
     <use x="1651.074219" xlink:href="#DejaVuSans-100"/>
     <use x="1714.550781" xlink:href="#DejaVuSans-101"/>
     <use x="1776.074219" xlink:href="#DejaVuSans-108"/>
    </g>
   </g>
   <g id="legend_1">
    <g id="patch_12">
     <path d="M 385.940937 121.42625 
L 439.031562 121.42625 
Q 441.031562 121.42625 441.031562 119.42625 
L 441.031562 32.3575 
Q 441.031562 30.3575 439.031562 30.3575 
L 385.940937 30.3575 
Q 383.940937 30.3575 383.940937 32.3575 
L 383.940937 119.42625 
Q 383.940937 121.42625 385.940937 121.42625 
z
" style="fill:#ffffff;opacity:0.8;stroke:#cccccc;stroke-linejoin:miter;"/>
    </g>
    <g id="line2d_30">
     <path d="M 387.940937 38.455938 
L 407.940937 38.455938 
" style="fill:none;stroke:#1f77b4;stroke-linecap:square;stroke-width:1.5;"/>
    </g>
    <g id="line2d_31"/>
    <g id="text_29">
     <!-- d=0 -->
     <g transform="translate(415.940937 41.955938)scale(0.1 -0.1)">
      <defs>
       <path d="M 10.59375 45.40625 
L 73.1875 45.40625 
L 73.1875 37.203125 
L 10.59375 37.203125 
z
M 10.59375 25.484375 
L 73.1875 25.484375 
L 73.1875 17.1875 
L 10.59375 17.1875 
z
" id="DejaVuSans-61"/>
      </defs>
      <use xlink:href="#DejaVuSans-100"/>
      <use x="63.476562" xlink:href="#DejaVuSans-61"/>
      <use x="147.265625" xlink:href="#DejaVuSans-48"/>
     </g>
    </g>
    <g id="line2d_32">
     <path d="M 387.940937 53.134063 
L 407.940937 53.134063 
" style="fill:none;stroke:#ff7f0e;stroke-linecap:square;stroke-width:1.5;"/>
    </g>
    <g id="line2d_33"/>
    <g id="text_30">
     <!-- d=1 -->
     <g transform="translate(415.940937 56.634063)scale(0.1 -0.1)">
      <use xlink:href="#DejaVuSans-100"/>
      <use x="63.476562" xlink:href="#DejaVuSans-61"/>
      <use x="147.265625" xlink:href="#DejaVuSans-49"/>
     </g>
    </g>
    <g id="line2d_34">
     <path d="M 387.940937 67.812188 
L 407.940937 67.812188 
" style="fill:none;stroke:#2ca02c;stroke-linecap:square;stroke-width:1.5;"/>
    </g>
    <g id="line2d_35"/>
    <g id="text_31">
     <!-- d=2 -->
     <g transform="translate(415.940937 71.312188)scale(0.1 -0.1)">
      <use xlink:href="#DejaVuSans-100"/>
      <use x="63.476562" xlink:href="#DejaVuSans-61"/>
      <use x="147.265625" xlink:href="#DejaVuSans-50"/>
     </g>
    </g>
    <g id="line2d_36">
     <path d="M 387.940937 82.490313 
L 407.940937 82.490313 
" style="fill:none;stroke:#d62728;stroke-linecap:square;stroke-width:1.5;"/>
    </g>
    <g id="line2d_37"/>
    <g id="text_32">
     <!-- d=3 -->
     <g transform="translate(415.940937 85.990313)scale(0.1 -0.1)">
      <defs>
       <path d="M 40.578125 39.3125 
Q 47.65625 37.796875 51.625 33 
Q 55.609375 28.21875 55.609375 21.1875 
Q 55.609375 10.40625 48.1875 4.484375 
Q 40.765625 -1.421875 27.09375 -1.421875 
Q 22.515625 -1.421875 17.65625 -0.515625 
Q 12.796875 0.390625 7.625 2.203125 
L 7.625 11.71875 
Q 11.71875 9.328125 16.59375 8.109375 
Q 21.484375 6.890625 26.8125 6.890625 
Q 36.078125 6.890625 40.9375 10.546875 
Q 45.796875 14.203125 45.796875 21.1875 
Q 45.796875 27.640625 41.28125 31.265625 
Q 36.765625 34.90625 28.71875 34.90625 
L 20.21875 34.90625 
L 20.21875 43.015625 
L 29.109375 43.015625 
Q 36.375 43.015625 40.234375 45.921875 
Q 44.09375 48.828125 44.09375 54.296875 
Q 44.09375 59.90625 40.109375 62.90625 
Q 36.140625 65.921875 28.71875 65.921875 
Q 24.65625 65.921875 20.015625 65.03125 
Q 15.375 64.15625 9.8125 62.3125 
L 9.8125 71.09375 
Q 15.4375 72.65625 20.34375 73.4375 
Q 25.25 74.21875 29.59375 74.21875 
Q 40.828125 74.21875 47.359375 69.109375 
Q 53.90625 64.015625 53.90625 55.328125 
Q 53.90625 49.265625 50.4375 45.09375 
Q 46.96875 40.921875 40.578125 39.3125 
z
" id="DejaVuSans-51"/>
      </defs>
      <use xlink:href="#DejaVuSans-100"/>
      <use x="63.476562" xlink:href="#DejaVuSans-61"/>
      <use x="147.265625" xlink:href="#DejaVuSans-51"/>
     </g>
    </g>
    <g id="line2d_38">
     <path d="M 387.940937 97.168438 
L 407.940937 97.168438 
" style="fill:none;stroke:#9467bd;stroke-linecap:square;stroke-width:1.5;"/>
    </g>
    <g id="line2d_39"/>
    <g id="text_33">
     <!-- d=4 -->
     <g transform="translate(415.940937 100.668438)scale(0.1 -0.1)">
      <defs>
       <path d="M 37.796875 64.3125 
L 12.890625 25.390625 
L 37.796875 25.390625 
z
M 35.203125 72.90625 
L 47.609375 72.90625 
L 47.609375 25.390625 
L 58.015625 25.390625 
L 58.015625 17.1875 
L 47.609375 17.1875 
L 47.609375 0 
L 37.796875 0 
L 37.796875 17.1875 
L 4.890625 17.1875 
L 4.890625 26.703125 
z
" id="DejaVuSans-52"/>
      </defs>
      <use xlink:href="#DejaVuSans-100"/>
      <use x="63.476562" xlink:href="#DejaVuSans-61"/>
      <use x="147.265625" xlink:href="#DejaVuSans-52"/>
     </g>
    </g>
    <g id="line2d_40">
     <path d="M 387.940937 111.846563 
L 407.940937 111.846563 
" style="fill:none;stroke:#8c564b;stroke-linecap:square;stroke-width:1.5;"/>
    </g>
    <g id="line2d_41"/>
    <g id="text_34">
     <!-- d=5 -->
     <g transform="translate(415.940937 115.346563)scale(0.1 -0.1)">
      <use xlink:href="#DejaVuSans-100"/>
      <use x="63.476562" xlink:href="#DejaVuSans-61"/>
      <use x="147.265625" xlink:href="#DejaVuSans-53"/>
     </g>
    </g>
   </g>
  </g>
 </g>
 <defs>
  <clipPath id="pb3d4963666">
   <rect height="137.4" width="253.9875" x="59.903438" y="25.3575"/>
  </clipPath>
  <clipPath id="p7ba6093b27">
   <rect height="137.4" width="253.9875" x="378.940937" y="25.3575"/>
  </clipPath>
 </defs>
</svg>
