<?xml version="1.0" encoding="utf-8" standalone="no"?>
<!DOCTYPE svg PUBLIC "-//W3C//DTD SVG 1.1//EN"
  "http://www.w3.org/Graphics/SVG/1.1/DTD/svg11.dtd">
<!-- Created with matplotlib (https://matplotlib.org/) -->
<svg height="233.320313pt" version="1.1" viewBox="0 0 513.16 233.320313" width="513.16pt" xmlns="http://www.w3.org/2000/svg" xmlns:xlink="http://www.w3.org/1999/xlink">
 <metadata>
  <rdf:RDF xmlns:cc="http://creativecommons.org/ns#" xmlns:dc="http://purl.org/dc/elements/1.1/" xmlns:rdf="http://www.w3.org/1999/02/22-rdf-syntax-ns#">
   <cc:Work>
    <dc:type rdf:resource="http://purl.org/dc/dcmitype/StillImage"/>
    <dc:date>2021-02-16T00:43:35.074582</dc:date>
    <dc:format>image/svg+xml</dc:format>
    <dc:creator>
     <cc:Agent>
      <dc:title>Matplotlib v3.3.3, https://matplotlib.org/</dc:title>
     </cc:Agent>
    </dc:creator>
   </cc:Work>
  </rdf:RDF>
 </metadata>
 <defs>
  <style type="text/css">*{stroke-linecap:butt;stroke-linejoin:round;}</style>
 </defs>
 <g id="figure_1">
  <g id="patch_1">
   <path d="M 0 233.320313 
L 513.16 233.320313 
L 513.16 0 
L 0 0 
z
" style="fill:none;"/>
  </g>
  <g id="axes_1">
   <g id="patch_2">
    <path d="M 48.427188 189.957188 
L 494.827187 189.957188 
L 494.827187 26.877188 
L 48.427188 26.877188 
z
" style="fill:#ffffff;"/>
   </g>
   <g id="matplotlib.axis_1">
    <g id="xtick_1">
     <g id="line2d_1">
      <defs>
       <path d="M 0 0 
L 0 3.5 
" id="me995943d3a" style="stroke:#000000;stroke-width:0.8;"/>
      </defs>
      <g>
       <use style="stroke:#000000;stroke-width:0.8;" x="48.427188" xlink:href="#me995943d3a" y="189.957188"/>
      </g>
     </g>
     <g id="text_1">
      <!-- 0.00 -->
      <g transform="translate(37.294375 204.555625)scale(0.1 -0.1)">
       <defs>
        <path d="M 31.78125 66.40625 
Q 24.171875 66.40625 20.328125 58.90625 
Q 16.5 51.421875 16.5 36.375 
Q 16.5 21.390625 20.328125 13.890625 
Q 24.171875 6.390625 31.78125 6.390625 
Q 39.453125 6.390625 43.28125 13.890625 
Q 47.125 21.390625 47.125 36.375 
Q 47.125 51.421875 43.28125 58.90625 
Q 39.453125 66.40625 31.78125 66.40625 
z
M 31.78125 74.21875 
Q 44.046875 74.21875 50.515625 64.515625 
Q 56.984375 54.828125 56.984375 36.375 
Q 56.984375 17.96875 50.515625 8.265625 
Q 44.046875 -1.421875 31.78125 -1.421875 
Q 19.53125 -1.421875 13.0625 8.265625 
Q 6.59375 17.96875 6.59375 36.375 
Q 6.59375 54.828125 13.0625 64.515625 
Q 19.53125 74.21875 31.78125 74.21875 
z
" id="DejaVuSans-48"/>
        <path d="M 10.6875 12.40625 
L 21 12.40625 
L 21 0 
L 10.6875 0 
z
" id="DejaVuSans-46"/>
       </defs>
       <use xlink:href="#DejaVuSans-48"/>
       <use x="63.623047" xlink:href="#DejaVuSans-46"/>
       <use x="95.410156" xlink:href="#DejaVuSans-48"/>
       <use x="159.033203" xlink:href="#DejaVuSans-48"/>
      </g>
     </g>
    </g>
    <g id="xtick_2">
     <g id="line2d_2">
      <g>
       <use style="stroke:#000000;stroke-width:0.8;" x="160.027187" xlink:href="#me995943d3a" y="189.957188"/>
      </g>
     </g>
     <g id="text_2">
      <!-- 0.25 -->
      <g transform="translate(148.894375 204.555625)scale(0.1 -0.1)">
       <defs>
        <path d="M 19.1875 8.296875 
L 53.609375 8.296875 
L 53.609375 0 
L 7.328125 0 
L 7.328125 8.296875 
Q 12.9375 14.109375 22.625 23.890625 
Q 32.328125 33.6875 34.8125 36.53125 
Q 39.546875 41.84375 41.421875 45.53125 
Q 43.3125 49.21875 43.3125 52.78125 
Q 43.3125 58.59375 39.234375 62.25 
Q 35.15625 65.921875 28.609375 65.921875 
Q 23.96875 65.921875 18.8125 64.3125 
Q 13.671875 62.703125 7.8125 59.421875 
L 7.8125 69.390625 
Q 13.765625 71.78125 18.9375 73 
Q 24.125 74.21875 28.421875 74.21875 
Q 39.75 74.21875 46.484375 68.546875 
Q 53.21875 62.890625 53.21875 53.421875 
Q 53.21875 48.921875 51.53125 44.890625 
Q 49.859375 40.875 45.40625 35.40625 
Q 44.1875 33.984375 37.640625 27.21875 
Q 31.109375 20.453125 19.1875 8.296875 
z
" id="DejaVuSans-50"/>
        <path d="M 10.796875 72.90625 
L 49.515625 72.90625 
L 49.515625 64.59375 
L 19.828125 64.59375 
L 19.828125 46.734375 
Q 21.96875 47.46875 24.109375 47.828125 
Q 26.265625 48.1875 28.421875 48.1875 
Q 40.625 48.1875 47.75 41.5 
Q 54.890625 34.8125 54.890625 23.390625 
Q 54.890625 11.625 47.5625 5.09375 
Q 40.234375 -1.421875 26.90625 -1.421875 
Q 22.3125 -1.421875 17.546875 -0.640625 
Q 12.796875 0.140625 7.71875 1.703125 
L 7.71875 11.625 
Q 12.109375 9.234375 16.796875 8.0625 
Q 21.484375 6.890625 26.703125 6.890625 
Q 35.15625 6.890625 40.078125 11.328125 
Q 45.015625 15.765625 45.015625 23.390625 
Q 45.015625 31 40.078125 35.4375 
Q 35.15625 39.890625 26.703125 39.890625 
Q 22.75 39.890625 18.8125 39.015625 
Q 14.890625 38.140625 10.796875 36.28125 
z
" id="DejaVuSans-53"/>
       </defs>
       <use xlink:href="#DejaVuSans-48"/>
       <use x="63.623047" xlink:href="#DejaVuSans-46"/>
       <use x="95.410156" xlink:href="#DejaVuSans-50"/>
       <use x="159.033203" xlink:href="#DejaVuSans-53"/>
      </g>
     </g>
    </g>
    <g id="xtick_3">
     <g id="line2d_3">
      <g>
       <use style="stroke:#000000;stroke-width:0.8;" x="271.627187" xlink:href="#me995943d3a" y="189.957188"/>
      </g>
     </g>
     <g id="text_3">
      <!-- 0.50 -->
      <g transform="translate(260.494375 204.555625)scale(0.1 -0.1)">
       <use xlink:href="#DejaVuSans-48"/>
       <use x="63.623047" xlink:href="#DejaVuSans-46"/>
       <use x="95.410156" xlink:href="#DejaVuSans-53"/>
       <use x="159.033203" xlink:href="#DejaVuSans-48"/>
      </g>
     </g>
    </g>
    <g id="xtick_4">
     <g id="line2d_4">
      <g>
       <use style="stroke:#000000;stroke-width:0.8;" x="383.227187" xlink:href="#me995943d3a" y="189.957188"/>
      </g>
     </g>
     <g id="text_4">
      <!-- 0.75 -->
      <g transform="translate(372.094375 204.555625)scale(0.1 -0.1)">
       <defs>
        <path d="M 8.203125 72.90625 
L 55.078125 72.90625 
L 55.078125 68.703125 
L 28.609375 0 
L 18.3125 0 
L 43.21875 64.59375 
L 8.203125 64.59375 
z
" id="DejaVuSans-55"/>
       </defs>
       <use xlink:href="#DejaVuSans-48"/>
       <use x="63.623047" xlink:href="#DejaVuSans-46"/>
       <use x="95.410156" xlink:href="#DejaVuSans-55"/>
       <use x="159.033203" xlink:href="#DejaVuSans-53"/>
      </g>
     </g>
    </g>
    <g id="xtick_5">
     <g id="line2d_5">
      <g>
       <use style="stroke:#000000;stroke-width:0.8;" x="494.827187" xlink:href="#me995943d3a" y="189.957188"/>
      </g>
     </g>
     <g id="text_5">
      <!-- 1.00 -->
      <g transform="translate(483.694375 204.555625)scale(0.1 -0.1)">
       <defs>
        <path d="M 12.40625 8.296875 
L 28.515625 8.296875 
L 28.515625 63.921875 
L 10.984375 60.40625 
L 10.984375 69.390625 
L 28.421875 72.90625 
L 38.28125 72.90625 
L 38.28125 8.296875 
L 54.390625 8.296875 
L 54.390625 0 
L 12.40625 0 
z
" id="DejaVuSans-49"/>
       </defs>
       <use xlink:href="#DejaVuSans-49"/>
       <use x="63.623047" xlink:href="#DejaVuSans-46"/>
       <use x="95.410156" xlink:href="#DejaVuSans-48"/>
       <use x="159.033203" xlink:href="#DejaVuSans-48"/>
      </g>
     </g>
    </g>
    <g id="text_6">
     <!-- $x$ -->
     <g transform="translate(266.827187 222.792813)scale(0.16 -0.16)">
      <defs>
       <path d="M 60.015625 54.6875 
L 34.90625 27.875 
L 50.296875 0 
L 39.984375 0 
L 28.421875 21.6875 
L 8.296875 0 
L -2.59375 0 
L 24.3125 28.8125 
L 10.015625 54.6875 
L 20.3125 54.6875 
L 30.8125 34.90625 
L 49.125 54.6875 
z
" id="DejaVuSans-Oblique-120"/>
      </defs>
      <use transform="translate(0 0.3125)" xlink:href="#DejaVuSans-Oblique-120"/>
     </g>
    </g>
   </g>
   <g id="matplotlib.axis_2">
    <g id="ytick_1">
     <g id="line2d_6">
      <defs>
       <path d="M 0 0 
L -3.5 0 
" id="ma4a6de5bf7" style="stroke:#000000;stroke-width:0.8;"/>
      </defs>
      <g>
       <use style="stroke:#000000;stroke-width:0.8;" x="48.427188" xlink:href="#ma4a6de5bf7" y="189.957188"/>
      </g>
     </g>
     <g id="text_7">
      <!-- −6 -->
      <g transform="translate(26.685 193.756406)scale(0.1 -0.1)">
       <defs>
        <path d="M 10.59375 35.5 
L 73.1875 35.5 
L 73.1875 27.203125 
L 10.59375 27.203125 
z
" id="DejaVuSans-8722"/>
        <path d="M 33.015625 40.375 
Q 26.375 40.375 22.484375 35.828125 
Q 18.609375 31.296875 18.609375 23.390625 
Q 18.609375 15.53125 22.484375 10.953125 
Q 26.375 6.390625 33.015625 6.390625 
Q 39.65625 6.390625 43.53125 10.953125 
Q 47.40625 15.53125 47.40625 23.390625 
Q 47.40625 31.296875 43.53125 35.828125 
Q 39.65625 40.375 33.015625 40.375 
z
M 52.59375 71.296875 
L 52.59375 62.3125 
Q 48.875 64.0625 45.09375 64.984375 
Q 41.3125 65.921875 37.59375 65.921875 
Q 27.828125 65.921875 22.671875 59.328125 
Q 17.53125 52.734375 16.796875 39.40625 
Q 19.671875 43.65625 24.015625 45.921875 
Q 28.375 48.1875 33.59375 48.1875 
Q 44.578125 48.1875 50.953125 41.515625 
Q 57.328125 34.859375 57.328125 23.390625 
Q 57.328125 12.15625 50.6875 5.359375 
Q 44.046875 -1.421875 33.015625 -1.421875 
Q 20.359375 -1.421875 13.671875 8.265625 
Q 6.984375 17.96875 6.984375 36.375 
Q 6.984375 53.65625 15.1875 63.9375 
Q 23.390625 74.21875 37.203125 74.21875 
Q 40.921875 74.21875 44.703125 73.484375 
Q 48.484375 72.75 52.59375 71.296875 
z
" id="DejaVuSans-54"/>
       </defs>
       <use xlink:href="#DejaVuSans-8722"/>
       <use x="83.789062" xlink:href="#DejaVuSans-54"/>
      </g>
     </g>
    </g>
    <g id="ytick_2">
     <g id="line2d_7">
      <g>
       <use style="stroke:#000000;stroke-width:0.8;" x="48.427188" xlink:href="#ma4a6de5bf7" y="149.187188"/>
      </g>
     </g>
     <g id="text_8">
      <!-- −3 -->
      <g transform="translate(26.685 152.986406)scale(0.1 -0.1)">
       <defs>
        <path d="M 40.578125 39.3125 
Q 47.65625 37.796875 51.625 33 
Q 55.609375 28.21875 55.609375 21.1875 
Q 55.609375 10.40625 48.1875 4.484375 
Q 40.765625 -1.421875 27.09375 -1.421875 
Q 22.515625 -1.421875 17.65625 -0.515625 
Q 12.796875 0.390625 7.625 2.203125 
L 7.625 11.71875 
Q 11.71875 9.328125 16.59375 8.109375 
Q 21.484375 6.890625 26.8125 6.890625 
Q 36.078125 6.890625 40.9375 10.546875 
Q 45.796875 14.203125 45.796875 21.1875 
Q 45.796875 27.640625 41.28125 31.265625 
Q 36.765625 34.90625 28.71875 34.90625 
L 20.21875 34.90625 
L 20.21875 43.015625 
L 29.109375 43.015625 
Q 36.375 43.015625 40.234375 45.921875 
Q 44.09375 48.828125 44.09375 54.296875 
Q 44.09375 59.90625 40.109375 62.90625 
Q 36.140625 65.921875 28.71875 65.921875 
Q 24.65625 65.921875 20.015625 65.03125 
Q 15.375 64.15625 9.8125 62.3125 
L 9.8125 71.09375 
Q 15.4375 72.65625 20.34375 73.4375 
Q 25.25 74.21875 29.59375 74.21875 
Q 40.828125 74.21875 47.359375 69.109375 
Q 53.90625 64.015625 53.90625 55.328125 
Q 53.90625 49.265625 50.4375 45.09375 
Q 46.96875 40.921875 40.578125 39.3125 
z
" id="DejaVuSans-51"/>
       </defs>
       <use xlink:href="#DejaVuSans-8722"/>
       <use x="83.789062" xlink:href="#DejaVuSans-51"/>
      </g>
     </g>
    </g>
    <g id="ytick_3">
     <g id="line2d_8">
      <g>
       <use style="stroke:#000000;stroke-width:0.8;" x="48.427188" xlink:href="#ma4a6de5bf7" y="108.417188"/>
      </g>
     </g>
     <g id="text_9">
      <!-- 0 -->
      <g transform="translate(35.064688 112.216406)scale(0.1 -0.1)">
       <use xlink:href="#DejaVuSans-48"/>
      </g>
     </g>
    </g>
    <g id="ytick_4">
     <g id="line2d_9">
      <g>
       <use style="stroke:#000000;stroke-width:0.8;" x="48.427188" xlink:href="#ma4a6de5bf7" y="67.647188"/>
      </g>
     </g>
     <g id="text_10">
      <!-- 3 -->
      <g transform="translate(35.064688 71.446406)scale(0.1 -0.1)">
       <use xlink:href="#DejaVuSans-51"/>
      </g>
     </g>
    </g>
    <g id="ytick_5">
     <g id="line2d_10">
      <g>
       <use style="stroke:#000000;stroke-width:0.8;" x="48.427188" xlink:href="#ma4a6de5bf7" y="26.877188"/>
      </g>
     </g>
     <g id="text_11">
      <!-- 6 -->
      <g transform="translate(35.064688 30.676406)scale(0.1 -0.1)">
       <use xlink:href="#DejaVuSans-54"/>
      </g>
     </g>
    </g>
    <g id="text_12">
     <!-- $y$ -->
     <g transform="translate(19.325 113.217188)rotate(-90)scale(0.16 -0.16)">
      <defs>
       <path d="M 24.8125 -5.078125 
Q 18.5625 -15.578125 14.625 -18.1875 
Q 10.6875 -20.796875 4.59375 -20.796875 
L -2.484375 -20.796875 
L -0.984375 -13.28125 
L 4.203125 -13.28125 
Q 7.953125 -13.28125 10.59375 -11.234375 
Q 13.234375 -9.1875 16.5 -3.21875 
L 19.28125 2 
L 7.171875 54.6875 
L 16.703125 54.6875 
L 25.78125 12.796875 
L 50.875 54.6875 
L 60.296875 54.6875 
z
" id="DejaVuSans-Oblique-121"/>
      </defs>
      <use transform="translate(0 0.3125)" xlink:href="#DejaVuSans-Oblique-121"/>
     </g>
    </g>
   </g>
   <g id="line2d_11">
    <path clip-path="url(#p69291ab6e5)" d="M 48.427188 117.755864 
L 52.936278 117.872819 
L 57.445369 117.991639 
L 61.95446 118.11233 
L 66.463551 118.234903 
L 70.972642 118.359371 
L 75.481733 118.485753 
L 79.990824 118.614069 
L 84.499915 118.744342 
L 89.009006 118.876601 
L 93.518097 119.010875 
L 98.027187 119.147197 
L 102.536278 119.285602 
L 107.045369 119.426126 
L 111.55446 119.56881 
L 116.063551 119.713694 
L 120.572642 119.86082 
L 125.081733 120.010231 
L 129.590824 120.161972 
L 134.099915 120.316086 
L 138.609006 120.472617 
L 143.118097 120.631608 
L 147.627187 120.793103 
L 152.136278 120.957141 
L 156.645369 121.123762 
L 161.15446 121.293003 
L 165.663551 121.464897 
L 170.172642 121.639474 
L 174.681733 121.816761 
L 179.190824 121.996779 
L 183.699915 122.179546 
L 188.209006 122.365071 
L 192.718097 122.553359 
L 197.227188 122.744409 
L 201.736278 122.938211 
L 206.245369 123.134746 
L 210.75446 123.333989 
L 215.263551 123.535903 
L 219.772642 123.740443 
L 224.281733 123.947554 
L 228.790824 124.157167 
L 233.299915 124.369205 
L 237.809006 124.583577 
L 242.318097 124.800179 
L 246.827188 125.018895 
L 251.336278 125.239595 
L 255.845369 125.462134 
L 260.35446 125.686354 
L 264.863551 125.912081 
L 269.372642 126.139128 
L 273.881733 126.36729 
L 278.390824 126.596347 
L 282.899915 126.826065 
L 287.409006 127.056193 
L 291.918097 127.286464 
L 296.427188 127.516596 
L 300.936278 127.746292 
L 305.445369 127.975238 
L 309.95446 128.203107 
L 314.463551 128.429557 
L 318.972642 128.654232 
L 323.481733 128.876764 
L 327.990824 129.096772 
L 332.499915 129.313865 
L 337.009006 129.527641 
L 341.518097 129.73769 
L 346.027188 129.943594 
L 350.536278 130.144931 
L 355.045369 130.341276 
L 359.55446 130.5322 
L 364.063551 130.717276 
L 368.572642 130.896082 
L 373.081733 131.068201 
L 377.590824 131.233223 
L 382.099915 131.390754 
L 386.609006 131.540413 
L 391.118097 131.68184 
L 395.627187 131.814698 
L 400.136278 131.938679 
L 404.645369 132.053508 
L 409.15446 132.158947 
L 413.663551 132.254801 
L 418.172642 132.340926 
L 422.681733 132.417233 
L 427.190824 132.483693 
L 431.699915 132.540348 
L 436.209006 132.587316 
L 440.718097 132.624799 
L 445.227188 132.653092 
L 449.736278 132.67259 
L 454.245369 132.6838 
L 458.75446 132.687351 
L 463.263551 132.684001 
L 467.772642 132.674651 
L 472.281733 132.660354 
L 476.790824 132.642332 
L 481.299915 132.621983 
L 485.809006 132.600898 
L 490.318097 132.580873 
L 494.827187 132.563925 
" style="fill:none;stroke:#000000;stroke-linecap:square;stroke-width:1.5;"/>
   </g>
   <g id="line2d_12">
    <path clip-path="url(#p69291ab6e5)" d="M 48.427188 118.571069 
L 52.936278 118.338679 
L 57.445369 118.106202 
L 61.95446 117.873689 
L 66.463551 117.641191 
L 70.972642 117.408757 
L 75.481733 117.176434 
L 79.990824 116.944266 
L 84.499915 116.712295 
L 89.009006 116.48056 
L 93.518097 116.249094 
L 98.027187 116.017929 
L 102.536278 115.787091 
L 107.045369 115.556602 
L 111.55446 115.326477 
L 116.063551 115.096728 
L 120.572642 114.867359 
L 125.081733 114.638369 
L 129.590824 114.409749 
L 134.099915 114.181482 
L 138.609006 113.953545 
L 143.118097 113.725906 
L 147.627187 113.498523 
L 152.136278 113.271347 
L 156.645369 113.044317 
L 161.15446 112.817363 
L 165.663551 112.590404 
L 170.172642 112.363347 
L 174.681733 112.136089 
L 179.190824 111.908512 
L 183.699915 111.680486 
L 188.209006 111.451867 
L 192.718097 111.222499 
L 197.227188 110.992207 
L 201.736278 110.760804 
L 206.245369 110.528085 
L 210.75446 110.293828 
L 215.263551 110.057796 
L 219.772642 109.819729 
L 224.281733 109.579354 
L 228.790824 109.336373 
L 233.299915 109.09047 
L 237.809006 108.841309 
L 242.318097 108.588529 
L 246.827188 108.331749 
L 251.336278 108.070563 
L 255.845369 107.804541 
L 260.35446 107.533228 
L 264.863551 107.256143 
L 269.372642 106.972779 
L 273.881733 106.6826 
L 278.390824 106.385042 
L 282.899915 106.079512 
L 287.409006 105.765386 
L 291.918097 105.44201 
L 296.427188 105.108698 
L 300.936278 104.764729 
L 305.445369 104.40935 
L 309.95446 104.041775 
L 314.463551 103.661179 
L 318.972642 103.266703 
L 323.481733 102.85745 
L 327.990824 102.432485 
L 332.499915 101.990833 
L 337.009006 101.531481 
L 341.518097 101.053374 
L 346.027188 100.555416 
L 350.536278 100.036469 
L 355.045369 99.49535 
L 359.55446 98.930835 
L 364.063551 98.341653 
L 368.572642 97.726489 
L 373.081733 97.083982 
L 377.590824 96.412722 
L 382.099915 95.711255 
L 386.609006 94.978078 
L 391.118097 94.211638 
L 395.627187 93.410334 
L 400.136278 92.572517 
L 404.645369 91.696486 
L 409.15446 90.780491 
L 413.663551 89.822731 
L 418.172642 88.821356 
L 422.681733 87.774463 
L 427.190824 86.680099 
L 431.699915 85.536261 
L 436.209006 84.340894 
L 440.718097 83.091893 
L 445.227188 81.787101 
L 449.736278 80.424314 
L 454.245369 79.001277 
L 458.75446 77.515684 
L 463.263551 75.965183 
L 467.772642 74.347375 
L 472.281733 72.659811 
L 476.790824 70.900001 
L 481.299915 69.065406 
L 485.809006 67.153446 
L 490.318097 65.1615 
L 494.827187 63.086906 
" style="fill:none;stroke:#000000;stroke-linecap:square;stroke-width:1.5;"/>
   </g>
   <g id="line2d_13">
    <path clip-path="url(#p69291ab6e5)" d="M 48.427188 123.94401 
L 52.936278 123.992246 
L 57.445369 124.041011 
L 61.95446 124.090251 
L 66.463551 124.139908 
L 70.972642 124.189922 
L 75.481733 124.24023 
L 79.990824 124.290763 
L 84.499915 124.341451 
L 89.009006 124.392219 
L 93.518097 124.442986 
L 98.027187 124.493668 
L 102.536278 124.544176 
L 107.045369 124.594416 
L 111.55446 124.644291 
L 116.063551 124.693694 
L 120.572642 124.742516 
L 125.081733 124.790642 
L 129.590824 124.837949 
L 134.099915 124.884309 
L 138.609006 124.929586 
L 143.118097 124.973638 
L 147.627187 125.016316 
L 152.136278 125.057463 
L 156.645369 125.096911 
L 161.15446 125.134489 
L 165.663551 125.170012 
L 170.172642 125.203289 
L 174.681733 125.234118 
L 179.190824 125.262287 
L 183.699915 125.287573 
L 188.209006 125.309742 
L 192.718097 125.328548 
L 197.227188 125.343734 
L 201.736278 125.355027 
L 206.245369 125.362145 
L 210.75446 125.364787 
L 215.263551 125.362639 
L 219.772642 125.355373 
L 224.281733 125.34264 
L 228.790824 125.324077 
L 233.299915 125.299301 
L 237.809006 125.26791 
L 242.318097 125.22948 
L 246.827188 125.183568 
L 251.336278 125.129705 
L 255.845369 125.067399 
L 260.35446 124.996133 
L 264.863551 124.915362 
L 269.372642 124.824512 
L 273.881733 124.722979 
L 278.390824 124.610128 
L 282.899915 124.485288 
L 287.409006 124.347753 
L 291.918097 124.196777 
L 296.427188 124.031578 
L 300.936278 123.851326 
L 305.445369 123.655148 
L 309.95446 123.442123 
L 314.463551 123.211278 
L 318.972642 122.961586 
L 323.481733 122.691964 
L 327.990824 122.401266 
L 332.499915 122.088282 
L 337.009006 121.751735 
L 341.518097 121.390275 
L 346.027188 121.002474 
L 350.536278 120.586823 
L 355.045369 120.141728 
L 359.55446 119.665503 
L 364.063551 119.156365 
L 368.572642 118.612427 
L 373.081733 118.031698 
L 377.590824 117.412067 
L 382.099915 116.751305 
L 386.609006 116.047054 
L 391.118097 115.296819 
L 395.627187 114.497961 
L 400.136278 113.647692 
L 404.645369 112.743061 
L 409.15446 111.780947 
L 413.663551 110.758052 
L 418.172642 109.670889 
L 422.681733 108.51577 
L 427.190824 107.288797 
L 431.699915 105.985852 
L 436.209006 104.602581 
L 440.718097 103.134384 
L 445.227188 101.576402 
L 449.736278 99.923503 
L 454.245369 98.170265 
L 458.75446 96.310965 
L 463.263551 94.339561 
L 467.772642 92.249675 
L 472.281733 90.034578 
L 476.790824 87.687168 
L 481.299915 85.199957 
L 485.809006 82.565046 
L 490.318097 79.774109 
L 494.827187 76.818369 
" style="fill:none;stroke:#000000;stroke-linecap:square;stroke-width:1.5;"/>
   </g>
   <g id="line2d_14">
    <path clip-path="url(#p69291ab6e5)" d="M 48.427188 101.446471 
L 52.936278 101.486715 
L 57.445369 101.525608 
L 61.95446 101.56315 
L 66.463551 101.599338 
L 70.972642 101.634162 
L 75.481733 101.667609 
L 79.990824 101.699659 
L 84.499915 101.730287 
L 89.009006 101.759461 
L 93.518097 101.787145 
L 98.027187 101.813293 
L 102.536278 101.837852 
L 107.045369 101.860764 
L 111.55446 101.881959 
L 116.063551 101.901361 
L 120.572642 101.918884 
L 125.081733 101.934433 
L 129.590824 101.947901 
L 134.099915 101.959173 
L 138.609006 101.968123 
L 143.118097 101.974613 
L 147.627187 101.978492 
L 152.136278 101.9796 
L 156.645369 101.977764 
L 161.15446 101.972796 
L 165.663551 101.964498 
L 170.172642 101.952658 
L 174.681733 101.937048 
L 179.190824 101.917432 
L 183.699915 101.893554 
L 188.209006 101.86515 
L 192.718097 101.831937 
L 197.227188 101.793622 
L 201.736278 101.749896 
L 206.245369 101.700439 
L 210.75446 101.644915 
L 215.263551 101.582976 
L 219.772642 101.514262 
L 224.281733 101.438401 
L 228.790824 101.355009 
L 233.299915 101.26369 
L 237.809006 101.16404 
L 242.318097 101.055646 
L 246.827188 100.938084 
L 251.336278 100.810927 
L 255.845369 100.67374 
L 260.35446 100.526085 
L 264.863551 100.36752 
L 269.372642 100.197604 
L 273.881733 100.015896 
L 278.390824 99.82196 
L 282.899915 99.615362 
L 287.409006 99.395681 
L 291.918097 99.162501 
L 296.427188 98.915426 
L 300.936278 98.654071 
L 305.445369 98.378074 
L 309.95446 98.087096 
L 314.463551 97.780827 
L 318.972642 97.458986 
L 323.481733 97.12133 
L 327.990824 96.767655 
L 332.499915 96.397804 
L 337.009006 96.011669 
L 341.518097 95.6092 
L 346.027188 95.190409 
L 350.536278 94.755374 
L 355.045369 94.304252 
L 359.55446 93.837279 
L 364.063551 93.354781 
L 368.572642 92.857179 
L 373.081733 92.345003 
L 377.590824 91.818892 
L 382.099915 91.27961 
L 386.609006 90.728053 
L 391.118097 90.165257 
L 395.627187 89.592411 
L 400.136278 89.010865 
L 404.645369 88.422146 
L 409.15446 87.827963 
L 413.663551 87.230227 
L 418.172642 86.631057 
L 422.681733 86.032798 
L 427.190824 85.438032 
L 431.699915 84.849597 
L 436.209006 84.270596 
L 440.718097 83.704418 
L 445.227188 83.154755 
L 449.736278 82.625612 
L 454.245369 82.121335 
L 458.75446 81.646621 
L 463.263551 81.206543 
L 467.772642 80.806568 
L 472.281733 80.452577 
L 476.790824 80.150887 
L 481.299915 79.908277 
L 485.809006 79.732005 
L 490.318097 79.629837 
L 494.827187 79.61007 
" style="fill:none;stroke:#000000;stroke-linecap:square;stroke-width:1.5;"/>
   </g>
   <g id="patch_3">
    <path d="M 48.427188 189.957188 
L 48.427188 26.877188 
" style="fill:none;stroke:#000000;stroke-linecap:square;stroke-linejoin:miter;stroke-width:0.8;"/>
   </g>
   <g id="patch_4">
    <path d="M 494.827187 189.957188 
L 494.827187 26.877188 
" style="fill:none;stroke:#000000;stroke-linecap:square;stroke-linejoin:miter;stroke-width:0.8;"/>
   </g>
   <g id="patch_5">
    <path d="M 48.427188 189.957188 
L 494.827187 189.957188 
" style="fill:none;stroke:#000000;stroke-linecap:square;stroke-linejoin:miter;stroke-width:0.8;"/>
   </g>
   <g id="patch_6">
    <path d="M 48.427188 26.877188 
L 494.827187 26.877188 
" style="fill:none;stroke:#000000;stroke-linecap:square;stroke-linejoin:miter;stroke-width:0.8;"/>
   </g>
   <g id="text_13">
    <!-- Polynomials sampled from prior -->
    <g transform="translate(128.935 20.877188)scale(0.18 -0.18)">
     <defs>
      <path d="M 19.671875 64.796875 
L 19.671875 37.40625 
L 32.078125 37.40625 
Q 38.96875 37.40625 42.71875 40.96875 
Q 46.484375 44.53125 46.484375 51.125 
Q 46.484375 57.671875 42.71875 61.234375 
Q 38.96875 64.796875 32.078125 64.796875 
z
M 9.8125 72.90625 
L 32.078125 72.90625 
Q 44.34375 72.90625 50.609375 67.359375 
Q 56.890625 61.8125 56.890625 51.125 
Q 56.890625 40.328125 50.609375 34.8125 
Q 44.34375 29.296875 32.078125 29.296875 
L 19.671875 29.296875 
L 19.671875 0 
L 9.8125 0 
z
" id="DejaVuSans-80"/>
      <path d="M 30.609375 48.390625 
Q 23.390625 48.390625 19.1875 42.75 
Q 14.984375 37.109375 14.984375 27.296875 
Q 14.984375 17.484375 19.15625 11.84375 
Q 23.34375 6.203125 30.609375 6.203125 
Q 37.796875 6.203125 41.984375 11.859375 
Q 46.1875 17.53125 46.1875 27.296875 
Q 46.1875 37.015625 41.984375 42.703125 
Q 37.796875 48.390625 30.609375 48.390625 
z
M 30.609375 56 
Q 42.328125 56 49.015625 48.375 
Q 55.71875 40.765625 55.71875 27.296875 
Q 55.71875 13.875 49.015625 6.21875 
Q 42.328125 -1.421875 30.609375 -1.421875 
Q 18.84375 -1.421875 12.171875 6.21875 
Q 5.515625 13.875 5.515625 27.296875 
Q 5.515625 40.765625 12.171875 48.375 
Q 18.84375 56 30.609375 56 
z
" id="DejaVuSans-111"/>
      <path d="M 9.421875 75.984375 
L 18.40625 75.984375 
L 18.40625 0 
L 9.421875 0 
z
" id="DejaVuSans-108"/>
      <path d="M 32.171875 -5.078125 
Q 28.375 -14.84375 24.75 -17.8125 
Q 21.140625 -20.796875 15.09375 -20.796875 
L 7.90625 -20.796875 
L 7.90625 -13.28125 
L 13.1875 -13.28125 
Q 16.890625 -13.28125 18.9375 -11.515625 
Q 21 -9.765625 23.484375 -3.21875 
L 25.09375 0.875 
L 2.984375 54.6875 
L 12.5 54.6875 
L 29.59375 11.921875 
L 46.6875 54.6875 
L 56.203125 54.6875 
z
" id="DejaVuSans-121"/>
      <path d="M 54.890625 33.015625 
L 54.890625 0 
L 45.90625 0 
L 45.90625 32.71875 
Q 45.90625 40.484375 42.875 44.328125 
Q 39.84375 48.1875 33.796875 48.1875 
Q 26.515625 48.1875 22.3125 43.546875 
Q 18.109375 38.921875 18.109375 30.90625 
L 18.109375 0 
L 9.078125 0 
L 9.078125 54.6875 
L 18.109375 54.6875 
L 18.109375 46.1875 
Q 21.34375 51.125 25.703125 53.5625 
Q 30.078125 56 35.796875 56 
Q 45.21875 56 50.046875 50.171875 
Q 54.890625 44.34375 54.890625 33.015625 
z
" id="DejaVuSans-110"/>
      <path d="M 52 44.1875 
Q 55.375 50.25 60.0625 53.125 
Q 64.75 56 71.09375 56 
Q 79.640625 56 84.28125 50.015625 
Q 88.921875 44.046875 88.921875 33.015625 
L 88.921875 0 
L 79.890625 0 
L 79.890625 32.71875 
Q 79.890625 40.578125 77.09375 44.375 
Q 74.3125 48.1875 68.609375 48.1875 
Q 61.625 48.1875 57.5625 43.546875 
Q 53.515625 38.921875 53.515625 30.90625 
L 53.515625 0 
L 44.484375 0 
L 44.484375 32.71875 
Q 44.484375 40.625 41.703125 44.40625 
Q 38.921875 48.1875 33.109375 48.1875 
Q 26.21875 48.1875 22.15625 43.53125 
Q 18.109375 38.875 18.109375 30.90625 
L 18.109375 0 
L 9.078125 0 
L 9.078125 54.6875 
L 18.109375 54.6875 
L 18.109375 46.1875 
Q 21.1875 51.21875 25.484375 53.609375 
Q 29.78125 56 35.6875 56 
Q 41.65625 56 45.828125 52.96875 
Q 50 49.953125 52 44.1875 
z
" id="DejaVuSans-109"/>
      <path d="M 9.421875 54.6875 
L 18.40625 54.6875 
L 18.40625 0 
L 9.421875 0 
z
M 9.421875 75.984375 
L 18.40625 75.984375 
L 18.40625 64.59375 
L 9.421875 64.59375 
z
" id="DejaVuSans-105"/>
      <path d="M 34.28125 27.484375 
Q 23.390625 27.484375 19.1875 25 
Q 14.984375 22.515625 14.984375 16.5 
Q 14.984375 11.71875 18.140625 8.90625 
Q 21.296875 6.109375 26.703125 6.109375 
Q 34.1875 6.109375 38.703125 11.40625 
Q 43.21875 16.703125 43.21875 25.484375 
L 43.21875 27.484375 
z
M 52.203125 31.203125 
L 52.203125 0 
L 43.21875 0 
L 43.21875 8.296875 
Q 40.140625 3.328125 35.546875 0.953125 
Q 30.953125 -1.421875 24.3125 -1.421875 
Q 15.921875 -1.421875 10.953125 3.296875 
Q 6 8.015625 6 15.921875 
Q 6 25.140625 12.171875 29.828125 
Q 18.359375 34.515625 30.609375 34.515625 
L 43.21875 34.515625 
L 43.21875 35.40625 
Q 43.21875 41.609375 39.140625 45 
Q 35.0625 48.390625 27.6875 48.390625 
Q 23 48.390625 18.546875 47.265625 
Q 14.109375 46.140625 10.015625 43.890625 
L 10.015625 52.203125 
Q 14.9375 54.109375 19.578125 55.046875 
Q 24.21875 56 28.609375 56 
Q 40.484375 56 46.34375 49.84375 
Q 52.203125 43.703125 52.203125 31.203125 
z
" id="DejaVuSans-97"/>
      <path d="M 44.28125 53.078125 
L 44.28125 44.578125 
Q 40.484375 46.53125 36.375 47.5 
Q 32.28125 48.484375 27.875 48.484375 
Q 21.1875 48.484375 17.84375 46.4375 
Q 14.5 44.390625 14.5 40.28125 
Q 14.5 37.15625 16.890625 35.375 
Q 19.28125 33.59375 26.515625 31.984375 
L 29.59375 31.296875 
Q 39.15625 29.25 43.1875 25.515625 
Q 47.21875 21.78125 47.21875 15.09375 
Q 47.21875 7.46875 41.1875 3.015625 
Q 35.15625 -1.421875 24.609375 -1.421875 
Q 20.21875 -1.421875 15.453125 -0.5625 
Q 10.6875 0.296875 5.421875 2 
L 5.421875 11.28125 
Q 10.40625 8.6875 15.234375 7.390625 
Q 20.0625 6.109375 24.8125 6.109375 
Q 31.15625 6.109375 34.5625 8.28125 
Q 37.984375 10.453125 37.984375 14.40625 
Q 37.984375 18.0625 35.515625 20.015625 
Q 33.0625 21.96875 24.703125 23.78125 
L 21.578125 24.515625 
Q 13.234375 26.265625 9.515625 29.90625 
Q 5.8125 33.546875 5.8125 39.890625 
Q 5.8125 47.609375 11.28125 51.796875 
Q 16.75 56 26.8125 56 
Q 31.78125 56 36.171875 55.265625 
Q 40.578125 54.546875 44.28125 53.078125 
z
" id="DejaVuSans-115"/>
      <path id="DejaVuSans-32"/>
      <path d="M 18.109375 8.203125 
L 18.109375 -20.796875 
L 9.078125 -20.796875 
L 9.078125 54.6875 
L 18.109375 54.6875 
L 18.109375 46.390625 
Q 20.953125 51.265625 25.265625 53.625 
Q 29.59375 56 35.59375 56 
Q 45.5625 56 51.78125 48.09375 
Q 58.015625 40.1875 58.015625 27.296875 
Q 58.015625 14.40625 51.78125 6.484375 
Q 45.5625 -1.421875 35.59375 -1.421875 
Q 29.59375 -1.421875 25.265625 0.953125 
Q 20.953125 3.328125 18.109375 8.203125 
z
M 48.6875 27.296875 
Q 48.6875 37.203125 44.609375 42.84375 
Q 40.53125 48.484375 33.40625 48.484375 
Q 26.265625 48.484375 22.1875 42.84375 
Q 18.109375 37.203125 18.109375 27.296875 
Q 18.109375 17.390625 22.1875 11.75 
Q 26.265625 6.109375 33.40625 6.109375 
Q 40.53125 6.109375 44.609375 11.75 
Q 48.6875 17.390625 48.6875 27.296875 
z
" id="DejaVuSans-112"/>
      <path d="M 56.203125 29.59375 
L 56.203125 25.203125 
L 14.890625 25.203125 
Q 15.484375 15.921875 20.484375 11.0625 
Q 25.484375 6.203125 34.421875 6.203125 
Q 39.59375 6.203125 44.453125 7.46875 
Q 49.3125 8.734375 54.109375 11.28125 
L 54.109375 2.78125 
Q 49.265625 0.734375 44.1875 -0.34375 
Q 39.109375 -1.421875 33.890625 -1.421875 
Q 20.796875 -1.421875 13.15625 6.1875 
Q 5.515625 13.8125 5.515625 26.8125 
Q 5.515625 40.234375 12.765625 48.109375 
Q 20.015625 56 32.328125 56 
Q 43.359375 56 49.78125 48.890625 
Q 56.203125 41.796875 56.203125 29.59375 
z
M 47.21875 32.234375 
Q 47.125 39.59375 43.09375 43.984375 
Q 39.0625 48.390625 32.421875 48.390625 
Q 24.90625 48.390625 20.390625 44.140625 
Q 15.875 39.890625 15.1875 32.171875 
z
" id="DejaVuSans-101"/>
      <path d="M 45.40625 46.390625 
L 45.40625 75.984375 
L 54.390625 75.984375 
L 54.390625 0 
L 45.40625 0 
L 45.40625 8.203125 
Q 42.578125 3.328125 38.25 0.953125 
Q 33.9375 -1.421875 27.875 -1.421875 
Q 17.96875 -1.421875 11.734375 6.484375 
Q 5.515625 14.40625 5.515625 27.296875 
Q 5.515625 40.1875 11.734375 48.09375 
Q 17.96875 56 27.875 56 
Q 33.9375 56 38.25 53.625 
Q 42.578125 51.265625 45.40625 46.390625 
z
M 14.796875 27.296875 
Q 14.796875 17.390625 18.875 11.75 
Q 22.953125 6.109375 30.078125 6.109375 
Q 37.203125 6.109375 41.296875 11.75 
Q 45.40625 17.390625 45.40625 27.296875 
Q 45.40625 37.203125 41.296875 42.84375 
Q 37.203125 48.484375 30.078125 48.484375 
Q 22.953125 48.484375 18.875 42.84375 
Q 14.796875 37.203125 14.796875 27.296875 
z
" id="DejaVuSans-100"/>
      <path d="M 37.109375 75.984375 
L 37.109375 68.5 
L 28.515625 68.5 
Q 23.6875 68.5 21.796875 66.546875 
Q 19.921875 64.59375 19.921875 59.515625 
L 19.921875 54.6875 
L 34.71875 54.6875 
L 34.71875 47.703125 
L 19.921875 47.703125 
L 19.921875 0 
L 10.890625 0 
L 10.890625 47.703125 
L 2.296875 47.703125 
L 2.296875 54.6875 
L 10.890625 54.6875 
L 10.890625 58.5 
Q 10.890625 67.625 15.140625 71.796875 
Q 19.390625 75.984375 28.609375 75.984375 
z
" id="DejaVuSans-102"/>
      <path d="M 41.109375 46.296875 
Q 39.59375 47.171875 37.8125 47.578125 
Q 36.03125 48 33.890625 48 
Q 26.265625 48 22.1875 43.046875 
Q 18.109375 38.09375 18.109375 28.8125 
L 18.109375 0 
L 9.078125 0 
L 9.078125 54.6875 
L 18.109375 54.6875 
L 18.109375 46.1875 
Q 20.953125 51.171875 25.484375 53.578125 
Q 30.03125 56 36.53125 56 
Q 37.453125 56 38.578125 55.875 
Q 39.703125 55.765625 41.0625 55.515625 
z
" id="DejaVuSans-114"/>
     </defs>
     <use xlink:href="#DejaVuSans-80"/>
     <use x="56.677734" xlink:href="#DejaVuSans-111"/>
     <use x="117.859375" xlink:href="#DejaVuSans-108"/>
     <use x="145.642578" xlink:href="#DejaVuSans-121"/>
     <use x="204.822266" xlink:href="#DejaVuSans-110"/>
     <use x="268.201172" xlink:href="#DejaVuSans-111"/>
     <use x="329.382812" xlink:href="#DejaVuSans-109"/>
     <use x="426.794922" xlink:href="#DejaVuSans-105"/>
     <use x="454.578125" xlink:href="#DejaVuSans-97"/>
     <use x="515.857422" xlink:href="#DejaVuSans-108"/>
     <use x="543.640625" xlink:href="#DejaVuSans-115"/>
     <use x="595.740234" xlink:href="#DejaVuSans-32"/>
     <use x="627.527344" xlink:href="#DejaVuSans-115"/>
     <use x="679.626953" xlink:href="#DejaVuSans-97"/>
     <use x="740.90625" xlink:href="#DejaVuSans-109"/>
     <use x="838.318359" xlink:href="#DejaVuSans-112"/>
     <use x="901.794922" xlink:href="#DejaVuSans-108"/>
     <use x="929.578125" xlink:href="#DejaVuSans-101"/>
     <use x="991.101562" xlink:href="#DejaVuSans-100"/>
     <use x="1054.578125" xlink:href="#DejaVuSans-32"/>
     <use x="1086.365234" xlink:href="#DejaVuSans-102"/>
     <use x="1121.570312" xlink:href="#DejaVuSans-114"/>
     <use x="1160.433594" xlink:href="#DejaVuSans-111"/>
     <use x="1221.615234" xlink:href="#DejaVuSans-109"/>
     <use x="1319.027344" xlink:href="#DejaVuSans-32"/>
     <use x="1350.814453" xlink:href="#DejaVuSans-112"/>
     <use x="1414.291016" xlink:href="#DejaVuSans-114"/>
     <use x="1455.404297" xlink:href="#DejaVuSans-105"/>
     <use x="1483.1875" xlink:href="#DejaVuSans-111"/>
     <use x="1544.369141" xlink:href="#DejaVuSans-114"/>
    </g>
   </g>
  </g>
 </g>
 <defs>
  <clipPath id="p69291ab6e5">
   <rect height="163.08" width="446.4" x="48.427188" y="26.877188"/>
  </clipPath>
 </defs>
</svg>
