<?xml version="1.0" encoding="utf-8" standalone="no"?>
<!DOCTYPE svg PUBLIC "-//W3C//DTD SVG 1.1//EN"
  "http://www.w3.org/Graphics/SVG/1.1/DTD/svg11.dtd">
<!-- Created with matplotlib (https://matplotlib.org/) -->
<svg height="568.277344pt" version="1.1" viewBox="0 0 568.792187 568.277344" width="568.792187pt" xmlns="http://www.w3.org/2000/svg" xmlns:xlink="http://www.w3.org/1999/xlink">
 <metadata>
  <rdf:RDF xmlns:cc="http://creativecommons.org/ns#" xmlns:dc="http://purl.org/dc/elements/1.1/" xmlns:rdf="http://www.w3.org/1999/02/22-rdf-syntax-ns#">
   <cc:Work>
    <dc:type rdf:resource="http://purl.org/dc/dcmitype/StillImage"/>
    <dc:date>2021-02-16T00:43:14.200635</dc:date>
    <dc:format>image/svg+xml</dc:format>
    <dc:creator>
     <cc:Agent>
      <dc:title>Matplotlib v3.3.3, https://matplotlib.org/</dc:title>
     </cc:Agent>
    </dc:creator>
   </cc:Work>
  </rdf:RDF>
 </metadata>
 <defs>
  <style type="text/css">*{stroke-linecap:butt;stroke-linejoin:round;}</style>
 </defs>
 <g id="figure_1">
  <g id="patch_1">
   <path d="M 0 568.277344 
L 568.792187 568.277344 
L 568.792187 0 
L 0 0 
z
" style="fill:none;"/>
  </g>
  <g id="axes_1">
   <g id="patch_2">
    <path d="M 28.942188 174.932552 
L 194.881823 174.932552 
L 194.881823 10.999219 
L 28.942188 10.999219 
z
" style="fill:#ffffff;"/>
   </g>
   <g id="PathCollection_1">
    <defs>
     <path d="M -3 3 
L 3 -3 
M -3 -3 
L 3 3 
" id="mab3beeb06c" style="stroke:#ff0000;stroke-width:1.5;"/>
    </defs>
    <g clip-path="url(#p3300fcd660)">
     <use style="fill:#ff0000;stroke:#ff0000;stroke-width:1.5;" x="125.771995" xlink:href="#mab3beeb06c" y="118.540108"/>
     <use style="fill:#ff0000;stroke:#ff0000;stroke-width:1.5;" x="77.584139" xlink:href="#mab3beeb06c" y="56.011068"/>
     <use style="fill:#ff0000;stroke:#ff0000;stroke-width:1.5;" x="62.975139" xlink:href="#mab3beeb06c" y="73.45729"/>
     <use style="fill:#ff0000;stroke:#ff0000;stroke-width:1.5;" x="54.874973" xlink:href="#mab3beeb06c" y="93.490855"/>
     <use style="fill:#ff0000;stroke:#ff0000;stroke-width:1.5;" x="162.357256" xlink:href="#mab3beeb06c" y="101.713852"/>
     <use style="fill:#ff0000;stroke:#ff0000;stroke-width:1.5;" x="55.044302" xlink:href="#mab3beeb06c" y="82.492327"/>
     <use style="fill:#ff0000;stroke:#ff0000;stroke-width:1.5;" x="90.03504" xlink:href="#mab3beeb06c" y="63.161209"/>
     <use style="fill:#ff0000;stroke:#ff0000;stroke-width:1.5;" x="59.786273" xlink:href="#mab3beeb06c" y="67.282711"/>
     <use style="fill:#ff0000;stroke:#ff0000;stroke-width:1.5;" x="166.869169" xlink:href="#mab3beeb06c" y="98.193998"/>
     <use style="fill:#ff0000;stroke:#ff0000;stroke-width:1.5;" x="102.862938" xlink:href="#mab3beeb06c" y="79.143208"/>
    </g>
   </g>
   <g id="matplotlib.axis_1"/>
   <g id="matplotlib.axis_2">
    <g id="ytick_1">
     <g id="line2d_1">
      <defs>
       <path d="M 0 0 
L -3.5 0 
" id="md6c6636e08" style="stroke:#000000;stroke-width:0.8;"/>
      </defs>
      <g>
       <use style="stroke:#000000;stroke-width:0.8;" x="28.942188" xlink:href="#md6c6636e08" y="174.932552"/>
      </g>
     </g>
     <g id="text_1">
      <!-- −2 -->
      <g transform="translate(7.2 178.731771)scale(0.1 -0.1)">
       <defs>
        <path d="M 10.59375 35.5 
L 73.1875 35.5 
L 73.1875 27.203125 
L 10.59375 27.203125 
z
" id="DejaVuSans-8722"/>
        <path d="M 19.1875 8.296875 
L 53.609375 8.296875 
L 53.609375 0 
L 7.328125 0 
L 7.328125 8.296875 
Q 12.9375 14.109375 22.625 23.890625 
Q 32.328125 33.6875 34.8125 36.53125 
Q 39.546875 41.84375 41.421875 45.53125 
Q 43.3125 49.21875 43.3125 52.78125 
Q 43.3125 58.59375 39.234375 62.25 
Q 35.15625 65.921875 28.609375 65.921875 
Q 23.96875 65.921875 18.8125 64.3125 
Q 13.671875 62.703125 7.8125 59.421875 
L 7.8125 69.390625 
Q 13.765625 71.78125 18.9375 73 
Q 24.125 74.21875 28.421875 74.21875 
Q 39.75 74.21875 46.484375 68.546875 
Q 53.21875 62.890625 53.21875 53.421875 
Q 53.21875 48.921875 51.53125 44.890625 
Q 49.859375 40.875 45.40625 35.40625 
Q 44.1875 33.984375 37.640625 27.21875 
Q 31.109375 20.453125 19.1875 8.296875 
z
" id="DejaVuSans-50"/>
       </defs>
       <use xlink:href="#DejaVuSans-8722"/>
       <use x="83.789062" xlink:href="#DejaVuSans-50"/>
      </g>
     </g>
    </g>
    <g id="ytick_2">
     <g id="line2d_2">
      <g>
       <use style="stroke:#000000;stroke-width:0.8;" x="28.942188" xlink:href="#md6c6636e08" y="133.949219"/>
      </g>
     </g>
     <g id="text_2">
      <!-- −1 -->
      <g transform="translate(7.2 137.748438)scale(0.1 -0.1)">
       <defs>
        <path d="M 12.40625 8.296875 
L 28.515625 8.296875 
L 28.515625 63.921875 
L 10.984375 60.40625 
L 10.984375 69.390625 
L 28.421875 72.90625 
L 38.28125 72.90625 
L 38.28125 8.296875 
L 54.390625 8.296875 
L 54.390625 0 
L 12.40625 0 
z
" id="DejaVuSans-49"/>
       </defs>
       <use xlink:href="#DejaVuSans-8722"/>
       <use x="83.789062" xlink:href="#DejaVuSans-49"/>
      </g>
     </g>
    </g>
    <g id="ytick_3">
     <g id="line2d_3">
      <g>
       <use style="stroke:#000000;stroke-width:0.8;" x="28.942188" xlink:href="#md6c6636e08" y="92.965885"/>
      </g>
     </g>
     <g id="text_3">
      <!-- 0 -->
      <g transform="translate(15.579688 96.765104)scale(0.1 -0.1)">
       <defs>
        <path d="M 31.78125 66.40625 
Q 24.171875 66.40625 20.328125 58.90625 
Q 16.5 51.421875 16.5 36.375 
Q 16.5 21.390625 20.328125 13.890625 
Q 24.171875 6.390625 31.78125 6.390625 
Q 39.453125 6.390625 43.28125 13.890625 
Q 47.125 21.390625 47.125 36.375 
Q 47.125 51.421875 43.28125 58.90625 
Q 39.453125 66.40625 31.78125 66.40625 
z
M 31.78125 74.21875 
Q 44.046875 74.21875 50.515625 64.515625 
Q 56.984375 54.828125 56.984375 36.375 
Q 56.984375 17.96875 50.515625 8.265625 
Q 44.046875 -1.421875 31.78125 -1.421875 
Q 19.53125 -1.421875 13.0625 8.265625 
Q 6.59375 17.96875 6.59375 36.375 
Q 6.59375 54.828125 13.0625 64.515625 
Q 19.53125 74.21875 31.78125 74.21875 
z
" id="DejaVuSans-48"/>
       </defs>
       <use xlink:href="#DejaVuSans-48"/>
      </g>
     </g>
    </g>
    <g id="ytick_4">
     <g id="line2d_4">
      <g>
       <use style="stroke:#000000;stroke-width:0.8;" x="28.942188" xlink:href="#md6c6636e08" y="51.982552"/>
      </g>
     </g>
     <g id="text_4">
      <!-- 1 -->
      <g transform="translate(15.579688 55.781771)scale(0.1 -0.1)">
       <use xlink:href="#DejaVuSans-49"/>
      </g>
     </g>
    </g>
    <g id="ytick_5">
     <g id="line2d_5">
      <g>
       <use style="stroke:#000000;stroke-width:0.8;" x="28.942188" xlink:href="#md6c6636e08" y="10.999219"/>
      </g>
     </g>
     <g id="text_5">
      <!-- 2 -->
      <g transform="translate(15.579688 14.798438)scale(0.1 -0.1)">
       <use xlink:href="#DejaVuSans-50"/>
      </g>
     </g>
    </g>
   </g>
   <g id="line2d_6">
    <path clip-path="url(#p3300fcd660)" d="M 28.942188 65.358568 
L 30.618345 65.80948 
L 32.294503 66.260392 
L 33.970661 66.711303 
L 35.646819 67.162215 
L 37.322977 67.613127 
L 38.999135 68.064038 
L 40.675293 68.51495 
L 42.351451 68.965862 
L 44.027609 69.416773 
L 45.703767 69.867685 
L 47.379925 70.318597 
L 49.056083 70.769509 
L 50.732241 71.22042 
L 52.408399 71.671332 
L 54.084557 72.122244 
L 55.760715 72.573155 
L 57.436872 73.024067 
L 59.11303 73.474979 
L 60.789188 73.92589 
L 62.465346 74.376802 
L 64.141504 74.827714 
L 65.817662 75.278626 
L 67.49382 75.729537 
L 69.169978 76.180449 
L 70.846136 76.631361 
L 72.522294 77.082272 
L 74.198452 77.533184 
L 75.87461 77.984096 
L 77.550768 78.435007 
L 79.226926 78.885919 
L 80.903084 79.336831 
L 82.579242 79.787743 
L 84.255399 80.238654 
L 85.931557 80.689566 
L 87.607715 81.140478 
L 89.283873 81.591389 
L 90.960031 82.042301 
L 92.636189 82.493213 
L 94.312347 82.944125 
L 95.988505 83.395036 
L 97.664663 83.845948 
L 99.340821 84.29686 
L 101.016979 84.747771 
L 102.693137 85.198683 
L 104.369295 85.649595 
L 106.045453 86.100506 
L 107.721611 86.551418 
L 109.397769 87.00233 
L 111.073926 87.453242 
L 112.750084 87.904153 
L 114.426242 88.355065 
L 116.1024 88.805977 
L 117.778558 89.256888 
L 119.454716 89.7078 
L 121.130874 90.158712 
L 122.807032 90.609623 
L 124.48319 91.060535 
L 126.159348 91.511447 
L 127.835506 91.962359 
L 129.511664 92.41327 
L 131.187822 92.864182 
L 132.86398 93.315094 
L 134.540138 93.766005 
L 136.216296 94.216917 
L 137.892453 94.667829 
L 139.568611 95.11874 
L 141.244769 95.569652 
L 142.920927 96.020564 
L 144.597085 96.471476 
L 146.273243 96.922387 
L 147.949401 97.373299 
L 149.625559 97.824211 
L 151.301717 98.275122 
L 152.977875 98.726034 
L 154.654033 99.176946 
L 156.330191 99.627857 
L 158.006349 100.078769 
L 159.682507 100.529681 
L 161.358665 100.980593 
L 163.034823 101.431504 
L 164.71098 101.882416 
L 166.387138 102.333328 
L 168.063296 102.784239 
L 169.739454 103.235151 
L 171.415612 103.686063 
L 173.09177 104.136974 
L 174.767928 104.587886 
L 176.444086 105.038798 
L 178.120244 105.48971 
L 179.796402 105.940621 
L 181.47256 106.391533 
L 183.148718 106.842445 
L 184.824876 107.293356 
L 186.501034 107.744268 
L 188.177192 108.19518 
L 189.85335 108.646092 
L 191.529507 109.097003 
L 193.205665 109.547915 
L 194.881823 109.998827 
" style="fill:none;stroke:#000000;stroke-linecap:square;stroke-width:1.5;"/>
   </g>
   <g id="patch_3">
    <path d="M 28.942188 174.932552 
L 28.942188 10.999219 
" style="fill:none;stroke:#000000;stroke-linecap:square;stroke-linejoin:miter;stroke-width:0.8;"/>
   </g>
   <g id="patch_4">
    <path d="M 194.881823 174.932552 
L 194.881823 10.999219 
" style="fill:none;stroke:#000000;stroke-linecap:square;stroke-linejoin:miter;stroke-width:0.8;"/>
   </g>
   <g id="patch_5">
    <path d="M 28.942188 174.932552 
L 194.881823 174.932552 
" style="fill:none;stroke:#000000;stroke-linecap:square;stroke-linejoin:miter;stroke-width:0.8;"/>
   </g>
   <g id="patch_6">
    <path d="M 28.942188 10.999219 
L 194.881823 10.999219 
" style="fill:none;stroke:#000000;stroke-linecap:square;stroke-linejoin:miter;stroke-width:0.8;"/>
   </g>
   <g id="text_6">
    <!-- D = 1 -->
    <g transform="translate(29.942556 164.24026)scale(0.12 -0.12)">
     <defs>
      <path d="M 19.671875 64.796875 
L 19.671875 8.109375 
L 31.59375 8.109375 
Q 46.6875 8.109375 53.6875 14.9375 
Q 60.6875 21.78125 60.6875 36.53125 
Q 60.6875 51.171875 53.6875 57.984375 
Q 46.6875 64.796875 31.59375 64.796875 
z
M 9.8125 72.90625 
L 30.078125 72.90625 
Q 51.265625 72.90625 61.171875 64.09375 
Q 71.09375 55.28125 71.09375 36.53125 
Q 71.09375 17.671875 61.125 8.828125 
Q 51.171875 0 30.078125 0 
L 9.8125 0 
z
" id="DejaVuSans-68"/>
      <path id="DejaVuSans-32"/>
      <path d="M 10.59375 45.40625 
L 73.1875 45.40625 
L 73.1875 37.203125 
L 10.59375 37.203125 
z
M 10.59375 25.484375 
L 73.1875 25.484375 
L 73.1875 17.1875 
L 10.59375 17.1875 
z
" id="DejaVuSans-61"/>
     </defs>
     <use xlink:href="#DejaVuSans-68"/>
     <use x="77.001953" xlink:href="#DejaVuSans-32"/>
     <use x="108.789062" xlink:href="#DejaVuSans-61"/>
     <use x="192.578125" xlink:href="#DejaVuSans-32"/>
     <use x="224.365234" xlink:href="#DejaVuSans-49"/>
    </g>
   </g>
  </g>
  <g id="axes_2">
   <g id="patch_7">
    <path d="M 212.29737 174.932552 
L 378.237005 174.932552 
L 378.237005 10.999219 
L 212.29737 10.999219 
z
" style="fill:#ffffff;"/>
   </g>
   <g id="PathCollection_2">
    <g clip-path="url(#p3524d0b050)">
     <use style="fill:#ff0000;stroke:#ff0000;stroke-width:1.5;" x="309.127177" xlink:href="#mab3beeb06c" y="118.540108"/>
     <use style="fill:#ff0000;stroke:#ff0000;stroke-width:1.5;" x="260.939322" xlink:href="#mab3beeb06c" y="56.011068"/>
     <use style="fill:#ff0000;stroke:#ff0000;stroke-width:1.5;" x="246.330321" xlink:href="#mab3beeb06c" y="73.45729"/>
     <use style="fill:#ff0000;stroke:#ff0000;stroke-width:1.5;" x="238.230155" xlink:href="#mab3beeb06c" y="93.490855"/>
     <use style="fill:#ff0000;stroke:#ff0000;stroke-width:1.5;" x="345.712438" xlink:href="#mab3beeb06c" y="101.713852"/>
     <use style="fill:#ff0000;stroke:#ff0000;stroke-width:1.5;" x="238.399484" xlink:href="#mab3beeb06c" y="82.492327"/>
     <use style="fill:#ff0000;stroke:#ff0000;stroke-width:1.5;" x="273.390222" xlink:href="#mab3beeb06c" y="63.161209"/>
     <use style="fill:#ff0000;stroke:#ff0000;stroke-width:1.5;" x="243.141455" xlink:href="#mab3beeb06c" y="67.282711"/>
     <use style="fill:#ff0000;stroke:#ff0000;stroke-width:1.5;" x="350.224352" xlink:href="#mab3beeb06c" y="98.193998"/>
     <use style="fill:#ff0000;stroke:#ff0000;stroke-width:1.5;" x="286.21812" xlink:href="#mab3beeb06c" y="79.143208"/>
    </g>
   </g>
   <g id="matplotlib.axis_3"/>
   <g id="matplotlib.axis_4"/>
   <g id="line2d_7">
    <path clip-path="url(#p3524d0b050)" d="M 212.29737 77.924415 
L 213.973528 77.654859 
L 215.649685 77.400427 
L 217.325843 77.161121 
L 219.002001 76.936939 
L 220.678159 76.727883 
L 222.354317 76.533952 
L 224.030475 76.355146 
L 225.706633 76.191465 
L 227.382791 76.042909 
L 229.058949 75.909478 
L 230.735107 75.791173 
L 232.411265 75.687992 
L 234.087423 75.599937 
L 235.763581 75.527006 
L 237.439739 75.469201 
L 239.115897 75.426521 
L 240.792055 75.398966 
L 242.468212 75.386536 
L 244.14437 75.389231 
L 245.820528 75.407051 
L 247.496686 75.439996 
L 249.172844 75.488067 
L 250.849002 75.551262 
L 252.52516 75.629583 
L 254.201318 75.723028 
L 255.877476 75.831599 
L 257.553634 75.955295 
L 259.229792 76.094116 
L 260.90595 76.248062 
L 262.582108 76.417133 
L 264.258266 76.601329 
L 265.934424 76.800651 
L 267.610582 77.015097 
L 269.286739 77.244668 
L 270.962897 77.489365 
L 272.639055 77.749187 
L 274.315213 78.024133 
L 275.991371 78.314205 
L 277.667529 78.619402 
L 279.343687 78.939724 
L 281.019845 79.275172 
L 282.696003 79.625744 
L 284.372161 79.991441 
L 286.048319 80.372264 
L 287.724477 80.768211 
L 289.400635 81.179284 
L 291.076793 81.605481 
L 292.752951 82.046804 
L 294.429109 82.503252 
L 296.105266 82.974825 
L 297.781424 83.461523 
L 299.457582 83.963346 
L 301.13374 84.480295 
L 302.809898 85.012368 
L 304.486056 85.559566 
L 306.162214 86.12189 
L 307.838372 86.699339 
L 309.51453 87.291912 
L 311.190688 87.899611 
L 312.866846 88.522435 
L 314.543004 89.160384 
L 316.219162 89.813458 
L 317.89532 90.481658 
L 319.571478 91.164982 
L 321.247636 91.863431 
L 322.923793 92.577006 
L 324.599951 93.305705 
L 326.276109 94.04953 
L 327.952267 94.80848 
L 329.628425 95.582555 
L 331.304583 96.371755 
L 332.980741 97.17608 
L 334.656899 97.99553 
L 336.333057 98.830105 
L 338.009215 99.679805 
L 339.685373 100.544631 
L 341.361531 101.424581 
L 343.037689 102.319657 
L 344.713847 103.229858 
L 346.390005 104.155183 
L 348.066163 105.095634 
L 349.74232 106.05121 
L 351.418478 107.021911 
L 353.094636 108.007738 
L 354.770794 109.008689 
L 356.446952 110.024765 
L 358.12311 111.055967 
L 359.799268 112.102293 
L 361.475426 113.163745 
L 363.151584 114.240322 
L 364.827742 115.332024 
L 366.5039 116.43885 
L 368.180058 117.560802 
L 369.856216 118.69788 
L 371.532374 119.850082 
L 373.208532 121.017409 
L 374.88469 122.199861 
L 376.560847 123.397439 
L 378.237005 124.610142 
" style="fill:none;stroke:#000000;stroke-linecap:square;stroke-width:1.5;"/>
   </g>
   <g id="patch_8">
    <path d="M 212.29737 174.932552 
L 212.29737 10.999219 
" style="fill:none;stroke:#000000;stroke-linecap:square;stroke-linejoin:miter;stroke-width:0.8;"/>
   </g>
   <g id="patch_9">
    <path d="M 378.237005 174.932552 
L 378.237005 10.999219 
" style="fill:none;stroke:#000000;stroke-linecap:square;stroke-linejoin:miter;stroke-width:0.8;"/>
   </g>
   <g id="patch_10">
    <path d="M 212.29737 174.932552 
L 378.237005 174.932552 
" style="fill:none;stroke:#000000;stroke-linecap:square;stroke-linejoin:miter;stroke-width:0.8;"/>
   </g>
   <g id="patch_11">
    <path d="M 212.29737 10.999219 
L 378.237005 10.999219 
" style="fill:none;stroke:#000000;stroke-linecap:square;stroke-linejoin:miter;stroke-width:0.8;"/>
   </g>
   <g id="text_7">
    <!-- D = 2 -->
    <g transform="translate(213.297738 164.24026)scale(0.12 -0.12)">
     <use xlink:href="#DejaVuSans-68"/>
     <use x="77.001953" xlink:href="#DejaVuSans-32"/>
     <use x="108.789062" xlink:href="#DejaVuSans-61"/>
     <use x="192.578125" xlink:href="#DejaVuSans-32"/>
     <use x="224.365234" xlink:href="#DejaVuSans-50"/>
    </g>
   </g>
  </g>
  <g id="axes_3">
   <g id="patch_12">
    <path d="M 395.652552 174.932552 
L 561.592187 174.932552 
L 561.592187 10.999219 
L 395.652552 10.999219 
z
" style="fill:#ffffff;"/>
   </g>
   <g id="PathCollection_3">
    <g clip-path="url(#p26e5fe5ac5)">
     <use style="fill:#ff0000;stroke:#ff0000;stroke-width:1.5;" x="492.482359" xlink:href="#mab3beeb06c" y="118.540108"/>
     <use style="fill:#ff0000;stroke:#ff0000;stroke-width:1.5;" x="444.294504" xlink:href="#mab3beeb06c" y="56.011068"/>
     <use style="fill:#ff0000;stroke:#ff0000;stroke-width:1.5;" x="429.685503" xlink:href="#mab3beeb06c" y="73.45729"/>
     <use style="fill:#ff0000;stroke:#ff0000;stroke-width:1.5;" x="421.585337" xlink:href="#mab3beeb06c" y="93.490855"/>
     <use style="fill:#ff0000;stroke:#ff0000;stroke-width:1.5;" x="529.06762" xlink:href="#mab3beeb06c" y="101.713852"/>
     <use style="fill:#ff0000;stroke:#ff0000;stroke-width:1.5;" x="421.754666" xlink:href="#mab3beeb06c" y="82.492327"/>
     <use style="fill:#ff0000;stroke:#ff0000;stroke-width:1.5;" x="456.745404" xlink:href="#mab3beeb06c" y="63.161209"/>
     <use style="fill:#ff0000;stroke:#ff0000;stroke-width:1.5;" x="426.496637" xlink:href="#mab3beeb06c" y="67.282711"/>
     <use style="fill:#ff0000;stroke:#ff0000;stroke-width:1.5;" x="533.579534" xlink:href="#mab3beeb06c" y="98.193998"/>
     <use style="fill:#ff0000;stroke:#ff0000;stroke-width:1.5;" x="469.573302" xlink:href="#mab3beeb06c" y="79.143208"/>
    </g>
   </g>
   <g id="matplotlib.axis_5"/>
   <g id="matplotlib.axis_6"/>
   <g id="line2d_8">
    <path clip-path="url(#p26e5fe5ac5)" d="M 395.652552 230.923324 
L 397.32871 217.171813 
L 399.004868 204.101225 
L 400.681025 191.697229 
L 402.357183 179.945496 
L 404.033341 168.831697 
L 405.709499 158.341502 
L 407.385657 148.460581 
L 409.061815 139.174605 
L 410.737973 130.469243 
L 412.414131 122.330167 
L 414.090289 114.743046 
L 415.766447 107.69355 
L 417.442605 101.167351 
L 419.118763 95.150119 
L 420.794921 89.627523 
L 422.471079 84.585235 
L 424.147237 80.008924 
L 425.823395 75.884261 
L 427.499552 72.196916 
L 429.17571 68.932559 
L 430.851868 66.076861 
L 432.528026 63.615493 
L 434.204184 61.534124 
L 435.880342 59.818425 
L 437.5565 58.454066 
L 439.232658 57.426717 
L 440.908816 56.72205 
L 442.584974 56.325733 
L 444.261132 56.223438 
L 445.93729 56.400835 
L 447.613448 56.843594 
L 449.289606 57.537386 
L 450.965764 58.46788 
L 452.641922 59.620748 
L 454.318079 60.981659 
L 455.994237 62.536284 
L 457.670395 64.270293 
L 459.346553 66.169357 
L 461.022711 68.219146 
L 462.698869 70.405329 
L 464.375027 72.713578 
L 466.051185 75.129564 
L 467.727343 77.638955 
L 469.403501 80.227423 
L 471.079659 82.880637 
L 472.755817 85.584269 
L 474.431975 88.323988 
L 476.108133 91.085466 
L 477.784291 93.854371 
L 479.460449 96.616375 
L 481.136606 99.357148 
L 482.812764 102.06236 
L 484.488922 104.717681 
L 486.16508 107.308783 
L 487.841238 109.821334 
L 489.517396 112.241006 
L 491.193554 114.553469 
L 492.869712 116.744393 
L 494.54587 118.799449 
L 496.222028 120.704307 
L 497.898186 122.444636 
L 499.574344 124.006109 
L 501.250502 125.374394 
L 502.92666 126.535162 
L 504.602818 127.474084 
L 506.278976 128.17683 
L 507.955133 128.62907 
L 509.631291 128.816474 
L 511.307449 128.724714 
L 512.983607 128.339458 
L 514.659765 127.646378 
L 516.335923 126.631144 
L 518.012081 125.279426 
L 519.688239 123.576895 
L 521.364397 121.509221 
L 523.040555 119.062073 
L 524.716713 116.221124 
L 526.392871 112.972042 
L 528.069029 109.300498 
L 529.745187 105.192163 
L 531.421345 100.632707 
L 533.097503 95.6078 
L 534.77366 90.103113 
L 536.449818 84.104316 
L 538.125976 77.597078 
L 539.802134 70.567072 
L 541.478292 62.999966 
L 543.15445 54.881431 
L 544.830608 46.197138 
L 546.506766 36.932757 
L 548.182924 27.073958 
L 549.859082 16.606411 
L 551.53524 5.515788 
L 552.46647 -1 
" style="fill:none;stroke:#000000;stroke-linecap:square;stroke-width:1.5;"/>
   </g>
   <g id="patch_13">
    <path d="M 395.652552 174.932552 
L 395.652552 10.999219 
" style="fill:none;stroke:#000000;stroke-linecap:square;stroke-linejoin:miter;stroke-width:0.8;"/>
   </g>
   <g id="patch_14">
    <path d="M 561.592187 174.932552 
L 561.592187 10.999219 
" style="fill:none;stroke:#000000;stroke-linecap:square;stroke-linejoin:miter;stroke-width:0.8;"/>
   </g>
   <g id="patch_15">
    <path d="M 395.652552 174.932552 
L 561.592187 174.932552 
" style="fill:none;stroke:#000000;stroke-linecap:square;stroke-linejoin:miter;stroke-width:0.8;"/>
   </g>
   <g id="patch_16">
    <path d="M 395.652552 10.999219 
L 561.592187 10.999219 
" style="fill:none;stroke:#000000;stroke-linecap:square;stroke-linejoin:miter;stroke-width:0.8;"/>
   </g>
   <g id="text_8">
    <!-- D = 3 -->
    <g transform="translate(396.65292 164.24026)scale(0.12 -0.12)">
     <defs>
      <path d="M 40.578125 39.3125 
Q 47.65625 37.796875 51.625 33 
Q 55.609375 28.21875 55.609375 21.1875 
Q 55.609375 10.40625 48.1875 4.484375 
Q 40.765625 -1.421875 27.09375 -1.421875 
Q 22.515625 -1.421875 17.65625 -0.515625 
Q 12.796875 0.390625 7.625 2.203125 
L 7.625 11.71875 
Q 11.71875 9.328125 16.59375 8.109375 
Q 21.484375 6.890625 26.8125 6.890625 
Q 36.078125 6.890625 40.9375 10.546875 
Q 45.796875 14.203125 45.796875 21.1875 
Q 45.796875 27.640625 41.28125 31.265625 
Q 36.765625 34.90625 28.71875 34.90625 
L 20.21875 34.90625 
L 20.21875 43.015625 
L 29.109375 43.015625 
Q 36.375 43.015625 40.234375 45.921875 
Q 44.09375 48.828125 44.09375 54.296875 
Q 44.09375 59.90625 40.109375 62.90625 
Q 36.140625 65.921875 28.71875 65.921875 
Q 24.65625 65.921875 20.015625 65.03125 
Q 15.375 64.15625 9.8125 62.3125 
L 9.8125 71.09375 
Q 15.4375 72.65625 20.34375 73.4375 
Q 25.25 74.21875 29.59375 74.21875 
Q 40.828125 74.21875 47.359375 69.109375 
Q 53.90625 64.015625 53.90625 55.328125 
Q 53.90625 49.265625 50.4375 45.09375 
Q 46.96875 40.921875 40.578125 39.3125 
z
" id="DejaVuSans-51"/>
     </defs>
     <use xlink:href="#DejaVuSans-68"/>
     <use x="77.001953" xlink:href="#DejaVuSans-32"/>
     <use x="108.789062" xlink:href="#DejaVuSans-61"/>
     <use x="192.578125" xlink:href="#DejaVuSans-32"/>
     <use x="224.365234" xlink:href="#DejaVuSans-51"/>
    </g>
   </g>
  </g>
  <g id="axes_4">
   <g id="patch_17">
    <path d="M 28.942188 359.665885 
L 194.881823 359.665885 
L 194.881823 195.732552 
L 28.942188 195.732552 
z
" style="fill:#ffffff;"/>
   </g>
   <g id="PathCollection_4">
    <g clip-path="url(#pb4dd38ca12)">
     <use style="fill:#ff0000;stroke:#ff0000;stroke-width:1.5;" x="125.771995" xlink:href="#mab3beeb06c" y="303.273441"/>
     <use style="fill:#ff0000;stroke:#ff0000;stroke-width:1.5;" x="77.584139" xlink:href="#mab3beeb06c" y="240.744402"/>
     <use style="fill:#ff0000;stroke:#ff0000;stroke-width:1.5;" x="62.975139" xlink:href="#mab3beeb06c" y="258.190623"/>
     <use style="fill:#ff0000;stroke:#ff0000;stroke-width:1.5;" x="54.874973" xlink:href="#mab3beeb06c" y="278.224188"/>
     <use style="fill:#ff0000;stroke:#ff0000;stroke-width:1.5;" x="162.357256" xlink:href="#mab3beeb06c" y="286.447186"/>
     <use style="fill:#ff0000;stroke:#ff0000;stroke-width:1.5;" x="55.044302" xlink:href="#mab3beeb06c" y="267.225661"/>
     <use style="fill:#ff0000;stroke:#ff0000;stroke-width:1.5;" x="90.03504" xlink:href="#mab3beeb06c" y="247.894542"/>
     <use style="fill:#ff0000;stroke:#ff0000;stroke-width:1.5;" x="59.786273" xlink:href="#mab3beeb06c" y="252.016045"/>
     <use style="fill:#ff0000;stroke:#ff0000;stroke-width:1.5;" x="166.869169" xlink:href="#mab3beeb06c" y="282.927332"/>
     <use style="fill:#ff0000;stroke:#ff0000;stroke-width:1.5;" x="102.862938" xlink:href="#mab3beeb06c" y="263.876541"/>
    </g>
   </g>
   <g id="matplotlib.axis_7"/>
   <g id="matplotlib.axis_8">
    <g id="ytick_6">
     <g id="line2d_9">
      <g>
       <use style="stroke:#000000;stroke-width:0.8;" x="28.942188" xlink:href="#md6c6636e08" y="359.665885"/>
      </g>
     </g>
     <g id="text_9">
      <!-- −2 -->
      <g transform="translate(7.2 363.465104)scale(0.1 -0.1)">
       <use xlink:href="#DejaVuSans-8722"/>
       <use x="83.789062" xlink:href="#DejaVuSans-50"/>
      </g>
     </g>
    </g>
    <g id="ytick_7">
     <g id="line2d_10">
      <g>
       <use style="stroke:#000000;stroke-width:0.8;" x="28.942188" xlink:href="#md6c6636e08" y="318.682552"/>
      </g>
     </g>
     <g id="text_10">
      <!-- −1 -->
      <g transform="translate(7.2 322.481771)scale(0.1 -0.1)">
       <use xlink:href="#DejaVuSans-8722"/>
       <use x="83.789062" xlink:href="#DejaVuSans-49"/>
      </g>
     </g>
    </g>
    <g id="ytick_8">
     <g id="line2d_11">
      <g>
       <use style="stroke:#000000;stroke-width:0.8;" x="28.942188" xlink:href="#md6c6636e08" y="277.699219"/>
      </g>
     </g>
     <g id="text_11">
      <!-- 0 -->
      <g transform="translate(15.579688 281.498438)scale(0.1 -0.1)">
       <use xlink:href="#DejaVuSans-48"/>
      </g>
     </g>
    </g>
    <g id="ytick_9">
     <g id="line2d_12">
      <g>
       <use style="stroke:#000000;stroke-width:0.8;" x="28.942188" xlink:href="#md6c6636e08" y="236.715885"/>
      </g>
     </g>
     <g id="text_12">
      <!-- 1 -->
      <g transform="translate(15.579688 240.515104)scale(0.1 -0.1)">
       <use xlink:href="#DejaVuSans-49"/>
      </g>
     </g>
    </g>
    <g id="ytick_10">
     <g id="line2d_13">
      <g>
       <use style="stroke:#000000;stroke-width:0.8;" x="28.942188" xlink:href="#md6c6636e08" y="195.732552"/>
      </g>
     </g>
     <g id="text_13">
      <!-- 2 -->
      <g transform="translate(15.579688 199.531771)scale(0.1 -0.1)">
       <use xlink:href="#DejaVuSans-50"/>
      </g>
     </g>
    </g>
   </g>
   <g id="line2d_14">
    <path clip-path="url(#pb4dd38ca12)" d="M 28.942188 442.370905 
L 30.618345 425.556621 
L 32.294503 409.661725 
L 33.970661 394.660533 
L 35.646819 380.527614 
L 37.322977 367.237786 
L 38.999135 354.766118 
L 40.675293 343.08793 
L 42.351451 332.178794 
L 44.027609 322.014531 
L 45.703767 312.571214 
L 47.379925 303.825166 
L 49.056083 295.752962 
L 50.732241 288.331427 
L 52.408399 281.537637 
L 54.084557 275.348918 
L 55.760715 269.742848 
L 57.436872 264.697256 
L 59.11303 260.190221 
L 60.789188 256.200074 
L 62.465346 252.705394 
L 64.141504 249.685014 
L 65.817662 247.118016 
L 67.49382 244.983735 
L 69.169978 243.261753 
L 70.846136 241.931907 
L 72.522294 240.974282 
L 74.198452 240.369215 
L 75.87461 240.097293 
L 77.550768 240.139356 
L 79.226926 240.476491 
L 80.903084 241.09004 
L 82.579242 241.961594 
L 84.255399 243.072993 
L 85.931557 244.406331 
L 87.607715 245.94395 
L 89.283873 247.668446 
L 90.960031 249.562663 
L 92.636189 251.609697 
L 94.312347 253.792895 
L 95.988505 256.095855 
L 97.664663 258.502424 
L 99.340821 260.996702 
L 101.016979 263.56304 
L 102.693137 266.186037 
L 104.369295 268.850546 
L 106.045453 271.541669 
L 107.721611 274.244759 
L 109.397769 276.945422 
L 111.073926 279.629511 
L 112.750084 282.283132 
L 114.426242 284.892643 
L 116.1024 287.444651 
L 117.778558 289.926014 
L 119.454716 292.323841 
L 121.130874 294.625493 
L 122.807032 296.81858 
L 124.48319 298.890963 
L 126.159348 300.830756 
L 127.835506 302.626322 
L 129.511664 304.266275 
L 131.187822 305.739479 
L 132.86398 307.035051 
L 134.540138 308.142357 
L 136.216296 309.051015 
L 137.892453 309.750893 
L 139.568611 310.23211 
L 141.244769 310.485036 
L 142.920927 310.500293 
L 144.597085 310.26875 
L 146.273243 309.781532 
L 147.949401 309.030012 
L 149.625559 308.005812 
L 151.301717 306.700809 
L 152.977875 305.107129 
L 154.654033 303.217147 
L 156.330191 301.023491 
L 158.006349 298.51904 
L 159.682507 295.696922 
L 161.358665 292.550518 
L 163.034823 289.073458 
L 164.71098 285.259624 
L 166.387138 281.103148 
L 168.063296 276.598414 
L 169.739454 271.740056 
L 171.415612 266.522958 
L 173.09177 260.942256 
L 174.767928 254.993337 
L 176.444086 248.671838 
L 178.120244 241.973648 
L 179.796402 234.894905 
L 181.47256 227.432 
L 183.148718 219.581573 
L 184.824876 211.340515 
L 186.501034 202.70597 
L 188.177192 193.67533 
L 189.85335 184.246239 
L 191.529507 174.416592 
L 193.205665 164.184536 
L 194.881823 153.548465 
" style="fill:none;stroke:#000000;stroke-linecap:square;stroke-width:1.5;"/>
   </g>
   <g id="patch_18">
    <path d="M 28.942188 359.665885 
L 28.942188 195.732552 
" style="fill:none;stroke:#000000;stroke-linecap:square;stroke-linejoin:miter;stroke-width:0.8;"/>
   </g>
   <g id="patch_19">
    <path d="M 194.881823 359.665885 
L 194.881823 195.732552 
" style="fill:none;stroke:#000000;stroke-linecap:square;stroke-linejoin:miter;stroke-width:0.8;"/>
   </g>
   <g id="patch_20">
    <path d="M 28.942188 359.665885 
L 194.881823 359.665885 
" style="fill:none;stroke:#000000;stroke-linecap:square;stroke-linejoin:miter;stroke-width:0.8;"/>
   </g>
   <g id="patch_21">
    <path d="M 28.942188 195.732552 
L 194.881823 195.732552 
" style="fill:none;stroke:#000000;stroke-linecap:square;stroke-linejoin:miter;stroke-width:0.8;"/>
   </g>
   <g id="text_14">
    <!-- D = 4 -->
    <g transform="translate(29.942556 348.973594)scale(0.12 -0.12)">
     <defs>
      <path d="M 37.796875 64.3125 
L 12.890625 25.390625 
L 37.796875 25.390625 
z
M 35.203125 72.90625 
L 47.609375 72.90625 
L 47.609375 25.390625 
L 58.015625 25.390625 
L 58.015625 17.1875 
L 47.609375 17.1875 
L 47.609375 0 
L 37.796875 0 
L 37.796875 17.1875 
L 4.890625 17.1875 
L 4.890625 26.703125 
z
" id="DejaVuSans-52"/>
     </defs>
     <use xlink:href="#DejaVuSans-68"/>
     <use x="77.001953" xlink:href="#DejaVuSans-32"/>
     <use x="108.789062" xlink:href="#DejaVuSans-61"/>
     <use x="192.578125" xlink:href="#DejaVuSans-32"/>
     <use x="224.365234" xlink:href="#DejaVuSans-52"/>
    </g>
   </g>
  </g>
  <g id="axes_5">
   <g id="patch_22">
    <path d="M 212.29737 359.665885 
L 378.237005 359.665885 
L 378.237005 195.732552 
L 212.29737 195.732552 
z
" style="fill:#ffffff;"/>
   </g>
   <g id="PathCollection_5">
    <g clip-path="url(#pa039106147)">
     <use style="fill:#ff0000;stroke:#ff0000;stroke-width:1.5;" x="309.127177" xlink:href="#mab3beeb06c" y="303.273441"/>
     <use style="fill:#ff0000;stroke:#ff0000;stroke-width:1.5;" x="260.939322" xlink:href="#mab3beeb06c" y="240.744402"/>
     <use style="fill:#ff0000;stroke:#ff0000;stroke-width:1.5;" x="246.330321" xlink:href="#mab3beeb06c" y="258.190623"/>
     <use style="fill:#ff0000;stroke:#ff0000;stroke-width:1.5;" x="238.230155" xlink:href="#mab3beeb06c" y="278.224188"/>
     <use style="fill:#ff0000;stroke:#ff0000;stroke-width:1.5;" x="345.712438" xlink:href="#mab3beeb06c" y="286.447186"/>
     <use style="fill:#ff0000;stroke:#ff0000;stroke-width:1.5;" x="238.399484" xlink:href="#mab3beeb06c" y="267.225661"/>
     <use style="fill:#ff0000;stroke:#ff0000;stroke-width:1.5;" x="273.390222" xlink:href="#mab3beeb06c" y="247.894542"/>
     <use style="fill:#ff0000;stroke:#ff0000;stroke-width:1.5;" x="243.141455" xlink:href="#mab3beeb06c" y="252.016045"/>
     <use style="fill:#ff0000;stroke:#ff0000;stroke-width:1.5;" x="350.224352" xlink:href="#mab3beeb06c" y="282.927332"/>
     <use style="fill:#ff0000;stroke:#ff0000;stroke-width:1.5;" x="286.21812" xlink:href="#mab3beeb06c" y="263.876541"/>
    </g>
   </g>
   <g id="matplotlib.axis_9"/>
   <g id="matplotlib.axis_10"/>
   <g id="line2d_15">
    <path clip-path="url(#pa039106147)" d="M 212.29737 341.399978 
L 213.973528 338.619401 
L 215.649685 335.291079 
L 217.325843 331.497848 
L 219.002001 327.31772 
L 220.678159 322.823991 
L 222.354317 318.085355 
L 224.030475 313.166023 
L 225.706633 308.125828 
L 227.382791 303.020345 
L 229.058949 297.901003 
L 230.735107 292.815194 
L 232.411265 287.806395 
L 234.087423 282.914273 
L 235.763581 278.174805 
L 237.439739 273.620385 
L 239.115897 269.279945 
L 240.792055 265.179062 
L 242.468212 261.340073 
L 244.14437 257.782193 
L 245.820528 254.521623 
L 247.496686 251.571663 
L 249.172844 248.942833 
L 250.849002 246.642976 
L 252.52516 244.67738 
L 254.201318 243.048888 
L 255.877476 241.75801 
L 257.553634 240.803039 
L 259.229792 240.180165 
L 260.90595 239.883585 
L 262.582108 239.90562 
L 264.258266 240.236826 
L 265.934424 240.866109 
L 267.610582 241.780838 
L 269.286739 242.966958 
L 270.962897 244.409104 
L 272.639055 246.090715 
L 274.315213 247.994146 
L 275.991371 250.100783 
L 277.667529 252.391154 
L 279.343687 254.845046 
L 281.019845 257.441617 
L 282.696003 260.159507 
L 284.372161 262.976955 
L 286.048319 265.871911 
L 287.724477 268.82215 
L 289.400635 271.805384 
L 291.076793 274.799376 
L 292.752951 277.782056 
L 294.429109 280.73163 
L 296.105266 283.626697 
L 297.781424 286.446362 
L 299.457582 289.170347 
L 301.13374 291.779109 
L 302.809898 294.253947 
L 304.486056 296.577121 
L 306.162214 298.731966 
L 307.838372 300.702998 
L 309.51453 302.476038 
L 311.190688 304.038315 
L 312.866846 305.378588 
L 314.543004 306.487256 
L 316.219162 307.356468 
L 317.89532 307.980243 
L 319.571478 308.35458 
L 321.247636 308.477572 
L 322.923793 308.349516 
L 324.599951 307.973035 
L 326.276109 307.353181 
L 327.952267 306.497559 
L 329.628425 305.41643 
L 331.304583 304.122833 
L 332.980741 302.632693 
L 334.656899 300.964939 
L 336.333057 299.141613 
L 338.009215 297.187985 
L 339.685373 295.132669 
L 341.361531 293.007733 
L 343.037689 290.848813 
L 344.713847 288.695231 
L 346.390005 286.590099 
L 348.066163 284.580444 
L 349.74232 282.717313 
L 351.418478 281.055888 
L 353.094636 279.655602 
L 354.770794 278.580253 
L 356.446952 277.898112 
L 358.12311 277.682042 
L 359.799268 278.009609 
L 361.475426 278.963197 
L 363.151584 280.630119 
L 364.827742 283.102733 
L 366.5039 286.478553 
L 368.180058 290.860366 
L 369.856216 296.356341 
L 371.532374 303.080146 
L 373.208532 311.151059 
L 374.88469 320.694086 
L 376.560847 331.840066 
L 378.237005 344.725794 
" style="fill:none;stroke:#000000;stroke-linecap:square;stroke-width:1.5;"/>
   </g>
   <g id="patch_23">
    <path d="M 212.29737 359.665885 
L 212.29737 195.732552 
" style="fill:none;stroke:#000000;stroke-linecap:square;stroke-linejoin:miter;stroke-width:0.8;"/>
   </g>
   <g id="patch_24">
    <path d="M 378.237005 359.665885 
L 378.237005 195.732552 
" style="fill:none;stroke:#000000;stroke-linecap:square;stroke-linejoin:miter;stroke-width:0.8;"/>
   </g>
   <g id="patch_25">
    <path d="M 212.29737 359.665885 
L 378.237005 359.665885 
" style="fill:none;stroke:#000000;stroke-linecap:square;stroke-linejoin:miter;stroke-width:0.8;"/>
   </g>
   <g id="patch_26">
    <path d="M 212.29737 195.732552 
L 378.237005 195.732552 
" style="fill:none;stroke:#000000;stroke-linecap:square;stroke-linejoin:miter;stroke-width:0.8;"/>
   </g>
   <g id="text_15">
    <!-- D = 5 -->
    <g transform="translate(213.297738 348.973594)scale(0.12 -0.12)">
     <defs>
      <path d="M 10.796875 72.90625 
L 49.515625 72.90625 
L 49.515625 64.59375 
L 19.828125 64.59375 
L 19.828125 46.734375 
Q 21.96875 47.46875 24.109375 47.828125 
Q 26.265625 48.1875 28.421875 48.1875 
Q 40.625 48.1875 47.75 41.5 
Q 54.890625 34.8125 54.890625 23.390625 
Q 54.890625 11.625 47.5625 5.09375 
Q 40.234375 -1.421875 26.90625 -1.421875 
Q 22.3125 -1.421875 17.546875 -0.640625 
Q 12.796875 0.140625 7.71875 1.703125 
L 7.71875 11.625 
Q 12.109375 9.234375 16.796875 8.0625 
Q 21.484375 6.890625 26.703125 6.890625 
Q 35.15625 6.890625 40.078125 11.328125 
Q 45.015625 15.765625 45.015625 23.390625 
Q 45.015625 31 40.078125 35.4375 
Q 35.15625 39.890625 26.703125 39.890625 
Q 22.75 39.890625 18.8125 39.015625 
Q 14.890625 38.140625 10.796875 36.28125 
z
" id="DejaVuSans-53"/>
     </defs>
     <use xlink:href="#DejaVuSans-68"/>
     <use x="77.001953" xlink:href="#DejaVuSans-32"/>
     <use x="108.789062" xlink:href="#DejaVuSans-61"/>
     <use x="192.578125" xlink:href="#DejaVuSans-32"/>
     <use x="224.365234" xlink:href="#DejaVuSans-53"/>
    </g>
   </g>
  </g>
  <g id="axes_6">
   <g id="patch_27">
    <path d="M 395.652552 359.665885 
L 561.592187 359.665885 
L 561.592187 195.732552 
L 395.652552 195.732552 
z
" style="fill:#ffffff;"/>
   </g>
   <g id="PathCollection_6">
    <g clip-path="url(#pea67c766b9)">
     <use style="fill:#ff0000;stroke:#ff0000;stroke-width:1.5;" x="492.482359" xlink:href="#mab3beeb06c" y="303.273441"/>
     <use style="fill:#ff0000;stroke:#ff0000;stroke-width:1.5;" x="444.294504" xlink:href="#mab3beeb06c" y="240.744402"/>
     <use style="fill:#ff0000;stroke:#ff0000;stroke-width:1.5;" x="429.685503" xlink:href="#mab3beeb06c" y="258.190623"/>
     <use style="fill:#ff0000;stroke:#ff0000;stroke-width:1.5;" x="421.585337" xlink:href="#mab3beeb06c" y="278.224188"/>
     <use style="fill:#ff0000;stroke:#ff0000;stroke-width:1.5;" x="529.06762" xlink:href="#mab3beeb06c" y="286.447186"/>
     <use style="fill:#ff0000;stroke:#ff0000;stroke-width:1.5;" x="421.754666" xlink:href="#mab3beeb06c" y="267.225661"/>
     <use style="fill:#ff0000;stroke:#ff0000;stroke-width:1.5;" x="456.745404" xlink:href="#mab3beeb06c" y="247.894542"/>
     <use style="fill:#ff0000;stroke:#ff0000;stroke-width:1.5;" x="426.496637" xlink:href="#mab3beeb06c" y="252.016045"/>
     <use style="fill:#ff0000;stroke:#ff0000;stroke-width:1.5;" x="533.579534" xlink:href="#mab3beeb06c" y="282.927332"/>
     <use style="fill:#ff0000;stroke:#ff0000;stroke-width:1.5;" x="469.573302" xlink:href="#mab3beeb06c" y="263.876541"/>
    </g>
   </g>
   <g id="matplotlib.axis_11"/>
   <g id="matplotlib.axis_12"/>
   <g id="line2d_16">
    <path clip-path="url(#pea67c766b9)" d="M 396.262063 569.277344 
L 397.32871 542.222695 
L 399.004868 504.322247 
L 400.681025 470.608481 
L 402.357183 440.685297 
L 404.033341 414.186274 
L 405.709499 390.773198 
L 407.385657 370.134618 
L 409.061815 351.98445 
L 410.737973 336.060601 
L 412.414131 322.123642 
L 414.090289 309.955509 
L 415.766447 299.358238 
L 417.442605 290.152741 
L 419.118763 282.17761 
L 420.794921 275.287963 
L 422.471079 269.354322 
L 424.147237 264.261526 
L 425.823395 259.907679 
L 427.499552 256.203133 
L 429.17571 253.069509 
L 430.851868 250.438753 
L 432.528026 248.252219 
L 434.204184 246.4598 
L 435.880342 245.019085 
L 437.5565 243.894553 
L 439.232658 243.056807 
L 440.908816 242.481836 
L 442.584974 242.150314 
L 444.261132 242.046944 
L 445.93729 242.159817 
L 447.613448 242.479831 
L 449.289606 243.00012 
L 450.965764 243.715542 
L 452.641922 244.622183 
L 454.318079 245.716905 
L 455.994237 246.996933 
L 457.670395 248.459466 
L 459.346553 250.101335 
L 461.022711 251.918688 
L 462.698869 253.906712 
L 464.375027 256.059395 
L 466.051185 258.369315 
L 467.727343 260.827472 
L 469.403501 263.42315 
L 471.079659 266.143816 
L 472.755817 268.975056 
L 474.431975 271.900541 
L 476.108133 274.902037 
L 477.784291 277.959437 
L 479.460449 281.050844 
L 481.136606 284.152676 
L 482.812764 287.239813 
L 484.488922 290.285778 
L 486.16508 293.262952 
L 487.841238 296.142825 
L 489.517396 298.896284 
L 491.193554 301.493931 
L 492.869712 303.906442 
L 494.54587 306.104959 
L 496.222028 308.061515 
L 497.898186 309.749499 
L 499.574344 311.144149 
L 501.250502 312.223091 
L 502.92666 312.966899 
L 504.602818 313.359705 
L 506.278976 313.389834 
L 507.955133 313.050476 
L 509.631291 312.340396 
L 511.307449 311.26468 
L 512.983607 309.835511 
L 514.659765 308.072982 
L 516.335923 306.00595 
L 518.012081 303.672916 
L 519.688239 301.122948 
L 521.364397 298.416635 
L 523.040555 295.627074 
L 524.716713 292.840901 
L 526.392871 290.159347 
L 528.069029 287.699337 
L 529.745187 285.594617 
L 531.421345 283.996925 
L 533.097503 283.077187 
L 534.77366 283.02676 
L 536.449818 284.058697 
L 538.125976 286.409058 
L 539.802134 290.338252 
L 541.478292 296.132413 
L 543.15445 304.104812 
L 544.830608 314.597307 
L 546.506766 327.981825 
L 548.182924 344.661879 
L 549.859082 365.074123 
L 551.53524 389.689938 
L 553.211398 419.01706 
L 554.887556 453.601235 
L 556.563714 494.027913 
L 558.239872 540.923982 
L 559.11938 569.277344 
" style="fill:none;stroke:#000000;stroke-linecap:square;stroke-width:1.5;"/>
   </g>
   <g id="patch_28">
    <path d="M 395.652552 359.665885 
L 395.652552 195.732552 
" style="fill:none;stroke:#000000;stroke-linecap:square;stroke-linejoin:miter;stroke-width:0.8;"/>
   </g>
   <g id="patch_29">
    <path d="M 561.592187 359.665885 
L 561.592187 195.732552 
" style="fill:none;stroke:#000000;stroke-linecap:square;stroke-linejoin:miter;stroke-width:0.8;"/>
   </g>
   <g id="patch_30">
    <path d="M 395.652552 359.665885 
L 561.592187 359.665885 
" style="fill:none;stroke:#000000;stroke-linecap:square;stroke-linejoin:miter;stroke-width:0.8;"/>
   </g>
   <g id="patch_31">
    <path d="M 395.652552 195.732552 
L 561.592187 195.732552 
" style="fill:none;stroke:#000000;stroke-linecap:square;stroke-linejoin:miter;stroke-width:0.8;"/>
   </g>
   <g id="text_16">
    <!-- D = 6 -->
    <g transform="translate(396.65292 348.973594)scale(0.12 -0.12)">
     <defs>
      <path d="M 33.015625 40.375 
Q 26.375 40.375 22.484375 35.828125 
Q 18.609375 31.296875 18.609375 23.390625 
Q 18.609375 15.53125 22.484375 10.953125 
Q 26.375 6.390625 33.015625 6.390625 
Q 39.65625 6.390625 43.53125 10.953125 
Q 47.40625 15.53125 47.40625 23.390625 
Q 47.40625 31.296875 43.53125 35.828125 
Q 39.65625 40.375 33.015625 40.375 
z
M 52.59375 71.296875 
L 52.59375 62.3125 
Q 48.875 64.0625 45.09375 64.984375 
Q 41.3125 65.921875 37.59375 65.921875 
Q 27.828125 65.921875 22.671875 59.328125 
Q 17.53125 52.734375 16.796875 39.40625 
Q 19.671875 43.65625 24.015625 45.921875 
Q 28.375 48.1875 33.59375 48.1875 
Q 44.578125 48.1875 50.953125 41.515625 
Q 57.328125 34.859375 57.328125 23.390625 
Q 57.328125 12.15625 50.6875 5.359375 
Q 44.046875 -1.421875 33.015625 -1.421875 
Q 20.359375 -1.421875 13.671875 8.265625 
Q 6.984375 17.96875 6.984375 36.375 
Q 6.984375 53.65625 15.1875 63.9375 
Q 23.390625 74.21875 37.203125 74.21875 
Q 40.921875 74.21875 44.703125 73.484375 
Q 48.484375 72.75 52.59375 71.296875 
z
" id="DejaVuSans-54"/>
     </defs>
     <use xlink:href="#DejaVuSans-68"/>
     <use x="77.001953" xlink:href="#DejaVuSans-32"/>
     <use x="108.789062" xlink:href="#DejaVuSans-61"/>
     <use x="192.578125" xlink:href="#DejaVuSans-32"/>
     <use x="224.365234" xlink:href="#DejaVuSans-54"/>
    </g>
   </g>
  </g>
  <g id="axes_7">
   <g id="patch_32">
    <path d="M 28.942188 544.399219 
L 194.881823 544.399219 
L 194.881823 380.465885 
L 28.942188 380.465885 
z
" style="fill:#ffffff;"/>
   </g>
   <g id="PathCollection_7">
    <g clip-path="url(#p89a44cc9b8)">
     <use style="fill:#ff0000;stroke:#ff0000;stroke-width:1.5;" x="125.771995" xlink:href="#mab3beeb06c" y="488.006775"/>
     <use style="fill:#ff0000;stroke:#ff0000;stroke-width:1.5;" x="77.584139" xlink:href="#mab3beeb06c" y="425.477735"/>
     <use style="fill:#ff0000;stroke:#ff0000;stroke-width:1.5;" x="62.975139" xlink:href="#mab3beeb06c" y="442.923956"/>
     <use style="fill:#ff0000;stroke:#ff0000;stroke-width:1.5;" x="54.874973" xlink:href="#mab3beeb06c" y="462.957521"/>
     <use style="fill:#ff0000;stroke:#ff0000;stroke-width:1.5;" x="162.357256" xlink:href="#mab3beeb06c" y="471.180519"/>
     <use style="fill:#ff0000;stroke:#ff0000;stroke-width:1.5;" x="55.044302" xlink:href="#mab3beeb06c" y="451.958994"/>
     <use style="fill:#ff0000;stroke:#ff0000;stroke-width:1.5;" x="90.03504" xlink:href="#mab3beeb06c" y="432.627875"/>
     <use style="fill:#ff0000;stroke:#ff0000;stroke-width:1.5;" x="59.786273" xlink:href="#mab3beeb06c" y="436.749378"/>
     <use style="fill:#ff0000;stroke:#ff0000;stroke-width:1.5;" x="166.869169" xlink:href="#mab3beeb06c" y="467.660665"/>
     <use style="fill:#ff0000;stroke:#ff0000;stroke-width:1.5;" x="102.862938" xlink:href="#mab3beeb06c" y="448.609875"/>
    </g>
   </g>
   <g id="matplotlib.axis_13">
    <g id="xtick_1">
     <g id="line2d_17">
      <defs>
       <path d="M 0 0 
L 0 3.5 
" id="m28ec4311ed" style="stroke:#000000;stroke-width:0.8;"/>
      </defs>
      <g>
       <use style="stroke:#000000;stroke-width:0.8;" x="52.64785" xlink:href="#m28ec4311ed" y="544.399219"/>
      </g>
     </g>
     <g id="text_17">
      <!-- 0.0 -->
      <g transform="translate(44.696287 558.997656)scale(0.1 -0.1)">
       <defs>
        <path d="M 10.6875 12.40625 
L 21 12.40625 
L 21 0 
L 10.6875 0 
z
" id="DejaVuSans-46"/>
       </defs>
       <use xlink:href="#DejaVuSans-48"/>
       <use x="63.623047" xlink:href="#DejaVuSans-46"/>
       <use x="95.410156" xlink:href="#DejaVuSans-48"/>
      </g>
     </g>
    </g>
    <g id="xtick_2">
     <g id="line2d_18">
      <g>
       <use style="stroke:#000000;stroke-width:0.8;" x="111.912005" xlink:href="#m28ec4311ed" y="544.399219"/>
      </g>
     </g>
     <g id="text_18">
      <!-- 0.5 -->
      <g transform="translate(103.960443 558.997656)scale(0.1 -0.1)">
       <use xlink:href="#DejaVuSans-48"/>
       <use x="63.623047" xlink:href="#DejaVuSans-46"/>
       <use x="95.410156" xlink:href="#DejaVuSans-53"/>
      </g>
     </g>
    </g>
    <g id="xtick_3">
     <g id="line2d_19">
      <g>
       <use style="stroke:#000000;stroke-width:0.8;" x="171.176161" xlink:href="#m28ec4311ed" y="544.399219"/>
      </g>
     </g>
     <g id="text_19">
      <!-- 1.0 -->
      <g transform="translate(163.224599 558.997656)scale(0.1 -0.1)">
       <use xlink:href="#DejaVuSans-49"/>
       <use x="63.623047" xlink:href="#DejaVuSans-46"/>
       <use x="95.410156" xlink:href="#DejaVuSans-48"/>
      </g>
     </g>
    </g>
   </g>
   <g id="matplotlib.axis_14">
    <g id="ytick_11">
     <g id="line2d_20">
      <g>
       <use style="stroke:#000000;stroke-width:0.8;" x="28.942188" xlink:href="#md6c6636e08" y="544.399219"/>
      </g>
     </g>
     <g id="text_20">
      <!-- −2 -->
      <g transform="translate(7.2 548.198437)scale(0.1 -0.1)">
       <use xlink:href="#DejaVuSans-8722"/>
       <use x="83.789062" xlink:href="#DejaVuSans-50"/>
      </g>
     </g>
    </g>
    <g id="ytick_12">
     <g id="line2d_21">
      <g>
       <use style="stroke:#000000;stroke-width:0.8;" x="28.942188" xlink:href="#md6c6636e08" y="503.415885"/>
      </g>
     </g>
     <g id="text_21">
      <!-- −1 -->
      <g transform="translate(7.2 507.215104)scale(0.1 -0.1)">
       <use xlink:href="#DejaVuSans-8722"/>
       <use x="83.789062" xlink:href="#DejaVuSans-49"/>
      </g>
     </g>
    </g>
    <g id="ytick_13">
     <g id="line2d_22">
      <g>
       <use style="stroke:#000000;stroke-width:0.8;" x="28.942188" xlink:href="#md6c6636e08" y="462.432552"/>
      </g>
     </g>
     <g id="text_22">
      <!-- 0 -->
      <g transform="translate(15.579688 466.231771)scale(0.1 -0.1)">
       <use xlink:href="#DejaVuSans-48"/>
      </g>
     </g>
    </g>
    <g id="ytick_14">
     <g id="line2d_23">
      <g>
       <use style="stroke:#000000;stroke-width:0.8;" x="28.942188" xlink:href="#md6c6636e08" y="421.449219"/>
      </g>
     </g>
     <g id="text_23">
      <!-- 1 -->
      <g transform="translate(15.579688 425.248438)scale(0.1 -0.1)">
       <use xlink:href="#DejaVuSans-49"/>
      </g>
     </g>
    </g>
    <g id="ytick_15">
     <g id="line2d_24">
      <g>
       <use style="stroke:#000000;stroke-width:0.8;" x="28.942188" xlink:href="#md6c6636e08" y="380.465885"/>
      </g>
     </g>
     <g id="text_24">
      <!-- 2 -->
      <g transform="translate(15.579688 384.265104)scale(0.1 -0.1)">
       <use xlink:href="#DejaVuSans-50"/>
      </g>
     </g>
    </g>
   </g>
   <g id="line2d_25">
    <path clip-path="url(#p89a44cc9b8)" d="M 44.093086 569.277344 
L 45.703767 540.742565 
L 47.379925 516.789077 
L 49.056083 497.618048 
L 50.732241 482.396265 
L 52.408399 470.404561 
L 54.084557 461.026904 
L 55.760715 453.740141 
L 57.436872 448.104367 
L 59.11303 443.753899 
L 60.789188 440.388846 
L 62.465346 437.767251 
L 64.141504 435.697787 
L 65.817662 434.032988 
L 67.49382 432.66301 
L 69.169978 431.509878 
L 70.846136 430.522228 
L 72.522294 429.670512 
L 74.198452 428.942652 
L 75.87461 428.340116 
L 77.550768 427.874418 
L 79.226926 427.564 
L 80.903084 427.431503 
L 82.579242 427.501384 
L 84.255399 427.797879 
L 85.931557 428.34329 
L 87.607715 429.156571 
L 89.283873 430.252207 
L 90.960031 431.639356 
L 92.636189 433.321242 
L 94.312347 435.294787 
L 95.988505 437.55045 
L 97.664663 440.072267 
L 99.340821 442.838068 
L 101.016979 445.819858 
L 102.693137 448.984337 
L 104.369295 452.293551 
L 106.045453 455.705641 
L 107.721611 459.175691 
L 109.397769 462.656644 
L 111.073926 466.100266 
L 112.750084 469.458156 
L 114.426242 472.682764 
L 116.1024 475.728415 
L 117.778558 478.552312 
L 119.454716 481.115501 
L 121.130874 483.38379 
L 122.807032 485.328584 
L 124.48319 486.92764 
L 126.159348 488.165711 
L 127.835506 489.035063 
L 129.511664 489.535847 
L 131.187822 489.676317 
L 132.86398 489.472859 
L 134.540138 488.949829 
L 136.216296 488.13917 
L 137.892453 487.079804 
L 139.568611 485.816765 
L 141.244769 484.400067 
L 142.920927 482.883283 
L 144.597085 481.321821 
L 146.273243 479.770873 
L 147.949401 478.283033 
L 149.625559 476.90554 
L 151.301717 475.677163 
L 152.977875 474.624677 
L 154.654033 473.758932 
L 156.330191 473.070493 
L 158.006349 472.524831 
L 159.682507 472.057044 
L 161.358665 471.566097 
L 163.034823 470.908563 
L 164.71098 469.891837 
L 166.387138 468.266816 
L 168.063296 465.720024 
L 169.739454 461.865162 
L 171.415612 456.234064 
L 173.09177 448.267049 
L 174.767928 437.302639 
L 176.444086 422.566636 
L 178.120244 403.160534 
L 179.796402 378.04925 
L 181.47256 346.048156 
L 183.148718 305.809393 
L 184.824876 255.807449 
L 186.501034 194.323987 
L 188.177192 119.431903 
L 189.85335 28.978585 
L 190.316856 -1 
" style="fill:none;stroke:#000000;stroke-linecap:square;stroke-width:1.5;"/>
   </g>
   <g id="patch_33">
    <path d="M 28.942188 544.399219 
L 28.942188 380.465885 
" style="fill:none;stroke:#000000;stroke-linecap:square;stroke-linejoin:miter;stroke-width:0.8;"/>
   </g>
   <g id="patch_34">
    <path d="M 194.881823 544.399219 
L 194.881823 380.465885 
" style="fill:none;stroke:#000000;stroke-linecap:square;stroke-linejoin:miter;stroke-width:0.8;"/>
   </g>
   <g id="patch_35">
    <path d="M 28.942188 544.399219 
L 194.881823 544.399219 
" style="fill:none;stroke:#000000;stroke-linecap:square;stroke-linejoin:miter;stroke-width:0.8;"/>
   </g>
   <g id="patch_36">
    <path d="M 28.942188 380.465885 
L 194.881823 380.465885 
" style="fill:none;stroke:#000000;stroke-linecap:square;stroke-linejoin:miter;stroke-width:0.8;"/>
   </g>
   <g id="text_25">
    <!-- D = 7 -->
    <g transform="translate(29.942556 533.706927)scale(0.12 -0.12)">
     <defs>
      <path d="M 8.203125 72.90625 
L 55.078125 72.90625 
L 55.078125 68.703125 
L 28.609375 0 
L 18.3125 0 
L 43.21875 64.59375 
L 8.203125 64.59375 
z
" id="DejaVuSans-55"/>
     </defs>
     <use xlink:href="#DejaVuSans-68"/>
     <use x="77.001953" xlink:href="#DejaVuSans-32"/>
     <use x="108.789062" xlink:href="#DejaVuSans-61"/>
     <use x="192.578125" xlink:href="#DejaVuSans-32"/>
     <use x="224.365234" xlink:href="#DejaVuSans-55"/>
    </g>
   </g>
  </g>
  <g id="axes_8">
   <g id="patch_37">
    <path d="M 212.29737 544.399219 
L 378.237005 544.399219 
L 378.237005 380.465885 
L 212.29737 380.465885 
z
" style="fill:#ffffff;"/>
   </g>
   <g id="PathCollection_8">
    <g clip-path="url(#p6fd68e1fff)">
     <use style="fill:#ff0000;stroke:#ff0000;stroke-width:1.5;" x="309.127177" xlink:href="#mab3beeb06c" y="488.006775"/>
     <use style="fill:#ff0000;stroke:#ff0000;stroke-width:1.5;" x="260.939322" xlink:href="#mab3beeb06c" y="425.477735"/>
     <use style="fill:#ff0000;stroke:#ff0000;stroke-width:1.5;" x="246.330321" xlink:href="#mab3beeb06c" y="442.923956"/>
     <use style="fill:#ff0000;stroke:#ff0000;stroke-width:1.5;" x="238.230155" xlink:href="#mab3beeb06c" y="462.957521"/>
     <use style="fill:#ff0000;stroke:#ff0000;stroke-width:1.5;" x="345.712438" xlink:href="#mab3beeb06c" y="471.180519"/>
     <use style="fill:#ff0000;stroke:#ff0000;stroke-width:1.5;" x="238.399484" xlink:href="#mab3beeb06c" y="451.958994"/>
     <use style="fill:#ff0000;stroke:#ff0000;stroke-width:1.5;" x="273.390222" xlink:href="#mab3beeb06c" y="432.627875"/>
     <use style="fill:#ff0000;stroke:#ff0000;stroke-width:1.5;" x="243.141455" xlink:href="#mab3beeb06c" y="436.749378"/>
     <use style="fill:#ff0000;stroke:#ff0000;stroke-width:1.5;" x="350.224352" xlink:href="#mab3beeb06c" y="467.660665"/>
     <use style="fill:#ff0000;stroke:#ff0000;stroke-width:1.5;" x="286.21812" xlink:href="#mab3beeb06c" y="448.609875"/>
    </g>
   </g>
   <g id="matplotlib.axis_15">
    <g id="xtick_4">
     <g id="line2d_26">
      <g>
       <use style="stroke:#000000;stroke-width:0.8;" x="236.003032" xlink:href="#m28ec4311ed" y="544.399219"/>
      </g>
     </g>
     <g id="text_26">
      <!-- 0.0 -->
      <g transform="translate(228.051469 558.997656)scale(0.1 -0.1)">
       <use xlink:href="#DejaVuSans-48"/>
       <use x="63.623047" xlink:href="#DejaVuSans-46"/>
       <use x="95.410156" xlink:href="#DejaVuSans-48"/>
      </g>
     </g>
    </g>
    <g id="xtick_5">
     <g id="line2d_27">
      <g>
       <use style="stroke:#000000;stroke-width:0.8;" x="295.267187" xlink:href="#m28ec4311ed" y="544.399219"/>
      </g>
     </g>
     <g id="text_27">
      <!-- 0.5 -->
      <g transform="translate(287.315625 558.997656)scale(0.1 -0.1)">
       <use xlink:href="#DejaVuSans-48"/>
       <use x="63.623047" xlink:href="#DejaVuSans-46"/>
       <use x="95.410156" xlink:href="#DejaVuSans-53"/>
      </g>
     </g>
    </g>
    <g id="xtick_6">
     <g id="line2d_28">
      <g>
       <use style="stroke:#000000;stroke-width:0.8;" x="354.531343" xlink:href="#m28ec4311ed" y="544.399219"/>
      </g>
     </g>
     <g id="text_28">
      <!-- 1.0 -->
      <g transform="translate(346.579781 558.997656)scale(0.1 -0.1)">
       <use xlink:href="#DejaVuSans-49"/>
       <use x="63.623047" xlink:href="#DejaVuSans-46"/>
       <use x="95.410156" xlink:href="#DejaVuSans-48"/>
      </g>
     </g>
    </g>
   </g>
   <g id="matplotlib.axis_16"/>
   <g id="line2d_29">
    <path clip-path="url(#p6fd68e1fff)" d="M 234.828945 569.277344 
L 235.763581 522.595283 
L 237.439739 473.376016 
L 239.115897 447.645091 
L 240.792055 437.017146 
L 242.468212 435.278627 
L 244.14437 437.987901 
L 245.820528 442.12539 
L 247.496686 445.789914 
L 249.172844 447.93752 
L 250.849002 448.159249 
L 252.52516 446.494409 
L 254.201318 443.276062 
L 255.877476 439.005575 
L 257.553634 434.253217 
L 259.229792 429.581939 
L 260.90595 425.491565 
L 262.582108 422.380832 
L 264.258266 420.524773 
L 265.934424 420.065144 
L 267.610582 421.011687 
L 269.286739 423.252179 
L 270.962897 426.569352 
L 272.639055 430.662904 
L 274.315213 435.174948 
L 275.991371 439.717413 
L 277.667529 443.900008 
L 279.343687 447.357536 
L 281.019845 449.775449 
L 282.696003 450.912696 
L 284.372161 450.621045 
L 286.048319 448.860188 
L 287.724477 445.708102 
L 289.400635 441.366235 
L 291.076793 436.159262 
L 292.752951 430.529279 
L 294.429109 425.024427 
L 296.105266 420.282096 
L 297.781424 417.00699 
L 299.457582 415.944456 
L 301.13374 417.849646 
L 302.809898 423.453186 
L 304.486056 433.424197 
L 306.162214 448.33161 
L 307.838372 468.604902 
L 309.51453 494.495473 
L 311.190688 526.040044 
L 312.866846 563.027599 
L 313.116597 569.277344 
M 343.559039 569.277344 
L 344.713847 512.540622 
L 346.390005 448.419608 
L 348.066163 419.113957 
L 349.74232 445.927647 
L 351.418478 555.665006 
L 351.519513 569.277344 
" style="fill:none;stroke:#000000;stroke-linecap:square;stroke-width:1.5;"/>
   </g>
   <g id="patch_38">
    <path d="M 212.29737 544.399219 
L 212.29737 380.465885 
" style="fill:none;stroke:#000000;stroke-linecap:square;stroke-linejoin:miter;stroke-width:0.8;"/>
   </g>
   <g id="patch_39">
    <path d="M 378.237005 544.399219 
L 378.237005 380.465885 
" style="fill:none;stroke:#000000;stroke-linecap:square;stroke-linejoin:miter;stroke-width:0.8;"/>
   </g>
   <g id="patch_40">
    <path d="M 212.29737 544.399219 
L 378.237005 544.399219 
" style="fill:none;stroke:#000000;stroke-linecap:square;stroke-linejoin:miter;stroke-width:0.8;"/>
   </g>
   <g id="patch_41">
    <path d="M 212.29737 380.465885 
L 378.237005 380.465885 
" style="fill:none;stroke:#000000;stroke-linecap:square;stroke-linejoin:miter;stroke-width:0.8;"/>
   </g>
   <g id="text_29">
    <!-- D = 8 -->
    <g transform="translate(213.297738 533.706927)scale(0.12 -0.12)">
     <defs>
      <path d="M 31.78125 34.625 
Q 24.75 34.625 20.71875 30.859375 
Q 16.703125 27.09375 16.703125 20.515625 
Q 16.703125 13.921875 20.71875 10.15625 
Q 24.75 6.390625 31.78125 6.390625 
Q 38.8125 6.390625 42.859375 10.171875 
Q 46.921875 13.96875 46.921875 20.515625 
Q 46.921875 27.09375 42.890625 30.859375 
Q 38.875 34.625 31.78125 34.625 
z
M 21.921875 38.8125 
Q 15.578125 40.375 12.03125 44.71875 
Q 8.5 49.078125 8.5 55.328125 
Q 8.5 64.0625 14.71875 69.140625 
Q 20.953125 74.21875 31.78125 74.21875 
Q 42.671875 74.21875 48.875 69.140625 
Q 55.078125 64.0625 55.078125 55.328125 
Q 55.078125 49.078125 51.53125 44.71875 
Q 48 40.375 41.703125 38.8125 
Q 48.828125 37.15625 52.796875 32.3125 
Q 56.78125 27.484375 56.78125 20.515625 
Q 56.78125 9.90625 50.3125 4.234375 
Q 43.84375 -1.421875 31.78125 -1.421875 
Q 19.734375 -1.421875 13.25 4.234375 
Q 6.78125 9.90625 6.78125 20.515625 
Q 6.78125 27.484375 10.78125 32.3125 
Q 14.796875 37.15625 21.921875 38.8125 
z
M 18.3125 54.390625 
Q 18.3125 48.734375 21.84375 45.5625 
Q 25.390625 42.390625 31.78125 42.390625 
Q 38.140625 42.390625 41.71875 45.5625 
Q 45.3125 48.734375 45.3125 54.390625 
Q 45.3125 60.0625 41.71875 63.234375 
Q 38.140625 66.40625 31.78125 66.40625 
Q 25.390625 66.40625 21.84375 63.234375 
Q 18.3125 60.0625 18.3125 54.390625 
z
" id="DejaVuSans-56"/>
     </defs>
     <use xlink:href="#DejaVuSans-68"/>
     <use x="77.001953" xlink:href="#DejaVuSans-32"/>
     <use x="108.789062" xlink:href="#DejaVuSans-61"/>
     <use x="192.578125" xlink:href="#DejaVuSans-32"/>
     <use x="224.365234" xlink:href="#DejaVuSans-56"/>
    </g>
   </g>
  </g>
  <g id="axes_9">
   <g id="patch_42">
    <path d="M 395.652552 544.399219 
L 561.592187 544.399219 
L 561.592187 380.465885 
L 395.652552 380.465885 
z
" style="fill:#ffffff;"/>
   </g>
   <g id="PathCollection_9">
    <g clip-path="url(#p203111e256)">
     <use style="fill:#ff0000;stroke:#ff0000;stroke-width:1.5;" x="492.482359" xlink:href="#mab3beeb06c" y="488.006775"/>
     <use style="fill:#ff0000;stroke:#ff0000;stroke-width:1.5;" x="444.294504" xlink:href="#mab3beeb06c" y="425.477735"/>
     <use style="fill:#ff0000;stroke:#ff0000;stroke-width:1.5;" x="429.685503" xlink:href="#mab3beeb06c" y="442.923956"/>
     <use style="fill:#ff0000;stroke:#ff0000;stroke-width:1.5;" x="421.585337" xlink:href="#mab3beeb06c" y="462.957521"/>
     <use style="fill:#ff0000;stroke:#ff0000;stroke-width:1.5;" x="529.06762" xlink:href="#mab3beeb06c" y="471.180519"/>
     <use style="fill:#ff0000;stroke:#ff0000;stroke-width:1.5;" x="421.754666" xlink:href="#mab3beeb06c" y="451.958994"/>
     <use style="fill:#ff0000;stroke:#ff0000;stroke-width:1.5;" x="456.745404" xlink:href="#mab3beeb06c" y="432.627875"/>
     <use style="fill:#ff0000;stroke:#ff0000;stroke-width:1.5;" x="426.496637" xlink:href="#mab3beeb06c" y="436.749378"/>
     <use style="fill:#ff0000;stroke:#ff0000;stroke-width:1.5;" x="533.579534" xlink:href="#mab3beeb06c" y="467.660665"/>
     <use style="fill:#ff0000;stroke:#ff0000;stroke-width:1.5;" x="469.573302" xlink:href="#mab3beeb06c" y="448.609875"/>
    </g>
   </g>
   <g id="matplotlib.axis_17">
    <g id="xtick_7">
     <g id="line2d_30">
      <g>
       <use style="stroke:#000000;stroke-width:0.8;" x="419.358214" xlink:href="#m28ec4311ed" y="544.399219"/>
      </g>
     </g>
     <g id="text_30">
      <!-- 0.0 -->
      <g transform="translate(411.406651 558.997656)scale(0.1 -0.1)">
       <use xlink:href="#DejaVuSans-48"/>
       <use x="63.623047" xlink:href="#DejaVuSans-46"/>
       <use x="95.410156" xlink:href="#DejaVuSans-48"/>
      </g>
     </g>
    </g>
    <g id="xtick_8">
     <g id="line2d_31">
      <g>
       <use style="stroke:#000000;stroke-width:0.8;" x="478.62237" xlink:href="#m28ec4311ed" y="544.399219"/>
      </g>
     </g>
     <g id="text_31">
      <!-- 0.5 -->
      <g transform="translate(470.670807 558.997656)scale(0.1 -0.1)">
       <use xlink:href="#DejaVuSans-48"/>
       <use x="63.623047" xlink:href="#DejaVuSans-46"/>
       <use x="95.410156" xlink:href="#DejaVuSans-53"/>
      </g>
     </g>
    </g>
    <g id="xtick_9">
     <g id="line2d_32">
      <g>
       <use style="stroke:#000000;stroke-width:0.8;" x="537.886525" xlink:href="#m28ec4311ed" y="544.399219"/>
      </g>
     </g>
     <g id="text_32">
      <!-- 1.0 -->
      <g transform="translate(529.934963 558.997656)scale(0.1 -0.1)">
       <use xlink:href="#DejaVuSans-49"/>
       <use x="63.623047" xlink:href="#DejaVuSans-46"/>
       <use x="95.410156" xlink:href="#DejaVuSans-48"/>
      </g>
     </g>
    </g>
   </g>
   <g id="matplotlib.axis_18"/>
   <g id="line2d_33">
    <path clip-path="url(#p203111e256)" d="M 418.195489 -1 
L 419.118763 241.624876 
L 420.794921 422.537626 
L 422.471079 469.455441 
L 424.147237 460.818014 
L 425.823395 441.171573 
L 427.499552 431.720124 
L 429.17571 438.565842 
L 430.851868 458.977821 
L 432.528026 485.998313 
L 434.204184 511.666698 
L 435.880342 529.113773 
L 437.5565 533.752562 
L 439.232658 523.766619 
L 440.908816 500.072867 
L 442.584974 465.913284 
L 444.261132 426.208235 
L 445.93729 386.783988 
L 447.613448 353.567915 
L 449.289606 331.827052 
L 450.965764 325.509138 
L 452.641922 336.729864 
L 454.318079 365.435975 
L 455.994237 409.26095 
L 457.670395 463.578336 
L 459.346553 521.747365 
L 460.827671 569.277344 
M 467.51284 569.277344 
L 467.727343 562.210008 
L 469.403501 461.474888 
L 471.079659 312.706929 
L 472.755817 117.142548 
L 473.592274 -1 
M 491.528075 -1 
L 492.587985 569.277344 
M 529.101394 569.277344 
L 529.356658 -1 
M 533.314782 -1 
L 533.451178 569.277344 
" style="fill:none;stroke:#000000;stroke-linecap:square;stroke-width:1.5;"/>
   </g>
   <g id="patch_43">
    <path d="M 395.652552 544.399219 
L 395.652552 380.465885 
" style="fill:none;stroke:#000000;stroke-linecap:square;stroke-linejoin:miter;stroke-width:0.8;"/>
   </g>
   <g id="patch_44">
    <path d="M 561.592187 544.399219 
L 561.592187 380.465885 
" style="fill:none;stroke:#000000;stroke-linecap:square;stroke-linejoin:miter;stroke-width:0.8;"/>
   </g>
   <g id="patch_45">
    <path d="M 395.652552 544.399219 
L 561.592187 544.399219 
" style="fill:none;stroke:#000000;stroke-linecap:square;stroke-linejoin:miter;stroke-width:0.8;"/>
   </g>
   <g id="patch_46">
    <path d="M 395.652552 380.465885 
L 561.592187 380.465885 
" style="fill:none;stroke:#000000;stroke-linecap:square;stroke-linejoin:miter;stroke-width:0.8;"/>
   </g>
   <g id="text_33">
    <!-- D = 9 -->
    <g transform="translate(396.65292 533.706927)scale(0.12 -0.12)">
     <defs>
      <path d="M 10.984375 1.515625 
L 10.984375 10.5 
Q 14.703125 8.734375 18.5 7.8125 
Q 22.3125 6.890625 25.984375 6.890625 
Q 35.75 6.890625 40.890625 13.453125 
Q 46.046875 20.015625 46.78125 33.40625 
Q 43.953125 29.203125 39.59375 26.953125 
Q 35.25 24.703125 29.984375 24.703125 
Q 19.046875 24.703125 12.671875 31.3125 
Q 6.296875 37.9375 6.296875 49.421875 
Q 6.296875 60.640625 12.9375 67.421875 
Q 19.578125 74.21875 30.609375 74.21875 
Q 43.265625 74.21875 49.921875 64.515625 
Q 56.59375 54.828125 56.59375 36.375 
Q 56.59375 19.140625 48.40625 8.859375 
Q 40.234375 -1.421875 26.421875 -1.421875 
Q 22.703125 -1.421875 18.890625 -0.6875 
Q 15.09375 0.046875 10.984375 1.515625 
z
M 30.609375 32.421875 
Q 37.25 32.421875 41.125 36.953125 
Q 45.015625 41.5 45.015625 49.421875 
Q 45.015625 57.28125 41.125 61.84375 
Q 37.25 66.40625 30.609375 66.40625 
Q 23.96875 66.40625 20.09375 61.84375 
Q 16.21875 57.28125 16.21875 49.421875 
Q 16.21875 41.5 20.09375 36.953125 
Q 23.96875 32.421875 30.609375 32.421875 
z
" id="DejaVuSans-57"/>
     </defs>
     <use xlink:href="#DejaVuSans-68"/>
     <use x="77.001953" xlink:href="#DejaVuSans-32"/>
     <use x="108.789062" xlink:href="#DejaVuSans-61"/>
     <use x="192.578125" xlink:href="#DejaVuSans-32"/>
     <use x="224.365234" xlink:href="#DejaVuSans-57"/>
    </g>
   </g>
  </g>
 </g>
 <defs>
  <clipPath id="p3300fcd660">
   <rect height="163.933333" width="165.939636" x="28.942188" y="10.999219"/>
  </clipPath>
  <clipPath id="p3524d0b050">
   <rect height="163.933333" width="165.939636" x="212.29737" y="10.999219"/>
  </clipPath>
  <clipPath id="p26e5fe5ac5">
   <rect height="163.933333" width="165.939636" x="395.652552" y="10.999219"/>
  </clipPath>
  <clipPath id="pb4dd38ca12">
   <rect height="163.933333" width="165.939636" x="28.942188" y="195.732552"/>
  </clipPath>
  <clipPath id="pa039106147">
   <rect height="163.933333" width="165.939636" x="212.29737" y="195.732552"/>
  </clipPath>
  <clipPath id="pea67c766b9">
   <rect height="163.933333" width="165.939636" x="395.652552" y="195.732552"/>
  </clipPath>
  <clipPath id="p89a44cc9b8">
   <rect height="163.933333" width="165.939636" x="28.942188" y="380.465885"/>
  </clipPath>
  <clipPath id="p6fd68e1fff">
   <rect height="163.933333" width="165.939636" x="212.29737" y="380.465885"/>
  </clipPath>
  <clipPath id="p203111e256">
   <rect height="163.933333" width="165.939636" x="395.652552" y="380.465885"/>
  </clipPath>
 </defs>
</svg>
