<?xml version="1.0" encoding="utf-8" standalone="no"?>
<!DOCTYPE svg PUBLIC "-//W3C//DTD SVG 1.1//EN"
  "http://www.w3.org/Graphics/SVG/1.1/DTD/svg11.dtd">
<!-- Created with matplotlib (https://matplotlib.org/) -->
<svg height="238.71125pt" version="1.1" viewBox="0 0 506.91125 238.71125" width="506.91125pt" xmlns="http://www.w3.org/2000/svg" xmlns:xlink="http://www.w3.org/1999/xlink">
 <metadata>
  <rdf:RDF xmlns:cc="http://creativecommons.org/ns#" xmlns:dc="http://purl.org/dc/elements/1.1/" xmlns:rdf="http://www.w3.org/1999/02/22-rdf-syntax-ns#">
   <cc:Work>
    <dc:type rdf:resource="http://purl.org/dc/dcmitype/StillImage"/>
    <dc:date>2021-03-06T21:31:16.159053</dc:date>
    <dc:format>image/svg+xml</dc:format>
    <dc:creator>
     <cc:Agent>
      <dc:title>Matplotlib v3.3.3, https://matplotlib.org/</dc:title>
     </cc:Agent>
    </dc:creator>
   </cc:Work>
  </rdf:RDF>
 </metadata>
 <defs>
  <style type="text/css">*{stroke-linecap:butt;stroke-linejoin:round;}</style>
 </defs>
 <g id="figure_1">
  <g id="patch_1">
   <path d="M 0 238.71125 
L 506.91125 238.71125 
L 506.91125 0 
L 0 0 
z
" style="fill:none;"/>
  </g>
  <g id="axes_1">
   <g id="patch_2">
    <path d="M 53.31125 191.476875 
L 499.71125 191.476875 
L 499.71125 28.396875 
L 53.31125 28.396875 
z
" style="fill:#ffffff;"/>
   </g>
   <g id="PolyCollection_1">
    <path clip-path="url(#pe84c35c01d)" d="M 53.31125 190.973985 
L 53.31125 162.928736 
L 58.167194 158.669972 
L 63.023138 154.478471 
L 67.879082 150.35799 
L 72.735026 146.31216 
L 77.59097 142.344507 
L 82.446914 138.458483 
L 87.302858 134.657516 
L 92.158802 130.945087 
L 97.014747 127.32483 
L 101.870691 123.800659 
L 106.726635 120.376911 
L 111.582579 117.058496 
L 116.438523 113.851011 
L 121.294467 110.760808 
L 126.150411 107.794979 
L 131.006355 104.961243 
L 135.862299 102.267755 
L 140.718243 99.722868 
L 145.574187 97.334866 
L 150.430131 95.111733 
L 155.286075 93.060965 
L 160.142019 91.189437 
L 164.997963 89.50333 
L 169.853907 88.008096 
L 174.709851 86.708459 
L 179.565795 85.608432 
L 184.42174 84.711343 
L 189.277684 84.019864 
L 194.133628 83.536034 
L 198.989572 83.261275 
L 203.845516 83.196406 
L 208.70146 83.341645 
L 213.557404 83.6966 
L 218.413348 84.260262 
L 223.269292 85.030983 
L 228.125236 86.006448 
L 232.98118 87.183648 
L 237.837124 88.55884 
L 242.693068 90.127505 
L 247.549012 91.884304 
L 252.404956 93.823029 
L 257.2609 95.936546 
L 262.116844 98.216743 
L 266.972788 100.654474 
L 271.828733 103.239498 
L 276.684677 105.96042 
L 281.540621 108.804637 
L 286.396565 111.758276 
L 291.252509 114.806148 
L 296.108453 117.931693 
L 300.964397 121.116941 
L 305.820341 124.342478 
L 310.676285 127.587417 
L 315.532229 130.829394 
L 320.388173 134.044566 
L 325.244117 137.207637 
L 330.100061 140.291912 
L 334.956005 143.269369 
L 339.811949 146.110785 
L 344.667893 148.785888 
L 349.523837 151.263579 
L 354.379781 153.51221 
L 359.235726 155.499931 
L 364.09167 157.195132 
L 368.947614 158.566971 
L 373.803558 159.586014 
L 378.659502 160.224979 
L 383.515446 160.459616 
L 388.37139 160.269697 
L 393.227334 159.640143 
L 398.083278 158.56226 
L 402.939222 157.035087 
L 407.795166 155.066781 
L 412.65111 152.675961 
L 417.507054 149.892784 
L 422.362998 146.759257 
L 427.218942 143.327631 
L 432.074886 139.654071 
L 436.93083 135.780404 
L 441.786774 131.686821 
L 446.642719 127.192853 
L 451.498663 121.89157 
L 456.354607 115.448752 
L 461.210551 107.966766 
L 466.066495 99.748208 
L 470.922439 91.053466 
L 475.778383 82.09067 
L 480.634327 73.051061 
L 485.490271 64.132285 
L 490.346215 55.551429 
L 495.202159 47.553094 
L 500.058103 40.415333 
L 504.914047 34.454701 
L 509.769991 30.031038 
L 514.625935 27.552251 
L 519.481879 27.479261 
L 524.337823 30.331205 
L 529.193767 36.69094 
L 534.049712 47.210911 
L 534.049712 721.335835 
L 534.049712 721.335835 
L 529.193767 607.20826 
L 524.337823 510.970926 
L 519.481879 430.379445 
L 514.625935 363.420952 
L 509.769991 308.294184 
L 504.914047 263.391035 
L 500.058103 227.279544 
L 495.202159 198.688258 
L 490.346215 176.491966 
L 485.490271 159.698866 
L 480.634327 147.439355 
L 475.778383 138.956968 
L 470.922439 133.602641 
L 466.066495 130.835028 
L 461.210551 130.232138 
L 456.354607 131.515981 
L 451.498663 134.532729 
L 446.642719 139.001299 
L 441.786774 144.268811 
L 436.93083 149.667012 
L 432.074886 154.804654 
L 427.218942 159.495532 
L 422.362998 163.653877 
L 417.507054 167.24201 
L 412.65111 170.247538 
L 407.795166 172.672919 
L 402.939222 174.530181 
L 398.083278 175.837944 
L 393.227334 176.619548 
L 388.37139 176.901787 
L 383.515446 176.713977 
L 378.659502 176.08725 
L 373.803558 175.053997 
L 368.947614 173.647409 
L 364.09167 171.901103 
L 359.235726 169.848806 
L 354.379781 167.524075 
L 349.523837 164.96007 
L 344.667893 162.189336 
L 339.811949 159.243628 
L 334.956005 156.153743 
L 330.100061 152.949387 
L 325.244117 149.659054 
L 320.388173 146.309929 
L 315.532229 142.927812 
L 310.676285 139.537057 
L 305.820341 136.160536 
L 300.964397 132.819615 
L 296.108453 129.534153 
L 291.252509 126.322504 
L 286.396565 123.201545 
L 281.540621 120.186706 
L 276.684677 117.292009 
L 271.828733 114.530123 
L 266.972788 111.912411 
L 262.116844 109.448999 
L 257.2609 107.148832 
L 252.404956 105.019744 
L 247.549012 103.068524 
L 242.693068 101.300986 
L 237.837124 99.72204 
L 232.98118 98.33576 
L 228.125236 97.145455 
L 223.269292 96.15374 
L 218.413348 95.362605 
L 213.557404 94.773486 
L 208.70146 94.387334 
L 203.845516 94.20469 
L 198.989572 94.225753 
L 194.133628 94.450453 
L 189.277684 94.878533 
L 184.42174 95.50962 
L 179.565795 96.343313 
L 174.709851 97.379261 
L 169.853907 98.617253 
L 164.997963 100.057297 
L 160.142019 101.699703 
L 155.286075 103.545147 
L 150.430131 105.594714 
L 145.574187 107.849906 
L 140.718243 110.312608 
L 135.862299 112.984986 
L 131.006355 115.869331 
L 126.150411 118.967854 
L 121.294467 122.282454 
L 116.438523 125.814493 
L 111.582579 129.564631 
L 106.726635 133.532733 
L 101.870691 137.717873 
L 97.014747 142.118413 
L 92.158802 146.732135 
L 87.302858 151.556404 
L 82.446914 156.588322 
L 77.59097 161.824863 
L 72.735026 167.262987 
L 67.879082 172.899723 
L 63.023138 178.732224 
L 58.167194 184.757808 
L 53.31125 190.973985 
z
" style="fill:#808080;fill-opacity:0.5;"/>
   </g>
   <g id="PathCollection_1">
    <defs>
     <path d="M -3 3 
L 3 -3 
M -3 -3 
L 3 3 
" id="m92ae66fc60" style="stroke:#ff0000;stroke-width:1.5;"/>
    </defs>
    <g clip-path="url(#pe84c35c01d)">
     <use style="fill:#ff0000;stroke:#ff0000;stroke-width:1.5;" x="333.833816" xlink:href="#m92ae66fc60" y="154.256992"/>
     <use style="fill:#ff0000;stroke:#ff0000;stroke-width:1.5;" x="194.230308" xlink:href="#m92ae66fc60" y="81.076341"/>
     <use style="fill:#ff0000;stroke:#ff0000;stroke-width:1.5;" x="151.907034" xlink:href="#m92ae66fc60" y="101.494468"/>
     <use style="fill:#ff0000;stroke:#ff0000;stroke-width:1.5;" x="128.440301" xlink:href="#m92ae66fc60" y="124.940683"/>
     <use style="fill:#ff0000;stroke:#ff0000;stroke-width:1.5;" x="439.823819" xlink:href="#m92ae66fc60" y="134.56444"/>
     <use style="fill:#ff0000;stroke:#ff0000;stroke-width:1.5;" x="128.93086" xlink:href="#m92ae66fc60" y="112.068593"/>
     <use style="fill:#ff0000;stroke:#ff0000;stroke-width:1.5;" x="230.301416" xlink:href="#m92ae66fc60" y="89.444484"/>
     <use style="fill:#ff0000;stroke:#ff0000;stroke-width:1.5;" x="142.668673" xlink:href="#m92ae66fc60" y="94.268071"/>
     <use style="fill:#ff0000;stroke:#ff0000;stroke-width:1.5;" x="452.895139" xlink:href="#m92ae66fc60" y="130.444991"/>
     <use style="fill:#ff0000;stroke:#ff0000;stroke-width:1.5;" x="267.464713" xlink:href="#m92ae66fc60" y="108.148963"/>
    </g>
   </g>
   <g id="matplotlib.axis_1">
    <g id="xtick_1">
     <g id="line2d_1">
      <defs>
       <path d="M 0 0 
L 0 3.5 
" id="md46eed9177" style="stroke:#000000;stroke-width:0.8;"/>
      </defs>
      <g>
       <use style="stroke:#000000;stroke-width:0.8;" x="53.31125" xlink:href="#md46eed9177" y="191.476875"/>
      </g>
     </g>
     <g id="text_1">
      <!-- −0.2 -->
      <g transform="translate(38.741563 207.595)scale(0.12 -0.12)">
       <defs>
        <path d="M 10.59375 35.5 
L 73.1875 35.5 
L 73.1875 27.203125 
L 10.59375 27.203125 
z
" id="DejaVuSans-8722"/>
        <path d="M 31.78125 66.40625 
Q 24.171875 66.40625 20.328125 58.90625 
Q 16.5 51.421875 16.5 36.375 
Q 16.5 21.390625 20.328125 13.890625 
Q 24.171875 6.390625 31.78125 6.390625 
Q 39.453125 6.390625 43.28125 13.890625 
Q 47.125 21.390625 47.125 36.375 
Q 47.125 51.421875 43.28125 58.90625 
Q 39.453125 66.40625 31.78125 66.40625 
z
M 31.78125 74.21875 
Q 44.046875 74.21875 50.515625 64.515625 
Q 56.984375 54.828125 56.984375 36.375 
Q 56.984375 17.96875 50.515625 8.265625 
Q 44.046875 -1.421875 31.78125 -1.421875 
Q 19.53125 -1.421875 13.0625 8.265625 
Q 6.59375 17.96875 6.59375 36.375 
Q 6.59375 54.828125 13.0625 64.515625 
Q 19.53125 74.21875 31.78125 74.21875 
z
" id="DejaVuSans-48"/>
        <path d="M 10.6875 12.40625 
L 21 12.40625 
L 21 0 
L 10.6875 0 
z
" id="DejaVuSans-46"/>
        <path d="M 19.1875 8.296875 
L 53.609375 8.296875 
L 53.609375 0 
L 7.328125 0 
L 7.328125 8.296875 
Q 12.9375 14.109375 22.625 23.890625 
Q 32.328125 33.6875 34.8125 36.53125 
Q 39.546875 41.84375 41.421875 45.53125 
Q 43.3125 49.21875 43.3125 52.78125 
Q 43.3125 58.59375 39.234375 62.25 
Q 35.15625 65.921875 28.609375 65.921875 
Q 23.96875 65.921875 18.8125 64.3125 
Q 13.671875 62.703125 7.8125 59.421875 
L 7.8125 69.390625 
Q 13.765625 71.78125 18.9375 73 
Q 24.125 74.21875 28.421875 74.21875 
Q 39.75 74.21875 46.484375 68.546875 
Q 53.21875 62.890625 53.21875 53.421875 
Q 53.21875 48.921875 51.53125 44.890625 
Q 49.859375 40.875 45.40625 35.40625 
Q 44.1875 33.984375 37.640625 27.21875 
Q 31.109375 20.453125 19.1875 8.296875 
z
" id="DejaVuSans-50"/>
       </defs>
       <use xlink:href="#DejaVuSans-8722"/>
       <use x="83.789062" xlink:href="#DejaVuSans-48"/>
       <use x="147.412109" xlink:href="#DejaVuSans-46"/>
       <use x="179.199219" xlink:href="#DejaVuSans-50"/>
      </g>
     </g>
    </g>
    <g id="xtick_2">
     <g id="line2d_2">
      <g>
       <use style="stroke:#000000;stroke-width:0.8;" x="121.988173" xlink:href="#md46eed9177" y="191.476875"/>
      </g>
     </g>
     <g id="text_2">
      <!-- 0.0 -->
      <g transform="translate(112.446298 207.595)scale(0.12 -0.12)">
       <use xlink:href="#DejaVuSans-48"/>
       <use x="63.623047" xlink:href="#DejaVuSans-46"/>
       <use x="95.410156" xlink:href="#DejaVuSans-48"/>
      </g>
     </g>
    </g>
    <g id="xtick_3">
     <g id="line2d_3">
      <g>
       <use style="stroke:#000000;stroke-width:0.8;" x="190.665096" xlink:href="#md46eed9177" y="191.476875"/>
      </g>
     </g>
     <g id="text_3">
      <!-- 0.2 -->
      <g transform="translate(181.123221 207.595)scale(0.12 -0.12)">
       <use xlink:href="#DejaVuSans-48"/>
       <use x="63.623047" xlink:href="#DejaVuSans-46"/>
       <use x="95.410156" xlink:href="#DejaVuSans-50"/>
      </g>
     </g>
    </g>
    <g id="xtick_4">
     <g id="line2d_4">
      <g>
       <use style="stroke:#000000;stroke-width:0.8;" x="259.342019" xlink:href="#md46eed9177" y="191.476875"/>
      </g>
     </g>
     <g id="text_4">
      <!-- 0.4 -->
      <g transform="translate(249.800144 207.595)scale(0.12 -0.12)">
       <defs>
        <path d="M 37.796875 64.3125 
L 12.890625 25.390625 
L 37.796875 25.390625 
z
M 35.203125 72.90625 
L 47.609375 72.90625 
L 47.609375 25.390625 
L 58.015625 25.390625 
L 58.015625 17.1875 
L 47.609375 17.1875 
L 47.609375 0 
L 37.796875 0 
L 37.796875 17.1875 
L 4.890625 17.1875 
L 4.890625 26.703125 
z
" id="DejaVuSans-52"/>
       </defs>
       <use xlink:href="#DejaVuSans-48"/>
       <use x="63.623047" xlink:href="#DejaVuSans-46"/>
       <use x="95.410156" xlink:href="#DejaVuSans-52"/>
      </g>
     </g>
    </g>
    <g id="xtick_5">
     <g id="line2d_5">
      <g>
       <use style="stroke:#000000;stroke-width:0.8;" x="328.018942" xlink:href="#md46eed9177" y="191.476875"/>
      </g>
     </g>
     <g id="text_5">
      <!-- 0.6 -->
      <g transform="translate(318.477067 207.595)scale(0.12 -0.12)">
       <defs>
        <path d="M 33.015625 40.375 
Q 26.375 40.375 22.484375 35.828125 
Q 18.609375 31.296875 18.609375 23.390625 
Q 18.609375 15.53125 22.484375 10.953125 
Q 26.375 6.390625 33.015625 6.390625 
Q 39.65625 6.390625 43.53125 10.953125 
Q 47.40625 15.53125 47.40625 23.390625 
Q 47.40625 31.296875 43.53125 35.828125 
Q 39.65625 40.375 33.015625 40.375 
z
M 52.59375 71.296875 
L 52.59375 62.3125 
Q 48.875 64.0625 45.09375 64.984375 
Q 41.3125 65.921875 37.59375 65.921875 
Q 27.828125 65.921875 22.671875 59.328125 
Q 17.53125 52.734375 16.796875 39.40625 
Q 19.671875 43.65625 24.015625 45.921875 
Q 28.375 48.1875 33.59375 48.1875 
Q 44.578125 48.1875 50.953125 41.515625 
Q 57.328125 34.859375 57.328125 23.390625 
Q 57.328125 12.15625 50.6875 5.359375 
Q 44.046875 -1.421875 33.015625 -1.421875 
Q 20.359375 -1.421875 13.671875 8.265625 
Q 6.984375 17.96875 6.984375 36.375 
Q 6.984375 53.65625 15.1875 63.9375 
Q 23.390625 74.21875 37.203125 74.21875 
Q 40.921875 74.21875 44.703125 73.484375 
Q 48.484375 72.75 52.59375 71.296875 
z
" id="DejaVuSans-54"/>
       </defs>
       <use xlink:href="#DejaVuSans-48"/>
       <use x="63.623047" xlink:href="#DejaVuSans-46"/>
       <use x="95.410156" xlink:href="#DejaVuSans-54"/>
      </g>
     </g>
    </g>
    <g id="xtick_6">
     <g id="line2d_6">
      <g>
       <use style="stroke:#000000;stroke-width:0.8;" x="396.695865" xlink:href="#md46eed9177" y="191.476875"/>
      </g>
     </g>
     <g id="text_6">
      <!-- 0.8 -->
      <g transform="translate(387.15399 207.595)scale(0.12 -0.12)">
       <defs>
        <path d="M 31.78125 34.625 
Q 24.75 34.625 20.71875 30.859375 
Q 16.703125 27.09375 16.703125 20.515625 
Q 16.703125 13.921875 20.71875 10.15625 
Q 24.75 6.390625 31.78125 6.390625 
Q 38.8125 6.390625 42.859375 10.171875 
Q 46.921875 13.96875 46.921875 20.515625 
Q 46.921875 27.09375 42.890625 30.859375 
Q 38.875 34.625 31.78125 34.625 
z
M 21.921875 38.8125 
Q 15.578125 40.375 12.03125 44.71875 
Q 8.5 49.078125 8.5 55.328125 
Q 8.5 64.0625 14.71875 69.140625 
Q 20.953125 74.21875 31.78125 74.21875 
Q 42.671875 74.21875 48.875 69.140625 
Q 55.078125 64.0625 55.078125 55.328125 
Q 55.078125 49.078125 51.53125 44.71875 
Q 48 40.375 41.703125 38.8125 
Q 48.828125 37.15625 52.796875 32.3125 
Q 56.78125 27.484375 56.78125 20.515625 
Q 56.78125 9.90625 50.3125 4.234375 
Q 43.84375 -1.421875 31.78125 -1.421875 
Q 19.734375 -1.421875 13.25 4.234375 
Q 6.78125 9.90625 6.78125 20.515625 
Q 6.78125 27.484375 10.78125 32.3125 
Q 14.796875 37.15625 21.921875 38.8125 
z
M 18.3125 54.390625 
Q 18.3125 48.734375 21.84375 45.5625 
Q 25.390625 42.390625 31.78125 42.390625 
Q 38.140625 42.390625 41.71875 45.5625 
Q 45.3125 48.734375 45.3125 54.390625 
Q 45.3125 60.0625 41.71875 63.234375 
Q 38.140625 66.40625 31.78125 66.40625 
Q 25.390625 66.40625 21.84375 63.234375 
Q 18.3125 60.0625 18.3125 54.390625 
z
" id="DejaVuSans-56"/>
       </defs>
       <use xlink:href="#DejaVuSans-48"/>
       <use x="63.623047" xlink:href="#DejaVuSans-46"/>
       <use x="95.410156" xlink:href="#DejaVuSans-56"/>
      </g>
     </g>
    </g>
    <g id="xtick_7">
     <g id="line2d_7">
      <g>
       <use style="stroke:#000000;stroke-width:0.8;" x="465.372788" xlink:href="#md46eed9177" y="191.476875"/>
      </g>
     </g>
     <g id="text_7">
      <!-- 1.0 -->
      <g transform="translate(455.830913 207.595)scale(0.12 -0.12)">
       <defs>
        <path d="M 12.40625 8.296875 
L 28.515625 8.296875 
L 28.515625 63.921875 
L 10.984375 60.40625 
L 10.984375 69.390625 
L 28.421875 72.90625 
L 38.28125 72.90625 
L 38.28125 8.296875 
L 54.390625 8.296875 
L 54.390625 0 
L 12.40625 0 
z
" id="DejaVuSans-49"/>
       </defs>
       <use xlink:href="#DejaVuSans-49"/>
       <use x="63.623047" xlink:href="#DejaVuSans-46"/>
       <use x="95.410156" xlink:href="#DejaVuSans-48"/>
      </g>
     </g>
    </g>
    <g id="text_8">
     <!-- x -->
     <g transform="translate(271.184375 227.767812)scale(0.18 -0.18)">
      <defs>
       <path d="M 54.890625 54.6875 
L 35.109375 28.078125 
L 55.90625 0 
L 45.3125 0 
L 29.390625 21.484375 
L 13.484375 0 
L 2.875 0 
L 24.125 28.609375 
L 4.6875 54.6875 
L 15.28125 54.6875 
L 29.78125 35.203125 
L 44.28125 54.6875 
z
" id="DejaVuSans-120"/>
      </defs>
      <use xlink:href="#DejaVuSans-120"/>
     </g>
    </g>
   </g>
   <g id="matplotlib.axis_2">
    <g id="ytick_1">
     <g id="line2d_8">
      <defs>
       <path d="M 0 0 
L -3.5 0 
" id="mbb414fdbb5" style="stroke:#000000;stroke-width:0.8;"/>
      </defs>
      <g>
       <use style="stroke:#000000;stroke-width:0.8;" x="53.31125" xlink:href="#mbb414fdbb5" y="172.290993"/>
      </g>
     </g>
     <g id="text_9">
      <!-- −1 -->
      <g transform="translate(28.620625 176.850055)scale(0.12 -0.12)">
       <use xlink:href="#DejaVuSans-8722"/>
       <use x="83.789062" xlink:href="#DejaVuSans-49"/>
      </g>
     </g>
    </g>
    <g id="ytick_2">
     <g id="line2d_9">
      <g>
       <use style="stroke:#000000;stroke-width:0.8;" x="53.31125" xlink:href="#mbb414fdbb5" y="124.326287"/>
      </g>
     </g>
     <g id="text_10">
      <!-- 0 -->
      <g transform="translate(38.67625 128.885349)scale(0.12 -0.12)">
       <use xlink:href="#DejaVuSans-48"/>
      </g>
     </g>
    </g>
    <g id="ytick_3">
     <g id="line2d_10">
      <g>
       <use style="stroke:#000000;stroke-width:0.8;" x="53.31125" xlink:href="#mbb414fdbb5" y="76.361581"/>
      </g>
     </g>
     <g id="text_11">
      <!-- 1 -->
      <g transform="translate(38.67625 80.920643)scale(0.12 -0.12)">
       <use xlink:href="#DejaVuSans-49"/>
      </g>
     </g>
    </g>
    <g id="ytick_4">
     <g id="line2d_11">
      <g>
       <use style="stroke:#000000;stroke-width:0.8;" x="53.31125" xlink:href="#mbb414fdbb5" y="28.396875"/>
      </g>
     </g>
     <g id="text_12">
      <!-- 2 -->
      <g transform="translate(38.67625 32.955938)scale(0.12 -0.12)">
       <use xlink:href="#DejaVuSans-50"/>
      </g>
     </g>
    </g>
    <g id="text_13">
     <!-- y -->
     <g transform="translate(20.877188 115.26375)rotate(-90)scale(0.18 -0.18)">
      <defs>
       <path d="M 32.171875 -5.078125 
Q 28.375 -14.84375 24.75 -17.8125 
Q 21.140625 -20.796875 15.09375 -20.796875 
L 7.90625 -20.796875 
L 7.90625 -13.28125 
L 13.1875 -13.28125 
Q 16.890625 -13.28125 18.9375 -11.515625 
Q 21 -9.765625 23.484375 -3.21875 
L 25.09375 0.875 
L 2.984375 54.6875 
L 12.5 54.6875 
L 29.59375 11.921875 
L 46.6875 54.6875 
L 56.203125 54.6875 
z
" id="DejaVuSans-121"/>
      </defs>
      <use xlink:href="#DejaVuSans-121"/>
     </g>
    </g>
   </g>
   <g id="line2d_12">
    <path clip-path="url(#pe84c35c01d)" d="M 53.31125 176.951361 
L 58.167194 171.71389 
L 63.023138 166.605347 
L 67.879082 161.628856 
L 72.735026 156.787574 
L 77.59097 152.084685 
L 82.446914 147.523402 
L 87.302858 143.10696 
L 92.158802 138.838611 
L 97.014747 134.721622 
L 101.870691 130.759266 
L 106.726635 126.954822 
L 111.582579 123.311563 
L 116.438523 119.832752 
L 121.294467 116.521631 
L 126.150411 113.381417 
L 131.006355 110.415287 
L 135.862299 107.626371 
L 140.718243 105.017738 
L 145.574187 102.592386 
L 150.430131 100.353223 
L 155.286075 98.303056 
L 160.142019 96.44457 
L 164.997963 94.780314 
L 169.853907 93.312674 
L 174.709851 92.04386 
L 179.565795 90.975872 
L 184.42174 90.110482 
L 189.277684 89.449198 
L 194.133628 88.993243 
L 198.989572 88.743514 
L 203.845516 88.700548 
L 208.70146 88.864489 
L 213.557404 89.235043 
L 218.413348 89.811434 
L 223.269292 90.592361 
L 228.125236 91.575952 
L 232.98118 92.759704 
L 237.837124 94.14044 
L 242.693068 95.714246 
L 247.549012 97.476414 
L 252.404956 99.421387 
L 257.2609 101.542689 
L 262.116844 103.832871 
L 266.972788 106.283443 
L 271.828733 108.88481 
L 276.684677 111.626215 
L 281.540621 114.495671 
L 286.396565 117.479911 
L 291.252509 120.564326 
L 296.108453 123.732923 
L 300.964397 126.968278 
L 305.820341 130.251507 
L 310.676285 133.562237 
L 315.532229 136.878603 
L 320.388173 140.177248 
L 325.244117 143.433346 
L 330.100061 146.620649 
L 334.956005 149.711556 
L 339.811949 152.677206 
L 344.667893 155.487612 
L 349.523837 158.111825 
L 354.379781 160.518143 
L 359.235726 162.674368 
L 364.09167 164.548118 
L 368.947614 166.10719 
L 373.803558 167.320005 
L 378.659502 168.156115 
L 383.515446 168.586796 
L 388.37139 168.585742 
L 393.227334 168.129845 
L 398.083278 167.200102 
L 402.939222 165.782634 
L 407.795166 163.86985 
L 412.65111 161.461749 
L 417.507054 158.567397 
L 422.362998 155.206567 
L 427.218942 151.411581 
L 432.074886 147.229363 
L 436.93083 142.723708 
L 441.786774 137.977816 
L 446.642719 133.097076 
L 451.498663 128.21215 
L 456.354607 123.482367 
L 461.210551 119.099452 
L 466.066495 115.291618 
L 470.922439 112.328053 
L 475.778383 110.523819 
L 480.634327 110.245208 
L 485.490271 111.915575 
L 490.346215 116.021698 
L 495.202159 123.120676 
L 500.058103 133.847438 
L 504.914047 148.922868 
L 507.91125 161.415313 
" style="fill:none;stroke:#000000;stroke-linecap:square;stroke-width:1.5;"/>
   </g>
   <g id="patch_3">
    <path d="M 53.31125 191.476875 
L 53.31125 28.396875 
" style="fill:none;stroke:#000000;stroke-linecap:square;stroke-linejoin:miter;stroke-width:0.8;"/>
   </g>
   <g id="patch_4">
    <path d="M 499.71125 191.476875 
L 499.71125 28.396875 
" style="fill:none;stroke:#000000;stroke-linecap:square;stroke-linejoin:miter;stroke-width:0.8;"/>
   </g>
   <g id="patch_5">
    <path d="M 53.31125 191.476875 
L 499.71125 191.476875 
" style="fill:none;stroke:#000000;stroke-linecap:square;stroke-linejoin:miter;stroke-width:0.8;"/>
   </g>
   <g id="patch_6">
    <path d="M 53.31125 28.396875 
L 499.71125 28.396875 
" style="fill:none;stroke:#000000;stroke-linecap:square;stroke-linejoin:miter;stroke-width:0.8;"/>
   </g>
   <g id="text_14">
    <!-- Bayesian regression predictive -->
    <g transform="translate(122.778437 22.396875)scale(0.2 -0.2)">
     <defs>
      <path d="M 19.671875 34.8125 
L 19.671875 8.109375 
L 35.5 8.109375 
Q 43.453125 8.109375 47.28125 11.40625 
Q 51.125 14.703125 51.125 21.484375 
Q 51.125 28.328125 47.28125 31.5625 
Q 43.453125 34.8125 35.5 34.8125 
z
M 19.671875 64.796875 
L 19.671875 42.828125 
L 34.28125 42.828125 
Q 41.5 42.828125 45.03125 45.53125 
Q 48.578125 48.25 48.578125 53.8125 
Q 48.578125 59.328125 45.03125 62.0625 
Q 41.5 64.796875 34.28125 64.796875 
z
M 9.8125 72.90625 
L 35.015625 72.90625 
Q 46.296875 72.90625 52.390625 68.21875 
Q 58.5 63.53125 58.5 54.890625 
Q 58.5 48.1875 55.375 44.234375 
Q 52.25 40.28125 46.1875 39.3125 
Q 53.46875 37.75 57.5 32.78125 
Q 61.53125 27.828125 61.53125 20.40625 
Q 61.53125 10.640625 54.890625 5.3125 
Q 48.25 0 35.984375 0 
L 9.8125 0 
z
" id="DejaVuSans-66"/>
      <path d="M 34.28125 27.484375 
Q 23.390625 27.484375 19.1875 25 
Q 14.984375 22.515625 14.984375 16.5 
Q 14.984375 11.71875 18.140625 8.90625 
Q 21.296875 6.109375 26.703125 6.109375 
Q 34.1875 6.109375 38.703125 11.40625 
Q 43.21875 16.703125 43.21875 25.484375 
L 43.21875 27.484375 
z
M 52.203125 31.203125 
L 52.203125 0 
L 43.21875 0 
L 43.21875 8.296875 
Q 40.140625 3.328125 35.546875 0.953125 
Q 30.953125 -1.421875 24.3125 -1.421875 
Q 15.921875 -1.421875 10.953125 3.296875 
Q 6 8.015625 6 15.921875 
Q 6 25.140625 12.171875 29.828125 
Q 18.359375 34.515625 30.609375 34.515625 
L 43.21875 34.515625 
L 43.21875 35.40625 
Q 43.21875 41.609375 39.140625 45 
Q 35.0625 48.390625 27.6875 48.390625 
Q 23 48.390625 18.546875 47.265625 
Q 14.109375 46.140625 10.015625 43.890625 
L 10.015625 52.203125 
Q 14.9375 54.109375 19.578125 55.046875 
Q 24.21875 56 28.609375 56 
Q 40.484375 56 46.34375 49.84375 
Q 52.203125 43.703125 52.203125 31.203125 
z
" id="DejaVuSans-97"/>
      <path d="M 56.203125 29.59375 
L 56.203125 25.203125 
L 14.890625 25.203125 
Q 15.484375 15.921875 20.484375 11.0625 
Q 25.484375 6.203125 34.421875 6.203125 
Q 39.59375 6.203125 44.453125 7.46875 
Q 49.3125 8.734375 54.109375 11.28125 
L 54.109375 2.78125 
Q 49.265625 0.734375 44.1875 -0.34375 
Q 39.109375 -1.421875 33.890625 -1.421875 
Q 20.796875 -1.421875 13.15625 6.1875 
Q 5.515625 13.8125 5.515625 26.8125 
Q 5.515625 40.234375 12.765625 48.109375 
Q 20.015625 56 32.328125 56 
Q 43.359375 56 49.78125 48.890625 
Q 56.203125 41.796875 56.203125 29.59375 
z
M 47.21875 32.234375 
Q 47.125 39.59375 43.09375 43.984375 
Q 39.0625 48.390625 32.421875 48.390625 
Q 24.90625 48.390625 20.390625 44.140625 
Q 15.875 39.890625 15.1875 32.171875 
z
" id="DejaVuSans-101"/>
      <path d="M 44.28125 53.078125 
L 44.28125 44.578125 
Q 40.484375 46.53125 36.375 47.5 
Q 32.28125 48.484375 27.875 48.484375 
Q 21.1875 48.484375 17.84375 46.4375 
Q 14.5 44.390625 14.5 40.28125 
Q 14.5 37.15625 16.890625 35.375 
Q 19.28125 33.59375 26.515625 31.984375 
L 29.59375 31.296875 
Q 39.15625 29.25 43.1875 25.515625 
Q 47.21875 21.78125 47.21875 15.09375 
Q 47.21875 7.46875 41.1875 3.015625 
Q 35.15625 -1.421875 24.609375 -1.421875 
Q 20.21875 -1.421875 15.453125 -0.5625 
Q 10.6875 0.296875 5.421875 2 
L 5.421875 11.28125 
Q 10.40625 8.6875 15.234375 7.390625 
Q 20.0625 6.109375 24.8125 6.109375 
Q 31.15625 6.109375 34.5625 8.28125 
Q 37.984375 10.453125 37.984375 14.40625 
Q 37.984375 18.0625 35.515625 20.015625 
Q 33.0625 21.96875 24.703125 23.78125 
L 21.578125 24.515625 
Q 13.234375 26.265625 9.515625 29.90625 
Q 5.8125 33.546875 5.8125 39.890625 
Q 5.8125 47.609375 11.28125 51.796875 
Q 16.75 56 26.8125 56 
Q 31.78125 56 36.171875 55.265625 
Q 40.578125 54.546875 44.28125 53.078125 
z
" id="DejaVuSans-115"/>
      <path d="M 9.421875 54.6875 
L 18.40625 54.6875 
L 18.40625 0 
L 9.421875 0 
z
M 9.421875 75.984375 
L 18.40625 75.984375 
L 18.40625 64.59375 
L 9.421875 64.59375 
z
" id="DejaVuSans-105"/>
      <path d="M 54.890625 33.015625 
L 54.890625 0 
L 45.90625 0 
L 45.90625 32.71875 
Q 45.90625 40.484375 42.875 44.328125 
Q 39.84375 48.1875 33.796875 48.1875 
Q 26.515625 48.1875 22.3125 43.546875 
Q 18.109375 38.921875 18.109375 30.90625 
L 18.109375 0 
L 9.078125 0 
L 9.078125 54.6875 
L 18.109375 54.6875 
L 18.109375 46.1875 
Q 21.34375 51.125 25.703125 53.5625 
Q 30.078125 56 35.796875 56 
Q 45.21875 56 50.046875 50.171875 
Q 54.890625 44.34375 54.890625 33.015625 
z
" id="DejaVuSans-110"/>
      <path id="DejaVuSans-32"/>
      <path d="M 41.109375 46.296875 
Q 39.59375 47.171875 37.8125 47.578125 
Q 36.03125 48 33.890625 48 
Q 26.265625 48 22.1875 43.046875 
Q 18.109375 38.09375 18.109375 28.8125 
L 18.109375 0 
L 9.078125 0 
L 9.078125 54.6875 
L 18.109375 54.6875 
L 18.109375 46.1875 
Q 20.953125 51.171875 25.484375 53.578125 
Q 30.03125 56 36.53125 56 
Q 37.453125 56 38.578125 55.875 
Q 39.703125 55.765625 41.0625 55.515625 
z
" id="DejaVuSans-114"/>
      <path d="M 45.40625 27.984375 
Q 45.40625 37.75 41.375 43.109375 
Q 37.359375 48.484375 30.078125 48.484375 
Q 22.859375 48.484375 18.828125 43.109375 
Q 14.796875 37.75 14.796875 27.984375 
Q 14.796875 18.265625 18.828125 12.890625 
Q 22.859375 7.515625 30.078125 7.515625 
Q 37.359375 7.515625 41.375 12.890625 
Q 45.40625 18.265625 45.40625 27.984375 
z
M 54.390625 6.78125 
Q 54.390625 -7.171875 48.1875 -13.984375 
Q 42 -20.796875 29.203125 -20.796875 
Q 24.46875 -20.796875 20.265625 -20.09375 
Q 16.0625 -19.390625 12.109375 -17.921875 
L 12.109375 -9.1875 
Q 16.0625 -11.328125 19.921875 -12.34375 
Q 23.78125 -13.375 27.78125 -13.375 
Q 36.625 -13.375 41.015625 -8.765625 
Q 45.40625 -4.15625 45.40625 5.171875 
L 45.40625 9.625 
Q 42.625 4.78125 38.28125 2.390625 
Q 33.9375 0 27.875 0 
Q 17.828125 0 11.671875 7.65625 
Q 5.515625 15.328125 5.515625 27.984375 
Q 5.515625 40.671875 11.671875 48.328125 
Q 17.828125 56 27.875 56 
Q 33.9375 56 38.28125 53.609375 
Q 42.625 51.21875 45.40625 46.390625 
L 45.40625 54.6875 
L 54.390625 54.6875 
z
" id="DejaVuSans-103"/>
      <path d="M 30.609375 48.390625 
Q 23.390625 48.390625 19.1875 42.75 
Q 14.984375 37.109375 14.984375 27.296875 
Q 14.984375 17.484375 19.15625 11.84375 
Q 23.34375 6.203125 30.609375 6.203125 
Q 37.796875 6.203125 41.984375 11.859375 
Q 46.1875 17.53125 46.1875 27.296875 
Q 46.1875 37.015625 41.984375 42.703125 
Q 37.796875 48.390625 30.609375 48.390625 
z
M 30.609375 56 
Q 42.328125 56 49.015625 48.375 
Q 55.71875 40.765625 55.71875 27.296875 
Q 55.71875 13.875 49.015625 6.21875 
Q 42.328125 -1.421875 30.609375 -1.421875 
Q 18.84375 -1.421875 12.171875 6.21875 
Q 5.515625 13.875 5.515625 27.296875 
Q 5.515625 40.765625 12.171875 48.375 
Q 18.84375 56 30.609375 56 
z
" id="DejaVuSans-111"/>
      <path d="M 18.109375 8.203125 
L 18.109375 -20.796875 
L 9.078125 -20.796875 
L 9.078125 54.6875 
L 18.109375 54.6875 
L 18.109375 46.390625 
Q 20.953125 51.265625 25.265625 53.625 
Q 29.59375 56 35.59375 56 
Q 45.5625 56 51.78125 48.09375 
Q 58.015625 40.1875 58.015625 27.296875 
Q 58.015625 14.40625 51.78125 6.484375 
Q 45.5625 -1.421875 35.59375 -1.421875 
Q 29.59375 -1.421875 25.265625 0.953125 
Q 20.953125 3.328125 18.109375 8.203125 
z
M 48.6875 27.296875 
Q 48.6875 37.203125 44.609375 42.84375 
Q 40.53125 48.484375 33.40625 48.484375 
Q 26.265625 48.484375 22.1875 42.84375 
Q 18.109375 37.203125 18.109375 27.296875 
Q 18.109375 17.390625 22.1875 11.75 
Q 26.265625 6.109375 33.40625 6.109375 
Q 40.53125 6.109375 44.609375 11.75 
Q 48.6875 17.390625 48.6875 27.296875 
z
" id="DejaVuSans-112"/>
      <path d="M 45.40625 46.390625 
L 45.40625 75.984375 
L 54.390625 75.984375 
L 54.390625 0 
L 45.40625 0 
L 45.40625 8.203125 
Q 42.578125 3.328125 38.25 0.953125 
Q 33.9375 -1.421875 27.875 -1.421875 
Q 17.96875 -1.421875 11.734375 6.484375 
Q 5.515625 14.40625 5.515625 27.296875 
Q 5.515625 40.1875 11.734375 48.09375 
Q 17.96875 56 27.875 56 
Q 33.9375 56 38.25 53.625 
Q 42.578125 51.265625 45.40625 46.390625 
z
M 14.796875 27.296875 
Q 14.796875 17.390625 18.875 11.75 
Q 22.953125 6.109375 30.078125 6.109375 
Q 37.203125 6.109375 41.296875 11.75 
Q 45.40625 17.390625 45.40625 27.296875 
Q 45.40625 37.203125 41.296875 42.84375 
Q 37.203125 48.484375 30.078125 48.484375 
Q 22.953125 48.484375 18.875 42.84375 
Q 14.796875 37.203125 14.796875 27.296875 
z
" id="DejaVuSans-100"/>
      <path d="M 48.78125 52.59375 
L 48.78125 44.1875 
Q 44.96875 46.296875 41.140625 47.34375 
Q 37.3125 48.390625 33.40625 48.390625 
Q 24.65625 48.390625 19.8125 42.84375 
Q 14.984375 37.3125 14.984375 27.296875 
Q 14.984375 17.28125 19.8125 11.734375 
Q 24.65625 6.203125 33.40625 6.203125 
Q 37.3125 6.203125 41.140625 7.25 
Q 44.96875 8.296875 48.78125 10.40625 
L 48.78125 2.09375 
Q 45.015625 0.34375 40.984375 -0.53125 
Q 36.96875 -1.421875 32.421875 -1.421875 
Q 20.0625 -1.421875 12.78125 6.34375 
Q 5.515625 14.109375 5.515625 27.296875 
Q 5.515625 40.671875 12.859375 48.328125 
Q 20.21875 56 33.015625 56 
Q 37.15625 56 41.109375 55.140625 
Q 45.0625 54.296875 48.78125 52.59375 
z
" id="DejaVuSans-99"/>
      <path d="M 18.3125 70.21875 
L 18.3125 54.6875 
L 36.8125 54.6875 
L 36.8125 47.703125 
L 18.3125 47.703125 
L 18.3125 18.015625 
Q 18.3125 11.328125 20.140625 9.421875 
Q 21.96875 7.515625 27.59375 7.515625 
L 36.8125 7.515625 
L 36.8125 0 
L 27.59375 0 
Q 17.1875 0 13.234375 3.875 
Q 9.28125 7.765625 9.28125 18.015625 
L 9.28125 47.703125 
L 2.6875 47.703125 
L 2.6875 54.6875 
L 9.28125 54.6875 
L 9.28125 70.21875 
z
" id="DejaVuSans-116"/>
      <path d="M 2.984375 54.6875 
L 12.5 54.6875 
L 29.59375 8.796875 
L 46.6875 54.6875 
L 56.203125 54.6875 
L 35.6875 0 
L 23.484375 0 
z
" id="DejaVuSans-118"/>
     </defs>
     <use xlink:href="#DejaVuSans-66"/>
     <use x="68.603516" xlink:href="#DejaVuSans-97"/>
     <use x="129.882812" xlink:href="#DejaVuSans-121"/>
     <use x="189.0625" xlink:href="#DejaVuSans-101"/>
     <use x="250.585938" xlink:href="#DejaVuSans-115"/>
     <use x="302.685547" xlink:href="#DejaVuSans-105"/>
     <use x="330.46875" xlink:href="#DejaVuSans-97"/>
     <use x="391.748047" xlink:href="#DejaVuSans-110"/>
     <use x="455.126953" xlink:href="#DejaVuSans-32"/>
     <use x="486.914062" xlink:href="#DejaVuSans-114"/>
     <use x="525.777344" xlink:href="#DejaVuSans-101"/>
     <use x="587.300781" xlink:href="#DejaVuSans-103"/>
     <use x="650.777344" xlink:href="#DejaVuSans-114"/>
     <use x="689.640625" xlink:href="#DejaVuSans-101"/>
     <use x="751.164062" xlink:href="#DejaVuSans-115"/>
     <use x="803.263672" xlink:href="#DejaVuSans-115"/>
     <use x="855.363281" xlink:href="#DejaVuSans-105"/>
     <use x="883.146484" xlink:href="#DejaVuSans-111"/>
     <use x="944.328125" xlink:href="#DejaVuSans-110"/>
     <use x="1007.707031" xlink:href="#DejaVuSans-32"/>
     <use x="1039.494141" xlink:href="#DejaVuSans-112"/>
     <use x="1102.970703" xlink:href="#DejaVuSans-114"/>
     <use x="1141.833984" xlink:href="#DejaVuSans-101"/>
     <use x="1203.357422" xlink:href="#DejaVuSans-100"/>
     <use x="1266.833984" xlink:href="#DejaVuSans-105"/>
     <use x="1294.617188" xlink:href="#DejaVuSans-99"/>
     <use x="1349.597656" xlink:href="#DejaVuSans-116"/>
     <use x="1388.806641" xlink:href="#DejaVuSans-105"/>
     <use x="1416.589844" xlink:href="#DejaVuSans-118"/>
     <use x="1475.769531" xlink:href="#DejaVuSans-101"/>
    </g>
   </g>
  </g>
 </g>
 <defs>
  <clipPath id="pe84c35c01d">
   <rect height="163.08" width="446.4" x="53.31125" y="28.396875"/>
  </clipPath>
 </defs>
</svg>
