<?xml version="1.0" encoding="utf-8" standalone="no"?>
<!DOCTYPE svg PUBLIC "-//W3C//DTD SVG 1.1//EN"
  "http://www.w3.org/Graphics/SVG/1.1/DTD/svg11.dtd">
<!-- Created with matplotlib (http://matplotlib.org/) -->
<svg height="640.472812pt" version="1.1" viewBox="0 0 652.48625 640.472812" width="652.48625pt" xmlns="http://www.w3.org/2000/svg" xmlns:xlink="http://www.w3.org/1999/xlink">
 <defs>
  <style type="text/css">
*{stroke-linecap:butt;stroke-linejoin:round;}
  </style>
 </defs>
 <g id="figure_1">
  <g id="patch_1">
   <path d="M 0 640.472812 
L 652.48625 640.472812 
L 652.48625 0 
L 0 0 
z
" style="fill:none;"/>
  </g>
  <g id="axes_1">
   <g id="patch_2">
    <path d="M 43.339375 200.859062 
L 214.793542 200.859062 
L 214.793542 11.759062 
L 43.339375 11.759062 
z
" style="fill:#ffffff;"/>
   </g>
   <g id="PathCollection_1">
    <defs>
     <path d="M -3 3 
L 3 -3 
M -3 -3 
L 3 3 
" id="m009ced2712" style="stroke:#ff0000;stroke-width:1.5;"/>
    </defs>
    <g clip-path="url(#p22912b0626)">
     <use style="fill:#ff0000;stroke:#ff0000;stroke-width:1.5;" x="149.115279" xlink:href="#m009ced2712" y="145.64282"/>
     <use style="fill:#ff0000;stroke:#ff0000;stroke-width:1.5;" x="79.410342" xlink:href="#m009ced2712" y="49.471682"/>
     <use style="fill:#ff0000;stroke:#ff0000;stroke-width:1.5;" x="58.278056" xlink:href="#m009ced2712" y="76.304382"/>
     <use style="fill:#ff0000;stroke:#ff0000;stroke-width:1.5;" x="46.560965" xlink:href="#m009ced2712" y="107.116478"/>
     <use style="fill:#ff0000;stroke:#ff0000;stroke-width:1.5;" x="202.036775" xlink:href="#m009ced2712" y="119.763642"/>
     <use style="fill:#ff0000;stroke:#ff0000;stroke-width:1.5;" x="46.805903" xlink:href="#m009ced2712" y="90.200483"/>
     <use style="fill:#ff0000;stroke:#ff0000;stroke-width:1.5;" x="97.42088" xlink:href="#m009ced2712" y="60.468767"/>
     <use style="fill:#ff0000;stroke:#ff0000;stroke-width:1.5;" x="53.665283" xlink:href="#m009ced2712" y="66.807735"/>
     <use style="fill:#ff0000;stroke:#ff0000;stroke-width:1.5;" x="208.563371" xlink:href="#m009ced2712" y="114.350023"/>
     <use style="fill:#ff0000;stroke:#ff0000;stroke-width:1.5;" x="115.976756" xlink:href="#m009ced2712" y="85.049459"/>
    </g>
   </g>
   <g id="matplotlib.axis_1">
    <g id="ytick_1">
     <g id="line2d_1">
      <defs>
       <path d="M 0 0 
L -3.5 0 
" id="mb5ed94cc37" style="stroke:#000000;stroke-width:0.8;"/>
      </defs>
      <g>
       <use style="stroke:#000000;stroke-width:0.8;" x="43.339375" xlink:href="#mb5ed94cc37" y="200.859062"/>
      </g>
     </g>
     <g id="text_1">
      <!-- −1.5 -->
      <defs>
       <path d="M 10.59375 35.5 
L 73.1875 35.5 
L 73.1875 27.203125 
L 10.59375 27.203125 
z
" id="DejaVuSans-2212"/>
       <path d="M 12.40625 8.296875 
L 28.515625 8.296875 
L 28.515625 63.921875 
L 10.984375 60.40625 
L 10.984375 69.390625 
L 28.421875 72.90625 
L 38.28125 72.90625 
L 38.28125 8.296875 
L 54.390625 8.296875 
L 54.390625 0 
L 12.40625 0 
z
" id="DejaVuSans-31"/>
       <path d="M 10.6875 12.40625 
L 21 12.40625 
L 21 0 
L 10.6875 0 
z
" id="DejaVuSans-2e"/>
       <path d="M 10.796875 72.90625 
L 49.515625 72.90625 
L 49.515625 64.59375 
L 19.828125 64.59375 
L 19.828125 46.734375 
Q 21.96875 47.46875 24.109375 47.828125 
Q 26.265625 48.1875 28.421875 48.1875 
Q 40.625 48.1875 47.75 41.5 
Q 54.890625 34.8125 54.890625 23.390625 
Q 54.890625 11.625 47.5625 5.09375 
Q 40.234375 -1.421875 26.90625 -1.421875 
Q 22.3125 -1.421875 17.546875 -0.640625 
Q 12.796875 0.140625 7.71875 1.703125 
L 7.71875 11.625 
Q 12.109375 9.234375 16.796875 8.0625 
Q 21.484375 6.890625 26.703125 6.890625 
Q 35.15625 6.890625 40.078125 11.328125 
Q 45.015625 15.765625 45.015625 23.390625 
Q 45.015625 31 40.078125 35.4375 
Q 35.15625 39.890625 26.703125 39.890625 
Q 22.75 39.890625 18.8125 39.015625 
Q 14.890625 38.140625 10.796875 36.28125 
z
" id="DejaVuSans-35"/>
      </defs>
      <g transform="translate(7.2 205.418125)scale(0.12 -0.12)">
       <use xlink:href="#DejaVuSans-2212"/>
       <use x="83.789062" xlink:href="#DejaVuSans-31"/>
       <use x="147.412109" xlink:href="#DejaVuSans-2e"/>
       <use x="179.199219" xlink:href="#DejaVuSans-35"/>
      </g>
     </g>
    </g>
    <g id="ytick_2">
     <g id="line2d_2">
      <g>
       <use style="stroke:#000000;stroke-width:0.8;" x="43.339375" xlink:href="#mb5ed94cc37" y="169.342396"/>
      </g>
     </g>
     <g id="text_2">
      <!-- −1.0 -->
      <defs>
       <path d="M 31.78125 66.40625 
Q 24.171875 66.40625 20.328125 58.90625 
Q 16.5 51.421875 16.5 36.375 
Q 16.5 21.390625 20.328125 13.890625 
Q 24.171875 6.390625 31.78125 6.390625 
Q 39.453125 6.390625 43.28125 13.890625 
Q 47.125 21.390625 47.125 36.375 
Q 47.125 51.421875 43.28125 58.90625 
Q 39.453125 66.40625 31.78125 66.40625 
z
M 31.78125 74.21875 
Q 44.046875 74.21875 50.515625 64.515625 
Q 56.984375 54.828125 56.984375 36.375 
Q 56.984375 17.96875 50.515625 8.265625 
Q 44.046875 -1.421875 31.78125 -1.421875 
Q 19.53125 -1.421875 13.0625 8.265625 
Q 6.59375 17.96875 6.59375 36.375 
Q 6.59375 54.828125 13.0625 64.515625 
Q 19.53125 74.21875 31.78125 74.21875 
z
" id="DejaVuSans-30"/>
      </defs>
      <g transform="translate(7.2 173.901458)scale(0.12 -0.12)">
       <use xlink:href="#DejaVuSans-2212"/>
       <use x="83.789062" xlink:href="#DejaVuSans-31"/>
       <use x="147.412109" xlink:href="#DejaVuSans-2e"/>
       <use x="179.199219" xlink:href="#DejaVuSans-30"/>
      </g>
     </g>
    </g>
    <g id="ytick_3">
     <g id="line2d_3">
      <g>
       <use style="stroke:#000000;stroke-width:0.8;" x="43.339375" xlink:href="#mb5ed94cc37" y="137.825729"/>
      </g>
     </g>
     <g id="text_3">
      <!-- −0.5 -->
      <g transform="translate(7.2 142.384792)scale(0.12 -0.12)">
       <use xlink:href="#DejaVuSans-2212"/>
       <use x="83.789062" xlink:href="#DejaVuSans-30"/>
       <use x="147.412109" xlink:href="#DejaVuSans-2e"/>
       <use x="179.199219" xlink:href="#DejaVuSans-35"/>
      </g>
     </g>
    </g>
    <g id="ytick_4">
     <g id="line2d_4">
      <g>
       <use style="stroke:#000000;stroke-width:0.8;" x="43.339375" xlink:href="#mb5ed94cc37" y="106.309062"/>
      </g>
     </g>
     <g id="text_4">
      <!-- 0.0 -->
      <g transform="translate(17.255625 110.868125)scale(0.12 -0.12)">
       <use xlink:href="#DejaVuSans-30"/>
       <use x="63.623047" xlink:href="#DejaVuSans-2e"/>
       <use x="95.410156" xlink:href="#DejaVuSans-30"/>
      </g>
     </g>
    </g>
    <g id="ytick_5">
     <g id="line2d_5">
      <g>
       <use style="stroke:#000000;stroke-width:0.8;" x="43.339375" xlink:href="#mb5ed94cc37" y="74.792396"/>
      </g>
     </g>
     <g id="text_5">
      <!-- 0.5 -->
      <g transform="translate(17.255625 79.351458)scale(0.12 -0.12)">
       <use xlink:href="#DejaVuSans-30"/>
       <use x="63.623047" xlink:href="#DejaVuSans-2e"/>
       <use x="95.410156" xlink:href="#DejaVuSans-35"/>
      </g>
     </g>
    </g>
    <g id="ytick_6">
     <g id="line2d_6">
      <g>
       <use style="stroke:#000000;stroke-width:0.8;" x="43.339375" xlink:href="#mb5ed94cc37" y="43.275729"/>
      </g>
     </g>
     <g id="text_6">
      <!-- 1.0 -->
      <g transform="translate(17.255625 47.834792)scale(0.12 -0.12)">
       <use xlink:href="#DejaVuSans-31"/>
       <use x="63.623047" xlink:href="#DejaVuSans-2e"/>
       <use x="95.410156" xlink:href="#DejaVuSans-30"/>
      </g>
     </g>
    </g>
    <g id="ytick_7">
     <g id="line2d_7">
      <g>
       <use style="stroke:#000000;stroke-width:0.8;" x="43.339375" xlink:href="#mb5ed94cc37" y="11.759062"/>
      </g>
     </g>
     <g id="text_7">
      <!-- 1.5 -->
      <g transform="translate(17.255625 16.318125)scale(0.12 -0.12)">
       <use xlink:href="#DejaVuSans-31"/>
       <use x="63.623047" xlink:href="#DejaVuSans-2e"/>
       <use x="95.410156" xlink:href="#DejaVuSans-35"/>
      </g>
     </g>
    </g>
   </g>
   <g id="line2d_8">
    <path clip-path="url(#p22912b0626)" d="M 9.048542 63.848357 
L 11.473146 64.54187 
L 13.89775 65.235383 
L 16.322355 65.928896 
L 18.746959 66.622409 
L 21.171564 67.315922 
L 23.596168 68.009434 
L 26.020772 68.702947 
L 28.445377 69.39646 
L 30.869981 70.089973 
L 33.294585 70.783486 
L 35.71919 71.476999 
L 38.143794 72.170511 
L 40.568399 72.864024 
L 42.993003 73.557537 
L 45.417607 74.25105 
L 47.842212 74.944563 
L 50.266816 75.638076 
L 52.69142 76.331588 
L 55.116025 77.025101 
L 57.540629 77.718614 
L 59.965234 78.412127 
L 62.389838 79.10564 
L 64.814442 79.799153 
L 67.239047 80.492665 
L 69.663651 81.186178 
L 72.088255 81.879691 
L 74.51286 82.573204 
L 76.937464 83.266717 
L 79.362069 83.96023 
L 81.786673 84.653742 
L 84.211277 85.347255 
L 86.635882 86.040768 
L 89.060486 86.734281 
L 91.48509 87.427794 
L 93.909695 88.121307 
L 96.334299 88.814819 
L 98.758904 89.508332 
L 101.183508 90.201845 
L 103.608112 90.895358 
L 106.032717 91.588871 
L 108.457321 92.282384 
L 110.881926 92.975896 
L 113.30653 93.669409 
L 115.731134 94.362922 
L 118.155739 95.056435 
L 120.580343 95.749948 
L 123.004947 96.443461 
L 125.429552 97.136973 
L 127.854156 97.830486 
L 130.278761 98.523999 
L 132.703365 99.217512 
L 135.127969 99.911025 
L 137.552574 100.604538 
L 139.977178 101.29805 
L 142.401782 101.991563 
L 144.826387 102.685076 
L 147.250991 103.378589 
L 149.675596 104.072102 
L 152.1002 104.765615 
L 154.524804 105.459127 
L 156.949409 106.15264 
L 159.374013 106.846153 
L 161.798617 107.539666 
L 164.223222 108.233179 
L 166.647826 108.926692 
L 169.072431 109.620204 
L 171.497035 110.313717 
L 173.921639 111.00723 
L 176.346244 111.700743 
L 178.770848 112.394256 
L 181.195452 113.087769 
L 183.620057 113.781281 
L 186.044661 114.474794 
L 188.469266 115.168307 
L 190.89387 115.86182 
L 193.318474 116.555333 
L 195.743079 117.248845 
L 198.167683 117.942358 
L 200.592287 118.635871 
L 203.016892 119.329384 
L 205.441496 120.022897 
L 207.866101 120.71641 
L 210.290705 121.409922 
L 212.715309 122.103435 
L 215.139914 122.796948 
L 217.564518 123.490461 
L 219.989122 124.183974 
L 222.413727 124.877487 
L 224.838331 125.570999 
L 227.262936 126.264512 
L 229.68754 126.958025 
L 232.112144 127.651538 
L 234.536749 128.345051 
L 236.961353 129.038564 
L 239.385957 129.732076 
L 241.810562 130.425589 
L 244.235166 131.119102 
L 246.659771 131.812615 
L 249.084375 132.506128 
" style="fill:none;stroke:#000000;stroke-linecap:square;stroke-width:1.5;"/>
   </g>
   <g id="patch_3">
    <path d="M 43.339375 200.859062 
L 43.339375 11.759062 
" style="fill:none;stroke:#000000;stroke-linecap:square;stroke-linejoin:miter;stroke-width:0.8;"/>
   </g>
   <g id="patch_4">
    <path d="M 214.793542 200.859062 
L 214.793542 11.759062 
" style="fill:none;stroke:#000000;stroke-linecap:square;stroke-linejoin:miter;stroke-width:0.8;"/>
   </g>
   <g id="patch_5">
    <path d="M 43.339375 200.859062 
L 214.793542 200.859062 
" style="fill:none;stroke:#000000;stroke-linecap:square;stroke-linejoin:miter;stroke-width:0.8;"/>
   </g>
   <g id="patch_6">
    <path d="M 43.339375 11.759062 
L 214.793542 11.759062 
" style="fill:none;stroke:#000000;stroke-linecap:square;stroke-linejoin:miter;stroke-width:0.8;"/>
   </g>
   <g id="text_8">
    <!-- D = 1 -->
    <defs>
     <path d="M 19.671875 64.796875 
L 19.671875 8.109375 
L 31.59375 8.109375 
Q 46.6875 8.109375 53.6875 14.9375 
Q 60.6875 21.78125 60.6875 36.53125 
Q 60.6875 51.171875 53.6875 57.984375 
Q 46.6875 64.796875 31.59375 64.796875 
z
M 9.8125 72.90625 
L 30.078125 72.90625 
Q 51.265625 72.90625 61.171875 64.09375 
Q 71.09375 55.28125 71.09375 36.53125 
Q 71.09375 17.671875 61.125 8.828125 
Q 51.171875 0 30.078125 0 
L 9.8125 0 
z
" id="DejaVuSans-44"/>
     <path id="DejaVuSans-20"/>
     <path d="M 10.59375 45.40625 
L 73.1875 45.40625 
L 73.1875 37.203125 
L 10.59375 37.203125 
z
M 10.59375 25.484375 
L 73.1875 25.484375 
L 73.1875 17.1875 
L 10.59375 17.1875 
z
" id="DejaVuSans-3d"/>
    </defs>
    <g transform="translate(51.644792 192.060104)scale(0.12 -0.12)">
     <use xlink:href="#DejaVuSans-44"/>
     <use x="77.001953" xlink:href="#DejaVuSans-20"/>
     <use x="108.789062" xlink:href="#DejaVuSans-3d"/>
     <use x="192.578125" xlink:href="#DejaVuSans-20"/>
     <use x="224.365234" xlink:href="#DejaVuSans-31"/>
    </g>
   </g>
  </g>
  <g id="axes_2">
   <g id="patch_7">
    <path d="M 251.906042 200.859062 
L 423.360208 200.859062 
L 423.360208 11.759062 
L 251.906042 11.759062 
z
" style="fill:#ffffff;"/>
   </g>
   <g id="PathCollection_2">
    <g clip-path="url(#pe079a3274a)">
     <use style="fill:#ff0000;stroke:#ff0000;stroke-width:1.5;" x="357.681946" xlink:href="#m009ced2712" y="145.64282"/>
     <use style="fill:#ff0000;stroke:#ff0000;stroke-width:1.5;" x="287.977008" xlink:href="#m009ced2712" y="49.471682"/>
     <use style="fill:#ff0000;stroke:#ff0000;stroke-width:1.5;" x="266.844723" xlink:href="#m009ced2712" y="76.304382"/>
     <use style="fill:#ff0000;stroke:#ff0000;stroke-width:1.5;" x="255.127631" xlink:href="#m009ced2712" y="107.116478"/>
     <use style="fill:#ff0000;stroke:#ff0000;stroke-width:1.5;" x="410.603442" xlink:href="#m009ced2712" y="119.763642"/>
     <use style="fill:#ff0000;stroke:#ff0000;stroke-width:1.5;" x="255.37257" xlink:href="#m009ced2712" y="90.200483"/>
     <use style="fill:#ff0000;stroke:#ff0000;stroke-width:1.5;" x="305.987547" xlink:href="#m009ced2712" y="60.468767"/>
     <use style="fill:#ff0000;stroke:#ff0000;stroke-width:1.5;" x="262.23195" xlink:href="#m009ced2712" y="66.807735"/>
     <use style="fill:#ff0000;stroke:#ff0000;stroke-width:1.5;" x="417.130037" xlink:href="#m009ced2712" y="114.350023"/>
     <use style="fill:#ff0000;stroke:#ff0000;stroke-width:1.5;" x="324.543422" xlink:href="#m009ced2712" y="85.049459"/>
    </g>
   </g>
   <g id="line2d_9">
    <path clip-path="url(#pe079a3274a)" d="M 217.615208 83.174927 
L 220.039813 82.760342 
L 222.464417 82.36902 
L 224.889021 82.000962 
L 227.313626 81.656165 
L 229.73823 81.334632 
L 232.162835 81.036361 
L 234.587439 80.761353 
L 237.012043 80.509608 
L 239.436648 80.281126 
L 241.861252 80.075906 
L 244.285856 79.893949 
L 246.710461 79.735255 
L 249.135065 79.599824 
L 251.55967 79.487655 
L 253.984274 79.398749 
L 256.408878 79.333106 
L 258.833483 79.290726 
L 261.258087 79.271608 
L 263.682691 79.275753 
L 266.107296 79.303161 
L 268.5319 79.353832 
L 270.956505 79.427765 
L 273.381109 79.524961 
L 275.805713 79.64542 
L 278.230318 79.789142 
L 280.654922 79.956126 
L 283.079527 80.146373 
L 285.504131 80.359883 
L 287.928735 80.596656 
L 290.35334 80.856691 
L 292.777944 81.139989 
L 295.202548 81.44655 
L 297.627153 81.776374 
L 300.051757 82.12946 
L 302.476362 82.505809 
L 304.900966 82.905421 
L 307.32557 83.328296 
L 309.750175 83.774433 
L 312.174779 84.243833 
L 314.599383 84.736496 
L 317.023988 85.252422 
L 319.448592 85.79161 
L 321.873197 86.354061 
L 324.297801 86.939775 
L 326.722405 87.548752 
L 329.14701 88.180991 
L 331.571614 88.836493 
L 333.996218 89.515258 
L 336.420823 90.217286 
L 338.845427 90.942576 
L 341.270032 91.691129 
L 343.694636 92.462945 
L 346.11924 93.258024 
L 348.543845 94.076365 
L 350.968449 94.917969 
L 353.393053 95.782836 
L 355.817658 96.670966 
L 358.242262 97.582358 
L 360.666867 98.517013 
L 363.091471 99.474931 
L 365.516075 100.456112 
L 367.94068 101.460555 
L 370.365284 102.488261 
L 372.789888 103.53923 
L 375.214493 104.613462 
L 377.639097 105.710956 
L 380.063702 106.831714 
L 382.488306 107.975733 
L 384.91291 109.143016 
L 387.337515 110.333561 
L 389.762119 111.54737 
L 392.186723 112.784441 
L 394.611328 114.044774 
L 397.035932 115.328371 
L 399.460537 116.63523 
L 401.885141 117.965352 
L 404.309745 119.318736 
L 406.73435 120.695384 
L 409.158954 122.095294 
L 411.583559 123.518467 
L 414.008163 124.964902 
L 416.432767 126.434601 
L 418.857372 127.927562 
L 421.281976 129.443786 
L 423.70658 130.983273 
L 426.131185 132.546022 
L 428.555789 134.132034 
L 430.980394 135.741309 
L 433.404998 137.373847 
L 435.829602 139.029647 
L 438.254207 140.70871 
L 440.678811 142.411036 
L 443.103415 144.136625 
L 445.52802 145.885476 
L 447.952624 147.657591 
L 450.377229 149.452968 
L 452.801833 151.271607 
L 455.226437 153.11351 
L 457.651042 154.978675 
" style="fill:none;stroke:#000000;stroke-linecap:square;stroke-width:1.5;"/>
   </g>
   <g id="patch_8">
    <path d="M 251.906042 200.859062 
L 251.906042 11.759062 
" style="fill:none;stroke:#000000;stroke-linecap:square;stroke-linejoin:miter;stroke-width:0.8;"/>
   </g>
   <g id="patch_9">
    <path d="M 423.360208 200.859062 
L 423.360208 11.759062 
" style="fill:none;stroke:#000000;stroke-linecap:square;stroke-linejoin:miter;stroke-width:0.8;"/>
   </g>
   <g id="patch_10">
    <path d="M 251.906042 200.859062 
L 423.360208 200.859062 
" style="fill:none;stroke:#000000;stroke-linecap:square;stroke-linejoin:miter;stroke-width:0.8;"/>
   </g>
   <g id="patch_11">
    <path d="M 251.906042 11.759062 
L 423.360208 11.759062 
" style="fill:none;stroke:#000000;stroke-linecap:square;stroke-linejoin:miter;stroke-width:0.8;"/>
   </g>
   <g id="text_9">
    <!-- D = 2 -->
    <defs>
     <path d="M 19.1875 8.296875 
L 53.609375 8.296875 
L 53.609375 0 
L 7.328125 0 
L 7.328125 8.296875 
Q 12.9375 14.109375 22.625 23.890625 
Q 32.328125 33.6875 34.8125 36.53125 
Q 39.546875 41.84375 41.421875 45.53125 
Q 43.3125 49.21875 43.3125 52.78125 
Q 43.3125 58.59375 39.234375 62.25 
Q 35.15625 65.921875 28.609375 65.921875 
Q 23.96875 65.921875 18.8125 64.3125 
Q 13.671875 62.703125 7.8125 59.421875 
L 7.8125 69.390625 
Q 13.765625 71.78125 18.9375 73 
Q 24.125 74.21875 28.421875 74.21875 
Q 39.75 74.21875 46.484375 68.546875 
Q 53.21875 62.890625 53.21875 53.421875 
Q 53.21875 48.921875 51.53125 44.890625 
Q 49.859375 40.875 45.40625 35.40625 
Q 44.1875 33.984375 37.640625 27.21875 
Q 31.109375 20.453125 19.1875 8.296875 
z
" id="DejaVuSans-32"/>
    </defs>
    <g transform="translate(260.211458 192.060104)scale(0.12 -0.12)">
     <use xlink:href="#DejaVuSans-44"/>
     <use x="77.001953" xlink:href="#DejaVuSans-20"/>
     <use x="108.789062" xlink:href="#DejaVuSans-3d"/>
     <use x="192.578125" xlink:href="#DejaVuSans-20"/>
     <use x="224.365234" xlink:href="#DejaVuSans-32"/>
    </g>
   </g>
  </g>
  <g id="axes_3">
   <g id="patch_12">
    <path d="M 460.472708 200.859062 
L 631.926875 200.859062 
L 631.926875 11.759062 
L 460.472708 11.759062 
z
" style="fill:#ffffff;"/>
   </g>
   <g id="PathCollection_3">
    <g clip-path="url(#pede46296a3)">
     <use style="fill:#ff0000;stroke:#ff0000;stroke-width:1.5;" x="566.248613" xlink:href="#m009ced2712" y="145.64282"/>
     <use style="fill:#ff0000;stroke:#ff0000;stroke-width:1.5;" x="496.543675" xlink:href="#m009ced2712" y="49.471682"/>
     <use style="fill:#ff0000;stroke:#ff0000;stroke-width:1.5;" x="475.41139" xlink:href="#m009ced2712" y="76.304382"/>
     <use style="fill:#ff0000;stroke:#ff0000;stroke-width:1.5;" x="463.694298" xlink:href="#m009ced2712" y="107.116478"/>
     <use style="fill:#ff0000;stroke:#ff0000;stroke-width:1.5;" x="619.170109" xlink:href="#m009ced2712" y="119.763642"/>
     <use style="fill:#ff0000;stroke:#ff0000;stroke-width:1.5;" x="463.939237" xlink:href="#m009ced2712" y="90.200483"/>
     <use style="fill:#ff0000;stroke:#ff0000;stroke-width:1.5;" x="514.554213" xlink:href="#m009ced2712" y="60.468767"/>
     <use style="fill:#ff0000;stroke:#ff0000;stroke-width:1.5;" x="470.798616" xlink:href="#m009ced2712" y="66.807735"/>
     <use style="fill:#ff0000;stroke:#ff0000;stroke-width:1.5;" x="625.696704" xlink:href="#m009ced2712" y="114.350023"/>
     <use style="fill:#ff0000;stroke:#ff0000;stroke-width:1.5;" x="533.110089" xlink:href="#m009ced2712" y="85.049459"/>
    </g>
   </g>
   <g id="line2d_10">
    <path clip-path="url(#pede46296a3)" d="M 426.181875 318.490857 
L 428.606479 297.340709 
L 431.031084 277.237835 
L 433.455688 258.160198 
L 435.880293 240.085756 
L 438.304897 222.992471 
L 440.729501 206.858303 
L 443.154106 191.661214 
L 445.57871 177.379163 
L 448.003314 163.990111 
L 450.427919 151.47202 
L 452.852523 139.802849 
L 455.277128 128.960559 
L 457.701732 118.923111 
L 460.126336 109.668465 
L 462.550941 101.174583 
L 464.975545 93.419424 
L 467.400149 86.38095 
L 469.824754 80.037121 
L 472.249358 74.365897 
L 474.673963 69.34524 
L 477.098567 64.953109 
L 479.523171 61.167467 
L 481.947776 57.966272 
L 484.37238 55.327486 
L 486.796984 53.22907 
L 489.221589 51.648984 
L 491.646193 50.565188 
L 494.070798 49.955644 
L 496.495402 49.798312 
L 498.920006 50.071153 
L 501.344611 50.752127 
L 503.769215 51.819195 
L 506.193819 53.250317 
L 508.618424 55.023455 
L 511.043028 57.116568 
L 513.467633 59.507618 
L 515.892237 62.174565 
L 518.316841 65.09537 
L 520.741446 68.247993 
L 523.16605 71.610395 
L 525.590654 75.160537 
L 528.015259 78.876379 
L 530.439863 82.735882 
L 532.864468 86.717006 
L 535.289072 90.797713 
L 537.713676 94.955962 
L 540.138281 99.169715 
L 542.562885 103.416933 
L 544.987489 107.675574 
L 547.412094 111.923602 
L 549.836698 116.138975 
L 552.261303 120.299655 
L 554.685907 124.383602 
L 557.110511 128.368777 
L 559.535116 132.23314 
L 561.95972 135.954653 
L 564.384324 139.511276 
L 566.808929 142.880969 
L 569.233533 146.041693 
L 571.658138 148.971409 
L 574.082742 151.648077 
L 576.507346 154.049658 
L 578.931951 156.154113 
L 581.356555 157.939402 
L 583.78116 159.383486 
L 586.205764 160.464325 
L 588.630368 161.159881 
L 591.054973 161.448114 
L 593.479577 161.306984 
L 595.904181 160.714452 
L 598.328786 159.648478 
L 600.75339 158.087025 
L 603.177995 156.008051 
L 605.602599 153.389517 
L 608.027203 150.209385 
L 610.451808 146.445615 
L 612.876412 142.076168 
L 615.301016 137.079003 
L 617.725621 131.432083 
L 620.150225 125.113367 
L 622.57483 118.100815 
L 624.999434 110.37239 
L 627.424038 101.906051 
L 629.848643 92.679759 
L 632.273247 82.671475 
L 634.697851 71.859158 
L 637.122456 60.220771 
L 639.54706 47.734273 
L 641.971665 34.377626 
L 644.396269 20.128789 
L 646.820873 4.965724 
L 647.719328 -1 
" style="fill:none;stroke:#000000;stroke-linecap:square;stroke-width:1.5;"/>
   </g>
   <g id="patch_13">
    <path d="M 460.472708 200.859062 
L 460.472708 11.759062 
" style="fill:none;stroke:#000000;stroke-linecap:square;stroke-linejoin:miter;stroke-width:0.8;"/>
   </g>
   <g id="patch_14">
    <path d="M 631.926875 200.859062 
L 631.926875 11.759062 
" style="fill:none;stroke:#000000;stroke-linecap:square;stroke-linejoin:miter;stroke-width:0.8;"/>
   </g>
   <g id="patch_15">
    <path d="M 460.472708 200.859062 
L 631.926875 200.859062 
" style="fill:none;stroke:#000000;stroke-linecap:square;stroke-linejoin:miter;stroke-width:0.8;"/>
   </g>
   <g id="patch_16">
    <path d="M 460.472708 11.759062 
L 631.926875 11.759062 
" style="fill:none;stroke:#000000;stroke-linecap:square;stroke-linejoin:miter;stroke-width:0.8;"/>
   </g>
   <g id="text_10">
    <!-- D = 3 -->
    <defs>
     <path d="M 40.578125 39.3125 
Q 47.65625 37.796875 51.625 33 
Q 55.609375 28.21875 55.609375 21.1875 
Q 55.609375 10.40625 48.1875 4.484375 
Q 40.765625 -1.421875 27.09375 -1.421875 
Q 22.515625 -1.421875 17.65625 -0.515625 
Q 12.796875 0.390625 7.625 2.203125 
L 7.625 11.71875 
Q 11.71875 9.328125 16.59375 8.109375 
Q 21.484375 6.890625 26.8125 6.890625 
Q 36.078125 6.890625 40.9375 10.546875 
Q 45.796875 14.203125 45.796875 21.1875 
Q 45.796875 27.640625 41.28125 31.265625 
Q 36.765625 34.90625 28.71875 34.90625 
L 20.21875 34.90625 
L 20.21875 43.015625 
L 29.109375 43.015625 
Q 36.375 43.015625 40.234375 45.921875 
Q 44.09375 48.828125 44.09375 54.296875 
Q 44.09375 59.90625 40.109375 62.90625 
Q 36.140625 65.921875 28.71875 65.921875 
Q 24.65625 65.921875 20.015625 65.03125 
Q 15.375 64.15625 9.8125 62.3125 
L 9.8125 71.09375 
Q 15.4375 72.65625 20.34375 73.4375 
Q 25.25 74.21875 29.59375 74.21875 
Q 40.828125 74.21875 47.359375 69.109375 
Q 53.90625 64.015625 53.90625 55.328125 
Q 53.90625 49.265625 50.4375 45.09375 
Q 46.96875 40.921875 40.578125 39.3125 
z
" id="DejaVuSans-33"/>
    </defs>
    <g transform="translate(468.778125 192.060104)scale(0.12 -0.12)">
     <use xlink:href="#DejaVuSans-44"/>
     <use x="77.001953" xlink:href="#DejaVuSans-20"/>
     <use x="108.789062" xlink:href="#DejaVuSans-3d"/>
     <use x="192.578125" xlink:href="#DejaVuSans-20"/>
     <use x="224.365234" xlink:href="#DejaVuSans-33"/>
    </g>
   </g>
  </g>
  <g id="axes_4">
   <g id="patch_17">
    <path d="M 43.339375 407.759062 
L 214.793542 407.759062 
L 214.793542 218.659062 
L 43.339375 218.659062 
z
" style="fill:#ffffff;"/>
   </g>
   <g id="PathCollection_4">
    <g clip-path="url(#pd36fa64b6b)">
     <use style="fill:#ff0000;stroke:#ff0000;stroke-width:1.5;" x="149.115279" xlink:href="#m009ced2712" y="352.54282"/>
     <use style="fill:#ff0000;stroke:#ff0000;stroke-width:1.5;" x="79.410342" xlink:href="#m009ced2712" y="256.371682"/>
     <use style="fill:#ff0000;stroke:#ff0000;stroke-width:1.5;" x="58.278056" xlink:href="#m009ced2712" y="283.204382"/>
     <use style="fill:#ff0000;stroke:#ff0000;stroke-width:1.5;" x="46.560965" xlink:href="#m009ced2712" y="314.016478"/>
     <use style="fill:#ff0000;stroke:#ff0000;stroke-width:1.5;" x="202.036775" xlink:href="#m009ced2712" y="326.663642"/>
     <use style="fill:#ff0000;stroke:#ff0000;stroke-width:1.5;" x="46.805903" xlink:href="#m009ced2712" y="297.100483"/>
     <use style="fill:#ff0000;stroke:#ff0000;stroke-width:1.5;" x="97.42088" xlink:href="#m009ced2712" y="267.368767"/>
     <use style="fill:#ff0000;stroke:#ff0000;stroke-width:1.5;" x="53.665283" xlink:href="#m009ced2712" y="273.707735"/>
     <use style="fill:#ff0000;stroke:#ff0000;stroke-width:1.5;" x="208.563371" xlink:href="#m009ced2712" y="321.250023"/>
     <use style="fill:#ff0000;stroke:#ff0000;stroke-width:1.5;" x="115.976756" xlink:href="#m009ced2712" y="291.949459"/>
    </g>
   </g>
   <g id="matplotlib.axis_2">
    <g id="ytick_8">
     <g id="line2d_11">
      <g>
       <use style="stroke:#000000;stroke-width:0.8;" x="43.339375" xlink:href="#mb5ed94cc37" y="407.759062"/>
      </g>
     </g>
     <g id="text_11">
      <!-- −1.5 -->
      <g transform="translate(7.2 412.318125)scale(0.12 -0.12)">
       <use xlink:href="#DejaVuSans-2212"/>
       <use x="83.789062" xlink:href="#DejaVuSans-31"/>
       <use x="147.412109" xlink:href="#DejaVuSans-2e"/>
       <use x="179.199219" xlink:href="#DejaVuSans-35"/>
      </g>
     </g>
    </g>
    <g id="ytick_9">
     <g id="line2d_12">
      <g>
       <use style="stroke:#000000;stroke-width:0.8;" x="43.339375" xlink:href="#mb5ed94cc37" y="376.242396"/>
      </g>
     </g>
     <g id="text_12">
      <!-- −1.0 -->
      <g transform="translate(7.2 380.801458)scale(0.12 -0.12)">
       <use xlink:href="#DejaVuSans-2212"/>
       <use x="83.789062" xlink:href="#DejaVuSans-31"/>
       <use x="147.412109" xlink:href="#DejaVuSans-2e"/>
       <use x="179.199219" xlink:href="#DejaVuSans-30"/>
      </g>
     </g>
    </g>
    <g id="ytick_10">
     <g id="line2d_13">
      <g>
       <use style="stroke:#000000;stroke-width:0.8;" x="43.339375" xlink:href="#mb5ed94cc37" y="344.725729"/>
      </g>
     </g>
     <g id="text_13">
      <!-- −0.5 -->
      <g transform="translate(7.2 349.284792)scale(0.12 -0.12)">
       <use xlink:href="#DejaVuSans-2212"/>
       <use x="83.789062" xlink:href="#DejaVuSans-30"/>
       <use x="147.412109" xlink:href="#DejaVuSans-2e"/>
       <use x="179.199219" xlink:href="#DejaVuSans-35"/>
      </g>
     </g>
    </g>
    <g id="ytick_11">
     <g id="line2d_14">
      <g>
       <use style="stroke:#000000;stroke-width:0.8;" x="43.339375" xlink:href="#mb5ed94cc37" y="313.209062"/>
      </g>
     </g>
     <g id="text_14">
      <!-- 0.0 -->
      <g transform="translate(17.255625 317.768125)scale(0.12 -0.12)">
       <use xlink:href="#DejaVuSans-30"/>
       <use x="63.623047" xlink:href="#DejaVuSans-2e"/>
       <use x="95.410156" xlink:href="#DejaVuSans-30"/>
      </g>
     </g>
    </g>
    <g id="ytick_12">
     <g id="line2d_15">
      <g>
       <use style="stroke:#000000;stroke-width:0.8;" x="43.339375" xlink:href="#mb5ed94cc37" y="281.692396"/>
      </g>
     </g>
     <g id="text_15">
      <!-- 0.5 -->
      <g transform="translate(17.255625 286.251458)scale(0.12 -0.12)">
       <use xlink:href="#DejaVuSans-30"/>
       <use x="63.623047" xlink:href="#DejaVuSans-2e"/>
       <use x="95.410156" xlink:href="#DejaVuSans-35"/>
      </g>
     </g>
    </g>
    <g id="ytick_13">
     <g id="line2d_16">
      <g>
       <use style="stroke:#000000;stroke-width:0.8;" x="43.339375" xlink:href="#mb5ed94cc37" y="250.175729"/>
      </g>
     </g>
     <g id="text_16">
      <!-- 1.0 -->
      <g transform="translate(17.255625 254.734792)scale(0.12 -0.12)">
       <use xlink:href="#DejaVuSans-31"/>
       <use x="63.623047" xlink:href="#DejaVuSans-2e"/>
       <use x="95.410156" xlink:href="#DejaVuSans-30"/>
      </g>
     </g>
    </g>
    <g id="ytick_14">
     <g id="line2d_17">
      <g>
       <use style="stroke:#000000;stroke-width:0.8;" x="43.339375" xlink:href="#mb5ed94cc37" y="218.659062"/>
      </g>
     </g>
     <g id="text_17">
      <!-- 1.5 -->
      <g transform="translate(17.255625 223.218125)scale(0.12 -0.12)">
       <use xlink:href="#DejaVuSans-31"/>
       <use x="63.623047" xlink:href="#DejaVuSans-2e"/>
       <use x="95.410156" xlink:href="#DejaVuSans-35"/>
      </g>
     </g>
    </g>
   </g>
   <g id="line2d_18">
    <path clip-path="url(#pd36fa64b6b)" d="M 9.048542 566.478001 
L 11.473146 540.617235 
L 13.89775 516.170509 
L 16.322355 493.098323 
L 18.746959 471.36156 
L 21.171564 450.92149 
L 23.596168 431.739771 
L 26.020772 413.778443 
L 28.445377 396.999934 
L 30.869981 381.367058 
L 33.294585 366.843014 
L 35.71919 353.391386 
L 38.143794 340.976146 
L 40.568399 329.56165 
L 42.993003 319.11264 
L 45.417607 309.594244 
L 47.842212 300.971977 
L 50.266816 293.211738 
L 52.69142 286.279812 
L 55.116025 280.14287 
L 57.540629 274.76797 
L 59.965234 270.122555 
L 62.389838 266.174452 
L 64.814442 262.891876 
L 67.239047 260.243428 
L 69.663651 258.198093 
L 72.088255 256.725243 
L 74.51286 255.794636 
L 76.937464 255.376414 
L 79.362069 255.441107 
L 81.786673 255.95963 
L 84.211277 256.903283 
L 86.635882 258.243752 
L 89.060486 259.95311 
L 91.48509 262.003815 
L 93.909695 264.36871 
L 96.334299 267.021026 
L 98.758904 269.934376 
L 101.183508 273.082763 
L 103.608112 276.440573 
L 106.032717 279.982579 
L 108.457321 283.683939 
L 110.881926 287.520198 
L 113.30653 291.467285 
L 115.731134 295.501517 
L 118.155739 299.599595 
L 120.580343 303.738605 
L 123.004947 307.896022 
L 125.429552 312.049705 
L 127.854156 316.177897 
L 130.278761 320.25923 
L 132.703365 324.272719 
L 135.127969 328.197767 
L 137.552574 332.014162 
L 139.977178 335.702077 
L 142.401782 339.242072 
L 144.826387 342.615091 
L 147.250991 345.802466 
L 149.675596 348.785913 
L 152.1002 351.547535 
L 154.524804 354.069821 
L 156.949409 356.335644 
L 159.374013 358.328264 
L 161.798617 360.031327 
L 164.223222 361.428864 
L 166.647826 362.505293 
L 169.072431 363.245416 
L 171.497035 363.634423 
L 173.921639 363.657888 
L 176.346244 363.30177 
L 178.770848 362.552417 
L 181.195452 361.396561 
L 183.620057 359.821318 
L 186.044661 357.814193 
L 188.469266 355.363074 
L 190.89387 352.456237 
L 193.318474 349.082343 
L 195.743079 345.230438 
L 198.167683 340.889955 
L 200.592287 336.050711 
L 203.016892 330.702911 
L 205.441496 324.837144 
L 207.866101 318.444387 
L 210.290705 311.515999 
L 212.715309 304.043729 
L 215.139914 296.019709 
L 217.564518 287.436458 
L 219.989122 278.286881 
L 222.413727 268.564267 
L 224.838331 258.262292 
L 227.262936 247.375019 
L 229.68754 235.896894 
L 232.112144 223.822752 
L 234.536749 211.147812 
L 236.961353 197.867677 
L 239.385957 183.97834 
L 241.810562 169.476175 
L 244.235166 154.357947 
L 246.659771 138.620802 
L 249.084375 122.262275 
" style="fill:none;stroke:#000000;stroke-linecap:square;stroke-width:1.5;"/>
   </g>
   <g id="patch_18">
    <path d="M 43.339375 407.759062 
L 43.339375 218.659062 
" style="fill:none;stroke:#000000;stroke-linecap:square;stroke-linejoin:miter;stroke-width:0.8;"/>
   </g>
   <g id="patch_19">
    <path d="M 214.793542 407.759062 
L 214.793542 218.659062 
" style="fill:none;stroke:#000000;stroke-linecap:square;stroke-linejoin:miter;stroke-width:0.8;"/>
   </g>
   <g id="patch_20">
    <path d="M 43.339375 407.759062 
L 214.793542 407.759062 
" style="fill:none;stroke:#000000;stroke-linecap:square;stroke-linejoin:miter;stroke-width:0.8;"/>
   </g>
   <g id="patch_21">
    <path d="M 43.339375 218.659062 
L 214.793542 218.659062 
" style="fill:none;stroke:#000000;stroke-linecap:square;stroke-linejoin:miter;stroke-width:0.8;"/>
   </g>
   <g id="text_18">
    <!-- D = 4 -->
    <defs>
     <path d="M 37.796875 64.3125 
L 12.890625 25.390625 
L 37.796875 25.390625 
z
M 35.203125 72.90625 
L 47.609375 72.90625 
L 47.609375 25.390625 
L 58.015625 25.390625 
L 58.015625 17.1875 
L 47.609375 17.1875 
L 47.609375 0 
L 37.796875 0 
L 37.796875 17.1875 
L 4.890625 17.1875 
L 4.890625 26.703125 
z
" id="DejaVuSans-34"/>
    </defs>
    <g transform="translate(51.644792 398.960104)scale(0.12 -0.12)">
     <use xlink:href="#DejaVuSans-44"/>
     <use x="77.001953" xlink:href="#DejaVuSans-20"/>
     <use x="108.789062" xlink:href="#DejaVuSans-3d"/>
     <use x="192.578125" xlink:href="#DejaVuSans-20"/>
     <use x="224.365234" xlink:href="#DejaVuSans-34"/>
    </g>
   </g>
  </g>
  <g id="axes_5">
   <g id="patch_22">
    <path d="M 251.906042 407.759062 
L 423.360208 407.759062 
L 423.360208 218.659062 
L 251.906042 218.659062 
z
" style="fill:#ffffff;"/>
   </g>
   <g id="PathCollection_5">
    <g clip-path="url(#padb24dd042)">
     <use style="fill:#ff0000;stroke:#ff0000;stroke-width:1.5;" x="357.681946" xlink:href="#m009ced2712" y="352.54282"/>
     <use style="fill:#ff0000;stroke:#ff0000;stroke-width:1.5;" x="287.977008" xlink:href="#m009ced2712" y="256.371682"/>
     <use style="fill:#ff0000;stroke:#ff0000;stroke-width:1.5;" x="266.844723" xlink:href="#m009ced2712" y="283.204382"/>
     <use style="fill:#ff0000;stroke:#ff0000;stroke-width:1.5;" x="255.127631" xlink:href="#m009ced2712" y="314.016478"/>
     <use style="fill:#ff0000;stroke:#ff0000;stroke-width:1.5;" x="410.603442" xlink:href="#m009ced2712" y="326.663642"/>
     <use style="fill:#ff0000;stroke:#ff0000;stroke-width:1.5;" x="255.37257" xlink:href="#m009ced2712" y="297.100483"/>
     <use style="fill:#ff0000;stroke:#ff0000;stroke-width:1.5;" x="305.987547" xlink:href="#m009ced2712" y="267.368767"/>
     <use style="fill:#ff0000;stroke:#ff0000;stroke-width:1.5;" x="262.23195" xlink:href="#m009ced2712" y="273.707735"/>
     <use style="fill:#ff0000;stroke:#ff0000;stroke-width:1.5;" x="417.130037" xlink:href="#m009ced2712" y="321.250023"/>
     <use style="fill:#ff0000;stroke:#ff0000;stroke-width:1.5;" x="324.543422" xlink:href="#m009ced2712" y="291.949459"/>
    </g>
   </g>
   <g id="line2d_19">
    <path clip-path="url(#padb24dd042)" d="M 217.615208 411.182333 
L 220.039813 406.90574 
L 222.464417 401.786701 
L 224.889021 395.952623 
L 227.313626 389.523488 
L 229.73823 382.612026 
L 232.162835 375.323893 
L 234.587439 367.757844 
L 237.012043 360.005906 
L 239.436648 352.153553 
L 241.861252 344.279883 
L 244.285856 336.457789 
L 246.710461 328.754138 
L 249.135065 321.22994 
L 251.55967 313.940525 
L 253.984274 306.935721 
L 256.408878 300.260021 
L 258.833483 293.952766 
L 261.258087 288.048311 
L 263.682691 282.576208 
L 266.107296 277.561373 
L 268.5319 273.024266 
L 270.956505 268.981063 
L 273.381109 265.443828 
L 275.805713 262.420696 
L 278.230318 259.916036 
L 280.654922 257.930635 
L 283.079527 256.461868 
L 285.504131 255.503873 
L 287.928735 255.047726 
L 290.35334 255.081616 
L 292.777944 255.591019 
L 295.202548 256.558871 
L 297.627153 257.965746 
L 300.051757 259.790026 
L 302.476362 262.008081 
L 304.900966 264.594439 
L 307.32557 267.52196 
L 309.750175 270.762017 
L 312.174779 274.284662 
L 314.599383 278.058806 
L 317.023988 282.052393 
L 319.448592 286.232572 
L 321.873197 290.565873 
L 324.297801 295.018385 
L 326.722405 299.555922 
L 329.14701 304.144205 
L 331.571614 308.749036 
L 333.996218 313.336468 
L 336.420823 317.872982 
L 338.845427 322.325664 
L 341.270032 326.662375 
L 343.694636 330.851929 
L 346.11924 334.864265 
L 348.543845 338.670624 
L 350.968449 342.243722 
L 353.393053 345.557923 
L 355.817658 348.589418 
L 358.242262 351.316394 
L 360.666867 353.719214 
L 363.091471 355.780586 
L 365.516075 357.485742 
L 367.94068 358.822611 
L 370.365284 359.781992 
L 372.789888 360.357732 
L 375.214493 360.546895 
L 377.639097 360.349943 
L 380.063702 359.770905 
L 382.488306 358.817556 
L 384.91291 357.501588 
L 387.337515 355.838787 
L 389.762119 353.849204 
L 392.186723 351.557334 
L 394.611328 348.992289 
L 397.035932 346.18797 
L 399.460537 343.183245 
L 401.885141 340.02212 
L 404.309745 336.753918 
L 406.73435 333.433449 
L 409.158954 330.121188 
L 411.583559 326.883447 
L 414.008163 323.79255 
L 416.432767 320.927009 
L 418.857372 318.371698 
L 421.281976 316.218026 
L 423.70658 314.564113 
L 426.131185 313.514964 
L 428.555789 313.182644 
L 430.980394 313.68645 
L 433.404998 315.153091 
L 435.829602 317.716856 
L 438.254207 321.519795 
L 440.678811 326.711886 
L 443.103415 333.451217 
L 445.52802 341.904156 
L 447.952624 352.245527 
L 450.377229 364.658782 
L 452.801833 379.336182 
L 455.226437 396.478963 
L 457.651042 416.297517 
" style="fill:none;stroke:#000000;stroke-linecap:square;stroke-width:1.5;"/>
   </g>
   <g id="patch_23">
    <path d="M 251.906042 407.759062 
L 251.906042 218.659062 
" style="fill:none;stroke:#000000;stroke-linecap:square;stroke-linejoin:miter;stroke-width:0.8;"/>
   </g>
   <g id="patch_24">
    <path d="M 423.360208 407.759062 
L 423.360208 218.659062 
" style="fill:none;stroke:#000000;stroke-linecap:square;stroke-linejoin:miter;stroke-width:0.8;"/>
   </g>
   <g id="patch_25">
    <path d="M 251.906042 407.759062 
L 423.360208 407.759062 
" style="fill:none;stroke:#000000;stroke-linecap:square;stroke-linejoin:miter;stroke-width:0.8;"/>
   </g>
   <g id="patch_26">
    <path d="M 251.906042 218.659062 
L 423.360208 218.659062 
" style="fill:none;stroke:#000000;stroke-linecap:square;stroke-linejoin:miter;stroke-width:0.8;"/>
   </g>
   <g id="text_19">
    <!-- D = 5 -->
    <g transform="translate(260.211458 398.960104)scale(0.12 -0.12)">
     <use xlink:href="#DejaVuSans-44"/>
     <use x="77.001953" xlink:href="#DejaVuSans-20"/>
     <use x="108.789062" xlink:href="#DejaVuSans-3d"/>
     <use x="192.578125" xlink:href="#DejaVuSans-20"/>
     <use x="224.365234" xlink:href="#DejaVuSans-35"/>
    </g>
   </g>
  </g>
  <g id="axes_6">
   <g id="patch_27">
    <path d="M 460.472708 407.759062 
L 631.926875 407.759062 
L 631.926875 218.659062 
L 460.472708 218.659062 
z
" style="fill:#ffffff;"/>
   </g>
   <g id="PathCollection_6">
    <g clip-path="url(#p15ba4f4eb1)">
     <use style="fill:#ff0000;stroke:#ff0000;stroke-width:1.5;" x="566.248613" xlink:href="#m009ced2712" y="352.54282"/>
     <use style="fill:#ff0000;stroke:#ff0000;stroke-width:1.5;" x="496.543675" xlink:href="#m009ced2712" y="256.371682"/>
     <use style="fill:#ff0000;stroke:#ff0000;stroke-width:1.5;" x="475.41139" xlink:href="#m009ced2712" y="283.204382"/>
     <use style="fill:#ff0000;stroke:#ff0000;stroke-width:1.5;" x="463.694298" xlink:href="#m009ced2712" y="314.016478"/>
     <use style="fill:#ff0000;stroke:#ff0000;stroke-width:1.5;" x="619.170109" xlink:href="#m009ced2712" y="326.663642"/>
     <use style="fill:#ff0000;stroke:#ff0000;stroke-width:1.5;" x="463.939237" xlink:href="#m009ced2712" y="297.100483"/>
     <use style="fill:#ff0000;stroke:#ff0000;stroke-width:1.5;" x="514.554213" xlink:href="#m009ced2712" y="267.368767"/>
     <use style="fill:#ff0000;stroke:#ff0000;stroke-width:1.5;" x="470.798616" xlink:href="#m009ced2712" y="273.707735"/>
     <use style="fill:#ff0000;stroke:#ff0000;stroke-width:1.5;" x="625.696704" xlink:href="#m009ced2712" y="321.250023"/>
     <use style="fill:#ff0000;stroke:#ff0000;stroke-width:1.5;" x="533.110089" xlink:href="#m009ced2712" y="291.949459"/>
    </g>
   </g>
   <g id="line2d_20">
    <path clip-path="url(#p15ba4f4eb1)" d="M 431.979733 641.472812 
L 433.455688 609.908058 
L 435.880293 563.885495 
L 438.304897 523.129373 
L 440.729501 487.119509 
L 443.154106 455.376887 
L 445.57871 427.4615 
L 448.003314 402.970244 
L 450.427919 381.534874 
L 452.852523 362.819998 
L 455.277128 346.521146 
L 457.701732 332.362873 
L 460.126336 320.096933 
L 462.550941 309.500494 
L 464.975545 300.374415 
L 467.400149 292.541575 
L 469.824754 285.845254 
L 472.249358 280.147575 
L 474.673963 275.327988 
L 477.098567 271.281823 
L 479.523171 267.918882 
L 481.947776 265.1621 
L 484.37238 262.946246 
L 486.796984 261.21669 
L 489.221589 259.928217 
L 491.646193 259.043897 
L 494.070798 258.534009 
L 496.495402 258.375022 
L 498.920006 258.548625 
L 501.344611 259.040813 
L 503.769215 259.841031 
L 506.193819 260.941367 
L 508.618424 262.335801 
L 511.043028 264.01951 
L 513.467633 265.988222 
L 515.892237 268.237633 
L 518.316841 270.762867 
L 520.741446 273.557998 
L 523.16605 276.615626 
L 525.590654 279.926503 
L 528.015259 283.479214 
L 530.439863 287.259918 
L 532.864468 291.252131 
L 535.289072 295.43658 
L 537.713676 299.791094 
L 540.138281 304.29056 
L 542.562885 308.906931 
L 544.987489 313.609285 
L 547.412094 318.363941 
L 549.836698 323.134632 
L 552.261303 327.882722 
L 554.685907 332.567488 
L 557.110511 337.146451 
L 559.535116 341.575764 
L 561.95972 345.810649 
L 564.384324 349.805891 
L 566.808929 353.51639 
L 569.233533 356.897761 
L 571.658138 359.906991 
L 574.082742 362.503149 
L 576.507346 364.648154 
L 578.931951 366.307592 
L 581.356555 367.451587 
L 583.78116 368.055732 
L 586.205764 368.102071 
L 588.630368 367.580129 
L 591.054973 366.48801 
L 593.479577 364.833534 
L 595.904181 362.635437 
L 598.328786 359.924626 
L 600.75339 356.745482 
L 603.177995 353.157221 
L 605.602599 349.235311 
L 608.027203 345.072937 
L 610.451808 340.782527 
L 612.876412 336.497327 
L 615.301016 332.373034 
L 617.725621 328.58948 
L 620.150225 325.352371 
L 622.57483 322.895083 
L 624.999434 321.480505 
L 627.424038 321.402947 
L 629.848643 322.99009 
L 632.273247 326.605001 
L 634.697851 332.648194 
L 637.122456 341.55975 
L 639.54706 353.821488 
L 641.971665 369.959193 
L 644.396269 390.544897 
L 646.820873 416.199214 
L 649.245478 447.593726 
L 651.670082 485.453431 
L 653.48625 519.24027 
" style="fill:none;stroke:#000000;stroke-linecap:square;stroke-width:1.5;"/>
   </g>
   <g id="patch_28">
    <path d="M 460.472708 407.759062 
L 460.472708 218.659062 
" style="fill:none;stroke:#000000;stroke-linecap:square;stroke-linejoin:miter;stroke-width:0.8;"/>
   </g>
   <g id="patch_29">
    <path d="M 631.926875 407.759062 
L 631.926875 218.659062 
" style="fill:none;stroke:#000000;stroke-linecap:square;stroke-linejoin:miter;stroke-width:0.8;"/>
   </g>
   <g id="patch_30">
    <path d="M 460.472708 407.759062 
L 631.926875 407.759062 
" style="fill:none;stroke:#000000;stroke-linecap:square;stroke-linejoin:miter;stroke-width:0.8;"/>
   </g>
   <g id="patch_31">
    <path d="M 460.472708 218.659062 
L 631.926875 218.659062 
" style="fill:none;stroke:#000000;stroke-linecap:square;stroke-linejoin:miter;stroke-width:0.8;"/>
   </g>
   <g id="text_20">
    <!-- D = 6 -->
    <defs>
     <path d="M 33.015625 40.375 
Q 26.375 40.375 22.484375 35.828125 
Q 18.609375 31.296875 18.609375 23.390625 
Q 18.609375 15.53125 22.484375 10.953125 
Q 26.375 6.390625 33.015625 6.390625 
Q 39.65625 6.390625 43.53125 10.953125 
Q 47.40625 15.53125 47.40625 23.390625 
Q 47.40625 31.296875 43.53125 35.828125 
Q 39.65625 40.375 33.015625 40.375 
z
M 52.59375 71.296875 
L 52.59375 62.3125 
Q 48.875 64.0625 45.09375 64.984375 
Q 41.3125 65.921875 37.59375 65.921875 
Q 27.828125 65.921875 22.671875 59.328125 
Q 17.53125 52.734375 16.796875 39.40625 
Q 19.671875 43.65625 24.015625 45.921875 
Q 28.375 48.1875 33.59375 48.1875 
Q 44.578125 48.1875 50.953125 41.515625 
Q 57.328125 34.859375 57.328125 23.390625 
Q 57.328125 12.15625 50.6875 5.359375 
Q 44.046875 -1.421875 33.015625 -1.421875 
Q 20.359375 -1.421875 13.671875 8.265625 
Q 6.984375 17.96875 6.984375 36.375 
Q 6.984375 53.65625 15.1875 63.9375 
Q 23.390625 74.21875 37.203125 74.21875 
Q 40.921875 74.21875 44.703125 73.484375 
Q 48.484375 72.75 52.59375 71.296875 
z
" id="DejaVuSans-36"/>
    </defs>
    <g transform="translate(468.778125 398.960104)scale(0.12 -0.12)">
     <use xlink:href="#DejaVuSans-44"/>
     <use x="77.001953" xlink:href="#DejaVuSans-20"/>
     <use x="108.789062" xlink:href="#DejaVuSans-3d"/>
     <use x="192.578125" xlink:href="#DejaVuSans-20"/>
     <use x="224.365234" xlink:href="#DejaVuSans-36"/>
    </g>
   </g>
  </g>
  <g id="axes_7">
   <g id="patch_32">
    <path d="M 43.339375 614.659062 
L 214.793542 614.659062 
L 214.793542 425.559062 
L 43.339375 425.559062 
z
" style="fill:#ffffff;"/>
   </g>
   <g id="PathCollection_7">
    <g clip-path="url(#pd183846fbc)">
     <use style="fill:#ff0000;stroke:#ff0000;stroke-width:1.5;" x="149.115279" xlink:href="#m009ced2712" y="559.44282"/>
     <use style="fill:#ff0000;stroke:#ff0000;stroke-width:1.5;" x="79.410342" xlink:href="#m009ced2712" y="463.271682"/>
     <use style="fill:#ff0000;stroke:#ff0000;stroke-width:1.5;" x="58.278056" xlink:href="#m009ced2712" y="490.104382"/>
     <use style="fill:#ff0000;stroke:#ff0000;stroke-width:1.5;" x="46.560965" xlink:href="#m009ced2712" y="520.916478"/>
     <use style="fill:#ff0000;stroke:#ff0000;stroke-width:1.5;" x="202.036775" xlink:href="#m009ced2712" y="533.563642"/>
     <use style="fill:#ff0000;stroke:#ff0000;stroke-width:1.5;" x="46.805903" xlink:href="#m009ced2712" y="504.000483"/>
     <use style="fill:#ff0000;stroke:#ff0000;stroke-width:1.5;" x="97.42088" xlink:href="#m009ced2712" y="474.268767"/>
     <use style="fill:#ff0000;stroke:#ff0000;stroke-width:1.5;" x="53.665283" xlink:href="#m009ced2712" y="480.607735"/>
     <use style="fill:#ff0000;stroke:#ff0000;stroke-width:1.5;" x="208.563371" xlink:href="#m009ced2712" y="528.150023"/>
     <use style="fill:#ff0000;stroke:#ff0000;stroke-width:1.5;" x="115.976756" xlink:href="#m009ced2712" y="498.849459"/>
    </g>
   </g>
   <g id="matplotlib.axis_3">
    <g id="xtick_1">
     <g id="line2d_21">
      <defs>
       <path d="M 0 0 
L 0 3.5 
" id="mf721a0e45b" style="stroke:#000000;stroke-width:0.8;"/>
      </defs>
      <g>
       <use style="stroke:#000000;stroke-width:0.8;" x="43.339375" xlink:href="#mf721a0e45b" y="614.659062"/>
      </g>
     </g>
     <g id="text_21">
      <!-- 0.00 -->
      <g transform="translate(29.98 630.777187)scale(0.12 -0.12)">
       <use xlink:href="#DejaVuSans-30"/>
       <use x="63.623047" xlink:href="#DejaVuSans-2e"/>
       <use x="95.410156" xlink:href="#DejaVuSans-30"/>
       <use x="159.033203" xlink:href="#DejaVuSans-30"/>
      </g>
     </g>
    </g>
    <g id="xtick_2">
     <g id="line2d_22">
      <g>
       <use style="stroke:#000000;stroke-width:0.8;" x="86.202917" xlink:href="#mf721a0e45b" y="614.659062"/>
      </g>
     </g>
     <g id="text_22">
      <!-- 0.25 -->
      <g transform="translate(72.843542 630.777187)scale(0.12 -0.12)">
       <use xlink:href="#DejaVuSans-30"/>
       <use x="63.623047" xlink:href="#DejaVuSans-2e"/>
       <use x="95.410156" xlink:href="#DejaVuSans-32"/>
       <use x="159.033203" xlink:href="#DejaVuSans-35"/>
      </g>
     </g>
    </g>
    <g id="xtick_3">
     <g id="line2d_23">
      <g>
       <use style="stroke:#000000;stroke-width:0.8;" x="129.066458" xlink:href="#mf721a0e45b" y="614.659062"/>
      </g>
     </g>
     <g id="text_23">
      <!-- 0.50 -->
      <g transform="translate(115.707083 630.777187)scale(0.12 -0.12)">
       <use xlink:href="#DejaVuSans-30"/>
       <use x="63.623047" xlink:href="#DejaVuSans-2e"/>
       <use x="95.410156" xlink:href="#DejaVuSans-35"/>
       <use x="159.033203" xlink:href="#DejaVuSans-30"/>
      </g>
     </g>
    </g>
    <g id="xtick_4">
     <g id="line2d_24">
      <g>
       <use style="stroke:#000000;stroke-width:0.8;" x="171.93" xlink:href="#mf721a0e45b" y="614.659062"/>
      </g>
     </g>
     <g id="text_24">
      <!-- 0.75 -->
      <defs>
       <path d="M 8.203125 72.90625 
L 55.078125 72.90625 
L 55.078125 68.703125 
L 28.609375 0 
L 18.3125 0 
L 43.21875 64.59375 
L 8.203125 64.59375 
z
" id="DejaVuSans-37"/>
      </defs>
      <g transform="translate(158.570625 630.777187)scale(0.12 -0.12)">
       <use xlink:href="#DejaVuSans-30"/>
       <use x="63.623047" xlink:href="#DejaVuSans-2e"/>
       <use x="95.410156" xlink:href="#DejaVuSans-37"/>
       <use x="159.033203" xlink:href="#DejaVuSans-35"/>
      </g>
     </g>
    </g>
    <g id="xtick_5">
     <g id="line2d_25">
      <g>
       <use style="stroke:#000000;stroke-width:0.8;" x="214.793542" xlink:href="#mf721a0e45b" y="614.659062"/>
      </g>
     </g>
     <g id="text_25">
      <!-- 1.00 -->
      <g transform="translate(201.434167 630.777187)scale(0.12 -0.12)">
       <use xlink:href="#DejaVuSans-31"/>
       <use x="63.623047" xlink:href="#DejaVuSans-2e"/>
       <use x="95.410156" xlink:href="#DejaVuSans-30"/>
       <use x="159.033203" xlink:href="#DejaVuSans-30"/>
      </g>
     </g>
    </g>
   </g>
   <g id="matplotlib.axis_4">
    <g id="ytick_15">
     <g id="line2d_26">
      <g>
       <use style="stroke:#000000;stroke-width:0.8;" x="43.339375" xlink:href="#mb5ed94cc37" y="614.659062"/>
      </g>
     </g>
     <g id="text_26">
      <!-- −1.5 -->
      <g transform="translate(7.2 619.218125)scale(0.12 -0.12)">
       <use xlink:href="#DejaVuSans-2212"/>
       <use x="83.789062" xlink:href="#DejaVuSans-31"/>
       <use x="147.412109" xlink:href="#DejaVuSans-2e"/>
       <use x="179.199219" xlink:href="#DejaVuSans-35"/>
      </g>
     </g>
    </g>
    <g id="ytick_16">
     <g id="line2d_27">
      <g>
       <use style="stroke:#000000;stroke-width:0.8;" x="43.339375" xlink:href="#mb5ed94cc37" y="583.142396"/>
      </g>
     </g>
     <g id="text_27">
      <!-- −1.0 -->
      <g transform="translate(7.2 587.701458)scale(0.12 -0.12)">
       <use xlink:href="#DejaVuSans-2212"/>
       <use x="83.789062" xlink:href="#DejaVuSans-31"/>
       <use x="147.412109" xlink:href="#DejaVuSans-2e"/>
       <use x="179.199219" xlink:href="#DejaVuSans-30"/>
      </g>
     </g>
    </g>
    <g id="ytick_17">
     <g id="line2d_28">
      <g>
       <use style="stroke:#000000;stroke-width:0.8;" x="43.339375" xlink:href="#mb5ed94cc37" y="551.625729"/>
      </g>
     </g>
     <g id="text_28">
      <!-- −0.5 -->
      <g transform="translate(7.2 556.184792)scale(0.12 -0.12)">
       <use xlink:href="#DejaVuSans-2212"/>
       <use x="83.789062" xlink:href="#DejaVuSans-30"/>
       <use x="147.412109" xlink:href="#DejaVuSans-2e"/>
       <use x="179.199219" xlink:href="#DejaVuSans-35"/>
      </g>
     </g>
    </g>
    <g id="ytick_18">
     <g id="line2d_29">
      <g>
       <use style="stroke:#000000;stroke-width:0.8;" x="43.339375" xlink:href="#mb5ed94cc37" y="520.109062"/>
      </g>
     </g>
     <g id="text_29">
      <!-- 0.0 -->
      <g transform="translate(17.255625 524.668125)scale(0.12 -0.12)">
       <use xlink:href="#DejaVuSans-30"/>
       <use x="63.623047" xlink:href="#DejaVuSans-2e"/>
       <use x="95.410156" xlink:href="#DejaVuSans-30"/>
      </g>
     </g>
    </g>
    <g id="ytick_19">
     <g id="line2d_30">
      <g>
       <use style="stroke:#000000;stroke-width:0.8;" x="43.339375" xlink:href="#mb5ed94cc37" y="488.592396"/>
      </g>
     </g>
     <g id="text_30">
      <!-- 0.5 -->
      <g transform="translate(17.255625 493.151458)scale(0.12 -0.12)">
       <use xlink:href="#DejaVuSans-30"/>
       <use x="63.623047" xlink:href="#DejaVuSans-2e"/>
       <use x="95.410156" xlink:href="#DejaVuSans-35"/>
      </g>
     </g>
    </g>
    <g id="ytick_20">
     <g id="line2d_31">
      <g>
       <use style="stroke:#000000;stroke-width:0.8;" x="43.339375" xlink:href="#mb5ed94cc37" y="457.075729"/>
      </g>
     </g>
     <g id="text_31">
      <!-- 1.0 -->
      <g transform="translate(17.255625 461.634792)scale(0.12 -0.12)">
       <use xlink:href="#DejaVuSans-31"/>
       <use x="63.623047" xlink:href="#DejaVuSans-2e"/>
       <use x="95.410156" xlink:href="#DejaVuSans-30"/>
      </g>
     </g>
    </g>
    <g id="ytick_21">
     <g id="line2d_32">
      <g>
       <use style="stroke:#000000;stroke-width:0.8;" x="43.339375" xlink:href="#mb5ed94cc37" y="425.559062"/>
      </g>
     </g>
     <g id="text_32">
      <!-- 1.5 -->
      <g transform="translate(17.255625 430.118125)scale(0.12 -0.12)">
       <use xlink:href="#DejaVuSans-31"/>
       <use x="63.623047" xlink:href="#DejaVuSans-2e"/>
       <use x="95.410156" xlink:href="#DejaVuSans-35"/>
      </g>
     </g>
    </g>
   </g>
   <g id="line2d_33">
    <path clip-path="url(#pd183846fbc)" d="M 33.245687 641.472812 
L 33.294585 640.551738 
L 35.71919 603.7107 
L 38.143794 574.225197 
L 40.568399 550.813731 
L 42.993003 532.370204 
L 45.417607 517.947144 
L 47.842212 506.73993 
L 50.266816 498.071976 
L 52.69142 491.380853 
L 55.116025 486.205323 
L 57.540629 482.173249 
L 59.965234 478.990364 
L 62.389838 476.429865 
L 64.814442 474.322807 
L 67.239047 472.549262 
L 69.663651 471.030233 
L 72.088255 469.720275 
L 74.51286 468.600809 
L 76.937464 467.674094 
L 79.362069 466.957838 
L 81.786673 466.480408 
L 84.211277 466.276624 
L 86.635882 466.384102 
L 89.060486 466.840118 
L 91.48509 467.678972 
L 93.909695 468.929818 
L 96.334299 470.614932 
L 98.758904 472.748399 
L 101.183508 475.33518 
L 103.608112 478.370539 
L 106.032717 481.839802 
L 108.457321 485.718416 
L 110.881926 489.972283 
L 113.30653 494.558347 
L 115.731134 499.425391 
L 118.155739 504.51504 
L 120.580343 509.762915 
L 123.004947 515.099935 
L 125.429552 520.453722 
L 127.854156 525.750095 
L 130.278761 530.914609 
L 132.703365 535.874132 
L 135.127969 540.558415 
L 137.552574 544.901635 
L 139.977178 548.843881 
L 142.401782 552.332562 
L 144.826387 555.3237 
L 147.250991 557.783085 
L 149.675596 559.687267 
L 152.1002 561.024349 
L 154.524804 561.794566 
L 156.949409 562.010611 
L 159.374013 561.697687 
L 161.798617 560.893252 
L 164.223222 559.646438 
L 166.647826 558.017107 
L 169.072431 556.074523 
L 171.497035 553.895607 
L 173.921639 551.562757 
L 176.346244 549.16119 
L 178.770848 546.775797 
L 181.195452 544.487463 
L 183.620057 542.368848 
L 186.044661 540.479576 
L 188.469266 538.860828 
L 190.89387 537.529293 
L 193.318474 536.47046 
L 195.743079 535.631221 
L 198.167683 534.911754 
L 200.592287 534.156669 
L 203.016892 533.145367 
L 205.441496 531.581619 
L 207.866101 529.082297 
L 210.290705 525.16527 
L 212.715309 519.236397 
L 215.139914 510.575629 
L 217.564518 498.322162 
L 219.989122 481.458627 
L 222.413727 458.794288 
L 224.838331 428.947221 
L 227.262936 390.325443 
L 229.68754 341.106967 
L 232.112144 279.21875 
L 234.536749 202.31452 
L 236.961353 107.751433 
L 239.250516 -1 
" style="fill:none;stroke:#000000;stroke-linecap:square;stroke-width:1.5;"/>
   </g>
   <g id="patch_33">
    <path d="M 43.339375 614.659062 
L 43.339375 425.559062 
" style="fill:none;stroke:#000000;stroke-linecap:square;stroke-linejoin:miter;stroke-width:0.8;"/>
   </g>
   <g id="patch_34">
    <path d="M 214.793542 614.659062 
L 214.793542 425.559062 
" style="fill:none;stroke:#000000;stroke-linecap:square;stroke-linejoin:miter;stroke-width:0.8;"/>
   </g>
   <g id="patch_35">
    <path d="M 43.339375 614.659062 
L 214.793542 614.659062 
" style="fill:none;stroke:#000000;stroke-linecap:square;stroke-linejoin:miter;stroke-width:0.8;"/>
   </g>
   <g id="patch_36">
    <path d="M 43.339375 425.559062 
L 214.793542 425.559062 
" style="fill:none;stroke:#000000;stroke-linecap:square;stroke-linejoin:miter;stroke-width:0.8;"/>
   </g>
   <g id="text_33">
    <!-- D = 7 -->
    <g transform="translate(51.644792 605.860104)scale(0.12 -0.12)">
     <use xlink:href="#DejaVuSans-44"/>
     <use x="77.001953" xlink:href="#DejaVuSans-20"/>
     <use x="108.789062" xlink:href="#DejaVuSans-3d"/>
     <use x="192.578125" xlink:href="#DejaVuSans-20"/>
     <use x="224.365234" xlink:href="#DejaVuSans-37"/>
    </g>
   </g>
  </g>
  <g id="axes_8">
   <g id="patch_37">
    <path d="M 251.906042 614.659062 
L 423.360208 614.659062 
L 423.360208 425.559062 
L 251.906042 425.559062 
z
" style="fill:#ffffff;"/>
   </g>
   <g id="PathCollection_8">
    <g clip-path="url(#p7076d9d6b1)">
     <use style="fill:#ff0000;stroke:#ff0000;stroke-width:1.5;" x="357.681946" xlink:href="#m009ced2712" y="559.44282"/>
     <use style="fill:#ff0000;stroke:#ff0000;stroke-width:1.5;" x="287.977008" xlink:href="#m009ced2712" y="463.271682"/>
     <use style="fill:#ff0000;stroke:#ff0000;stroke-width:1.5;" x="266.844723" xlink:href="#m009ced2712" y="490.104382"/>
     <use style="fill:#ff0000;stroke:#ff0000;stroke-width:1.5;" x="255.127631" xlink:href="#m009ced2712" y="520.916478"/>
     <use style="fill:#ff0000;stroke:#ff0000;stroke-width:1.5;" x="410.603442" xlink:href="#m009ced2712" y="533.563642"/>
     <use style="fill:#ff0000;stroke:#ff0000;stroke-width:1.5;" x="255.37257" xlink:href="#m009ced2712" y="504.000483"/>
     <use style="fill:#ff0000;stroke:#ff0000;stroke-width:1.5;" x="305.987547" xlink:href="#m009ced2712" y="474.268767"/>
     <use style="fill:#ff0000;stroke:#ff0000;stroke-width:1.5;" x="262.23195" xlink:href="#m009ced2712" y="480.607735"/>
     <use style="fill:#ff0000;stroke:#ff0000;stroke-width:1.5;" x="417.130037" xlink:href="#m009ced2712" y="528.150023"/>
     <use style="fill:#ff0000;stroke:#ff0000;stroke-width:1.5;" x="324.543422" xlink:href="#m009ced2712" y="498.849459"/>
    </g>
   </g>
   <g id="matplotlib.axis_5">
    <g id="xtick_6">
     <g id="line2d_34">
      <g>
       <use style="stroke:#000000;stroke-width:0.8;" x="251.906042" xlink:href="#mf721a0e45b" y="614.659062"/>
      </g>
     </g>
     <g id="text_34">
      <!-- 0.00 -->
      <g transform="translate(238.546667 630.777187)scale(0.12 -0.12)">
       <use xlink:href="#DejaVuSans-30"/>
       <use x="63.623047" xlink:href="#DejaVuSans-2e"/>
       <use x="95.410156" xlink:href="#DejaVuSans-30"/>
       <use x="159.033203" xlink:href="#DejaVuSans-30"/>
      </g>
     </g>
    </g>
    <g id="xtick_7">
     <g id="line2d_35">
      <g>
       <use style="stroke:#000000;stroke-width:0.8;" x="294.769583" xlink:href="#mf721a0e45b" y="614.659062"/>
      </g>
     </g>
     <g id="text_35">
      <!-- 0.25 -->
      <g transform="translate(281.410208 630.777187)scale(0.12 -0.12)">
       <use xlink:href="#DejaVuSans-30"/>
       <use x="63.623047" xlink:href="#DejaVuSans-2e"/>
       <use x="95.410156" xlink:href="#DejaVuSans-32"/>
       <use x="159.033203" xlink:href="#DejaVuSans-35"/>
      </g>
     </g>
    </g>
    <g id="xtick_8">
     <g id="line2d_36">
      <g>
       <use style="stroke:#000000;stroke-width:0.8;" x="337.633125" xlink:href="#mf721a0e45b" y="614.659062"/>
      </g>
     </g>
     <g id="text_36">
      <!-- 0.50 -->
      <g transform="translate(324.27375 630.777187)scale(0.12 -0.12)">
       <use xlink:href="#DejaVuSans-30"/>
       <use x="63.623047" xlink:href="#DejaVuSans-2e"/>
       <use x="95.410156" xlink:href="#DejaVuSans-35"/>
       <use x="159.033203" xlink:href="#DejaVuSans-30"/>
      </g>
     </g>
    </g>
    <g id="xtick_9">
     <g id="line2d_37">
      <g>
       <use style="stroke:#000000;stroke-width:0.8;" x="380.496667" xlink:href="#mf721a0e45b" y="614.659062"/>
      </g>
     </g>
     <g id="text_37">
      <!-- 0.75 -->
      <g transform="translate(367.137292 630.777187)scale(0.12 -0.12)">
       <use xlink:href="#DejaVuSans-30"/>
       <use x="63.623047" xlink:href="#DejaVuSans-2e"/>
       <use x="95.410156" xlink:href="#DejaVuSans-37"/>
       <use x="159.033203" xlink:href="#DejaVuSans-35"/>
      </g>
     </g>
    </g>
    <g id="xtick_10">
     <g id="line2d_38">
      <g>
       <use style="stroke:#000000;stroke-width:0.8;" x="423.360208" xlink:href="#mf721a0e45b" y="614.659062"/>
      </g>
     </g>
     <g id="text_38">
      <!-- 1.00 -->
      <g transform="translate(410.000833 630.777187)scale(0.12 -0.12)">
       <use xlink:href="#DejaVuSans-31"/>
       <use x="63.623047" xlink:href="#DejaVuSans-2e"/>
       <use x="95.410156" xlink:href="#DejaVuSans-30"/>
       <use x="159.033203" xlink:href="#DejaVuSans-30"/>
      </g>
     </g>
    </g>
   </g>
   <g id="line2d_39">
    <path clip-path="url(#p7076d9d6b1)" d="M 251.016958 641.472812 
L 251.55967 612.648917 
L 253.984274 536.942172 
L 256.408878 497.364487 
L 258.833483 481.017696 
L 261.258087 478.344269 
L 263.682691 482.512205 
L 266.107296 488.876875 
L 268.5319 494.513943 
L 270.956505 497.817643 
L 273.381109 498.158939 
L 275.805713 495.598306 
L 278.230318 490.648065 
L 280.654922 484.079412 
L 283.079527 476.769533 
L 285.504131 469.584346 
L 287.928735 463.292674 
L 290.35334 458.507843 
L 292.777944 455.652902 
L 295.202548 454.945895 
L 297.627153 456.401801 
L 300.051757 459.847998 
L 302.476362 464.950286 
L 304.900966 471.246739 
L 307.32557 478.186863 
L 309.750175 485.173731 
L 312.174779 491.607005 
L 314.599383 496.924946 
L 317.023988 500.643724 
L 319.448592 502.39256 
L 321.873197 501.943451 
L 324.297801 499.234405 
L 326.722405 494.385367 
L 329.14701 487.706208 
L 331.571614 479.696348 
L 333.996218 471.035818 
L 336.420823 462.567768 
L 338.845427 455.27263 
L 341.270032 450.234376 
L 343.694636 448.599495 
L 346.11924 451.529556 
L 348.543845 460.148404 
L 350.968449 475.485275 
L 353.393053 498.415295 
L 355.817658 529.599082 
L 358.242262 569.423338 
L 360.666867 617.944548 
L 361.669558 641.472812 
M 408.311185 641.472812 
L 409.158954 597.181905 
L 411.583559 498.551977 
L 414.008163 453.474554 
L 416.432767 494.719125 
L 418.540746 641.472812 
" style="fill:none;stroke:#000000;stroke-linecap:square;stroke-width:1.5;"/>
   </g>
   <g id="patch_38">
    <path d="M 251.906042 614.659062 
L 251.906042 425.559062 
" style="fill:none;stroke:#000000;stroke-linecap:square;stroke-linejoin:miter;stroke-width:0.8;"/>
   </g>
   <g id="patch_39">
    <path d="M 423.360208 614.659062 
L 423.360208 425.559062 
" style="fill:none;stroke:#000000;stroke-linecap:square;stroke-linejoin:miter;stroke-width:0.8;"/>
   </g>
   <g id="patch_40">
    <path d="M 251.906042 614.659062 
L 423.360208 614.659062 
" style="fill:none;stroke:#000000;stroke-linecap:square;stroke-linejoin:miter;stroke-width:0.8;"/>
   </g>
   <g id="patch_41">
    <path d="M 251.906042 425.559062 
L 423.360208 425.559062 
" style="fill:none;stroke:#000000;stroke-linecap:square;stroke-linejoin:miter;stroke-width:0.8;"/>
   </g>
   <g id="text_39">
    <!-- D = 8 -->
    <defs>
     <path d="M 31.78125 34.625 
Q 24.75 34.625 20.71875 30.859375 
Q 16.703125 27.09375 16.703125 20.515625 
Q 16.703125 13.921875 20.71875 10.15625 
Q 24.75 6.390625 31.78125 6.390625 
Q 38.8125 6.390625 42.859375 10.171875 
Q 46.921875 13.96875 46.921875 20.515625 
Q 46.921875 27.09375 42.890625 30.859375 
Q 38.875 34.625 31.78125 34.625 
z
M 21.921875 38.8125 
Q 15.578125 40.375 12.03125 44.71875 
Q 8.5 49.078125 8.5 55.328125 
Q 8.5 64.0625 14.71875 69.140625 
Q 20.953125 74.21875 31.78125 74.21875 
Q 42.671875 74.21875 48.875 69.140625 
Q 55.078125 64.0625 55.078125 55.328125 
Q 55.078125 49.078125 51.53125 44.71875 
Q 48 40.375 41.703125 38.8125 
Q 48.828125 37.15625 52.796875 32.3125 
Q 56.78125 27.484375 56.78125 20.515625 
Q 56.78125 9.90625 50.3125 4.234375 
Q 43.84375 -1.421875 31.78125 -1.421875 
Q 19.734375 -1.421875 13.25 4.234375 
Q 6.78125 9.90625 6.78125 20.515625 
Q 6.78125 27.484375 10.78125 32.3125 
Q 14.796875 37.15625 21.921875 38.8125 
z
M 18.3125 54.390625 
Q 18.3125 48.734375 21.84375 45.5625 
Q 25.390625 42.390625 31.78125 42.390625 
Q 38.140625 42.390625 41.71875 45.5625 
Q 45.3125 48.734375 45.3125 54.390625 
Q 45.3125 60.0625 41.71875 63.234375 
Q 38.140625 66.40625 31.78125 66.40625 
Q 25.390625 66.40625 21.84375 63.234375 
Q 18.3125 60.0625 18.3125 54.390625 
z
" id="DejaVuSans-38"/>
    </defs>
    <g transform="translate(260.211458 605.860104)scale(0.12 -0.12)">
     <use xlink:href="#DejaVuSans-44"/>
     <use x="77.001953" xlink:href="#DejaVuSans-20"/>
     <use x="108.789062" xlink:href="#DejaVuSans-3d"/>
     <use x="192.578125" xlink:href="#DejaVuSans-20"/>
     <use x="224.365234" xlink:href="#DejaVuSans-38"/>
    </g>
   </g>
  </g>
  <g id="axes_9">
   <g id="patch_42">
    <path d="M 460.472708 614.659062 
L 631.926875 614.659062 
L 631.926875 425.559062 
L 460.472708 425.559062 
z
" style="fill:#ffffff;"/>
   </g>
   <g id="PathCollection_9">
    <g clip-path="url(#p811d19b751)">
     <use style="fill:#ff0000;stroke:#ff0000;stroke-width:1.5;" x="566.248613" xlink:href="#m009ced2712" y="559.44282"/>
     <use style="fill:#ff0000;stroke:#ff0000;stroke-width:1.5;" x="496.543675" xlink:href="#m009ced2712" y="463.271682"/>
     <use style="fill:#ff0000;stroke:#ff0000;stroke-width:1.5;" x="475.41139" xlink:href="#m009ced2712" y="490.104382"/>
     <use style="fill:#ff0000;stroke:#ff0000;stroke-width:1.5;" x="463.694298" xlink:href="#m009ced2712" y="520.916478"/>
     <use style="fill:#ff0000;stroke:#ff0000;stroke-width:1.5;" x="619.170109" xlink:href="#m009ced2712" y="533.563642"/>
     <use style="fill:#ff0000;stroke:#ff0000;stroke-width:1.5;" x="463.939237" xlink:href="#m009ced2712" y="504.000483"/>
     <use style="fill:#ff0000;stroke:#ff0000;stroke-width:1.5;" x="514.554213" xlink:href="#m009ced2712" y="474.268767"/>
     <use style="fill:#ff0000;stroke:#ff0000;stroke-width:1.5;" x="470.798616" xlink:href="#m009ced2712" y="480.607735"/>
     <use style="fill:#ff0000;stroke:#ff0000;stroke-width:1.5;" x="625.696704" xlink:href="#m009ced2712" y="528.150023"/>
     <use style="fill:#ff0000;stroke:#ff0000;stroke-width:1.5;" x="533.110089" xlink:href="#m009ced2712" y="498.849459"/>
    </g>
   </g>
   <g id="matplotlib.axis_6">
    <g id="xtick_11">
     <g id="line2d_40">
      <g>
       <use style="stroke:#000000;stroke-width:0.8;" x="460.472708" xlink:href="#mf721a0e45b" y="614.659062"/>
      </g>
     </g>
     <g id="text_40">
      <!-- 0.00 -->
      <g transform="translate(447.113333 630.777187)scale(0.12 -0.12)">
       <use xlink:href="#DejaVuSans-30"/>
       <use x="63.623047" xlink:href="#DejaVuSans-2e"/>
       <use x="95.410156" xlink:href="#DejaVuSans-30"/>
       <use x="159.033203" xlink:href="#DejaVuSans-30"/>
      </g>
     </g>
    </g>
    <g id="xtick_12">
     <g id="line2d_41">
      <g>
       <use style="stroke:#000000;stroke-width:0.8;" x="503.33625" xlink:href="#mf721a0e45b" y="614.659062"/>
      </g>
     </g>
     <g id="text_41">
      <!-- 0.25 -->
      <g transform="translate(489.976875 630.777187)scale(0.12 -0.12)">
       <use xlink:href="#DejaVuSans-30"/>
       <use x="63.623047" xlink:href="#DejaVuSans-2e"/>
       <use x="95.410156" xlink:href="#DejaVuSans-32"/>
       <use x="159.033203" xlink:href="#DejaVuSans-35"/>
      </g>
     </g>
    </g>
    <g id="xtick_13">
     <g id="line2d_42">
      <g>
       <use style="stroke:#000000;stroke-width:0.8;" x="546.199792" xlink:href="#mf721a0e45b" y="614.659062"/>
      </g>
     </g>
     <g id="text_42">
      <!-- 0.50 -->
      <g transform="translate(532.840417 630.777187)scale(0.12 -0.12)">
       <use xlink:href="#DejaVuSans-30"/>
       <use x="63.623047" xlink:href="#DejaVuSans-2e"/>
       <use x="95.410156" xlink:href="#DejaVuSans-35"/>
       <use x="159.033203" xlink:href="#DejaVuSans-30"/>
      </g>
     </g>
    </g>
    <g id="xtick_14">
     <g id="line2d_43">
      <g>
       <use style="stroke:#000000;stroke-width:0.8;" x="589.063333" xlink:href="#mf721a0e45b" y="614.659062"/>
      </g>
     </g>
     <g id="text_43">
      <!-- 0.75 -->
      <g transform="translate(575.703958 630.777187)scale(0.12 -0.12)">
       <use xlink:href="#DejaVuSans-30"/>
       <use x="63.623047" xlink:href="#DejaVuSans-2e"/>
       <use x="95.410156" xlink:href="#DejaVuSans-37"/>
       <use x="159.033203" xlink:href="#DejaVuSans-35"/>
      </g>
     </g>
    </g>
    <g id="xtick_15">
     <g id="line2d_44">
      <g>
       <use style="stroke:#000000;stroke-width:0.8;" x="631.926875" xlink:href="#mf721a0e45b" y="614.659062"/>
      </g>
     </g>
     <g id="text_44">
      <!-- 1.00 -->
      <g transform="translate(618.5675 630.777187)scale(0.12 -0.12)">
       <use xlink:href="#DejaVuSans-31"/>
       <use x="63.623047" xlink:href="#DejaVuSans-2e"/>
       <use x="95.410156" xlink:href="#DejaVuSans-30"/>
       <use x="159.033203" xlink:href="#DejaVuSans-30"/>
      </g>
     </g>
    </g>
   </g>
   <g id="line2d_45">
    <path clip-path="url(#p811d19b751)" d="M 461.88067 641.472812 
L 462.550941 570.775386 
L 464.975545 474.878662 
L 467.400149 457.661394 
L 469.824754 469.672127 
L 472.249358 483.936921 
L 474.673963 488.662281 
L 477.098567 481.597201 
L 479.523171 465.802402 
L 481.947776 446.597882 
L 484.37238 429.481982 
L 486.796984 418.836311 
L 489.221589 417.250974 
L 491.646193 425.323773 
L 494.070798 441.805227 
L 496.495402 463.978526 
L 498.920006 488.179786 
L 501.344611 510.379307 
L 503.769215 526.758843 
L 506.193819 534.233297 
L 508.618424 530.877636 
L 511.043028 516.231261 
L 513.467633 491.462554 
L 515.892237 459.385787 
L 518.316841 424.331147 
L 520.741446 391.876183 
L 523.16605 368.453562 
L 525.590654 360.855678 
L 528.015259 375.661291 
L 530.439863 418.613097 
L 532.864468 493.977814 
L 535.289072 603.922179 
L 535.921258 641.472812 
M 565.892239 641.472812 
L 566.808929 395.665473 
L 567.928788 -1 
M 618.816509 -1 
L 619.372901 641.472812 
M 625.425037 641.472812 
L 625.72101 -1 
" style="fill:none;stroke:#000000;stroke-linecap:square;stroke-width:1.5;"/>
   </g>
   <g id="patch_43">
    <path d="M 460.472708 614.659062 
L 460.472708 425.559062 
" style="fill:none;stroke:#000000;stroke-linecap:square;stroke-linejoin:miter;stroke-width:0.8;"/>
   </g>
   <g id="patch_44">
    <path d="M 631.926875 614.659062 
L 631.926875 425.559062 
" style="fill:none;stroke:#000000;stroke-linecap:square;stroke-linejoin:miter;stroke-width:0.8;"/>
   </g>
   <g id="patch_45">
    <path d="M 460.472708 614.659062 
L 631.926875 614.659062 
" style="fill:none;stroke:#000000;stroke-linecap:square;stroke-linejoin:miter;stroke-width:0.8;"/>
   </g>
   <g id="patch_46">
    <path d="M 460.472708 425.559062 
L 631.926875 425.559062 
" style="fill:none;stroke:#000000;stroke-linecap:square;stroke-linejoin:miter;stroke-width:0.8;"/>
   </g>
   <g id="text_45">
    <!-- D = 9 -->
    <defs>
     <path d="M 10.984375 1.515625 
L 10.984375 10.5 
Q 14.703125 8.734375 18.5 7.8125 
Q 22.3125 6.890625 25.984375 6.890625 
Q 35.75 6.890625 40.890625 13.453125 
Q 46.046875 20.015625 46.78125 33.40625 
Q 43.953125 29.203125 39.59375 26.953125 
Q 35.25 24.703125 29.984375 24.703125 
Q 19.046875 24.703125 12.671875 31.3125 
Q 6.296875 37.9375 6.296875 49.421875 
Q 6.296875 60.640625 12.9375 67.421875 
Q 19.578125 74.21875 30.609375 74.21875 
Q 43.265625 74.21875 49.921875 64.515625 
Q 56.59375 54.828125 56.59375 36.375 
Q 56.59375 19.140625 48.40625 8.859375 
Q 40.234375 -1.421875 26.421875 -1.421875 
Q 22.703125 -1.421875 18.890625 -0.6875 
Q 15.09375 0.046875 10.984375 1.515625 
z
M 30.609375 32.421875 
Q 37.25 32.421875 41.125 36.953125 
Q 45.015625 41.5 45.015625 49.421875 
Q 45.015625 57.28125 41.125 61.84375 
Q 37.25 66.40625 30.609375 66.40625 
Q 23.96875 66.40625 20.09375 61.84375 
Q 16.21875 57.28125 16.21875 49.421875 
Q 16.21875 41.5 20.09375 36.953125 
Q 23.96875 32.421875 30.609375 32.421875 
z
" id="DejaVuSans-39"/>
    </defs>
    <g transform="translate(468.778125 605.860104)scale(0.12 -0.12)">
     <use xlink:href="#DejaVuSans-44"/>
     <use x="77.001953" xlink:href="#DejaVuSans-20"/>
     <use x="108.789062" xlink:href="#DejaVuSans-3d"/>
     <use x="192.578125" xlink:href="#DejaVuSans-20"/>
     <use x="224.365234" xlink:href="#DejaVuSans-39"/>
    </g>
   </g>
  </g>
 </g>
 <defs>
  <clipPath id="p22912b0626">
   <rect height="189.1" width="171.454167" x="43.339375" y="11.759062"/>
  </clipPath>
  <clipPath id="pe079a3274a">
   <rect height="189.1" width="171.454167" x="251.906042" y="11.759062"/>
  </clipPath>
  <clipPath id="pede46296a3">
   <rect height="189.1" width="171.454167" x="460.472708" y="11.759062"/>
  </clipPath>
  <clipPath id="pd36fa64b6b">
   <rect height="189.1" width="171.454167" x="43.339375" y="218.659062"/>
  </clipPath>
  <clipPath id="padb24dd042">
   <rect height="189.1" width="171.454167" x="251.906042" y="218.659062"/>
  </clipPath>
  <clipPath id="p15ba4f4eb1">
   <rect height="189.1" width="171.454167" x="460.472708" y="218.659062"/>
  </clipPath>
  <clipPath id="pd183846fbc">
   <rect height="189.1" width="171.454167" x="43.339375" y="425.559062"/>
  </clipPath>
  <clipPath id="p7076d9d6b1">
   <rect height="189.1" width="171.454167" x="251.906042" y="425.559062"/>
  </clipPath>
  <clipPath id="p811d19b751">
   <rect height="189.1" width="171.454167" x="460.472708" y="425.559062"/>
  </clipPath>
 </defs>
</svg>
